*
%LPD*%
%LNDC2026C1-4*%
%FSLAX25Y25*%
%MOIN*%
%AD*%
%AD*%
%ADD10C,0.005*%
%ADD11C,0.01*%
%ADD12C,0.008*%
%ADD22R,0.06X0.06*%
%ADD23C,0.06*%
%ADD33R,0.055X0.055*%
%ADD36C,0.11*%
%ADD38C,0.02*%
%ADD39C,0.025*%
%ADD40C,0.015*%
%ADD44C,0.05*%
%ADD119C,0.028*%
%ADD163C,0.006*%
%ADD165C,0.007*%
%ADD167C,0.126*%
%ADD168O,0.06X0.12*%
%ADD171R,0.0374X0.039370079*%
%ADD172R,0.039370079X0.0374*%
%ADD173R,0.045279921X0.057090157*%
%ADD177R,0.039370079X0.035429921*%
%ADD178R,0.035429921X0.039370079*%
%ADD179R,0.039370079X0.057090157*%
%ADD180R,0.06X0.17*%
%ADD181R,0.06X0.15*%
%ADD182R,0.15X0.06*%
%ADD183O,0.065X0.055*%
%ADD188R,0.048029921X0.02165*%
%ADD204R,0.070870079X0.045279921*%
%ADD213R,0.054X0.054*%
%ADD214C,0.054*%
%ADD216R,0.057090157X0.017*%
%ADD217R,0.039370079X0.011809843*%
G54D10*
%SRX1Y1I0.0J0.0*%
G1X1675350Y1653050D2*
G1X1699350Y1653050D1*
G1X1699350Y1618550D1*
G1X1710350Y1618550D1*
G1X1710350Y1608050D1*
G1X1675350Y1608050D1*
G1X1675350Y1653050D1*
G1X1701850Y1647550D2*
G1X1720850Y1647550D1*
G1X1720850Y1621550D1*
G1X1701850Y1621550D1*
G1X1701850Y1647550D1*
G1X1713250Y1753150D2*
G1X1703450Y1753150D1*
G1X1703450Y1762750D1*
G1X1713250Y1762750D1*
G1X1713250Y1753150D1*
G1X1675350Y1618399D2*
G1X1710350Y1618399D1*
G1X1675350Y1617949D2*
G1X1710350Y1617949D1*
G1X1675350Y1617499D2*
G1X1710350Y1617499D1*
G1X1675350Y1617049D2*
G1X1710350Y1617049D1*
G1X1675350Y1616599D2*
G1X1710350Y1616599D1*
G1X1675350Y1616149D2*
G1X1710350Y1616149D1*
G1X1675350Y1615699D2*
G1X1710350Y1615699D1*
G1X1675350Y1615249D2*
G1X1710350Y1615249D1*
G1X1675350Y1614799D2*
G1X1710350Y1614799D1*
G1X1675350Y1614349D2*
G1X1710350Y1614349D1*
G1X1675350Y1613899D2*
G1X1710350Y1613899D1*
G1X1675350Y1613449D2*
G1X1710350Y1613449D1*
G1X1675350Y1612999D2*
G1X1710350Y1612999D1*
G1X1675350Y1612549D2*
G1X1710350Y1612549D1*
G1X1675350Y1612099D2*
G1X1710350Y1612099D1*
G1X1675350Y1611649D2*
G1X1710350Y1611649D1*
G1X1675350Y1611199D2*
G1X1710350Y1611199D1*
G1X1675350Y1610749D2*
G1X1710350Y1610749D1*
G1X1675350Y1610299D2*
G1X1710350Y1610299D1*
G1X1675350Y1609849D2*
G1X1710350Y1609849D1*
G1X1675350Y1609399D2*
G1X1710350Y1609399D1*
G1X1675350Y1608949D2*
G1X1710350Y1608949D1*
G1X1675350Y1608499D2*
G1X1710350Y1608499D1*
G1X1675350Y1653049D2*
G1X1699350Y1653049D1*
G1X1675350Y1652599D2*
G1X1699350Y1652599D1*
G1X1675350Y1652149D2*
G1X1699350Y1652149D1*
G1X1675350Y1651699D2*
G1X1699350Y1651699D1*
G1X1675350Y1651249D2*
G1X1699350Y1651249D1*
G1X1675350Y1650799D2*
G1X1699350Y1650799D1*
G1X1675350Y1650349D2*
G1X1699350Y1650349D1*
G1X1675350Y1649899D2*
G1X1699350Y1649899D1*
G1X1675350Y1649449D2*
G1X1699350Y1649449D1*
G1X1675350Y1648999D2*
G1X1699350Y1648999D1*
G1X1675350Y1648549D2*
G1X1699350Y1648549D1*
G1X1675350Y1648099D2*
G1X1699350Y1648099D1*
G1X1675350Y1647649D2*
G1X1699350Y1647649D1*
G1X1675350Y1647199D2*
G1X1699350Y1647199D1*
G1X1675350Y1646749D2*
G1X1699350Y1646749D1*
G1X1675350Y1646299D2*
G1X1699350Y1646299D1*
G1X1675350Y1645849D2*
G1X1699350Y1645849D1*
G1X1675350Y1645399D2*
G1X1699350Y1645399D1*
G1X1675350Y1644949D2*
G1X1699350Y1644949D1*
G1X1675350Y1644499D2*
G1X1699350Y1644499D1*
G1X1675350Y1644049D2*
G1X1699350Y1644049D1*
G1X1675350Y1643599D2*
G1X1699350Y1643599D1*
G1X1675350Y1643149D2*
G1X1699350Y1643149D1*
G1X1675350Y1642699D2*
G1X1699350Y1642699D1*
G1X1675350Y1642249D2*
G1X1699350Y1642249D1*
G1X1675350Y1641799D2*
G1X1699350Y1641799D1*
G1X1675350Y1641349D2*
G1X1699350Y1641349D1*
G1X1675350Y1640899D2*
G1X1699350Y1640899D1*
G1X1675350Y1640449D2*
G1X1699350Y1640449D1*
G1X1675350Y1639999D2*
G1X1699350Y1639999D1*
G1X1675350Y1639549D2*
G1X1699350Y1639549D1*
G1X1675350Y1639099D2*
G1X1699350Y1639099D1*
G1X1675350Y1638649D2*
G1X1699350Y1638649D1*
G1X1675350Y1638199D2*
G1X1699350Y1638199D1*
G1X1675350Y1637749D2*
G1X1699350Y1637749D1*
G1X1675350Y1637299D2*
G1X1699350Y1637299D1*
G1X1675350Y1636849D2*
G1X1699350Y1636849D1*
G1X1675350Y1636399D2*
G1X1699350Y1636399D1*
G1X1675350Y1635949D2*
G1X1699350Y1635949D1*
G1X1675350Y1635499D2*
G1X1699350Y1635499D1*
G1X1675350Y1635049D2*
G1X1699350Y1635049D1*
G1X1675350Y1634599D2*
G1X1699350Y1634599D1*
G1X1675350Y1634149D2*
G1X1699350Y1634149D1*
G1X1675350Y1633699D2*
G1X1699350Y1633699D1*
G1X1675350Y1633249D2*
G1X1699350Y1633249D1*
G1X1675350Y1632799D2*
G1X1699350Y1632799D1*
G1X1675350Y1632349D2*
G1X1699350Y1632349D1*
G1X1675350Y1631899D2*
G1X1699350Y1631899D1*
G1X1675350Y1631449D2*
G1X1699350Y1631449D1*
G1X1675350Y1630999D2*
G1X1699350Y1630999D1*
G1X1675350Y1630549D2*
G1X1699350Y1630549D1*
G1X1675350Y1630099D2*
G1X1699350Y1630099D1*
G1X1675350Y1629649D2*
G1X1699350Y1629649D1*
G1X1675350Y1629199D2*
G1X1699350Y1629199D1*
G1X1675350Y1628749D2*
G1X1699350Y1628749D1*
G1X1675350Y1628299D2*
G1X1699350Y1628299D1*
G1X1675350Y1627849D2*
G1X1699350Y1627849D1*
G1X1675350Y1627399D2*
G1X1699350Y1627399D1*
G1X1675350Y1626949D2*
G1X1699350Y1626949D1*
G1X1675350Y1626499D2*
G1X1699350Y1626499D1*
G1X1675350Y1626049D2*
G1X1699350Y1626049D1*
G1X1675350Y1625599D2*
G1X1699350Y1625599D1*
G1X1675350Y1625149D2*
G1X1699350Y1625149D1*
G1X1675350Y1624699D2*
G1X1699350Y1624699D1*
G1X1675350Y1624249D2*
G1X1699350Y1624249D1*
G1X1675350Y1623799D2*
G1X1699350Y1623799D1*
G1X1675350Y1623349D2*
G1X1699350Y1623349D1*
G1X1675350Y1622899D2*
G1X1699350Y1622899D1*
G1X1675350Y1622449D2*
G1X1699350Y1622449D1*
G1X1675350Y1621999D2*
G1X1699350Y1621999D1*
G1X1675350Y1621549D2*
G1X1699350Y1621549D1*
G1X1675350Y1621099D2*
G1X1699350Y1621099D1*
G1X1675350Y1620649D2*
G1X1699350Y1620649D1*
G1X1675350Y1620199D2*
G1X1699350Y1620199D1*
G1X1675350Y1619749D2*
G1X1699350Y1619749D1*
G1X1675350Y1619299D2*
G1X1699350Y1619299D1*
G1X1675350Y1618849D2*
G1X1699350Y1618849D1*
G1X1701850Y1647199D2*
G1X1720850Y1647199D1*
G1X1701850Y1646749D2*
G1X1720850Y1646749D1*
G1X1701850Y1646299D2*
G1X1720850Y1646299D1*
G1X1701850Y1645849D2*
G1X1720850Y1645849D1*
G1X1701850Y1645399D2*
G1X1720850Y1645399D1*
G1X1701850Y1644949D2*
G1X1720850Y1644949D1*
G1X1701850Y1644499D2*
G1X1720850Y1644499D1*
G1X1701850Y1644049D2*
G1X1720850Y1644049D1*
G1X1701850Y1643599D2*
G1X1720850Y1643599D1*
G1X1701850Y1643149D2*
G1X1720850Y1643149D1*
G1X1701850Y1642699D2*
G1X1720850Y1642699D1*
G1X1701850Y1642249D2*
G1X1720850Y1642249D1*
G1X1701850Y1641799D2*
G1X1720850Y1641799D1*
G1X1701850Y1641349D2*
G1X1720850Y1641349D1*
G1X1701850Y1640899D2*
G1X1720850Y1640899D1*
G1X1701850Y1640449D2*
G1X1720850Y1640449D1*
G1X1701850Y1639999D2*
G1X1720850Y1639999D1*
G1X1701850Y1639549D2*
G1X1720850Y1639549D1*
G1X1701850Y1639099D2*
G1X1720850Y1639099D1*
G1X1701850Y1638649D2*
G1X1720850Y1638649D1*
G1X1701850Y1638199D2*
G1X1720850Y1638199D1*
G1X1701850Y1637749D2*
G1X1720850Y1637749D1*
G1X1701850Y1637299D2*
G1X1720850Y1637299D1*
G1X1701850Y1636849D2*
G1X1720850Y1636849D1*
G1X1701850Y1636399D2*
G1X1720850Y1636399D1*
G1X1701850Y1635949D2*
G1X1720850Y1635949D1*
G1X1701850Y1635499D2*
G1X1720850Y1635499D1*
G1X1701850Y1635049D2*
G1X1720850Y1635049D1*
G1X1701850Y1634599D2*
G1X1720850Y1634599D1*
G1X1701850Y1634149D2*
G1X1720850Y1634149D1*
G1X1701850Y1633699D2*
G1X1720850Y1633699D1*
G1X1701850Y1633249D2*
G1X1720850Y1633249D1*
G1X1701850Y1632799D2*
G1X1720850Y1632799D1*
G1X1701850Y1632349D2*
G1X1720850Y1632349D1*
G1X1701850Y1631899D2*
G1X1720850Y1631899D1*
G1X1701850Y1631449D2*
G1X1720850Y1631449D1*
G1X1701850Y1630999D2*
G1X1720850Y1630999D1*
G1X1701850Y1630549D2*
G1X1720850Y1630549D1*
G1X1701850Y1630099D2*
G1X1720850Y1630099D1*
G1X1701850Y1629649D2*
G1X1720850Y1629649D1*
G1X1701850Y1629199D2*
G1X1720850Y1629199D1*
G1X1701850Y1628749D2*
G1X1720850Y1628749D1*
G1X1701850Y1628299D2*
G1X1720850Y1628299D1*
G1X1701850Y1627849D2*
G1X1720850Y1627849D1*
G1X1701850Y1627399D2*
G1X1720850Y1627399D1*
G1X1701850Y1626949D2*
G1X1720850Y1626949D1*
G1X1701850Y1626499D2*
G1X1720850Y1626499D1*
G1X1701850Y1626049D2*
G1X1720850Y1626049D1*
G1X1701850Y1625599D2*
G1X1720850Y1625599D1*
G1X1701850Y1625149D2*
G1X1720850Y1625149D1*
G1X1701850Y1624699D2*
G1X1720850Y1624699D1*
G1X1701850Y1624249D2*
G1X1720850Y1624249D1*
G1X1701850Y1623799D2*
G1X1720850Y1623799D1*
G1X1701850Y1623349D2*
G1X1720850Y1623349D1*
G1X1701850Y1622899D2*
G1X1720850Y1622899D1*
G1X1701850Y1622449D2*
G1X1720850Y1622449D1*
G1X1701850Y1621999D2*
G1X1720850Y1621999D1*
G1X1703450Y1762599D2*
G1X1713250Y1762599D1*
G1X1703450Y1762149D2*
G1X1713250Y1762149D1*
G1X1703450Y1761699D2*
G1X1713250Y1761699D1*
G1X1703450Y1761249D2*
G1X1713250Y1761249D1*
G1X1703450Y1760799D2*
G1X1713250Y1760799D1*
G1X1703450Y1760349D2*
G1X1713250Y1760349D1*
G1X1703450Y1759899D2*
G1X1713250Y1759899D1*
G1X1703450Y1759449D2*
G1X1713250Y1759449D1*
G1X1703450Y1758999D2*
G1X1713250Y1758999D1*
G1X1703450Y1758549D2*
G1X1713250Y1758549D1*
G1X1703450Y1758099D2*
G1X1713250Y1758099D1*
G1X1703450Y1757649D2*
G1X1713250Y1757649D1*
G1X1703450Y1757199D2*
G1X1713250Y1757199D1*
G1X1703450Y1756749D2*
G1X1713250Y1756749D1*
G1X1703450Y1756299D2*
G1X1713250Y1756299D1*
G1X1703450Y1755849D2*
G1X1713250Y1755849D1*
G1X1703450Y1755399D2*
G1X1713250Y1755399D1*
G1X1703450Y1754949D2*
G1X1713250Y1754949D1*
G1X1703450Y1754499D2*
G1X1713250Y1754499D1*
G1X1703450Y1754049D2*
G1X1713250Y1754049D1*
G1X1703450Y1753599D2*
G1X1713250Y1753599D1*
G1X1664100Y1581863D2*
G54D11*
G1X1664100Y1575300D1*
G1X1666827Y1575300D1*
G1X1670691Y1581863D2*
G1X1668873Y1575300D1*
G1X1670691Y1581863D2*
G1X1672509Y1575300D1*
G1X1669555Y1577488D2*
G1X1671827Y1577488D1*
G1X1674555Y1581863D2*
G1X1676373Y1578738D1*
G1X1676373Y1575300D1*
G1X1678191Y1581863D2*
G1X1676373Y1578738D1*
G1X1680236Y1581863D2*
G1X1680236Y1575300D1*
G1X1680236Y1581863D2*
G1X1683191Y1581863D1*
G1X1680236Y1578738D2*
G1X1682055Y1578738D1*
G1X1680236Y1575300D2*
G1X1683191Y1575300D1*
G1X1685236Y1581863D2*
G1X1685236Y1575300D1*
G1X1685236Y1581863D2*
G1X1687282Y1581863D1*
G1X1687964Y1581550D1*
G1X1688191Y1581238D1*
G1X1688418Y1580613D1*
G1X1688418Y1579988D1*
G1X1688191Y1579363D1*
G1X1687964Y1579050D1*
G1X1687282Y1578738D1*
G1X1685236Y1578738D1*
G1X1686827Y1578738D2*
G1X1688418Y1575300D1*
G1X1697964Y1581863D2*
G1X1695691Y1577488D1*
G1X1699100Y1577488D1*
G1X1697964Y1581863D2*
G1X1697964Y1575300D1*
G1X1706373Y1578113D2*
G1X1710464Y1578113D1*
G1X1717736Y1581863D2*
G1X1717736Y1575300D1*
G1X1717736Y1581863D2*
G1X1719782Y1581863D1*
G1X1720464Y1581550D1*
G1X1720691Y1581238D1*
G1X1720918Y1580613D1*
G1X1720918Y1579988D1*
G1X1720691Y1579363D1*
G1X1720464Y1579050D1*
G1X1719782Y1578738D1*
G1X1717736Y1578738D2*
G1X1719782Y1578738D1*
G1X1720464Y1578425D1*
G1X1720691Y1578113D1*
G1X1720918Y1577488D1*
G1X1720918Y1576550D1*
G1X1720691Y1575925D1*
G1X1720464Y1575613D1*
G1X1719782Y1575300D1*
G1X1717736Y1575300D1*
G1X1724327Y1581863D2*
G1X1723873Y1581550D1*
G1X1723418Y1580925D1*
G1X1723191Y1580300D1*
G1X1722964Y1579363D1*
G1X1722964Y1577800D1*
G1X1723191Y1576863D1*
G1X1723418Y1576238D1*
G1X1723873Y1575613D1*
G1X1724327Y1575300D1*
G1X1725236Y1575300D1*
G1X1725691Y1575613D1*
G1X1726145Y1576238D1*
G1X1726373Y1576863D1*
G1X1726600Y1577800D1*
G1X1726600Y1579363D1*
G1X1726373Y1580300D1*
G1X1726145Y1580925D1*
G1X1725691Y1581550D1*
G1X1725236Y1581863D1*
G1X1724327Y1581863D1*
G1X1730236Y1581863D2*
G1X1730236Y1575300D1*
G1X1728645Y1581863D2*
G1X1731827Y1581863D1*
G1X1735464Y1581863D2*
G1X1735464Y1575300D1*
G1X1733873Y1581863D2*
G1X1737055Y1581863D1*
G1X1740464Y1581863D2*
G1X1740009Y1581550D1*
G1X1739555Y1580925D1*
G1X1739327Y1580300D1*
G1X1739100Y1579363D1*
G1X1739100Y1577800D1*
G1X1739327Y1576863D1*
G1X1739555Y1576238D1*
G1X1740009Y1575613D1*
G1X1740464Y1575300D1*
G1X1741373Y1575300D1*
G1X1741827Y1575613D1*
G1X1742282Y1576238D1*
G1X1742509Y1576863D1*
G1X1742736Y1577800D1*
G1X1742736Y1579363D1*
G1X1742509Y1580300D1*
G1X1742282Y1580925D1*
G1X1741827Y1581550D1*
G1X1741373Y1581863D1*
G1X1740464Y1581863D1*
G1X1744782Y1581863D2*
G1X1744782Y1575300D1*
G1X1744782Y1581863D2*
G1X1746600Y1575300D1*
G1X1748418Y1581863D2*
G1X1746600Y1575300D1*
G1X1748418Y1581863D2*
G1X1748418Y1575300D1*
G1X1755691Y1581863D2*
G1X1755691Y1575300D1*
G1X1758418Y1575300D1*
G1X1762282Y1581863D2*
G1X1760464Y1575300D1*
G1X1762282Y1581863D2*
G1X1764100Y1575300D1*
G1X1761145Y1577488D2*
G1X1763418Y1577488D1*
G1X1766145Y1581863D2*
G1X1767964Y1578738D1*
G1X1767964Y1575300D1*
G1X1769782Y1581863D2*
G1X1767964Y1578738D1*
G1X1771827Y1581863D2*
G1X1771827Y1575300D1*
G1X1771827Y1581863D2*
G1X1774782Y1581863D1*
G1X1771827Y1578738D2*
G1X1773645Y1578738D1*
G1X1771827Y1575300D2*
G1X1774782Y1575300D1*
G1X1776827Y1581863D2*
G1X1776827Y1575300D1*
G1X1776827Y1581863D2*
G1X1778873Y1581863D1*
G1X1779555Y1581550D1*
G1X1779782Y1581238D1*
G1X1780009Y1580613D1*
G1X1780009Y1579988D1*
G1X1779782Y1579363D1*
G1X1779555Y1579050D1*
G1X1778873Y1578738D1*
G1X1776827Y1578738D1*
G1X1778418Y1578738D2*
G1X1780009Y1575300D1*
G1X1795100Y1567733D2*
G1X1795100Y1561170D1*
G1X1797827Y1561170D1*
G1X1799873Y1567733D2*
G1X1799873Y1561170D1*
G1X1801918Y1567733D2*
G1X1801918Y1561170D1*
G1X1801918Y1567733D2*
G1X1805100Y1561170D1*
G1X1805100Y1567733D2*
G1X1805100Y1561170D1*
G1X1807145Y1567733D2*
G1X1807145Y1561170D1*
G1X1807145Y1567733D2*
G1X1810100Y1567733D1*
G1X1807145Y1564608D2*
G1X1808964Y1564608D1*
G1X1807145Y1561170D2*
G1X1810100Y1561170D1*
G1X1813964Y1567733D2*
G1X1812145Y1561170D1*
G1X1813964Y1567733D2*
G1X1815782Y1561170D1*
G1X1812827Y1563358D2*
G1X1815100Y1563358D1*
G1X1817827Y1567733D2*
G1X1817827Y1561170D1*
G1X1817827Y1567733D2*
G1X1819873Y1567733D1*
G1X1820555Y1567420D1*
G1X1820782Y1567108D1*
G1X1821009Y1566483D1*
G1X1821009Y1565858D1*
G1X1820782Y1565233D1*
G1X1820555Y1564920D1*
G1X1819873Y1564608D1*
G1X1817827Y1564608D1*
G1X1819418Y1564608D2*
G1X1821009Y1561170D1*
G1X1829873Y1567733D2*
G1X1829873Y1561170D1*
G1X1828282Y1567733D2*
G1X1831464Y1567733D1*
G1X1833509Y1567733D2*
G1X1833509Y1561170D1*
G1X1833509Y1567733D2*
G1X1836464Y1567733D1*
G1X1833509Y1564608D2*
G1X1835327Y1564608D1*
G1X1833509Y1561170D2*
G1X1836464Y1561170D1*
G1X1841918Y1566170D2*
G1X1841691Y1566795D1*
G1X1841236Y1567420D1*
G1X1840782Y1567733D1*
G1X1839873Y1567733D1*
G1X1839418Y1567420D1*
G1X1838964Y1566795D1*
G1X1838736Y1566170D1*
G1X1838509Y1565233D1*
G1X1838509Y1563670D1*
G1X1838736Y1562733D1*
G1X1838964Y1562108D1*
G1X1839418Y1561483D1*
G1X1839873Y1561170D1*
G1X1840782Y1561170D1*
G1X1841236Y1561483D1*
G1X1841691Y1562108D1*
G1X1841918Y1562733D1*
G1X1843964Y1567733D2*
G1X1843964Y1561170D1*
G1X1847145Y1567733D2*
G1X1847145Y1561170D1*
G1X1843964Y1564608D2*
G1X1847145Y1564608D1*
G1X1849191Y1567733D2*
G1X1849191Y1561170D1*
G1X1849191Y1567733D2*
G1X1852373Y1561170D1*
G1X1852373Y1567733D2*
G1X1852373Y1561170D1*
G1X1855782Y1567733D2*
G1X1855327Y1567420D1*
G1X1854873Y1566795D1*
G1X1854645Y1566170D1*
G1X1854418Y1565233D1*
G1X1854418Y1563670D1*
G1X1854645Y1562733D1*
G1X1854873Y1562108D1*
G1X1855327Y1561483D1*
G1X1855782Y1561170D1*
G1X1856691Y1561170D1*
G1X1857145Y1561483D1*
G1X1857600Y1562108D1*
G1X1857827Y1562733D1*
G1X1858055Y1563670D1*
G1X1858055Y1565233D1*
G1X1857827Y1566170D1*
G1X1857600Y1566795D1*
G1X1857145Y1567420D1*
G1X1856691Y1567733D1*
G1X1855782Y1567733D1*
G1X1860100Y1567733D2*
G1X1860100Y1561170D1*
G1X1862827Y1561170D1*
G1X1866236Y1567733D2*
G1X1865782Y1567420D1*
G1X1865327Y1566795D1*
G1X1865100Y1566170D1*
G1X1864873Y1565233D1*
G1X1864873Y1563670D1*
G1X1865100Y1562733D1*
G1X1865327Y1562108D1*
G1X1865782Y1561483D1*
G1X1866236Y1561170D1*
G1X1867145Y1561170D1*
G1X1867600Y1561483D1*
G1X1868055Y1562108D1*
G1X1868282Y1562733D1*
G1X1868509Y1563670D1*
G1X1868509Y1565233D1*
G1X1868282Y1566170D1*
G1X1868055Y1566795D1*
G1X1867600Y1567420D1*
G1X1867145Y1567733D1*
G1X1866236Y1567733D1*
G1X1873964Y1566170D2*
G1X1873736Y1566795D1*
G1X1873282Y1567420D1*
G1X1872827Y1567733D1*
G1X1871918Y1567733D1*
G1X1871464Y1567420D1*
G1X1871009Y1566795D1*
G1X1870782Y1566170D1*
G1X1870555Y1565233D1*
G1X1870555Y1563670D1*
G1X1870782Y1562733D1*
G1X1871009Y1562108D1*
G1X1871464Y1561483D1*
G1X1871918Y1561170D1*
G1X1872827Y1561170D1*
G1X1873282Y1561483D1*
G1X1873736Y1562108D1*
G1X1873964Y1562733D1*
G1X1873964Y1563670D1*
G1X1872827Y1563670D2*
G1X1873964Y1563670D1*
G1X1876009Y1567733D2*
G1X1877827Y1564608D1*
G1X1877827Y1561170D1*
G1X1879645Y1567733D2*
G1X1877827Y1564608D1*
G1X1886918Y1567733D2*
G1X1886918Y1561170D1*
G1X1892145Y1566795D2*
G1X1891691Y1567420D1*
G1X1891009Y1567733D1*
G1X1890100Y1567733D1*
G1X1889418Y1567420D1*
G1X1888964Y1566795D1*
G1X1888964Y1566170D1*
G1X1889191Y1565545D1*
G1X1889418Y1565233D1*
G1X1889873Y1564920D1*
G1X1891236Y1564295D1*
G1X1891691Y1563983D1*
G1X1891918Y1563670D1*
G1X1892145Y1563045D1*
G1X1892145Y1562108D1*
G1X1891691Y1561483D1*
G1X1891009Y1561170D1*
G1X1890100Y1561170D1*
G1X1889418Y1561483D1*
G1X1888964Y1562108D1*
G1X1895555Y1567733D2*
G1X1895100Y1567420D1*
G1X1894645Y1566795D1*
G1X1894418Y1566170D1*
G1X1894191Y1565233D1*
G1X1894191Y1563670D1*
G1X1894418Y1562733D1*
G1X1894645Y1562108D1*
G1X1895100Y1561483D1*
G1X1895555Y1561170D1*
G1X1896464Y1561170D1*
G1X1896918Y1561483D1*
G1X1897373Y1562108D1*
G1X1897600Y1562733D1*
G1X1897827Y1563670D1*
G1X1897827Y1565233D1*
G1X1897600Y1566170D1*
G1X1897373Y1566795D1*
G1X1896918Y1567420D1*
G1X1896464Y1567733D1*
G1X1895555Y1567733D1*
G1X1899873Y1567733D2*
G1X1899873Y1561170D1*
G1X1902600Y1561170D1*
G1X1906464Y1567733D2*
G1X1904645Y1561170D1*
G1X1906464Y1567733D2*
G1X1908282Y1561170D1*
G1X1905327Y1563358D2*
G1X1907600Y1563358D1*
G1X1911918Y1567733D2*
G1X1911918Y1561170D1*
G1X1910327Y1567733D2*
G1X1913509Y1567733D1*
G1X1915555Y1567733D2*
G1X1915555Y1561170D1*
G1X1915555Y1567733D2*
G1X1918509Y1567733D1*
G1X1915555Y1564608D2*
G1X1917373Y1564608D1*
G1X1915555Y1561170D2*
G1X1918509Y1561170D1*
G1X1920555Y1567733D2*
G1X1920555Y1561170D1*
G1X1920555Y1567733D2*
G1X1922145Y1567733D1*
G1X1922827Y1567420D1*
G1X1923282Y1566795D1*
G1X1923509Y1566170D1*
G1X1923736Y1565233D1*
G1X1923736Y1563670D1*
G1X1923509Y1562733D1*
G1X1923282Y1562108D1*
G1X1922827Y1561483D1*
G1X1922145Y1561170D1*
G1X1920555Y1561170D1*
G1X1795100Y1587733D2*
G1X1795100Y1581170D1*
G1X1795100Y1587733D2*
G1X1796691Y1587733D1*
G1X1797373Y1587420D1*
G1X1797827Y1586795D1*
G1X1798055Y1586170D1*
G1X1798282Y1585233D1*
G1X1798282Y1583670D1*
G1X1798055Y1582733D1*
G1X1797827Y1582108D1*
G1X1797373Y1581483D1*
G1X1796691Y1581170D1*
G1X1795100Y1581170D1*
G1X1803736Y1586170D2*
G1X1803509Y1586795D1*
G1X1803055Y1587420D1*
G1X1802600Y1587733D1*
G1X1801691Y1587733D1*
G1X1801236Y1587420D1*
G1X1800782Y1586795D1*
G1X1800555Y1586170D1*
G1X1800327Y1585233D1*
G1X1800327Y1583670D1*
G1X1800555Y1582733D1*
G1X1800782Y1582108D1*
G1X1801236Y1581483D1*
G1X1801691Y1581170D1*
G1X1802600Y1581170D1*
G1X1803055Y1581483D1*
G1X1803509Y1582108D1*
G1X1803736Y1582733D1*
G1X1806009Y1586170D2*
G1X1806009Y1586483D1*
G1X1806236Y1587108D1*
G1X1806464Y1587420D1*
G1X1806918Y1587733D1*
G1X1807827Y1587733D1*
G1X1808282Y1587420D1*
G1X1808509Y1587108D1*
G1X1808736Y1586483D1*
G1X1808736Y1585858D1*
G1X1808509Y1585233D1*
G1X1808055Y1584295D1*
G1X1805782Y1581170D1*
G1X1808964Y1581170D1*
G1X1812373Y1587733D2*
G1X1811691Y1587420D1*
G1X1811236Y1586483D1*
G1X1811009Y1584920D1*
G1X1811009Y1583983D1*
G1X1811236Y1582420D1*
G1X1811691Y1581483D1*
G1X1812373Y1581170D1*
G1X1812827Y1581170D1*
G1X1813509Y1581483D1*
G1X1813964Y1582420D1*
G1X1814191Y1583983D1*
G1X1814191Y1584920D1*
G1X1813964Y1586483D1*
G1X1813509Y1587420D1*
G1X1812827Y1587733D1*
G1X1812373Y1587733D1*
G1X1816464Y1586170D2*
G1X1816464Y1586483D1*
G1X1816691Y1587108D1*
G1X1816918Y1587420D1*
G1X1817373Y1587733D1*
G1X1818282Y1587733D1*
G1X1818736Y1587420D1*
G1X1818964Y1587108D1*
G1X1819191Y1586483D1*
G1X1819191Y1585858D1*
G1X1818964Y1585233D1*
G1X1818509Y1584295D1*
G1X1816236Y1581170D1*
G1X1819418Y1581170D1*
G1X1824191Y1586795D2*
G1X1823964Y1587420D1*
G1X1823282Y1587733D1*
G1X1822827Y1587733D1*
G1X1822145Y1587420D1*
G1X1821691Y1586483D1*
G1X1821464Y1584920D1*
G1X1821464Y1583358D1*
G1X1821691Y1582108D1*
G1X1822145Y1581483D1*
G1X1822827Y1581170D1*
G1X1823055Y1581170D1*
G1X1823736Y1581483D1*
G1X1824191Y1582108D1*
G1X1824418Y1583045D1*
G1X1824418Y1583358D1*
G1X1824191Y1584295D1*
G1X1823736Y1584920D1*
G1X1823055Y1585233D1*
G1X1822827Y1585233D1*
G1X1822145Y1584920D1*
G1X1821691Y1584295D1*
G1X1821464Y1583358D1*
G1X1829873Y1586170D2*
G1X1829645Y1586795D1*
G1X1829191Y1587420D1*
G1X1828736Y1587733D1*
G1X1827827Y1587733D1*
G1X1827373Y1587420D1*
G1X1826918Y1586795D1*
G1X1826691Y1586170D1*
G1X1826464Y1585233D1*
G1X1826464Y1583670D1*
G1X1826691Y1582733D1*
G1X1826918Y1582108D1*
G1X1827373Y1581483D1*
G1X1827827Y1581170D1*
G1X1828736Y1581170D1*
G1X1829191Y1581483D1*
G1X1829645Y1582108D1*
G1X1829873Y1582733D1*
G1X1831918Y1583983D2*
G1X1836009Y1583983D1*
G1X1838055Y1586483D2*
G1X1838509Y1586795D1*
G1X1839191Y1587733D1*
G1X1839191Y1581170D1*
G1X1847600Y1585858D2*
G1X1847600Y1582108D1*
G1X1846464Y1584920D2*
G1X1848736Y1583045D1*
G1X1848736Y1584920D2*
G1X1846464Y1583045D1*
G1X1856009Y1587733D2*
G1X1856009Y1581170D1*
G1X1858736Y1581170D1*
G1X1862373Y1587733D2*
G1X1862373Y1581170D1*
G1X1860782Y1587733D2*
G1X1863964Y1587733D1*
G1X1866009Y1587733D2*
G1X1866009Y1581170D1*
G1X1866009Y1587733D2*
G1X1867827Y1581170D1*
G1X1869645Y1587733D2*
G1X1867827Y1581170D1*
G1X1869645Y1587733D2*
G1X1869645Y1581170D1*
G1X1871918Y1586170D2*
G1X1871918Y1586483D1*
G1X1872145Y1587108D1*
G1X1872373Y1587420D1*
G1X1872827Y1587733D1*
G1X1873736Y1587733D1*
G1X1874191Y1587420D1*
G1X1874418Y1587108D1*
G1X1874645Y1586483D1*
G1X1874645Y1585858D1*
G1X1874418Y1585233D1*
G1X1873964Y1584295D1*
G1X1871691Y1581170D1*
G1X1874873Y1581170D1*
G1X1878055Y1587733D2*
G1X1877373Y1587420D1*
G1X1877145Y1586795D1*
G1X1877145Y1586170D1*
G1X1877373Y1585545D1*
G1X1877827Y1585233D1*
G1X1878736Y1584920D1*
G1X1879418Y1584608D1*
G1X1879873Y1583983D1*
G1X1880100Y1583358D1*
G1X1880100Y1582420D1*
G1X1879873Y1581795D1*
G1X1879645Y1581483D1*
G1X1878964Y1581170D1*
G1X1878055Y1581170D1*
G1X1877373Y1581483D1*
G1X1877145Y1581795D1*
G1X1876918Y1582420D1*
G1X1876918Y1583358D1*
G1X1877145Y1583983D1*
G1X1877600Y1584608D1*
G1X1878282Y1584920D1*
G1X1879191Y1585233D1*
G1X1879645Y1585545D1*
G1X1879873Y1586170D1*
G1X1879873Y1586795D1*
G1X1879645Y1587420D1*
G1X1878964Y1587733D1*
G1X1878055Y1587733D1*
G1X1883282Y1587733D2*
G1X1882600Y1587420D1*
G1X1882373Y1586795D1*
G1X1882373Y1586170D1*
G1X1882600Y1585545D1*
G1X1883055Y1585233D1*
G1X1883964Y1584920D1*
G1X1884645Y1584608D1*
G1X1885100Y1583983D1*
G1X1885327Y1583358D1*
G1X1885327Y1582420D1*
G1X1885100Y1581795D1*
G1X1884873Y1581483D1*
G1X1884191Y1581170D1*
G1X1883282Y1581170D1*
G1X1882600Y1581483D1*
G1X1882373Y1581795D1*
G1X1882145Y1582420D1*
G1X1882145Y1583358D1*
G1X1882373Y1583983D1*
G1X1882827Y1584608D1*
G1X1883509Y1584920D1*
G1X1884418Y1585233D1*
G1X1884873Y1585545D1*
G1X1885100Y1586170D1*
G1X1885100Y1586795D1*
G1X1884873Y1587420D1*
G1X1884191Y1587733D1*
G1X1883282Y1587733D1*
G1X1889645Y1587733D2*
G1X1887373Y1583358D1*
G1X1890782Y1583358D1*
G1X1889645Y1587733D2*
G1X1889645Y1581170D1*
G1X1896236Y1586170D2*
G1X1896009Y1586795D1*
G1X1895555Y1587420D1*
G1X1895100Y1587733D1*
G1X1894191Y1587733D1*
G1X1893736Y1587420D1*
G1X1893282Y1586795D1*
G1X1893055Y1586170D1*
G1X1892827Y1585233D1*
G1X1892827Y1583670D1*
G1X1893055Y1582733D1*
G1X1893282Y1582108D1*
G1X1893736Y1581483D1*
G1X1894191Y1581170D1*
G1X1895100Y1581170D1*
G1X1895555Y1581483D1*
G1X1896009Y1582108D1*
G1X1896236Y1582733D1*
G1X1898282Y1587733D2*
G1X1900100Y1584608D1*
G1X1900100Y1581170D1*
G1X1901918Y1587733D2*
G1X1900100Y1584608D1*
G1X1795100Y1577733D2*
G1X1795100Y1571170D1*
G1X1797827Y1571170D1*
G1X1799873Y1577733D2*
G1X1799873Y1571170D1*
G1X1801918Y1577733D2*
G1X1801918Y1571170D1*
G1X1801918Y1577733D2*
G1X1805100Y1571170D1*
G1X1805100Y1577733D2*
G1X1805100Y1571170D1*
G1X1807145Y1577733D2*
G1X1807145Y1571170D1*
G1X1807145Y1577733D2*
G1X1808736Y1577733D1*
G1X1809418Y1577420D1*
G1X1809873Y1576795D1*
G1X1810100Y1576170D1*
G1X1810327Y1575233D1*
G1X1810327Y1573670D1*
G1X1810100Y1572733D1*
G1X1809873Y1572108D1*
G1X1809418Y1571483D1*
G1X1808736Y1571170D1*
G1X1807145Y1571170D1*
G1X1812373Y1577733D2*
G1X1812373Y1573045D1*
G1X1812600Y1572108D1*
G1X1813055Y1571483D1*
G1X1813736Y1571170D1*
G1X1814191Y1571170D1*
G1X1814873Y1571483D1*
G1X1815327Y1572108D1*
G1X1815555Y1573045D1*
G1X1815555Y1577733D1*
G1X1817600Y1577733D2*
G1X1817600Y1571170D1*
G1X1819645Y1577733D2*
G1X1819645Y1571170D1*
G1X1819645Y1577733D2*
G1X1822827Y1571170D1*
G1X1822827Y1577733D2*
G1X1822827Y1571170D1*
G1X1826236Y1577733D2*
G1X1825782Y1577420D1*
G1X1825327Y1576795D1*
G1X1825100Y1576170D1*
G1X1824873Y1575233D1*
G1X1824873Y1573670D1*
G1X1825100Y1572733D1*
G1X1825327Y1572108D1*
G1X1825782Y1571483D1*
G1X1826236Y1571170D1*
G1X1827145Y1571170D1*
G1X1827600Y1571483D1*
G1X1828055Y1572108D1*
G1X1828282Y1572733D1*
G1X1828509Y1573670D1*
G1X1828509Y1575233D1*
G1X1828282Y1576170D1*
G1X1828055Y1576795D1*
G1X1827600Y1577420D1*
G1X1827145Y1577733D1*
G1X1826236Y1577733D1*
G1X1837145Y1577733D2*
G1X1836691Y1577420D1*
G1X1836236Y1576795D1*
G1X1836009Y1576170D1*
G1X1835782Y1575233D1*
G1X1835782Y1573670D1*
G1X1836009Y1572733D1*
G1X1836236Y1572108D1*
G1X1836691Y1571483D1*
G1X1837145Y1571170D1*
G1X1838055Y1571170D1*
G1X1838509Y1571483D1*
G1X1838964Y1572108D1*
G1X1839191Y1572733D1*
G1X1839418Y1573670D1*
G1X1839418Y1575233D1*
G1X1839191Y1576170D1*
G1X1838964Y1576795D1*
G1X1838509Y1577420D1*
G1X1838055Y1577733D1*
G1X1837145Y1577733D1*
G1X1841464Y1577733D2*
G1X1841464Y1571170D1*
G1X1841464Y1577733D2*
G1X1844645Y1571170D1*
G1X1844645Y1577733D2*
G1X1844645Y1571170D1*
G1X1846691Y1577733D2*
G1X1846691Y1571170D1*
G1X1846691Y1577733D2*
G1X1849645Y1577733D1*
G1X1846691Y1574608D2*
G1X1848509Y1574608D1*
G1X1846691Y1571170D2*
G1X1849645Y1571170D1*
G1X1851918Y1575545D2*
G1X1851691Y1575233D1*
G1X1851918Y1574920D1*
G1X1852145Y1575233D1*
G1X1851918Y1575545D1*
G1X1851918Y1571795D2*
G1X1851691Y1571483D1*
G1X1851918Y1571170D1*
G1X1852145Y1571483D1*
G1X1851918Y1571795D1*
G1X1796918Y1557733D2*
G1X1795100Y1551170D1*
G1X1796918Y1557733D2*
G1X1798736Y1551170D1*
G1X1795782Y1553358D2*
G1X1798055Y1553358D1*
G1X1800782Y1557733D2*
G1X1800782Y1551170D1*
G1X1800782Y1557733D2*
G1X1802827Y1557733D1*
G1X1803509Y1557420D1*
G1X1803736Y1557108D1*
G1X1803964Y1556483D1*
G1X1803964Y1555858D1*
G1X1803736Y1555233D1*
G1X1803509Y1554920D1*
G1X1802827Y1554608D1*
G1X1800782Y1554608D1*
G1X1802373Y1554608D2*
G1X1803964Y1551170D1*
G1X1806009Y1557733D2*
G1X1806009Y1551170D1*
G1X1806009Y1557733D2*
G1X1807600Y1557733D1*
G1X1808282Y1557420D1*
G1X1808736Y1556795D1*
G1X1808964Y1556170D1*
G1X1809191Y1555233D1*
G1X1809191Y1553670D1*
G1X1808964Y1552733D1*
G1X1808736Y1552108D1*
G1X1808282Y1551483D1*
G1X1807600Y1551170D1*
G1X1806009Y1551170D1*
G1X1811236Y1557733D2*
G1X1811236Y1553045D1*
G1X1811464Y1552108D1*
G1X1811918Y1551483D1*
G1X1812600Y1551170D1*
G1X1813055Y1551170D1*
G1X1813736Y1551483D1*
G1X1814191Y1552108D1*
G1X1814418Y1553045D1*
G1X1814418Y1557733D1*
G1X1816464Y1557733D2*
G1X1816464Y1551170D1*
G1X1818509Y1557733D2*
G1X1818509Y1551170D1*
G1X1818509Y1557733D2*
G1X1821691Y1551170D1*
G1X1821691Y1557733D2*
G1X1821691Y1551170D1*
G1X1825100Y1557733D2*
G1X1824645Y1557420D1*
G1X1824191Y1556795D1*
G1X1823964Y1556170D1*
G1X1823736Y1555233D1*
G1X1823736Y1553670D1*
G1X1823964Y1552733D1*
G1X1824191Y1552108D1*
G1X1824645Y1551483D1*
G1X1825100Y1551170D1*
G1X1826009Y1551170D1*
G1X1826464Y1551483D1*
G1X1826918Y1552108D1*
G1X1827145Y1552733D1*
G1X1827373Y1553670D1*
G1X1827373Y1555233D1*
G1X1827145Y1556170D1*
G1X1826918Y1556795D1*
G1X1826464Y1557420D1*
G1X1826009Y1557733D1*
G1X1825100Y1557733D1*
G1X1829418Y1553983D2*
G1X1833509Y1553983D1*
G1X1838964Y1556170D2*
G1X1838736Y1556795D1*
G1X1838282Y1557420D1*
G1X1837827Y1557733D1*
G1X1836918Y1557733D1*
G1X1836464Y1557420D1*
G1X1836009Y1556795D1*
G1X1835782Y1556170D1*
G1X1835555Y1555233D1*
G1X1835555Y1553670D1*
G1X1835782Y1552733D1*
G1X1836009Y1552108D1*
G1X1836464Y1551483D1*
G1X1836918Y1551170D1*
G1X1837827Y1551170D1*
G1X1838282Y1551483D1*
G1X1838736Y1552108D1*
G1X1838964Y1552733D1*
G1X1842373Y1557733D2*
G1X1841918Y1557420D1*
G1X1841464Y1556795D1*
G1X1841236Y1556170D1*
G1X1841009Y1555233D1*
G1X1841009Y1553670D1*
G1X1841236Y1552733D1*
G1X1841464Y1552108D1*
G1X1841918Y1551483D1*
G1X1842373Y1551170D1*
G1X1843282Y1551170D1*
G1X1843736Y1551483D1*
G1X1844191Y1552108D1*
G1X1844418Y1552733D1*
G1X1844645Y1553670D1*
G1X1844645Y1555233D1*
G1X1844418Y1556170D1*
G1X1844191Y1556795D1*
G1X1843736Y1557420D1*
G1X1843282Y1557733D1*
G1X1842373Y1557733D1*
G1X1846691Y1557733D2*
G1X1846691Y1551170D1*
G1X1846691Y1557733D2*
G1X1848509Y1551170D1*
G1X1850327Y1557733D2*
G1X1848509Y1551170D1*
G1X1850327Y1557733D2*
G1X1850327Y1551170D1*
G1X1852373Y1557733D2*
G1X1852373Y1551170D1*
G1X1852373Y1557733D2*
G1X1854418Y1557733D1*
G1X1855100Y1557420D1*
G1X1855327Y1557108D1*
G1X1855555Y1556483D1*
G1X1855555Y1555545D1*
G1X1855327Y1554920D1*
G1X1855100Y1554608D1*
G1X1854418Y1554295D1*
G1X1852373Y1554295D1*
G1X1859418Y1557733D2*
G1X1857600Y1551170D1*
G1X1859418Y1557733D2*
G1X1861236Y1551170D1*
G1X1858282Y1553358D2*
G1X1860555Y1553358D1*
G1X1864873Y1557733D2*
G1X1864873Y1551170D1*
G1X1863282Y1557733D2*
G1X1866464Y1557733D1*
G1X1868509Y1557733D2*
G1X1868509Y1551170D1*
G1X1870555Y1557733D2*
G1X1870555Y1551170D1*
G1X1870555Y1557733D2*
G1X1872600Y1557733D1*
G1X1873282Y1557420D1*
G1X1873509Y1557108D1*
G1X1873736Y1556483D1*
G1X1873736Y1555858D1*
G1X1873509Y1555233D1*
G1X1873282Y1554920D1*
G1X1872600Y1554608D1*
G1X1870555Y1554608D2*
G1X1872600Y1554608D1*
G1X1873282Y1554295D1*
G1X1873509Y1553983D1*
G1X1873736Y1553358D1*
G1X1873736Y1552420D1*
G1X1873509Y1551795D1*
G1X1873282Y1551483D1*
G1X1872600Y1551170D1*
G1X1870555Y1551170D1*
G1X1875782Y1557733D2*
G1X1875782Y1551170D1*
G1X1878509Y1551170D1*
G1X1880555Y1557733D2*
G1X1880555Y1551170D1*
G1X1880555Y1557733D2*
G1X1883509Y1557733D1*
G1X1880555Y1554608D2*
G1X1882373Y1554608D1*
G1X1880555Y1551170D2*
G1X1883509Y1551170D1*
G1X1890782Y1557733D2*
G1X1890782Y1551170D1*
G1X1890782Y1557733D2*
G1X1892373Y1557733D1*
G1X1893055Y1557420D1*
G1X1893509Y1556795D1*
G1X1893736Y1556170D1*
G1X1893964Y1555233D1*
G1X1893964Y1553670D1*
G1X1893736Y1552733D1*
G1X1893509Y1552108D1*
G1X1893055Y1551483D1*
G1X1892373Y1551170D1*
G1X1890782Y1551170D1*
G1X1896009Y1557733D2*
G1X1896009Y1551170D1*
G1X1896009Y1557733D2*
G1X1898964Y1557733D1*
G1X1896009Y1554608D2*
G1X1897827Y1554608D1*
G1X1896009Y1551170D2*
G1X1898964Y1551170D1*
G1X1901009Y1557733D2*
G1X1901009Y1551170D1*
G1X1901009Y1557733D2*
G1X1902827Y1551170D1*
G1X1904645Y1557733D2*
G1X1902827Y1551170D1*
G1X1904645Y1557733D2*
G1X1904645Y1551170D1*
G1X1908055Y1557733D2*
G1X1907600Y1557420D1*
G1X1907145Y1556795D1*
G1X1906918Y1556170D1*
G1X1906691Y1555233D1*
G1X1906691Y1553670D1*
G1X1906918Y1552733D1*
G1X1907145Y1552108D1*
G1X1907600Y1551483D1*
G1X1908055Y1551170D1*
G1X1908964Y1551170D1*
G1X1909418Y1551483D1*
G1X1909873Y1552108D1*
G1X1910100Y1552733D1*
G1X1910327Y1553670D1*
G1X1910327Y1555233D1*
G1X1910100Y1556170D1*
G1X1909873Y1556795D1*
G1X1909418Y1557420D1*
G1X1908964Y1557733D1*
G1X1908055Y1557733D1*
G1X1912373Y1557733D2*
G1X1912373Y1551170D1*
G1X1912373Y1557733D2*
G1X1915555Y1551170D1*
G1X1915555Y1557733D2*
G1X1915555Y1551170D1*
G1X1920782Y1556795D2*
G1X1920327Y1557420D1*
G1X1919645Y1557733D1*
G1X1918736Y1557733D1*
G1X1918055Y1557420D1*
G1X1917600Y1556795D1*
G1X1917600Y1556170D1*
G1X1917827Y1555545D1*
G1X1918055Y1555233D1*
G1X1918509Y1554920D1*
G1X1919873Y1554295D1*
G1X1920327Y1553983D1*
G1X1920555Y1553670D1*
G1X1920782Y1553045D1*
G1X1920782Y1552108D1*
G1X1920327Y1551483D1*
G1X1919645Y1551170D1*
G1X1918736Y1551170D1*
G1X1918055Y1551483D1*
G1X1917600Y1552108D1*
G1X1924418Y1557733D2*
G1X1924418Y1551170D1*
G1X1922827Y1557733D2*
G1X1926009Y1557733D1*
G1X1928055Y1557733D2*
G1X1928055Y1551170D1*
G1X1928055Y1557733D2*
G1X1930100Y1557733D1*
G1X1930782Y1557420D1*
G1X1931009Y1557108D1*
G1X1931236Y1556483D1*
G1X1931236Y1555858D1*
G1X1931009Y1555233D1*
G1X1930782Y1554920D1*
G1X1930100Y1554608D1*
G1X1928055Y1554608D1*
G1X1929645Y1554608D2*
G1X1931236Y1551170D1*
G1X1935100Y1557733D2*
G1X1933282Y1551170D1*
G1X1935100Y1557733D2*
G1X1936918Y1551170D1*
G1X1933964Y1553358D2*
G1X1936236Y1553358D1*
G1X1940555Y1557733D2*
G1X1940555Y1551170D1*
G1X1938964Y1557733D2*
G1X1942145Y1557733D1*
G1X1944191Y1557733D2*
G1X1944191Y1551170D1*
G1X1947600Y1557733D2*
G1X1947145Y1557420D1*
G1X1946691Y1556795D1*
G1X1946464Y1556170D1*
G1X1946236Y1555233D1*
G1X1946236Y1553670D1*
G1X1946464Y1552733D1*
G1X1946691Y1552108D1*
G1X1947145Y1551483D1*
G1X1947600Y1551170D1*
G1X1948509Y1551170D1*
G1X1948964Y1551483D1*
G1X1949418Y1552108D1*
G1X1949645Y1552733D1*
G1X1949873Y1553670D1*
G1X1949873Y1555233D1*
G1X1949645Y1556170D1*
G1X1949418Y1556795D1*
G1X1948964Y1557420D1*
G1X1948509Y1557733D1*
G1X1947600Y1557733D1*
G1X1951918Y1557733D2*
G1X1951918Y1551170D1*
G1X1951918Y1557733D2*
G1X1955100Y1551170D1*
G1X1955100Y1557733D2*
G1X1955100Y1551170D1*
G1X1962373Y1557733D2*
G1X1962373Y1551170D1*
G1X1962373Y1557733D2*
G1X1964418Y1557733D1*
G1X1965100Y1557420D1*
G1X1965327Y1557108D1*
G1X1965555Y1556483D1*
G1X1965555Y1555858D1*
G1X1965327Y1555233D1*
G1X1965100Y1554920D1*
G1X1964418Y1554608D1*
G1X1962373Y1554608D2*
G1X1964418Y1554608D1*
G1X1965100Y1554295D1*
G1X1965327Y1553983D1*
G1X1965555Y1553358D1*
G1X1965555Y1552420D1*
G1X1965327Y1551795D1*
G1X1965100Y1551483D1*
G1X1964418Y1551170D1*
G1X1962373Y1551170D1*
G1X1968964Y1557733D2*
G1X1968509Y1557420D1*
G1X1968055Y1556795D1*
G1X1967827Y1556170D1*
G1X1967600Y1555233D1*
G1X1967600Y1553670D1*
G1X1967827Y1552733D1*
G1X1968055Y1552108D1*
G1X1968509Y1551483D1*
G1X1968964Y1551170D1*
G1X1969873Y1551170D1*
G1X1970327Y1551483D1*
G1X1970782Y1552108D1*
G1X1971009Y1552733D1*
G1X1971236Y1553670D1*
G1X1971236Y1555233D1*
G1X1971009Y1556170D1*
G1X1970782Y1556795D1*
G1X1970327Y1557420D1*
G1X1969873Y1557733D1*
G1X1968964Y1557733D1*
G1X1975100Y1557733D2*
G1X1973282Y1551170D1*
G1X1975100Y1557733D2*
G1X1976918Y1551170D1*
G1X1973964Y1553358D2*
G1X1976236Y1553358D1*
G1X1978964Y1557733D2*
G1X1978964Y1551170D1*
G1X1978964Y1557733D2*
G1X1981009Y1557733D1*
G1X1981691Y1557420D1*
G1X1981918Y1557108D1*
G1X1982145Y1556483D1*
G1X1982145Y1555858D1*
G1X1981918Y1555233D1*
G1X1981691Y1554920D1*
G1X1981009Y1554608D1*
G1X1978964Y1554608D1*
G1X1980555Y1554608D2*
G1X1982145Y1551170D1*
G1X1984191Y1557733D2*
G1X1984191Y1551170D1*
G1X1984191Y1557733D2*
G1X1985782Y1557733D1*
G1X1986464Y1557420D1*
G1X1986918Y1556795D1*
G1X1987145Y1556170D1*
G1X1987373Y1555233D1*
G1X1987373Y1553670D1*
G1X1987145Y1552733D1*
G1X1986918Y1552108D1*
G1X1986464Y1551483D1*
G1X1985782Y1551170D1*
G1X1984191Y1551170D1*
G1X1763600Y1606300D2*
G1X1770350Y1613050D1*
G1X1770350Y1614600D1*
G1X1776100Y1620350D1*
G1X1777650Y1620350D1*
G1X1781600Y1624300D1*
G1X1763600Y1606300D2*
G1X1745100Y1606300D1*
G1X1742100Y1609300D1*
G1X1762100Y1609800D2*
G1X1776600Y1624300D1*
G1X1776600Y1659100D1*
G1X1752100Y1609800D2*
G1X1757700Y1615400D1*
G1X1763900Y1615400D1*
G1X1774100Y1625600D1*
G1X1774100Y1643400D1*
G1X1766600Y1644300D2*
G1X1771100Y1648800D1*
G1X1771100Y1676300D1*
G1X1762100Y1622650D2*
G1X1762100Y1623800D1*
G1X1766600Y1623800D1*
G1X1752100Y1622650D2*
G1X1752100Y1623800D1*
G1X1756600Y1623800D1*
G1X1742100Y1622650D2*
G1X1742100Y1623800D1*
G1X1746100Y1623800D1*
G1X1733100Y1622650D2*
G1X1733100Y1623800D1*
G1X1737100Y1623800D1*
G1X1805600Y1624300D2*
G1X1809200Y1624300D1*
G1X1811700Y1626800D1*
G1X1821450Y1626800D1*
G1X1823280Y1628630D1*
G1X1835730Y1628630D1*
G1X1851600Y1644500D1*
G1X1851600Y1650300D1*
G1X1861100Y1659800D1*
G1X1805600Y1624300D2*
G1X1803600Y1626300D1*
G1X1803600Y1630300D1*
G1X1794500Y1639400D1*
G1X1780900Y1639400D1*
G1X1805100Y1621300D2*
G1X1832000Y1621300D1*
G1X1854100Y1643400D1*
G1X1854100Y1646300D1*
G1X1861900Y1654100D1*
G1X1862000Y1654100D1*
G1X1805100Y1621300D2*
G1X1801100Y1625300D1*
G1X1801100Y1629700D1*
G1X1794200Y1636600D1*
G1X1784500Y1636600D1*
G1X1774100Y1643400D2*
G1X1773600Y1643900D1*
G1X1773600Y1665000D1*
G1X1807600Y1627300D2*
G1X1809700Y1629400D1*
G1X1820700Y1629400D1*
G1X1822100Y1630800D1*
G1X1834400Y1630800D1*
G1X1848100Y1644500D1*
G1X1848100Y1653300D1*
G1X1781300Y1633400D2*
G1X1784500Y1636600D1*
G1X1796100Y1609800D2*
G1X1796100Y1627300D1*
G1X1831100Y1637300D2*
G1X1833100Y1639300D1*
G1X1833100Y1643300D1*
G1X1831100Y1637300D2*
G1X1820600Y1637300D1*
G1X1816100Y1641800D1*
G1X1810900Y1641800D1*
G1X1805600Y1647100D1*
G1X1805600Y1675300D1*
G1X1800600Y1680300D1*
G1X1800600Y1691800D1*
G1X1798600Y1693800D1*
G1X1798600Y1714800D1*
G1X1777310Y1736090D1*
G1X1771810Y1736090D1*
G1X1769700Y1738200D1*
G1X1820100Y1631800D2*
G1X1821290Y1632990D1*
G1X1833290Y1632990D1*
G1X1839100Y1638800D1*
G1X1839100Y1644800D1*
G1X1844600Y1650300D1*
G1X1820100Y1631800D2*
G1X1810780Y1631800D1*
G1X1798100Y1644480D1*
G1X1798100Y1672500D1*
G1X1791700Y1678900D1*
G1X1791700Y1710650D1*
G1X1784100Y1718250D1*
G1X1784100Y1718300D1*
G1X1816900Y1634300D2*
G1X1817710Y1635110D1*
G1X1832410Y1635110D1*
G1X1836100Y1638800D1*
G1X1836100Y1647300D1*
G1X1816900Y1634300D2*
G1X1811760Y1634300D1*
G1X1800600Y1645460D1*
G1X1800600Y1673800D1*
G1X1794100Y1680300D1*
G1X1794100Y1712300D1*
G1X1775100Y1731300D1*
G1X1769600Y1731300D1*
G1X1764600Y1736300D1*
G1X1764600Y1782300D1*
G1X1758100Y1788800D1*
G1X1808200Y1648200D2*
G1X1808200Y1685400D1*
G1X1809100Y1686300D1*
G1X1809100Y1691800D1*
G1X1814600Y1637300D2*
G1X1812100Y1637300D1*
G1X1803100Y1646300D1*
G1X1803100Y1674550D1*
G1X1797100Y1680550D1*
G1X1797100Y1688800D1*
G1X1826100Y1640800D2*
G1X1821825Y1640800D1*
G1X1818700Y1643925D1*
G1X1812475Y1643925D1*
G1X1808200Y1648200D1*
G1X1880100Y1629800D2*
G1X1904100Y1629800D1*
G1X1909100Y1634800D1*
G1X1916100Y1609800D2*
G1X1916100Y1669670D1*
G1X1912100Y1673670D1*
G1X1906100Y1609800D2*
G1X1906100Y1626300D1*
G1X1912100Y1632300D1*
G1X1912100Y1665800D1*
G1X1776600Y1659100D2*
G1X1776500Y1659100D1*
G1X1773600Y1665000D2*
G1X1776600Y1668000D1*
G1X1771100Y1676300D2*
G1X1766700Y1680700D1*
G1X1797100Y1688800D2*
G1X1797100Y1691550D1*
G1X1796400Y1692250D1*
G1X1796400Y1713250D1*
G1X1775910Y1733740D1*
G1X1770660Y1733740D1*
G1X1767200Y1737200D1*
G1X1767200Y1783730D1*
G1X1767410Y1783730D1*
G1X1776305Y1792625D1*
G1X1776305Y1796005D1*
G1X1780100Y1799800D1*
G1X1845600Y1657800D2*
G1X1845600Y1688500D1*
G1X1838680Y1695420D1*
G1X1823330Y1695420D1*
G1X1817600Y1701150D1*
G1X1811600Y1660300D2*
G1X1811600Y1685300D1*
G1X1812600Y1686300D1*
G1X1812600Y1695300D1*
G1X1865500Y1683000D2*
G1X1867100Y1684600D1*
G1X1867100Y1694000D1*
G1X1871700Y1698600D1*
G1X1871700Y1716400D1*
G1X1875100Y1719800D1*
G1X1875100Y1734650D1*
G1X1880600Y1666800D2*
G1X1885100Y1671300D1*
G1X1885100Y1683700D1*
G1X1892700Y1691300D1*
G1X1896100Y1691300D1*
G1X1903600Y1698800D1*
G1X1906100Y1698800D1*
G1X1916600Y1709300D1*
G1X1916600Y1709800D1*
G1X1848100Y1653300D2*
G1X1848100Y1691300D1*
G1X1846100Y1693300D1*
G1X1880600Y1679300D2*
G1X1880700Y1679400D1*
G1X1880700Y1682900D1*
G1X1891600Y1693800D1*
G1X1895300Y1693800D1*
G1X1902800Y1701300D1*
G1X1904600Y1701300D1*
G1X1909900Y1706600D1*
G1X1909900Y1713500D1*
G1X1916000Y1719600D1*
G1X1916400Y1719600D1*
G1X1916600Y1719800D1*
G1X1892226Y1650048D2*
G1X1883600Y1658674D1*
G1X1883600Y1658800D1*
G1X1759600Y1692800D2*
G1X1759600Y1696800D1*
G1X1760600Y1697800D1*
G1X1760600Y1704300D1*
G1X1757600Y1707300D1*
G1X1757600Y1765650D1*
G1X1766100Y1699300D2*
G1X1766100Y1705300D1*
G1X1774000Y1705300D1*
G1X1802200Y1718800D2*
G1X1802200Y1721550D1*
G1X1803850Y1723200D1*
G1X1803850Y1725900D1*
G1X1804000Y1726050D1*
G1X1797250Y1720400D2*
G1X1797280Y1720430D1*
G1X1797280Y1721090D1*
G1X1797700Y1721510D1*
G1X1797700Y1726050D1*
G1X1784100Y1718300D2*
G1X1773700Y1728700D1*
G1X1768700Y1728700D1*
G1X1762100Y1735300D1*
G1X1762100Y1778040D1*
G1X1749430Y1790710D1*
G1X1746770Y1790710D1*
G1X1740100Y1797380D1*
G1X1740100Y1799800D1*
G1X1774000Y1699300D2*
G1X1774000Y1705300D1*
G1X1807243Y1720140D2*
G1X1809000Y1720140D1*
G1X1811200Y1722340D1*
G1X1811200Y1726550D1*
G1X1811200Y1726550D3*
G1X1807243Y1716400D2*
G1X1804600Y1716400D1*
G1X1802200Y1718800D1*
G1X1776250Y1689300D2*
G1X1776250Y1692800D1*
G1X1773974Y1695076D1*
G1X1773974Y1699300D1*
G1X1774000Y1699300D1*
G1X1826950Y1691300D2*
G1X1820100Y1691300D1*
G1X1816100Y1695300D1*
G1X1812600Y1695300D1*
G1X1809100Y1691800D2*
G1X1800850Y1700050D1*
G1X1800850Y1716800D1*
G1X1797250Y1720400D1*
G1X1817557Y1720140D2*
G1X1817617Y1720200D1*
G1X1822850Y1720200D1*
G1X1824950Y1722300D1*
G1X1845400Y1709200D2*
G1X1845400Y1715150D1*
G1X1837500Y1709200D2*
G1X1837500Y1715150D1*
G1X1837500Y1721450D2*
G1X1845400Y1721450D1*
G1X1853300Y1721450D1*
G1X1817600Y1707450D2*
G1X1817557Y1707492D1*
G1X1817557Y1712660D1*
G1X1811200Y1726550D2*
G1X1811200Y1729599D1*
G1X1808500Y1732300D1*
G1X1817500Y1726550D2*
G1X1823850Y1732900D1*
G1X1828600Y1732900D1*
G1X1824950Y1722300D2*
G1X1824950Y1727800D1*
G1X1859600Y1719800D2*
G1X1858100Y1721300D1*
G1X1853450Y1721300D1*
G1X1853300Y1721450D1*
G1X1853274Y1709174D2*
G1X1853300Y1709200D1*
G1X1853300Y1715150D1*
G1X1916200Y1690200D2*
G1X1921600Y1695600D1*
G1X1921600Y1704800D1*
G1X1926600Y1709800D1*
G1X1916200Y1690200D2*
G1X1916100Y1690300D1*
G1X1910600Y1690300D1*
G1X1905100Y1694300D2*
G1X1911100Y1694300D1*
G1X1916600Y1699800D1*
G1X1769700Y1738200D2*
G1X1769700Y1781150D1*
G1X1773850Y1785300D1*
G1X1788750Y1740300D2*
G1X1800000Y1740300D1*
G1X1802500Y1742800D1*
G1X1802500Y1747100D1*
G1X1788750Y1740300D2*
G1X1788750Y1745800D1*
G1X1845800Y1736300D2*
G1X1849116Y1739616D1*
G1X1849116Y1744286D1*
G1X1852614Y1747784D1*
G1X1863006Y1747784D1*
G1X1845800Y1736300D2*
G1X1839500Y1736300D1*
G1X1837300Y1738500D1*
G1X1832200Y1738500D1*
G1X1808880Y1749800D2*
G1X1810100Y1751020D1*
G1X1813635Y1751020D1*
G1X1808880Y1749800D2*
G1X1792570Y1749800D1*
G1X1792570Y1749925D1*
G1X1788175Y1754320D1*
G1X1788175Y1768725D1*
G1X1777100Y1779800D1*
G1X1777100Y1788800D1*
G1X1813635Y1756139D2*
G1X1813597Y1756100D1*
G1X1813497Y1756200D1*
G1X1809400Y1756200D1*
G1X1807900Y1757700D1*
G1X1838950Y1748461D2*
G1X1838950Y1749300D1*
G1X1830565Y1753580D2*
G1X1826000Y1753580D1*
G1X1823600Y1755980D1*
G1X1823600Y1765500D1*
G1X1825000Y1766900D1*
G1X1827528Y1766900D1*
G1X1819350Y1737550D2*
G1X1819350Y1746861D1*
G1X1817750Y1748461D1*
G1X1813635Y1748461D1*
G1X1839000Y1761350D2*
G1X1839000Y1766753D1*
G1X1835000Y1770753D1*
G1X1827612Y1770753D1*
G1X1819600Y1761000D2*
G1X1819600Y1762000D1*
G1X1820900Y1763300D1*
G1X1820900Y1765616D1*
G1X1819700Y1766816D1*
G1X1816588Y1766816D1*
G1X1821400Y1751000D2*
G1X1823420Y1751000D1*
G1X1826000Y1753580D1*
G1X1822200Y1735900D2*
G1X1824700Y1738400D1*
G1X1824700Y1748720D1*
G1X1827000Y1751020D1*
G1X1830565Y1751020D1*
G1X1827010Y1762300D2*
G1X1827612Y1763110D1*
G1X1827612Y1764847D1*
G1X1816588Y1768784D2*
G1X1819100Y1768784D1*
G1X1820100Y1769784D1*
G1X1820100Y1771400D1*
G1X1821000Y1772300D1*
G1X1825153Y1772300D1*
G1X1816588Y1764847D2*
G1X1814100Y1764847D1*
G1X1812600Y1766347D1*
G1X1812600Y1776900D1*
G1X1809500Y1780000D1*
G1X1789900Y1780000D1*
G1X1784100Y1785800D1*
G1X1784100Y1795800D1*
G1X1780100Y1799800D1*
G1X1827612Y1766816D2*
G1X1827528Y1766900D1*
G1X1827612Y1768784D2*
G1X1823200Y1768784D1*
G1X1823200Y1769200D1*
G1X1823000Y1769400D1*
G1X1845250Y1761300D2*
G1X1845300Y1761350D1*
G1X1845300Y1773200D1*
G1X1830100Y1788400D1*
G1X1830100Y1799800D1*
G1X1838950Y1761300D2*
G1X1839000Y1761350D1*
G1X1838950Y1743300D2*
G1X1838950Y1748461D1*
G1X1838950Y1755300D2*
G1X1838850Y1755400D1*
G1X1836139Y1755400D1*
G1X1835400Y1756139D1*
G1X1830565Y1756139D1*
G1X1813635Y1753580D2*
G1X1817800Y1753580D1*
G1X1819620Y1755400D1*
G1X1819620Y1760980D1*
G1X1819600Y1761000D1*
G1X1830565Y1748461D2*
G1X1838950Y1748461D1*
G1X1830565Y1758698D2*
G1X1836348Y1758698D1*
G1X1838950Y1761300D1*
G1X1815100Y1733300D2*
G1X1819350Y1737550D1*
G1X1815100Y1740800D2*
G1X1815100Y1741135D1*
G1X1813635Y1742600D1*
G1X1813635Y1745902D1*
G1X1865100Y1737800D2*
G1X1865100Y1740284D1*
G1X1865084Y1740300D1*
G1X1866600Y1741816D1*
G1X1869612Y1741816D1*
G1X1875100Y1740950D2*
G1X1874903Y1740900D1*
G1X1872400Y1743500D1*
G1X1872400Y1743484D1*
G1X1872100Y1743784D1*
G1X1869612Y1743784D1*
G1X1862100Y1738050D2*
G1X1862100Y1740816D1*
G1X1861100Y1741816D1*
G1X1858588Y1741816D1*
G1X1853600Y1743800D2*
G1X1853647Y1743800D1*
G1X1855600Y1745753D1*
G1X1858588Y1745753D1*
G1X1869600Y1737300D2*
G1X1869600Y1739835D1*
G1X1869612Y1739847D1*
G1X1863400Y1743700D2*
G1X1863316Y1743784D1*
G1X1858588Y1743784D1*
G1X1869612Y1743784D2*
G1X1867006Y1743784D1*
G1X1863006Y1747784D1*
G1X1869612Y1745753D2*
G1X1869612Y1748938D1*
G1X1867250Y1751300D1*
G1X1867250Y1730800D2*
G1X1870650Y1734200D1*
G1X1870650Y1734300D1*
G1X1874750Y1734300D1*
G1X1875100Y1734650D1*
G1X1860950Y1730800D2*
G1X1860950Y1736900D1*
G1X1862100Y1738050D1*
G1X1867250Y1751300D2*
G1X1867250Y1756800D1*
G1X1855100Y1729650D2*
G1X1842600Y1729650D1*
G1X1839350Y1732900D1*
G1X1828600Y1732900D1*
G1X1855100Y1735950D2*
G1X1855100Y1739047D1*
G1X1855900Y1739847D1*
G1X1858588Y1739847D1*
G1X1707700Y1795300D2*
G1X1707600Y1795300D1*
G1X1758100Y1788800D2*
G1X1750100Y1796800D1*
G1X1750100Y1799800D1*
G1X1757600Y1771950D2*
G1X1757600Y1777390D1*
G1X1747710Y1787280D1*
G1X1715620Y1787280D1*
G1X1707600Y1795300D1*
G1X1790950Y1787300D2*
G1X1790450Y1787800D1*
G1X1790250Y1787800D1*
G1X1790250Y1799650D1*
G1X1790100Y1799800D1*
G1X1816588Y1770753D2*
G1X1816600Y1770765D1*
G1X1816600Y1773950D1*
G1X1818950Y1776300D1*
G1X1827612Y1770753D2*
G1X1826700Y1770753D1*
G1X1825153Y1772300D1*
G1X1809950Y1787400D2*
G1X1809950Y1799650D1*
G1X1810100Y1799800D1*
G1X1910100Y1784300D2*
G1X1916100Y1790300D1*
G1X1916100Y1799800D1*
G1X1899600Y1785300D2*
G1X1906100Y1791800D1*
G1X1906100Y1799800D1*
G1X1666100Y1601800D2*
G75*
G3X1668100Y1599800I2000J0D1*
G74*
G1X1666100Y1601800D2*
G1X1666100Y1807800D1*
G1X1668100Y1809800D2*
G75*
G3X1666100Y1807800I0J-2000D1*
G74*
G1X1668100Y1809800D2*
G1X1920100Y1809800D1*
G1X1926100Y1803800D1*
G1X1926100Y1758800D1*
G1X1936100Y1748800D1*
G1X1936100Y1619800D1*
G1X1926100Y1609800D1*
G1X1926100Y1601800D1*
G1X1924100Y1599800D2*
G75*
G3X1926100Y1601800I0J2000D1*
G74*
G1X1924100Y1599800D2*
G1X1668100Y1599800D1*
G1X1902000Y1625750D2*
G54D12*
G1X1902000Y1620500D1*
G1X1902000Y1625750D2*
G1X1900364Y1625750D1*
G1X1899818Y1625500D1*
G1X1899636Y1625250D1*
G1X1899455Y1624750D1*
G1X1899455Y1624250D1*
G1X1899636Y1623750D1*
G1X1899818Y1623500D1*
G1X1900364Y1623250D1*
G1X1902000Y1623250D1*
G1X1900727Y1623250D2*
G1X1899455Y1620500D1*
G1X1897818Y1625750D2*
G1X1897818Y1620500D1*
G1X1897818Y1625750D2*
G1X1895455Y1625750D1*
G1X1897818Y1623250D2*
G1X1896364Y1623250D1*
G1X1897818Y1620500D2*
G1X1895455Y1620500D1*
G1X1893818Y1625750D2*
G1X1892364Y1620500D1*
G1X1890909Y1625750D2*
G1X1892364Y1620500D1*
G1X1889091Y1621000D2*
G1X1889273Y1620750D1*
G1X1889091Y1620500D1*
G1X1888909Y1620750D1*
G1X1889091Y1621000D1*
G1X1887273Y1624750D2*
G1X1886909Y1625000D1*
G1X1886364Y1625750D1*
G1X1886364Y1620500D1*
G1X1781135Y1646992D2*
G1X1782935Y1646992D1*
G1X1783935Y1647992D1*
G1X1787067Y1647992D1*
G1X1789210Y1650135D1*
G1X1783935Y1649592D2*
G1X1782935Y1650592D1*
G1X1781135Y1650592D1*
G1X1783935Y1649592D2*
G1X1786404Y1649592D1*
G1X1787610Y1650798D1*
G1X1787610Y1708540D1*
G1X1773650Y1722500D1*
G1X1789210Y1650135D2*
G1X1789210Y1709440D1*
G1X1774550Y1724100D1*
G1X1771860Y1724100D1*
G1X1770860Y1725100D1*
G1X1769060Y1725100D1*
G1X1769060Y1721500D2*
G1X1770860Y1721500D1*
G1X1771860Y1722500D1*
G1X1773650Y1722500D1*
G54D22*
G1X1916600Y1719800D3*
G1X1766100Y1699300D3*
G54D23*
G1X1926600Y1719800D3*
G1X1916600Y1709800D3*
G1X1926600Y1709800D3*
G1X1916600Y1699800D3*
G1X1926600Y1699800D3*
G1X1699100Y1741800D3*
G1X1699100Y1751643D3*
G1X1691226Y1751643D3*
G1X1691226Y1741800D3*
G1X1892600Y1700800D3*
G1X1882600Y1700800D3*
G1X1774000Y1699300D3*
G1X1781900Y1699300D3*
G54D33*
G1X1900100Y1634300D3*
G54D36*
G1X1680557Y1723020D3*
G1X1680557Y1770422D3*
G1X1720850Y1635800D2*
G54D38*
G1X1763700Y1635800D1*
G1X1710100Y1632800D2*
G1X1718400Y1632800D1*
G1X1718400Y1635800D1*
G1X1720850Y1635800D1*
G1X1771000Y1628500D2*
G1X1763700Y1635800D1*
G1X1806100Y1609800D2*
G54D39*
G1X1806100Y1613300D1*
G1X1811300Y1618500D1*
G1X1847100Y1618500D1*
G1X1872600Y1644000D1*
G1X1872600Y1659800D1*
G1X1871400Y1661000D1*
G1X1871400Y1691100D1*
G1X1876350Y1696050D1*
G1X1876350Y1708050D1*
G1X1884880Y1716580D1*
G1X1884880Y1729980D1*
G1X1888700Y1733800D1*
G1X1888700Y1752400D1*
G1X1905600Y1769300D1*
G1X1905600Y1774800D1*
G1X1892226Y1634300D2*
G1X1890600Y1634300D1*
G1X1877600Y1647300D1*
G1X1877600Y1661300D1*
G1X1876100Y1662800D1*
G1X1876100Y1688300D1*
G1X1882600Y1694800D1*
G1X1882600Y1700800D1*
G1X1900100Y1634300D2*
G1X1901100Y1634300D1*
G1X1907100Y1640300D1*
G1X1907100Y1674800D1*
G1X1919100Y1686800D1*
G1X1680557Y1723020D2*
G1X1680557Y1770757D1*
G1X1897955Y1720150D2*
G1X1896305Y1721800D1*
G1X1896100Y1721800D1*
G1X1891600Y1721800D2*
G1X1891600Y1726300D1*
G1X1912600Y1727300D2*
G1X1912600Y1746150D1*
G1X1892600Y1700800D2*
G1X1896300Y1700800D1*
G1X1898000Y1702500D1*
G1X1898000Y1720105D1*
G1X1897955Y1720150D1*
G1X1892600Y1700800D2*
G1X1892600Y1701200D1*
G1X1710124Y1735700D2*
G1X1720000Y1735700D1*
G1X1722600Y1738300D1*
G1X1704500Y1753150D2*
G1X1704500Y1754400D1*
G1X1704500Y1747000D2*
G1X1706800Y1747000D1*
G1X1710600Y1750800D1*
G1X1704500Y1747000D2*
G1X1704500Y1753150D1*
G1X1710124Y1735700D2*
G1X1693900Y1735700D1*
G1X1691226Y1738374D1*
G1X1691226Y1741800D1*
G1X1722600Y1753300D2*
G1X1722600Y1748300D1*
G1X1722600Y1743300D1*
G1X1722600Y1738300D2*
G1X1722600Y1743300D1*
G1X1710600Y1750800D2*
G1X1710500Y1750900D1*
G1X1711257Y1766900D2*
G1X1711257Y1774003D1*
G1X1710960Y1774300D1*
G1X1718343Y1766900D2*
G1X1718440Y1766997D1*
G1X1718440Y1769400D1*
G1X1699100Y1741800D2*
G1X1699300Y1741800D1*
G1X1704500Y1747000D1*
G1X1912600Y1746150D2*
G1X1912600Y1747800D1*
G1X1911600Y1748800D1*
G1X1906100Y1748800D2*
G1X1911600Y1748800D1*
G1X1680557Y1770757D2*
G1X1680628Y1770828D1*
G1X1683100Y1773300D1*
G1X1709960Y1773300D1*
G1X1710960Y1774300D1*
G1X1680557Y1770422D2*
G1X1680222Y1770422D1*
G1X1680557Y1770757D1*
G1X1718440Y1769400D2*
G1X1718440Y1774300D1*
G1X1733100Y1628800D2*
G54D40*
G1X1735450Y1628800D1*
G1X1735600Y1628950D1*
G1X1757100Y1628950D2*
G1X1762100Y1628950D1*
G1X1735600Y1628950D2*
G1X1742100Y1628950D1*
G1X1728600Y1628800D2*
G1X1733100Y1628800D1*
G1X1752100Y1628950D2*
G1X1757100Y1628950D1*
G1X1733100Y1628950D2*
G1X1735600Y1628950D1*
G1X1833376Y1663275D2*
G1X1833250Y1663401D1*
G1X1833250Y1691300D1*
G1X1761600Y1708800D2*
G1X1761600Y1715060D1*
G1X1761860Y1715300D1*
G1X1766600Y1689300D2*
G1X1769950Y1689300D1*
G1X1769100Y1708800D2*
G1X1769100Y1715040D1*
G1X1769340Y1715300D1*
G1X1803500Y1707400D2*
G1X1807050Y1707400D1*
G1X1807100Y1707450D1*
G1X1807100Y1701150D2*
G1X1810550Y1701150D1*
G1X1811700Y1702300D1*
G1X1807100Y1707450D2*
G1X1807243Y1707592D1*
G1X1807243Y1712660D1*
G1X1831200Y1718000D2*
G1X1831250Y1718050D1*
G1X1831250Y1722300D1*
G1X1823500Y1716200D2*
G1X1823300Y1716400D1*
G1X1817557Y1716400D1*
G1X1831250Y1727800D2*
G1X1836100Y1727800D1*
G1X1836600Y1728300D1*
G1X1882600Y1700800D2*
G1X1882600Y1708100D1*
G1X1892600Y1708100D1*
G1X1892600Y1701200D2*
G1X1892600Y1708100D1*
G1X1773600Y1740300D2*
G1X1773600Y1742300D1*
G1X1777100Y1745800D1*
G1X1782450Y1745800D1*
G1X1778100Y1740300D2*
G1X1782450Y1740300D1*
G1X1802200Y1732300D2*
G1X1797300Y1737200D1*
G1X1793200Y1737200D1*
G1X1793100Y1737300D1*
G1X1799950Y1753300D2*
G1X1796400Y1753300D1*
G1X1793400Y1756300D1*
G1X1793100Y1756300D1*
G1X1806250Y1753300D2*
G1X1806250Y1756100D1*
G1X1806300Y1756100D1*
G1X1807900Y1757700D1*
G1X1830600Y1742600D2*
G1X1830600Y1745867D1*
G1X1830565Y1745902D1*
G1X1843100Y1740000D2*
G1X1845250Y1742150D1*
G1X1845250Y1743300D1*
G1X1845250Y1749300D2*
G1X1848100Y1749300D1*
G1X1849700Y1750900D1*
G1X1845250Y1755300D2*
G1X1846900Y1755300D1*
G1X1849500Y1757900D1*
G1X1808600Y1763150D2*
G1X1807000Y1764750D1*
G1X1807000Y1764800D1*
G1X1802100Y1764800D1*
G1X1813635Y1758698D2*
G1X1813300Y1758698D1*
G1X1813300Y1760250D1*
G1X1810400Y1763150D1*
G1X1808600Y1763150D1*
G1X1850000Y1733500D2*
G1X1850000Y1736900D1*
G1X1852100Y1739000D1*
G1X1852100Y1742300D1*
G1X1853600Y1743800D1*
G1X1860950Y1756800D2*
G1X1860950Y1762800D1*
G1X1860950Y1751300D2*
G1X1858500Y1751300D1*
G1X1856300Y1753500D1*
G1X1856200Y1753500D1*
G1X1867250Y1762800D2*
G1X1867250Y1765700D1*
G1X1866150Y1766800D1*
G1X1866100Y1766800D1*
G1X1860950Y1762800D2*
G1X1861000Y1762850D1*
G1X1861000Y1767400D1*
G1X1803600Y1783800D2*
G1X1803650Y1783850D1*
G1X1803650Y1787400D1*
G1X1797100Y1783800D2*
G1X1797250Y1783950D1*
G1X1797250Y1787300D1*
G1X1825250Y1776300D2*
G1X1825300Y1776350D1*
G1X1825300Y1778900D1*
G1X1824000Y1780200D1*
G1X1818950Y1776300D2*
G1X1819000Y1776350D1*
G1X1819000Y1779900D1*
G1X1808600Y1769450D2*
G1X1808600Y1773100D1*
G1X1809600Y1774100D1*
G54D44*
G1X1733600Y1678300D3*
G1X1680100Y1698800D3*
G1X1815100Y1740800D3*
G1X1815100Y1733300D3*
G54D119*
G1X1686100Y1615800D3*
G1X1681100Y1620800D3*
G1X1686100Y1645800D3*
G1X1681100Y1640800D3*
G1X1681100Y1630800D3*
G1X1716100Y1628300D3*
G1X1716100Y1637300D3*
G1X1704600Y1637300D3*
G1X1713600Y1643300D3*
G1X1706100Y1643300D3*
G1X1704600Y1628300D3*
G1X1696100Y1625800D3*
G1X1691100Y1620800D3*
G1X1696100Y1635800D3*
G1X1691100Y1630800D3*
G1X1696100Y1645800D3*
G1X1691100Y1640800D3*
G1X1742100Y1609300D3*
G1X1746100Y1623800D3*
G1X1766600Y1623800D3*
G1X1756600Y1623800D3*
G1X1762100Y1609800D3*
G1X1752100Y1609800D3*
G1X1737100Y1623800D3*
G1X1766600Y1644300D3*
G1X1728600Y1628800D3*
G1X1757100Y1628800D3*
G1X1733100Y1609800D3*
G1X1807600Y1627300D3*
G1X1796100Y1627300D3*
G1X1781600Y1624300D3*
G1X1780900Y1639400D3*
G1X1781300Y1633400D3*
G1X1781135Y1646992D3*
G1X1771000Y1628500D3*
G1X1791100Y1633800D3*
G1X1794100Y1644300D3*
G1X1817600Y1624300D3*
G1X1814600Y1637300D3*
G1X1826100Y1640800D3*
G1X1833100Y1643300D3*
G1X1836100Y1647300D3*
G1X1830200Y1640200D3*
G1X1843100Y1643700D3*
G1X1823100Y1624300D3*
G1X1880100Y1629800D3*
G1X1879600Y1637300D3*
G1X1909100Y1634800D3*
G1X1683600Y1688300D3*
G1X1686600Y1685300D3*
G1X1683600Y1682300D3*
G1X1682600Y1685300D3*
G1X1678600Y1685300D3*
G1X1681100Y1650800D3*
G1X1709100Y1677800D3*
G1X1704100Y1675300D3*
G1X1701600Y1680300D3*
G1X1706600Y1683800D3*
G1X1699100Y1683800D3*
G1X1689600Y1688300D3*
G1X1726600Y1685300D3*
G1X1694600Y1680300D3*
G1X1694600Y1685300D3*
G1X1690600Y1685300D3*
G1X1689600Y1682300D3*
G1X1691100Y1650800D3*
G1X1721600Y1675300D3*
G1X1724100Y1680300D3*
G1X1721600Y1685300D3*
G1X1766700Y1680700D3*
G1X1745600Y1684800D3*
G1X1735600Y1684800D3*
G1X1737600Y1687800D3*
G1X1744100Y1687800D3*
G1X1766184Y1673157D3*
G1X1736100Y1672300D3*
G1X1752600Y1667300D3*
G1X1766241Y1665480D3*
G1X1797100Y1688800D3*
G1X1776500Y1659100D3*
G1X1776600Y1668000D3*
G1X1781135Y1650592D3*
G1X1781106Y1659155D3*
G1X1781096Y1673157D3*
G1X1781191Y1655243D3*
G1X1781000Y1662900D3*
G1X1794600Y1670800D3*
G1X1844600Y1650300D3*
G1X1820600Y1685300D3*
G1X1845600Y1657800D3*
G1X1815100Y1652800D3*
G1X1811600Y1660300D3*
G1X1828100Y1650300D3*
G1X1826100Y1653300D3*
G1X1832100Y1651800D3*
G1X1841600Y1654300D3*
G1X1841600Y1657800D3*
G1X1833376Y1663275D3*
G1X1839675Y1663304D3*
G1X1836700Y1684200D3*
G1X1820100Y1677700D3*
G1X1842824Y1673383D3*
G1X1836539Y1673364D3*
G1X1858600Y1676800D3*
G1X1883600Y1658800D3*
G1X1867100Y1654000D3*
G1X1865500Y1683000D3*
G1X1880600Y1666800D3*
G1X1848100Y1653300D3*
G1X1880600Y1679300D3*
G1X1855100Y1673800D3*
G1X1858100Y1668300D3*
G1X1861100Y1664800D3*
G1X1861100Y1659800D3*
G1X1862000Y1654100D3*
G1X1852100Y1677800D3*
G1X1912100Y1673670D3*
G1X1912100Y1665800D3*
G1X1919100Y1686800D3*
G1X1927600Y1665800D3*
G1X1927600Y1673670D3*
G1X1928600Y1657800D3*
G1X1687600Y1706300D3*
G1X1707885Y1721500D3*
G1X1707885Y1725100D3*
G1X1693600Y1706300D3*
G1X1699600Y1706300D3*
G1X1701600Y1702300D3*
G1X1717600Y1702300D3*
G1X1717600Y1706300D3*
G1X1724100Y1706300D3*
G1X1721600Y1695800D3*
G1X1726600Y1695800D3*
G1X1759600Y1692800D3*
G1X1761600Y1708800D3*
G1X1744100Y1691300D3*
G1X1737600Y1691300D3*
G1X1766600Y1689300D3*
G1X1754100Y1724800D3*
G1X1757000Y1702200D3*
G1X1751100Y1727800D3*
G1X1751100Y1721800D3*
G1X1751100Y1716800D3*
G1X1746100Y1716800D3*
G1X1737000Y1705700D3*
G1X1737000Y1698200D3*
G1X1797280Y1721090D3*
G1X1769060Y1721500D3*
G1X1769060Y1725100D3*
G1X1784100Y1718300D3*
G1X1769100Y1708800D3*
G1X1803500Y1707400D3*
G1X1846100Y1693300D3*
G1X1812600Y1695300D3*
G1X1809100Y1691800D3*
G1X1831200Y1718000D3*
G1X1811700Y1702300D3*
G1X1823500Y1716200D3*
G1X1836600Y1728300D3*
G1X1859600Y1719800D3*
G1X1876100Y1714800D3*
G1X1878600Y1728800D3*
G1X1905100Y1694300D3*
G1X1910600Y1690300D3*
G1X1896100Y1726300D3*
G1X1891600Y1726300D3*
G1X1891600Y1721800D3*
G1X1896100Y1721800D3*
G1X1912600Y1727300D3*
G1X1904100Y1706300D3*
G1X1906600Y1725800D3*
G1X1711000Y1757800D3*
G1X1708000Y1754400D3*
G1X1708000Y1757800D3*
G1X1711000Y1761400D3*
G1X1722600Y1763300D3*
G1X1722600Y1768300D3*
G1X1722600Y1758300D3*
G1X1722600Y1753300D3*
G1X1722600Y1748300D3*
G1X1722600Y1743300D3*
G1X1722600Y1738300D3*
G1X1710600Y1750800D3*
G1X1711000Y1754400D3*
G1X1708100Y1761400D3*
G1X1754100Y1742800D3*
G1X1754100Y1736800D3*
G1X1754100Y1760800D3*
G1X1754100Y1754800D3*
G1X1754100Y1748800D3*
G1X1751100Y1745800D3*
G1X1751100Y1739800D3*
G1X1751100Y1733800D3*
G1X1754100Y1730800D3*
G1X1802500Y1747100D3*
G1X1802100Y1764800D3*
G1X1802100Y1758300D3*
G1X1773600Y1740300D3*
G1X1793100Y1756300D3*
G1X1793100Y1744800D3*
G1X1793100Y1737300D3*
G1X1778100Y1740300D3*
G1X1777100Y1762800D3*
G1X1777100Y1754300D3*
G1X1819600Y1761000D3*
G1X1821400Y1751000D3*
G1X1828600Y1732900D3*
G1X1832200Y1738500D3*
G1X1822200Y1735900D3*
G1X1807900Y1757700D3*
G1X1827010Y1762300D3*
G1X1830600Y1742600D3*
G1X1843100Y1740000D3*
G1X1865100Y1737800D3*
G1X1853600Y1743800D3*
G1X1861000Y1767400D3*
G1X1850000Y1733500D3*
G1X1849700Y1750900D3*
G1X1866100Y1766800D3*
G1X1849500Y1757900D3*
G1X1856200Y1753500D3*
G1X1869600Y1737300D3*
G1X1863400Y1743700D3*
G1X1882100Y1765800D3*
G1X1884600Y1754800D3*
G1X1880500Y1740300D3*
G1X1911600Y1748800D3*
G1X1906100Y1748800D3*
G1X1900100Y1748800D3*
G1X1894600Y1748800D3*
G1X1891600Y1762300D3*
G1X1911100Y1757800D3*
G1X1908100Y1733300D3*
G1X1674800Y1801300D3*
G1X1707700Y1795300D3*
G1X1758100Y1788800D3*
G1X1751100Y1774800D3*
G1X1751100Y1768900D3*
G1X1773850Y1785300D3*
G1X1777100Y1788800D3*
G1X1803600Y1783800D3*
G1X1797100Y1783800D3*
G1X1802100Y1776800D3*
G1X1802100Y1770800D3*
G1X1784100Y1777300D3*
G1X1777100Y1773300D3*
G1X1823000Y1769400D3*
G1X1819000Y1779900D3*
G1X1824000Y1780200D3*
G1X1809600Y1774100D3*
G1X1910100Y1784300D3*
G1X1899600Y1785300D3*
G1X1916100Y1774800D3*
G1X1913600Y1777800D3*
G1X1908600Y1777800D3*
G1X1911100Y1774800D3*
G1X1905600Y1774800D3*
G1X1891600Y1769540D3*
G1X1899100Y1776800D3*
G1X1733600Y1728900D2*
G54D163*
G1X1755000Y1728900D1*
G1X1755000Y1714024D1*
G1X1754876Y1713900D1*
G1X1744224Y1713900D1*
G1X1733600Y1724524D1*
G1X1733600Y1728900D1*
G1X1740100Y1753800D2*
G1X1723840Y1753800D1*
G1X1723840Y1734974D1*
G1X1719016Y1730150D1*
G1X1691234Y1730150D1*
G1X1688530Y1732854D1*
G1X1688530Y1741910D1*
G1X1693780Y1741910D1*
G1X1693780Y1736710D1*
G1X1710124Y1736710D1*
G1X1716300Y1742886D1*
G1X1716300Y1769400D1*
G1X1728776Y1769400D1*
G1X1740100Y1758076D1*
G1X1740100Y1753800D1*
G1X1733800Y1743200D2*
G1X1740200Y1743200D1*
G1X1740200Y1739300D1*
G1X1733800Y1739300D1*
G1X1733800Y1743200D1*
G1X1733600Y1728479D2*
G1X1755000Y1728479D1*
G1X1733600Y1727939D2*
G1X1755000Y1727939D1*
G1X1733600Y1727399D2*
G1X1755000Y1727399D1*
G1X1733600Y1726859D2*
G1X1755000Y1726859D1*
G1X1733600Y1726319D2*
G1X1755000Y1726319D1*
G1X1733600Y1725779D2*
G1X1755000Y1725779D1*
G1X1733600Y1725239D2*
G1X1755000Y1725239D1*
G1X1733600Y1724699D2*
G1X1755000Y1724699D1*
G1X1733966Y1724159D2*
G1X1755000Y1724159D1*
G1X1734506Y1723619D2*
G1X1755000Y1723619D1*
G1X1735046Y1723079D2*
G1X1755000Y1723079D1*
G1X1735586Y1722539D2*
G1X1755000Y1722539D1*
G1X1736126Y1721999D2*
G1X1755000Y1721999D1*
G1X1736666Y1721459D2*
G1X1755000Y1721459D1*
G1X1737206Y1720919D2*
G1X1755000Y1720919D1*
G1X1737746Y1720379D2*
G1X1755000Y1720379D1*
G1X1738286Y1719839D2*
G1X1755000Y1719839D1*
G1X1738826Y1719299D2*
G1X1755000Y1719299D1*
G1X1739366Y1718759D2*
G1X1755000Y1718759D1*
G1X1739906Y1718219D2*
G1X1755000Y1718219D1*
G1X1740446Y1717679D2*
G1X1755000Y1717679D1*
G1X1740986Y1717139D2*
G1X1755000Y1717139D1*
G1X1741526Y1716599D2*
G1X1755000Y1716599D1*
G1X1742066Y1716059D2*
G1X1755000Y1716059D1*
G1X1742606Y1715519D2*
G1X1755000Y1715519D1*
G1X1743146Y1714979D2*
G1X1755000Y1714979D1*
G1X1743686Y1714439D2*
G1X1755000Y1714439D1*
G1X1716300Y1757689D2*
G1X1740100Y1757689D1*
G1X1716300Y1757149D2*
G1X1740100Y1757149D1*
G1X1716300Y1756609D2*
G1X1740100Y1756609D1*
G1X1716300Y1756069D2*
G1X1740100Y1756069D1*
G1X1716300Y1755529D2*
G1X1740100Y1755529D1*
G1X1716300Y1754989D2*
G1X1740100Y1754989D1*
G1X1716300Y1754449D2*
G1X1740100Y1754449D1*
G1X1716300Y1753909D2*
G1X1740100Y1753909D1*
G1X1716300Y1758229D2*
G1X1739947Y1758229D1*
G1X1716300Y1758769D2*
G1X1739407Y1758769D1*
G1X1716300Y1759309D2*
G1X1738867Y1759309D1*
G1X1716300Y1759849D2*
G1X1738327Y1759849D1*
G1X1716300Y1760389D2*
G1X1737787Y1760389D1*
G1X1716300Y1760929D2*
G1X1737247Y1760929D1*
G1X1716300Y1761469D2*
G1X1736707Y1761469D1*
G1X1716300Y1762009D2*
G1X1736167Y1762009D1*
G1X1716300Y1762549D2*
G1X1735627Y1762549D1*
G1X1716300Y1763089D2*
G1X1735087Y1763089D1*
G1X1716300Y1763629D2*
G1X1734547Y1763629D1*
G1X1716300Y1764169D2*
G1X1734007Y1764169D1*
G1X1716300Y1764709D2*
G1X1733467Y1764709D1*
G1X1716300Y1765249D2*
G1X1732927Y1765249D1*
G1X1716300Y1765789D2*
G1X1732387Y1765789D1*
G1X1716300Y1766329D2*
G1X1731847Y1766329D1*
G1X1716300Y1766869D2*
G1X1731307Y1766869D1*
G1X1716300Y1767409D2*
G1X1730767Y1767409D1*
G1X1716300Y1767949D2*
G1X1730227Y1767949D1*
G1X1716300Y1768489D2*
G1X1729687Y1768489D1*
G1X1716300Y1769029D2*
G1X1729147Y1769029D1*
G1X1716300Y1753369D2*
G1X1723840Y1753369D1*
G1X1716300Y1752829D2*
G1X1723840Y1752829D1*
G1X1716300Y1752289D2*
G1X1723840Y1752289D1*
G1X1716300Y1751749D2*
G1X1723840Y1751749D1*
G1X1716300Y1751209D2*
G1X1723840Y1751209D1*
G1X1716300Y1750669D2*
G1X1723840Y1750669D1*
G1X1716300Y1750129D2*
G1X1723840Y1750129D1*
G1X1716300Y1749589D2*
G1X1723840Y1749589D1*
G1X1716300Y1749049D2*
G1X1723840Y1749049D1*
G1X1716300Y1748509D2*
G1X1723840Y1748509D1*
G1X1716300Y1747969D2*
G1X1723840Y1747969D1*
G1X1716300Y1747429D2*
G1X1723840Y1747429D1*
G1X1716300Y1746889D2*
G1X1723840Y1746889D1*
G1X1716300Y1746349D2*
G1X1723840Y1746349D1*
G1X1716300Y1745809D2*
G1X1723840Y1745809D1*
G1X1716300Y1745269D2*
G1X1723840Y1745269D1*
G1X1716300Y1744729D2*
G1X1723840Y1744729D1*
G1X1716300Y1744189D2*
G1X1723840Y1744189D1*
G1X1716300Y1743649D2*
G1X1723840Y1743649D1*
G1X1716300Y1743109D2*
G1X1723840Y1743109D1*
G1X1715983Y1742569D2*
G1X1723840Y1742569D1*
G1X1715443Y1742029D2*
G1X1723840Y1742029D1*
G1X1714903Y1741489D2*
G1X1723840Y1741489D1*
G1X1714363Y1740949D2*
G1X1723840Y1740949D1*
G1X1713823Y1740409D2*
G1X1723840Y1740409D1*
G1X1713283Y1739869D2*
G1X1723840Y1739869D1*
G1X1712743Y1739329D2*
G1X1723840Y1739329D1*
G1X1712203Y1738789D2*
G1X1723840Y1738789D1*
G1X1711663Y1738249D2*
G1X1723840Y1738249D1*
G1X1711123Y1737709D2*
G1X1723840Y1737709D1*
G1X1710583Y1737169D2*
G1X1723840Y1737169D1*
G1X1688530Y1736629D2*
G1X1723840Y1736629D1*
G1X1688530Y1736089D2*
G1X1723840Y1736089D1*
G1X1688530Y1735549D2*
G1X1723840Y1735549D1*
G1X1688530Y1735009D2*
G1X1723840Y1735009D1*
G1X1688530Y1734469D2*
G1X1723334Y1734469D1*
G1X1688530Y1733929D2*
G1X1722794Y1733929D1*
G1X1688530Y1733389D2*
G1X1722254Y1733389D1*
G1X1688536Y1732849D2*
G1X1721714Y1732849D1*
G1X1689076Y1732309D2*
G1X1721174Y1732309D1*
G1X1689616Y1731769D2*
G1X1720634Y1731769D1*
G1X1690156Y1731229D2*
G1X1720094Y1731229D1*
G1X1690696Y1730689D2*
G1X1719554Y1730689D1*
G1X1688530Y1741489D2*
G1X1693780Y1741489D1*
G1X1688530Y1740949D2*
G1X1693780Y1740949D1*
G1X1688530Y1740409D2*
G1X1693780Y1740409D1*
G1X1688530Y1739869D2*
G1X1693780Y1739869D1*
G1X1688530Y1739329D2*
G1X1693780Y1739329D1*
G1X1688530Y1738789D2*
G1X1693780Y1738789D1*
G1X1688530Y1738249D2*
G1X1693780Y1738249D1*
G1X1688530Y1737709D2*
G1X1693780Y1737709D1*
G1X1688530Y1737169D2*
G1X1693780Y1737169D1*
G1X1733800Y1743079D2*
G1X1740200Y1743079D1*
G1X1733800Y1742539D2*
G1X1740200Y1742539D1*
G1X1733800Y1741999D2*
G1X1740200Y1741999D1*
G1X1733800Y1741459D2*
G1X1740200Y1741459D1*
G1X1733800Y1740919D2*
G1X1740200Y1740919D1*
G1X1733800Y1740379D2*
G1X1740200Y1740379D1*
G1X1733800Y1739839D2*
G1X1740200Y1739839D1*
G1X1903450Y1779655D2*
G54D165*
G1X1904245Y1780450D1*
G1X1917955Y1780450D1*
G1X1918750Y1779655D1*
G1X1918750Y1772945D1*
G1X1917955Y1772150D1*
G1X1904245Y1772150D1*
G1X1903450Y1772945D1*
G1X1903450Y1779655D1*
G1X1892450Y1750655D2*
G1X1893245Y1751450D1*
G1X1913955Y1751450D1*
G1X1914750Y1750655D1*
G1X1914750Y1746945D1*
G1X1913955Y1746150D1*
G1X1893245Y1746150D1*
G1X1892450Y1746945D1*
G1X1892450Y1750655D1*
G1X1889450Y1727655D2*
G1X1890245Y1728450D1*
G1X1897955Y1728450D1*
G1X1898750Y1727655D1*
G1X1898750Y1720945D1*
G1X1897955Y1720150D1*
G1X1890245Y1720150D1*
G1X1889450Y1720945D1*
G1X1889450Y1727655D1*
G1X1903450Y1779079D2*
G1X1918750Y1779079D1*
G1X1903450Y1778449D2*
G1X1918750Y1778449D1*
G1X1903450Y1777819D2*
G1X1918750Y1777819D1*
G1X1903450Y1777189D2*
G1X1918750Y1777189D1*
G1X1903450Y1776559D2*
G1X1918750Y1776559D1*
G1X1903450Y1775929D2*
G1X1918750Y1775929D1*
G1X1903450Y1775299D2*
G1X1918750Y1775299D1*
G1X1903450Y1774669D2*
G1X1918750Y1774669D1*
G1X1903450Y1774039D2*
G1X1918750Y1774039D1*
G1X1903450Y1773409D2*
G1X1918750Y1773409D1*
G1X1903504Y1779709D2*
G1X1918696Y1779709D1*
G1X1903616Y1772779D2*
G1X1918584Y1772779D1*
G1X1904134Y1780339D2*
G1X1918066Y1780339D1*
G1X1892450Y1750559D2*
G1X1914750Y1750559D1*
G1X1892450Y1749929D2*
G1X1914750Y1749929D1*
G1X1892450Y1749299D2*
G1X1914750Y1749299D1*
G1X1892450Y1748669D2*
G1X1914750Y1748669D1*
G1X1892450Y1748039D2*
G1X1914750Y1748039D1*
G1X1892450Y1747409D2*
G1X1914750Y1747409D1*
G1X1892616Y1746779D2*
G1X1914584Y1746779D1*
G1X1892984Y1751189D2*
G1X1914216Y1751189D1*
G1X1889450Y1727079D2*
G1X1898750Y1727079D1*
G1X1889450Y1726449D2*
G1X1898750Y1726449D1*
G1X1889450Y1725819D2*
G1X1898750Y1725819D1*
G1X1889450Y1725189D2*
G1X1898750Y1725189D1*
G1X1889450Y1724559D2*
G1X1898750Y1724559D1*
G1X1889450Y1723929D2*
G1X1898750Y1723929D1*
G1X1889450Y1723299D2*
G1X1898750Y1723299D1*
G1X1889450Y1722669D2*
G1X1898750Y1722669D1*
G1X1889450Y1722039D2*
G1X1898750Y1722039D1*
G1X1889450Y1721409D2*
G1X1898750Y1721409D1*
G1X1889504Y1727709D2*
G1X1898696Y1727709D1*
G1X1889616Y1720779D2*
G1X1898584Y1720779D1*
G1X1890134Y1728339D2*
G1X1898066Y1728339D1*
G54D167*
G1X1725990Y1800030D3*
G1X1925990Y1740030D3*
G1X1925990Y1630030D3*
G1X1720990Y1610030D3*
G54D168*
G1X1866100Y1609800D3*
G1X1876100Y1609800D3*
G1X1886100Y1609800D3*
G1X1896100Y1609800D3*
G1X1906100Y1609800D3*
G1X1916100Y1609800D3*
G1X1776100Y1609800D3*
G1X1786100Y1609800D3*
G1X1796100Y1609800D3*
G1X1806100Y1609800D3*
G1X1816100Y1609800D3*
G1X1826100Y1609800D3*
G1X1836100Y1609800D3*
G1X1846100Y1609800D3*
G1X1830100Y1799800D3*
G1X1820100Y1799800D3*
G1X1810100Y1799800D3*
G1X1800100Y1799800D3*
G1X1790100Y1799800D3*
G1X1780100Y1799800D3*
G1X1770100Y1799800D3*
G1X1760100Y1799800D3*
G1X1750100Y1799800D3*
G1X1740100Y1799800D3*
G1X1916100Y1799800D3*
G1X1906100Y1799800D3*
G1X1896100Y1799800D3*
G1X1886100Y1799800D3*
G1X1876100Y1799800D3*
G1X1866100Y1799800D3*
G1X1856100Y1799800D3*
G1X1846100Y1799800D3*
G54D171*
G1X1788750Y1740300D3*
G1X1782450Y1740300D3*
G1X1860950Y1762800D3*
G1X1867250Y1762800D3*
G1X1806250Y1753300D3*
G1X1799950Y1753300D3*
G1X1818950Y1776300D3*
G1X1825250Y1776300D3*
G54D172*
G1X1808600Y1763150D3*
G1X1808600Y1769450D3*
G1X1807100Y1707450D3*
G1X1807100Y1701150D3*
G54D173*
G1X1718343Y1766900D3*
G1X1711257Y1766900D3*
G54D177*
G1X1733100Y1628950D3*
G1X1733100Y1622650D3*
G1X1742100Y1622650D3*
G1X1742100Y1628950D3*
G1X1752100Y1628950D3*
G1X1752100Y1622650D3*
G1X1762100Y1628950D3*
G1X1762100Y1622650D3*
G1X1757600Y1771950D3*
G1X1757600Y1765650D3*
G1X1855100Y1735950D3*
G1X1855100Y1729650D3*
G1X1875100Y1740950D3*
G1X1875100Y1734650D3*
G1X1817600Y1707450D3*
G1X1817600Y1701150D3*
G1X1853300Y1721450D3*
G1X1853300Y1715150D3*
G1X1845400Y1721450D3*
G1X1845400Y1715150D3*
G1X1837500Y1721450D3*
G1X1837500Y1715150D3*
G54D178*
G1X1769950Y1689300D3*
G1X1776250Y1689300D3*
G1X1782450Y1745800D3*
G1X1788750Y1745800D3*
G1X1797250Y1787300D3*
G1X1790950Y1787300D3*
G1X1803650Y1787400D3*
G1X1809950Y1787400D3*
G1X1845250Y1755300D3*
G1X1838950Y1755300D3*
G1X1845250Y1749300D3*
G1X1838950Y1749300D3*
G1X1838950Y1743300D3*
G1X1845250Y1743300D3*
G1X1867250Y1751300D3*
G1X1860950Y1751300D3*
G1X1867250Y1756800D3*
G1X1860950Y1756800D3*
G1X1860950Y1730800D3*
G1X1867250Y1730800D3*
G1X1831250Y1722300D3*
G1X1824950Y1722300D3*
G1X1824950Y1727800D3*
G1X1831250Y1727800D3*
G1X1808500Y1732300D3*
G1X1802200Y1732300D3*
G1X1817500Y1726550D3*
G1X1811200Y1726550D3*
G1X1797700Y1726050D3*
G1X1804000Y1726050D3*
G1X1838950Y1761300D3*
G1X1845250Y1761300D3*
G1X1833250Y1691300D3*
G1X1826950Y1691300D3*
G54D179*
G1X1769340Y1715300D3*
G1X1761860Y1715300D3*
G1X1718440Y1774300D3*
G1X1710960Y1774300D3*
G54D180*
G1X1710100Y1632800D3*
G54D181*
G1X1686100Y1632800D3*
G54D182*
G1X1698100Y1614296D3*
G54D183*
G1X1892226Y1634300D3*
G1X1900100Y1642174D3*
G1X1892226Y1642174D3*
G1X1900100Y1650048D3*
G1X1892226Y1650048D3*
G1X1900100Y1657922D3*
G1X1892226Y1657922D3*
G1X1900100Y1665796D3*
G1X1892226Y1665796D3*
G1X1900100Y1673670D3*
G1X1892226Y1673670D3*
G1X1900100Y1681544D3*
G1X1892226Y1681544D3*
G54D188*
G1X1817557Y1720140D3*
G1X1817557Y1716400D3*
G1X1817557Y1712660D3*
G1X1807243Y1712660D3*
G1X1807243Y1716400D3*
G1X1807243Y1720140D3*
G54D204*
G1X1736900Y1755706D3*
G1X1736900Y1743894D3*
G1X1736900Y1738706D3*
G1X1736900Y1726894D3*
G54D213*
G1X1829600Y1701300D3*
G54D214*
G1X1829600Y1709200D3*
G1X1837500Y1701300D3*
G1X1837500Y1709200D3*
G1X1845400Y1701300D3*
G1X1845400Y1709200D3*
G1X1853274Y1701300D3*
G1X1853274Y1709174D3*
G54D216*
G1X1830565Y1758698D3*
G1X1830565Y1756139D3*
G1X1830565Y1753580D3*
G1X1830565Y1751020D3*
G1X1830565Y1748461D3*
G1X1830565Y1745902D3*
G1X1813635Y1745902D3*
G1X1813635Y1748461D3*
G1X1813635Y1751020D3*
G1X1813635Y1753580D3*
G1X1813635Y1756139D3*
G1X1813635Y1758698D3*
G54D217*
G1X1827612Y1770753D3*
G1X1827612Y1768784D3*
G1X1827612Y1766816D3*
G1X1827612Y1764847D3*
G1X1816588Y1764847D3*
G1X1816588Y1766816D3*
G1X1816588Y1768784D3*
G1X1816588Y1770753D3*
G1X1869612Y1745753D3*
G1X1869612Y1743784D3*
G1X1869612Y1741816D3*
G1X1869612Y1739847D3*
G1X1858588Y1739847D3*
G1X1858588Y1741816D3*
G1X1858588Y1743784D3*
G1X1858588Y1745753D3*
M2*
