%
T1C.012F095S3
X-003989Y001077
X-003989Y002077
X-003489Y000577
X-002989Y001077
X-002989Y002077
X-002489Y001577
X-001639Y001827
X-000489Y001827
X000761Y001877
X001211Y-000023
X001611Y001377
X002111Y-000073
X002511Y001377
X003111Y-000023
X003561Y001377
X003611Y001877
X004111Y-000023
X004561Y001377
X005001Y001847
X006031Y002337
X006061Y001427
X007011Y002377
X007511Y001727
X008661Y001727
X009661Y001427
X010211Y001427
X015911Y001977
X020761Y004777
X018811Y002477
X016261Y004877
X015861Y002727
X014611Y004397
X014101Y004407
X012711Y004327
X012461Y004777
X012361Y004027
X012211Y003367
X012061Y004427
X012061Y004777
X011511Y003727
X011211Y003327
X011111Y004177
X010921Y003017
X010711Y004027
X010511Y004327
X010511Y003077
X009411Y004277
X009361Y002727
X007311Y003427
X00602Y004521
X006015Y004056
X006015Y003696
X006012Y004912
X005991Y002937
X005551Y004907
X004561Y003427
X-000489Y002727
X-000739Y003327
X-001489Y003327
X-001639Y002727
X-002489Y002577
X-002489Y003577
X-002989Y004077
X-002989Y003077
X-003489Y003577
X-003989Y003077
X-003989Y004077
X-002639Y007027
X-002189Y007377
X-001939Y007027
X-001689Y006527
X-001439Y007377
X-001189Y006777
X000061Y006527
X000311Y007027
X001511Y006227
X003161Y005727
X004519Y006313
X004525Y005545
X004571Y007067
X005561Y005797
X006001Y005287
X006011Y006313
X007361Y006077
X009061Y005027
X009911Y006767
X011239Y005325
X011555Y006333
X011571Y007417
X011868Y005327
X012183Y006335
X013111Y006777
X013411Y006377
X013711Y005827
X013761Y006677
X014011Y005477
X014011Y004977
X014451Y007297
X015961Y005677
X015961Y006927
X019111Y006364
X019111Y005577
X020661Y005577
X020661Y006364
X019811Y007677
X018961Y008027
X018411Y008427
X018311Y009627
X012511Y008327
X009961Y007527
X009161Y008527
X009071Y009227
X008811Y008177
X008251Y009737
X007611Y007877
X004811Y009877
X004561Y007927
X004061Y009877
X003861Y008277
X003601Y009217
X002461Y007477
X002311Y008127
X002311Y007777
X001661Y008127
X001661Y007777
X001601Y009567
X001601Y008817
X001461Y007477
X000561Y008577
X000561Y007527
X000311Y009627
X000061Y007527
X000061Y008577
X-000339Y009227
X-000339Y009627
X-001939Y009227
X-002139Y009627
X-002639Y007527
X-002739Y009627
X-003339Y009627
X-004239Y007527
X-001311Y011507
X-001311Y011147
X002511Y010677
X003011Y011777
X003011Y011177
X003011Y010677
X003011Y012377
X003311Y011477
X003311Y012077
X004807Y011147
X004807Y011507
X006311Y010827
X007629Y011106
X010251Y010617
X010761Y012287
X011021Y010797
X011561Y011827
X012901Y012347
X013861Y010977
X015511Y010477
X015761Y011877
X017061Y011177
X017061Y011627
X017511Y011627
X017511Y011177
X018561Y011577
X018711Y012327
X019161Y011727
X019061Y013877
X019011Y014777
X018511Y013877
X017911Y013877
X017361Y013877
X016361Y014477
X015951Y013027
X014861Y012727
X014411Y012777
X014241Y013367
X013521Y014347
X013261Y013377
X012871Y014087
X012851Y014787
X012211Y012997
X011121Y012847
X010961Y013257
X010121Y012587
X010041Y014097
X008691Y014767
X008151Y013707
X008111Y014827
X007211Y014627
X007211Y012727
X007211Y013477
X005711Y013027
X005611Y014427
X005261Y013027
X003311Y012677
X003311Y013877
X003311Y013277
X003311Y014477
X003011Y012977
X003011Y013577
X000161Y014827
X000161Y013827
X000161Y013327
X000161Y012827
X000161Y014327
X-000999Y014777
X-000999Y014437
X-001039Y014077
X-001299Y014437
X-001299Y014777
X-001289Y015137
X-000999Y015137
X000161Y015827
X000161Y015327
X003011Y016477
X003011Y015887
X003311Y015077
X005611Y015277
X005611Y016327
X006311Y016727
X007611Y017377
X008111Y015477
X008111Y016677
X008111Y016077
X008261Y017377
X008861Y016407
X009801Y016987
X009861Y015097
X010201Y015937
X010301Y017017
X010602Y015227
X014001Y015737
X014511Y015677
X016111Y015577
X017061Y015227
X017061Y015951
X017811Y016677
X018461Y016477
X018761Y016777
X019011Y016477
X019261Y016777
X019511Y016477
X018911Y017427
X017861Y017527
X005611Y017877
X005286Y017527
X003711Y017877
X-001329Y018527
X-004619Y019127
T2C.013F095S3
X-003839Y007527
X-003739Y007827
X-003739Y007227
X-003439Y007527
X-003139Y007827
X-003139Y007227
X-003039Y007527
T3C.03F197S55
X-004089Y008877
X001261Y006827
X009411Y012327
X009411Y013077
T4C.035F197S55
X017124Y002427
X017124Y003214
X017124Y004002
X017124Y004789
X017911Y004002
X017911Y003214
X017911Y004789
X017911Y002427
X017911Y005577
X017911Y006364
X017911Y007151
X017161Y009077
X017124Y005577
X017124Y007151
X017124Y006364
X016161Y009077
X013228Y009127
X013228Y009914
X012441Y009127
X012441Y009917
X011651Y009127
X011651Y009917
X010861Y009127
X010861Y009917
X006091Y008927
X005301Y008927
X004511Y008927
T5C.036F197S55
X-002976Y014161
X-002976Y013177
X-002189Y013177
X-002189Y014161
T6C.037F197S55
X019561Y008977
X019561Y009977
X019561Y010977
X020561Y009977
X020561Y008977
X020561Y010977
T7C.04F139S55
X005511Y-000023
X006511Y-000023
X007511Y-000023
X008511Y-000023
X009511Y-000023
X010511Y-000023
X011511Y-000023
X012511Y-000023
X014511Y-000023
X015511Y-000023
X016511Y-000023
X017511Y-000023
X018511Y-000023
X019511Y-000023
X019511Y018977
X018511Y018977
X017511Y018977
X016511Y018977
X015511Y018977
X014511Y018977
X013511Y018977
X012511Y018977
X010911Y018977
X009911Y018977
X008911Y018977
X007911Y018977
X006911Y018977
X005911Y018977
X004911Y018977
X003911Y018977
X002911Y018977
X001911Y018977
X-001089Y002777G85X-001089Y001777
X-003489Y002677G85X-003489Y001877
X-001889Y000427G85X-002689Y000427
T8C.09F066S55
X-004043Y011299
X-004043Y016039
T9C.126F035S794
X0Y0
X0205Y002
X0205Y013
X0005Y019
M30
