*
%LPD*%
%LNDC2026C1-BS*%
%FSLAX25Y25*%
%MOIN*%
%AD*%
%AD*%
%ADD11C,0.01*%
%ADD12C,0.008*%
%ADD43C,0.001*%
%ADD161C,0.007870079*%
%ADD163C,0.006*%
%ADD164C,0.009840157*%
%ADD165C,0.007*%
%ADD198C,0.007870079*%
%ADD200C,0.005909843*%
G54D43*
%SRX1Y1I0.0J0.0*%
G1X1764235Y1651327D2*
G1X1764149Y1652018D1*
G1X1763976Y1652537D1*
G1X1763718Y1653051D1*
G1X1763295Y1653390D1*
G1X1762779Y1653562D1*
G1X1762263Y1653648D1*
G1X1761579Y1653563D1*
G1X1761066Y1653220D1*
G1X1760639Y1652794D1*
G1X1760483Y1652248D1*
G1X1761181Y1652170D1*
G1X1761341Y1652491D1*
G1X1761344Y1652496D1*
G1X1761520Y1652760D1*
G1X1761533Y1652774D1*
G1X1761797Y1652949D1*
G1X1761813Y1652956D1*
G1X1762164Y1653044D1*
G1X1762185Y1653045D1*
G1X1762712Y1652957D1*
G1X1762735Y1652947D1*
G1X1763174Y1652595D1*
G1X1763188Y1652579D1*
G1X1763451Y1652051D1*
G1X1763456Y1652035D1*
G1X1763544Y1651332D1*
G1X1763545Y1651326D1*
G1X1763544Y1651320D1*
G1X1763456Y1650529D1*
G1X1763451Y1650513D1*
G1X1763188Y1649985D1*
G1X1763173Y1649968D1*
G1X1762822Y1649704D1*
G1X1762800Y1649695D1*
G1X1762272Y1649607D1*
G1X1762254Y1649607D1*
G1X1761815Y1649695D1*
G1X1761802Y1649699D1*
G1X1761451Y1649875D1*
G1X1761429Y1649897D1*
G1X1761253Y1650249D1*
G1X1761251Y1650253D1*
G1X1761090Y1650657D1*
G1X1760393Y1650579D1*
G1X1760552Y1649943D1*
G1X1760979Y1649431D1*
G1X1761578Y1649089D1*
G1X1762175Y1649004D1*
G1X1763036Y1649176D1*
G1X1763720Y1649603D1*
G1X1764062Y1650287D1*
G1X1764235Y1651327D1*
G1X1759666Y1653561D2*
G1X1758975Y1653561D1*
G1X1758975Y1652908D1*
G1X1758889Y1652872D1*
G1X1758369Y1653392D1*
G1X1757943Y1653563D1*
G1X1757605Y1653647D1*
G1X1757182Y1653563D1*
G1X1756756Y1653392D1*
G1X1756505Y1653142D1*
G1X1756333Y1652797D1*
G1X1756246Y1652794D1*
G1X1755987Y1653225D1*
G1X1755651Y1653477D1*
G1X1755311Y1653562D1*
G1X1754881Y1653648D1*
G1X1754284Y1653563D1*
G1X1753866Y1653312D1*
G1X1753613Y1652805D1*
G1X1753526Y1652201D1*
G1X1753526Y1649091D1*
G1X1754217Y1649091D1*
G1X1754217Y1652293D1*
G1X1754220Y1652308D1*
G1X1754308Y1652572D1*
G1X1754315Y1652586D1*
G1X1754579Y1652938D1*
G1X1754609Y1652957D1*
G1X1755048Y1653045D1*
G1X1755068Y1653045D1*
G1X1755507Y1652957D1*
G1X1755528Y1652948D1*
G1X1755879Y1652684D1*
G1X1755889Y1652674D1*
G1X1756153Y1652323D1*
G1X1756162Y1652300D1*
G1X1756250Y1651684D1*
G1X1756251Y1651677D1*
G1X1756251Y1649091D1*
G1X1756941Y1649091D1*
G1X1756941Y1652380D1*
G1X1756947Y1652403D1*
G1X1757123Y1652754D1*
G1X1757140Y1652774D1*
G1X1757403Y1652949D1*
G1X1757419Y1652956D1*
G1X1757770Y1653044D1*
G1X1757796Y1653044D1*
G1X1758411Y1652868D1*
G1X1758436Y1652852D1*
G1X1758875Y1652325D1*
G1X1758885Y1652305D1*
G1X1758973Y1651953D1*
G1X1758975Y1651941D1*
G1X1758975Y1649091D1*
G1X1759666Y1649091D1*
G1X1759666Y1653561D1*
G1X1726335Y1653188D2*
G1X1725819Y1653483D1*
G1X1725816Y1653485D1*
G1X1725352Y1653794D1*
G1X1725344Y1653800D1*
G1X1724957Y1654187D1*
G1X1724950Y1654197D1*
G1X1724732Y1654559D1*
G1X1724347Y1654559D1*
G1X1724347Y1649091D1*
G1X1724943Y1649091D1*
G1X1724943Y1653372D1*
G1X1725023Y1653412D1*
G1X1725638Y1652950D1*
G1X1726335Y1652602D1*
G1X1726335Y1653188D1*
G1X1724400Y1649091D2*
G1X1724400Y1654559D1*
G1X1724500Y1649091D2*
G1X1724500Y1654559D1*
G1X1724600Y1649091D2*
G1X1724600Y1654559D1*
G1X1724700Y1649091D2*
G1X1724700Y1654559D1*
G1X1724800Y1649091D2*
G1X1724800Y1654446D1*
G1X1724900Y1649091D2*
G1X1724900Y1654280D1*
G1X1725000Y1653421D2*
G1X1725000Y1654144D1*
G1X1725100Y1653354D2*
G1X1725100Y1654044D1*
G1X1725200Y1653279D2*
G1X1725200Y1653944D1*
G1X1725300Y1653204D2*
G1X1725300Y1653844D1*
G1X1725400Y1653129D2*
G1X1725400Y1653762D1*
G1X1725500Y1653054D2*
G1X1725500Y1653695D1*
G1X1725600Y1652979D2*
G1X1725600Y1653629D1*
G1X1725700Y1652919D2*
G1X1725700Y1653562D1*
G1X1725800Y1652869D2*
G1X1725800Y1653495D1*
G1X1725900Y1652819D2*
G1X1725900Y1653436D1*
G1X1726000Y1652769D2*
G1X1726000Y1653379D1*
G1X1726100Y1652719D2*
G1X1726100Y1653322D1*
G1X1726200Y1652669D2*
G1X1726200Y1653265D1*
G1X1726300Y1652619D2*
G1X1726300Y1653208D1*
G1X1753600Y1649091D2*
G1X1753600Y1652717D1*
G1X1753700Y1649091D2*
G1X1753700Y1652980D1*
G1X1753800Y1649091D2*
G1X1753800Y1653180D1*
G1X1753900Y1649091D2*
G1X1753900Y1653332D1*
G1X1754000Y1649091D2*
G1X1754000Y1653392D1*
G1X1754100Y1649091D2*
G1X1754100Y1653452D1*
G1X1754200Y1649091D2*
G1X1754200Y1653512D1*
G1X1754300Y1652549D2*
G1X1754300Y1653565D1*
G1X1754400Y1652699D2*
G1X1754400Y1653579D1*
G1X1754500Y1652833D2*
G1X1754500Y1653594D1*
G1X1754600Y1652954D2*
G1X1754600Y1653608D1*
G1X1754700Y1652975D2*
G1X1754700Y1653622D1*
G1X1754800Y1652995D2*
G1X1754800Y1653636D1*
G1X1754900Y1653015D2*
G1X1754900Y1653644D1*
G1X1755000Y1653035D2*
G1X1755000Y1653624D1*
G1X1755100Y1653038D2*
G1X1755100Y1653604D1*
G1X1755200Y1653018D2*
G1X1755200Y1653584D1*
G1X1755300Y1652998D2*
G1X1755300Y1653564D1*
G1X1755400Y1652978D2*
G1X1755400Y1653540D1*
G1X1755500Y1652958D2*
G1X1755500Y1653515D1*
G1X1755600Y1652893D2*
G1X1755600Y1653490D1*
G1X1755700Y1652818D2*
G1X1755700Y1653440D1*
G1X1755800Y1652743D2*
G1X1755800Y1653365D1*
G1X1755900Y1652659D2*
G1X1755900Y1653290D1*
G1X1756000Y1652526D2*
G1X1756000Y1653203D1*
G1X1756100Y1652393D2*
G1X1756100Y1653037D1*
G1X1756200Y1652035D2*
G1X1756200Y1652870D1*
G1X1756300Y1649091D2*
G1X1756300Y1652771D1*
G1X1756400Y1649091D2*
G1X1756400Y1652931D1*
G1X1756500Y1649091D2*
G1X1756500Y1653131D1*
G1X1756600Y1649091D2*
G1X1756600Y1653236D1*
G1X1756700Y1649091D2*
G1X1756700Y1653336D1*
G1X1756800Y1649091D2*
G1X1756800Y1653410D1*
G1X1756900Y1649091D2*
G1X1756900Y1653450D1*
G1X1757000Y1652509D2*
G1X1757000Y1653490D1*
G1X1757100Y1652709D2*
G1X1757100Y1653530D1*
G1X1757200Y1652814D2*
G1X1757200Y1653566D1*
G1X1757300Y1652881D2*
G1X1757300Y1653586D1*
G1X1757400Y1652947D2*
G1X1757400Y1653606D1*
G1X1757500Y1652977D2*
G1X1757500Y1653626D1*
G1X1757600Y1653002D2*
G1X1757600Y1653646D1*
G1X1757700Y1653027D2*
G1X1757700Y1653624D1*
G1X1757800Y1653043D2*
G1X1757800Y1653599D1*
G1X1757900Y1653014D2*
G1X1757900Y1653574D1*
G1X1758000Y1652985D2*
G1X1758000Y1653540D1*
G1X1758100Y1652957D2*
G1X1758100Y1653500D1*
G1X1758200Y1652928D2*
G1X1758200Y1653460D1*
G1X1758300Y1652900D2*
G1X1758300Y1653420D1*
G1X1758400Y1652871D2*
G1X1758400Y1653362D1*
G1X1758500Y1652775D2*
G1X1758500Y1653262D1*
G1X1758600Y1652655D2*
G1X1758600Y1653162D1*
G1X1758700Y1652535D2*
G1X1758700Y1653062D1*
G1X1758800Y1652415D2*
G1X1758800Y1652962D1*
G1X1758900Y1652247D2*
G1X1758900Y1652864D1*
G1X1759000Y1649091D2*
G1X1759000Y1653561D1*
G1X1759100Y1649091D2*
G1X1759100Y1653561D1*
G1X1759200Y1649091D2*
G1X1759200Y1653561D1*
G1X1759300Y1649091D2*
G1X1759300Y1653561D1*
G1X1759400Y1649091D2*
G1X1759400Y1653561D1*
G1X1759500Y1649091D2*
G1X1759500Y1653561D1*
G1X1759600Y1649091D2*
G1X1759600Y1653561D1*
G1X1760400Y1650553D2*
G1X1760400Y1650580D1*
G1X1760500Y1650153D2*
G1X1760500Y1650591D1*
G1X1760500Y1652246D2*
G1X1760500Y1652307D1*
G1X1760600Y1649886D2*
G1X1760600Y1650602D1*
G1X1760600Y1652235D2*
G1X1760600Y1652657D1*
G1X1760700Y1649766D2*
G1X1760700Y1650614D1*
G1X1760700Y1652224D2*
G1X1760700Y1652855D1*
G1X1760800Y1649646D2*
G1X1760800Y1650625D1*
G1X1760800Y1652213D2*
G1X1760800Y1652955D1*
G1X1760900Y1649526D2*
G1X1760900Y1650636D1*
G1X1760900Y1652202D2*
G1X1760900Y1653055D1*
G1X1761000Y1649419D2*
G1X1761000Y1650647D1*
G1X1761000Y1652190D2*
G1X1761000Y1653155D1*
G1X1761100Y1649362D2*
G1X1761100Y1650631D1*
G1X1761100Y1652179D2*
G1X1761100Y1653243D1*
G1X1761200Y1649305D2*
G1X1761200Y1650381D1*
G1X1761200Y1652209D2*
G1X1761200Y1653310D1*
G1X1761300Y1649248D2*
G1X1761300Y1650155D1*
G1X1761300Y1652409D2*
G1X1761300Y1653377D1*
G1X1761400Y1649191D2*
G1X1761400Y1649955D1*
G1X1761400Y1652580D2*
G1X1761400Y1653443D1*
G1X1761500Y1649134D2*
G1X1761500Y1649851D1*
G1X1761500Y1652730D2*
G1X1761500Y1653510D1*
G1X1761600Y1649086D2*
G1X1761600Y1649801D1*
G1X1761600Y1652818D2*
G1X1761600Y1653565D1*
G1X1761700Y1649072D2*
G1X1761700Y1649751D1*
G1X1761700Y1652885D2*
G1X1761700Y1653578D1*
G1X1761800Y1649057D2*
G1X1761800Y1649701D1*
G1X1761800Y1652951D2*
G1X1761800Y1653590D1*
G1X1761900Y1649043D2*
G1X1761900Y1649678D1*
G1X1761900Y1652978D2*
G1X1761900Y1653603D1*
G1X1762000Y1649029D2*
G1X1762000Y1649658D1*
G1X1762000Y1653003D2*
G1X1762000Y1653615D1*
G1X1762100Y1649015D2*
G1X1762100Y1649638D1*
G1X1762100Y1653028D2*
G1X1762100Y1653628D1*
G1X1762200Y1649009D2*
G1X1762200Y1649618D1*
G1X1762200Y1653042D2*
G1X1762200Y1653640D1*
G1X1762300Y1649029D2*
G1X1762300Y1649611D1*
G1X1762300Y1653026D2*
G1X1762300Y1653642D1*
G1X1762400Y1649049D2*
G1X1762400Y1649628D1*
G1X1762400Y1653009D2*
G1X1762400Y1653625D1*
G1X1762500Y1649069D2*
G1X1762500Y1649645D1*
G1X1762500Y1652992D2*
G1X1762500Y1653609D1*
G1X1762600Y1649089D2*
G1X1762600Y1649661D1*
G1X1762600Y1652976D2*
G1X1762600Y1653592D1*
G1X1762700Y1649109D2*
G1X1762700Y1649678D1*
G1X1762700Y1652959D2*
G1X1762700Y1653575D1*
G1X1762800Y1649129D2*
G1X1762800Y1649695D1*
G1X1762800Y1652895D2*
G1X1762800Y1653555D1*
G1X1762900Y1649149D2*
G1X1762900Y1649763D1*
G1X1762900Y1652815D2*
G1X1762900Y1653522D1*
G1X1763000Y1649169D2*
G1X1763000Y1649838D1*
G1X1763000Y1652735D2*
G1X1763000Y1653489D1*
G1X1763100Y1649216D2*
G1X1763100Y1649913D1*
G1X1763100Y1652655D2*
G1X1763100Y1653455D1*
G1X1763200Y1649278D2*
G1X1763200Y1650010D1*
G1X1763200Y1652554D2*
G1X1763200Y1653422D1*
G1X1763300Y1649341D2*
G1X1763300Y1650210D1*
G1X1763300Y1652354D2*
G1X1763300Y1653386D1*
G1X1763400Y1649403D2*
G1X1763400Y1650410D1*
G1X1763400Y1652154D2*
G1X1763400Y1653306D1*
G1X1763500Y1649466D2*
G1X1763500Y1650922D1*
G1X1763500Y1651686D2*
G1X1763500Y1653226D1*
G1X1763600Y1649528D2*
G1X1763600Y1653146D1*
G1X1763700Y1649591D2*
G1X1763700Y1653066D1*
G1X1763800Y1649764D2*
G1X1763800Y1652888D1*
G1X1763900Y1649964D2*
G1X1763900Y1652688D1*
G1X1764000Y1650164D2*
G1X1764000Y1652464D1*
G1X1764100Y1650517D2*
G1X1764100Y1652164D1*
G1X1764200Y1651117D2*
G1X1764200Y1651607D1*
G1X1845720Y1772713D2*
G54D11*
G1X1845720Y1768025D1*
G1X1845493Y1767088D1*
G1X1845038Y1766463D1*
G1X1844356Y1766150D1*
G1X1843902Y1766150D1*
G1X1843220Y1766463D1*
G1X1842765Y1767088D1*
G1X1842538Y1768025D1*
G1X1842538Y1772713D1*
G1X1838220Y1772713D2*
G1X1840493Y1768338D1*
G1X1837084Y1768338D1*
G1X1838220Y1772713D2*
G1X1838220Y1766150D1*
G1X1811660Y1780963D2*
G1X1811660Y1776275D1*
G1X1811433Y1775338D1*
G1X1810978Y1774713D1*
G1X1810296Y1774400D1*
G1X1809842Y1774400D1*
G1X1809160Y1774713D1*
G1X1808705Y1775338D1*
G1X1808478Y1776275D1*
G1X1808478Y1780963D1*
G1X1806433Y1779713D2*
G1X1805978Y1780025D1*
G1X1805296Y1780963D1*
G1X1805296Y1774400D1*
G1X1803024Y1779400D2*
G1X1803024Y1779713D1*
G1X1802796Y1780338D1*
G1X1802569Y1780650D1*
G1X1802115Y1780963D1*
G1X1801205Y1780963D1*
G1X1800751Y1780650D1*
G1X1800524Y1780338D1*
G1X1800296Y1779713D1*
G1X1800296Y1779088D1*
G1X1800524Y1778463D1*
G1X1800978Y1777525D1*
G1X1803251Y1774400D1*
G1X1800069Y1774400D1*
G1X1890900Y1746063D2*
G1X1890900Y1741375D1*
G1X1890673Y1740438D1*
G1X1890218Y1739813D1*
G1X1889536Y1739500D1*
G1X1889082Y1739500D1*
G1X1888400Y1739813D1*
G1X1887945Y1740438D1*
G1X1887718Y1741375D1*
G1X1887718Y1746063D1*
G1X1885673Y1744813D2*
G1X1885218Y1745125D1*
G1X1884536Y1746063D1*
G1X1884536Y1739500D1*
G1X1882036Y1746063D2*
G1X1879536Y1746063D1*
G1X1880900Y1743563D1*
G1X1880218Y1743563D1*
G1X1879764Y1743250D1*
G1X1879536Y1742938D1*
G1X1879309Y1742000D1*
G1X1879309Y1741375D1*
G1X1879536Y1740438D1*
G1X1879991Y1739813D1*
G1X1880673Y1739500D1*
G1X1881355Y1739500D1*
G1X1882036Y1739813D1*
G1X1882264Y1740125D1*
G1X1882491Y1740750D1*
G1X1802177Y1719856D2*
G1X1802177Y1715169D1*
G1X1801950Y1714231D1*
G1X1801495Y1713606D1*
G1X1800814Y1713294D1*
G1X1800359Y1713294D1*
G1X1799677Y1713606D1*
G1X1799223Y1714231D1*
G1X1798995Y1715169D1*
G1X1798995Y1719856D1*
G1X1796950Y1718606D2*
G1X1796495Y1718919D1*
G1X1795814Y1719856D1*
G1X1795814Y1713294D1*
G1X1793768Y1718606D2*
G1X1793314Y1718919D1*
G1X1792632Y1719856D1*
G1X1792632Y1713294D1*
G1X1664100Y1571863D2*
G1X1664100Y1565300D1*
G1X1664100Y1571863D2*
G1X1666145Y1571863D1*
G1X1666827Y1571550D1*
G1X1667055Y1571238D1*
G1X1667282Y1570613D1*
G1X1667282Y1569988D1*
G1X1667055Y1569363D1*
G1X1666827Y1569050D1*
G1X1666145Y1568738D1*
G1X1664100Y1568738D2*
G1X1666145Y1568738D1*
G1X1666827Y1568425D1*
G1X1667055Y1568113D1*
G1X1667282Y1567488D1*
G1X1667282Y1566550D1*
G1X1667055Y1565925D1*
G1X1666827Y1565613D1*
G1X1666145Y1565300D1*
G1X1664100Y1565300D1*
G1X1670691Y1571863D2*
G1X1670236Y1571550D1*
G1X1669782Y1570925D1*
G1X1669555Y1570300D1*
G1X1669327Y1569363D1*
G1X1669327Y1567800D1*
G1X1669555Y1566863D1*
G1X1669782Y1566238D1*
G1X1670236Y1565613D1*
G1X1670691Y1565300D1*
G1X1671600Y1565300D1*
G1X1672055Y1565613D1*
G1X1672509Y1566238D1*
G1X1672736Y1566863D1*
G1X1672964Y1567800D1*
G1X1672964Y1569363D1*
G1X1672736Y1570300D1*
G1X1672509Y1570925D1*
G1X1672055Y1571550D1*
G1X1671600Y1571863D1*
G1X1670691Y1571863D1*
G1X1676600Y1571863D2*
G1X1676600Y1565300D1*
G1X1675009Y1571863D2*
G1X1678191Y1571863D1*
G1X1681827Y1571863D2*
G1X1681827Y1565300D1*
G1X1680236Y1571863D2*
G1X1683418Y1571863D1*
G1X1686827Y1571863D2*
G1X1686373Y1571550D1*
G1X1685918Y1570925D1*
G1X1685691Y1570300D1*
G1X1685464Y1569363D1*
G1X1685464Y1567800D1*
G1X1685691Y1566863D1*
G1X1685918Y1566238D1*
G1X1686373Y1565613D1*
G1X1686827Y1565300D1*
G1X1687736Y1565300D1*
G1X1688191Y1565613D1*
G1X1688645Y1566238D1*
G1X1688873Y1566863D1*
G1X1689100Y1567800D1*
G1X1689100Y1569363D1*
G1X1688873Y1570300D1*
G1X1688645Y1570925D1*
G1X1688191Y1571550D1*
G1X1687736Y1571863D1*
G1X1686827Y1571863D1*
G1X1691145Y1571863D2*
G1X1691145Y1565300D1*
G1X1691145Y1571863D2*
G1X1692964Y1565300D1*
G1X1694782Y1571863D2*
G1X1692964Y1565300D1*
G1X1694782Y1571863D2*
G1X1694782Y1565300D1*
G1X1705236Y1570925D2*
G1X1704782Y1571550D1*
G1X1704100Y1571863D1*
G1X1703191Y1571863D1*
G1X1702509Y1571550D1*
G1X1702055Y1570925D1*
G1X1702055Y1570300D1*
G1X1702282Y1569675D1*
G1X1702509Y1569363D1*
G1X1702964Y1569050D1*
G1X1704327Y1568425D1*
G1X1704782Y1568113D1*
G1X1705009Y1567800D1*
G1X1705236Y1567175D1*
G1X1705236Y1566238D1*
G1X1704782Y1565613D1*
G1X1704100Y1565300D1*
G1X1703191Y1565300D1*
G1X1702509Y1565613D1*
G1X1702055Y1566238D1*
G1X1707282Y1571863D2*
G1X1707282Y1565300D1*
G1X1709327Y1571863D2*
G1X1709327Y1565300D1*
G1X1712055Y1565300D1*
G1X1714100Y1571863D2*
G1X1714100Y1565300D1*
G1X1717282Y1571863D2*
G1X1714100Y1567488D1*
G1X1715236Y1569050D2*
G1X1717282Y1565300D1*
G1X1722509Y1570925D2*
G1X1722055Y1571550D1*
G1X1721373Y1571863D1*
G1X1720464Y1571863D1*
G1X1719782Y1571550D1*
G1X1719327Y1570925D1*
G1X1719327Y1570300D1*
G1X1719555Y1569675D1*
G1X1719782Y1569363D1*
G1X1720236Y1569050D1*
G1X1721600Y1568425D1*
G1X1722055Y1568113D1*
G1X1722282Y1567800D1*
G1X1722509Y1567175D1*
G1X1722509Y1566238D1*
G1X1722055Y1565613D1*
G1X1721373Y1565300D1*
G1X1720464Y1565300D1*
G1X1719782Y1565613D1*
G1X1719327Y1566238D1*
G1X1727964Y1570300D2*
G1X1727736Y1570925D1*
G1X1727282Y1571550D1*
G1X1726827Y1571863D1*
G1X1725918Y1571863D1*
G1X1725464Y1571550D1*
G1X1725009Y1570925D1*
G1X1724782Y1570300D1*
G1X1724555Y1569363D1*
G1X1724555Y1567800D1*
G1X1724782Y1566863D1*
G1X1725009Y1566238D1*
G1X1725464Y1565613D1*
G1X1725918Y1565300D1*
G1X1726827Y1565300D1*
G1X1727282Y1565613D1*
G1X1727736Y1566238D1*
G1X1727964Y1566863D1*
G1X1730009Y1571863D2*
G1X1730009Y1565300D1*
G1X1730009Y1571863D2*
G1X1732055Y1571863D1*
G1X1732736Y1571550D1*
G1X1732964Y1571238D1*
G1X1733191Y1570613D1*
G1X1733191Y1569988D1*
G1X1732964Y1569363D1*
G1X1732736Y1569050D1*
G1X1732055Y1568738D1*
G1X1730009Y1568738D1*
G1X1731600Y1568738D2*
G1X1733191Y1565300D1*
G1X1735236Y1571863D2*
G1X1735236Y1565300D1*
G1X1735236Y1571863D2*
G1X1738191Y1571863D1*
G1X1735236Y1568738D2*
G1X1737055Y1568738D1*
G1X1735236Y1565300D2*
G1X1738191Y1565300D1*
G1X1740236Y1571863D2*
G1X1740236Y1565300D1*
G1X1740236Y1571863D2*
G1X1743191Y1571863D1*
G1X1740236Y1568738D2*
G1X1742055Y1568738D1*
G1X1740236Y1565300D2*
G1X1743191Y1565300D1*
G1X1745236Y1571863D2*
G1X1745236Y1565300D1*
G1X1745236Y1571863D2*
G1X1748418Y1565300D1*
G1X1748418Y1571863D2*
G1X1748418Y1565300D1*
G1X1795100Y1567733D2*
G1X1795100Y1561170D1*
G1X1797827Y1561170D1*
G1X1799873Y1567733D2*
G1X1799873Y1561170D1*
G1X1801918Y1567733D2*
G1X1801918Y1561170D1*
G1X1801918Y1567733D2*
G1X1805100Y1561170D1*
G1X1805100Y1567733D2*
G1X1805100Y1561170D1*
G1X1807145Y1567733D2*
G1X1807145Y1561170D1*
G1X1807145Y1567733D2*
G1X1810100Y1567733D1*
G1X1807145Y1564608D2*
G1X1808964Y1564608D1*
G1X1807145Y1561170D2*
G1X1810100Y1561170D1*
G1X1813964Y1567733D2*
G1X1812145Y1561170D1*
G1X1813964Y1567733D2*
G1X1815782Y1561170D1*
G1X1812827Y1563358D2*
G1X1815100Y1563358D1*
G1X1817827Y1567733D2*
G1X1817827Y1561170D1*
G1X1817827Y1567733D2*
G1X1819873Y1567733D1*
G1X1820555Y1567420D1*
G1X1820782Y1567108D1*
G1X1821009Y1566483D1*
G1X1821009Y1565858D1*
G1X1820782Y1565233D1*
G1X1820555Y1564920D1*
G1X1819873Y1564608D1*
G1X1817827Y1564608D1*
G1X1819418Y1564608D2*
G1X1821009Y1561170D1*
G1X1829873Y1567733D2*
G1X1829873Y1561170D1*
G1X1828282Y1567733D2*
G1X1831464Y1567733D1*
G1X1833509Y1567733D2*
G1X1833509Y1561170D1*
G1X1833509Y1567733D2*
G1X1836464Y1567733D1*
G1X1833509Y1564608D2*
G1X1835327Y1564608D1*
G1X1833509Y1561170D2*
G1X1836464Y1561170D1*
G1X1841918Y1566170D2*
G1X1841691Y1566795D1*
G1X1841236Y1567420D1*
G1X1840782Y1567733D1*
G1X1839873Y1567733D1*
G1X1839418Y1567420D1*
G1X1838964Y1566795D1*
G1X1838736Y1566170D1*
G1X1838509Y1565233D1*
G1X1838509Y1563670D1*
G1X1838736Y1562733D1*
G1X1838964Y1562108D1*
G1X1839418Y1561483D1*
G1X1839873Y1561170D1*
G1X1840782Y1561170D1*
G1X1841236Y1561483D1*
G1X1841691Y1562108D1*
G1X1841918Y1562733D1*
G1X1843964Y1567733D2*
G1X1843964Y1561170D1*
G1X1847145Y1567733D2*
G1X1847145Y1561170D1*
G1X1843964Y1564608D2*
G1X1847145Y1564608D1*
G1X1849191Y1567733D2*
G1X1849191Y1561170D1*
G1X1849191Y1567733D2*
G1X1852373Y1561170D1*
G1X1852373Y1567733D2*
G1X1852373Y1561170D1*
G1X1855782Y1567733D2*
G1X1855327Y1567420D1*
G1X1854873Y1566795D1*
G1X1854645Y1566170D1*
G1X1854418Y1565233D1*
G1X1854418Y1563670D1*
G1X1854645Y1562733D1*
G1X1854873Y1562108D1*
G1X1855327Y1561483D1*
G1X1855782Y1561170D1*
G1X1856691Y1561170D1*
G1X1857145Y1561483D1*
G1X1857600Y1562108D1*
G1X1857827Y1562733D1*
G1X1858055Y1563670D1*
G1X1858055Y1565233D1*
G1X1857827Y1566170D1*
G1X1857600Y1566795D1*
G1X1857145Y1567420D1*
G1X1856691Y1567733D1*
G1X1855782Y1567733D1*
G1X1860100Y1567733D2*
G1X1860100Y1561170D1*
G1X1862827Y1561170D1*
G1X1866236Y1567733D2*
G1X1865782Y1567420D1*
G1X1865327Y1566795D1*
G1X1865100Y1566170D1*
G1X1864873Y1565233D1*
G1X1864873Y1563670D1*
G1X1865100Y1562733D1*
G1X1865327Y1562108D1*
G1X1865782Y1561483D1*
G1X1866236Y1561170D1*
G1X1867145Y1561170D1*
G1X1867600Y1561483D1*
G1X1868055Y1562108D1*
G1X1868282Y1562733D1*
G1X1868509Y1563670D1*
G1X1868509Y1565233D1*
G1X1868282Y1566170D1*
G1X1868055Y1566795D1*
G1X1867600Y1567420D1*
G1X1867145Y1567733D1*
G1X1866236Y1567733D1*
G1X1873964Y1566170D2*
G1X1873736Y1566795D1*
G1X1873282Y1567420D1*
G1X1872827Y1567733D1*
G1X1871918Y1567733D1*
G1X1871464Y1567420D1*
G1X1871009Y1566795D1*
G1X1870782Y1566170D1*
G1X1870555Y1565233D1*
G1X1870555Y1563670D1*
G1X1870782Y1562733D1*
G1X1871009Y1562108D1*
G1X1871464Y1561483D1*
G1X1871918Y1561170D1*
G1X1872827Y1561170D1*
G1X1873282Y1561483D1*
G1X1873736Y1562108D1*
G1X1873964Y1562733D1*
G1X1873964Y1563670D1*
G1X1872827Y1563670D2*
G1X1873964Y1563670D1*
G1X1876009Y1567733D2*
G1X1877827Y1564608D1*
G1X1877827Y1561170D1*
G1X1879645Y1567733D2*
G1X1877827Y1564608D1*
G1X1886918Y1567733D2*
G1X1886918Y1561170D1*
G1X1892145Y1566795D2*
G1X1891691Y1567420D1*
G1X1891009Y1567733D1*
G1X1890100Y1567733D1*
G1X1889418Y1567420D1*
G1X1888964Y1566795D1*
G1X1888964Y1566170D1*
G1X1889191Y1565545D1*
G1X1889418Y1565233D1*
G1X1889873Y1564920D1*
G1X1891236Y1564295D1*
G1X1891691Y1563983D1*
G1X1891918Y1563670D1*
G1X1892145Y1563045D1*
G1X1892145Y1562108D1*
G1X1891691Y1561483D1*
G1X1891009Y1561170D1*
G1X1890100Y1561170D1*
G1X1889418Y1561483D1*
G1X1888964Y1562108D1*
G1X1895555Y1567733D2*
G1X1895100Y1567420D1*
G1X1894645Y1566795D1*
G1X1894418Y1566170D1*
G1X1894191Y1565233D1*
G1X1894191Y1563670D1*
G1X1894418Y1562733D1*
G1X1894645Y1562108D1*
G1X1895100Y1561483D1*
G1X1895555Y1561170D1*
G1X1896464Y1561170D1*
G1X1896918Y1561483D1*
G1X1897373Y1562108D1*
G1X1897600Y1562733D1*
G1X1897827Y1563670D1*
G1X1897827Y1565233D1*
G1X1897600Y1566170D1*
G1X1897373Y1566795D1*
G1X1896918Y1567420D1*
G1X1896464Y1567733D1*
G1X1895555Y1567733D1*
G1X1899873Y1567733D2*
G1X1899873Y1561170D1*
G1X1902600Y1561170D1*
G1X1906464Y1567733D2*
G1X1904645Y1561170D1*
G1X1906464Y1567733D2*
G1X1908282Y1561170D1*
G1X1905327Y1563358D2*
G1X1907600Y1563358D1*
G1X1911918Y1567733D2*
G1X1911918Y1561170D1*
G1X1910327Y1567733D2*
G1X1913509Y1567733D1*
G1X1915555Y1567733D2*
G1X1915555Y1561170D1*
G1X1915555Y1567733D2*
G1X1918509Y1567733D1*
G1X1915555Y1564608D2*
G1X1917373Y1564608D1*
G1X1915555Y1561170D2*
G1X1918509Y1561170D1*
G1X1920555Y1567733D2*
G1X1920555Y1561170D1*
G1X1920555Y1567733D2*
G1X1922145Y1567733D1*
G1X1922827Y1567420D1*
G1X1923282Y1566795D1*
G1X1923509Y1566170D1*
G1X1923736Y1565233D1*
G1X1923736Y1563670D1*
G1X1923509Y1562733D1*
G1X1923282Y1562108D1*
G1X1922827Y1561483D1*
G1X1922145Y1561170D1*
G1X1920555Y1561170D1*
G1X1795100Y1587733D2*
G1X1795100Y1581170D1*
G1X1795100Y1587733D2*
G1X1796691Y1587733D1*
G1X1797373Y1587420D1*
G1X1797827Y1586795D1*
G1X1798055Y1586170D1*
G1X1798282Y1585233D1*
G1X1798282Y1583670D1*
G1X1798055Y1582733D1*
G1X1797827Y1582108D1*
G1X1797373Y1581483D1*
G1X1796691Y1581170D1*
G1X1795100Y1581170D1*
G1X1803736Y1586170D2*
G1X1803509Y1586795D1*
G1X1803055Y1587420D1*
G1X1802600Y1587733D1*
G1X1801691Y1587733D1*
G1X1801236Y1587420D1*
G1X1800782Y1586795D1*
G1X1800555Y1586170D1*
G1X1800327Y1585233D1*
G1X1800327Y1583670D1*
G1X1800555Y1582733D1*
G1X1800782Y1582108D1*
G1X1801236Y1581483D1*
G1X1801691Y1581170D1*
G1X1802600Y1581170D1*
G1X1803055Y1581483D1*
G1X1803509Y1582108D1*
G1X1803736Y1582733D1*
G1X1806009Y1586170D2*
G1X1806009Y1586483D1*
G1X1806236Y1587108D1*
G1X1806464Y1587420D1*
G1X1806918Y1587733D1*
G1X1807827Y1587733D1*
G1X1808282Y1587420D1*
G1X1808509Y1587108D1*
G1X1808736Y1586483D1*
G1X1808736Y1585858D1*
G1X1808509Y1585233D1*
G1X1808055Y1584295D1*
G1X1805782Y1581170D1*
G1X1808964Y1581170D1*
G1X1812373Y1587733D2*
G1X1811691Y1587420D1*
G1X1811236Y1586483D1*
G1X1811009Y1584920D1*
G1X1811009Y1583983D1*
G1X1811236Y1582420D1*
G1X1811691Y1581483D1*
G1X1812373Y1581170D1*
G1X1812827Y1581170D1*
G1X1813509Y1581483D1*
G1X1813964Y1582420D1*
G1X1814191Y1583983D1*
G1X1814191Y1584920D1*
G1X1813964Y1586483D1*
G1X1813509Y1587420D1*
G1X1812827Y1587733D1*
G1X1812373Y1587733D1*
G1X1816464Y1586170D2*
G1X1816464Y1586483D1*
G1X1816691Y1587108D1*
G1X1816918Y1587420D1*
G1X1817373Y1587733D1*
G1X1818282Y1587733D1*
G1X1818736Y1587420D1*
G1X1818964Y1587108D1*
G1X1819191Y1586483D1*
G1X1819191Y1585858D1*
G1X1818964Y1585233D1*
G1X1818509Y1584295D1*
G1X1816236Y1581170D1*
G1X1819418Y1581170D1*
G1X1824191Y1586795D2*
G1X1823964Y1587420D1*
G1X1823282Y1587733D1*
G1X1822827Y1587733D1*
G1X1822145Y1587420D1*
G1X1821691Y1586483D1*
G1X1821464Y1584920D1*
G1X1821464Y1583358D1*
G1X1821691Y1582108D1*
G1X1822145Y1581483D1*
G1X1822827Y1581170D1*
G1X1823055Y1581170D1*
G1X1823736Y1581483D1*
G1X1824191Y1582108D1*
G1X1824418Y1583045D1*
G1X1824418Y1583358D1*
G1X1824191Y1584295D1*
G1X1823736Y1584920D1*
G1X1823055Y1585233D1*
G1X1822827Y1585233D1*
G1X1822145Y1584920D1*
G1X1821691Y1584295D1*
G1X1821464Y1583358D1*
G1X1829873Y1586170D2*
G1X1829645Y1586795D1*
G1X1829191Y1587420D1*
G1X1828736Y1587733D1*
G1X1827827Y1587733D1*
G1X1827373Y1587420D1*
G1X1826918Y1586795D1*
G1X1826691Y1586170D1*
G1X1826464Y1585233D1*
G1X1826464Y1583670D1*
G1X1826691Y1582733D1*
G1X1826918Y1582108D1*
G1X1827373Y1581483D1*
G1X1827827Y1581170D1*
G1X1828736Y1581170D1*
G1X1829191Y1581483D1*
G1X1829645Y1582108D1*
G1X1829873Y1582733D1*
G1X1831918Y1583983D2*
G1X1836009Y1583983D1*
G1X1838055Y1586483D2*
G1X1838509Y1586795D1*
G1X1839191Y1587733D1*
G1X1839191Y1581170D1*
G1X1847600Y1585858D2*
G1X1847600Y1582108D1*
G1X1846464Y1584920D2*
G1X1848736Y1583045D1*
G1X1848736Y1584920D2*
G1X1846464Y1583045D1*
G1X1856009Y1587733D2*
G1X1856009Y1581170D1*
G1X1858736Y1581170D1*
G1X1862373Y1587733D2*
G1X1862373Y1581170D1*
G1X1860782Y1587733D2*
G1X1863964Y1587733D1*
G1X1866009Y1587733D2*
G1X1866009Y1581170D1*
G1X1866009Y1587733D2*
G1X1867827Y1581170D1*
G1X1869645Y1587733D2*
G1X1867827Y1581170D1*
G1X1869645Y1587733D2*
G1X1869645Y1581170D1*
G1X1871918Y1586170D2*
G1X1871918Y1586483D1*
G1X1872145Y1587108D1*
G1X1872373Y1587420D1*
G1X1872827Y1587733D1*
G1X1873736Y1587733D1*
G1X1874191Y1587420D1*
G1X1874418Y1587108D1*
G1X1874645Y1586483D1*
G1X1874645Y1585858D1*
G1X1874418Y1585233D1*
G1X1873964Y1584295D1*
G1X1871691Y1581170D1*
G1X1874873Y1581170D1*
G1X1878055Y1587733D2*
G1X1877373Y1587420D1*
G1X1877145Y1586795D1*
G1X1877145Y1586170D1*
G1X1877373Y1585545D1*
G1X1877827Y1585233D1*
G1X1878736Y1584920D1*
G1X1879418Y1584608D1*
G1X1879873Y1583983D1*
G1X1880100Y1583358D1*
G1X1880100Y1582420D1*
G1X1879873Y1581795D1*
G1X1879645Y1581483D1*
G1X1878964Y1581170D1*
G1X1878055Y1581170D1*
G1X1877373Y1581483D1*
G1X1877145Y1581795D1*
G1X1876918Y1582420D1*
G1X1876918Y1583358D1*
G1X1877145Y1583983D1*
G1X1877600Y1584608D1*
G1X1878282Y1584920D1*
G1X1879191Y1585233D1*
G1X1879645Y1585545D1*
G1X1879873Y1586170D1*
G1X1879873Y1586795D1*
G1X1879645Y1587420D1*
G1X1878964Y1587733D1*
G1X1878055Y1587733D1*
G1X1883282Y1587733D2*
G1X1882600Y1587420D1*
G1X1882373Y1586795D1*
G1X1882373Y1586170D1*
G1X1882600Y1585545D1*
G1X1883055Y1585233D1*
G1X1883964Y1584920D1*
G1X1884645Y1584608D1*
G1X1885100Y1583983D1*
G1X1885327Y1583358D1*
G1X1885327Y1582420D1*
G1X1885100Y1581795D1*
G1X1884873Y1581483D1*
G1X1884191Y1581170D1*
G1X1883282Y1581170D1*
G1X1882600Y1581483D1*
G1X1882373Y1581795D1*
G1X1882145Y1582420D1*
G1X1882145Y1583358D1*
G1X1882373Y1583983D1*
G1X1882827Y1584608D1*
G1X1883509Y1584920D1*
G1X1884418Y1585233D1*
G1X1884873Y1585545D1*
G1X1885100Y1586170D1*
G1X1885100Y1586795D1*
G1X1884873Y1587420D1*
G1X1884191Y1587733D1*
G1X1883282Y1587733D1*
G1X1889645Y1587733D2*
G1X1887373Y1583358D1*
G1X1890782Y1583358D1*
G1X1889645Y1587733D2*
G1X1889645Y1581170D1*
G1X1896236Y1586170D2*
G1X1896009Y1586795D1*
G1X1895555Y1587420D1*
G1X1895100Y1587733D1*
G1X1894191Y1587733D1*
G1X1893736Y1587420D1*
G1X1893282Y1586795D1*
G1X1893055Y1586170D1*
G1X1892827Y1585233D1*
G1X1892827Y1583670D1*
G1X1893055Y1582733D1*
G1X1893282Y1582108D1*
G1X1893736Y1581483D1*
G1X1894191Y1581170D1*
G1X1895100Y1581170D1*
G1X1895555Y1581483D1*
G1X1896009Y1582108D1*
G1X1896236Y1582733D1*
G1X1898282Y1587733D2*
G1X1900100Y1584608D1*
G1X1900100Y1581170D1*
G1X1901918Y1587733D2*
G1X1900100Y1584608D1*
G1X1684600Y1752363D2*
G1X1684600Y1747675D1*
G1X1684373Y1746738D1*
G1X1683918Y1746113D1*
G1X1683236Y1745800D1*
G1X1682782Y1745800D1*
G1X1682100Y1746113D1*
G1X1681645Y1746738D1*
G1X1681418Y1747675D1*
G1X1681418Y1752363D1*
G1X1676191Y1751425D2*
G1X1676645Y1752050D1*
G1X1677327Y1752363D1*
G1X1678236Y1752363D1*
G1X1678918Y1752050D1*
G1X1679373Y1751425D1*
G1X1679373Y1750800D1*
G1X1679145Y1750175D1*
G1X1678918Y1749863D1*
G1X1678464Y1749550D1*
G1X1677100Y1748925D1*
G1X1676645Y1748613D1*
G1X1676418Y1748300D1*
G1X1676191Y1747675D1*
G1X1676191Y1746738D1*
G1X1676645Y1746113D1*
G1X1677327Y1745800D1*
G1X1678236Y1745800D1*
G1X1678918Y1746113D1*
G1X1679373Y1746738D1*
G1X1674145Y1752363D2*
G1X1674145Y1745800D1*
G1X1674145Y1752363D2*
G1X1672100Y1752363D1*
G1X1671418Y1752050D1*
G1X1671191Y1751738D1*
G1X1670964Y1751113D1*
G1X1670964Y1750488D1*
G1X1671191Y1749863D1*
G1X1671418Y1749550D1*
G1X1672100Y1749238D1*
G1X1674145Y1749238D2*
G1X1672100Y1749238D1*
G1X1671418Y1748925D1*
G1X1671191Y1748613D1*
G1X1670964Y1747988D1*
G1X1670964Y1747050D1*
G1X1671191Y1746425D1*
G1X1671418Y1746113D1*
G1X1672100Y1745800D1*
G1X1674145Y1745800D1*
G1X1706100Y1762363D2*
G1X1706100Y1755800D1*
G1X1700873Y1761425D2*
G1X1701327Y1762050D1*
G1X1702009Y1762363D1*
G1X1702918Y1762363D1*
G1X1703600Y1762050D1*
G1X1704055Y1761425D1*
G1X1704055Y1760800D1*
G1X1703827Y1760175D1*
G1X1703600Y1759863D1*
G1X1703145Y1759550D1*
G1X1701782Y1758925D1*
G1X1701327Y1758613D1*
G1X1701100Y1758300D1*
G1X1700873Y1757675D1*
G1X1700873Y1756738D1*
G1X1701327Y1756113D1*
G1X1702009Y1755800D1*
G1X1702918Y1755800D1*
G1X1703600Y1756113D1*
G1X1704055Y1756738D1*
G1X1697464Y1762363D2*
G1X1697918Y1762050D1*
G1X1698373Y1761425D1*
G1X1698600Y1760800D1*
G1X1698827Y1759863D1*
G1X1698827Y1758300D1*
G1X1698600Y1757363D1*
G1X1698373Y1756738D1*
G1X1697918Y1756113D1*
G1X1697464Y1755800D1*
G1X1696555Y1755800D1*
G1X1696100Y1756113D1*
G1X1695645Y1756738D1*
G1X1695418Y1757363D1*
G1X1695191Y1758300D1*
G1X1695191Y1759863D1*
G1X1695418Y1760800D1*
G1X1695645Y1761425D1*
G1X1696100Y1762050D1*
G1X1696555Y1762363D1*
G1X1697464Y1762363D1*
G1X1693145Y1762363D2*
G1X1693145Y1755800D1*
G1X1690418Y1755800D1*
G1X1686555Y1762363D2*
G1X1688373Y1755800D1*
G1X1686555Y1762363D2*
G1X1684736Y1755800D1*
G1X1687691Y1757988D2*
G1X1685418Y1757988D1*
G1X1681100Y1762363D2*
G1X1681100Y1755800D1*
G1X1682691Y1762363D2*
G1X1679509Y1762363D1*
G1X1677464Y1762363D2*
G1X1677464Y1755800D1*
G1X1677464Y1762363D2*
G1X1674509Y1762363D1*
G1X1677464Y1759238D2*
G1X1675645Y1759238D1*
G1X1677464Y1755800D2*
G1X1674509Y1755800D1*
G1X1672464Y1762363D2*
G1X1672464Y1755800D1*
G1X1672464Y1762363D2*
G1X1670873Y1762363D1*
G1X1670191Y1762050D1*
G1X1669736Y1761425D1*
G1X1669509Y1760800D1*
G1X1669282Y1759863D1*
G1X1669282Y1758300D1*
G1X1669509Y1757363D1*
G1X1669736Y1756738D1*
G1X1670191Y1756113D1*
G1X1670873Y1755800D1*
G1X1672464Y1755800D1*
G1X1795100Y1577733D2*
G1X1795100Y1571170D1*
G1X1797827Y1571170D1*
G1X1799873Y1577733D2*
G1X1799873Y1571170D1*
G1X1801918Y1577733D2*
G1X1801918Y1571170D1*
G1X1801918Y1577733D2*
G1X1805100Y1571170D1*
G1X1805100Y1577733D2*
G1X1805100Y1571170D1*
G1X1807145Y1577733D2*
G1X1807145Y1571170D1*
G1X1807145Y1577733D2*
G1X1808736Y1577733D1*
G1X1809418Y1577420D1*
G1X1809873Y1576795D1*
G1X1810100Y1576170D1*
G1X1810327Y1575233D1*
G1X1810327Y1573670D1*
G1X1810100Y1572733D1*
G1X1809873Y1572108D1*
G1X1809418Y1571483D1*
G1X1808736Y1571170D1*
G1X1807145Y1571170D1*
G1X1812373Y1577733D2*
G1X1812373Y1573045D1*
G1X1812600Y1572108D1*
G1X1813055Y1571483D1*
G1X1813736Y1571170D1*
G1X1814191Y1571170D1*
G1X1814873Y1571483D1*
G1X1815327Y1572108D1*
G1X1815555Y1573045D1*
G1X1815555Y1577733D1*
G1X1817600Y1577733D2*
G1X1817600Y1571170D1*
G1X1819645Y1577733D2*
G1X1819645Y1571170D1*
G1X1819645Y1577733D2*
G1X1822827Y1571170D1*
G1X1822827Y1577733D2*
G1X1822827Y1571170D1*
G1X1826236Y1577733D2*
G1X1825782Y1577420D1*
G1X1825327Y1576795D1*
G1X1825100Y1576170D1*
G1X1824873Y1575233D1*
G1X1824873Y1573670D1*
G1X1825100Y1572733D1*
G1X1825327Y1572108D1*
G1X1825782Y1571483D1*
G1X1826236Y1571170D1*
G1X1827145Y1571170D1*
G1X1827600Y1571483D1*
G1X1828055Y1572108D1*
G1X1828282Y1572733D1*
G1X1828509Y1573670D1*
G1X1828509Y1575233D1*
G1X1828282Y1576170D1*
G1X1828055Y1576795D1*
G1X1827600Y1577420D1*
G1X1827145Y1577733D1*
G1X1826236Y1577733D1*
G1X1837145Y1577733D2*
G1X1836691Y1577420D1*
G1X1836236Y1576795D1*
G1X1836009Y1576170D1*
G1X1835782Y1575233D1*
G1X1835782Y1573670D1*
G1X1836009Y1572733D1*
G1X1836236Y1572108D1*
G1X1836691Y1571483D1*
G1X1837145Y1571170D1*
G1X1838055Y1571170D1*
G1X1838509Y1571483D1*
G1X1838964Y1572108D1*
G1X1839191Y1572733D1*
G1X1839418Y1573670D1*
G1X1839418Y1575233D1*
G1X1839191Y1576170D1*
G1X1838964Y1576795D1*
G1X1838509Y1577420D1*
G1X1838055Y1577733D1*
G1X1837145Y1577733D1*
G1X1841464Y1577733D2*
G1X1841464Y1571170D1*
G1X1841464Y1577733D2*
G1X1844645Y1571170D1*
G1X1844645Y1577733D2*
G1X1844645Y1571170D1*
G1X1846691Y1577733D2*
G1X1846691Y1571170D1*
G1X1846691Y1577733D2*
G1X1849645Y1577733D1*
G1X1846691Y1574608D2*
G1X1848509Y1574608D1*
G1X1846691Y1571170D2*
G1X1849645Y1571170D1*
G1X1851918Y1575545D2*
G1X1851691Y1575233D1*
G1X1851918Y1574920D1*
G1X1852145Y1575233D1*
G1X1851918Y1575545D1*
G1X1851918Y1571795D2*
G1X1851691Y1571483D1*
G1X1851918Y1571170D1*
G1X1852145Y1571483D1*
G1X1851918Y1571795D1*
G1X1796918Y1557733D2*
G1X1795100Y1551170D1*
G1X1796918Y1557733D2*
G1X1798736Y1551170D1*
G1X1795782Y1553358D2*
G1X1798055Y1553358D1*
G1X1800782Y1557733D2*
G1X1800782Y1551170D1*
G1X1800782Y1557733D2*
G1X1802827Y1557733D1*
G1X1803509Y1557420D1*
G1X1803736Y1557108D1*
G1X1803964Y1556483D1*
G1X1803964Y1555858D1*
G1X1803736Y1555233D1*
G1X1803509Y1554920D1*
G1X1802827Y1554608D1*
G1X1800782Y1554608D1*
G1X1802373Y1554608D2*
G1X1803964Y1551170D1*
G1X1806009Y1557733D2*
G1X1806009Y1551170D1*
G1X1806009Y1557733D2*
G1X1807600Y1557733D1*
G1X1808282Y1557420D1*
G1X1808736Y1556795D1*
G1X1808964Y1556170D1*
G1X1809191Y1555233D1*
G1X1809191Y1553670D1*
G1X1808964Y1552733D1*
G1X1808736Y1552108D1*
G1X1808282Y1551483D1*
G1X1807600Y1551170D1*
G1X1806009Y1551170D1*
G1X1811236Y1557733D2*
G1X1811236Y1553045D1*
G1X1811464Y1552108D1*
G1X1811918Y1551483D1*
G1X1812600Y1551170D1*
G1X1813055Y1551170D1*
G1X1813736Y1551483D1*
G1X1814191Y1552108D1*
G1X1814418Y1553045D1*
G1X1814418Y1557733D1*
G1X1816464Y1557733D2*
G1X1816464Y1551170D1*
G1X1818509Y1557733D2*
G1X1818509Y1551170D1*
G1X1818509Y1557733D2*
G1X1821691Y1551170D1*
G1X1821691Y1557733D2*
G1X1821691Y1551170D1*
G1X1825100Y1557733D2*
G1X1824645Y1557420D1*
G1X1824191Y1556795D1*
G1X1823964Y1556170D1*
G1X1823736Y1555233D1*
G1X1823736Y1553670D1*
G1X1823964Y1552733D1*
G1X1824191Y1552108D1*
G1X1824645Y1551483D1*
G1X1825100Y1551170D1*
G1X1826009Y1551170D1*
G1X1826464Y1551483D1*
G1X1826918Y1552108D1*
G1X1827145Y1552733D1*
G1X1827373Y1553670D1*
G1X1827373Y1555233D1*
G1X1827145Y1556170D1*
G1X1826918Y1556795D1*
G1X1826464Y1557420D1*
G1X1826009Y1557733D1*
G1X1825100Y1557733D1*
G1X1829418Y1553983D2*
G1X1833509Y1553983D1*
G1X1838964Y1556170D2*
G1X1838736Y1556795D1*
G1X1838282Y1557420D1*
G1X1837827Y1557733D1*
G1X1836918Y1557733D1*
G1X1836464Y1557420D1*
G1X1836009Y1556795D1*
G1X1835782Y1556170D1*
G1X1835555Y1555233D1*
G1X1835555Y1553670D1*
G1X1835782Y1552733D1*
G1X1836009Y1552108D1*
G1X1836464Y1551483D1*
G1X1836918Y1551170D1*
G1X1837827Y1551170D1*
G1X1838282Y1551483D1*
G1X1838736Y1552108D1*
G1X1838964Y1552733D1*
G1X1842373Y1557733D2*
G1X1841918Y1557420D1*
G1X1841464Y1556795D1*
G1X1841236Y1556170D1*
G1X1841009Y1555233D1*
G1X1841009Y1553670D1*
G1X1841236Y1552733D1*
G1X1841464Y1552108D1*
G1X1841918Y1551483D1*
G1X1842373Y1551170D1*
G1X1843282Y1551170D1*
G1X1843736Y1551483D1*
G1X1844191Y1552108D1*
G1X1844418Y1552733D1*
G1X1844645Y1553670D1*
G1X1844645Y1555233D1*
G1X1844418Y1556170D1*
G1X1844191Y1556795D1*
G1X1843736Y1557420D1*
G1X1843282Y1557733D1*
G1X1842373Y1557733D1*
G1X1846691Y1557733D2*
G1X1846691Y1551170D1*
G1X1846691Y1557733D2*
G1X1848509Y1551170D1*
G1X1850327Y1557733D2*
G1X1848509Y1551170D1*
G1X1850327Y1557733D2*
G1X1850327Y1551170D1*
G1X1852373Y1557733D2*
G1X1852373Y1551170D1*
G1X1852373Y1557733D2*
G1X1854418Y1557733D1*
G1X1855100Y1557420D1*
G1X1855327Y1557108D1*
G1X1855555Y1556483D1*
G1X1855555Y1555545D1*
G1X1855327Y1554920D1*
G1X1855100Y1554608D1*
G1X1854418Y1554295D1*
G1X1852373Y1554295D1*
G1X1859418Y1557733D2*
G1X1857600Y1551170D1*
G1X1859418Y1557733D2*
G1X1861236Y1551170D1*
G1X1858282Y1553358D2*
G1X1860555Y1553358D1*
G1X1864873Y1557733D2*
G1X1864873Y1551170D1*
G1X1863282Y1557733D2*
G1X1866464Y1557733D1*
G1X1868509Y1557733D2*
G1X1868509Y1551170D1*
G1X1870555Y1557733D2*
G1X1870555Y1551170D1*
G1X1870555Y1557733D2*
G1X1872600Y1557733D1*
G1X1873282Y1557420D1*
G1X1873509Y1557108D1*
G1X1873736Y1556483D1*
G1X1873736Y1555858D1*
G1X1873509Y1555233D1*
G1X1873282Y1554920D1*
G1X1872600Y1554608D1*
G1X1870555Y1554608D2*
G1X1872600Y1554608D1*
G1X1873282Y1554295D1*
G1X1873509Y1553983D1*
G1X1873736Y1553358D1*
G1X1873736Y1552420D1*
G1X1873509Y1551795D1*
G1X1873282Y1551483D1*
G1X1872600Y1551170D1*
G1X1870555Y1551170D1*
G1X1875782Y1557733D2*
G1X1875782Y1551170D1*
G1X1878509Y1551170D1*
G1X1880555Y1557733D2*
G1X1880555Y1551170D1*
G1X1880555Y1557733D2*
G1X1883509Y1557733D1*
G1X1880555Y1554608D2*
G1X1882373Y1554608D1*
G1X1880555Y1551170D2*
G1X1883509Y1551170D1*
G1X1890782Y1557733D2*
G1X1890782Y1551170D1*
G1X1890782Y1557733D2*
G1X1892373Y1557733D1*
G1X1893055Y1557420D1*
G1X1893509Y1556795D1*
G1X1893736Y1556170D1*
G1X1893964Y1555233D1*
G1X1893964Y1553670D1*
G1X1893736Y1552733D1*
G1X1893509Y1552108D1*
G1X1893055Y1551483D1*
G1X1892373Y1551170D1*
G1X1890782Y1551170D1*
G1X1896009Y1557733D2*
G1X1896009Y1551170D1*
G1X1896009Y1557733D2*
G1X1898964Y1557733D1*
G1X1896009Y1554608D2*
G1X1897827Y1554608D1*
G1X1896009Y1551170D2*
G1X1898964Y1551170D1*
G1X1901009Y1557733D2*
G1X1901009Y1551170D1*
G1X1901009Y1557733D2*
G1X1902827Y1551170D1*
G1X1904645Y1557733D2*
G1X1902827Y1551170D1*
G1X1904645Y1557733D2*
G1X1904645Y1551170D1*
G1X1908055Y1557733D2*
G1X1907600Y1557420D1*
G1X1907145Y1556795D1*
G1X1906918Y1556170D1*
G1X1906691Y1555233D1*
G1X1906691Y1553670D1*
G1X1906918Y1552733D1*
G1X1907145Y1552108D1*
G1X1907600Y1551483D1*
G1X1908055Y1551170D1*
G1X1908964Y1551170D1*
G1X1909418Y1551483D1*
G1X1909873Y1552108D1*
G1X1910100Y1552733D1*
G1X1910327Y1553670D1*
G1X1910327Y1555233D1*
G1X1910100Y1556170D1*
G1X1909873Y1556795D1*
G1X1909418Y1557420D1*
G1X1908964Y1557733D1*
G1X1908055Y1557733D1*
G1X1912373Y1557733D2*
G1X1912373Y1551170D1*
G1X1912373Y1557733D2*
G1X1915555Y1551170D1*
G1X1915555Y1557733D2*
G1X1915555Y1551170D1*
G1X1920782Y1556795D2*
G1X1920327Y1557420D1*
G1X1919645Y1557733D1*
G1X1918736Y1557733D1*
G1X1918055Y1557420D1*
G1X1917600Y1556795D1*
G1X1917600Y1556170D1*
G1X1917827Y1555545D1*
G1X1918055Y1555233D1*
G1X1918509Y1554920D1*
G1X1919873Y1554295D1*
G1X1920327Y1553983D1*
G1X1920555Y1553670D1*
G1X1920782Y1553045D1*
G1X1920782Y1552108D1*
G1X1920327Y1551483D1*
G1X1919645Y1551170D1*
G1X1918736Y1551170D1*
G1X1918055Y1551483D1*
G1X1917600Y1552108D1*
G1X1924418Y1557733D2*
G1X1924418Y1551170D1*
G1X1922827Y1557733D2*
G1X1926009Y1557733D1*
G1X1928055Y1557733D2*
G1X1928055Y1551170D1*
G1X1928055Y1557733D2*
G1X1930100Y1557733D1*
G1X1930782Y1557420D1*
G1X1931009Y1557108D1*
G1X1931236Y1556483D1*
G1X1931236Y1555858D1*
G1X1931009Y1555233D1*
G1X1930782Y1554920D1*
G1X1930100Y1554608D1*
G1X1928055Y1554608D1*
G1X1929645Y1554608D2*
G1X1931236Y1551170D1*
G1X1935100Y1557733D2*
G1X1933282Y1551170D1*
G1X1935100Y1557733D2*
G1X1936918Y1551170D1*
G1X1933964Y1553358D2*
G1X1936236Y1553358D1*
G1X1940555Y1557733D2*
G1X1940555Y1551170D1*
G1X1938964Y1557733D2*
G1X1942145Y1557733D1*
G1X1944191Y1557733D2*
G1X1944191Y1551170D1*
G1X1947600Y1557733D2*
G1X1947145Y1557420D1*
G1X1946691Y1556795D1*
G1X1946464Y1556170D1*
G1X1946236Y1555233D1*
G1X1946236Y1553670D1*
G1X1946464Y1552733D1*
G1X1946691Y1552108D1*
G1X1947145Y1551483D1*
G1X1947600Y1551170D1*
G1X1948509Y1551170D1*
G1X1948964Y1551483D1*
G1X1949418Y1552108D1*
G1X1949645Y1552733D1*
G1X1949873Y1553670D1*
G1X1949873Y1555233D1*
G1X1949645Y1556170D1*
G1X1949418Y1556795D1*
G1X1948964Y1557420D1*
G1X1948509Y1557733D1*
G1X1947600Y1557733D1*
G1X1951918Y1557733D2*
G1X1951918Y1551170D1*
G1X1951918Y1557733D2*
G1X1955100Y1551170D1*
G1X1955100Y1557733D2*
G1X1955100Y1551170D1*
G1X1962373Y1557733D2*
G1X1962373Y1551170D1*
G1X1962373Y1557733D2*
G1X1964418Y1557733D1*
G1X1965100Y1557420D1*
G1X1965327Y1557108D1*
G1X1965555Y1556483D1*
G1X1965555Y1555858D1*
G1X1965327Y1555233D1*
G1X1965100Y1554920D1*
G1X1964418Y1554608D1*
G1X1962373Y1554608D2*
G1X1964418Y1554608D1*
G1X1965100Y1554295D1*
G1X1965327Y1553983D1*
G1X1965555Y1553358D1*
G1X1965555Y1552420D1*
G1X1965327Y1551795D1*
G1X1965100Y1551483D1*
G1X1964418Y1551170D1*
G1X1962373Y1551170D1*
G1X1968964Y1557733D2*
G1X1968509Y1557420D1*
G1X1968055Y1556795D1*
G1X1967827Y1556170D1*
G1X1967600Y1555233D1*
G1X1967600Y1553670D1*
G1X1967827Y1552733D1*
G1X1968055Y1552108D1*
G1X1968509Y1551483D1*
G1X1968964Y1551170D1*
G1X1969873Y1551170D1*
G1X1970327Y1551483D1*
G1X1970782Y1552108D1*
G1X1971009Y1552733D1*
G1X1971236Y1553670D1*
G1X1971236Y1555233D1*
G1X1971009Y1556170D1*
G1X1970782Y1556795D1*
G1X1970327Y1557420D1*
G1X1969873Y1557733D1*
G1X1968964Y1557733D1*
G1X1975100Y1557733D2*
G1X1973282Y1551170D1*
G1X1975100Y1557733D2*
G1X1976918Y1551170D1*
G1X1973964Y1553358D2*
G1X1976236Y1553358D1*
G1X1978964Y1557733D2*
G1X1978964Y1551170D1*
G1X1978964Y1557733D2*
G1X1981009Y1557733D1*
G1X1981691Y1557420D1*
G1X1981918Y1557108D1*
G1X1982145Y1556483D1*
G1X1982145Y1555858D1*
G1X1981918Y1555233D1*
G1X1981691Y1554920D1*
G1X1981009Y1554608D1*
G1X1978964Y1554608D1*
G1X1980555Y1554608D2*
G1X1982145Y1551170D1*
G1X1984191Y1557733D2*
G1X1984191Y1551170D1*
G1X1984191Y1557733D2*
G1X1985782Y1557733D1*
G1X1986464Y1557420D1*
G1X1986918Y1556795D1*
G1X1987145Y1556170D1*
G1X1987373Y1555233D1*
G1X1987373Y1553670D1*
G1X1987145Y1552733D1*
G1X1986918Y1552108D1*
G1X1986464Y1551483D1*
G1X1985782Y1551170D1*
G1X1984191Y1551170D1*
G1X1666100Y1601800D2*
G75*
G3X1668100Y1599800I2000J0D1*
G74*
G1X1666100Y1601800D2*
G1X1666100Y1807800D1*
G1X1668100Y1809800D2*
G75*
G3X1666100Y1807800I0J-2000D1*
G74*
G1X1668100Y1809800D2*
G1X1920100Y1809800D1*
G1X1926100Y1803800D1*
G1X1926100Y1758800D1*
G1X1936100Y1748800D1*
G1X1936100Y1619800D1*
G1X1926100Y1609800D1*
G1X1926100Y1601800D1*
G1X1924100Y1599800D2*
G75*
G3X1926100Y1601800I0J2000D1*
G74*
G1X1924100Y1599800D2*
G1X1668100Y1599800D1*
G1X1701200Y1779800D2*
G1X1709100Y1779800D1*
G1X1713100Y1779800D2*
G1X1723100Y1779800D1*
G1X1725100Y1777800D2*
G1X1727100Y1775800D1*
G1X1727100Y1761800D2*
G1X1727100Y1771800D1*
G1X1727100Y1747800D2*
G1X1727100Y1757800D1*
G1X1727100Y1729800D2*
G1X1727100Y1743800D1*
G1X1679100Y1709800D2*
G1X1669100Y1709800D1*
G1X1693100Y1709800D2*
G1X1683100Y1709800D1*
G1X1707100Y1709800D2*
G1X1697100Y1709800D1*
G1X1721100Y1709800D2*
G1X1711100Y1709800D1*
G1X1725100Y1709800D2*
G1X1727100Y1711800D1*
G1X1727100Y1715800D2*
G1X1727100Y1725800D1*
G1X1669200Y1779900D2*
G1X1677600Y1779900D1*
G1X1714800Y1769400D2*
G54D12*
G1X1714800Y1764400D1*
G1X1826332Y1760272D2*
G1X1822629Y1760272D1*
G1X1822629Y1759276D1*
G1X1821571Y1759276D1*
G1X1821571Y1760272D1*
G1X1817868Y1760272D1*
G1X1817868Y1744328D1*
G1X1826332Y1744328D1*
G1X1826332Y1760272D1*
G1X1814270Y1710691D2*
G1X1810530Y1710691D1*
G1X1810530Y1722109D1*
G1X1814270Y1722109D1*
G1X1814270Y1710691D1*
G1X1706371Y1791740D2*
G75*
G3X1706371Y1791740I-16801J0D1*
G1X1713901Y1655700D2*
G3X1713901Y1655700I-16801J0D1*
G1X1935971Y1653380D2*
G3X1935971Y1653380I-16801J0D1*
G1X1925191Y1776280D2*
G3X1925191Y1776280I-16801J0D1*
G74*
G1X1760200Y1663230D2*
G1X1760200Y1657324D1*
G1X1764137Y1663230D2*
G1X1764137Y1655356D1*
G1X1744452Y1663230D2*
G1X1744452Y1655356D1*
G1X1724767Y1663230D2*
G1X1724767Y1655356D1*
G1X1756263Y1663230D2*
G1X1756263Y1657324D1*
G1X1752326Y1663230D2*
G1X1752326Y1657324D1*
G1X1748389Y1663230D2*
G1X1748389Y1657324D1*
G1X1740515Y1663230D2*
G1X1740515Y1657324D1*
G1X1736578Y1663230D2*
G1X1736578Y1657324D1*
G1X1732641Y1663230D2*
G1X1732641Y1657324D1*
G1X1728704Y1663230D2*
G1X1728704Y1657324D1*
G1X1764137Y1663230D2*
G1X1724767Y1663230D1*
G1X1741050Y1751965D2*
G54D161*
G1X1741050Y1747635D1*
G1X1732750Y1751965D2*
G1X1732750Y1747635D1*
G1X1741050Y1734965D2*
G1X1741050Y1730635D1*
G1X1732750Y1734965D2*
G1X1732750Y1730635D1*
G1X1831806Y1761400D2*
G75*
G3X1831806Y1761400I-806J0D1*
G74*
G1X1785600Y1742300D2*
G54D163*
G1X1785600Y1738300D1*
G1X1864100Y1760800D2*
G1X1864100Y1764800D1*
G1X1731100Y1625800D2*
G1X1735100Y1625800D1*
G1X1744100Y1625800D2*
G1X1740100Y1625800D1*
G1X1773100Y1687300D2*
G1X1773100Y1691300D1*
G1X1785600Y1743800D2*
G1X1785600Y1747800D1*
G1X1750100Y1625800D2*
G1X1754100Y1625800D1*
G1X1760100Y1625800D2*
G1X1764100Y1625800D1*
G1X1794100Y1789300D2*
G1X1794100Y1785300D1*
G1X1806800Y1785400D2*
G1X1806800Y1789400D1*
G1X1803100Y1755300D2*
G1X1803100Y1751300D1*
G1X1755600Y1768800D2*
G1X1759600Y1768800D1*
G1X1810600Y1766300D2*
G1X1806600Y1766300D1*
G1X1822100Y1774300D2*
G1X1822100Y1778300D1*
G1X1805100Y1704300D2*
G1X1809100Y1704300D1*
G1X1842100Y1757300D2*
G1X1842100Y1753300D1*
G1X1842100Y1751300D2*
G1X1842100Y1747300D1*
G1X1842100Y1741300D2*
G1X1842100Y1745300D1*
G1X1853100Y1732800D2*
G1X1857100Y1732800D1*
G1X1864100Y1753300D2*
G1X1864100Y1749300D1*
G1X1864100Y1758800D2*
G1X1864100Y1754800D1*
G1X1873100Y1737800D2*
G1X1877100Y1737800D1*
G1X1864100Y1728800D2*
G1X1864100Y1732800D1*
G1X1828100Y1724300D2*
G1X1828100Y1720300D1*
G1X1828100Y1725800D2*
G1X1828100Y1729800D1*
G1X1805350Y1734300D2*
G1X1805350Y1730300D1*
G1X1814350Y1728550D2*
G1X1814350Y1724550D1*
G1X1800850Y1724050D2*
G1X1800850Y1728050D1*
G1X1815600Y1704300D2*
G1X1819600Y1704300D1*
G1X1851300Y1718300D2*
G1X1855300Y1718300D1*
G1X1843400Y1718300D2*
G1X1847400Y1718300D1*
G1X1835500Y1718300D2*
G1X1839500Y1718300D1*
G1X1842100Y1759300D2*
G1X1842100Y1763300D1*
G1X1830100Y1693300D2*
G1X1830100Y1689300D1*
G1X1824694Y1699836D2*
G1X1820756Y1699836D1*
G1X1824694Y1699836D2*
G1X1824694Y1701064D1*
G1X1824506Y1701473D1*
G1X1824319Y1701609D1*
G1X1823944Y1701745D1*
G1X1823569Y1701745D1*
G1X1823194Y1701609D1*
G1X1823006Y1701473D1*
G1X1822819Y1701064D1*
G1X1822819Y1699836D1*
G1X1822819Y1700791D2*
G1X1820756Y1701745D1*
G1X1824694Y1704336D2*
G1X1822069Y1702973D1*
G1X1822069Y1705018D1*
G1X1824694Y1704336D2*
G1X1820756Y1704336D1*
G1X1824131Y1707882D2*
G1X1824506Y1707745D1*
G1X1824694Y1707336D1*
G1X1824694Y1707064D1*
G1X1824506Y1706655D1*
G1X1823944Y1706382D1*
G1X1823006Y1706245D1*
G1X1822069Y1706245D1*
G1X1821319Y1706382D1*
G1X1820944Y1706655D1*
G1X1820756Y1707064D1*
G1X1820756Y1707200D1*
G1X1820944Y1707609D1*
G1X1821319Y1707882D1*
G1X1821881Y1708018D1*
G1X1822069Y1708018D1*
G1X1822631Y1707882D1*
G1X1823006Y1707609D1*
G1X1823194Y1707200D1*
G1X1823194Y1707064D1*
G1X1823006Y1706655D1*
G1X1822631Y1706382D1*
G1X1822069Y1706245D1*
G1X1859490Y1618030D2*
G1X1789823Y1618030D1*
G1X1859490Y1618310D2*
G1X1789823Y1618310D1*
G1X1859490Y1618589D2*
G1X1789823Y1618589D1*
G1X1859490Y1618869D2*
G1X1789823Y1618869D1*
G1X1859490Y1619148D2*
G1X1789823Y1619148D1*
G1X1859490Y1619428D2*
G1X1789823Y1619428D1*
G1X1859490Y1619708D2*
G1X1789823Y1619708D1*
G1X1859490Y1619987D2*
G1X1789823Y1619987D1*
G1X1859490Y1620267D2*
G1X1789823Y1620267D1*
G1X1859490Y1620546D2*
G1X1789823Y1620546D1*
G1X1859490Y1620826D2*
G1X1789823Y1620826D1*
G1X1859490Y1621106D2*
G1X1789823Y1621106D1*
G1X1859490Y1621385D2*
G1X1789823Y1621385D1*
G1X1859490Y1621665D2*
G1X1789823Y1621665D1*
G1X1859490Y1621944D2*
G1X1789823Y1621944D1*
G1X1859490Y1622224D2*
G1X1789823Y1622224D1*
G1X1859490Y1622504D2*
G1X1789823Y1622504D1*
G1X1859490Y1622783D2*
G1X1789823Y1622783D1*
G1X1859490Y1623063D2*
G1X1789823Y1623063D1*
G1X1859490Y1623342D2*
G1X1789823Y1623342D1*
G1X1859490Y1623622D2*
G1X1789823Y1623622D1*
G1X1859490Y1623902D2*
G1X1789823Y1623902D1*
G1X1859490Y1624181D2*
G1X1789823Y1624181D1*
G1X1859490Y1624461D2*
G1X1789823Y1624461D1*
G1X1859490Y1624740D2*
G1X1789823Y1624740D1*
G1X1859490Y1625020D2*
G1X1853013Y1625020D1*
G1X1837122Y1625020D2*
G1X1835118Y1625020D1*
G1X1832648Y1625020D2*
G1X1828408Y1625020D1*
G1X1818948Y1625020D2*
G1X1810234Y1625020D1*
G1X1796580Y1625020D2*
G1X1789823Y1625020D1*
G1X1859490Y1625300D2*
G1X1853013Y1625300D1*
G1X1837122Y1625300D2*
G1X1835118Y1625300D1*
G1X1832648Y1625300D2*
G1X1828408Y1625300D1*
G1X1818948Y1625300D2*
G1X1810234Y1625300D1*
G1X1796580Y1625300D2*
G1X1789823Y1625300D1*
G1X1859490Y1625579D2*
G1X1853013Y1625579D1*
G1X1837122Y1625579D2*
G1X1835118Y1625579D1*
G1X1832648Y1625579D2*
G1X1828408Y1625579D1*
G1X1818948Y1625579D2*
G1X1810234Y1625579D1*
G1X1796580Y1625579D2*
G1X1789823Y1625579D1*
G1X1859490Y1625859D2*
G1X1853013Y1625859D1*
G1X1837122Y1625859D2*
G1X1835118Y1625859D1*
G1X1832648Y1625859D2*
G1X1828408Y1625859D1*
G1X1818948Y1625859D2*
G1X1810234Y1625859D1*
G1X1796580Y1625859D2*
G1X1789823Y1625859D1*
G1X1859490Y1626138D2*
G1X1853013Y1626138D1*
G1X1837122Y1626138D2*
G1X1835118Y1626138D1*
G1X1832648Y1626138D2*
G1X1828408Y1626138D1*
G1X1818948Y1626138D2*
G1X1810234Y1626138D1*
G1X1796580Y1626138D2*
G1X1789823Y1626138D1*
G1X1859490Y1626418D2*
G1X1853013Y1626418D1*
G1X1837122Y1626418D2*
G1X1835118Y1626418D1*
G1X1832648Y1626418D2*
G1X1828408Y1626418D1*
G1X1818948Y1626418D2*
G1X1810234Y1626418D1*
G1X1796580Y1626418D2*
G1X1789823Y1626418D1*
G1X1859490Y1626698D2*
G1X1853013Y1626698D1*
G1X1837122Y1626698D2*
G1X1835118Y1626698D1*
G1X1832648Y1626698D2*
G1X1828408Y1626698D1*
G1X1818948Y1626698D2*
G1X1810234Y1626698D1*
G1X1796580Y1626698D2*
G1X1789823Y1626698D1*
G1X1859490Y1626977D2*
G1X1853013Y1626977D1*
G1X1837122Y1626977D2*
G1X1835118Y1626977D1*
G1X1832648Y1626977D2*
G1X1828408Y1626977D1*
G1X1818948Y1626977D2*
G1X1810234Y1626977D1*
G1X1796580Y1626977D2*
G1X1789823Y1626977D1*
G1X1859490Y1627257D2*
G1X1853013Y1627257D1*
G1X1850543Y1627257D2*
G1X1839592Y1627257D1*
G1X1837122Y1627257D2*
G1X1835118Y1627257D1*
G1X1832648Y1627257D2*
G1X1828408Y1627257D1*
G1X1825938Y1627257D2*
G1X1821418Y1627257D1*
G1X1812238Y1627257D2*
G1X1810234Y1627257D1*
G1X1803290Y1627257D2*
G1X1799050Y1627257D1*
G1X1796580Y1627257D2*
G1X1789823Y1627257D1*
G1X1859490Y1627536D2*
G1X1853013Y1627536D1*
G1X1850543Y1627536D2*
G1X1839592Y1627536D1*
G1X1837122Y1627536D2*
G1X1835118Y1627536D1*
G1X1832648Y1627536D2*
G1X1828408Y1627536D1*
G1X1825938Y1627536D2*
G1X1821418Y1627536D1*
G1X1812238Y1627536D2*
G1X1810234Y1627536D1*
G1X1803290Y1627536D2*
G1X1799050Y1627536D1*
G1X1796580Y1627536D2*
G1X1789823Y1627536D1*
G1X1859490Y1627816D2*
G1X1853013Y1627816D1*
G1X1850543Y1627816D2*
G1X1839592Y1627816D1*
G1X1837122Y1627816D2*
G1X1835118Y1627816D1*
G1X1832648Y1627816D2*
G1X1828408Y1627816D1*
G1X1825938Y1627816D2*
G1X1821418Y1627816D1*
G1X1812238Y1627816D2*
G1X1810234Y1627816D1*
G1X1803290Y1627816D2*
G1X1799050Y1627816D1*
G1X1796580Y1627816D2*
G1X1789823Y1627816D1*
G1X1859490Y1628096D2*
G1X1853013Y1628096D1*
G1X1850543Y1628096D2*
G1X1839592Y1628096D1*
G1X1837122Y1628096D2*
G1X1835118Y1628096D1*
G1X1832648Y1628096D2*
G1X1828408Y1628096D1*
G1X1825938Y1628096D2*
G1X1821418Y1628096D1*
G1X1812238Y1628096D2*
G1X1810234Y1628096D1*
G1X1803290Y1628096D2*
G1X1799050Y1628096D1*
G1X1796580Y1628096D2*
G1X1789823Y1628096D1*
G1X1859490Y1628375D2*
G1X1853013Y1628375D1*
G1X1850543Y1628375D2*
G1X1839592Y1628375D1*
G1X1837122Y1628375D2*
G1X1835118Y1628375D1*
G1X1832648Y1628375D2*
G1X1828408Y1628375D1*
G1X1825938Y1628375D2*
G1X1821418Y1628375D1*
G1X1812238Y1628375D2*
G1X1810234Y1628375D1*
G1X1803290Y1628375D2*
G1X1799050Y1628375D1*
G1X1796580Y1628375D2*
G1X1789823Y1628375D1*
G1X1859490Y1628655D2*
G1X1853013Y1628655D1*
G1X1850543Y1628655D2*
G1X1839592Y1628655D1*
G1X1837122Y1628655D2*
G1X1835118Y1628655D1*
G1X1832648Y1628655D2*
G1X1828408Y1628655D1*
G1X1825938Y1628655D2*
G1X1821418Y1628655D1*
G1X1812238Y1628655D2*
G1X1810234Y1628655D1*
G1X1803290Y1628655D2*
G1X1799050Y1628655D1*
G1X1796580Y1628655D2*
G1X1789823Y1628655D1*
G1X1859490Y1628934D2*
G1X1853013Y1628934D1*
G1X1850543Y1628934D2*
G1X1839592Y1628934D1*
G1X1837122Y1628934D2*
G1X1835118Y1628934D1*
G1X1832648Y1628934D2*
G1X1828408Y1628934D1*
G1X1825938Y1628934D2*
G1X1821418Y1628934D1*
G1X1812238Y1628934D2*
G1X1810234Y1628934D1*
G1X1803290Y1628934D2*
G1X1799050Y1628934D1*
G1X1796580Y1628934D2*
G1X1789823Y1628934D1*
G1X1859490Y1629214D2*
G1X1853013Y1629214D1*
G1X1850543Y1629214D2*
G1X1839592Y1629214D1*
G1X1837122Y1629214D2*
G1X1835118Y1629214D1*
G1X1832648Y1629214D2*
G1X1828408Y1629214D1*
G1X1825938Y1629214D2*
G1X1821418Y1629214D1*
G1X1812238Y1629214D2*
G1X1810234Y1629214D1*
G1X1803290Y1629214D2*
G1X1799050Y1629214D1*
G1X1796580Y1629214D2*
G1X1789823Y1629214D1*
G1X1859490Y1629494D2*
G1X1853013Y1629494D1*
G1X1850543Y1629494D2*
G1X1848539Y1629494D1*
G1X1841596Y1629494D2*
G1X1839592Y1629494D1*
G1X1837122Y1629494D2*
G1X1835118Y1629494D1*
G1X1828175Y1629494D2*
G1X1821418Y1629494D1*
G1X1818948Y1629494D2*
G1X1810234Y1629494D1*
G1X1807764Y1629494D2*
G1X1803523Y1629494D1*
G1X1801054Y1629494D2*
G1X1799050Y1629494D1*
G1X1796580Y1629494D2*
G1X1789823Y1629494D1*
G1X1859490Y1629773D2*
G1X1853013Y1629773D1*
G1X1850543Y1629773D2*
G1X1848539Y1629773D1*
G1X1841596Y1629773D2*
G1X1839592Y1629773D1*
G1X1837122Y1629773D2*
G1X1835118Y1629773D1*
G1X1828175Y1629773D2*
G1X1821418Y1629773D1*
G1X1818948Y1629773D2*
G1X1810234Y1629773D1*
G1X1807764Y1629773D2*
G1X1803523Y1629773D1*
G1X1801054Y1629773D2*
G1X1799050Y1629773D1*
G1X1796580Y1629773D2*
G1X1789823Y1629773D1*
G1X1859490Y1630053D2*
G1X1853013Y1630053D1*
G1X1850543Y1630053D2*
G1X1848539Y1630053D1*
G1X1841596Y1630053D2*
G1X1839592Y1630053D1*
G1X1837122Y1630053D2*
G1X1835118Y1630053D1*
G1X1828175Y1630053D2*
G1X1821418Y1630053D1*
G1X1818948Y1630053D2*
G1X1810234Y1630053D1*
G1X1807764Y1630053D2*
G1X1803523Y1630053D1*
G1X1801054Y1630053D2*
G1X1799050Y1630053D1*
G1X1796580Y1630053D2*
G1X1789823Y1630053D1*
G1X1859490Y1630332D2*
G1X1853013Y1630332D1*
G1X1850543Y1630332D2*
G1X1848539Y1630332D1*
G1X1841596Y1630332D2*
G1X1839592Y1630332D1*
G1X1837122Y1630332D2*
G1X1835118Y1630332D1*
G1X1828175Y1630332D2*
G1X1821418Y1630332D1*
G1X1818948Y1630332D2*
G1X1810234Y1630332D1*
G1X1807764Y1630332D2*
G1X1803523Y1630332D1*
G1X1801054Y1630332D2*
G1X1799050Y1630332D1*
G1X1796580Y1630332D2*
G1X1789823Y1630332D1*
G1X1859490Y1630612D2*
G1X1853013Y1630612D1*
G1X1850543Y1630612D2*
G1X1848539Y1630612D1*
G1X1841596Y1630612D2*
G1X1839592Y1630612D1*
G1X1837122Y1630612D2*
G1X1835118Y1630612D1*
G1X1828175Y1630612D2*
G1X1821418Y1630612D1*
G1X1818948Y1630612D2*
G1X1810234Y1630612D1*
G1X1807764Y1630612D2*
G1X1803523Y1630612D1*
G1X1801054Y1630612D2*
G1X1799050Y1630612D1*
G1X1796580Y1630612D2*
G1X1789823Y1630612D1*
G1X1859490Y1630892D2*
G1X1853013Y1630892D1*
G1X1850543Y1630892D2*
G1X1848539Y1630892D1*
G1X1841596Y1630892D2*
G1X1839592Y1630892D1*
G1X1837122Y1630892D2*
G1X1835118Y1630892D1*
G1X1828175Y1630892D2*
G1X1821418Y1630892D1*
G1X1818948Y1630892D2*
G1X1810234Y1630892D1*
G1X1807764Y1630892D2*
G1X1803523Y1630892D1*
G1X1801054Y1630892D2*
G1X1799050Y1630892D1*
G1X1796580Y1630892D2*
G1X1789823Y1630892D1*
G1X1859490Y1631171D2*
G1X1853013Y1631171D1*
G1X1850543Y1631171D2*
G1X1848539Y1631171D1*
G1X1841596Y1631171D2*
G1X1839592Y1631171D1*
G1X1837122Y1631171D2*
G1X1835118Y1631171D1*
G1X1828175Y1631171D2*
G1X1821418Y1631171D1*
G1X1818948Y1631171D2*
G1X1810234Y1631171D1*
G1X1807764Y1631171D2*
G1X1803523Y1631171D1*
G1X1801054Y1631171D2*
G1X1799050Y1631171D1*
G1X1796580Y1631171D2*
G1X1789823Y1631171D1*
G1X1859490Y1631451D2*
G1X1853013Y1631451D1*
G1X1850543Y1631451D2*
G1X1848539Y1631451D1*
G1X1841596Y1631451D2*
G1X1839592Y1631451D1*
G1X1837122Y1631451D2*
G1X1835118Y1631451D1*
G1X1828175Y1631451D2*
G1X1821418Y1631451D1*
G1X1818948Y1631451D2*
G1X1810234Y1631451D1*
G1X1807764Y1631451D2*
G1X1803523Y1631451D1*
G1X1801054Y1631451D2*
G1X1799050Y1631451D1*
G1X1796580Y1631451D2*
G1X1789823Y1631451D1*
G1X1859490Y1631730D2*
G1X1853013Y1631730D1*
G1X1850543Y1631730D2*
G1X1848539Y1631730D1*
G1X1841596Y1631730D2*
G1X1839592Y1631730D1*
G1X1837122Y1631730D2*
G1X1835118Y1631730D1*
G1X1832648Y1631730D2*
G1X1828408Y1631730D1*
G1X1821185Y1631730D2*
G1X1814707Y1631730D1*
G1X1810001Y1631730D2*
G1X1807997Y1631730D1*
G1X1805527Y1631730D2*
G1X1803523Y1631730D1*
G1X1796580Y1631730D2*
G1X1789823Y1631730D1*
G1X1859490Y1632010D2*
G1X1853013Y1632010D1*
G1X1850543Y1632010D2*
G1X1848539Y1632010D1*
G1X1841596Y1632010D2*
G1X1839592Y1632010D1*
G1X1837122Y1632010D2*
G1X1835118Y1632010D1*
G1X1832648Y1632010D2*
G1X1828408Y1632010D1*
G1X1821185Y1632010D2*
G1X1814707Y1632010D1*
G1X1810001Y1632010D2*
G1X1807997Y1632010D1*
G1X1805527Y1632010D2*
G1X1803523Y1632010D1*
G1X1796580Y1632010D2*
G1X1789823Y1632010D1*
G1X1859490Y1632290D2*
G1X1853013Y1632290D1*
G1X1850543Y1632290D2*
G1X1848539Y1632290D1*
G1X1841596Y1632290D2*
G1X1839592Y1632290D1*
G1X1837122Y1632290D2*
G1X1835118Y1632290D1*
G1X1832648Y1632290D2*
G1X1828408Y1632290D1*
G1X1821185Y1632290D2*
G1X1814707Y1632290D1*
G1X1810001Y1632290D2*
G1X1807997Y1632290D1*
G1X1805527Y1632290D2*
G1X1803523Y1632290D1*
G1X1796580Y1632290D2*
G1X1789823Y1632290D1*
G1X1859490Y1632569D2*
G1X1853013Y1632569D1*
G1X1850543Y1632569D2*
G1X1848539Y1632569D1*
G1X1841596Y1632569D2*
G1X1839592Y1632569D1*
G1X1837122Y1632569D2*
G1X1835118Y1632569D1*
G1X1832648Y1632569D2*
G1X1828408Y1632569D1*
G1X1821185Y1632569D2*
G1X1814707Y1632569D1*
G1X1810001Y1632569D2*
G1X1807997Y1632569D1*
G1X1805527Y1632569D2*
G1X1803523Y1632569D1*
G1X1796580Y1632569D2*
G1X1789823Y1632569D1*
G1X1859490Y1632849D2*
G1X1853013Y1632849D1*
G1X1850543Y1632849D2*
G1X1848539Y1632849D1*
G1X1841596Y1632849D2*
G1X1839592Y1632849D1*
G1X1837122Y1632849D2*
G1X1835118Y1632849D1*
G1X1832648Y1632849D2*
G1X1828408Y1632849D1*
G1X1821185Y1632849D2*
G1X1814707Y1632849D1*
G1X1810001Y1632849D2*
G1X1807997Y1632849D1*
G1X1805527Y1632849D2*
G1X1803523Y1632849D1*
G1X1796580Y1632849D2*
G1X1789823Y1632849D1*
G1X1859490Y1633128D2*
G1X1853013Y1633128D1*
G1X1850543Y1633128D2*
G1X1848539Y1633128D1*
G1X1841596Y1633128D2*
G1X1839592Y1633128D1*
G1X1837122Y1633128D2*
G1X1835118Y1633128D1*
G1X1832648Y1633128D2*
G1X1828408Y1633128D1*
G1X1821185Y1633128D2*
G1X1814707Y1633128D1*
G1X1810001Y1633128D2*
G1X1807997Y1633128D1*
G1X1805527Y1633128D2*
G1X1803523Y1633128D1*
G1X1796580Y1633128D2*
G1X1789823Y1633128D1*
G1X1859490Y1633408D2*
G1X1853013Y1633408D1*
G1X1850543Y1633408D2*
G1X1848539Y1633408D1*
G1X1841596Y1633408D2*
G1X1839592Y1633408D1*
G1X1837122Y1633408D2*
G1X1835118Y1633408D1*
G1X1832648Y1633408D2*
G1X1828408Y1633408D1*
G1X1821185Y1633408D2*
G1X1814707Y1633408D1*
G1X1810001Y1633408D2*
G1X1807997Y1633408D1*
G1X1805527Y1633408D2*
G1X1803523Y1633408D1*
G1X1796580Y1633408D2*
G1X1789823Y1633408D1*
G1X1859490Y1633688D2*
G1X1853013Y1633688D1*
G1X1850543Y1633688D2*
G1X1848539Y1633688D1*
G1X1841596Y1633688D2*
G1X1839592Y1633688D1*
G1X1837122Y1633688D2*
G1X1835118Y1633688D1*
G1X1832648Y1633688D2*
G1X1828408Y1633688D1*
G1X1821185Y1633688D2*
G1X1814707Y1633688D1*
G1X1810001Y1633688D2*
G1X1807997Y1633688D1*
G1X1805527Y1633688D2*
G1X1803523Y1633688D1*
G1X1796580Y1633688D2*
G1X1789823Y1633688D1*
G1X1859490Y1633967D2*
G1X1853013Y1633967D1*
G1X1850543Y1633967D2*
G1X1848539Y1633967D1*
G1X1841596Y1633967D2*
G1X1839592Y1633967D1*
G1X1837122Y1633967D2*
G1X1835118Y1633967D1*
G1X1832648Y1633967D2*
G1X1830645Y1633967D1*
G1X1828175Y1633967D2*
G1X1826171Y1633967D1*
G1X1801054Y1633967D2*
G1X1789823Y1633967D1*
G1X1859490Y1634247D2*
G1X1853013Y1634247D1*
G1X1850543Y1634247D2*
G1X1848539Y1634247D1*
G1X1841596Y1634247D2*
G1X1839592Y1634247D1*
G1X1837122Y1634247D2*
G1X1835118Y1634247D1*
G1X1832648Y1634247D2*
G1X1830645Y1634247D1*
G1X1828175Y1634247D2*
G1X1826171Y1634247D1*
G1X1801054Y1634247D2*
G1X1789823Y1634247D1*
G1X1859490Y1634526D2*
G1X1853013Y1634526D1*
G1X1850543Y1634526D2*
G1X1848539Y1634526D1*
G1X1841596Y1634526D2*
G1X1839592Y1634526D1*
G1X1837122Y1634526D2*
G1X1835118Y1634526D1*
G1X1832648Y1634526D2*
G1X1830645Y1634526D1*
G1X1828175Y1634526D2*
G1X1826171Y1634526D1*
G1X1801054Y1634526D2*
G1X1789823Y1634526D1*
G1X1859490Y1634806D2*
G1X1853013Y1634806D1*
G1X1850543Y1634806D2*
G1X1848539Y1634806D1*
G1X1841596Y1634806D2*
G1X1839592Y1634806D1*
G1X1837122Y1634806D2*
G1X1835118Y1634806D1*
G1X1832648Y1634806D2*
G1X1830645Y1634806D1*
G1X1828175Y1634806D2*
G1X1826171Y1634806D1*
G1X1801054Y1634806D2*
G1X1789823Y1634806D1*
G1X1859490Y1635086D2*
G1X1853013Y1635086D1*
G1X1850543Y1635086D2*
G1X1848539Y1635086D1*
G1X1841596Y1635086D2*
G1X1839592Y1635086D1*
G1X1837122Y1635086D2*
G1X1835118Y1635086D1*
G1X1832648Y1635086D2*
G1X1830645Y1635086D1*
G1X1828175Y1635086D2*
G1X1826171Y1635086D1*
G1X1801054Y1635086D2*
G1X1789823Y1635086D1*
G1X1859490Y1635365D2*
G1X1853013Y1635365D1*
G1X1850543Y1635365D2*
G1X1848539Y1635365D1*
G1X1841596Y1635365D2*
G1X1839592Y1635365D1*
G1X1837122Y1635365D2*
G1X1835118Y1635365D1*
G1X1832648Y1635365D2*
G1X1830645Y1635365D1*
G1X1828175Y1635365D2*
G1X1826171Y1635365D1*
G1X1801054Y1635365D2*
G1X1789823Y1635365D1*
G1X1859490Y1635645D2*
G1X1853013Y1635645D1*
G1X1850543Y1635645D2*
G1X1848539Y1635645D1*
G1X1841596Y1635645D2*
G1X1839592Y1635645D1*
G1X1837122Y1635645D2*
G1X1835118Y1635645D1*
G1X1832648Y1635645D2*
G1X1830645Y1635645D1*
G1X1828175Y1635645D2*
G1X1826171Y1635645D1*
G1X1801054Y1635645D2*
G1X1789823Y1635645D1*
G1X1859490Y1635924D2*
G1X1853013Y1635924D1*
G1X1850543Y1635924D2*
G1X1848539Y1635924D1*
G1X1841596Y1635924D2*
G1X1839592Y1635924D1*
G1X1837122Y1635924D2*
G1X1835118Y1635924D1*
G1X1832648Y1635924D2*
G1X1830645Y1635924D1*
G1X1828175Y1635924D2*
G1X1826171Y1635924D1*
G1X1801054Y1635924D2*
G1X1789823Y1635924D1*
G1X1859490Y1636204D2*
G1X1853013Y1636204D1*
G1X1850543Y1636204D2*
G1X1839592Y1636204D1*
G1X1837122Y1636204D2*
G1X1830645Y1636204D1*
G1X1828175Y1636204D2*
G1X1826171Y1636204D1*
G1X1823422Y1636204D2*
G1X1821418Y1636204D1*
G1X1818948Y1636204D2*
G1X1816944Y1636204D1*
G1X1814474Y1636204D2*
G1X1807997Y1636204D1*
G1X1803290Y1636204D2*
G1X1799050Y1636204D1*
G1X1796580Y1636204D2*
G1X1789823Y1636204D1*
G1X1859490Y1636484D2*
G1X1853013Y1636484D1*
G1X1850543Y1636484D2*
G1X1839592Y1636484D1*
G1X1837122Y1636484D2*
G1X1830645Y1636484D1*
G1X1828175Y1636484D2*
G1X1826171Y1636484D1*
G1X1823422Y1636484D2*
G1X1821418Y1636484D1*
G1X1818948Y1636484D2*
G1X1816944Y1636484D1*
G1X1814474Y1636484D2*
G1X1807997Y1636484D1*
G1X1803290Y1636484D2*
G1X1799050Y1636484D1*
G1X1796580Y1636484D2*
G1X1789823Y1636484D1*
G1X1859490Y1636763D2*
G1X1853013Y1636763D1*
G1X1850543Y1636763D2*
G1X1839592Y1636763D1*
G1X1837122Y1636763D2*
G1X1830645Y1636763D1*
G1X1828175Y1636763D2*
G1X1826171Y1636763D1*
G1X1823422Y1636763D2*
G1X1821418Y1636763D1*
G1X1818948Y1636763D2*
G1X1816944Y1636763D1*
G1X1814474Y1636763D2*
G1X1807997Y1636763D1*
G1X1803290Y1636763D2*
G1X1799050Y1636763D1*
G1X1796580Y1636763D2*
G1X1789823Y1636763D1*
G1X1859490Y1637043D2*
G1X1853013Y1637043D1*
G1X1850543Y1637043D2*
G1X1839592Y1637043D1*
G1X1837122Y1637043D2*
G1X1830645Y1637043D1*
G1X1828175Y1637043D2*
G1X1826171Y1637043D1*
G1X1823422Y1637043D2*
G1X1821418Y1637043D1*
G1X1818948Y1637043D2*
G1X1816944Y1637043D1*
G1X1814474Y1637043D2*
G1X1807997Y1637043D1*
G1X1803290Y1637043D2*
G1X1799050Y1637043D1*
G1X1796580Y1637043D2*
G1X1789823Y1637043D1*
G1X1859490Y1637322D2*
G1X1853013Y1637322D1*
G1X1850543Y1637322D2*
G1X1839592Y1637322D1*
G1X1837122Y1637322D2*
G1X1830645Y1637322D1*
G1X1828175Y1637322D2*
G1X1826171Y1637322D1*
G1X1823422Y1637322D2*
G1X1821418Y1637322D1*
G1X1818948Y1637322D2*
G1X1816944Y1637322D1*
G1X1814474Y1637322D2*
G1X1807997Y1637322D1*
G1X1803290Y1637322D2*
G1X1799050Y1637322D1*
G1X1796580Y1637322D2*
G1X1789823Y1637322D1*
G1X1859490Y1637602D2*
G1X1853013Y1637602D1*
G1X1850543Y1637602D2*
G1X1839592Y1637602D1*
G1X1837122Y1637602D2*
G1X1830645Y1637602D1*
G1X1828175Y1637602D2*
G1X1826171Y1637602D1*
G1X1823422Y1637602D2*
G1X1821418Y1637602D1*
G1X1818948Y1637602D2*
G1X1816944Y1637602D1*
G1X1814474Y1637602D2*
G1X1807997Y1637602D1*
G1X1803290Y1637602D2*
G1X1799050Y1637602D1*
G1X1796580Y1637602D2*
G1X1789823Y1637602D1*
G1X1859490Y1637882D2*
G1X1853013Y1637882D1*
G1X1850543Y1637882D2*
G1X1839592Y1637882D1*
G1X1837122Y1637882D2*
G1X1830645Y1637882D1*
G1X1828175Y1637882D2*
G1X1826171Y1637882D1*
G1X1823422Y1637882D2*
G1X1821418Y1637882D1*
G1X1818948Y1637882D2*
G1X1816944Y1637882D1*
G1X1814474Y1637882D2*
G1X1807997Y1637882D1*
G1X1803290Y1637882D2*
G1X1799050Y1637882D1*
G1X1796580Y1637882D2*
G1X1789823Y1637882D1*
G1X1859490Y1638161D2*
G1X1853013Y1638161D1*
G1X1850543Y1638161D2*
G1X1839592Y1638161D1*
G1X1837122Y1638161D2*
G1X1830645Y1638161D1*
G1X1828175Y1638161D2*
G1X1826171Y1638161D1*
G1X1823422Y1638161D2*
G1X1821418Y1638161D1*
G1X1818948Y1638161D2*
G1X1816944Y1638161D1*
G1X1814474Y1638161D2*
G1X1807997Y1638161D1*
G1X1803290Y1638161D2*
G1X1799050Y1638161D1*
G1X1796580Y1638161D2*
G1X1789823Y1638161D1*
G1X1859490Y1638441D2*
G1X1853013Y1638441D1*
G1X1837122Y1638441D2*
G1X1835118Y1638441D1*
G1X1830412Y1638441D2*
G1X1826171Y1638441D1*
G1X1823422Y1638441D2*
G1X1821418Y1638441D1*
G1X1818948Y1638441D2*
G1X1816944Y1638441D1*
G1X1814474Y1638441D2*
G1X1812471Y1638441D1*
G1X1810001Y1638441D2*
G1X1807997Y1638441D1*
G1X1796580Y1638441D2*
G1X1789823Y1638441D1*
G1X1859490Y1638720D2*
G1X1853013Y1638720D1*
G1X1837122Y1638720D2*
G1X1835118Y1638720D1*
G1X1830412Y1638720D2*
G1X1826171Y1638720D1*
G1X1823422Y1638720D2*
G1X1821418Y1638720D1*
G1X1818948Y1638720D2*
G1X1816944Y1638720D1*
G1X1814474Y1638720D2*
G1X1812471Y1638720D1*
G1X1810001Y1638720D2*
G1X1807997Y1638720D1*
G1X1796580Y1638720D2*
G1X1789823Y1638720D1*
G1X1859490Y1639000D2*
G1X1853013Y1639000D1*
G1X1837122Y1639000D2*
G1X1835118Y1639000D1*
G1X1830412Y1639000D2*
G1X1826171Y1639000D1*
G1X1823422Y1639000D2*
G1X1821418Y1639000D1*
G1X1818948Y1639000D2*
G1X1816944Y1639000D1*
G1X1814474Y1639000D2*
G1X1812471Y1639000D1*
G1X1810001Y1639000D2*
G1X1807997Y1639000D1*
G1X1796580Y1639000D2*
G1X1789823Y1639000D1*
G1X1859490Y1639280D2*
G1X1853013Y1639280D1*
G1X1837122Y1639280D2*
G1X1835118Y1639280D1*
G1X1830412Y1639280D2*
G1X1826171Y1639280D1*
G1X1823422Y1639280D2*
G1X1821418Y1639280D1*
G1X1818948Y1639280D2*
G1X1816944Y1639280D1*
G1X1814474Y1639280D2*
G1X1812471Y1639280D1*
G1X1810001Y1639280D2*
G1X1807997Y1639280D1*
G1X1796580Y1639280D2*
G1X1789823Y1639280D1*
G1X1859490Y1639559D2*
G1X1853013Y1639559D1*
G1X1837122Y1639559D2*
G1X1835118Y1639559D1*
G1X1830412Y1639559D2*
G1X1826171Y1639559D1*
G1X1823422Y1639559D2*
G1X1821418Y1639559D1*
G1X1818948Y1639559D2*
G1X1816944Y1639559D1*
G1X1814474Y1639559D2*
G1X1812471Y1639559D1*
G1X1810001Y1639559D2*
G1X1807997Y1639559D1*
G1X1796580Y1639559D2*
G1X1789823Y1639559D1*
G1X1859490Y1639839D2*
G1X1853013Y1639839D1*
G1X1837122Y1639839D2*
G1X1835118Y1639839D1*
G1X1830412Y1639839D2*
G1X1826171Y1639839D1*
G1X1823422Y1639839D2*
G1X1821418Y1639839D1*
G1X1818948Y1639839D2*
G1X1816944Y1639839D1*
G1X1814474Y1639839D2*
G1X1812471Y1639839D1*
G1X1810001Y1639839D2*
G1X1807997Y1639839D1*
G1X1796580Y1639839D2*
G1X1789823Y1639839D1*
G1X1859490Y1640118D2*
G1X1853013Y1640118D1*
G1X1837122Y1640118D2*
G1X1835118Y1640118D1*
G1X1830412Y1640118D2*
G1X1826171Y1640118D1*
G1X1823422Y1640118D2*
G1X1821418Y1640118D1*
G1X1818948Y1640118D2*
G1X1816944Y1640118D1*
G1X1814474Y1640118D2*
G1X1812471Y1640118D1*
G1X1810001Y1640118D2*
G1X1807997Y1640118D1*
G1X1796580Y1640118D2*
G1X1789823Y1640118D1*
G1X1859490Y1640398D2*
G1X1853013Y1640398D1*
G1X1837122Y1640398D2*
G1X1835118Y1640398D1*
G1X1830412Y1640398D2*
G1X1826171Y1640398D1*
G1X1823422Y1640398D2*
G1X1821418Y1640398D1*
G1X1818948Y1640398D2*
G1X1816944Y1640398D1*
G1X1814474Y1640398D2*
G1X1812471Y1640398D1*
G1X1810001Y1640398D2*
G1X1807997Y1640398D1*
G1X1796580Y1640398D2*
G1X1789823Y1640398D1*
G1X1859490Y1640678D2*
G1X1835118Y1640678D1*
G1X1832648Y1640678D2*
G1X1819181Y1640678D1*
G1X1814474Y1640678D2*
G1X1807997Y1640678D1*
G1X1801054Y1640678D2*
G1X1789823Y1640678D1*
G1X1859490Y1640957D2*
G1X1835118Y1640957D1*
G1X1832648Y1640957D2*
G1X1819181Y1640957D1*
G1X1814474Y1640957D2*
G1X1807997Y1640957D1*
G1X1801054Y1640957D2*
G1X1789823Y1640957D1*
G1X1859490Y1641237D2*
G1X1835118Y1641237D1*
G1X1832648Y1641237D2*
G1X1819181Y1641237D1*
G1X1814474Y1641237D2*
G1X1807997Y1641237D1*
G1X1801054Y1641237D2*
G1X1789823Y1641237D1*
G1X1859490Y1641516D2*
G1X1835118Y1641516D1*
G1X1832648Y1641516D2*
G1X1819181Y1641516D1*
G1X1814474Y1641516D2*
G1X1807997Y1641516D1*
G1X1801054Y1641516D2*
G1X1789823Y1641516D1*
G1X1859490Y1641796D2*
G1X1835118Y1641796D1*
G1X1832648Y1641796D2*
G1X1819181Y1641796D1*
G1X1814474Y1641796D2*
G1X1807997Y1641796D1*
G1X1801054Y1641796D2*
G1X1789823Y1641796D1*
G1X1859490Y1642076D2*
G1X1835118Y1642076D1*
G1X1832648Y1642076D2*
G1X1819181Y1642076D1*
G1X1814474Y1642076D2*
G1X1807997Y1642076D1*
G1X1801054Y1642076D2*
G1X1789823Y1642076D1*
G1X1859490Y1642355D2*
G1X1835118Y1642355D1*
G1X1832648Y1642355D2*
G1X1819181Y1642355D1*
G1X1814474Y1642355D2*
G1X1807997Y1642355D1*
G1X1801054Y1642355D2*
G1X1789823Y1642355D1*
G1X1859490Y1642635D2*
G1X1835118Y1642635D1*
G1X1832648Y1642635D2*
G1X1819181Y1642635D1*
G1X1814474Y1642635D2*
G1X1807997Y1642635D1*
G1X1801054Y1642635D2*
G1X1789823Y1642635D1*
G1X1859490Y1642914D2*
G1X1853013Y1642914D1*
G1X1850543Y1642914D2*
G1X1846302Y1642914D1*
G1X1843832Y1642914D2*
G1X1841829Y1642914D1*
G1X1837122Y1642914D2*
G1X1835118Y1642914D1*
G1X1832648Y1642914D2*
G1X1830645Y1642914D1*
G1X1828175Y1642914D2*
G1X1826171Y1642914D1*
G1X1805527Y1642914D2*
G1X1803523Y1642914D1*
G1X1801054Y1642914D2*
G1X1789823Y1642914D1*
G1X1859490Y1643194D2*
G1X1853013Y1643194D1*
G1X1850543Y1643194D2*
G1X1846302Y1643194D1*
G1X1843832Y1643194D2*
G1X1841829Y1643194D1*
G1X1837122Y1643194D2*
G1X1835118Y1643194D1*
G1X1832648Y1643194D2*
G1X1830645Y1643194D1*
G1X1828175Y1643194D2*
G1X1826171Y1643194D1*
G1X1805527Y1643194D2*
G1X1803523Y1643194D1*
G1X1801054Y1643194D2*
G1X1789823Y1643194D1*
G1X1859490Y1643474D2*
G1X1853013Y1643474D1*
G1X1850543Y1643474D2*
G1X1846302Y1643474D1*
G1X1843832Y1643474D2*
G1X1841829Y1643474D1*
G1X1837122Y1643474D2*
G1X1835118Y1643474D1*
G1X1832648Y1643474D2*
G1X1830645Y1643474D1*
G1X1828175Y1643474D2*
G1X1826171Y1643474D1*
G1X1805527Y1643474D2*
G1X1803523Y1643474D1*
G1X1801054Y1643474D2*
G1X1789823Y1643474D1*
G1X1859490Y1643753D2*
G1X1853013Y1643753D1*
G1X1850543Y1643753D2*
G1X1846302Y1643753D1*
G1X1843832Y1643753D2*
G1X1841829Y1643753D1*
G1X1837122Y1643753D2*
G1X1835118Y1643753D1*
G1X1832648Y1643753D2*
G1X1830645Y1643753D1*
G1X1828175Y1643753D2*
G1X1826171Y1643753D1*
G1X1805527Y1643753D2*
G1X1803523Y1643753D1*
G1X1801054Y1643753D2*
G1X1789823Y1643753D1*
G1X1859490Y1644033D2*
G1X1853013Y1644033D1*
G1X1850543Y1644033D2*
G1X1846302Y1644033D1*
G1X1843832Y1644033D2*
G1X1841829Y1644033D1*
G1X1837122Y1644033D2*
G1X1835118Y1644033D1*
G1X1832648Y1644033D2*
G1X1830645Y1644033D1*
G1X1828175Y1644033D2*
G1X1826171Y1644033D1*
G1X1805527Y1644033D2*
G1X1803523Y1644033D1*
G1X1801054Y1644033D2*
G1X1789823Y1644033D1*
G1X1859490Y1644312D2*
G1X1853013Y1644312D1*
G1X1850543Y1644312D2*
G1X1846302Y1644312D1*
G1X1843832Y1644312D2*
G1X1841829Y1644312D1*
G1X1837122Y1644312D2*
G1X1835118Y1644312D1*
G1X1832648Y1644312D2*
G1X1830645Y1644312D1*
G1X1828175Y1644312D2*
G1X1826171Y1644312D1*
G1X1805527Y1644312D2*
G1X1803523Y1644312D1*
G1X1801054Y1644312D2*
G1X1789823Y1644312D1*
G1X1859490Y1644592D2*
G1X1853013Y1644592D1*
G1X1850543Y1644592D2*
G1X1846302Y1644592D1*
G1X1843832Y1644592D2*
G1X1841829Y1644592D1*
G1X1837122Y1644592D2*
G1X1835118Y1644592D1*
G1X1832648Y1644592D2*
G1X1830645Y1644592D1*
G1X1828175Y1644592D2*
G1X1826171Y1644592D1*
G1X1805527Y1644592D2*
G1X1803523Y1644592D1*
G1X1801054Y1644592D2*
G1X1789823Y1644592D1*
G1X1859490Y1644872D2*
G1X1853013Y1644872D1*
G1X1850543Y1644872D2*
G1X1846302Y1644872D1*
G1X1843832Y1644872D2*
G1X1841829Y1644872D1*
G1X1837122Y1644872D2*
G1X1835118Y1644872D1*
G1X1832648Y1644872D2*
G1X1830645Y1644872D1*
G1X1828175Y1644872D2*
G1X1826171Y1644872D1*
G1X1805527Y1644872D2*
G1X1803523Y1644872D1*
G1X1801054Y1644872D2*
G1X1789823Y1644872D1*
G1X1859490Y1645151D2*
G1X1853013Y1645151D1*
G1X1850543Y1645151D2*
G1X1846302Y1645151D1*
G1X1841596Y1645151D2*
G1X1837355Y1645151D1*
G1X1834885Y1645151D2*
G1X1828408Y1645151D1*
G1X1825938Y1645151D2*
G1X1819181Y1645151D1*
G1X1816711Y1645151D2*
G1X1814707Y1645151D1*
G1X1803290Y1645151D2*
G1X1799050Y1645151D1*
G1X1796580Y1645151D2*
G1X1789823Y1645151D1*
G1X1859490Y1645431D2*
G1X1853013Y1645431D1*
G1X1850543Y1645431D2*
G1X1846302Y1645431D1*
G1X1841596Y1645431D2*
G1X1837355Y1645431D1*
G1X1834885Y1645431D2*
G1X1828408Y1645431D1*
G1X1825938Y1645431D2*
G1X1819181Y1645431D1*
G1X1816711Y1645431D2*
G1X1814707Y1645431D1*
G1X1803290Y1645431D2*
G1X1799050Y1645431D1*
G1X1796580Y1645431D2*
G1X1789823Y1645431D1*
G1X1859490Y1645710D2*
G1X1853013Y1645710D1*
G1X1850543Y1645710D2*
G1X1846302Y1645710D1*
G1X1841596Y1645710D2*
G1X1837355Y1645710D1*
G1X1834885Y1645710D2*
G1X1828408Y1645710D1*
G1X1825938Y1645710D2*
G1X1819181Y1645710D1*
G1X1816711Y1645710D2*
G1X1814707Y1645710D1*
G1X1803290Y1645710D2*
G1X1799050Y1645710D1*
G1X1796580Y1645710D2*
G1X1789823Y1645710D1*
G1X1859490Y1645990D2*
G1X1853013Y1645990D1*
G1X1850543Y1645990D2*
G1X1846302Y1645990D1*
G1X1841596Y1645990D2*
G1X1837355Y1645990D1*
G1X1834885Y1645990D2*
G1X1828408Y1645990D1*
G1X1825938Y1645990D2*
G1X1819181Y1645990D1*
G1X1816711Y1645990D2*
G1X1814707Y1645990D1*
G1X1803290Y1645990D2*
G1X1799050Y1645990D1*
G1X1796580Y1645990D2*
G1X1789823Y1645990D1*
G1X1859490Y1646270D2*
G1X1853013Y1646270D1*
G1X1850543Y1646270D2*
G1X1846302Y1646270D1*
G1X1841596Y1646270D2*
G1X1837355Y1646270D1*
G1X1834885Y1646270D2*
G1X1828408Y1646270D1*
G1X1825938Y1646270D2*
G1X1819181Y1646270D1*
G1X1816711Y1646270D2*
G1X1814707Y1646270D1*
G1X1803290Y1646270D2*
G1X1799050Y1646270D1*
G1X1796580Y1646270D2*
G1X1789823Y1646270D1*
G1X1859490Y1646549D2*
G1X1853013Y1646549D1*
G1X1850543Y1646549D2*
G1X1846302Y1646549D1*
G1X1841596Y1646549D2*
G1X1837355Y1646549D1*
G1X1834885Y1646549D2*
G1X1828408Y1646549D1*
G1X1825938Y1646549D2*
G1X1819181Y1646549D1*
G1X1816711Y1646549D2*
G1X1814707Y1646549D1*
G1X1803290Y1646549D2*
G1X1799050Y1646549D1*
G1X1796580Y1646549D2*
G1X1789823Y1646549D1*
G1X1859490Y1646829D2*
G1X1853013Y1646829D1*
G1X1850543Y1646829D2*
G1X1846302Y1646829D1*
G1X1841596Y1646829D2*
G1X1837355Y1646829D1*
G1X1834885Y1646829D2*
G1X1828408Y1646829D1*
G1X1825938Y1646829D2*
G1X1819181Y1646829D1*
G1X1816711Y1646829D2*
G1X1814707Y1646829D1*
G1X1803290Y1646829D2*
G1X1799050Y1646829D1*
G1X1796580Y1646829D2*
G1X1789823Y1646829D1*
G1X1859490Y1647108D2*
G1X1853013Y1647108D1*
G1X1850543Y1647108D2*
G1X1846302Y1647108D1*
G1X1841596Y1647108D2*
G1X1837355Y1647108D1*
G1X1834885Y1647108D2*
G1X1828408Y1647108D1*
G1X1825938Y1647108D2*
G1X1819181Y1647108D1*
G1X1816711Y1647108D2*
G1X1814707Y1647108D1*
G1X1803290Y1647108D2*
G1X1799050Y1647108D1*
G1X1796580Y1647108D2*
G1X1789823Y1647108D1*
G1X1859490Y1647388D2*
G1X1853013Y1647388D1*
G1X1850543Y1647388D2*
G1X1848539Y1647388D1*
G1X1846069Y1647388D2*
G1X1841829Y1647388D1*
G1X1837122Y1647388D2*
G1X1830645Y1647388D1*
G1X1825938Y1647388D2*
G1X1821418Y1647388D1*
G1X1814474Y1647388D2*
G1X1810234Y1647388D1*
G1X1807764Y1647388D2*
G1X1805760Y1647388D1*
G1X1803290Y1647388D2*
G1X1801287Y1647388D1*
G1X1796580Y1647388D2*
G1X1789823Y1647388D1*
G1X1859490Y1647668D2*
G1X1853013Y1647668D1*
G1X1850543Y1647668D2*
G1X1848539Y1647668D1*
G1X1846069Y1647668D2*
G1X1841829Y1647668D1*
G1X1837122Y1647668D2*
G1X1830645Y1647668D1*
G1X1825938Y1647668D2*
G1X1821418Y1647668D1*
G1X1814474Y1647668D2*
G1X1810234Y1647668D1*
G1X1807764Y1647668D2*
G1X1805760Y1647668D1*
G1X1803290Y1647668D2*
G1X1801287Y1647668D1*
G1X1796580Y1647668D2*
G1X1789823Y1647668D1*
G1X1859490Y1647947D2*
G1X1853013Y1647947D1*
G1X1850543Y1647947D2*
G1X1848539Y1647947D1*
G1X1846069Y1647947D2*
G1X1841829Y1647947D1*
G1X1837122Y1647947D2*
G1X1830645Y1647947D1*
G1X1825938Y1647947D2*
G1X1821418Y1647947D1*
G1X1814474Y1647947D2*
G1X1810234Y1647947D1*
G1X1807764Y1647947D2*
G1X1805760Y1647947D1*
G1X1803290Y1647947D2*
G1X1801287Y1647947D1*
G1X1796580Y1647947D2*
G1X1789823Y1647947D1*
G1X1859490Y1648227D2*
G1X1853013Y1648227D1*
G1X1850543Y1648227D2*
G1X1848539Y1648227D1*
G1X1846069Y1648227D2*
G1X1841829Y1648227D1*
G1X1837122Y1648227D2*
G1X1830645Y1648227D1*
G1X1825938Y1648227D2*
G1X1821418Y1648227D1*
G1X1814474Y1648227D2*
G1X1810234Y1648227D1*
G1X1807764Y1648227D2*
G1X1805760Y1648227D1*
G1X1803290Y1648227D2*
G1X1801287Y1648227D1*
G1X1796580Y1648227D2*
G1X1789823Y1648227D1*
G1X1859490Y1648506D2*
G1X1853013Y1648506D1*
G1X1850543Y1648506D2*
G1X1848539Y1648506D1*
G1X1846069Y1648506D2*
G1X1841829Y1648506D1*
G1X1837122Y1648506D2*
G1X1830645Y1648506D1*
G1X1825938Y1648506D2*
G1X1821418Y1648506D1*
G1X1814474Y1648506D2*
G1X1810234Y1648506D1*
G1X1807764Y1648506D2*
G1X1805760Y1648506D1*
G1X1803290Y1648506D2*
G1X1801287Y1648506D1*
G1X1796580Y1648506D2*
G1X1789823Y1648506D1*
G1X1859490Y1648786D2*
G1X1853013Y1648786D1*
G1X1850543Y1648786D2*
G1X1848539Y1648786D1*
G1X1846069Y1648786D2*
G1X1841829Y1648786D1*
G1X1837122Y1648786D2*
G1X1830645Y1648786D1*
G1X1825938Y1648786D2*
G1X1821418Y1648786D1*
G1X1814474Y1648786D2*
G1X1810234Y1648786D1*
G1X1807764Y1648786D2*
G1X1805760Y1648786D1*
G1X1803290Y1648786D2*
G1X1801287Y1648786D1*
G1X1796580Y1648786D2*
G1X1789823Y1648786D1*
G1X1859490Y1649066D2*
G1X1853013Y1649066D1*
G1X1850543Y1649066D2*
G1X1848539Y1649066D1*
G1X1846069Y1649066D2*
G1X1841829Y1649066D1*
G1X1837122Y1649066D2*
G1X1830645Y1649066D1*
G1X1825938Y1649066D2*
G1X1821418Y1649066D1*
G1X1814474Y1649066D2*
G1X1810234Y1649066D1*
G1X1807764Y1649066D2*
G1X1805760Y1649066D1*
G1X1803290Y1649066D2*
G1X1801287Y1649066D1*
G1X1796580Y1649066D2*
G1X1789823Y1649066D1*
G1X1859490Y1649345D2*
G1X1853013Y1649345D1*
G1X1850543Y1649345D2*
G1X1848539Y1649345D1*
G1X1846069Y1649345D2*
G1X1841829Y1649345D1*
G1X1837122Y1649345D2*
G1X1830645Y1649345D1*
G1X1825938Y1649345D2*
G1X1821418Y1649345D1*
G1X1814474Y1649345D2*
G1X1810234Y1649345D1*
G1X1807764Y1649345D2*
G1X1805760Y1649345D1*
G1X1803290Y1649345D2*
G1X1801287Y1649345D1*
G1X1796580Y1649345D2*
G1X1789823Y1649345D1*
G1X1859490Y1649625D2*
G1X1853013Y1649625D1*
G1X1850543Y1649625D2*
G1X1844065Y1649625D1*
G1X1839359Y1649625D2*
G1X1835118Y1649625D1*
G1X1830412Y1649625D2*
G1X1826171Y1649625D1*
G1X1823422Y1649625D2*
G1X1816944Y1649625D1*
G1X1814474Y1649625D2*
G1X1805760Y1649625D1*
G1X1803290Y1649625D2*
G1X1801287Y1649625D1*
G1X1798817Y1649625D2*
G1X1789823Y1649625D1*
G1X1859490Y1649904D2*
G1X1853013Y1649904D1*
G1X1850543Y1649904D2*
G1X1844065Y1649904D1*
G1X1839359Y1649904D2*
G1X1835118Y1649904D1*
G1X1830412Y1649904D2*
G1X1826171Y1649904D1*
G1X1823422Y1649904D2*
G1X1816944Y1649904D1*
G1X1814474Y1649904D2*
G1X1805760Y1649904D1*
G1X1803290Y1649904D2*
G1X1801287Y1649904D1*
G1X1798817Y1649904D2*
G1X1789823Y1649904D1*
G1X1859490Y1650184D2*
G1X1853013Y1650184D1*
G1X1850543Y1650184D2*
G1X1844065Y1650184D1*
G1X1839359Y1650184D2*
G1X1835118Y1650184D1*
G1X1830412Y1650184D2*
G1X1826171Y1650184D1*
G1X1823422Y1650184D2*
G1X1816944Y1650184D1*
G1X1814474Y1650184D2*
G1X1805760Y1650184D1*
G1X1803290Y1650184D2*
G1X1801287Y1650184D1*
G1X1798817Y1650184D2*
G1X1789823Y1650184D1*
G1X1859490Y1650464D2*
G1X1853013Y1650464D1*
G1X1850543Y1650464D2*
G1X1844065Y1650464D1*
G1X1839359Y1650464D2*
G1X1835118Y1650464D1*
G1X1830412Y1650464D2*
G1X1826171Y1650464D1*
G1X1823422Y1650464D2*
G1X1816944Y1650464D1*
G1X1814474Y1650464D2*
G1X1805760Y1650464D1*
G1X1803290Y1650464D2*
G1X1801287Y1650464D1*
G1X1798817Y1650464D2*
G1X1789823Y1650464D1*
G1X1859490Y1650743D2*
G1X1853013Y1650743D1*
G1X1850543Y1650743D2*
G1X1844065Y1650743D1*
G1X1839359Y1650743D2*
G1X1835118Y1650743D1*
G1X1830412Y1650743D2*
G1X1826171Y1650743D1*
G1X1823422Y1650743D2*
G1X1816944Y1650743D1*
G1X1814474Y1650743D2*
G1X1805760Y1650743D1*
G1X1803290Y1650743D2*
G1X1801287Y1650743D1*
G1X1798817Y1650743D2*
G1X1789823Y1650743D1*
G1X1859490Y1651023D2*
G1X1853013Y1651023D1*
G1X1850543Y1651023D2*
G1X1844065Y1651023D1*
G1X1839359Y1651023D2*
G1X1835118Y1651023D1*
G1X1830412Y1651023D2*
G1X1826171Y1651023D1*
G1X1823422Y1651023D2*
G1X1816944Y1651023D1*
G1X1814474Y1651023D2*
G1X1805760Y1651023D1*
G1X1803290Y1651023D2*
G1X1801287Y1651023D1*
G1X1798817Y1651023D2*
G1X1789823Y1651023D1*
G1X1859490Y1651302D2*
G1X1853013Y1651302D1*
G1X1850543Y1651302D2*
G1X1844065Y1651302D1*
G1X1839359Y1651302D2*
G1X1835118Y1651302D1*
G1X1830412Y1651302D2*
G1X1826171Y1651302D1*
G1X1823422Y1651302D2*
G1X1816944Y1651302D1*
G1X1814474Y1651302D2*
G1X1805760Y1651302D1*
G1X1803290Y1651302D2*
G1X1801287Y1651302D1*
G1X1798817Y1651302D2*
G1X1789823Y1651302D1*
G1X1859490Y1651582D2*
G1X1853013Y1651582D1*
G1X1850543Y1651582D2*
G1X1844065Y1651582D1*
G1X1839359Y1651582D2*
G1X1835118Y1651582D1*
G1X1830412Y1651582D2*
G1X1826171Y1651582D1*
G1X1823422Y1651582D2*
G1X1816944Y1651582D1*
G1X1814474Y1651582D2*
G1X1805760Y1651582D1*
G1X1803290Y1651582D2*
G1X1801287Y1651582D1*
G1X1798817Y1651582D2*
G1X1789823Y1651582D1*
G1X1859490Y1651862D2*
G1X1853013Y1651862D1*
G1X1850543Y1651862D2*
G1X1846302Y1651862D1*
G1X1843832Y1651862D2*
G1X1839592Y1651862D1*
G1X1837122Y1651862D2*
G1X1832881Y1651862D1*
G1X1830412Y1651862D2*
G1X1828408Y1651862D1*
G1X1825938Y1651862D2*
G1X1823655Y1651862D1*
G1X1810001Y1651862D2*
G1X1807997Y1651862D1*
G1X1805527Y1651862D2*
G1X1803523Y1651862D1*
G1X1796580Y1651862D2*
G1X1789823Y1651862D1*
G1X1859490Y1652141D2*
G1X1853013Y1652141D1*
G1X1850543Y1652141D2*
G1X1846302Y1652141D1*
G1X1843832Y1652141D2*
G1X1839592Y1652141D1*
G1X1837122Y1652141D2*
G1X1832881Y1652141D1*
G1X1830412Y1652141D2*
G1X1828408Y1652141D1*
G1X1825938Y1652141D2*
G1X1823655Y1652141D1*
G1X1810001Y1652141D2*
G1X1807997Y1652141D1*
G1X1805527Y1652141D2*
G1X1803523Y1652141D1*
G1X1796580Y1652141D2*
G1X1789823Y1652141D1*
G1X1859490Y1652421D2*
G1X1853013Y1652421D1*
G1X1850543Y1652421D2*
G1X1846302Y1652421D1*
G1X1843832Y1652421D2*
G1X1839592Y1652421D1*
G1X1837122Y1652421D2*
G1X1832881Y1652421D1*
G1X1830412Y1652421D2*
G1X1828408Y1652421D1*
G1X1825938Y1652421D2*
G1X1823655Y1652421D1*
G1X1810001Y1652421D2*
G1X1807997Y1652421D1*
G1X1805527Y1652421D2*
G1X1803523Y1652421D1*
G1X1796580Y1652421D2*
G1X1789823Y1652421D1*
G1X1859490Y1652700D2*
G1X1853013Y1652700D1*
G1X1850543Y1652700D2*
G1X1846302Y1652700D1*
G1X1843832Y1652700D2*
G1X1839592Y1652700D1*
G1X1837122Y1652700D2*
G1X1832881Y1652700D1*
G1X1830412Y1652700D2*
G1X1828408Y1652700D1*
G1X1825938Y1652700D2*
G1X1823655Y1652700D1*
G1X1810001Y1652700D2*
G1X1807997Y1652700D1*
G1X1805527Y1652700D2*
G1X1803523Y1652700D1*
G1X1796580Y1652700D2*
G1X1789823Y1652700D1*
G1X1859490Y1652980D2*
G1X1853013Y1652980D1*
G1X1850543Y1652980D2*
G1X1846302Y1652980D1*
G1X1843832Y1652980D2*
G1X1839592Y1652980D1*
G1X1837122Y1652980D2*
G1X1832881Y1652980D1*
G1X1830412Y1652980D2*
G1X1828408Y1652980D1*
G1X1825938Y1652980D2*
G1X1823655Y1652980D1*
G1X1810001Y1652980D2*
G1X1807997Y1652980D1*
G1X1805527Y1652980D2*
G1X1803523Y1652980D1*
G1X1796580Y1652980D2*
G1X1789823Y1652980D1*
G1X1859490Y1653260D2*
G1X1853013Y1653260D1*
G1X1850543Y1653260D2*
G1X1846302Y1653260D1*
G1X1843832Y1653260D2*
G1X1839592Y1653260D1*
G1X1837122Y1653260D2*
G1X1832881Y1653260D1*
G1X1830412Y1653260D2*
G1X1828408Y1653260D1*
G1X1825938Y1653260D2*
G1X1823655Y1653260D1*
G1X1810001Y1653260D2*
G1X1807997Y1653260D1*
G1X1805527Y1653260D2*
G1X1803523Y1653260D1*
G1X1796580Y1653260D2*
G1X1789823Y1653260D1*
G1X1859490Y1653539D2*
G1X1853013Y1653539D1*
G1X1850543Y1653539D2*
G1X1846302Y1653539D1*
G1X1843832Y1653539D2*
G1X1839592Y1653539D1*
G1X1837122Y1653539D2*
G1X1832881Y1653539D1*
G1X1830412Y1653539D2*
G1X1828408Y1653539D1*
G1X1825938Y1653539D2*
G1X1823655Y1653539D1*
G1X1810001Y1653539D2*
G1X1807997Y1653539D1*
G1X1805527Y1653539D2*
G1X1803523Y1653539D1*
G1X1796580Y1653539D2*
G1X1789823Y1653539D1*
G1X1859490Y1653819D2*
G1X1853013Y1653819D1*
G1X1850543Y1653819D2*
G1X1846302Y1653819D1*
G1X1843832Y1653819D2*
G1X1839592Y1653819D1*
G1X1837122Y1653819D2*
G1X1832881Y1653819D1*
G1X1830412Y1653819D2*
G1X1828408Y1653819D1*
G1X1825938Y1653819D2*
G1X1823655Y1653819D1*
G1X1810001Y1653819D2*
G1X1807997Y1653819D1*
G1X1805527Y1653819D2*
G1X1803523Y1653819D1*
G1X1796580Y1653819D2*
G1X1789823Y1653819D1*
G1X1859490Y1654098D2*
G1X1853013Y1654098D1*
G1X1850543Y1654098D2*
G1X1846302Y1654098D1*
G1X1843832Y1654098D2*
G1X1839592Y1654098D1*
G1X1837122Y1654098D2*
G1X1832881Y1654098D1*
G1X1830412Y1654098D2*
G1X1828408Y1654098D1*
G1X1825938Y1654098D2*
G1X1823655Y1654098D1*
G1X1810001Y1654098D2*
G1X1807997Y1654098D1*
G1X1805527Y1654098D2*
G1X1803523Y1654098D1*
G1X1796580Y1654098D2*
G1X1789823Y1654098D1*
G1X1859490Y1654378D2*
G1X1850776Y1654378D1*
G1X1848306Y1654378D2*
G1X1846302Y1654378D1*
G1X1843832Y1654378D2*
G1X1832881Y1654378D1*
G1X1830412Y1654378D2*
G1X1821418Y1654378D1*
G1X1818948Y1654378D2*
G1X1812471Y1654378D1*
G1X1805527Y1654378D2*
G1X1799050Y1654378D1*
G1X1796580Y1654378D2*
G1X1789823Y1654378D1*
G1X1859490Y1654658D2*
G1X1850776Y1654658D1*
G1X1848306Y1654658D2*
G1X1846302Y1654658D1*
G1X1843832Y1654658D2*
G1X1832881Y1654658D1*
G1X1830412Y1654658D2*
G1X1821418Y1654658D1*
G1X1818948Y1654658D2*
G1X1812471Y1654658D1*
G1X1805527Y1654658D2*
G1X1799050Y1654658D1*
G1X1796580Y1654658D2*
G1X1789823Y1654658D1*
G1X1859490Y1654937D2*
G1X1850776Y1654937D1*
G1X1848306Y1654937D2*
G1X1846302Y1654937D1*
G1X1843832Y1654937D2*
G1X1832881Y1654937D1*
G1X1830412Y1654937D2*
G1X1821418Y1654937D1*
G1X1818948Y1654937D2*
G1X1812471Y1654937D1*
G1X1805527Y1654937D2*
G1X1799050Y1654937D1*
G1X1796580Y1654937D2*
G1X1789823Y1654937D1*
G1X1859490Y1655217D2*
G1X1850776Y1655217D1*
G1X1848306Y1655217D2*
G1X1846302Y1655217D1*
G1X1843832Y1655217D2*
G1X1832881Y1655217D1*
G1X1830412Y1655217D2*
G1X1821418Y1655217D1*
G1X1818948Y1655217D2*
G1X1812471Y1655217D1*
G1X1805527Y1655217D2*
G1X1799050Y1655217D1*
G1X1796580Y1655217D2*
G1X1789823Y1655217D1*
G1X1859490Y1655496D2*
G1X1850776Y1655496D1*
G1X1848306Y1655496D2*
G1X1846302Y1655496D1*
G1X1843832Y1655496D2*
G1X1832881Y1655496D1*
G1X1830412Y1655496D2*
G1X1821418Y1655496D1*
G1X1818948Y1655496D2*
G1X1812471Y1655496D1*
G1X1805527Y1655496D2*
G1X1799050Y1655496D1*
G1X1796580Y1655496D2*
G1X1789823Y1655496D1*
G1X1859490Y1655776D2*
G1X1850776Y1655776D1*
G1X1848306Y1655776D2*
G1X1846302Y1655776D1*
G1X1843832Y1655776D2*
G1X1832881Y1655776D1*
G1X1830412Y1655776D2*
G1X1821418Y1655776D1*
G1X1818948Y1655776D2*
G1X1812471Y1655776D1*
G1X1805527Y1655776D2*
G1X1799050Y1655776D1*
G1X1796580Y1655776D2*
G1X1789823Y1655776D1*
G1X1859490Y1656056D2*
G1X1850776Y1656056D1*
G1X1848306Y1656056D2*
G1X1846302Y1656056D1*
G1X1843832Y1656056D2*
G1X1832881Y1656056D1*
G1X1830412Y1656056D2*
G1X1821418Y1656056D1*
G1X1818948Y1656056D2*
G1X1812471Y1656056D1*
G1X1805527Y1656056D2*
G1X1799050Y1656056D1*
G1X1796580Y1656056D2*
G1X1789823Y1656056D1*
G1X1859490Y1656335D2*
G1X1850776Y1656335D1*
G1X1848306Y1656335D2*
G1X1846302Y1656335D1*
G1X1843832Y1656335D2*
G1X1832881Y1656335D1*
G1X1830412Y1656335D2*
G1X1821418Y1656335D1*
G1X1818948Y1656335D2*
G1X1812471Y1656335D1*
G1X1805527Y1656335D2*
G1X1799050Y1656335D1*
G1X1796580Y1656335D2*
G1X1789823Y1656335D1*
G1X1859490Y1656615D2*
G1X1850776Y1656615D1*
G1X1848306Y1656615D2*
G1X1841829Y1656615D1*
G1X1834885Y1656615D2*
G1X1832881Y1656615D1*
G1X1830412Y1656615D2*
G1X1826171Y1656615D1*
G1X1816711Y1656615D2*
G1X1814707Y1656615D1*
G1X1812238Y1656615D2*
G1X1807997Y1656615D1*
G1X1803290Y1656615D2*
G1X1801287Y1656615D1*
G1X1796580Y1656615D2*
G1X1789823Y1656615D1*
G1X1859490Y1656894D2*
G1X1850776Y1656894D1*
G1X1848306Y1656894D2*
G1X1841829Y1656894D1*
G1X1834885Y1656894D2*
G1X1832881Y1656894D1*
G1X1830412Y1656894D2*
G1X1826171Y1656894D1*
G1X1816711Y1656894D2*
G1X1814707Y1656894D1*
G1X1812238Y1656894D2*
G1X1807997Y1656894D1*
G1X1803290Y1656894D2*
G1X1801287Y1656894D1*
G1X1796580Y1656894D2*
G1X1789823Y1656894D1*
G1X1859490Y1657174D2*
G1X1850776Y1657174D1*
G1X1848306Y1657174D2*
G1X1841829Y1657174D1*
G1X1834885Y1657174D2*
G1X1832881Y1657174D1*
G1X1830412Y1657174D2*
G1X1826171Y1657174D1*
G1X1816711Y1657174D2*
G1X1814707Y1657174D1*
G1X1812238Y1657174D2*
G1X1807997Y1657174D1*
G1X1803290Y1657174D2*
G1X1801287Y1657174D1*
G1X1796580Y1657174D2*
G1X1789823Y1657174D1*
G1X1859490Y1657454D2*
G1X1850776Y1657454D1*
G1X1848306Y1657454D2*
G1X1841829Y1657454D1*
G1X1834885Y1657454D2*
G1X1832881Y1657454D1*
G1X1830412Y1657454D2*
G1X1826171Y1657454D1*
G1X1816711Y1657454D2*
G1X1814707Y1657454D1*
G1X1812238Y1657454D2*
G1X1807997Y1657454D1*
G1X1803290Y1657454D2*
G1X1801287Y1657454D1*
G1X1796580Y1657454D2*
G1X1789823Y1657454D1*
G1X1859490Y1657733D2*
G1X1850776Y1657733D1*
G1X1848306Y1657733D2*
G1X1841829Y1657733D1*
G1X1834885Y1657733D2*
G1X1832881Y1657733D1*
G1X1830412Y1657733D2*
G1X1826171Y1657733D1*
G1X1816711Y1657733D2*
G1X1814707Y1657733D1*
G1X1812238Y1657733D2*
G1X1807997Y1657733D1*
G1X1803290Y1657733D2*
G1X1801287Y1657733D1*
G1X1796580Y1657733D2*
G1X1789823Y1657733D1*
G1X1859490Y1658013D2*
G1X1850776Y1658013D1*
G1X1848306Y1658013D2*
G1X1841829Y1658013D1*
G1X1834885Y1658013D2*
G1X1832881Y1658013D1*
G1X1830412Y1658013D2*
G1X1826171Y1658013D1*
G1X1816711Y1658013D2*
G1X1814707Y1658013D1*
G1X1812238Y1658013D2*
G1X1807997Y1658013D1*
G1X1803290Y1658013D2*
G1X1801287Y1658013D1*
G1X1796580Y1658013D2*
G1X1789823Y1658013D1*
G1X1859490Y1658292D2*
G1X1850776Y1658292D1*
G1X1848306Y1658292D2*
G1X1841829Y1658292D1*
G1X1834885Y1658292D2*
G1X1832881Y1658292D1*
G1X1830412Y1658292D2*
G1X1826171Y1658292D1*
G1X1816711Y1658292D2*
G1X1814707Y1658292D1*
G1X1812238Y1658292D2*
G1X1807997Y1658292D1*
G1X1803290Y1658292D2*
G1X1801287Y1658292D1*
G1X1796580Y1658292D2*
G1X1789823Y1658292D1*
G1X1859490Y1658572D2*
G1X1850776Y1658572D1*
G1X1848306Y1658572D2*
G1X1841829Y1658572D1*
G1X1834885Y1658572D2*
G1X1832881Y1658572D1*
G1X1830412Y1658572D2*
G1X1826171Y1658572D1*
G1X1816711Y1658572D2*
G1X1814707Y1658572D1*
G1X1812238Y1658572D2*
G1X1807997Y1658572D1*
G1X1803290Y1658572D2*
G1X1801287Y1658572D1*
G1X1796580Y1658572D2*
G1X1789823Y1658572D1*
G1X1859490Y1658852D2*
G1X1853013Y1658852D1*
G1X1850543Y1658852D2*
G1X1848539Y1658852D1*
G1X1843832Y1658852D2*
G1X1841829Y1658852D1*
G1X1839359Y1658852D2*
G1X1837355Y1658852D1*
G1X1834885Y1658852D2*
G1X1832881Y1658852D1*
G1X1830412Y1658852D2*
G1X1823655Y1658852D1*
G1X1821185Y1658852D2*
G1X1810234Y1658852D1*
G1X1807764Y1658852D2*
G1X1801287Y1658852D1*
G1X1798817Y1658852D2*
G1X1789823Y1658852D1*
G1X1859490Y1659131D2*
G1X1853013Y1659131D1*
G1X1850543Y1659131D2*
G1X1848539Y1659131D1*
G1X1843832Y1659131D2*
G1X1841829Y1659131D1*
G1X1839359Y1659131D2*
G1X1837355Y1659131D1*
G1X1834885Y1659131D2*
G1X1832881Y1659131D1*
G1X1830412Y1659131D2*
G1X1823655Y1659131D1*
G1X1821185Y1659131D2*
G1X1810234Y1659131D1*
G1X1807764Y1659131D2*
G1X1801287Y1659131D1*
G1X1798817Y1659131D2*
G1X1789823Y1659131D1*
G1X1859490Y1659411D2*
G1X1853013Y1659411D1*
G1X1850543Y1659411D2*
G1X1848539Y1659411D1*
G1X1843832Y1659411D2*
G1X1841829Y1659411D1*
G1X1839359Y1659411D2*
G1X1837355Y1659411D1*
G1X1834885Y1659411D2*
G1X1832881Y1659411D1*
G1X1830412Y1659411D2*
G1X1823655Y1659411D1*
G1X1821185Y1659411D2*
G1X1810234Y1659411D1*
G1X1807764Y1659411D2*
G1X1801287Y1659411D1*
G1X1798817Y1659411D2*
G1X1789823Y1659411D1*
G1X1859490Y1659690D2*
G1X1853013Y1659690D1*
G1X1850543Y1659690D2*
G1X1848539Y1659690D1*
G1X1843832Y1659690D2*
G1X1841829Y1659690D1*
G1X1839359Y1659690D2*
G1X1837355Y1659690D1*
G1X1834885Y1659690D2*
G1X1832881Y1659690D1*
G1X1830412Y1659690D2*
G1X1823655Y1659690D1*
G1X1821185Y1659690D2*
G1X1810234Y1659690D1*
G1X1807764Y1659690D2*
G1X1801287Y1659690D1*
G1X1798817Y1659690D2*
G1X1789823Y1659690D1*
G1X1859490Y1659970D2*
G1X1853013Y1659970D1*
G1X1850543Y1659970D2*
G1X1848539Y1659970D1*
G1X1843832Y1659970D2*
G1X1841829Y1659970D1*
G1X1839359Y1659970D2*
G1X1837355Y1659970D1*
G1X1834885Y1659970D2*
G1X1832881Y1659970D1*
G1X1830412Y1659970D2*
G1X1823655Y1659970D1*
G1X1821185Y1659970D2*
G1X1810234Y1659970D1*
G1X1807764Y1659970D2*
G1X1801287Y1659970D1*
G1X1798817Y1659970D2*
G1X1789823Y1659970D1*
G1X1859490Y1660250D2*
G1X1853013Y1660250D1*
G1X1850543Y1660250D2*
G1X1848539Y1660250D1*
G1X1843832Y1660250D2*
G1X1841829Y1660250D1*
G1X1839359Y1660250D2*
G1X1837355Y1660250D1*
G1X1834885Y1660250D2*
G1X1832881Y1660250D1*
G1X1830412Y1660250D2*
G1X1823655Y1660250D1*
G1X1821185Y1660250D2*
G1X1810234Y1660250D1*
G1X1807764Y1660250D2*
G1X1801287Y1660250D1*
G1X1798817Y1660250D2*
G1X1789823Y1660250D1*
G1X1859490Y1660529D2*
G1X1853013Y1660529D1*
G1X1850543Y1660529D2*
G1X1848539Y1660529D1*
G1X1843832Y1660529D2*
G1X1841829Y1660529D1*
G1X1839359Y1660529D2*
G1X1837355Y1660529D1*
G1X1834885Y1660529D2*
G1X1832881Y1660529D1*
G1X1830412Y1660529D2*
G1X1823655Y1660529D1*
G1X1821185Y1660529D2*
G1X1810234Y1660529D1*
G1X1807764Y1660529D2*
G1X1801287Y1660529D1*
G1X1798817Y1660529D2*
G1X1789823Y1660529D1*
G1X1859490Y1660809D2*
G1X1853013Y1660809D1*
G1X1850543Y1660809D2*
G1X1848539Y1660809D1*
G1X1843832Y1660809D2*
G1X1841829Y1660809D1*
G1X1839359Y1660809D2*
G1X1837355Y1660809D1*
G1X1834885Y1660809D2*
G1X1832881Y1660809D1*
G1X1830412Y1660809D2*
G1X1823655Y1660809D1*
G1X1821185Y1660809D2*
G1X1810234Y1660809D1*
G1X1807764Y1660809D2*
G1X1801287Y1660809D1*
G1X1798817Y1660809D2*
G1X1789823Y1660809D1*
G1X1859490Y1661088D2*
G1X1853013Y1661088D1*
G1X1841596Y1661088D2*
G1X1839592Y1661088D1*
G1X1830412Y1661088D2*
G1X1826171Y1661088D1*
G1X1821185Y1661088D2*
G1X1814707Y1661088D1*
G1X1812238Y1661088D2*
G1X1810234Y1661088D1*
G1X1807764Y1661088D2*
G1X1805760Y1661088D1*
G1X1803290Y1661088D2*
G1X1801287Y1661088D1*
G1X1798817Y1661088D2*
G1X1789823Y1661088D1*
G1X1859490Y1661368D2*
G1X1853013Y1661368D1*
G1X1841596Y1661368D2*
G1X1839592Y1661368D1*
G1X1830412Y1661368D2*
G1X1826171Y1661368D1*
G1X1821185Y1661368D2*
G1X1814707Y1661368D1*
G1X1812238Y1661368D2*
G1X1810234Y1661368D1*
G1X1807764Y1661368D2*
G1X1805760Y1661368D1*
G1X1803290Y1661368D2*
G1X1801287Y1661368D1*
G1X1798817Y1661368D2*
G1X1789823Y1661368D1*
G1X1859490Y1661648D2*
G1X1853013Y1661648D1*
G1X1841596Y1661648D2*
G1X1839592Y1661648D1*
G1X1830412Y1661648D2*
G1X1826171Y1661648D1*
G1X1821185Y1661648D2*
G1X1814707Y1661648D1*
G1X1812238Y1661648D2*
G1X1810234Y1661648D1*
G1X1807764Y1661648D2*
G1X1805760Y1661648D1*
G1X1803290Y1661648D2*
G1X1801287Y1661648D1*
G1X1798817Y1661648D2*
G1X1789823Y1661648D1*
G1X1859490Y1661927D2*
G1X1853013Y1661927D1*
G1X1841596Y1661927D2*
G1X1839592Y1661927D1*
G1X1830412Y1661927D2*
G1X1826171Y1661927D1*
G1X1821185Y1661927D2*
G1X1814707Y1661927D1*
G1X1812238Y1661927D2*
G1X1810234Y1661927D1*
G1X1807764Y1661927D2*
G1X1805760Y1661927D1*
G1X1803290Y1661927D2*
G1X1801287Y1661927D1*
G1X1798817Y1661927D2*
G1X1789823Y1661927D1*
G1X1859490Y1662207D2*
G1X1853013Y1662207D1*
G1X1841596Y1662207D2*
G1X1839592Y1662207D1*
G1X1830412Y1662207D2*
G1X1826171Y1662207D1*
G1X1821185Y1662207D2*
G1X1814707Y1662207D1*
G1X1812238Y1662207D2*
G1X1810234Y1662207D1*
G1X1807764Y1662207D2*
G1X1805760Y1662207D1*
G1X1803290Y1662207D2*
G1X1801287Y1662207D1*
G1X1798817Y1662207D2*
G1X1789823Y1662207D1*
G1X1859490Y1662486D2*
G1X1853013Y1662486D1*
G1X1841596Y1662486D2*
G1X1839592Y1662486D1*
G1X1830412Y1662486D2*
G1X1826171Y1662486D1*
G1X1821185Y1662486D2*
G1X1814707Y1662486D1*
G1X1812238Y1662486D2*
G1X1810234Y1662486D1*
G1X1807764Y1662486D2*
G1X1805760Y1662486D1*
G1X1803290Y1662486D2*
G1X1801287Y1662486D1*
G1X1798817Y1662486D2*
G1X1789823Y1662486D1*
G1X1859490Y1662766D2*
G1X1853013Y1662766D1*
G1X1841596Y1662766D2*
G1X1839592Y1662766D1*
G1X1830412Y1662766D2*
G1X1826171Y1662766D1*
G1X1821185Y1662766D2*
G1X1814707Y1662766D1*
G1X1812238Y1662766D2*
G1X1810234Y1662766D1*
G1X1807764Y1662766D2*
G1X1805760Y1662766D1*
G1X1803290Y1662766D2*
G1X1801287Y1662766D1*
G1X1798817Y1662766D2*
G1X1789823Y1662766D1*
G1X1859490Y1663046D2*
G1X1853013Y1663046D1*
G1X1841596Y1663046D2*
G1X1839592Y1663046D1*
G1X1830412Y1663046D2*
G1X1826171Y1663046D1*
G1X1821185Y1663046D2*
G1X1814707Y1663046D1*
G1X1812238Y1663046D2*
G1X1810234Y1663046D1*
G1X1807764Y1663046D2*
G1X1805760Y1663046D1*
G1X1803290Y1663046D2*
G1X1801287Y1663046D1*
G1X1798817Y1663046D2*
G1X1789823Y1663046D1*
G1X1859490Y1663325D2*
G1X1832881Y1663325D1*
G1X1823422Y1663325D2*
G1X1821418Y1663325D1*
G1X1818948Y1663325D2*
G1X1816944Y1663325D1*
G1X1814474Y1663325D2*
G1X1789823Y1663325D1*
G1X1859490Y1663605D2*
G1X1832881Y1663605D1*
G1X1823422Y1663605D2*
G1X1821418Y1663605D1*
G1X1818948Y1663605D2*
G1X1816944Y1663605D1*
G1X1814474Y1663605D2*
G1X1789823Y1663605D1*
G1X1859490Y1663884D2*
G1X1832881Y1663884D1*
G1X1823422Y1663884D2*
G1X1821418Y1663884D1*
G1X1818948Y1663884D2*
G1X1816944Y1663884D1*
G1X1814474Y1663884D2*
G1X1789823Y1663884D1*
G1X1859490Y1664164D2*
G1X1832881Y1664164D1*
G1X1823422Y1664164D2*
G1X1821418Y1664164D1*
G1X1818948Y1664164D2*
G1X1816944Y1664164D1*
G1X1814474Y1664164D2*
G1X1789823Y1664164D1*
G1X1859490Y1664444D2*
G1X1832881Y1664444D1*
G1X1823422Y1664444D2*
G1X1821418Y1664444D1*
G1X1818948Y1664444D2*
G1X1816944Y1664444D1*
G1X1814474Y1664444D2*
G1X1789823Y1664444D1*
G1X1859490Y1664723D2*
G1X1832881Y1664723D1*
G1X1823422Y1664723D2*
G1X1821418Y1664723D1*
G1X1818948Y1664723D2*
G1X1816944Y1664723D1*
G1X1814474Y1664723D2*
G1X1789823Y1664723D1*
G1X1859490Y1665003D2*
G1X1832881Y1665003D1*
G1X1823422Y1665003D2*
G1X1821418Y1665003D1*
G1X1818948Y1665003D2*
G1X1816944Y1665003D1*
G1X1814474Y1665003D2*
G1X1789823Y1665003D1*
G1X1859490Y1665282D2*
G1X1832881Y1665282D1*
G1X1823422Y1665282D2*
G1X1821418Y1665282D1*
G1X1818948Y1665282D2*
G1X1816944Y1665282D1*
G1X1814474Y1665282D2*
G1X1789823Y1665282D1*
G1X1859490Y1665562D2*
G1X1853013Y1665562D1*
G1X1837122Y1665562D2*
G1X1835118Y1665562D1*
G1X1832648Y1665562D2*
G1X1830645Y1665562D1*
G1X1828175Y1665562D2*
G1X1826171Y1665562D1*
G1X1823422Y1665562D2*
G1X1821418Y1665562D1*
G1X1818948Y1665562D2*
G1X1816944Y1665562D1*
G1X1814474Y1665562D2*
G1X1812471Y1665562D1*
G1X1796580Y1665562D2*
G1X1789823Y1665562D1*
G1X1859490Y1665842D2*
G1X1853013Y1665842D1*
G1X1837122Y1665842D2*
G1X1835118Y1665842D1*
G1X1832648Y1665842D2*
G1X1830645Y1665842D1*
G1X1828175Y1665842D2*
G1X1826171Y1665842D1*
G1X1823422Y1665842D2*
G1X1821418Y1665842D1*
G1X1818948Y1665842D2*
G1X1816944Y1665842D1*
G1X1814474Y1665842D2*
G1X1812471Y1665842D1*
G1X1796580Y1665842D2*
G1X1789823Y1665842D1*
G1X1859490Y1666121D2*
G1X1853013Y1666121D1*
G1X1837122Y1666121D2*
G1X1835118Y1666121D1*
G1X1832648Y1666121D2*
G1X1830645Y1666121D1*
G1X1828175Y1666121D2*
G1X1826171Y1666121D1*
G1X1823422Y1666121D2*
G1X1821418Y1666121D1*
G1X1818948Y1666121D2*
G1X1816944Y1666121D1*
G1X1814474Y1666121D2*
G1X1812471Y1666121D1*
G1X1796580Y1666121D2*
G1X1789823Y1666121D1*
G1X1859490Y1666401D2*
G1X1853013Y1666401D1*
G1X1837122Y1666401D2*
G1X1835118Y1666401D1*
G1X1832648Y1666401D2*
G1X1830645Y1666401D1*
G1X1828175Y1666401D2*
G1X1826171Y1666401D1*
G1X1823422Y1666401D2*
G1X1821418Y1666401D1*
G1X1818948Y1666401D2*
G1X1816944Y1666401D1*
G1X1814474Y1666401D2*
G1X1812471Y1666401D1*
G1X1796580Y1666401D2*
G1X1789823Y1666401D1*
G1X1859490Y1666680D2*
G1X1853013Y1666680D1*
G1X1837122Y1666680D2*
G1X1835118Y1666680D1*
G1X1832648Y1666680D2*
G1X1830645Y1666680D1*
G1X1828175Y1666680D2*
G1X1826171Y1666680D1*
G1X1823422Y1666680D2*
G1X1821418Y1666680D1*
G1X1818948Y1666680D2*
G1X1816944Y1666680D1*
G1X1814474Y1666680D2*
G1X1812471Y1666680D1*
G1X1796580Y1666680D2*
G1X1789823Y1666680D1*
G1X1859490Y1666960D2*
G1X1853013Y1666960D1*
G1X1837122Y1666960D2*
G1X1835118Y1666960D1*
G1X1832648Y1666960D2*
G1X1830645Y1666960D1*
G1X1828175Y1666960D2*
G1X1826171Y1666960D1*
G1X1823422Y1666960D2*
G1X1821418Y1666960D1*
G1X1818948Y1666960D2*
G1X1816944Y1666960D1*
G1X1814474Y1666960D2*
G1X1812471Y1666960D1*
G1X1796580Y1666960D2*
G1X1789823Y1666960D1*
G1X1859490Y1667240D2*
G1X1853013Y1667240D1*
G1X1837122Y1667240D2*
G1X1835118Y1667240D1*
G1X1832648Y1667240D2*
G1X1830645Y1667240D1*
G1X1828175Y1667240D2*
G1X1826171Y1667240D1*
G1X1823422Y1667240D2*
G1X1821418Y1667240D1*
G1X1818948Y1667240D2*
G1X1816944Y1667240D1*
G1X1814474Y1667240D2*
G1X1812471Y1667240D1*
G1X1796580Y1667240D2*
G1X1789823Y1667240D1*
G1X1859490Y1667519D2*
G1X1853013Y1667519D1*
G1X1837122Y1667519D2*
G1X1835118Y1667519D1*
G1X1832648Y1667519D2*
G1X1830645Y1667519D1*
G1X1828175Y1667519D2*
G1X1826171Y1667519D1*
G1X1823422Y1667519D2*
G1X1821418Y1667519D1*
G1X1818948Y1667519D2*
G1X1816944Y1667519D1*
G1X1814474Y1667519D2*
G1X1812471Y1667519D1*
G1X1796580Y1667519D2*
G1X1789823Y1667519D1*
G1X1859490Y1667799D2*
G1X1853013Y1667799D1*
G1X1850543Y1667799D2*
G1X1839592Y1667799D1*
G1X1837122Y1667799D2*
G1X1835118Y1667799D1*
G1X1825938Y1667799D2*
G1X1821418Y1667799D1*
G1X1816711Y1667799D2*
G1X1812471Y1667799D1*
G1X1810001Y1667799D2*
G1X1799050Y1667799D1*
G1X1796580Y1667799D2*
G1X1789823Y1667799D1*
G1X1859490Y1668078D2*
G1X1853013Y1668078D1*
G1X1850543Y1668078D2*
G1X1839592Y1668078D1*
G1X1837122Y1668078D2*
G1X1835118Y1668078D1*
G1X1825938Y1668078D2*
G1X1821418Y1668078D1*
G1X1816711Y1668078D2*
G1X1812471Y1668078D1*
G1X1810001Y1668078D2*
G1X1799050Y1668078D1*
G1X1796580Y1668078D2*
G1X1789823Y1668078D1*
G1X1859490Y1668358D2*
G1X1853013Y1668358D1*
G1X1850543Y1668358D2*
G1X1839592Y1668358D1*
G1X1837122Y1668358D2*
G1X1835118Y1668358D1*
G1X1825938Y1668358D2*
G1X1821418Y1668358D1*
G1X1816711Y1668358D2*
G1X1812471Y1668358D1*
G1X1810001Y1668358D2*
G1X1799050Y1668358D1*
G1X1796580Y1668358D2*
G1X1789823Y1668358D1*
G1X1859490Y1668638D2*
G1X1853013Y1668638D1*
G1X1850543Y1668638D2*
G1X1839592Y1668638D1*
G1X1837122Y1668638D2*
G1X1835118Y1668638D1*
G1X1825938Y1668638D2*
G1X1821418Y1668638D1*
G1X1816711Y1668638D2*
G1X1812471Y1668638D1*
G1X1810001Y1668638D2*
G1X1799050Y1668638D1*
G1X1796580Y1668638D2*
G1X1789823Y1668638D1*
G1X1859490Y1668917D2*
G1X1853013Y1668917D1*
G1X1850543Y1668917D2*
G1X1839592Y1668917D1*
G1X1837122Y1668917D2*
G1X1835118Y1668917D1*
G1X1825938Y1668917D2*
G1X1821418Y1668917D1*
G1X1816711Y1668917D2*
G1X1812471Y1668917D1*
G1X1810001Y1668917D2*
G1X1799050Y1668917D1*
G1X1796580Y1668917D2*
G1X1789823Y1668917D1*
G1X1859490Y1669197D2*
G1X1853013Y1669197D1*
G1X1850543Y1669197D2*
G1X1839592Y1669197D1*
G1X1837122Y1669197D2*
G1X1835118Y1669197D1*
G1X1825938Y1669197D2*
G1X1821418Y1669197D1*
G1X1816711Y1669197D2*
G1X1812471Y1669197D1*
G1X1810001Y1669197D2*
G1X1799050Y1669197D1*
G1X1796580Y1669197D2*
G1X1789823Y1669197D1*
G1X1859490Y1669476D2*
G1X1853013Y1669476D1*
G1X1850543Y1669476D2*
G1X1839592Y1669476D1*
G1X1837122Y1669476D2*
G1X1835118Y1669476D1*
G1X1825938Y1669476D2*
G1X1821418Y1669476D1*
G1X1816711Y1669476D2*
G1X1812471Y1669476D1*
G1X1810001Y1669476D2*
G1X1799050Y1669476D1*
G1X1796580Y1669476D2*
G1X1789823Y1669476D1*
G1X1859490Y1669756D2*
G1X1853013Y1669756D1*
G1X1850543Y1669756D2*
G1X1839592Y1669756D1*
G1X1837122Y1669756D2*
G1X1835118Y1669756D1*
G1X1825938Y1669756D2*
G1X1821418Y1669756D1*
G1X1816711Y1669756D2*
G1X1812471Y1669756D1*
G1X1810001Y1669756D2*
G1X1799050Y1669756D1*
G1X1796580Y1669756D2*
G1X1789823Y1669756D1*
G1X1859490Y1670036D2*
G1X1853013Y1670036D1*
G1X1850543Y1670036D2*
G1X1848539Y1670036D1*
G1X1841596Y1670036D2*
G1X1839592Y1670036D1*
G1X1837122Y1670036D2*
G1X1823655Y1670036D1*
G1X1821185Y1670036D2*
G1X1816944Y1670036D1*
G1X1814474Y1670036D2*
G1X1812471Y1670036D1*
G1X1810001Y1670036D2*
G1X1807997Y1670036D1*
G1X1801054Y1670036D2*
G1X1799050Y1670036D1*
G1X1796580Y1670036D2*
G1X1789823Y1670036D1*
G1X1859490Y1670315D2*
G1X1853013Y1670315D1*
G1X1850543Y1670315D2*
G1X1848539Y1670315D1*
G1X1841596Y1670315D2*
G1X1839592Y1670315D1*
G1X1837122Y1670315D2*
G1X1823655Y1670315D1*
G1X1821185Y1670315D2*
G1X1816944Y1670315D1*
G1X1814474Y1670315D2*
G1X1812471Y1670315D1*
G1X1810001Y1670315D2*
G1X1807997Y1670315D1*
G1X1801054Y1670315D2*
G1X1799050Y1670315D1*
G1X1796580Y1670315D2*
G1X1789823Y1670315D1*
G1X1859490Y1670595D2*
G1X1853013Y1670595D1*
G1X1850543Y1670595D2*
G1X1848539Y1670595D1*
G1X1841596Y1670595D2*
G1X1839592Y1670595D1*
G1X1837122Y1670595D2*
G1X1823655Y1670595D1*
G1X1821185Y1670595D2*
G1X1816944Y1670595D1*
G1X1814474Y1670595D2*
G1X1812471Y1670595D1*
G1X1810001Y1670595D2*
G1X1807997Y1670595D1*
G1X1801054Y1670595D2*
G1X1799050Y1670595D1*
G1X1796580Y1670595D2*
G1X1789823Y1670595D1*
G1X1859490Y1670874D2*
G1X1853013Y1670874D1*
G1X1850543Y1670874D2*
G1X1848539Y1670874D1*
G1X1841596Y1670874D2*
G1X1839592Y1670874D1*
G1X1837122Y1670874D2*
G1X1823655Y1670874D1*
G1X1821185Y1670874D2*
G1X1816944Y1670874D1*
G1X1814474Y1670874D2*
G1X1812471Y1670874D1*
G1X1810001Y1670874D2*
G1X1807997Y1670874D1*
G1X1801054Y1670874D2*
G1X1799050Y1670874D1*
G1X1796580Y1670874D2*
G1X1789823Y1670874D1*
G1X1859490Y1671154D2*
G1X1853013Y1671154D1*
G1X1850543Y1671154D2*
G1X1848539Y1671154D1*
G1X1841596Y1671154D2*
G1X1839592Y1671154D1*
G1X1837122Y1671154D2*
G1X1823655Y1671154D1*
G1X1821185Y1671154D2*
G1X1816944Y1671154D1*
G1X1814474Y1671154D2*
G1X1812471Y1671154D1*
G1X1810001Y1671154D2*
G1X1807997Y1671154D1*
G1X1801054Y1671154D2*
G1X1799050Y1671154D1*
G1X1796580Y1671154D2*
G1X1789823Y1671154D1*
G1X1859490Y1671434D2*
G1X1853013Y1671434D1*
G1X1850543Y1671434D2*
G1X1848539Y1671434D1*
G1X1841596Y1671434D2*
G1X1839592Y1671434D1*
G1X1837122Y1671434D2*
G1X1823655Y1671434D1*
G1X1821185Y1671434D2*
G1X1816944Y1671434D1*
G1X1814474Y1671434D2*
G1X1812471Y1671434D1*
G1X1810001Y1671434D2*
G1X1807997Y1671434D1*
G1X1801054Y1671434D2*
G1X1799050Y1671434D1*
G1X1796580Y1671434D2*
G1X1789823Y1671434D1*
G1X1859490Y1671713D2*
G1X1853013Y1671713D1*
G1X1850543Y1671713D2*
G1X1848539Y1671713D1*
G1X1841596Y1671713D2*
G1X1839592Y1671713D1*
G1X1837122Y1671713D2*
G1X1823655Y1671713D1*
G1X1821185Y1671713D2*
G1X1816944Y1671713D1*
G1X1814474Y1671713D2*
G1X1812471Y1671713D1*
G1X1810001Y1671713D2*
G1X1807997Y1671713D1*
G1X1801054Y1671713D2*
G1X1799050Y1671713D1*
G1X1796580Y1671713D2*
G1X1789823Y1671713D1*
G1X1859490Y1671993D2*
G1X1853013Y1671993D1*
G1X1850543Y1671993D2*
G1X1848539Y1671993D1*
G1X1841596Y1671993D2*
G1X1839592Y1671993D1*
G1X1837122Y1671993D2*
G1X1823655Y1671993D1*
G1X1821185Y1671993D2*
G1X1816944Y1671993D1*
G1X1814474Y1671993D2*
G1X1812471Y1671993D1*
G1X1810001Y1671993D2*
G1X1807997Y1671993D1*
G1X1801054Y1671993D2*
G1X1799050Y1671993D1*
G1X1796580Y1671993D2*
G1X1789823Y1671993D1*
G1X1859490Y1672272D2*
G1X1853013Y1672272D1*
G1X1850543Y1672272D2*
G1X1848539Y1672272D1*
G1X1841596Y1672272D2*
G1X1839592Y1672272D1*
G1X1837122Y1672272D2*
G1X1835118Y1672272D1*
G1X1830412Y1672272D2*
G1X1826171Y1672272D1*
G1X1816711Y1672272D2*
G1X1812471Y1672272D1*
G1X1810001Y1672272D2*
G1X1807997Y1672272D1*
G1X1801054Y1672272D2*
G1X1799050Y1672272D1*
G1X1796580Y1672272D2*
G1X1789823Y1672272D1*
G1X1859490Y1672552D2*
G1X1853013Y1672552D1*
G1X1850543Y1672552D2*
G1X1848539Y1672552D1*
G1X1841596Y1672552D2*
G1X1839592Y1672552D1*
G1X1837122Y1672552D2*
G1X1835118Y1672552D1*
G1X1830412Y1672552D2*
G1X1826171Y1672552D1*
G1X1816711Y1672552D2*
G1X1812471Y1672552D1*
G1X1810001Y1672552D2*
G1X1807997Y1672552D1*
G1X1801054Y1672552D2*
G1X1799050Y1672552D1*
G1X1796580Y1672552D2*
G1X1789823Y1672552D1*
G1X1859490Y1672832D2*
G1X1853013Y1672832D1*
G1X1850543Y1672832D2*
G1X1848539Y1672832D1*
G1X1841596Y1672832D2*
G1X1839592Y1672832D1*
G1X1837122Y1672832D2*
G1X1835118Y1672832D1*
G1X1830412Y1672832D2*
G1X1826171Y1672832D1*
G1X1816711Y1672832D2*
G1X1812471Y1672832D1*
G1X1810001Y1672832D2*
G1X1807997Y1672832D1*
G1X1801054Y1672832D2*
G1X1799050Y1672832D1*
G1X1796580Y1672832D2*
G1X1789823Y1672832D1*
G1X1859490Y1673111D2*
G1X1853013Y1673111D1*
G1X1850543Y1673111D2*
G1X1848539Y1673111D1*
G1X1841596Y1673111D2*
G1X1839592Y1673111D1*
G1X1837122Y1673111D2*
G1X1835118Y1673111D1*
G1X1830412Y1673111D2*
G1X1826171Y1673111D1*
G1X1816711Y1673111D2*
G1X1812471Y1673111D1*
G1X1810001Y1673111D2*
G1X1807997Y1673111D1*
G1X1801054Y1673111D2*
G1X1799050Y1673111D1*
G1X1796580Y1673111D2*
G1X1789823Y1673111D1*
G1X1859490Y1673391D2*
G1X1853013Y1673391D1*
G1X1850543Y1673391D2*
G1X1848539Y1673391D1*
G1X1841596Y1673391D2*
G1X1839592Y1673391D1*
G1X1837122Y1673391D2*
G1X1835118Y1673391D1*
G1X1830412Y1673391D2*
G1X1826171Y1673391D1*
G1X1816711Y1673391D2*
G1X1812471Y1673391D1*
G1X1810001Y1673391D2*
G1X1807997Y1673391D1*
G1X1801054Y1673391D2*
G1X1799050Y1673391D1*
G1X1796580Y1673391D2*
G1X1789823Y1673391D1*
G1X1859490Y1673670D2*
G1X1853013Y1673670D1*
G1X1850543Y1673670D2*
G1X1848539Y1673670D1*
G1X1841596Y1673670D2*
G1X1839592Y1673670D1*
G1X1837122Y1673670D2*
G1X1835118Y1673670D1*
G1X1830412Y1673670D2*
G1X1826171Y1673670D1*
G1X1816711Y1673670D2*
G1X1812471Y1673670D1*
G1X1810001Y1673670D2*
G1X1807997Y1673670D1*
G1X1801054Y1673670D2*
G1X1799050Y1673670D1*
G1X1796580Y1673670D2*
G1X1789823Y1673670D1*
G1X1859490Y1673950D2*
G1X1853013Y1673950D1*
G1X1850543Y1673950D2*
G1X1848539Y1673950D1*
G1X1841596Y1673950D2*
G1X1839592Y1673950D1*
G1X1837122Y1673950D2*
G1X1835118Y1673950D1*
G1X1830412Y1673950D2*
G1X1826171Y1673950D1*
G1X1816711Y1673950D2*
G1X1812471Y1673950D1*
G1X1810001Y1673950D2*
G1X1807997Y1673950D1*
G1X1801054Y1673950D2*
G1X1799050Y1673950D1*
G1X1796580Y1673950D2*
G1X1789823Y1673950D1*
G1X1859490Y1674230D2*
G1X1853013Y1674230D1*
G1X1850543Y1674230D2*
G1X1848539Y1674230D1*
G1X1841596Y1674230D2*
G1X1839592Y1674230D1*
G1X1837122Y1674230D2*
G1X1835118Y1674230D1*
G1X1830412Y1674230D2*
G1X1826171Y1674230D1*
G1X1816711Y1674230D2*
G1X1812471Y1674230D1*
G1X1810001Y1674230D2*
G1X1807997Y1674230D1*
G1X1801054Y1674230D2*
G1X1799050Y1674230D1*
G1X1796580Y1674230D2*
G1X1789823Y1674230D1*
G1X1859490Y1674509D2*
G1X1853013Y1674509D1*
G1X1850543Y1674509D2*
G1X1848539Y1674509D1*
G1X1841596Y1674509D2*
G1X1839592Y1674509D1*
G1X1837122Y1674509D2*
G1X1826171Y1674509D1*
G1X1823422Y1674509D2*
G1X1821418Y1674509D1*
G1X1818948Y1674509D2*
G1X1812471Y1674509D1*
G1X1810001Y1674509D2*
G1X1807997Y1674509D1*
G1X1801054Y1674509D2*
G1X1799050Y1674509D1*
G1X1796580Y1674509D2*
G1X1789823Y1674509D1*
G1X1859490Y1674789D2*
G1X1853013Y1674789D1*
G1X1850543Y1674789D2*
G1X1848539Y1674789D1*
G1X1841596Y1674789D2*
G1X1839592Y1674789D1*
G1X1837122Y1674789D2*
G1X1826171Y1674789D1*
G1X1823422Y1674789D2*
G1X1821418Y1674789D1*
G1X1818948Y1674789D2*
G1X1812471Y1674789D1*
G1X1810001Y1674789D2*
G1X1807997Y1674789D1*
G1X1801054Y1674789D2*
G1X1799050Y1674789D1*
G1X1796580Y1674789D2*
G1X1789823Y1674789D1*
G1X1859490Y1675068D2*
G1X1853013Y1675068D1*
G1X1850543Y1675068D2*
G1X1848539Y1675068D1*
G1X1841596Y1675068D2*
G1X1839592Y1675068D1*
G1X1837122Y1675068D2*
G1X1826171Y1675068D1*
G1X1823422Y1675068D2*
G1X1821418Y1675068D1*
G1X1818948Y1675068D2*
G1X1812471Y1675068D1*
G1X1810001Y1675068D2*
G1X1807997Y1675068D1*
G1X1801054Y1675068D2*
G1X1799050Y1675068D1*
G1X1796580Y1675068D2*
G1X1789823Y1675068D1*
G1X1859490Y1675348D2*
G1X1853013Y1675348D1*
G1X1850543Y1675348D2*
G1X1848539Y1675348D1*
G1X1841596Y1675348D2*
G1X1839592Y1675348D1*
G1X1837122Y1675348D2*
G1X1826171Y1675348D1*
G1X1823422Y1675348D2*
G1X1821418Y1675348D1*
G1X1818948Y1675348D2*
G1X1812471Y1675348D1*
G1X1810001Y1675348D2*
G1X1807997Y1675348D1*
G1X1801054Y1675348D2*
G1X1799050Y1675348D1*
G1X1796580Y1675348D2*
G1X1789823Y1675348D1*
G1X1859490Y1675628D2*
G1X1853013Y1675628D1*
G1X1850543Y1675628D2*
G1X1848539Y1675628D1*
G1X1841596Y1675628D2*
G1X1839592Y1675628D1*
G1X1837122Y1675628D2*
G1X1826171Y1675628D1*
G1X1823422Y1675628D2*
G1X1821418Y1675628D1*
G1X1818948Y1675628D2*
G1X1812471Y1675628D1*
G1X1810001Y1675628D2*
G1X1807997Y1675628D1*
G1X1801054Y1675628D2*
G1X1799050Y1675628D1*
G1X1796580Y1675628D2*
G1X1789823Y1675628D1*
G1X1859490Y1675907D2*
G1X1853013Y1675907D1*
G1X1850543Y1675907D2*
G1X1848539Y1675907D1*
G1X1841596Y1675907D2*
G1X1839592Y1675907D1*
G1X1837122Y1675907D2*
G1X1826171Y1675907D1*
G1X1823422Y1675907D2*
G1X1821418Y1675907D1*
G1X1818948Y1675907D2*
G1X1812471Y1675907D1*
G1X1810001Y1675907D2*
G1X1807997Y1675907D1*
G1X1801054Y1675907D2*
G1X1799050Y1675907D1*
G1X1796580Y1675907D2*
G1X1789823Y1675907D1*
G1X1859490Y1676187D2*
G1X1853013Y1676187D1*
G1X1850543Y1676187D2*
G1X1848539Y1676187D1*
G1X1841596Y1676187D2*
G1X1839592Y1676187D1*
G1X1837122Y1676187D2*
G1X1826171Y1676187D1*
G1X1823422Y1676187D2*
G1X1821418Y1676187D1*
G1X1818948Y1676187D2*
G1X1812471Y1676187D1*
G1X1810001Y1676187D2*
G1X1807997Y1676187D1*
G1X1801054Y1676187D2*
G1X1799050Y1676187D1*
G1X1796580Y1676187D2*
G1X1789823Y1676187D1*
G1X1859490Y1676466D2*
G1X1853013Y1676466D1*
G1X1850543Y1676466D2*
G1X1848539Y1676466D1*
G1X1841596Y1676466D2*
G1X1839592Y1676466D1*
G1X1837122Y1676466D2*
G1X1826171Y1676466D1*
G1X1823422Y1676466D2*
G1X1821418Y1676466D1*
G1X1818948Y1676466D2*
G1X1812471Y1676466D1*
G1X1810001Y1676466D2*
G1X1807997Y1676466D1*
G1X1801054Y1676466D2*
G1X1799050Y1676466D1*
G1X1796580Y1676466D2*
G1X1789823Y1676466D1*
G1X1859490Y1676746D2*
G1X1853013Y1676746D1*
G1X1850543Y1676746D2*
G1X1839592Y1676746D1*
G1X1837122Y1676746D2*
G1X1835118Y1676746D1*
G1X1830412Y1676746D2*
G1X1826171Y1676746D1*
G1X1814474Y1676746D2*
G1X1812471Y1676746D1*
G1X1810001Y1676746D2*
G1X1799050Y1676746D1*
G1X1796580Y1676746D2*
G1X1789823Y1676746D1*
G1X1859490Y1677026D2*
G1X1853013Y1677026D1*
G1X1850543Y1677026D2*
G1X1839592Y1677026D1*
G1X1837122Y1677026D2*
G1X1835118Y1677026D1*
G1X1830412Y1677026D2*
G1X1826171Y1677026D1*
G1X1814474Y1677026D2*
G1X1812471Y1677026D1*
G1X1810001Y1677026D2*
G1X1799050Y1677026D1*
G1X1796580Y1677026D2*
G1X1789823Y1677026D1*
G1X1859490Y1677305D2*
G1X1853013Y1677305D1*
G1X1850543Y1677305D2*
G1X1839592Y1677305D1*
G1X1837122Y1677305D2*
G1X1835118Y1677305D1*
G1X1830412Y1677305D2*
G1X1826171Y1677305D1*
G1X1814474Y1677305D2*
G1X1812471Y1677305D1*
G1X1810001Y1677305D2*
G1X1799050Y1677305D1*
G1X1796580Y1677305D2*
G1X1789823Y1677305D1*
G1X1859490Y1677585D2*
G1X1853013Y1677585D1*
G1X1850543Y1677585D2*
G1X1839592Y1677585D1*
G1X1837122Y1677585D2*
G1X1835118Y1677585D1*
G1X1830412Y1677585D2*
G1X1826171Y1677585D1*
G1X1814474Y1677585D2*
G1X1812471Y1677585D1*
G1X1810001Y1677585D2*
G1X1799050Y1677585D1*
G1X1796580Y1677585D2*
G1X1789823Y1677585D1*
G1X1859490Y1677864D2*
G1X1853013Y1677864D1*
G1X1850543Y1677864D2*
G1X1839592Y1677864D1*
G1X1837122Y1677864D2*
G1X1835118Y1677864D1*
G1X1830412Y1677864D2*
G1X1826171Y1677864D1*
G1X1814474Y1677864D2*
G1X1812471Y1677864D1*
G1X1810001Y1677864D2*
G1X1799050Y1677864D1*
G1X1796580Y1677864D2*
G1X1789823Y1677864D1*
G1X1859490Y1678144D2*
G1X1853013Y1678144D1*
G1X1850543Y1678144D2*
G1X1839592Y1678144D1*
G1X1837122Y1678144D2*
G1X1835118Y1678144D1*
G1X1830412Y1678144D2*
G1X1826171Y1678144D1*
G1X1814474Y1678144D2*
G1X1812471Y1678144D1*
G1X1810001Y1678144D2*
G1X1799050Y1678144D1*
G1X1796580Y1678144D2*
G1X1789823Y1678144D1*
G1X1859490Y1678424D2*
G1X1853013Y1678424D1*
G1X1850543Y1678424D2*
G1X1839592Y1678424D1*
G1X1837122Y1678424D2*
G1X1835118Y1678424D1*
G1X1830412Y1678424D2*
G1X1826171Y1678424D1*
G1X1814474Y1678424D2*
G1X1812471Y1678424D1*
G1X1810001Y1678424D2*
G1X1799050Y1678424D1*
G1X1796580Y1678424D2*
G1X1789823Y1678424D1*
G1X1859490Y1678703D2*
G1X1853013Y1678703D1*
G1X1850543Y1678703D2*
G1X1839592Y1678703D1*
G1X1837122Y1678703D2*
G1X1835118Y1678703D1*
G1X1830412Y1678703D2*
G1X1826171Y1678703D1*
G1X1814474Y1678703D2*
G1X1812471Y1678703D1*
G1X1810001Y1678703D2*
G1X1799050Y1678703D1*
G1X1796580Y1678703D2*
G1X1789823Y1678703D1*
G1X1859490Y1678983D2*
G1X1853013Y1678983D1*
G1X1837122Y1678983D2*
G1X1826171Y1678983D1*
G1X1821185Y1678983D2*
G1X1816944Y1678983D1*
G1X1814474Y1678983D2*
G1X1812471Y1678983D1*
G1X1796580Y1678983D2*
G1X1789823Y1678983D1*
G1X1859490Y1679262D2*
G1X1853013Y1679262D1*
G1X1837122Y1679262D2*
G1X1826171Y1679262D1*
G1X1821185Y1679262D2*
G1X1816944Y1679262D1*
G1X1814474Y1679262D2*
G1X1812471Y1679262D1*
G1X1796580Y1679262D2*
G1X1789823Y1679262D1*
G1X1859490Y1679542D2*
G1X1853013Y1679542D1*
G1X1837122Y1679542D2*
G1X1826171Y1679542D1*
G1X1821185Y1679542D2*
G1X1816944Y1679542D1*
G1X1814474Y1679542D2*
G1X1812471Y1679542D1*
G1X1796580Y1679542D2*
G1X1789823Y1679542D1*
G1X1859490Y1679822D2*
G1X1853013Y1679822D1*
G1X1837122Y1679822D2*
G1X1826171Y1679822D1*
G1X1821185Y1679822D2*
G1X1816944Y1679822D1*
G1X1814474Y1679822D2*
G1X1812471Y1679822D1*
G1X1796580Y1679822D2*
G1X1789823Y1679822D1*
G1X1859490Y1680101D2*
G1X1853013Y1680101D1*
G1X1837122Y1680101D2*
G1X1826171Y1680101D1*
G1X1821185Y1680101D2*
G1X1816944Y1680101D1*
G1X1814474Y1680101D2*
G1X1812471Y1680101D1*
G1X1796580Y1680101D2*
G1X1789823Y1680101D1*
G1X1859490Y1680381D2*
G1X1853013Y1680381D1*
G1X1837122Y1680381D2*
G1X1826171Y1680381D1*
G1X1821185Y1680381D2*
G1X1816944Y1680381D1*
G1X1814474Y1680381D2*
G1X1812471Y1680381D1*
G1X1796580Y1680381D2*
G1X1789823Y1680381D1*
G1X1859490Y1680660D2*
G1X1853013Y1680660D1*
G1X1837122Y1680660D2*
G1X1826171Y1680660D1*
G1X1821185Y1680660D2*
G1X1816944Y1680660D1*
G1X1814474Y1680660D2*
G1X1812471Y1680660D1*
G1X1796580Y1680660D2*
G1X1789823Y1680660D1*
G1X1859490Y1680940D2*
G1X1853013Y1680940D1*
G1X1837122Y1680940D2*
G1X1826171Y1680940D1*
G1X1821185Y1680940D2*
G1X1816944Y1680940D1*
G1X1814474Y1680940D2*
G1X1812471Y1680940D1*
G1X1796580Y1680940D2*
G1X1789823Y1680940D1*
G1X1859490Y1681220D2*
G1X1789823Y1681220D1*
G1X1859490Y1681499D2*
G1X1789823Y1681499D1*
G1X1859490Y1681779D2*
G1X1789823Y1681779D1*
G1X1859490Y1682058D2*
G1X1789823Y1682058D1*
G1X1859490Y1682338D2*
G1X1789823Y1682338D1*
G1X1859490Y1682618D2*
G1X1789823Y1682618D1*
G1X1859490Y1682897D2*
G1X1789823Y1682897D1*
G1X1859490Y1683177D2*
G1X1789823Y1683177D1*
G1X1859490Y1683456D2*
G1X1789823Y1683456D1*
G1X1859490Y1683736D2*
G1X1789823Y1683736D1*
G1X1859490Y1684016D2*
G1X1789823Y1684016D1*
G1X1859490Y1684295D2*
G1X1789823Y1684295D1*
G1X1859490Y1684575D2*
G1X1789823Y1684575D1*
G1X1859490Y1684854D2*
G1X1789823Y1684854D1*
G1X1859490Y1685134D2*
G1X1789823Y1685134D1*
G1X1859490Y1685414D2*
G1X1789823Y1685414D1*
G1X1859490Y1685693D2*
G1X1789823Y1685693D1*
G1X1859490Y1685973D2*
G1X1789823Y1685973D1*
G1X1859490Y1686252D2*
G1X1789823Y1686252D1*
G1X1859490Y1686532D2*
G1X1789823Y1686532D1*
G1X1859490Y1686812D2*
G1X1789823Y1686812D1*
G1X1859490Y1687091D2*
G1X1789823Y1687091D1*
G1X1859490Y1687371D2*
G1X1789823Y1687371D1*
G1X1859490Y1687650D2*
G1X1789823Y1687650D1*
G1X1822388Y1720290D2*
G75*
G54D164*
G3X1822388Y1720290I-492J0D1*
G74*
G1X1824265Y1771737D2*
G54D165*
G1X1823163Y1771737D1*
G1X1823163Y1771245D1*
G1X1821076Y1771245D1*
G1X1821076Y1771737D1*
G1X1819935Y1771737D1*
G1X1819935Y1763863D1*
G1X1824265Y1763863D1*
G1X1824265Y1771737D1*
G1X1866265Y1746737D2*
G1X1865163Y1746737D1*
G1X1865163Y1746245D1*
G1X1863076Y1746245D1*
G1X1863076Y1746737D1*
G1X1861935Y1746737D1*
G1X1861935Y1738863D1*
G1X1866265Y1738863D1*
G1X1866265Y1746737D1*
G1X1776964Y1741566D2*
G1X1777123Y1742003D1*
G1X1777441Y1742441D1*
G1X1777759Y1742659D1*
G1X1778395Y1742659D1*
G1X1778714Y1742441D1*
G1X1779032Y1742003D1*
G1X1779191Y1741566D1*
G1X1779350Y1740909D1*
G1X1779350Y1739816D1*
G1X1779191Y1739159D1*
G1X1779032Y1738722D1*
G1X1778714Y1738284D1*
G1X1778395Y1738066D1*
G1X1777759Y1738066D1*
G1X1777441Y1738284D1*
G1X1777123Y1738722D1*
G1X1776964Y1739159D1*
G1X1775373Y1741566D2*
G1X1775373Y1741784D1*
G1X1775214Y1742222D1*
G1X1775055Y1742441D1*
G1X1774736Y1742659D1*
G1X1774100Y1742659D1*
G1X1773782Y1742441D1*
G1X1773623Y1742222D1*
G1X1773464Y1741784D1*
G1X1773464Y1741347D1*
G1X1773623Y1740909D1*
G1X1773941Y1740253D1*
G1X1775532Y1738066D1*
G1X1773305Y1738066D1*
G1X1770282Y1742659D2*
G1X1771873Y1739597D1*
G1X1769486Y1739597D1*
G1X1770282Y1742659D2*
G1X1770282Y1738066D1*
G1X1879774Y1764936D2*
G1X1879933Y1765373D1*
G1X1880251Y1765811D1*
G1X1880570Y1766029D1*
G1X1881206Y1766029D1*
G1X1881524Y1765811D1*
G1X1881842Y1765373D1*
G1X1882001Y1764936D1*
G1X1882160Y1764279D1*
G1X1882160Y1763186D1*
G1X1882001Y1762529D1*
G1X1881842Y1762092D1*
G1X1881524Y1761654D1*
G1X1881206Y1761436D1*
G1X1880570Y1761436D1*
G1X1880251Y1761654D1*
G1X1879933Y1762092D1*
G1X1879774Y1762529D1*
G1X1878024Y1766029D2*
G1X1876274Y1766029D1*
G1X1877229Y1764279D1*
G1X1876751Y1764279D1*
G1X1876433Y1764061D1*
G1X1876274Y1763842D1*
G1X1876115Y1763186D1*
G1X1876115Y1762748D1*
G1X1876274Y1762092D1*
G1X1876592Y1761654D1*
G1X1877070Y1761436D1*
G1X1877547Y1761436D1*
G1X1878024Y1761654D1*
G1X1878183Y1761873D1*
G1X1878342Y1762311D1*
G1X1874365Y1766029D2*
G1X1872615Y1766029D1*
G1X1873570Y1764279D1*
G1X1873092Y1764279D1*
G1X1872774Y1764061D1*
G1X1872615Y1763842D1*
G1X1872456Y1763186D1*
G1X1872456Y1762748D1*
G1X1872615Y1762092D1*
G1X1872933Y1761654D1*
G1X1873410Y1761436D1*
G1X1873888Y1761436D1*
G1X1874365Y1761654D1*
G1X1874524Y1761873D1*
G1X1874683Y1762311D1*
G1X1735459Y1632725D2*
G1X1730866Y1632725D1*
G1X1735459Y1632725D2*
G1X1735459Y1634157D1*
G1X1735241Y1634634D1*
G1X1735022Y1634793D1*
G1X1734584Y1634952D1*
G1X1734147Y1634952D1*
G1X1733709Y1634793D1*
G1X1733491Y1634634D1*
G1X1733272Y1634157D1*
G1X1733272Y1632725D1*
G1X1733272Y1633839D2*
G1X1730866Y1634952D1*
G1X1734584Y1636384D2*
G1X1734803Y1636702D1*
G1X1735459Y1637180D1*
G1X1730866Y1637180D1*
G1X1734366Y1638770D2*
G1X1734584Y1638770D1*
G1X1735022Y1638930D1*
G1X1735241Y1639089D1*
G1X1735459Y1639407D1*
G1X1735459Y1640043D1*
G1X1735241Y1640361D1*
G1X1735022Y1640520D1*
G1X1734584Y1640680D1*
G1X1734147Y1640680D1*
G1X1733709Y1640520D1*
G1X1733053Y1640202D1*
G1X1730866Y1638611D1*
G1X1730866Y1640839D1*
G1X1744459Y1632925D2*
G1X1739866Y1632925D1*
G1X1744459Y1632925D2*
G1X1744459Y1634357D1*
G1X1744241Y1634834D1*
G1X1744022Y1634993D1*
G1X1743584Y1635152D1*
G1X1743147Y1635152D1*
G1X1742709Y1634993D1*
G1X1742491Y1634834D1*
G1X1742272Y1634357D1*
G1X1742272Y1632925D1*
G1X1742272Y1634039D2*
G1X1739866Y1635152D1*
G1X1743584Y1636584D2*
G1X1743803Y1636902D1*
G1X1744459Y1637380D1*
G1X1739866Y1637380D1*
G1X1744459Y1639130D2*
G1X1744459Y1640880D1*
G1X1742709Y1639925D1*
G1X1742709Y1640402D1*
G1X1742491Y1640720D1*
G1X1742272Y1640880D1*
G1X1741616Y1641039D1*
G1X1741178Y1641039D1*
G1X1740522Y1640880D1*
G1X1740084Y1640561D1*
G1X1739866Y1640084D1*
G1X1739866Y1639607D1*
G1X1740084Y1639130D1*
G1X1740303Y1638970D1*
G1X1740741Y1638811D1*
G1X1788075Y1692259D2*
G1X1788075Y1687666D1*
G1X1788075Y1692259D2*
G1X1786643Y1692259D1*
G1X1786166Y1692041D1*
G1X1786007Y1691822D1*
G1X1785848Y1691384D1*
G1X1785848Y1690947D1*
G1X1786007Y1690509D1*
G1X1786166Y1690291D1*
G1X1786643Y1690072D1*
G1X1788075Y1690072D1*
G1X1786961Y1690072D2*
G1X1785848Y1687666D1*
G1X1784416Y1691384D2*
G1X1784098Y1691603D1*
G1X1783620Y1692259D1*
G1X1783620Y1687666D1*
G1X1781393Y1692259D2*
G1X1781870Y1692041D1*
G1X1782030Y1691603D1*
G1X1782030Y1691166D1*
G1X1781870Y1690728D1*
G1X1781552Y1690509D1*
G1X1780916Y1690291D1*
G1X1780439Y1690072D1*
G1X1780120Y1689634D1*
G1X1779961Y1689197D1*
G1X1779961Y1688541D1*
G1X1780120Y1688103D1*
G1X1780280Y1687884D1*
G1X1780757Y1687666D1*
G1X1781393Y1687666D1*
G1X1781870Y1687884D1*
G1X1782030Y1688103D1*
G1X1782189Y1688541D1*
G1X1782189Y1689197D1*
G1X1782030Y1689634D1*
G1X1781711Y1690072D1*
G1X1781234Y1690291D1*
G1X1780598Y1690509D1*
G1X1780280Y1690728D1*
G1X1780120Y1691166D1*
G1X1780120Y1691603D1*
G1X1780280Y1692041D1*
G1X1780757Y1692259D1*
G1X1781393Y1692259D1*
G1X1779061Y1748659D2*
G1X1779061Y1744066D1*
G1X1779061Y1748659D2*
G1X1777630Y1748659D1*
G1X1777152Y1748441D1*
G1X1776993Y1748222D1*
G1X1776834Y1747784D1*
G1X1776834Y1747347D1*
G1X1776993Y1746909D1*
G1X1777152Y1746691D1*
G1X1777630Y1746472D1*
G1X1779061Y1746472D1*
G1X1777948Y1746472D2*
G1X1776834Y1744066D1*
G1X1775243Y1747566D2*
G1X1775243Y1747784D1*
G1X1775084Y1748222D1*
G1X1774925Y1748441D1*
G1X1774607Y1748659D1*
G1X1773970Y1748659D1*
G1X1773652Y1748441D1*
G1X1773493Y1748222D1*
G1X1773334Y1747784D1*
G1X1773334Y1747347D1*
G1X1773493Y1746909D1*
G1X1773811Y1746253D1*
G1X1775402Y1744066D1*
G1X1773175Y1744066D1*
G1X1754459Y1632009D2*
G1X1749866Y1632009D1*
G1X1754459Y1632009D2*
G1X1754459Y1633441D1*
G1X1754241Y1633918D1*
G1X1754022Y1634077D1*
G1X1753584Y1634236D1*
G1X1753147Y1634236D1*
G1X1752709Y1634077D1*
G1X1752491Y1633918D1*
G1X1752272Y1633441D1*
G1X1752272Y1632009D1*
G1X1752272Y1633123D2*
G1X1749866Y1634236D1*
G1X1753366Y1635827D2*
G1X1753584Y1635827D1*
G1X1754022Y1635986D1*
G1X1754241Y1636145D1*
G1X1754459Y1636464D1*
G1X1754459Y1637100D1*
G1X1754241Y1637418D1*
G1X1754022Y1637577D1*
G1X1753584Y1637736D1*
G1X1753147Y1637736D1*
G1X1752709Y1637577D1*
G1X1752053Y1637259D1*
G1X1749866Y1635668D1*
G1X1749866Y1637895D1*
G1X1754459Y1640282D2*
G1X1754241Y1639805D1*
G1X1753584Y1639486D1*
G1X1752491Y1639327D1*
G1X1751834Y1639327D1*
G1X1750741Y1639486D1*
G1X1750084Y1639805D1*
G1X1749866Y1640282D1*
G1X1749866Y1640600D1*
G1X1750084Y1641077D1*
G1X1750741Y1641395D1*
G1X1751834Y1641555D1*
G1X1752491Y1641555D1*
G1X1753584Y1641395D1*
G1X1754241Y1641077D1*
G1X1754459Y1640600D1*
G1X1754459Y1640282D1*
G1X1764459Y1632509D2*
G1X1759866Y1632509D1*
G1X1764459Y1632509D2*
G1X1764459Y1633941D1*
G1X1764241Y1634418D1*
G1X1764022Y1634577D1*
G1X1763584Y1634736D1*
G1X1763147Y1634736D1*
G1X1762709Y1634577D1*
G1X1762491Y1634418D1*
G1X1762272Y1633941D1*
G1X1762272Y1632509D1*
G1X1762272Y1633623D2*
G1X1759866Y1634736D1*
G1X1763366Y1636327D2*
G1X1763584Y1636327D1*
G1X1764022Y1636486D1*
G1X1764241Y1636645D1*
G1X1764459Y1636964D1*
G1X1764459Y1637600D1*
G1X1764241Y1637918D1*
G1X1764022Y1638077D1*
G1X1763584Y1638236D1*
G1X1763147Y1638236D1*
G1X1762709Y1638077D1*
G1X1762053Y1637759D1*
G1X1759866Y1636168D1*
G1X1759866Y1638395D1*
G1X1763366Y1639986D2*
G1X1763584Y1639986D1*
G1X1764022Y1640145D1*
G1X1764241Y1640305D1*
G1X1764459Y1640623D1*
G1X1764459Y1641259D1*
G1X1764241Y1641577D1*
G1X1764022Y1641736D1*
G1X1763584Y1641895D1*
G1X1763147Y1641895D1*
G1X1762709Y1641736D1*
G1X1762053Y1641418D1*
G1X1759866Y1639827D1*
G1X1759866Y1642055D1*
G1X1787131Y1790159D2*
G1X1787131Y1785566D1*
G1X1787131Y1790159D2*
G1X1785700Y1790159D1*
G1X1785222Y1789941D1*
G1X1785063Y1789722D1*
G1X1784904Y1789284D1*
G1X1784904Y1788847D1*
G1X1785063Y1788409D1*
G1X1785222Y1788191D1*
G1X1785700Y1787972D1*
G1X1787131Y1787972D1*
G1X1786018Y1787972D2*
G1X1784904Y1785566D1*
G1X1782677Y1790159D2*
G1X1783154Y1789941D1*
G1X1783313Y1789503D1*
G1X1783313Y1789066D1*
G1X1783154Y1788628D1*
G1X1782836Y1788409D1*
G1X1782200Y1788191D1*
G1X1781722Y1787972D1*
G1X1781404Y1787534D1*
G1X1781245Y1787097D1*
G1X1781245Y1786441D1*
G1X1781404Y1786003D1*
G1X1781563Y1785784D1*
G1X1782040Y1785566D1*
G1X1782677Y1785566D1*
G1X1783154Y1785784D1*
G1X1783313Y1786003D1*
G1X1783472Y1786441D1*
G1X1783472Y1787097D1*
G1X1783313Y1787534D1*
G1X1782995Y1787972D1*
G1X1782518Y1788191D1*
G1X1781881Y1788409D1*
G1X1781563Y1788628D1*
G1X1781404Y1789066D1*
G1X1781404Y1789503D1*
G1X1781563Y1789941D1*
G1X1782040Y1790159D1*
G1X1782677Y1790159D1*
G1X1823340Y1789549D2*
G1X1823340Y1784956D1*
G1X1823340Y1789549D2*
G1X1821909Y1789549D1*
G1X1821431Y1789331D1*
G1X1821272Y1789112D1*
G1X1821113Y1788674D1*
G1X1821113Y1788237D1*
G1X1821272Y1787799D1*
G1X1821431Y1787581D1*
G1X1821909Y1787362D1*
G1X1823340Y1787362D1*
G1X1822227Y1787362D2*
G1X1821113Y1784956D1*
G1X1819522Y1788456D2*
G1X1819522Y1788674D1*
G1X1819363Y1789112D1*
G1X1819204Y1789331D1*
G1X1818886Y1789549D1*
G1X1818250Y1789549D1*
G1X1817931Y1789331D1*
G1X1817772Y1789112D1*
G1X1817613Y1788674D1*
G1X1817613Y1788237D1*
G1X1817772Y1787799D1*
G1X1818090Y1787143D1*
G1X1819681Y1784956D1*
G1X1817454Y1784956D1*
G1X1813954Y1789549D2*
G1X1815545Y1789549D1*
G1X1815704Y1787581D1*
G1X1815545Y1787799D1*
G1X1815068Y1788018D1*
G1X1814590Y1788018D1*
G1X1814113Y1787799D1*
G1X1813795Y1787362D1*
G1X1813636Y1786706D1*
G1X1813795Y1786268D1*
G1X1813954Y1785612D1*
G1X1814272Y1785174D1*
G1X1814750Y1784956D1*
G1X1815227Y1784956D1*
G1X1815704Y1785174D1*
G1X1815863Y1785393D1*
G1X1816022Y1785831D1*
G1X1802964Y1760066D2*
G1X1803123Y1760503D1*
G1X1803441Y1760941D1*
G1X1803759Y1761159D1*
G1X1804395Y1761159D1*
G1X1804714Y1760941D1*
G1X1805032Y1760503D1*
G1X1805191Y1760066D1*
G1X1805350Y1759409D1*
G1X1805350Y1758316D1*
G1X1805191Y1757659D1*
G1X1805032Y1757222D1*
G1X1804714Y1756784D1*
G1X1804395Y1756566D1*
G1X1803759Y1756566D1*
G1X1803441Y1756784D1*
G1X1803123Y1757222D1*
G1X1802964Y1757659D1*
G1X1801373Y1760066D2*
G1X1801373Y1760284D1*
G1X1801214Y1760722D1*
G1X1801055Y1760941D1*
G1X1800736Y1761159D1*
G1X1800100Y1761159D1*
G1X1799782Y1760941D1*
G1X1799623Y1760722D1*
G1X1799464Y1760284D1*
G1X1799464Y1759847D1*
G1X1799623Y1759409D1*
G1X1799941Y1758753D1*
G1X1801532Y1756566D1*
G1X1799305Y1756566D1*
G1X1795805Y1761159D2*
G1X1797395Y1761159D1*
G1X1797555Y1759191D1*
G1X1797395Y1759409D1*
G1X1796918Y1759628D1*
G1X1796441Y1759628D1*
G1X1795964Y1759409D1*
G1X1795645Y1758972D1*
G1X1795486Y1758316D1*
G1X1795645Y1757878D1*
G1X1795805Y1757222D1*
G1X1796123Y1756784D1*
G1X1796600Y1756566D1*
G1X1797077Y1756566D1*
G1X1797555Y1756784D1*
G1X1797714Y1757003D1*
G1X1797873Y1757441D1*
G1X1807306Y1748004D2*
G1X1807306Y1743410D1*
G1X1808420Y1748004D2*
G1X1806193Y1748004D1*
G1X1804761Y1748004D2*
G1X1804761Y1743410D1*
G1X1804761Y1748004D2*
G1X1803329Y1748004D1*
G1X1802852Y1747785D1*
G1X1802693Y1747566D1*
G1X1802534Y1747129D1*
G1X1802534Y1746473D1*
G1X1802693Y1746035D1*
G1X1802852Y1745816D1*
G1X1803329Y1745598D1*
G1X1804761Y1745598D1*
G1X1800784Y1748004D2*
G1X1799034Y1748004D1*
G1X1799988Y1746254D1*
G1X1799511Y1746254D1*
G1X1799193Y1746035D1*
G1X1799034Y1745816D1*
G1X1798875Y1745160D1*
G1X1798875Y1744723D1*
G1X1799034Y1744066D1*
G1X1799352Y1743629D1*
G1X1799829Y1743410D1*
G1X1800306Y1743410D1*
G1X1800784Y1743629D1*
G1X1800943Y1743848D1*
G1X1801102Y1744285D1*
G1X1807146Y1741264D2*
G1X1807146Y1736670D1*
G1X1808260Y1741264D2*
G1X1806033Y1741264D1*
G1X1804601Y1741264D2*
G1X1804601Y1736670D1*
G1X1804601Y1741264D2*
G1X1803169Y1741264D1*
G1X1802692Y1741045D1*
G1X1802533Y1740826D1*
G1X1802374Y1740389D1*
G1X1802374Y1739733D1*
G1X1802533Y1739295D1*
G1X1802692Y1739076D1*
G1X1803169Y1738858D1*
G1X1804601Y1738858D1*
G1X1799351Y1741264D2*
G1X1800942Y1738201D1*
G1X1798555Y1738201D1*
G1X1799351Y1741264D2*
G1X1799351Y1736670D1*
G1X1766259Y1724159D2*
G1X1766259Y1719566D1*
G1X1766259Y1724159D2*
G1X1764827Y1724159D1*
G1X1764350Y1723941D1*
G1X1764191Y1723722D1*
G1X1764032Y1723284D1*
G1X1764032Y1722847D1*
G1X1764191Y1722409D1*
G1X1764350Y1722191D1*
G1X1764827Y1721972D1*
G1X1766259Y1721972D1*
G1X1765145Y1721972D2*
G1X1764032Y1719566D1*
G1X1762600Y1723284D2*
G1X1762282Y1723503D1*
G1X1761805Y1724159D1*
G1X1761805Y1719566D1*
G1X1760373Y1723284D2*
G1X1760055Y1723503D1*
G1X1759577Y1724159D1*
G1X1759577Y1719566D1*
G1X1770825Y1770809D2*
G1X1770825Y1766216D1*
G1X1770825Y1770809D2*
G1X1769393Y1770809D1*
G1X1768916Y1770591D1*
G1X1768757Y1770372D1*
G1X1768598Y1769934D1*
G1X1768598Y1769497D1*
G1X1768757Y1769059D1*
G1X1768916Y1768841D1*
G1X1769393Y1768622D1*
G1X1770825Y1768622D1*
G1X1769711Y1768622D2*
G1X1768598Y1766216D1*
G1X1766848Y1770809D2*
G1X1765098Y1770809D1*
G1X1766052Y1769059D1*
G1X1765575Y1769059D1*
G1X1765257Y1768841D1*
G1X1765098Y1768622D1*
G1X1764939Y1767966D1*
G1X1764939Y1767528D1*
G1X1765098Y1766872D1*
G1X1765416Y1766434D1*
G1X1765893Y1766216D1*
G1X1766370Y1766216D1*
G1X1766848Y1766434D1*
G1X1767007Y1766653D1*
G1X1767166Y1767091D1*
G1X1763507Y1769934D2*
G1X1763189Y1770153D1*
G1X1762711Y1770809D1*
G1X1762711Y1766216D1*
G1X1708281Y1776379D2*
G1X1708281Y1771786D1*
G1X1708281Y1776379D2*
G1X1706849Y1776379D1*
G1X1706372Y1776161D1*
G1X1706213Y1775942D1*
G1X1706054Y1775504D1*
G1X1706054Y1775067D1*
G1X1706213Y1774629D1*
G1X1706372Y1774411D1*
G1X1706849Y1774192D1*
G1X1708281Y1774192D1*
G1X1707167Y1774192D2*
G1X1706054Y1771786D1*
G1X1704304Y1776379D2*
G1X1702554Y1776379D1*
G1X1703508Y1774629D1*
G1X1703031Y1774629D1*
G1X1702713Y1774411D1*
G1X1702554Y1774192D1*
G1X1702395Y1773536D1*
G1X1702395Y1773098D1*
G1X1702554Y1772442D1*
G1X1702872Y1772004D1*
G1X1703349Y1771786D1*
G1X1703826Y1771786D1*
G1X1704304Y1772004D1*
G1X1704463Y1772223D1*
G1X1704622Y1772661D1*
G1X1700804Y1775286D2*
G1X1700804Y1775504D1*
G1X1700645Y1775942D1*
G1X1700485Y1776161D1*
G1X1700167Y1776379D1*
G1X1699531Y1776379D1*
G1X1699213Y1776161D1*
G1X1699054Y1775942D1*
G1X1698895Y1775504D1*
G1X1698895Y1775067D1*
G1X1699054Y1774629D1*
G1X1699372Y1773973D1*
G1X1700963Y1771786D1*
G1X1698735Y1771786D1*
G1X1705555Y1768176D2*
G1X1705714Y1768613D1*
G1X1706032Y1769051D1*
G1X1706350Y1769269D1*
G1X1706986Y1769269D1*
G1X1707305Y1769051D1*
G1X1707623Y1768613D1*
G1X1707782Y1768176D1*
G1X1707941Y1767519D1*
G1X1707941Y1766426D1*
G1X1707782Y1765769D1*
G1X1707623Y1765332D1*
G1X1707305Y1764894D1*
G1X1706986Y1764676D1*
G1X1706350Y1764676D1*
G1X1706032Y1764894D1*
G1X1705714Y1765332D1*
G1X1705555Y1765769D1*
G1X1703964Y1768176D2*
G1X1703964Y1768394D1*
G1X1703805Y1768832D1*
G1X1703645Y1769051D1*
G1X1703327Y1769269D1*
G1X1702691Y1769269D1*
G1X1702373Y1769051D1*
G1X1702214Y1768832D1*
G1X1702055Y1768394D1*
G1X1702055Y1767957D1*
G1X1702214Y1767519D1*
G1X1702532Y1766863D1*
G1X1704123Y1764676D1*
G1X1701895Y1764676D1*
G1X1698395Y1767738D2*
G1X1698555Y1767082D1*
G1X1698873Y1766644D1*
G1X1699350Y1766426D1*
G1X1699509Y1766426D1*
G1X1699986Y1766644D1*
G1X1700305Y1767082D1*
G1X1700464Y1767738D1*
G1X1700464Y1767957D1*
G1X1700305Y1768613D1*
G1X1699986Y1769051D1*
G1X1699509Y1769269D1*
G1X1699350Y1769269D1*
G1X1698873Y1769051D1*
G1X1698555Y1768613D1*
G1X1698395Y1767738D1*
G1X1698395Y1766644D1*
G1X1698555Y1765551D1*
G1X1698873Y1764894D1*
G1X1699350Y1764676D1*
G1X1699668Y1764676D1*
G1X1700145Y1764894D1*
G1X1700305Y1765332D1*
G1X1751434Y1750916D2*
G1X1751593Y1751353D1*
G1X1751911Y1751791D1*
G1X1752230Y1752009D1*
G1X1752866Y1752009D1*
G1X1753184Y1751791D1*
G1X1753502Y1751353D1*
G1X1753661Y1750916D1*
G1X1753820Y1750259D1*
G1X1753820Y1749166D1*
G1X1753661Y1748509D1*
G1X1753502Y1748072D1*
G1X1753184Y1747634D1*
G1X1752866Y1747416D1*
G1X1752230Y1747416D1*
G1X1751911Y1747634D1*
G1X1751593Y1748072D1*
G1X1751434Y1748509D1*
G1X1749684Y1752009D2*
G1X1747934Y1752009D1*
G1X1748889Y1750259D1*
G1X1748411Y1750259D1*
G1X1748093Y1750041D1*
G1X1747934Y1749822D1*
G1X1747775Y1749166D1*
G1X1747775Y1748728D1*
G1X1747934Y1748072D1*
G1X1748252Y1747634D1*
G1X1748730Y1747416D1*
G1X1749207Y1747416D1*
G1X1749684Y1747634D1*
G1X1749843Y1747853D1*
G1X1750002Y1748291D1*
G1X1745389Y1752009D2*
G1X1745866Y1751791D1*
G1X1746184Y1751134D1*
G1X1746343Y1750041D1*
G1X1746343Y1749384D1*
G1X1746184Y1748291D1*
G1X1745866Y1747634D1*
G1X1745389Y1747416D1*
G1X1745070Y1747416D1*
G1X1744593Y1747634D1*
G1X1744275Y1748291D1*
G1X1744116Y1749384D1*
G1X1744116Y1750041D1*
G1X1744275Y1751134D1*
G1X1744593Y1751791D1*
G1X1745070Y1752009D1*
G1X1745389Y1752009D1*
G1X1750318Y1733716D2*
G1X1750477Y1734153D1*
G1X1750795Y1734591D1*
G1X1751114Y1734809D1*
G1X1751750Y1734809D1*
G1X1752068Y1734591D1*
G1X1752386Y1734153D1*
G1X1752545Y1733716D1*
G1X1752705Y1733059D1*
G1X1752705Y1731966D1*
G1X1752545Y1731309D1*
G1X1752386Y1730872D1*
G1X1752068Y1730434D1*
G1X1751750Y1730216D1*
G1X1751114Y1730216D1*
G1X1750795Y1730434D1*
G1X1750477Y1730872D1*
G1X1750318Y1731309D1*
G1X1748568Y1734809D2*
G1X1746818Y1734809D1*
G1X1747773Y1733059D1*
G1X1747295Y1733059D1*
G1X1746977Y1732841D1*
G1X1746818Y1732622D1*
G1X1746659Y1731966D1*
G1X1746659Y1731528D1*
G1X1746818Y1730872D1*
G1X1747136Y1730434D1*
G1X1747614Y1730216D1*
G1X1748091Y1730216D1*
G1X1748568Y1730434D1*
G1X1748727Y1730653D1*
G1X1748886Y1731091D1*
G1X1745227Y1733934D2*
G1X1744909Y1734153D1*
G1X1744432Y1734809D1*
G1X1744432Y1730216D1*
G1X1802764Y1768106D2*
G1X1802923Y1768543D1*
G1X1803241Y1768981D1*
G1X1803560Y1769199D1*
G1X1804196Y1769199D1*
G1X1804514Y1768981D1*
G1X1804832Y1768543D1*
G1X1804991Y1768106D1*
G1X1805150Y1767449D1*
G1X1805150Y1766356D1*
G1X1804991Y1765699D1*
G1X1804832Y1765262D1*
G1X1804514Y1764824D1*
G1X1804196Y1764606D1*
G1X1803560Y1764606D1*
G1X1803241Y1764824D1*
G1X1802923Y1765262D1*
G1X1802764Y1765699D1*
G1X1801014Y1769199D2*
G1X1799264Y1769199D1*
G1X1800219Y1767449D1*
G1X1799741Y1767449D1*
G1X1799423Y1767231D1*
G1X1799264Y1767012D1*
G1X1799105Y1766356D1*
G1X1799105Y1765918D1*
G1X1799264Y1765262D1*
G1X1799582Y1764824D1*
G1X1800060Y1764606D1*
G1X1800537Y1764606D1*
G1X1801014Y1764824D1*
G1X1801173Y1765043D1*
G1X1801332Y1765481D1*
G1X1797514Y1768106D2*
G1X1797514Y1768324D1*
G1X1797355Y1768762D1*
G1X1797196Y1768981D1*
G1X1796878Y1769199D1*
G1X1796241Y1769199D1*
G1X1795923Y1768981D1*
G1X1795764Y1768762D1*
G1X1795605Y1768324D1*
G1X1795605Y1767887D1*
G1X1795764Y1767449D1*
G1X1796082Y1766793D1*
G1X1797673Y1764606D1*
G1X1795446Y1764606D1*
G1X1835544Y1782646D2*
G1X1835703Y1783083D1*
G1X1836021Y1783521D1*
G1X1836339Y1783739D1*
G1X1836975Y1783739D1*
G1X1837294Y1783521D1*
G1X1837612Y1783083D1*
G1X1837771Y1782646D1*
G1X1837930Y1781989D1*
G1X1837930Y1780896D1*
G1X1837771Y1780239D1*
G1X1837612Y1779802D1*
G1X1837294Y1779364D1*
G1X1836975Y1779146D1*
G1X1836339Y1779146D1*
G1X1836021Y1779364D1*
G1X1835703Y1779802D1*
G1X1835544Y1780239D1*
G1X1833794Y1783739D2*
G1X1832044Y1783739D1*
G1X1832998Y1781989D1*
G1X1832521Y1781989D1*
G1X1832203Y1781771D1*
G1X1832044Y1781552D1*
G1X1831885Y1780896D1*
G1X1831885Y1780458D1*
G1X1832044Y1779802D1*
G1X1832362Y1779364D1*
G1X1832839Y1779146D1*
G1X1833316Y1779146D1*
G1X1833794Y1779364D1*
G1X1833953Y1779583D1*
G1X1834112Y1780021D1*
G1X1828862Y1783739D2*
G1X1830453Y1780677D1*
G1X1828066Y1780677D1*
G1X1828862Y1783739D2*
G1X1828862Y1779146D1*
G1X1801175Y1703816D2*
G1X1801334Y1704253D1*
G1X1801652Y1704691D1*
G1X1801970Y1704909D1*
G1X1802606Y1704909D1*
G1X1802925Y1704691D1*
G1X1803243Y1704253D1*
G1X1803402Y1703816D1*
G1X1803561Y1703159D1*
G1X1803561Y1702066D1*
G1X1803402Y1701409D1*
G1X1803243Y1700972D1*
G1X1802925Y1700534D1*
G1X1802606Y1700316D1*
G1X1801970Y1700316D1*
G1X1801652Y1700534D1*
G1X1801334Y1700972D1*
G1X1801175Y1701409D1*
G1X1798947Y1704909D2*
G1X1799425Y1704691D1*
G1X1799584Y1704253D1*
G1X1799584Y1703816D1*
G1X1799425Y1703378D1*
G1X1799106Y1703159D1*
G1X1798470Y1702941D1*
G1X1797993Y1702722D1*
G1X1797675Y1702284D1*
G1X1797515Y1701847D1*
G1X1797515Y1701191D1*
G1X1797675Y1700753D1*
G1X1797834Y1700534D1*
G1X1798311Y1700316D1*
G1X1798947Y1700316D1*
G1X1799425Y1700534D1*
G1X1799584Y1700753D1*
G1X1799743Y1701191D1*
G1X1799743Y1701847D1*
G1X1799584Y1702284D1*
G1X1799265Y1702722D1*
G1X1798788Y1702941D1*
G1X1798152Y1703159D1*
G1X1797834Y1703378D1*
G1X1797675Y1703816D1*
G1X1797675Y1704253D1*
G1X1797834Y1704691D1*
G1X1798311Y1704909D1*
G1X1798947Y1704909D1*
G1X1856555Y1757659D2*
G1X1856555Y1753066D1*
G1X1856555Y1757659D2*
G1X1855123Y1757659D1*
G1X1854645Y1757441D1*
G1X1854486Y1757222D1*
G1X1854327Y1756784D1*
G1X1854327Y1756347D1*
G1X1854486Y1755909D1*
G1X1854645Y1755691D1*
G1X1855123Y1755472D1*
G1X1856555Y1755472D1*
G1X1855441Y1755472D2*
G1X1854327Y1753066D1*
G1X1852895Y1756784D2*
G1X1852577Y1757003D1*
G1X1852100Y1757659D1*
G1X1852100Y1753066D1*
G1X1848600Y1757659D2*
G1X1850191Y1757659D1*
G1X1850350Y1755691D1*
G1X1850191Y1755909D1*
G1X1849714Y1756128D1*
G1X1849236Y1756128D1*
G1X1848759Y1755909D1*
G1X1848441Y1755472D1*
G1X1848282Y1754816D1*
G1X1848441Y1754378D1*
G1X1848600Y1753722D1*
G1X1848918Y1753284D1*
G1X1849395Y1753066D1*
G1X1849873Y1753066D1*
G1X1850350Y1753284D1*
G1X1850509Y1753503D1*
G1X1850668Y1753941D1*
G1X1857691Y1751659D2*
G1X1857691Y1747066D1*
G1X1857691Y1751659D2*
G1X1856259Y1751659D1*
G1X1855782Y1751441D1*
G1X1855623Y1751222D1*
G1X1855464Y1750784D1*
G1X1855464Y1750347D1*
G1X1855623Y1749909D1*
G1X1855782Y1749691D1*
G1X1856259Y1749472D1*
G1X1857691Y1749472D1*
G1X1856577Y1749472D2*
G1X1855464Y1747066D1*
G1X1853714Y1751659D2*
G1X1851964Y1751659D1*
G1X1852918Y1749909D1*
G1X1852441Y1749909D1*
G1X1852123Y1749691D1*
G1X1851964Y1749472D1*
G1X1851805Y1748816D1*
G1X1851805Y1748378D1*
G1X1851964Y1747722D1*
G1X1852282Y1747284D1*
G1X1852759Y1747066D1*
G1X1853236Y1747066D1*
G1X1853714Y1747284D1*
G1X1853873Y1747503D1*
G1X1854032Y1747941D1*
G1X1850055Y1751659D2*
G1X1848305Y1751659D1*
G1X1849259Y1749909D1*
G1X1848782Y1749909D1*
G1X1848464Y1749691D1*
G1X1848305Y1749472D1*
G1X1848145Y1748816D1*
G1X1848145Y1748378D1*
G1X1848305Y1747722D1*
G1X1848623Y1747284D1*
G1X1849100Y1747066D1*
G1X1849577Y1747066D1*
G1X1850055Y1747284D1*
G1X1850214Y1747503D1*
G1X1850373Y1747941D1*
G1X1846470Y1740159D2*
G1X1846470Y1735566D1*
G1X1846470Y1740159D2*
G1X1845039Y1740159D1*
G1X1844561Y1739941D1*
G1X1844402Y1739722D1*
G1X1844243Y1739284D1*
G1X1844243Y1738847D1*
G1X1844402Y1738409D1*
G1X1844561Y1738191D1*
G1X1845039Y1737972D1*
G1X1846470Y1737972D1*
G1X1845357Y1737972D2*
G1X1844243Y1735566D1*
G1X1842493Y1740159D2*
G1X1840743Y1740159D1*
G1X1841698Y1738409D1*
G1X1841220Y1738409D1*
G1X1840902Y1738191D1*
G1X1840743Y1737972D1*
G1X1840584Y1737316D1*
G1X1840584Y1736878D1*
G1X1840743Y1736222D1*
G1X1841061Y1735784D1*
G1X1841539Y1735566D1*
G1X1842016Y1735566D1*
G1X1842493Y1735784D1*
G1X1842652Y1736003D1*
G1X1842811Y1736441D1*
G1X1837561Y1740159D2*
G1X1839152Y1737097D1*
G1X1836766Y1737097D1*
G1X1837561Y1740159D2*
G1X1837561Y1735566D1*
G1X1870240Y1723959D2*
G1X1870240Y1719366D1*
G1X1870240Y1723959D2*
G1X1868809Y1723959D1*
G1X1868331Y1723741D1*
G1X1868172Y1723522D1*
G1X1868013Y1723084D1*
G1X1868013Y1722647D1*
G1X1868172Y1722209D1*
G1X1868331Y1721991D1*
G1X1868809Y1721772D1*
G1X1870240Y1721772D1*
G1X1869127Y1721772D2*
G1X1868013Y1719366D1*
G1X1866263Y1723959D2*
G1X1864513Y1723959D1*
G1X1865468Y1722209D1*
G1X1864990Y1722209D1*
G1X1864672Y1721991D1*
G1X1864513Y1721772D1*
G1X1864354Y1721116D1*
G1X1864354Y1720678D1*
G1X1864513Y1720022D1*
G1X1864831Y1719584D1*
G1X1865309Y1719366D1*
G1X1865786Y1719366D1*
G1X1866263Y1719584D1*
G1X1866422Y1719803D1*
G1X1866581Y1720241D1*
G1X1860854Y1723959D2*
G1X1862445Y1723959D1*
G1X1862604Y1721991D1*
G1X1862445Y1722209D1*
G1X1861968Y1722428D1*
G1X1861490Y1722428D1*
G1X1861013Y1722209D1*
G1X1860695Y1721772D1*
G1X1860536Y1721116D1*
G1X1860695Y1720678D1*
G1X1860854Y1720022D1*
G1X1861172Y1719584D1*
G1X1861650Y1719366D1*
G1X1862127Y1719366D1*
G1X1862604Y1719584D1*
G1X1862763Y1719803D1*
G1X1862922Y1720241D1*
G1X1881611Y1753159D2*
G1X1881611Y1748566D1*
G1X1881611Y1753159D2*
G1X1880180Y1753159D1*
G1X1879702Y1752941D1*
G1X1879543Y1752722D1*
G1X1879384Y1752284D1*
G1X1879384Y1751847D1*
G1X1879543Y1751409D1*
G1X1879702Y1751191D1*
G1X1880180Y1750972D1*
G1X1881611Y1750972D1*
G1X1880498Y1750972D2*
G1X1879384Y1748566D1*
G1X1877634Y1753159D2*
G1X1875884Y1753159D1*
G1X1876839Y1751409D1*
G1X1876361Y1751409D1*
G1X1876043Y1751191D1*
G1X1875884Y1750972D1*
G1X1875725Y1750316D1*
G1X1875725Y1749878D1*
G1X1875884Y1749222D1*
G1X1876202Y1748784D1*
G1X1876680Y1748566D1*
G1X1877157Y1748566D1*
G1X1877634Y1748784D1*
G1X1877793Y1749003D1*
G1X1877952Y1749441D1*
G1X1872384Y1752503D2*
G1X1872543Y1752941D1*
G1X1873020Y1753159D1*
G1X1873339Y1753159D1*
G1X1873816Y1752941D1*
G1X1874134Y1752284D1*
G1X1874293Y1751191D1*
G1X1874293Y1750097D1*
G1X1874134Y1749222D1*
G1X1873816Y1748784D1*
G1X1873339Y1748566D1*
G1X1873180Y1748566D1*
G1X1872702Y1748784D1*
G1X1872384Y1749222D1*
G1X1872225Y1749878D1*
G1X1872225Y1750097D1*
G1X1872384Y1750753D1*
G1X1872702Y1751191D1*
G1X1873180Y1751409D1*
G1X1873339Y1751409D1*
G1X1873816Y1751191D1*
G1X1874134Y1750753D1*
G1X1874293Y1750097D1*
G1X1881691Y1759659D2*
G1X1881691Y1755066D1*
G1X1881691Y1759659D2*
G1X1880259Y1759659D1*
G1X1879782Y1759441D1*
G1X1879623Y1759222D1*
G1X1879464Y1758784D1*
G1X1879464Y1758347D1*
G1X1879623Y1757909D1*
G1X1879782Y1757691D1*
G1X1880259Y1757472D1*
G1X1881691Y1757472D1*
G1X1880577Y1757472D2*
G1X1879464Y1755066D1*
G1X1877714Y1759659D2*
G1X1875964Y1759659D1*
G1X1876918Y1757909D1*
G1X1876441Y1757909D1*
G1X1876123Y1757691D1*
G1X1875964Y1757472D1*
G1X1875805Y1756816D1*
G1X1875805Y1756378D1*
G1X1875964Y1755722D1*
G1X1876282Y1755284D1*
G1X1876759Y1755066D1*
G1X1877236Y1755066D1*
G1X1877714Y1755284D1*
G1X1877873Y1755503D1*
G1X1878032Y1755941D1*
G1X1872145Y1759659D2*
G1X1873736Y1755066D1*
G1X1874373Y1759659D2*
G1X1872145Y1759659D1*
G1X1888541Y1736309D2*
G1X1888541Y1731716D1*
G1X1888541Y1736309D2*
G1X1887109Y1736309D1*
G1X1886632Y1736091D1*
G1X1886473Y1735872D1*
G1X1886314Y1735434D1*
G1X1886314Y1734997D1*
G1X1886473Y1734559D1*
G1X1886632Y1734341D1*
G1X1887109Y1734122D1*
G1X1888541Y1734122D1*
G1X1887427Y1734122D2*
G1X1886314Y1731716D1*
G1X1884564Y1736309D2*
G1X1882814Y1736309D1*
G1X1883768Y1734559D1*
G1X1883291Y1734559D1*
G1X1882973Y1734341D1*
G1X1882814Y1734122D1*
G1X1882655Y1733466D1*
G1X1882655Y1733028D1*
G1X1882814Y1732372D1*
G1X1883132Y1731934D1*
G1X1883609Y1731716D1*
G1X1884086Y1731716D1*
G1X1884564Y1731934D1*
G1X1884723Y1732153D1*
G1X1884882Y1732591D1*
G1X1880427Y1736309D2*
G1X1880905Y1736091D1*
G1X1881064Y1735653D1*
G1X1881064Y1735216D1*
G1X1880905Y1734778D1*
G1X1880586Y1734559D1*
G1X1879950Y1734341D1*
G1X1879473Y1734122D1*
G1X1879155Y1733684D1*
G1X1878995Y1733247D1*
G1X1878995Y1732591D1*
G1X1879155Y1732153D1*
G1X1879314Y1731934D1*
G1X1879791Y1731716D1*
G1X1880427Y1731716D1*
G1X1880905Y1731934D1*
G1X1881064Y1732153D1*
G1X1881223Y1732591D1*
G1X1881223Y1733247D1*
G1X1881064Y1733684D1*
G1X1880745Y1734122D1*
G1X1880268Y1734341D1*
G1X1879632Y1734559D1*
G1X1879314Y1734778D1*
G1X1879155Y1735216D1*
G1X1879155Y1735653D1*
G1X1879314Y1736091D1*
G1X1879791Y1736309D1*
G1X1880427Y1736309D1*
G1X1883071Y1726929D2*
G1X1883071Y1722336D1*
G1X1883071Y1726929D2*
G1X1881640Y1726929D1*
G1X1881162Y1726711D1*
G1X1881003Y1726492D1*
G1X1880844Y1726054D1*
G1X1880844Y1725617D1*
G1X1881003Y1725179D1*
G1X1881162Y1724961D1*
G1X1881640Y1724742D1*
G1X1883071Y1724742D1*
G1X1881958Y1724742D2*
G1X1880844Y1722336D1*
G1X1879094Y1726929D2*
G1X1877344Y1726929D1*
G1X1878299Y1725179D1*
G1X1877821Y1725179D1*
G1X1877503Y1724961D1*
G1X1877344Y1724742D1*
G1X1877185Y1724086D1*
G1X1877185Y1723648D1*
G1X1877344Y1722992D1*
G1X1877662Y1722554D1*
G1X1878140Y1722336D1*
G1X1878617Y1722336D1*
G1X1879094Y1722554D1*
G1X1879253Y1722773D1*
G1X1879412Y1723211D1*
G1X1873685Y1725398D2*
G1X1873844Y1724742D1*
G1X1874162Y1724304D1*
G1X1874640Y1724086D1*
G1X1874799Y1724086D1*
G1X1875276Y1724304D1*
G1X1875594Y1724742D1*
G1X1875753Y1725398D1*
G1X1875753Y1725617D1*
G1X1875594Y1726273D1*
G1X1875276Y1726711D1*
G1X1874799Y1726929D1*
G1X1874640Y1726929D1*
G1X1874162Y1726711D1*
G1X1873844Y1726273D1*
G1X1873685Y1725398D1*
G1X1873685Y1724304D1*
G1X1873844Y1723211D1*
G1X1874162Y1722554D1*
G1X1874640Y1722336D1*
G1X1874958Y1722336D1*
G1X1875435Y1722554D1*
G1X1875594Y1722992D1*
G1X1832770Y1719159D2*
G1X1832770Y1714566D1*
G1X1832770Y1719159D2*
G1X1831339Y1719159D1*
G1X1830861Y1718941D1*
G1X1830702Y1718722D1*
G1X1830543Y1718284D1*
G1X1830543Y1717847D1*
G1X1830702Y1717409D1*
G1X1830861Y1717191D1*
G1X1831339Y1716972D1*
G1X1832770Y1716972D1*
G1X1831657Y1716972D2*
G1X1830543Y1714566D1*
G1X1827520Y1719159D2*
G1X1829111Y1716097D1*
G1X1826725Y1716097D1*
G1X1827520Y1719159D2*
G1X1827520Y1714566D1*
G1X1824339Y1719159D2*
G1X1824816Y1718941D1*
G1X1825134Y1718284D1*
G1X1825293Y1717191D1*
G1X1825293Y1716534D1*
G1X1825134Y1715441D1*
G1X1824816Y1714784D1*
G1X1824339Y1714566D1*
G1X1824020Y1714566D1*
G1X1823543Y1714784D1*
G1X1823225Y1715441D1*
G1X1823066Y1716534D1*
G1X1823066Y1717191D1*
G1X1823225Y1718284D1*
G1X1823543Y1718941D1*
G1X1824020Y1719159D1*
G1X1824339Y1719159D1*
G1X1832805Y1735299D2*
G1X1832805Y1730706D1*
G1X1832805Y1735299D2*
G1X1831373Y1735299D1*
G1X1830895Y1735081D1*
G1X1830736Y1734862D1*
G1X1830577Y1734424D1*
G1X1830577Y1733987D1*
G1X1830736Y1733549D1*
G1X1830895Y1733331D1*
G1X1831373Y1733112D1*
G1X1832805Y1733112D1*
G1X1831691Y1733112D2*
G1X1830577Y1730706D1*
G1X1827555Y1735299D2*
G1X1829145Y1732237D1*
G1X1826759Y1732237D1*
G1X1827555Y1735299D2*
G1X1827555Y1730706D1*
G1X1825327Y1734424D2*
G1X1825009Y1734643D1*
G1X1824532Y1735299D1*
G1X1824532Y1730706D1*
G1X1797420Y1734429D2*
G1X1797420Y1729836D1*
G1X1797420Y1734429D2*
G1X1795989Y1734429D1*
G1X1795511Y1734211D1*
G1X1795352Y1733992D1*
G1X1795193Y1733554D1*
G1X1795193Y1733117D1*
G1X1795352Y1732679D1*
G1X1795511Y1732461D1*
G1X1795989Y1732242D1*
G1X1797420Y1732242D1*
G1X1796307Y1732242D2*
G1X1795193Y1729836D1*
G1X1792170Y1734429D2*
G1X1793761Y1731367D1*
G1X1791375Y1731367D1*
G1X1792170Y1734429D2*
G1X1792170Y1729836D1*
G1X1789784Y1733336D2*
G1X1789784Y1733554D1*
G1X1789625Y1733992D1*
G1X1789466Y1734211D1*
G1X1789148Y1734429D1*
G1X1788511Y1734429D1*
G1X1788193Y1734211D1*
G1X1788034Y1733992D1*
G1X1787875Y1733554D1*
G1X1787875Y1733117D1*
G1X1788034Y1732679D1*
G1X1788352Y1732023D1*
G1X1789943Y1729836D1*
G1X1787716Y1729836D1*
G1X1833120Y1742119D2*
G1X1833120Y1737526D1*
G1X1833120Y1742119D2*
G1X1831689Y1742119D1*
G1X1831211Y1741901D1*
G1X1831052Y1741682D1*
G1X1830893Y1741244D1*
G1X1830893Y1740807D1*
G1X1831052Y1740369D1*
G1X1831211Y1740151D1*
G1X1831689Y1739932D1*
G1X1833120Y1739932D1*
G1X1832007Y1739932D2*
G1X1830893Y1737526D1*
G1X1827870Y1742119D2*
G1X1829461Y1739057D1*
G1X1827075Y1739057D1*
G1X1827870Y1742119D2*
G1X1827870Y1737526D1*
G1X1825325Y1742119D2*
G1X1823575Y1742119D1*
G1X1824530Y1740369D1*
G1X1824052Y1740369D1*
G1X1823734Y1740151D1*
G1X1823575Y1739932D1*
G1X1823416Y1739276D1*
G1X1823416Y1738838D1*
G1X1823575Y1738182D1*
G1X1823893Y1737744D1*
G1X1824370Y1737526D1*
G1X1824848Y1737526D1*
G1X1825325Y1737744D1*
G1X1825484Y1737963D1*
G1X1825643Y1738401D1*
G1X1793820Y1728489D2*
G1X1793820Y1723896D1*
G1X1793820Y1728489D2*
G1X1792388Y1728489D1*
G1X1791911Y1728271D1*
G1X1791752Y1728052D1*
G1X1791593Y1727614D1*
G1X1791593Y1727177D1*
G1X1791752Y1726739D1*
G1X1791911Y1726521D1*
G1X1792388Y1726302D1*
G1X1793820Y1726302D1*
G1X1792706Y1726302D2*
G1X1791593Y1723896D1*
G1X1788570Y1728489D2*
G1X1790161Y1725427D1*
G1X1787775Y1725427D1*
G1X1788570Y1728489D2*
G1X1788570Y1723896D1*
G1X1784752Y1728489D2*
G1X1786343Y1725427D1*
G1X1783956Y1725427D1*
G1X1784752Y1728489D2*
G1X1784752Y1723896D1*
G1X1869750Y1716469D2*
G1X1869750Y1711876D1*
G1X1869750Y1716469D2*
G1X1868319Y1716469D1*
G1X1867841Y1716251D1*
G1X1867682Y1716032D1*
G1X1867523Y1715594D1*
G1X1867523Y1715157D1*
G1X1867682Y1714719D1*
G1X1867841Y1714501D1*
G1X1868319Y1714282D1*
G1X1869750Y1714282D1*
G1X1868637Y1714282D2*
G1X1867523Y1711876D1*
G1X1864023Y1716469D2*
G1X1865614Y1716469D1*
G1X1865773Y1714501D1*
G1X1865614Y1714719D1*
G1X1865137Y1714938D1*
G1X1864660Y1714938D1*
G1X1864182Y1714719D1*
G1X1863864Y1714282D1*
G1X1863705Y1713626D1*
G1X1863864Y1713188D1*
G1X1864023Y1712532D1*
G1X1864341Y1712094D1*
G1X1864819Y1711876D1*
G1X1865296Y1711876D1*
G1X1865773Y1712094D1*
G1X1865932Y1712313D1*
G1X1866091Y1712751D1*
G1X1861319Y1716469D2*
G1X1861796Y1716251D1*
G1X1862114Y1715594D1*
G1X1862273Y1714501D1*
G1X1862273Y1713844D1*
G1X1862114Y1712751D1*
G1X1861796Y1712094D1*
G1X1861319Y1711876D1*
G1X1861000Y1711876D1*
G1X1860523Y1712094D1*
G1X1860205Y1712751D1*
G1X1860046Y1713844D1*
G1X1860046Y1714501D1*
G1X1860205Y1715594D1*
G1X1860523Y1716251D1*
G1X1861000Y1716469D1*
G1X1861319Y1716469D1*
G1X1847459Y1724145D2*
G1X1842866Y1724145D1*
G1X1847459Y1724145D2*
G1X1847459Y1725577D1*
G1X1847241Y1726055D1*
G1X1847022Y1726214D1*
G1X1846584Y1726373D1*
G1X1846147Y1726373D1*
G1X1845709Y1726214D1*
G1X1845491Y1726055D1*
G1X1845272Y1725577D1*
G1X1845272Y1724145D1*
G1X1845272Y1725259D2*
G1X1842866Y1726373D1*
G1X1847459Y1729873D2*
G1X1847459Y1728282D1*
G1X1845491Y1728123D1*
G1X1845709Y1728282D1*
G1X1845928Y1728759D1*
G1X1845928Y1729236D1*
G1X1845709Y1729714D1*
G1X1845272Y1730032D1*
G1X1844616Y1730191D1*
G1X1844178Y1730032D1*
G1X1843522Y1729873D1*
G1X1843084Y1729555D1*
G1X1842866Y1729077D1*
G1X1842866Y1728600D1*
G1X1843084Y1728123D1*
G1X1843303Y1727964D1*
G1X1843741Y1727805D1*
G1X1846584Y1731623D2*
G1X1846803Y1731941D1*
G1X1847459Y1732418D1*
G1X1842866Y1732418D1*
G1X1839959Y1725305D2*
G1X1835366Y1725305D1*
G1X1839959Y1725305D2*
G1X1839959Y1726736D1*
G1X1839741Y1727214D1*
G1X1839522Y1727373D1*
G1X1839084Y1727532D1*
G1X1838647Y1727532D1*
G1X1838209Y1727373D1*
G1X1837991Y1727214D1*
G1X1837772Y1726736D1*
G1X1837772Y1725305D1*
G1X1837772Y1726418D2*
G1X1835366Y1727532D1*
G1X1839084Y1728964D2*
G1X1839303Y1729282D1*
G1X1839959Y1729759D1*
G1X1835366Y1729759D1*
G1X1838428Y1733259D2*
G1X1837772Y1733100D1*
G1X1837334Y1732782D1*
G1X1837116Y1732305D1*
G1X1837116Y1732145D1*
G1X1837334Y1731668D1*
G1X1837772Y1731350D1*
G1X1838428Y1731191D1*
G1X1838647Y1731191D1*
G1X1839303Y1731350D1*
G1X1839741Y1731668D1*
G1X1839959Y1732145D1*
G1X1839959Y1732305D1*
G1X1839741Y1732782D1*
G1X1839303Y1733100D1*
G1X1838428Y1733259D1*
G1X1837334Y1733259D1*
G1X1836241Y1733100D1*
G1X1835584Y1732782D1*
G1X1835366Y1732305D1*
G1X1835366Y1731986D1*
G1X1835584Y1731509D1*
G1X1836022Y1731350D1*
G1X1857335Y1763989D2*
G1X1857335Y1759396D1*
G1X1857335Y1763989D2*
G1X1855903Y1763989D1*
G1X1855426Y1763771D1*
G1X1855267Y1763552D1*
G1X1855108Y1763114D1*
G1X1855108Y1762677D1*
G1X1855267Y1762239D1*
G1X1855426Y1762021D1*
G1X1855903Y1761802D1*
G1X1857335Y1761802D1*
G1X1856221Y1761802D2*
G1X1855108Y1759396D1*
G1X1853676Y1763114D2*
G1X1853358Y1763333D1*
G1X1852880Y1763989D1*
G1X1852880Y1759396D1*
G1X1849221Y1763989D2*
G1X1850812Y1759396D1*
G1X1851449Y1763989D2*
G1X1849221Y1763989D1*
G1X1788090Y1719354D2*
G1X1788090Y1714760D1*
G1X1788090Y1719354D2*
G1X1785863Y1714760D1*
G1X1785863Y1719354D2*
G1X1785863Y1714760D1*
G1X1783476Y1719354D2*
G1X1783795Y1719135D1*
G1X1784113Y1718698D1*
G1X1784272Y1718260D1*
G1X1784431Y1717604D1*
G1X1784431Y1716510D1*
G1X1784272Y1715854D1*
G1X1784113Y1715416D1*
G1X1783795Y1714979D1*
G1X1783476Y1714760D1*
G1X1782840Y1714760D1*
G1X1782522Y1714979D1*
G1X1782204Y1715416D1*
G1X1782045Y1715854D1*
G1X1781885Y1716510D1*
G1X1781885Y1717604D1*
G1X1782045Y1718260D1*
G1X1782204Y1718698D1*
G1X1782522Y1719135D1*
G1X1782840Y1719354D1*
G1X1783476Y1719354D1*
G1X1780454Y1719354D2*
G1X1780454Y1714760D1*
G1X1780454Y1719354D2*
G1X1779022Y1719354D1*
G1X1778545Y1719135D1*
G1X1778385Y1718916D1*
G1X1778226Y1718479D1*
G1X1778226Y1718041D1*
G1X1778385Y1717604D1*
G1X1778545Y1717385D1*
G1X1779022Y1717166D1*
G1X1780454Y1717166D1*
G1X1779340Y1717166D2*
G1X1778226Y1714760D1*
G1X1776795Y1719354D2*
G1X1776795Y1714760D1*
G1X1776795Y1719354D2*
G1X1775522Y1714760D1*
G1X1774249Y1719354D2*
G1X1775522Y1714760D1*
G1X1774249Y1719354D2*
G1X1774249Y1714760D1*
G1X1890509Y1716394D2*
G1X1890509Y1712894D1*
G1X1890668Y1712238D1*
G1X1890827Y1712019D1*
G1X1891145Y1711800D1*
G1X1891464Y1711800D1*
G1X1891782Y1712019D1*
G1X1891941Y1712238D1*
G1X1892100Y1712894D1*
G1X1892100Y1713331D1*
G1X1889077Y1716394D2*
G1X1889077Y1711800D1*
G1X1889077Y1716394D2*
G1X1887645Y1716394D1*
G1X1887168Y1716175D1*
G1X1887009Y1715956D1*
G1X1886850Y1715519D1*
G1X1886850Y1714863D1*
G1X1887009Y1714425D1*
G1X1887168Y1714206D1*
G1X1887645Y1713988D1*
G1X1889077Y1713988D1*
G1X1885418Y1715519D2*
G1X1885100Y1715738D1*
G1X1884623Y1716394D1*
G1X1884623Y1711800D1*
G1X1764900Y1707200D2*
G1X1769900Y1707200D1*
G1X1771900Y1707000D2*
G1X1775750Y1707000D1*
G1X1777100Y1707200D2*
G1X1777100Y1703200D1*
G1X1775600Y1703200D2*
G1X1771900Y1703200D1*
G1X1769900Y1703200D2*
G1X1764900Y1703200D1*
G1X1763600Y1707200D2*
G1X1763600Y1703200D1*
G1X1895400Y1710000D2*
G1X1895400Y1706000D1*
G1X1888400Y1710000D2*
G1X1893400Y1710000D1*
G1X1893400Y1706000D2*
G1X1888400Y1706000D1*
G1X1881400Y1710000D2*
G1X1886400Y1710000D1*
G1X1879400Y1710000D2*
G1X1879400Y1706000D1*
G1X1886400Y1706000D2*
G1X1881400Y1706000D1*
G1X1772900Y1708100D2*
G1X1776601Y1713209D1*
G1X1859100Y1723300D2*
G1X1855600Y1727300D1*
G1X1858100Y1716300D2*
G1X1856600Y1717800D1*
G1X1808940Y1738460D2*
G1X1812600Y1734800D1*
G1X1808360Y1745010D2*
G1X1812020Y1741350D1*
G1X1821950Y1738460D2*
G1X1816810Y1729290D1*
G1X1873040Y1727270D2*
G1X1869580Y1730230D1*
G1X1834880Y1768290D2*
G1X1828510Y1761310D1*
G1X1813040Y1775930D2*
G1X1815980Y1772920D1*
G1X1765600Y1712300D2*
G54D198*
G1X1765600Y1718300D1*
G1X1714700Y1771300D2*
G1X1714700Y1777300D1*
G1X1829280Y1773706D2*
G75*
G3X1829280Y1773706I-881J0D1*
G1X1871280Y1748706D2*
G3X1871280Y1748706I-881J0D1*
G74*
G1X1844462Y1693369D2*
G54D200*
G1X1844462Y1689493D1*
G1X1844462Y1693369D2*
G1X1843254Y1693369D1*
G1X1842851Y1693184D1*
G1X1842717Y1693000D1*
G1X1842583Y1692630D1*
G1X1842583Y1692261D1*
G1X1842717Y1691892D1*
G1X1842851Y1691708D1*
G1X1843254Y1691523D1*
G1X1844462Y1691523D1*
G1X1843523Y1691523D2*
G1X1842583Y1689493D1*
G1X1839630Y1693369D2*
G1X1840972Y1693369D1*
G1X1841107Y1691708D1*
G1X1840972Y1691892D1*
G1X1840570Y1692077D1*
G1X1840167Y1692077D1*
G1X1839764Y1691892D1*
G1X1839496Y1691523D1*
G1X1839362Y1690970D1*
G1X1839496Y1690600D1*
G1X1839630Y1690047D1*
G1X1839899Y1689678D1*
G1X1840301Y1689493D1*
G1X1840704Y1689493D1*
G1X1841107Y1689678D1*
G1X1841241Y1689862D1*
G1X1841375Y1690231D1*
G1X1837885Y1693369D2*
G1X1836409Y1693369D1*
G1X1837214Y1691892D1*
G1X1836812Y1691892D1*
G1X1836543Y1691708D1*
G1X1836409Y1691523D1*
G1X1836275Y1690970D1*
G1X1836275Y1690600D1*
G1X1836409Y1690047D1*
G1X1836677Y1689678D1*
G1X1837080Y1689493D1*
G1X1837483Y1689493D1*
G1X1837885Y1689678D1*
G1X1838020Y1689862D1*
G1X1838154Y1690231D1*
M2*
