*
%LPD*%
%LNDC2026C1-TM*%
%FSLAX25Y25*%
%MOIN*%
%AD*%
%AD*%
%ADD11C,0.01*%
%ADD22R,0.06X0.06*%
%ADD23C,0.06*%
%ADD33R,0.055X0.055*%
%ADD36C,0.11*%
%ADD44C,0.05*%
%ADD167C,0.126*%
%ADD168O,0.06X0.12*%
%ADD169R,0.01575X0.062990157*%
%ADD170R,0.062990157X0.01575*%
%ADD171R,0.0374X0.039370079*%
%ADD172R,0.039370079X0.0374*%
%ADD173R,0.045279921X0.057090157*%
%ADD174R,0.057090157X0.045279921*%
%ADD176R,0.044X0.126*%
%ADD177R,0.039370079X0.035429921*%
%ADD178R,0.035429921X0.039370079*%
%ADD179R,0.039370079X0.057090157*%
%ADD180R,0.06X0.17*%
%ADD181R,0.06X0.15*%
%ADD182R,0.15X0.06*%
%ADD183O,0.065X0.055*%
%ADD186R,0.043309843X0.02165*%
%ADD187R,0.02165X0.043309843*%
%ADD188R,0.048029921X0.02165*%
%ADD189C,0.0248*%
%ADD192R,0.041340157X0.025590157*%
%ADD193R,0.072829921X0.017720079*%
%ADD194R,0.049209843X0.043309843*%
%ADD201R,0.062990157X0.011809843*%
%ADD202R,0.022829921X0.025979921*%
%ADD203R,0.025979921X0.022829921*%
%ADD204R,0.070870079X0.045279921*%
%ADD205R,0.024409843X0.022440157*%
%ADD206R,0.022440157X0.024409843*%
%ADD207R,0.09055X0.098429921*%
%ADD208R,0.011X0.035*%
%ADD209R,0.074020079X0.066140157*%
%ADD210R,0.09055X0.064959843*%
%ADD211R,0.070870079X0.118109843*%
%ADD212R,0.078740157X0.039370079*%
%ADD213R,0.054X0.054*%
%ADD214C,0.054*%
G54D11*
%SRX1Y1I0.0J0.0*%
G1X1795100Y1567733D2*
G1X1795100Y1561170D1*
G1X1797827Y1561170D1*
G1X1799873Y1567733D2*
G1X1799873Y1561170D1*
G1X1801918Y1567733D2*
G1X1801918Y1561170D1*
G1X1801918Y1567733D2*
G1X1805100Y1561170D1*
G1X1805100Y1567733D2*
G1X1805100Y1561170D1*
G1X1807145Y1567733D2*
G1X1807145Y1561170D1*
G1X1807145Y1567733D2*
G1X1810100Y1567733D1*
G1X1807145Y1564608D2*
G1X1808964Y1564608D1*
G1X1807145Y1561170D2*
G1X1810100Y1561170D1*
G1X1813964Y1567733D2*
G1X1812145Y1561170D1*
G1X1813964Y1567733D2*
G1X1815782Y1561170D1*
G1X1812827Y1563358D2*
G1X1815100Y1563358D1*
G1X1817827Y1567733D2*
G1X1817827Y1561170D1*
G1X1817827Y1567733D2*
G1X1819873Y1567733D1*
G1X1820555Y1567420D1*
G1X1820782Y1567108D1*
G1X1821009Y1566483D1*
G1X1821009Y1565858D1*
G1X1820782Y1565233D1*
G1X1820555Y1564920D1*
G1X1819873Y1564608D1*
G1X1817827Y1564608D1*
G1X1819418Y1564608D2*
G1X1821009Y1561170D1*
G1X1829873Y1567733D2*
G1X1829873Y1561170D1*
G1X1828282Y1567733D2*
G1X1831464Y1567733D1*
G1X1833509Y1567733D2*
G1X1833509Y1561170D1*
G1X1833509Y1567733D2*
G1X1836464Y1567733D1*
G1X1833509Y1564608D2*
G1X1835327Y1564608D1*
G1X1833509Y1561170D2*
G1X1836464Y1561170D1*
G1X1841918Y1566170D2*
G1X1841691Y1566795D1*
G1X1841236Y1567420D1*
G1X1840782Y1567733D1*
G1X1839873Y1567733D1*
G1X1839418Y1567420D1*
G1X1838964Y1566795D1*
G1X1838736Y1566170D1*
G1X1838509Y1565233D1*
G1X1838509Y1563670D1*
G1X1838736Y1562733D1*
G1X1838964Y1562108D1*
G1X1839418Y1561483D1*
G1X1839873Y1561170D1*
G1X1840782Y1561170D1*
G1X1841236Y1561483D1*
G1X1841691Y1562108D1*
G1X1841918Y1562733D1*
G1X1843964Y1567733D2*
G1X1843964Y1561170D1*
G1X1847145Y1567733D2*
G1X1847145Y1561170D1*
G1X1843964Y1564608D2*
G1X1847145Y1564608D1*
G1X1849191Y1567733D2*
G1X1849191Y1561170D1*
G1X1849191Y1567733D2*
G1X1852373Y1561170D1*
G1X1852373Y1567733D2*
G1X1852373Y1561170D1*
G1X1855782Y1567733D2*
G1X1855327Y1567420D1*
G1X1854873Y1566795D1*
G1X1854645Y1566170D1*
G1X1854418Y1565233D1*
G1X1854418Y1563670D1*
G1X1854645Y1562733D1*
G1X1854873Y1562108D1*
G1X1855327Y1561483D1*
G1X1855782Y1561170D1*
G1X1856691Y1561170D1*
G1X1857145Y1561483D1*
G1X1857600Y1562108D1*
G1X1857827Y1562733D1*
G1X1858055Y1563670D1*
G1X1858055Y1565233D1*
G1X1857827Y1566170D1*
G1X1857600Y1566795D1*
G1X1857145Y1567420D1*
G1X1856691Y1567733D1*
G1X1855782Y1567733D1*
G1X1860100Y1567733D2*
G1X1860100Y1561170D1*
G1X1862827Y1561170D1*
G1X1866236Y1567733D2*
G1X1865782Y1567420D1*
G1X1865327Y1566795D1*
G1X1865100Y1566170D1*
G1X1864873Y1565233D1*
G1X1864873Y1563670D1*
G1X1865100Y1562733D1*
G1X1865327Y1562108D1*
G1X1865782Y1561483D1*
G1X1866236Y1561170D1*
G1X1867145Y1561170D1*
G1X1867600Y1561483D1*
G1X1868055Y1562108D1*
G1X1868282Y1562733D1*
G1X1868509Y1563670D1*
G1X1868509Y1565233D1*
G1X1868282Y1566170D1*
G1X1868055Y1566795D1*
G1X1867600Y1567420D1*
G1X1867145Y1567733D1*
G1X1866236Y1567733D1*
G1X1873964Y1566170D2*
G1X1873736Y1566795D1*
G1X1873282Y1567420D1*
G1X1872827Y1567733D1*
G1X1871918Y1567733D1*
G1X1871464Y1567420D1*
G1X1871009Y1566795D1*
G1X1870782Y1566170D1*
G1X1870555Y1565233D1*
G1X1870555Y1563670D1*
G1X1870782Y1562733D1*
G1X1871009Y1562108D1*
G1X1871464Y1561483D1*
G1X1871918Y1561170D1*
G1X1872827Y1561170D1*
G1X1873282Y1561483D1*
G1X1873736Y1562108D1*
G1X1873964Y1562733D1*
G1X1873964Y1563670D1*
G1X1872827Y1563670D2*
G1X1873964Y1563670D1*
G1X1876009Y1567733D2*
G1X1877827Y1564608D1*
G1X1877827Y1561170D1*
G1X1879645Y1567733D2*
G1X1877827Y1564608D1*
G1X1886918Y1567733D2*
G1X1886918Y1561170D1*
G1X1892145Y1566795D2*
G1X1891691Y1567420D1*
G1X1891009Y1567733D1*
G1X1890100Y1567733D1*
G1X1889418Y1567420D1*
G1X1888964Y1566795D1*
G1X1888964Y1566170D1*
G1X1889191Y1565545D1*
G1X1889418Y1565233D1*
G1X1889873Y1564920D1*
G1X1891236Y1564295D1*
G1X1891691Y1563983D1*
G1X1891918Y1563670D1*
G1X1892145Y1563045D1*
G1X1892145Y1562108D1*
G1X1891691Y1561483D1*
G1X1891009Y1561170D1*
G1X1890100Y1561170D1*
G1X1889418Y1561483D1*
G1X1888964Y1562108D1*
G1X1895555Y1567733D2*
G1X1895100Y1567420D1*
G1X1894645Y1566795D1*
G1X1894418Y1566170D1*
G1X1894191Y1565233D1*
G1X1894191Y1563670D1*
G1X1894418Y1562733D1*
G1X1894645Y1562108D1*
G1X1895100Y1561483D1*
G1X1895555Y1561170D1*
G1X1896464Y1561170D1*
G1X1896918Y1561483D1*
G1X1897373Y1562108D1*
G1X1897600Y1562733D1*
G1X1897827Y1563670D1*
G1X1897827Y1565233D1*
G1X1897600Y1566170D1*
G1X1897373Y1566795D1*
G1X1896918Y1567420D1*
G1X1896464Y1567733D1*
G1X1895555Y1567733D1*
G1X1899873Y1567733D2*
G1X1899873Y1561170D1*
G1X1902600Y1561170D1*
G1X1906464Y1567733D2*
G1X1904645Y1561170D1*
G1X1906464Y1567733D2*
G1X1908282Y1561170D1*
G1X1905327Y1563358D2*
G1X1907600Y1563358D1*
G1X1911918Y1567733D2*
G1X1911918Y1561170D1*
G1X1910327Y1567733D2*
G1X1913509Y1567733D1*
G1X1915555Y1567733D2*
G1X1915555Y1561170D1*
G1X1915555Y1567733D2*
G1X1918509Y1567733D1*
G1X1915555Y1564608D2*
G1X1917373Y1564608D1*
G1X1915555Y1561170D2*
G1X1918509Y1561170D1*
G1X1920555Y1567733D2*
G1X1920555Y1561170D1*
G1X1920555Y1567733D2*
G1X1922145Y1567733D1*
G1X1922827Y1567420D1*
G1X1923282Y1566795D1*
G1X1923509Y1566170D1*
G1X1923736Y1565233D1*
G1X1923736Y1563670D1*
G1X1923509Y1562733D1*
G1X1923282Y1562108D1*
G1X1922827Y1561483D1*
G1X1922145Y1561170D1*
G1X1920555Y1561170D1*
G1X1665691Y1571863D2*
G1X1665691Y1565300D1*
G1X1664100Y1571863D2*
G1X1667282Y1571863D1*
G1X1670691Y1571863D2*
G1X1670236Y1571550D1*
G1X1669782Y1570925D1*
G1X1669555Y1570300D1*
G1X1669327Y1569363D1*
G1X1669327Y1567800D1*
G1X1669555Y1566863D1*
G1X1669782Y1566238D1*
G1X1670236Y1565613D1*
G1X1670691Y1565300D1*
G1X1671600Y1565300D1*
G1X1672055Y1565613D1*
G1X1672509Y1566238D1*
G1X1672736Y1566863D1*
G1X1672964Y1567800D1*
G1X1672964Y1569363D1*
G1X1672736Y1570300D1*
G1X1672509Y1570925D1*
G1X1672055Y1571550D1*
G1X1671600Y1571863D1*
G1X1670691Y1571863D1*
G1X1675009Y1571863D2*
G1X1675009Y1565300D1*
G1X1675009Y1571863D2*
G1X1677055Y1571863D1*
G1X1677736Y1571550D1*
G1X1677964Y1571238D1*
G1X1678191Y1570613D1*
G1X1678191Y1569675D1*
G1X1677964Y1569050D1*
G1X1677736Y1568738D1*
G1X1677055Y1568425D1*
G1X1675009Y1568425D1*
G1X1688645Y1570925D2*
G1X1688191Y1571550D1*
G1X1687509Y1571863D1*
G1X1686600Y1571863D1*
G1X1685918Y1571550D1*
G1X1685464Y1570925D1*
G1X1685464Y1570300D1*
G1X1685691Y1569675D1*
G1X1685918Y1569363D1*
G1X1686373Y1569050D1*
G1X1687736Y1568425D1*
G1X1688191Y1568113D1*
G1X1688418Y1567800D1*
G1X1688645Y1567175D1*
G1X1688645Y1566238D1*
G1X1688191Y1565613D1*
G1X1687509Y1565300D1*
G1X1686600Y1565300D1*
G1X1685918Y1565613D1*
G1X1685464Y1566238D1*
G1X1692055Y1571863D2*
G1X1691600Y1571550D1*
G1X1691145Y1570925D1*
G1X1690918Y1570300D1*
G1X1690691Y1569363D1*
G1X1690691Y1567800D1*
G1X1690918Y1566863D1*
G1X1691145Y1566238D1*
G1X1691600Y1565613D1*
G1X1692055Y1565300D1*
G1X1692964Y1565300D1*
G1X1693418Y1565613D1*
G1X1693873Y1566238D1*
G1X1694100Y1566863D1*
G1X1694327Y1567800D1*
G1X1694327Y1569363D1*
G1X1694100Y1570300D1*
G1X1693873Y1570925D1*
G1X1693418Y1571550D1*
G1X1692964Y1571863D1*
G1X1692055Y1571863D1*
G1X1696373Y1571863D2*
G1X1696373Y1565300D1*
G1X1699100Y1565300D1*
G1X1701145Y1571863D2*
G1X1701145Y1565300D1*
G1X1701145Y1571863D2*
G1X1702736Y1571863D1*
G1X1703418Y1571550D1*
G1X1703873Y1570925D1*
G1X1704100Y1570300D1*
G1X1704327Y1569363D1*
G1X1704327Y1567800D1*
G1X1704100Y1566863D1*
G1X1703873Y1566238D1*
G1X1703418Y1565613D1*
G1X1702736Y1565300D1*
G1X1701145Y1565300D1*
G1X1706373Y1571863D2*
G1X1706373Y1565300D1*
G1X1706373Y1571863D2*
G1X1709327Y1571863D1*
G1X1706373Y1568738D2*
G1X1708191Y1568738D1*
G1X1706373Y1565300D2*
G1X1709327Y1565300D1*
G1X1711373Y1571863D2*
G1X1711373Y1565300D1*
G1X1711373Y1571863D2*
G1X1713418Y1571863D1*
G1X1714100Y1571550D1*
G1X1714327Y1571238D1*
G1X1714555Y1570613D1*
G1X1714555Y1569988D1*
G1X1714327Y1569363D1*
G1X1714100Y1569050D1*
G1X1713418Y1568738D1*
G1X1711373Y1568738D1*
G1X1712964Y1568738D2*
G1X1714555Y1565300D1*
G1X1721827Y1571863D2*
G1X1721827Y1565300D1*
G1X1721827Y1571863D2*
G1X1723645Y1565300D1*
G1X1725464Y1571863D2*
G1X1723645Y1565300D1*
G1X1725464Y1571863D2*
G1X1725464Y1565300D1*
G1X1729327Y1571863D2*
G1X1727509Y1565300D1*
G1X1729327Y1571863D2*
G1X1731145Y1565300D1*
G1X1728191Y1567488D2*
G1X1730464Y1567488D1*
G1X1736373Y1570925D2*
G1X1735918Y1571550D1*
G1X1735236Y1571863D1*
G1X1734327Y1571863D1*
G1X1733645Y1571550D1*
G1X1733191Y1570925D1*
G1X1733191Y1570300D1*
G1X1733418Y1569675D1*
G1X1733645Y1569363D1*
G1X1734100Y1569050D1*
G1X1735464Y1568425D1*
G1X1735918Y1568113D1*
G1X1736145Y1567800D1*
G1X1736373Y1567175D1*
G1X1736373Y1566238D1*
G1X1735918Y1565613D1*
G1X1735236Y1565300D1*
G1X1734327Y1565300D1*
G1X1733645Y1565613D1*
G1X1733191Y1566238D1*
G1X1738418Y1571863D2*
G1X1738418Y1565300D1*
G1X1741600Y1571863D2*
G1X1738418Y1567488D1*
G1X1739555Y1569050D2*
G1X1741600Y1565300D1*
G1X1795100Y1587733D2*
G1X1795100Y1581170D1*
G1X1795100Y1587733D2*
G1X1796691Y1587733D1*
G1X1797373Y1587420D1*
G1X1797827Y1586795D1*
G1X1798055Y1586170D1*
G1X1798282Y1585233D1*
G1X1798282Y1583670D1*
G1X1798055Y1582733D1*
G1X1797827Y1582108D1*
G1X1797373Y1581483D1*
G1X1796691Y1581170D1*
G1X1795100Y1581170D1*
G1X1803736Y1586170D2*
G1X1803509Y1586795D1*
G1X1803055Y1587420D1*
G1X1802600Y1587733D1*
G1X1801691Y1587733D1*
G1X1801236Y1587420D1*
G1X1800782Y1586795D1*
G1X1800555Y1586170D1*
G1X1800327Y1585233D1*
G1X1800327Y1583670D1*
G1X1800555Y1582733D1*
G1X1800782Y1582108D1*
G1X1801236Y1581483D1*
G1X1801691Y1581170D1*
G1X1802600Y1581170D1*
G1X1803055Y1581483D1*
G1X1803509Y1582108D1*
G1X1803736Y1582733D1*
G1X1806009Y1586170D2*
G1X1806009Y1586483D1*
G1X1806236Y1587108D1*
G1X1806464Y1587420D1*
G1X1806918Y1587733D1*
G1X1807827Y1587733D1*
G1X1808282Y1587420D1*
G1X1808509Y1587108D1*
G1X1808736Y1586483D1*
G1X1808736Y1585858D1*
G1X1808509Y1585233D1*
G1X1808055Y1584295D1*
G1X1805782Y1581170D1*
G1X1808964Y1581170D1*
G1X1812373Y1587733D2*
G1X1811691Y1587420D1*
G1X1811236Y1586483D1*
G1X1811009Y1584920D1*
G1X1811009Y1583983D1*
G1X1811236Y1582420D1*
G1X1811691Y1581483D1*
G1X1812373Y1581170D1*
G1X1812827Y1581170D1*
G1X1813509Y1581483D1*
G1X1813964Y1582420D1*
G1X1814191Y1583983D1*
G1X1814191Y1584920D1*
G1X1813964Y1586483D1*
G1X1813509Y1587420D1*
G1X1812827Y1587733D1*
G1X1812373Y1587733D1*
G1X1816464Y1586170D2*
G1X1816464Y1586483D1*
G1X1816691Y1587108D1*
G1X1816918Y1587420D1*
G1X1817373Y1587733D1*
G1X1818282Y1587733D1*
G1X1818736Y1587420D1*
G1X1818964Y1587108D1*
G1X1819191Y1586483D1*
G1X1819191Y1585858D1*
G1X1818964Y1585233D1*
G1X1818509Y1584295D1*
G1X1816236Y1581170D1*
G1X1819418Y1581170D1*
G1X1824191Y1586795D2*
G1X1823964Y1587420D1*
G1X1823282Y1587733D1*
G1X1822827Y1587733D1*
G1X1822145Y1587420D1*
G1X1821691Y1586483D1*
G1X1821464Y1584920D1*
G1X1821464Y1583358D1*
G1X1821691Y1582108D1*
G1X1822145Y1581483D1*
G1X1822827Y1581170D1*
G1X1823055Y1581170D1*
G1X1823736Y1581483D1*
G1X1824191Y1582108D1*
G1X1824418Y1583045D1*
G1X1824418Y1583358D1*
G1X1824191Y1584295D1*
G1X1823736Y1584920D1*
G1X1823055Y1585233D1*
G1X1822827Y1585233D1*
G1X1822145Y1584920D1*
G1X1821691Y1584295D1*
G1X1821464Y1583358D1*
G1X1829873Y1586170D2*
G1X1829645Y1586795D1*
G1X1829191Y1587420D1*
G1X1828736Y1587733D1*
G1X1827827Y1587733D1*
G1X1827373Y1587420D1*
G1X1826918Y1586795D1*
G1X1826691Y1586170D1*
G1X1826464Y1585233D1*
G1X1826464Y1583670D1*
G1X1826691Y1582733D1*
G1X1826918Y1582108D1*
G1X1827373Y1581483D1*
G1X1827827Y1581170D1*
G1X1828736Y1581170D1*
G1X1829191Y1581483D1*
G1X1829645Y1582108D1*
G1X1829873Y1582733D1*
G1X1831918Y1583983D2*
G1X1836009Y1583983D1*
G1X1838055Y1586483D2*
G1X1838509Y1586795D1*
G1X1839191Y1587733D1*
G1X1839191Y1581170D1*
G1X1847600Y1585858D2*
G1X1847600Y1582108D1*
G1X1846464Y1584920D2*
G1X1848736Y1583045D1*
G1X1848736Y1584920D2*
G1X1846464Y1583045D1*
G1X1856009Y1587733D2*
G1X1856009Y1581170D1*
G1X1858736Y1581170D1*
G1X1862373Y1587733D2*
G1X1862373Y1581170D1*
G1X1860782Y1587733D2*
G1X1863964Y1587733D1*
G1X1866009Y1587733D2*
G1X1866009Y1581170D1*
G1X1866009Y1587733D2*
G1X1867827Y1581170D1*
G1X1869645Y1587733D2*
G1X1867827Y1581170D1*
G1X1869645Y1587733D2*
G1X1869645Y1581170D1*
G1X1871918Y1586170D2*
G1X1871918Y1586483D1*
G1X1872145Y1587108D1*
G1X1872373Y1587420D1*
G1X1872827Y1587733D1*
G1X1873736Y1587733D1*
G1X1874191Y1587420D1*
G1X1874418Y1587108D1*
G1X1874645Y1586483D1*
G1X1874645Y1585858D1*
G1X1874418Y1585233D1*
G1X1873964Y1584295D1*
G1X1871691Y1581170D1*
G1X1874873Y1581170D1*
G1X1878055Y1587733D2*
G1X1877373Y1587420D1*
G1X1877145Y1586795D1*
G1X1877145Y1586170D1*
G1X1877373Y1585545D1*
G1X1877827Y1585233D1*
G1X1878736Y1584920D1*
G1X1879418Y1584608D1*
G1X1879873Y1583983D1*
G1X1880100Y1583358D1*
G1X1880100Y1582420D1*
G1X1879873Y1581795D1*
G1X1879645Y1581483D1*
G1X1878964Y1581170D1*
G1X1878055Y1581170D1*
G1X1877373Y1581483D1*
G1X1877145Y1581795D1*
G1X1876918Y1582420D1*
G1X1876918Y1583358D1*
G1X1877145Y1583983D1*
G1X1877600Y1584608D1*
G1X1878282Y1584920D1*
G1X1879191Y1585233D1*
G1X1879645Y1585545D1*
G1X1879873Y1586170D1*
G1X1879873Y1586795D1*
G1X1879645Y1587420D1*
G1X1878964Y1587733D1*
G1X1878055Y1587733D1*
G1X1883282Y1587733D2*
G1X1882600Y1587420D1*
G1X1882373Y1586795D1*
G1X1882373Y1586170D1*
G1X1882600Y1585545D1*
G1X1883055Y1585233D1*
G1X1883964Y1584920D1*
G1X1884645Y1584608D1*
G1X1885100Y1583983D1*
G1X1885327Y1583358D1*
G1X1885327Y1582420D1*
G1X1885100Y1581795D1*
G1X1884873Y1581483D1*
G1X1884191Y1581170D1*
G1X1883282Y1581170D1*
G1X1882600Y1581483D1*
G1X1882373Y1581795D1*
G1X1882145Y1582420D1*
G1X1882145Y1583358D1*
G1X1882373Y1583983D1*
G1X1882827Y1584608D1*
G1X1883509Y1584920D1*
G1X1884418Y1585233D1*
G1X1884873Y1585545D1*
G1X1885100Y1586170D1*
G1X1885100Y1586795D1*
G1X1884873Y1587420D1*
G1X1884191Y1587733D1*
G1X1883282Y1587733D1*
G1X1889645Y1587733D2*
G1X1887373Y1583358D1*
G1X1890782Y1583358D1*
G1X1889645Y1587733D2*
G1X1889645Y1581170D1*
G1X1896236Y1586170D2*
G1X1896009Y1586795D1*
G1X1895555Y1587420D1*
G1X1895100Y1587733D1*
G1X1894191Y1587733D1*
G1X1893736Y1587420D1*
G1X1893282Y1586795D1*
G1X1893055Y1586170D1*
G1X1892827Y1585233D1*
G1X1892827Y1583670D1*
G1X1893055Y1582733D1*
G1X1893282Y1582108D1*
G1X1893736Y1581483D1*
G1X1894191Y1581170D1*
G1X1895100Y1581170D1*
G1X1895555Y1581483D1*
G1X1896009Y1582108D1*
G1X1896236Y1582733D1*
G1X1898282Y1587733D2*
G1X1900100Y1584608D1*
G1X1900100Y1581170D1*
G1X1901918Y1587733D2*
G1X1900100Y1584608D1*
G1X1795100Y1577733D2*
G1X1795100Y1571170D1*
G1X1797827Y1571170D1*
G1X1799873Y1577733D2*
G1X1799873Y1571170D1*
G1X1801918Y1577733D2*
G1X1801918Y1571170D1*
G1X1801918Y1577733D2*
G1X1805100Y1571170D1*
G1X1805100Y1577733D2*
G1X1805100Y1571170D1*
G1X1807145Y1577733D2*
G1X1807145Y1571170D1*
G1X1807145Y1577733D2*
G1X1808736Y1577733D1*
G1X1809418Y1577420D1*
G1X1809873Y1576795D1*
G1X1810100Y1576170D1*
G1X1810327Y1575233D1*
G1X1810327Y1573670D1*
G1X1810100Y1572733D1*
G1X1809873Y1572108D1*
G1X1809418Y1571483D1*
G1X1808736Y1571170D1*
G1X1807145Y1571170D1*
G1X1812373Y1577733D2*
G1X1812373Y1573045D1*
G1X1812600Y1572108D1*
G1X1813055Y1571483D1*
G1X1813736Y1571170D1*
G1X1814191Y1571170D1*
G1X1814873Y1571483D1*
G1X1815327Y1572108D1*
G1X1815555Y1573045D1*
G1X1815555Y1577733D1*
G1X1817600Y1577733D2*
G1X1817600Y1571170D1*
G1X1819645Y1577733D2*
G1X1819645Y1571170D1*
G1X1819645Y1577733D2*
G1X1822827Y1571170D1*
G1X1822827Y1577733D2*
G1X1822827Y1571170D1*
G1X1826236Y1577733D2*
G1X1825782Y1577420D1*
G1X1825327Y1576795D1*
G1X1825100Y1576170D1*
G1X1824873Y1575233D1*
G1X1824873Y1573670D1*
G1X1825100Y1572733D1*
G1X1825327Y1572108D1*
G1X1825782Y1571483D1*
G1X1826236Y1571170D1*
G1X1827145Y1571170D1*
G1X1827600Y1571483D1*
G1X1828055Y1572108D1*
G1X1828282Y1572733D1*
G1X1828509Y1573670D1*
G1X1828509Y1575233D1*
G1X1828282Y1576170D1*
G1X1828055Y1576795D1*
G1X1827600Y1577420D1*
G1X1827145Y1577733D1*
G1X1826236Y1577733D1*
G1X1837145Y1577733D2*
G1X1836691Y1577420D1*
G1X1836236Y1576795D1*
G1X1836009Y1576170D1*
G1X1835782Y1575233D1*
G1X1835782Y1573670D1*
G1X1836009Y1572733D1*
G1X1836236Y1572108D1*
G1X1836691Y1571483D1*
G1X1837145Y1571170D1*
G1X1838055Y1571170D1*
G1X1838509Y1571483D1*
G1X1838964Y1572108D1*
G1X1839191Y1572733D1*
G1X1839418Y1573670D1*
G1X1839418Y1575233D1*
G1X1839191Y1576170D1*
G1X1838964Y1576795D1*
G1X1838509Y1577420D1*
G1X1838055Y1577733D1*
G1X1837145Y1577733D1*
G1X1841464Y1577733D2*
G1X1841464Y1571170D1*
G1X1841464Y1577733D2*
G1X1844645Y1571170D1*
G1X1844645Y1577733D2*
G1X1844645Y1571170D1*
G1X1846691Y1577733D2*
G1X1846691Y1571170D1*
G1X1846691Y1577733D2*
G1X1849645Y1577733D1*
G1X1846691Y1574608D2*
G1X1848509Y1574608D1*
G1X1846691Y1571170D2*
G1X1849645Y1571170D1*
G1X1851918Y1575545D2*
G1X1851691Y1575233D1*
G1X1851918Y1574920D1*
G1X1852145Y1575233D1*
G1X1851918Y1575545D1*
G1X1851918Y1571795D2*
G1X1851691Y1571483D1*
G1X1851918Y1571170D1*
G1X1852145Y1571483D1*
G1X1851918Y1571795D1*
G1X1796918Y1557733D2*
G1X1795100Y1551170D1*
G1X1796918Y1557733D2*
G1X1798736Y1551170D1*
G1X1795782Y1553358D2*
G1X1798055Y1553358D1*
G1X1800782Y1557733D2*
G1X1800782Y1551170D1*
G1X1800782Y1557733D2*
G1X1802827Y1557733D1*
G1X1803509Y1557420D1*
G1X1803736Y1557108D1*
G1X1803964Y1556483D1*
G1X1803964Y1555858D1*
G1X1803736Y1555233D1*
G1X1803509Y1554920D1*
G1X1802827Y1554608D1*
G1X1800782Y1554608D1*
G1X1802373Y1554608D2*
G1X1803964Y1551170D1*
G1X1806009Y1557733D2*
G1X1806009Y1551170D1*
G1X1806009Y1557733D2*
G1X1807600Y1557733D1*
G1X1808282Y1557420D1*
G1X1808736Y1556795D1*
G1X1808964Y1556170D1*
G1X1809191Y1555233D1*
G1X1809191Y1553670D1*
G1X1808964Y1552733D1*
G1X1808736Y1552108D1*
G1X1808282Y1551483D1*
G1X1807600Y1551170D1*
G1X1806009Y1551170D1*
G1X1811236Y1557733D2*
G1X1811236Y1553045D1*
G1X1811464Y1552108D1*
G1X1811918Y1551483D1*
G1X1812600Y1551170D1*
G1X1813055Y1551170D1*
G1X1813736Y1551483D1*
G1X1814191Y1552108D1*
G1X1814418Y1553045D1*
G1X1814418Y1557733D1*
G1X1816464Y1557733D2*
G1X1816464Y1551170D1*
G1X1818509Y1557733D2*
G1X1818509Y1551170D1*
G1X1818509Y1557733D2*
G1X1821691Y1551170D1*
G1X1821691Y1557733D2*
G1X1821691Y1551170D1*
G1X1825100Y1557733D2*
G1X1824645Y1557420D1*
G1X1824191Y1556795D1*
G1X1823964Y1556170D1*
G1X1823736Y1555233D1*
G1X1823736Y1553670D1*
G1X1823964Y1552733D1*
G1X1824191Y1552108D1*
G1X1824645Y1551483D1*
G1X1825100Y1551170D1*
G1X1826009Y1551170D1*
G1X1826464Y1551483D1*
G1X1826918Y1552108D1*
G1X1827145Y1552733D1*
G1X1827373Y1553670D1*
G1X1827373Y1555233D1*
G1X1827145Y1556170D1*
G1X1826918Y1556795D1*
G1X1826464Y1557420D1*
G1X1826009Y1557733D1*
G1X1825100Y1557733D1*
G1X1829418Y1553983D2*
G1X1833509Y1553983D1*
G1X1838964Y1556170D2*
G1X1838736Y1556795D1*
G1X1838282Y1557420D1*
G1X1837827Y1557733D1*
G1X1836918Y1557733D1*
G1X1836464Y1557420D1*
G1X1836009Y1556795D1*
G1X1835782Y1556170D1*
G1X1835555Y1555233D1*
G1X1835555Y1553670D1*
G1X1835782Y1552733D1*
G1X1836009Y1552108D1*
G1X1836464Y1551483D1*
G1X1836918Y1551170D1*
G1X1837827Y1551170D1*
G1X1838282Y1551483D1*
G1X1838736Y1552108D1*
G1X1838964Y1552733D1*
G1X1842373Y1557733D2*
G1X1841918Y1557420D1*
G1X1841464Y1556795D1*
G1X1841236Y1556170D1*
G1X1841009Y1555233D1*
G1X1841009Y1553670D1*
G1X1841236Y1552733D1*
G1X1841464Y1552108D1*
G1X1841918Y1551483D1*
G1X1842373Y1551170D1*
G1X1843282Y1551170D1*
G1X1843736Y1551483D1*
G1X1844191Y1552108D1*
G1X1844418Y1552733D1*
G1X1844645Y1553670D1*
G1X1844645Y1555233D1*
G1X1844418Y1556170D1*
G1X1844191Y1556795D1*
G1X1843736Y1557420D1*
G1X1843282Y1557733D1*
G1X1842373Y1557733D1*
G1X1846691Y1557733D2*
G1X1846691Y1551170D1*
G1X1846691Y1557733D2*
G1X1848509Y1551170D1*
G1X1850327Y1557733D2*
G1X1848509Y1551170D1*
G1X1850327Y1557733D2*
G1X1850327Y1551170D1*
G1X1852373Y1557733D2*
G1X1852373Y1551170D1*
G1X1852373Y1557733D2*
G1X1854418Y1557733D1*
G1X1855100Y1557420D1*
G1X1855327Y1557108D1*
G1X1855555Y1556483D1*
G1X1855555Y1555545D1*
G1X1855327Y1554920D1*
G1X1855100Y1554608D1*
G1X1854418Y1554295D1*
G1X1852373Y1554295D1*
G1X1859418Y1557733D2*
G1X1857600Y1551170D1*
G1X1859418Y1557733D2*
G1X1861236Y1551170D1*
G1X1858282Y1553358D2*
G1X1860555Y1553358D1*
G1X1864873Y1557733D2*
G1X1864873Y1551170D1*
G1X1863282Y1557733D2*
G1X1866464Y1557733D1*
G1X1868509Y1557733D2*
G1X1868509Y1551170D1*
G1X1870555Y1557733D2*
G1X1870555Y1551170D1*
G1X1870555Y1557733D2*
G1X1872600Y1557733D1*
G1X1873282Y1557420D1*
G1X1873509Y1557108D1*
G1X1873736Y1556483D1*
G1X1873736Y1555858D1*
G1X1873509Y1555233D1*
G1X1873282Y1554920D1*
G1X1872600Y1554608D1*
G1X1870555Y1554608D2*
G1X1872600Y1554608D1*
G1X1873282Y1554295D1*
G1X1873509Y1553983D1*
G1X1873736Y1553358D1*
G1X1873736Y1552420D1*
G1X1873509Y1551795D1*
G1X1873282Y1551483D1*
G1X1872600Y1551170D1*
G1X1870555Y1551170D1*
G1X1875782Y1557733D2*
G1X1875782Y1551170D1*
G1X1878509Y1551170D1*
G1X1880555Y1557733D2*
G1X1880555Y1551170D1*
G1X1880555Y1557733D2*
G1X1883509Y1557733D1*
G1X1880555Y1554608D2*
G1X1882373Y1554608D1*
G1X1880555Y1551170D2*
G1X1883509Y1551170D1*
G1X1890782Y1557733D2*
G1X1890782Y1551170D1*
G1X1890782Y1557733D2*
G1X1892373Y1557733D1*
G1X1893055Y1557420D1*
G1X1893509Y1556795D1*
G1X1893736Y1556170D1*
G1X1893964Y1555233D1*
G1X1893964Y1553670D1*
G1X1893736Y1552733D1*
G1X1893509Y1552108D1*
G1X1893055Y1551483D1*
G1X1892373Y1551170D1*
G1X1890782Y1551170D1*
G1X1896009Y1557733D2*
G1X1896009Y1551170D1*
G1X1896009Y1557733D2*
G1X1898964Y1557733D1*
G1X1896009Y1554608D2*
G1X1897827Y1554608D1*
G1X1896009Y1551170D2*
G1X1898964Y1551170D1*
G1X1901009Y1557733D2*
G1X1901009Y1551170D1*
G1X1901009Y1557733D2*
G1X1902827Y1551170D1*
G1X1904645Y1557733D2*
G1X1902827Y1551170D1*
G1X1904645Y1557733D2*
G1X1904645Y1551170D1*
G1X1908055Y1557733D2*
G1X1907600Y1557420D1*
G1X1907145Y1556795D1*
G1X1906918Y1556170D1*
G1X1906691Y1555233D1*
G1X1906691Y1553670D1*
G1X1906918Y1552733D1*
G1X1907145Y1552108D1*
G1X1907600Y1551483D1*
G1X1908055Y1551170D1*
G1X1908964Y1551170D1*
G1X1909418Y1551483D1*
G1X1909873Y1552108D1*
G1X1910100Y1552733D1*
G1X1910327Y1553670D1*
G1X1910327Y1555233D1*
G1X1910100Y1556170D1*
G1X1909873Y1556795D1*
G1X1909418Y1557420D1*
G1X1908964Y1557733D1*
G1X1908055Y1557733D1*
G1X1912373Y1557733D2*
G1X1912373Y1551170D1*
G1X1912373Y1557733D2*
G1X1915555Y1551170D1*
G1X1915555Y1557733D2*
G1X1915555Y1551170D1*
G1X1920782Y1556795D2*
G1X1920327Y1557420D1*
G1X1919645Y1557733D1*
G1X1918736Y1557733D1*
G1X1918055Y1557420D1*
G1X1917600Y1556795D1*
G1X1917600Y1556170D1*
G1X1917827Y1555545D1*
G1X1918055Y1555233D1*
G1X1918509Y1554920D1*
G1X1919873Y1554295D1*
G1X1920327Y1553983D1*
G1X1920555Y1553670D1*
G1X1920782Y1553045D1*
G1X1920782Y1552108D1*
G1X1920327Y1551483D1*
G1X1919645Y1551170D1*
G1X1918736Y1551170D1*
G1X1918055Y1551483D1*
G1X1917600Y1552108D1*
G1X1924418Y1557733D2*
G1X1924418Y1551170D1*
G1X1922827Y1557733D2*
G1X1926009Y1557733D1*
G1X1928055Y1557733D2*
G1X1928055Y1551170D1*
G1X1928055Y1557733D2*
G1X1930100Y1557733D1*
G1X1930782Y1557420D1*
G1X1931009Y1557108D1*
G1X1931236Y1556483D1*
G1X1931236Y1555858D1*
G1X1931009Y1555233D1*
G1X1930782Y1554920D1*
G1X1930100Y1554608D1*
G1X1928055Y1554608D1*
G1X1929645Y1554608D2*
G1X1931236Y1551170D1*
G1X1935100Y1557733D2*
G1X1933282Y1551170D1*
G1X1935100Y1557733D2*
G1X1936918Y1551170D1*
G1X1933964Y1553358D2*
G1X1936236Y1553358D1*
G1X1940555Y1557733D2*
G1X1940555Y1551170D1*
G1X1938964Y1557733D2*
G1X1942145Y1557733D1*
G1X1944191Y1557733D2*
G1X1944191Y1551170D1*
G1X1947600Y1557733D2*
G1X1947145Y1557420D1*
G1X1946691Y1556795D1*
G1X1946464Y1556170D1*
G1X1946236Y1555233D1*
G1X1946236Y1553670D1*
G1X1946464Y1552733D1*
G1X1946691Y1552108D1*
G1X1947145Y1551483D1*
G1X1947600Y1551170D1*
G1X1948509Y1551170D1*
G1X1948964Y1551483D1*
G1X1949418Y1552108D1*
G1X1949645Y1552733D1*
G1X1949873Y1553670D1*
G1X1949873Y1555233D1*
G1X1949645Y1556170D1*
G1X1949418Y1556795D1*
G1X1948964Y1557420D1*
G1X1948509Y1557733D1*
G1X1947600Y1557733D1*
G1X1951918Y1557733D2*
G1X1951918Y1551170D1*
G1X1951918Y1557733D2*
G1X1955100Y1551170D1*
G1X1955100Y1557733D2*
G1X1955100Y1551170D1*
G1X1962373Y1557733D2*
G1X1962373Y1551170D1*
G1X1962373Y1557733D2*
G1X1964418Y1557733D1*
G1X1965100Y1557420D1*
G1X1965327Y1557108D1*
G1X1965555Y1556483D1*
G1X1965555Y1555858D1*
G1X1965327Y1555233D1*
G1X1965100Y1554920D1*
G1X1964418Y1554608D1*
G1X1962373Y1554608D2*
G1X1964418Y1554608D1*
G1X1965100Y1554295D1*
G1X1965327Y1553983D1*
G1X1965555Y1553358D1*
G1X1965555Y1552420D1*
G1X1965327Y1551795D1*
G1X1965100Y1551483D1*
G1X1964418Y1551170D1*
G1X1962373Y1551170D1*
G1X1968964Y1557733D2*
G1X1968509Y1557420D1*
G1X1968055Y1556795D1*
G1X1967827Y1556170D1*
G1X1967600Y1555233D1*
G1X1967600Y1553670D1*
G1X1967827Y1552733D1*
G1X1968055Y1552108D1*
G1X1968509Y1551483D1*
G1X1968964Y1551170D1*
G1X1969873Y1551170D1*
G1X1970327Y1551483D1*
G1X1970782Y1552108D1*
G1X1971009Y1552733D1*
G1X1971236Y1553670D1*
G1X1971236Y1555233D1*
G1X1971009Y1556170D1*
G1X1970782Y1556795D1*
G1X1970327Y1557420D1*
G1X1969873Y1557733D1*
G1X1968964Y1557733D1*
G1X1975100Y1557733D2*
G1X1973282Y1551170D1*
G1X1975100Y1557733D2*
G1X1976918Y1551170D1*
G1X1973964Y1553358D2*
G1X1976236Y1553358D1*
G1X1978964Y1557733D2*
G1X1978964Y1551170D1*
G1X1978964Y1557733D2*
G1X1981009Y1557733D1*
G1X1981691Y1557420D1*
G1X1981918Y1557108D1*
G1X1982145Y1556483D1*
G1X1982145Y1555858D1*
G1X1981918Y1555233D1*
G1X1981691Y1554920D1*
G1X1981009Y1554608D1*
G1X1978964Y1554608D1*
G1X1980555Y1554608D2*
G1X1982145Y1551170D1*
G1X1984191Y1557733D2*
G1X1984191Y1551170D1*
G1X1984191Y1557733D2*
G1X1985782Y1557733D1*
G1X1986464Y1557420D1*
G1X1986918Y1556795D1*
G1X1987145Y1556170D1*
G1X1987373Y1555233D1*
G1X1987373Y1553670D1*
G1X1987145Y1552733D1*
G1X1986918Y1552108D1*
G1X1986464Y1551483D1*
G1X1985782Y1551170D1*
G1X1984191Y1551170D1*
G1X1666100Y1601800D2*
G75*
G3X1668100Y1599800I2000J0D1*
G74*
G1X1666100Y1601800D2*
G1X1666100Y1807800D1*
G1X1668100Y1809800D2*
G75*
G3X1666100Y1807800I0J-2000D1*
G74*
G1X1668100Y1809800D2*
G1X1920100Y1809800D1*
G1X1926100Y1803800D1*
G1X1926100Y1758800D1*
G1X1936100Y1748800D1*
G1X1936100Y1619800D1*
G1X1926100Y1609800D1*
G1X1926100Y1601800D1*
G1X1924100Y1599800D2*
G75*
G3X1926100Y1601800I0J2000D1*
G74*
G1X1924100Y1599800D2*
G1X1668100Y1599800D1*
G54D22*
G1X1916600Y1719800D3*
G1X1766100Y1699300D3*
G54D23*
G1X1926600Y1719800D3*
G1X1916600Y1709800D3*
G1X1926600Y1709800D3*
G1X1916600Y1699800D3*
G1X1926600Y1699800D3*
G1X1699100Y1741800D3*
G1X1699100Y1751643D3*
G1X1691226Y1751643D3*
G1X1691226Y1741800D3*
G1X1892600Y1700800D3*
G1X1882600Y1700800D3*
G1X1774000Y1699300D3*
G1X1781900Y1699300D3*
G54D33*
G1X1900100Y1634300D3*
G54D36*
G1X1680557Y1723020D3*
G1X1680557Y1770422D3*
G54D44*
G1X1733600Y1678300D3*
G1X1680100Y1698800D3*
G1X1815100Y1740800D3*
G1X1815100Y1733300D3*
G54D167*
G1X1725990Y1800030D3*
G1X1925990Y1740030D3*
G1X1925990Y1630030D3*
G1X1720990Y1610030D3*
G54D168*
G1X1866100Y1609800D3*
G1X1876100Y1609800D3*
G1X1886100Y1609800D3*
G1X1896100Y1609800D3*
G1X1906100Y1609800D3*
G1X1916100Y1609800D3*
G1X1776100Y1609800D3*
G1X1786100Y1609800D3*
G1X1796100Y1609800D3*
G1X1806100Y1609800D3*
G1X1816100Y1609800D3*
G1X1826100Y1609800D3*
G1X1836100Y1609800D3*
G1X1846100Y1609800D3*
G1X1830100Y1799800D3*
G1X1820100Y1799800D3*
G1X1810100Y1799800D3*
G1X1800100Y1799800D3*
G1X1790100Y1799800D3*
G1X1780100Y1799800D3*
G1X1770100Y1799800D3*
G1X1760100Y1799800D3*
G1X1750100Y1799800D3*
G1X1740100Y1799800D3*
G1X1916100Y1799800D3*
G1X1906100Y1799800D3*
G1X1896100Y1799800D3*
G1X1886100Y1799800D3*
G1X1876100Y1799800D3*
G1X1866100Y1799800D3*
G1X1856100Y1799800D3*
G1X1846100Y1799800D3*
G54D169*
G1X1849124Y1668532D3*
G1X1845974Y1668532D3*
G1X1842824Y1668532D3*
G1X1839675Y1668532D3*
G1X1836525Y1668532D3*
G1X1833376Y1668532D3*
G1X1830226Y1668532D3*
G1X1827076Y1668532D3*
G1X1827076Y1635068D3*
G1X1830226Y1635068D3*
G1X1833376Y1635068D3*
G1X1836525Y1635068D3*
G1X1839675Y1635068D3*
G1X1842824Y1635068D3*
G1X1845974Y1635068D3*
G1X1849124Y1635068D3*
G54D170*
G1X1821368Y1662824D3*
G1X1821368Y1659674D3*
G1X1821368Y1656524D3*
G1X1821368Y1653375D3*
G1X1821368Y1650225D3*
G1X1821368Y1647076D3*
G1X1821368Y1643926D3*
G1X1821368Y1640776D3*
G1X1854832Y1640776D3*
G1X1854832Y1643926D3*
G1X1854832Y1647076D3*
G1X1854832Y1650225D3*
G1X1854832Y1653375D3*
G1X1854832Y1656524D3*
G1X1854832Y1659674D3*
G1X1854832Y1662824D3*
G54D171*
G1X1878450Y1750800D3*
G1X1884750Y1750800D3*
G1X1888950Y1776800D3*
G1X1895250Y1776800D3*
G1X1747050Y1702200D3*
G1X1753350Y1702200D3*
G1X1834950Y1627800D3*
G1X1841250Y1627800D3*
G1X1829250Y1627800D3*
G1X1822950Y1627800D3*
G1X1841950Y1677800D3*
G1X1848250Y1677800D3*
G1X1796250Y1776800D3*
G1X1789950Y1776800D3*
G1X1798250Y1727200D3*
G1X1791950Y1727200D3*
G1X1872550Y1724900D3*
G1X1878850Y1724900D3*
G54D172*
G1X1904100Y1768950D3*
G1X1904100Y1762650D3*
G1X1894600Y1743950D3*
G1X1894600Y1737650D3*
G1X1796600Y1660650D3*
G1X1796600Y1666950D3*
G1X1752600Y1689450D3*
G1X1752600Y1683150D3*
G1X1796600Y1654450D3*
G1X1796600Y1648150D3*
G1X1832600Y1677950D3*
G1X1832600Y1684250D3*
G54D173*
G1X1804643Y1738800D3*
G1X1797557Y1738800D3*
G54D174*
G1X1740600Y1682843D3*
G1X1740600Y1675757D3*
G1X1911100Y1769343D3*
G1X1911100Y1762257D3*
G1X1911600Y1744343D3*
G1X1911600Y1737257D3*
G1X1902600Y1717343D3*
G1X1902600Y1710257D3*
G54D176*
G1X1797200Y1765800D3*
G1X1789000Y1765800D3*
G54D177*
G1X1902600Y1743950D3*
G1X1902600Y1737650D3*
G1X1803600Y1674650D3*
G1X1803600Y1680950D3*
G1X1752600Y1677950D3*
G1X1752600Y1671650D3*
G1X1902600Y1731950D3*
G1X1902600Y1725650D3*
G1X1864900Y1726550D3*
G1X1864900Y1720250D3*
G1X1889200Y1716850D3*
G1X1889200Y1710550D3*
G1X1863100Y1711450D3*
G1X1863100Y1705150D3*
G1X1826600Y1678150D3*
G1X1826600Y1684450D3*
G1X1817600Y1628150D3*
G1X1817600Y1634450D3*
G54D178*
G1X1871950Y1642300D3*
G1X1878250Y1642300D3*
G1X1770850Y1633500D3*
G1X1777150Y1633500D3*
G1X1770850Y1639500D3*
G1X1777150Y1639500D3*
G1X1798250Y1732100D3*
G1X1791950Y1732100D3*
G1X1782250Y1745800D3*
G1X1775950Y1745800D3*
G1X1922750Y1673670D3*
G1X1916450Y1673670D3*
G1X1922750Y1665670D3*
G1X1916450Y1665670D3*
G1X1922750Y1643670D3*
G1X1916450Y1643670D3*
G1X1922750Y1650170D3*
G1X1916450Y1650170D3*
G1X1871950Y1649300D3*
G1X1878250Y1649300D3*
G1X1922750Y1657670D3*
G1X1916450Y1657670D3*
G1X1871950Y1658800D3*
G1X1878250Y1658800D3*
G54D179*
G1X1725360Y1636800D3*
G1X1732840Y1636800D3*
G54D180*
G1X1710100Y1632800D3*
G54D181*
G1X1686100Y1632800D3*
G54D182*
G1X1698100Y1614296D3*
G54D183*
G1X1892226Y1634300D3*
G1X1900100Y1642174D3*
G1X1892226Y1642174D3*
G1X1900100Y1650048D3*
G1X1892226Y1650048D3*
G1X1900100Y1657922D3*
G1X1892226Y1657922D3*
G1X1900100Y1665796D3*
G1X1892226Y1665796D3*
G1X1900100Y1673670D3*
G1X1892226Y1673670D3*
G1X1900100Y1681544D3*
G1X1892226Y1681544D3*
G54D186*
G1X1876785Y1744040D3*
G1X1876785Y1740300D3*
G1X1876785Y1736560D3*
G1X1887415Y1736560D3*
G1X1887415Y1744040D3*
G1X1871385Y1718340D3*
G1X1871385Y1714600D3*
G1X1871385Y1710860D3*
G1X1882015Y1710860D3*
G1X1882015Y1718340D3*
G1X1886785Y1769540D3*
G1X1886785Y1765800D3*
G1X1886785Y1762060D3*
G1X1897415Y1762060D3*
G1X1897415Y1769540D3*
G54D187*
G1X1740740Y1702015D3*
G1X1737000Y1702015D3*
G1X1733260Y1702015D3*
G1X1733260Y1691385D3*
G1X1740740Y1691385D3*
G54D188*
G1X1787943Y1754540D3*
G1X1787943Y1750800D3*
G1X1787943Y1747060D3*
G1X1798257Y1747060D3*
G1X1798257Y1750800D3*
G1X1798257Y1754540D3*
G54D189*
G1X1714100Y1720800D3*
G1X1714100Y1725800D3*
G1X1714100Y1730800D3*
G1X1714100Y1735800D3*
G1X1714100Y1740800D3*
G1X1714100Y1745800D3*
G1X1714100Y1750800D3*
G1X1714100Y1755800D3*
G1X1714100Y1760800D3*
G1X1714100Y1765800D3*
G1X1714100Y1770800D3*
G1X1719100Y1770800D3*
G1X1719100Y1765800D3*
G1X1719100Y1760800D3*
G1X1719100Y1755800D3*
G1X1719100Y1745800D3*
G1X1719100Y1740800D3*
G1X1719100Y1735800D3*
G1X1719100Y1730800D3*
G1X1719100Y1725800D3*
G1X1719100Y1720800D3*
G1X1719100Y1750800D3*
G1X1759100Y1720800D3*
G1X1759100Y1725800D3*
G1X1759100Y1730800D3*
G1X1759100Y1735800D3*
G1X1759100Y1740800D3*
G1X1759100Y1745800D3*
G1X1759100Y1750800D3*
G1X1759100Y1755800D3*
G1X1759100Y1760800D3*
G1X1759100Y1765800D3*
G1X1759100Y1770800D3*
G1X1764100Y1720800D3*
G1X1764100Y1725800D3*
G1X1764100Y1730800D3*
G1X1764100Y1735800D3*
G1X1764100Y1740800D3*
G1X1764100Y1745800D3*
G1X1764100Y1750800D3*
G1X1764100Y1755800D3*
G1X1764100Y1760800D3*
G1X1764100Y1765800D3*
G1X1764100Y1770800D3*
G54D192*
G1X1800072Y1643540D3*
G1X1800072Y1636060D3*
G1X1809128Y1639800D3*
G54D193*
G1X1760420Y1680834D3*
G1X1760420Y1678275D3*
G1X1760420Y1675716D3*
G1X1760420Y1673157D3*
G1X1760420Y1670598D3*
G1X1760420Y1668039D3*
G1X1760420Y1665480D3*
G1X1760420Y1662920D3*
G1X1760420Y1660361D3*
G1X1760420Y1657802D3*
G1X1760420Y1655243D3*
G1X1760420Y1652684D3*
G1X1760420Y1650125D3*
G1X1760420Y1647566D3*
G1X1787980Y1647566D3*
G1X1787980Y1650125D3*
G1X1787980Y1652684D3*
G1X1787980Y1655243D3*
G1X1787980Y1657802D3*
G1X1787980Y1660361D3*
G1X1787980Y1662920D3*
G1X1787980Y1665480D3*
G1X1787980Y1668039D3*
G1X1787980Y1670598D3*
G1X1787980Y1673157D3*
G1X1787980Y1675716D3*
G1X1787980Y1678275D3*
G1X1787980Y1680834D3*
G54D194*
G1X1733100Y1614900D3*
G1X1733100Y1623700D3*
G1X1742100Y1614900D3*
G1X1742100Y1623700D3*
G1X1752100Y1614900D3*
G1X1752100Y1623700D3*
G1X1762100Y1614900D3*
G1X1762100Y1623700D3*
G54D201*
G1X1813100Y1674060D3*
G1X1813100Y1677800D3*
G1X1813100Y1681540D3*
G54D202*
G1X1689271Y1700200D3*
G1X1693129Y1700200D3*
G54D203*
G1X1673823Y1702895D3*
G1X1673823Y1699037D3*
G54D204*
G1X1724100Y1702206D3*
G1X1724100Y1690394D3*
G1X1696600Y1663394D3*
G1X1696600Y1675206D3*
G54D205*
G1X1670057Y1702855D3*
G1X1670057Y1699076D3*
G1X1675600Y1679910D3*
G1X1675600Y1683690D3*
G1X1675600Y1690690D3*
G1X1675600Y1686910D3*
G1X1684100Y1671690D3*
G1X1684100Y1667910D3*
G54D206*
G1X1684210Y1664300D3*
G1X1687990Y1664300D3*
G54D207*
G1X1740100Y1662765D3*
G1X1740100Y1645835D3*
G54D208*
G1X1682660Y1676750D3*
G1X1684630Y1676750D3*
G1X1686600Y1676750D3*
G1X1688570Y1676750D3*
G1X1690540Y1676750D3*
G1X1690540Y1693850D3*
G1X1688570Y1693850D3*
G1X1686600Y1693850D3*
G1X1684630Y1693850D3*
G1X1682660Y1693850D3*
G54D209*
G1X1686600Y1685300D3*
G54D210*
G1X1709100Y1691300D3*
G1X1709100Y1704300D3*
G54D211*
G1X1715600Y1661639D3*
G1X1715600Y1678961D3*
G54D212*
G1X1698411Y1795300D3*
G1X1674789Y1795300D3*
G54D213*
G1X1829600Y1701300D3*
G54D214*
G1X1829600Y1709200D3*
G1X1837500Y1701300D3*
G1X1837500Y1709200D3*
G1X1845400Y1701300D3*
G1X1845400Y1709200D3*
G1X1853274Y1701300D3*
G1X1853274Y1709174D3*
M2*
