*
%LPD*%
%LNDC2026C1-TS*%
%FSLAX25Y25*%
%MOIN*%
%AD*%
%AD*%
%ADD11C,0.01*%
%ADD12C,0.008*%
%ADD14C,0.012*%
%ADD40C,0.015*%
%ADD43C,0.001*%
%ADD161C,0.007870079*%
%ADD163C,0.006*%
%ADD164C,0.009840157*%
%ADD165C,0.007*%
%ADD197C,0.019690157*%
%ADD198C,0.007870079*%
%ADD199C,0.003940157*%
%ADD218C,0.009840157*%
G54D43*
%SRX1Y1I0.0J0.0*%
G1X1871000Y1743245D2*
G1X1870903Y1743682D1*
G1X1870713Y1744014D1*
G1X1870333Y1744252D1*
G1X1869903Y1744299D1*
G1X1869471Y1744203D1*
G1X1869129Y1743959D1*
G1X1869068Y1743962D1*
G1X1868777Y1744204D1*
G1X1868347Y1744299D1*
G1X1867868Y1744252D1*
G1X1867538Y1744016D1*
G1X1867347Y1743682D1*
G1X1867250Y1743245D1*
G1X1867250Y1740850D1*
G1X1868050Y1740850D1*
G1X1868050Y1743100D1*
G1X1868051Y1743108D1*
G1X1868101Y1743408D1*
G1X1868115Y1743435D1*
G1X1868215Y1743535D1*
G1X1868250Y1743550D1*
G1X1868500Y1743550D1*
G1X1868535Y1743535D1*
G1X1868635Y1743435D1*
G1X1868647Y1743416D1*
G1X1868747Y1743116D1*
G1X1868750Y1743100D1*
G1X1868750Y1740850D1*
G1X1869500Y1740850D1*
G1X1869500Y1743100D1*
G1X1869503Y1743116D1*
G1X1869603Y1743416D1*
G1X1869605Y1743422D1*
G1X1869655Y1743522D1*
G1X1869700Y1743550D1*
G1X1870000Y1743550D1*
G1X1870035Y1743535D1*
G1X1870135Y1743435D1*
G1X1870149Y1743408D1*
G1X1870199Y1743108D1*
G1X1870200Y1743100D1*
G1X1870200Y1740850D1*
G1X1871000Y1740850D1*
G1X1871000Y1743245D1*
G1X1866850Y1744250D2*
G1X1864800Y1744250D1*
G1X1864800Y1743500D1*
G1X1865400Y1743500D1*
G1X1865450Y1743450D1*
G1X1865450Y1740850D1*
G1X1866200Y1740850D1*
G1X1866200Y1743450D1*
G1X1866250Y1743500D1*
G1X1866850Y1743500D1*
G1X1866850Y1744250D1*
G1X1864149Y1739700D2*
G1X1863903Y1740929D1*
G1X1863164Y1741914D1*
G1X1862179Y1742654D1*
G1X1861074Y1742899D1*
G1X1859846Y1742653D1*
G1X1858862Y1741916D1*
G1X1858247Y1740931D1*
G1X1858001Y1739700D1*
G1X1858247Y1738469D1*
G1X1858862Y1737484D1*
G1X1859351Y1737118D1*
G1X1859841Y1736873D1*
G1X1861074Y1736626D1*
G1X1862181Y1736872D1*
G1X1863166Y1737487D1*
G1X1863903Y1738471D1*
G1X1864149Y1739700D1*
G1X1862374Y1739688D2*
G1X1862249Y1739188D1*
G1X1862242Y1739172D1*
G1X1861992Y1738797D1*
G1X1861978Y1738783D1*
G1X1861603Y1738533D1*
G1X1861587Y1738526D1*
G1X1861087Y1738401D1*
G1X1861063Y1738401D1*
G1X1860563Y1738526D1*
G1X1860547Y1738533D1*
G1X1860172Y1738783D1*
G1X1860158Y1738797D1*
G1X1859908Y1739172D1*
G1X1859901Y1739188D1*
G1X1859776Y1739688D1*
G1X1859776Y1739712D1*
G1X1859901Y1740212D1*
G1X1859905Y1740222D1*
G1X1860155Y1740722D1*
G1X1860172Y1740742D1*
G1X1860547Y1740992D1*
G1X1860575Y1741000D1*
G1X1861575Y1741000D1*
G1X1861610Y1740985D1*
G1X1861985Y1740610D1*
G1X1861992Y1740603D1*
G1X1862242Y1740228D1*
G1X1862249Y1740212D1*
G1X1862374Y1739712D1*
G1X1862374Y1739688D1*
G1X1857025Y1740197D2*
G1X1856902Y1741307D1*
G1X1856290Y1742163D1*
G1X1855555Y1742653D1*
G1X1854450Y1742899D1*
G1X1853345Y1742653D1*
G1X1852610Y1742163D1*
G1X1851998Y1741307D1*
G1X1851875Y1740197D1*
G1X1851875Y1736750D1*
G1X1853775Y1736750D1*
G1X1853775Y1740200D1*
G1X1853776Y1740210D1*
G1X1853901Y1740835D1*
G1X1853938Y1740874D1*
G1X1854438Y1740999D1*
G1X1854462Y1740999D1*
G1X1854962Y1740874D1*
G1X1854996Y1740844D1*
G1X1855246Y1740219D1*
G1X1855250Y1740200D1*
G1X1855250Y1736750D1*
G1X1857025Y1736750D1*
G1X1857025Y1740197D1*
G1X1850525Y1742775D2*
G1X1848625Y1742775D1*
G1X1848625Y1736750D1*
G1X1850525Y1736750D1*
G1X1850525Y1742775D1*
G1X1850648Y1744450D2*
G1X1850529Y1744929D1*
G1X1850293Y1745283D1*
G1X1849573Y1745523D1*
G1X1849089Y1745402D1*
G1X1848732Y1745283D1*
G1X1848500Y1744935D1*
G1X1848500Y1743971D1*
G1X1848732Y1743739D1*
G1X1849096Y1743496D1*
G1X1849573Y1743377D1*
G1X1849928Y1743495D1*
G1X1850293Y1743739D1*
G1X1850530Y1743976D1*
G1X1850648Y1744450D1*
G1X1847275Y1742775D2*
G1X1845500Y1742775D1*
G1X1845500Y1739325D1*
G1X1845496Y1739306D1*
G1X1845246Y1738681D1*
G1X1845235Y1738665D1*
G1X1844985Y1738415D1*
G1X1844950Y1738400D1*
G1X1844450Y1738400D1*
G1X1844415Y1738415D1*
G1X1844165Y1738665D1*
G1X1844151Y1738690D1*
G1X1844026Y1739315D1*
G1X1844025Y1739325D1*
G1X1844025Y1742775D1*
G1X1842125Y1742775D1*
G1X1842125Y1739328D1*
G1X1842248Y1738218D1*
G1X1842862Y1737359D1*
G1X1843595Y1736748D1*
G1X1844700Y1736625D1*
G1X1845805Y1736748D1*
G1X1846538Y1737359D1*
G1X1847152Y1738218D1*
G1X1847275Y1739328D1*
G1X1847275Y1742775D1*
G1X1836934Y1730379D2*
G1X1835926Y1730929D1*
G1X1835746Y1730481D1*
G1X1835730Y1730460D1*
G1X1834930Y1729860D1*
G1X1834900Y1729850D1*
G1X1834500Y1729850D1*
G1X1834490Y1729851D1*
G1X1833990Y1729951D1*
G1X1833972Y1729958D1*
G1X1833672Y1730158D1*
G1X1833655Y1730178D1*
G1X1833455Y1730578D1*
G1X1833451Y1730590D1*
G1X1833351Y1731090D1*
G1X1833350Y1731100D1*
G1X1833350Y1731600D1*
G1X1833360Y1731630D1*
G1X1833660Y1732030D1*
G1X1833665Y1732035D1*
G1X1833965Y1732335D1*
G1X1833988Y1732349D1*
G1X1834388Y1732449D1*
G1X1834416Y1732447D1*
G1X1835016Y1732247D1*
G1X1835028Y1732159D1*
G1X1833769Y1731287D1*
G1X1834314Y1730469D1*
G1X1836633Y1732016D1*
G1X1836261Y1732667D1*
G1X1835672Y1733158D1*
G1X1835085Y1733452D1*
G1X1834401Y1733549D1*
G1X1833421Y1733353D1*
G1X1832636Y1732764D1*
G1X1832047Y1731979D1*
G1X1831851Y1731000D1*
G1X1832047Y1730021D1*
G1X1832634Y1729237D1*
G1X1833419Y1728747D1*
G1X1834402Y1728551D1*
G1X1835185Y1728649D1*
G1X1835970Y1729041D1*
G1X1836559Y1729630D1*
G1X1836934Y1730379D1*
G1X1841025Y1745400D2*
G1X1839125Y1745400D1*
G1X1839125Y1739950D1*
G1X1839124Y1739940D1*
G1X1838999Y1739315D1*
G1X1838995Y1739303D1*
G1X1838745Y1738803D1*
G1X1838735Y1738790D1*
G1X1838360Y1738415D1*
G1X1838335Y1738401D1*
G1X1837710Y1738276D1*
G1X1837690Y1738276D1*
G1X1837065Y1738401D1*
G1X1837047Y1738408D1*
G1X1836672Y1738658D1*
G1X1836655Y1738678D1*
G1X1836405Y1739178D1*
G1X1836401Y1739188D1*
G1X1836276Y1739688D1*
G1X1836276Y1739710D1*
G1X1836401Y1740335D1*
G1X1836408Y1740353D1*
G1X1836658Y1740728D1*
G1X1836672Y1740742D1*
G1X1837047Y1740992D1*
G1X1837065Y1740999D1*
G1X1837690Y1741124D1*
G1X1837700Y1741125D1*
G1X1838200Y1741125D1*
G1X1838222Y1741120D1*
G1X1838400Y1741031D1*
G1X1838400Y1742775D1*
G1X1838075Y1742775D1*
G1X1838063Y1742776D1*
G1X1837574Y1742899D1*
G1X1836344Y1742653D1*
G1X1835359Y1742038D1*
G1X1834622Y1741054D1*
G1X1834376Y1739700D1*
G1X1834622Y1738469D1*
G1X1835236Y1737487D1*
G1X1836342Y1736872D1*
G1X1837578Y1736625D1*
G1X1838935Y1736749D1*
G1X1840045Y1737365D1*
G1X1840412Y1737733D1*
G1X1840781Y1738225D1*
G1X1841025Y1738835D1*
G1X1841025Y1745400D1*
G1X1833400Y1740197D2*
G1X1833277Y1741307D1*
G1X1832665Y1742163D1*
G1X1831930Y1742653D1*
G1X1830825Y1742899D1*
G1X1829720Y1742653D1*
G1X1828985Y1742163D1*
G1X1828373Y1741307D1*
G1X1828250Y1740197D1*
G1X1828250Y1736750D1*
G1X1830150Y1736750D1*
G1X1830150Y1740200D1*
G1X1830151Y1740210D1*
G1X1830276Y1740835D1*
G1X1830313Y1740874D1*
G1X1830813Y1740999D1*
G1X1830837Y1740999D1*
G1X1831337Y1740874D1*
G1X1831371Y1740844D1*
G1X1831621Y1740219D1*
G1X1831625Y1740200D1*
G1X1831625Y1736750D1*
G1X1833400Y1736750D1*
G1X1833400Y1740197D1*
G1X1831150Y1731397D2*
G1X1831052Y1732282D1*
G1X1830565Y1732963D1*
G1X1829980Y1733353D1*
G1X1829100Y1733549D1*
G1X1828220Y1733353D1*
G1X1827635Y1732963D1*
G1X1827148Y1732282D1*
G1X1827050Y1731397D1*
G1X1827050Y1728650D1*
G1X1828550Y1728650D1*
G1X1828550Y1731400D1*
G1X1828551Y1731410D1*
G1X1828651Y1731910D1*
G1X1828688Y1731949D1*
G1X1829088Y1732049D1*
G1X1829112Y1732049D1*
G1X1829512Y1731949D1*
G1X1829546Y1731919D1*
G1X1829746Y1731419D1*
G1X1829750Y1731400D1*
G1X1829750Y1728650D1*
G1X1831150Y1728650D1*
G1X1831150Y1731397D1*
G1X1826249Y1732100D2*
G1X1826151Y1732790D1*
G1X1825953Y1733482D1*
G1X1825659Y1734070D1*
G1X1824670Y1735059D1*
G1X1824082Y1735353D1*
G1X1823390Y1735551D1*
G1X1822700Y1735649D1*
G1X1822010Y1735551D1*
G1X1821318Y1735353D1*
G1X1820730Y1735059D1*
G1X1819741Y1734070D1*
G1X1819447Y1733482D1*
G1X1819249Y1732790D1*
G1X1819151Y1732100D1*
G1X1819249Y1731410D1*
G1X1819447Y1730718D1*
G1X1819742Y1730128D1*
G1X1820235Y1729536D1*
G1X1820730Y1729140D1*
G1X1821321Y1728746D1*
G1X1822007Y1728550D1*
G1X1823393Y1728550D1*
G1X1824079Y1728746D1*
G1X1824670Y1729140D1*
G1X1825165Y1729536D1*
G1X1825658Y1730128D1*
G1X1825953Y1730718D1*
G1X1826151Y1731410D1*
G1X1826249Y1732100D1*
G1X1824549Y1732093D2*
G1X1824449Y1731393D1*
G1X1824442Y1731372D1*
G1X1824042Y1730772D1*
G1X1824028Y1730758D1*
G1X1823428Y1730358D1*
G1X1823414Y1730352D1*
G1X1822714Y1730152D1*
G1X1822686Y1730152D1*
G1X1821986Y1730352D1*
G1X1821972Y1730358D1*
G1X1821372Y1730758D1*
G1X1821358Y1730772D1*
G1X1820958Y1731372D1*
G1X1820951Y1731393D1*
G1X1820851Y1732093D1*
G1X1820851Y1732107D1*
G1X1820951Y1732807D1*
G1X1820958Y1732828D1*
G1X1821358Y1733428D1*
G1X1821372Y1733442D1*
G1X1821972Y1733842D1*
G1X1821993Y1733849D1*
G1X1822693Y1733949D1*
G1X1822707Y1733949D1*
G1X1823407Y1733849D1*
G1X1823428Y1733842D1*
G1X1824028Y1733442D1*
G1X1824042Y1733428D1*
G1X1824442Y1732828D1*
G1X1824449Y1732807D1*
G1X1824549Y1732107D1*
G1X1824549Y1732093D1*
G1X1826900Y1742775D2*
G1X1825000Y1742775D1*
G1X1825000Y1736750D1*
G1X1826900Y1736750D1*
G1X1826900Y1742775D1*
G1X1827023Y1744450D2*
G1X1826904Y1744929D1*
G1X1826668Y1745283D1*
G1X1825948Y1745523D1*
G1X1825464Y1745402D1*
G1X1825107Y1745283D1*
G1X1824875Y1744935D1*
G1X1824875Y1743971D1*
G1X1825107Y1743739D1*
G1X1825471Y1743496D1*
G1X1825948Y1743377D1*
G1X1826303Y1743495D1*
G1X1826668Y1743739D1*
G1X1826905Y1743976D1*
G1X1827023Y1744450D1*
G1X1824025Y1738775D2*
G1X1822075Y1738775D1*
G1X1822059Y1738778D1*
G1X1821684Y1738903D1*
G1X1821655Y1738928D1*
G1X1821530Y1739178D1*
G1X1821525Y1739200D1*
G1X1821525Y1745400D1*
G1X1819375Y1745400D1*
G1X1819375Y1739580D1*
G1X1819623Y1738217D1*
G1X1820111Y1737363D1*
G1X1821089Y1736874D1*
G1X1822452Y1736750D1*
G1X1824025Y1736750D1*
G1X1824025Y1738775D1*
G1X1819200Y1731754D2*
G1X1819200Y1732446D1*
G1X1819300Y1731232D2*
G1X1819300Y1732968D1*
G1X1819400Y1730882D2*
G1X1819400Y1733318D1*
G1X1819400Y1739442D2*
G1X1819400Y1745400D1*
G1X1819500Y1730612D2*
G1X1819500Y1733588D1*
G1X1819500Y1738892D2*
G1X1819500Y1745400D1*
G1X1819600Y1730412D2*
G1X1819600Y1733788D1*
G1X1819600Y1738342D2*
G1X1819600Y1745400D1*
G1X1819700Y1730212D2*
G1X1819700Y1733988D1*
G1X1819700Y1738082D2*
G1X1819700Y1745400D1*
G1X1819800Y1730058D2*
G1X1819800Y1734129D1*
G1X1819800Y1737907D2*
G1X1819800Y1745400D1*
G1X1819900Y1729938D2*
G1X1819900Y1734229D1*
G1X1819900Y1737732D2*
G1X1819900Y1745400D1*
G1X1820000Y1729818D2*
G1X1820000Y1734329D1*
G1X1820000Y1737557D2*
G1X1820000Y1745400D1*
G1X1820100Y1729698D2*
G1X1820100Y1734429D1*
G1X1820100Y1737382D2*
G1X1820100Y1745400D1*
G1X1820200Y1729578D2*
G1X1820200Y1734529D1*
G1X1820200Y1737318D2*
G1X1820200Y1745400D1*
G1X1820300Y1729484D2*
G1X1820300Y1734629D1*
G1X1820300Y1737268D2*
G1X1820300Y1745400D1*
G1X1820400Y1729404D2*
G1X1820400Y1734729D1*
G1X1820400Y1737218D2*
G1X1820400Y1745400D1*
G1X1820500Y1729324D2*
G1X1820500Y1734829D1*
G1X1820500Y1737168D2*
G1X1820500Y1745400D1*
G1X1820600Y1729244D2*
G1X1820600Y1734929D1*
G1X1820600Y1737118D2*
G1X1820600Y1745400D1*
G1X1820700Y1729164D2*
G1X1820700Y1735029D1*
G1X1820700Y1737068D2*
G1X1820700Y1745400D1*
G1X1820800Y1729093D2*
G1X1820800Y1735094D1*
G1X1820800Y1737018D2*
G1X1820800Y1745400D1*
G1X1820900Y1729027D2*
G1X1820900Y1731746D1*
G1X1820900Y1732454D2*
G1X1820900Y1735144D1*
G1X1820900Y1736968D2*
G1X1820900Y1745400D1*
G1X1821000Y1728960D2*
G1X1821000Y1731310D1*
G1X1821000Y1732890D2*
G1X1821000Y1735194D1*
G1X1821000Y1736918D2*
G1X1821000Y1745400D1*
G1X1821100Y1728893D2*
G1X1821100Y1731160D1*
G1X1821100Y1733040D2*
G1X1821100Y1735244D1*
G1X1821100Y1736873D2*
G1X1821100Y1745400D1*
G1X1821200Y1728827D2*
G1X1821200Y1731010D1*
G1X1821200Y1733190D2*
G1X1821200Y1735294D1*
G1X1821200Y1736864D2*
G1X1821200Y1745400D1*
G1X1821300Y1728760D2*
G1X1821300Y1730860D1*
G1X1821300Y1733340D2*
G1X1821300Y1735344D1*
G1X1821300Y1736855D2*
G1X1821300Y1745400D1*
G1X1821400Y1728723D2*
G1X1821400Y1730740D1*
G1X1821400Y1733460D2*
G1X1821400Y1735377D1*
G1X1821400Y1736846D2*
G1X1821400Y1745400D1*
G1X1821500Y1728695D2*
G1X1821500Y1730673D1*
G1X1821500Y1733527D2*
G1X1821500Y1735405D1*
G1X1821500Y1736837D2*
G1X1821500Y1745400D1*
G1X1821600Y1728666D2*
G1X1821600Y1730607D1*
G1X1821600Y1733593D2*
G1X1821600Y1735434D1*
G1X1821600Y1736827D2*
G1X1821600Y1739038D1*
G1X1821700Y1728638D2*
G1X1821700Y1730540D1*
G1X1821700Y1733660D2*
G1X1821700Y1735462D1*
G1X1821700Y1736818D2*
G1X1821700Y1738897D1*
G1X1821800Y1728609D2*
G1X1821800Y1730473D1*
G1X1821800Y1733727D2*
G1X1821800Y1735491D1*
G1X1821800Y1736809D2*
G1X1821800Y1738864D1*
G1X1821900Y1728581D2*
G1X1821900Y1730407D1*
G1X1821900Y1733793D2*
G1X1821900Y1735519D1*
G1X1821900Y1736800D2*
G1X1821900Y1738831D1*
G1X1822000Y1728552D2*
G1X1822000Y1730348D1*
G1X1822000Y1733851D2*
G1X1822000Y1735548D1*
G1X1822000Y1736791D2*
G1X1822000Y1738797D1*
G1X1822100Y1728550D2*
G1X1822100Y1730319D1*
G1X1822100Y1733865D2*
G1X1822100Y1735564D1*
G1X1822100Y1736782D2*
G1X1822100Y1738775D1*
G1X1822200Y1728550D2*
G1X1822200Y1730291D1*
G1X1822200Y1733879D2*
G1X1822200Y1735578D1*
G1X1822200Y1736773D2*
G1X1822200Y1738775D1*
G1X1822300Y1728550D2*
G1X1822300Y1730262D1*
G1X1822300Y1733893D2*
G1X1822300Y1735592D1*
G1X1822300Y1736764D2*
G1X1822300Y1738775D1*
G1X1822400Y1728550D2*
G1X1822400Y1730234D1*
G1X1822400Y1733908D2*
G1X1822400Y1735607D1*
G1X1822400Y1736755D2*
G1X1822400Y1738775D1*
G1X1822500Y1728550D2*
G1X1822500Y1730205D1*
G1X1822500Y1733922D2*
G1X1822500Y1735621D1*
G1X1822500Y1736750D2*
G1X1822500Y1738775D1*
G1X1822600Y1728550D2*
G1X1822600Y1730177D1*
G1X1822600Y1733936D2*
G1X1822600Y1735635D1*
G1X1822600Y1736750D2*
G1X1822600Y1738775D1*
G1X1822700Y1728550D2*
G1X1822700Y1730150D1*
G1X1822700Y1733950D2*
G1X1822700Y1735649D1*
G1X1822700Y1736750D2*
G1X1822700Y1738775D1*
G1X1822800Y1728550D2*
G1X1822800Y1730177D1*
G1X1822800Y1733936D2*
G1X1822800Y1735635D1*
G1X1822800Y1736750D2*
G1X1822800Y1738775D1*
G1X1822900Y1728550D2*
G1X1822900Y1730205D1*
G1X1822900Y1733922D2*
G1X1822900Y1735621D1*
G1X1822900Y1736750D2*
G1X1822900Y1738775D1*
G1X1823000Y1728550D2*
G1X1823000Y1730234D1*
G1X1823000Y1733908D2*
G1X1823000Y1735607D1*
G1X1823000Y1736750D2*
G1X1823000Y1738775D1*
G1X1823100Y1728550D2*
G1X1823100Y1730262D1*
G1X1823100Y1733893D2*
G1X1823100Y1735592D1*
G1X1823100Y1736750D2*
G1X1823100Y1738775D1*
G1X1823200Y1728550D2*
G1X1823200Y1730291D1*
G1X1823200Y1733879D2*
G1X1823200Y1735578D1*
G1X1823200Y1736750D2*
G1X1823200Y1738775D1*
G1X1823300Y1728550D2*
G1X1823300Y1730319D1*
G1X1823300Y1733865D2*
G1X1823300Y1735564D1*
G1X1823300Y1736750D2*
G1X1823300Y1738775D1*
G1X1823400Y1728552D2*
G1X1823400Y1730348D1*
G1X1823400Y1733851D2*
G1X1823400Y1735548D1*
G1X1823400Y1736750D2*
G1X1823400Y1738775D1*
G1X1823500Y1728581D2*
G1X1823500Y1730407D1*
G1X1823500Y1733793D2*
G1X1823500Y1735519D1*
G1X1823500Y1736750D2*
G1X1823500Y1738775D1*
G1X1823600Y1728609D2*
G1X1823600Y1730473D1*
G1X1823600Y1733727D2*
G1X1823600Y1735491D1*
G1X1823600Y1736750D2*
G1X1823600Y1738775D1*
G1X1823700Y1728638D2*
G1X1823700Y1730540D1*
G1X1823700Y1733660D2*
G1X1823700Y1735462D1*
G1X1823700Y1736750D2*
G1X1823700Y1738775D1*
G1X1823800Y1728666D2*
G1X1823800Y1730607D1*
G1X1823800Y1733593D2*
G1X1823800Y1735434D1*
G1X1823800Y1736750D2*
G1X1823800Y1738775D1*
G1X1823900Y1728695D2*
G1X1823900Y1730673D1*
G1X1823900Y1733527D2*
G1X1823900Y1735405D1*
G1X1823900Y1736750D2*
G1X1823900Y1738775D1*
G1X1824000Y1728723D2*
G1X1824000Y1730740D1*
G1X1824000Y1733460D2*
G1X1824000Y1735377D1*
G1X1824000Y1736750D2*
G1X1824000Y1738775D1*
G1X1824100Y1728760D2*
G1X1824100Y1730860D1*
G1X1824100Y1733340D2*
G1X1824100Y1735344D1*
G1X1824200Y1728827D2*
G1X1824200Y1731010D1*
G1X1824200Y1733190D2*
G1X1824200Y1735294D1*
G1X1824300Y1728893D2*
G1X1824300Y1731160D1*
G1X1824300Y1733040D2*
G1X1824300Y1735244D1*
G1X1824400Y1728960D2*
G1X1824400Y1731310D1*
G1X1824400Y1732890D2*
G1X1824400Y1735194D1*
G1X1824500Y1729027D2*
G1X1824500Y1731746D1*
G1X1824500Y1732454D2*
G1X1824500Y1735144D1*
G1X1824600Y1729093D2*
G1X1824600Y1735094D1*
G1X1824700Y1729164D2*
G1X1824700Y1735029D1*
G1X1824800Y1729244D2*
G1X1824800Y1734929D1*
G1X1824900Y1729324D2*
G1X1824900Y1734829D1*
G1X1824900Y1743946D2*
G1X1824900Y1744972D1*
G1X1825000Y1729404D2*
G1X1825000Y1734729D1*
G1X1825000Y1736750D2*
G1X1825000Y1742775D1*
G1X1825000Y1743846D2*
G1X1825000Y1745122D1*
G1X1825100Y1729484D2*
G1X1825100Y1734629D1*
G1X1825100Y1736750D2*
G1X1825100Y1742775D1*
G1X1825100Y1743746D2*
G1X1825100Y1745272D1*
G1X1825200Y1729578D2*
G1X1825200Y1734529D1*
G1X1825200Y1736750D2*
G1X1825200Y1742775D1*
G1X1825200Y1743677D2*
G1X1825200Y1745314D1*
G1X1825300Y1729698D2*
G1X1825300Y1734429D1*
G1X1825300Y1736750D2*
G1X1825300Y1742775D1*
G1X1825300Y1743610D2*
G1X1825300Y1745347D1*
G1X1825400Y1729818D2*
G1X1825400Y1734329D1*
G1X1825400Y1736750D2*
G1X1825400Y1742775D1*
G1X1825400Y1743543D2*
G1X1825400Y1745381D1*
G1X1825500Y1729938D2*
G1X1825500Y1734229D1*
G1X1825500Y1736750D2*
G1X1825500Y1742775D1*
G1X1825500Y1743489D2*
G1X1825500Y1745411D1*
G1X1825600Y1730058D2*
G1X1825600Y1734129D1*
G1X1825600Y1736750D2*
G1X1825600Y1742775D1*
G1X1825600Y1743464D2*
G1X1825600Y1745436D1*
G1X1825700Y1730212D2*
G1X1825700Y1733988D1*
G1X1825700Y1736750D2*
G1X1825700Y1742775D1*
G1X1825700Y1743439D2*
G1X1825700Y1745461D1*
G1X1825800Y1730412D2*
G1X1825800Y1733788D1*
G1X1825800Y1736750D2*
G1X1825800Y1742775D1*
G1X1825800Y1743414D2*
G1X1825800Y1745486D1*
G1X1825900Y1730612D2*
G1X1825900Y1733588D1*
G1X1825900Y1736750D2*
G1X1825900Y1742775D1*
G1X1825900Y1743389D2*
G1X1825900Y1745511D1*
G1X1826000Y1730882D2*
G1X1826000Y1733318D1*
G1X1826000Y1736750D2*
G1X1826000Y1742775D1*
G1X1826000Y1743394D2*
G1X1826000Y1745506D1*
G1X1826100Y1731232D2*
G1X1826100Y1732968D1*
G1X1826100Y1736750D2*
G1X1826100Y1742775D1*
G1X1826100Y1743428D2*
G1X1826100Y1745472D1*
G1X1826200Y1731754D2*
G1X1826200Y1732446D1*
G1X1826200Y1736750D2*
G1X1826200Y1742775D1*
G1X1826200Y1743461D2*
G1X1826200Y1745439D1*
G1X1826300Y1736750D2*
G1X1826300Y1742775D1*
G1X1826300Y1743494D2*
G1X1826300Y1745406D1*
G1X1826400Y1736750D2*
G1X1826400Y1742775D1*
G1X1826400Y1743560D2*
G1X1826400Y1745372D1*
G1X1826500Y1736750D2*
G1X1826500Y1742775D1*
G1X1826500Y1743627D2*
G1X1826500Y1745339D1*
G1X1826600Y1736750D2*
G1X1826600Y1742775D1*
G1X1826600Y1743693D2*
G1X1826600Y1745306D1*
G1X1826700Y1736750D2*
G1X1826700Y1742775D1*
G1X1826700Y1743771D2*
G1X1826700Y1745235D1*
G1X1826800Y1736750D2*
G1X1826800Y1742775D1*
G1X1826800Y1743871D2*
G1X1826800Y1745085D1*
G1X1826900Y1743971D2*
G1X1826900Y1744935D1*
G1X1827000Y1744356D2*
G1X1827000Y1744544D1*
G1X1827100Y1728650D2*
G1X1827100Y1731847D1*
G1X1827200Y1728650D2*
G1X1827200Y1732354D1*
G1X1827300Y1728650D2*
G1X1827300Y1732494D1*
G1X1827400Y1728650D2*
G1X1827400Y1732634D1*
G1X1827500Y1728650D2*
G1X1827500Y1732774D1*
G1X1827600Y1728650D2*
G1X1827600Y1732914D1*
G1X1827700Y1728650D2*
G1X1827700Y1733007D1*
G1X1827800Y1728650D2*
G1X1827800Y1733073D1*
G1X1827900Y1728650D2*
G1X1827900Y1733140D1*
G1X1828000Y1728650D2*
G1X1828000Y1733207D1*
G1X1828100Y1728650D2*
G1X1828100Y1733273D1*
G1X1828200Y1728650D2*
G1X1828200Y1733340D1*
G1X1828300Y1728650D2*
G1X1828300Y1733371D1*
G1X1828300Y1736750D2*
G1X1828300Y1740647D1*
G1X1828400Y1728650D2*
G1X1828400Y1733393D1*
G1X1828400Y1736750D2*
G1X1828400Y1741344D1*
G1X1828500Y1728650D2*
G1X1828500Y1733415D1*
G1X1828500Y1736750D2*
G1X1828500Y1741484D1*
G1X1828600Y1731655D2*
G1X1828600Y1733438D1*
G1X1828600Y1736750D2*
G1X1828600Y1741624D1*
G1X1828700Y1731952D2*
G1X1828700Y1733460D1*
G1X1828700Y1736750D2*
G1X1828700Y1741764D1*
G1X1828800Y1731977D2*
G1X1828800Y1733482D1*
G1X1828800Y1736750D2*
G1X1828800Y1741904D1*
G1X1828900Y1732002D2*
G1X1828900Y1733504D1*
G1X1828900Y1736750D2*
G1X1828900Y1742044D1*
G1X1829000Y1732027D2*
G1X1829000Y1733527D1*
G1X1829000Y1736750D2*
G1X1829000Y1742173D1*
G1X1829100Y1732050D2*
G1X1829100Y1733549D1*
G1X1829100Y1736750D2*
G1X1829100Y1742240D1*
G1X1829200Y1732027D2*
G1X1829200Y1733527D1*
G1X1829200Y1736750D2*
G1X1829200Y1742307D1*
G1X1829300Y1732002D2*
G1X1829300Y1733504D1*
G1X1829300Y1736750D2*
G1X1829300Y1742373D1*
G1X1829400Y1731977D2*
G1X1829400Y1733482D1*
G1X1829400Y1736750D2*
G1X1829400Y1742440D1*
G1X1829500Y1731952D2*
G1X1829500Y1733460D1*
G1X1829500Y1736750D2*
G1X1829500Y1742507D1*
G1X1829600Y1731785D2*
G1X1829600Y1733438D1*
G1X1829600Y1736750D2*
G1X1829600Y1742573D1*
G1X1829700Y1731535D2*
G1X1829700Y1733415D1*
G1X1829700Y1736750D2*
G1X1829700Y1742640D1*
G1X1829800Y1728650D2*
G1X1829800Y1733393D1*
G1X1829800Y1736750D2*
G1X1829800Y1742671D1*
G1X1829900Y1728650D2*
G1X1829900Y1733371D1*
G1X1829900Y1736750D2*
G1X1829900Y1742693D1*
G1X1830000Y1728650D2*
G1X1830000Y1733340D1*
G1X1830000Y1736750D2*
G1X1830000Y1742715D1*
G1X1830100Y1728650D2*
G1X1830100Y1733273D1*
G1X1830100Y1736750D2*
G1X1830100Y1742738D1*
G1X1830200Y1728650D2*
G1X1830200Y1733207D1*
G1X1830200Y1740455D2*
G1X1830200Y1742760D1*
G1X1830300Y1728650D2*
G1X1830300Y1733140D1*
G1X1830300Y1740868D2*
G1X1830300Y1742782D1*
G1X1830400Y1728650D2*
G1X1830400Y1733073D1*
G1X1830400Y1740895D2*
G1X1830400Y1742804D1*
G1X1830500Y1728650D2*
G1X1830500Y1733007D1*
G1X1830500Y1740920D2*
G1X1830500Y1742827D1*
G1X1830600Y1728650D2*
G1X1830600Y1732914D1*
G1X1830600Y1740945D2*
G1X1830600Y1742849D1*
G1X1830700Y1728650D2*
G1X1830700Y1732774D1*
G1X1830700Y1740970D2*
G1X1830700Y1742871D1*
G1X1830800Y1728650D2*
G1X1830800Y1732634D1*
G1X1830800Y1740995D2*
G1X1830800Y1742893D1*
G1X1830900Y1728650D2*
G1X1830900Y1732494D1*
G1X1830900Y1740983D2*
G1X1830900Y1742882D1*
G1X1831000Y1728650D2*
G1X1831000Y1732354D1*
G1X1831000Y1740958D2*
G1X1831000Y1742860D1*
G1X1831100Y1728650D2*
G1X1831100Y1731847D1*
G1X1831100Y1740933D2*
G1X1831100Y1742838D1*
G1X1831200Y1740908D2*
G1X1831200Y1742815D1*
G1X1831300Y1740883D2*
G1X1831300Y1742793D1*
G1X1831400Y1740772D2*
G1X1831400Y1742771D1*
G1X1831500Y1740522D2*
G1X1831500Y1742749D1*
G1X1831600Y1740272D2*
G1X1831600Y1742727D1*
G1X1831700Y1736750D2*
G1X1831700Y1742704D1*
G1X1831800Y1736750D2*
G1X1831800Y1742682D1*
G1X1831900Y1730755D2*
G1X1831900Y1731245D1*
G1X1831900Y1736750D2*
G1X1831900Y1742660D1*
G1X1832000Y1730255D2*
G1X1832000Y1731745D1*
G1X1832000Y1736750D2*
G1X1832000Y1742607D1*
G1X1832100Y1729950D2*
G1X1832100Y1732050D1*
G1X1832100Y1736750D2*
G1X1832100Y1742540D1*
G1X1832200Y1729817D2*
G1X1832200Y1732183D1*
G1X1832200Y1736750D2*
G1X1832200Y1742473D1*
G1X1832300Y1729683D2*
G1X1832300Y1732317D1*
G1X1832300Y1736750D2*
G1X1832300Y1742407D1*
G1X1832400Y1729550D2*
G1X1832400Y1732450D1*
G1X1832400Y1736750D2*
G1X1832400Y1742340D1*
G1X1832500Y1729417D2*
G1X1832500Y1732583D1*
G1X1832500Y1736750D2*
G1X1832500Y1742273D1*
G1X1832600Y1729283D2*
G1X1832600Y1732717D1*
G1X1832600Y1736750D2*
G1X1832600Y1742207D1*
G1X1832700Y1729196D2*
G1X1832700Y1732813D1*
G1X1832700Y1736750D2*
G1X1832700Y1742114D1*
G1X1832800Y1729134D2*
G1X1832800Y1732888D1*
G1X1832800Y1736750D2*
G1X1832800Y1741974D1*
G1X1832900Y1729071D2*
G1X1832900Y1732963D1*
G1X1832900Y1736750D2*
G1X1832900Y1741834D1*
G1X1833000Y1729009D2*
G1X1833000Y1733038D1*
G1X1833000Y1736750D2*
G1X1833000Y1741694D1*
G1X1833100Y1728946D2*
G1X1833100Y1733112D1*
G1X1833100Y1736750D2*
G1X1833100Y1741554D1*
G1X1833200Y1728884D2*
G1X1833200Y1733187D1*
G1X1833200Y1736750D2*
G1X1833200Y1741414D1*
G1X1833300Y1728821D2*
G1X1833300Y1733262D1*
G1X1833300Y1736750D2*
G1X1833300Y1741097D1*
G1X1833400Y1728759D2*
G1X1833400Y1730845D1*
G1X1833400Y1731683D2*
G1X1833400Y1733337D1*
G1X1833500Y1728731D2*
G1X1833500Y1730488D1*
G1X1833500Y1731817D2*
G1X1833500Y1733369D1*
G1X1833600Y1728711D2*
G1X1833600Y1730288D1*
G1X1833600Y1731950D2*
G1X1833600Y1733389D1*
G1X1833700Y1728691D2*
G1X1833700Y1730140D1*
G1X1833700Y1732071D2*
G1X1833700Y1733409D1*
G1X1833800Y1728671D2*
G1X1833800Y1730073D1*
G1X1833800Y1731240D2*
G1X1833800Y1731308D1*
G1X1833800Y1732171D2*
G1X1833800Y1733429D1*
G1X1833900Y1728651D2*
G1X1833900Y1730007D1*
G1X1833900Y1731090D2*
G1X1833900Y1731378D1*
G1X1833900Y1732271D2*
G1X1833900Y1733449D1*
G1X1834000Y1728631D2*
G1X1834000Y1729949D1*
G1X1834000Y1730940D2*
G1X1834000Y1731447D1*
G1X1834000Y1732352D2*
G1X1834000Y1733469D1*
G1X1834100Y1728611D2*
G1X1834100Y1729929D1*
G1X1834100Y1730790D2*
G1X1834100Y1731516D1*
G1X1834100Y1732377D2*
G1X1834100Y1733489D1*
G1X1834200Y1728591D2*
G1X1834200Y1729909D1*
G1X1834200Y1730640D2*
G1X1834200Y1731585D1*
G1X1834200Y1732402D2*
G1X1834200Y1733509D1*
G1X1834300Y1728571D2*
G1X1834300Y1729889D1*
G1X1834300Y1730490D2*
G1X1834300Y1731655D1*
G1X1834300Y1732427D2*
G1X1834300Y1733529D1*
G1X1834400Y1728551D2*
G1X1834400Y1729869D1*
G1X1834400Y1730527D2*
G1X1834400Y1731724D1*
G1X1834400Y1732450D2*
G1X1834400Y1733549D1*
G1X1834400Y1739580D2*
G1X1834400Y1739833D1*
G1X1834500Y1728563D2*
G1X1834500Y1729850D1*
G1X1834500Y1730593D2*
G1X1834500Y1731793D1*
G1X1834500Y1732419D2*
G1X1834500Y1733535D1*
G1X1834500Y1739080D2*
G1X1834500Y1740383D1*
G1X1834600Y1728575D2*
G1X1834600Y1729850D1*
G1X1834600Y1730660D2*
G1X1834600Y1731862D1*
G1X1834600Y1732386D2*
G1X1834600Y1733521D1*
G1X1834600Y1738580D2*
G1X1834600Y1740933D1*
G1X1834700Y1728588D2*
G1X1834700Y1729850D1*
G1X1834700Y1730727D2*
G1X1834700Y1731931D1*
G1X1834700Y1732353D2*
G1X1834700Y1733507D1*
G1X1834700Y1738344D2*
G1X1834700Y1741158D1*
G1X1834800Y1728600D2*
G1X1834800Y1729850D1*
G1X1834800Y1730793D2*
G1X1834800Y1732001D1*
G1X1834800Y1732319D2*
G1X1834800Y1733492D1*
G1X1834800Y1738184D2*
G1X1834800Y1741292D1*
G1X1834900Y1728613D2*
G1X1834900Y1729850D1*
G1X1834900Y1730860D2*
G1X1834900Y1732070D1*
G1X1834900Y1732286D2*
G1X1834900Y1733478D1*
G1X1834900Y1738024D2*
G1X1834900Y1741425D1*
G1X1835000Y1728625D2*
G1X1835000Y1729913D1*
G1X1835000Y1730927D2*
G1X1835000Y1732139D1*
G1X1835000Y1732253D2*
G1X1835000Y1733464D1*
G1X1835000Y1737864D2*
G1X1835000Y1741558D1*
G1X1835100Y1728638D2*
G1X1835100Y1729988D1*
G1X1835100Y1730993D2*
G1X1835100Y1733444D1*
G1X1835100Y1737704D2*
G1X1835100Y1741692D1*
G1X1835200Y1728656D2*
G1X1835200Y1730063D1*
G1X1835200Y1731060D2*
G1X1835200Y1733394D1*
G1X1835200Y1737544D2*
G1X1835200Y1741825D1*
G1X1835300Y1728706D2*
G1X1835300Y1730138D1*
G1X1835300Y1731127D2*
G1X1835300Y1733344D1*
G1X1835300Y1737452D2*
G1X1835300Y1741958D1*
G1X1835400Y1728756D2*
G1X1835400Y1730213D1*
G1X1835400Y1731193D2*
G1X1835400Y1733294D1*
G1X1835400Y1737396D2*
G1X1835400Y1742063D1*
G1X1835500Y1728806D2*
G1X1835500Y1730288D1*
G1X1835500Y1731260D2*
G1X1835500Y1733244D1*
G1X1835500Y1737341D2*
G1X1835500Y1742125D1*
G1X1835600Y1728856D2*
G1X1835600Y1730363D1*
G1X1835600Y1731327D2*
G1X1835600Y1733194D1*
G1X1835600Y1737285D2*
G1X1835600Y1742188D1*
G1X1835700Y1728906D2*
G1X1835700Y1730438D1*
G1X1835700Y1731393D2*
G1X1835700Y1733135D1*
G1X1835700Y1737229D2*
G1X1835700Y1742250D1*
G1X1835800Y1728956D2*
G1X1835800Y1730615D1*
G1X1835800Y1731460D2*
G1X1835800Y1733052D1*
G1X1835800Y1737174D2*
G1X1835800Y1742313D1*
G1X1835900Y1729006D2*
G1X1835900Y1730865D1*
G1X1835900Y1731527D2*
G1X1835900Y1732968D1*
G1X1835900Y1737118D2*
G1X1835900Y1742375D1*
G1X1836000Y1729071D2*
G1X1836000Y1730888D1*
G1X1836000Y1731593D2*
G1X1836000Y1732885D1*
G1X1836000Y1737063D2*
G1X1836000Y1742438D1*
G1X1836100Y1729171D2*
G1X1836100Y1730834D1*
G1X1836100Y1731660D2*
G1X1836100Y1732802D1*
G1X1836100Y1737007D2*
G1X1836100Y1742500D1*
G1X1836200Y1729271D2*
G1X1836200Y1730779D1*
G1X1836200Y1731727D2*
G1X1836200Y1732718D1*
G1X1836200Y1736952D2*
G1X1836200Y1742563D1*
G1X1836300Y1729371D2*
G1X1836300Y1730725D1*
G1X1836300Y1731793D2*
G1X1836300Y1732599D1*
G1X1836300Y1736896D2*
G1X1836300Y1739594D1*
G1X1836300Y1739830D2*
G1X1836300Y1742625D1*
G1X1836400Y1729471D2*
G1X1836400Y1730670D1*
G1X1836400Y1731860D2*
G1X1836400Y1732424D1*
G1X1836400Y1736861D2*
G1X1836400Y1739194D1*
G1X1836400Y1740330D2*
G1X1836400Y1742664D1*
G1X1836500Y1729571D2*
G1X1836500Y1730616D1*
G1X1836500Y1731927D2*
G1X1836500Y1732249D1*
G1X1836500Y1736841D2*
G1X1836500Y1738988D1*
G1X1836500Y1740490D2*
G1X1836500Y1742684D1*
G1X1836600Y1729712D2*
G1X1836600Y1730561D1*
G1X1836600Y1731993D2*
G1X1836600Y1732074D1*
G1X1836600Y1736821D2*
G1X1836600Y1738788D1*
G1X1836600Y1740640D2*
G1X1836600Y1742704D1*
G1X1836700Y1729912D2*
G1X1836700Y1730507D1*
G1X1836700Y1736801D2*
G1X1836700Y1738640D1*
G1X1836700Y1740760D2*
G1X1836700Y1742724D1*
G1X1836800Y1730112D2*
G1X1836800Y1730452D1*
G1X1836800Y1736781D2*
G1X1836800Y1738573D1*
G1X1836800Y1740827D2*
G1X1836800Y1742744D1*
G1X1836900Y1730312D2*
G1X1836900Y1730398D1*
G1X1836900Y1736761D2*
G1X1836900Y1738507D1*
G1X1836900Y1740893D2*
G1X1836900Y1742764D1*
G1X1837000Y1736741D2*
G1X1837000Y1738440D1*
G1X1837000Y1740960D2*
G1X1837000Y1742784D1*
G1X1837100Y1736721D2*
G1X1837100Y1738394D1*
G1X1837100Y1741006D2*
G1X1837100Y1742804D1*
G1X1837200Y1736701D2*
G1X1837200Y1738374D1*
G1X1837200Y1741026D2*
G1X1837200Y1742824D1*
G1X1837300Y1736681D2*
G1X1837300Y1738354D1*
G1X1837300Y1741046D2*
G1X1837300Y1742844D1*
G1X1837400Y1736661D2*
G1X1837400Y1738334D1*
G1X1837400Y1741066D2*
G1X1837400Y1742864D1*
G1X1837500Y1736641D2*
G1X1837500Y1738314D1*
G1X1837500Y1741086D2*
G1X1837500Y1742884D1*
G1X1837600Y1736627D2*
G1X1837600Y1738294D1*
G1X1837600Y1741106D2*
G1X1837600Y1742892D1*
G1X1837700Y1736637D2*
G1X1837700Y1738275D1*
G1X1837700Y1741125D2*
G1X1837700Y1742867D1*
G1X1837800Y1736646D2*
G1X1837800Y1738294D1*
G1X1837800Y1741125D2*
G1X1837800Y1742842D1*
G1X1837900Y1736655D2*
G1X1837900Y1738314D1*
G1X1837900Y1741125D2*
G1X1837900Y1742817D1*
G1X1838000Y1736664D2*
G1X1838000Y1738334D1*
G1X1838000Y1741125D2*
G1X1838000Y1742792D1*
G1X1838100Y1736673D2*
G1X1838100Y1738354D1*
G1X1838100Y1741125D2*
G1X1838100Y1742775D1*
G1X1838200Y1736682D2*
G1X1838200Y1738374D1*
G1X1838200Y1741125D2*
G1X1838200Y1742775D1*
G1X1838300Y1736691D2*
G1X1838300Y1738394D1*
G1X1838300Y1741081D2*
G1X1838300Y1742775D1*
G1X1838400Y1736700D2*
G1X1838400Y1738454D1*
G1X1838500Y1736709D2*
G1X1838500Y1738554D1*
G1X1838600Y1736718D2*
G1X1838600Y1738654D1*
G1X1838700Y1736727D2*
G1X1838700Y1738754D1*
G1X1838800Y1736737D2*
G1X1838800Y1738913D1*
G1X1838900Y1736746D2*
G1X1838900Y1739113D1*
G1X1839000Y1736785D2*
G1X1839000Y1739320D1*
G1X1839100Y1736841D2*
G1X1839100Y1739820D1*
G1X1839200Y1736896D2*
G1X1839200Y1745400D1*
G1X1839300Y1736952D2*
G1X1839300Y1745400D1*
G1X1839400Y1737007D2*
G1X1839400Y1745400D1*
G1X1839500Y1737063D2*
G1X1839500Y1745400D1*
G1X1839600Y1737118D2*
G1X1839600Y1745400D1*
G1X1839700Y1737174D2*
G1X1839700Y1745400D1*
G1X1839800Y1737229D2*
G1X1839800Y1745400D1*
G1X1839900Y1737285D2*
G1X1839900Y1745400D1*
G1X1840000Y1737341D2*
G1X1840000Y1745400D1*
G1X1840100Y1737421D2*
G1X1840100Y1745400D1*
G1X1840200Y1737521D2*
G1X1840200Y1745400D1*
G1X1840300Y1737621D2*
G1X1840300Y1745400D1*
G1X1840400Y1737721D2*
G1X1840400Y1745400D1*
G1X1840500Y1737850D2*
G1X1840500Y1745400D1*
G1X1840600Y1737983D2*
G1X1840600Y1745400D1*
G1X1840700Y1738117D2*
G1X1840700Y1745400D1*
G1X1840800Y1738272D2*
G1X1840800Y1745400D1*
G1X1840900Y1738522D2*
G1X1840900Y1745400D1*
G1X1841000Y1738772D2*
G1X1841000Y1745400D1*
G1X1842200Y1738653D2*
G1X1842200Y1742775D1*
G1X1842300Y1738146D2*
G1X1842300Y1742775D1*
G1X1842400Y1738006D2*
G1X1842400Y1742775D1*
G1X1842500Y1737866D2*
G1X1842500Y1742775D1*
G1X1842600Y1737726D2*
G1X1842600Y1742775D1*
G1X1842700Y1737586D2*
G1X1842700Y1742775D1*
G1X1842800Y1737446D2*
G1X1842800Y1742775D1*
G1X1842900Y1737328D2*
G1X1842900Y1742775D1*
G1X1843000Y1737244D2*
G1X1843000Y1742775D1*
G1X1843100Y1737161D2*
G1X1843100Y1742775D1*
G1X1843200Y1737078D2*
G1X1843200Y1742775D1*
G1X1843300Y1736994D2*
G1X1843300Y1742775D1*
G1X1843400Y1736911D2*
G1X1843400Y1742775D1*
G1X1843500Y1736828D2*
G1X1843500Y1742775D1*
G1X1843600Y1736748D2*
G1X1843600Y1742775D1*
G1X1843700Y1736736D2*
G1X1843700Y1742775D1*
G1X1843800Y1736725D2*
G1X1843800Y1742775D1*
G1X1843900Y1736714D2*
G1X1843900Y1742775D1*
G1X1844000Y1736703D2*
G1X1844000Y1742775D1*
G1X1844100Y1736692D2*
G1X1844100Y1738945D1*
G1X1844200Y1736681D2*
G1X1844200Y1738629D1*
G1X1844300Y1736670D2*
G1X1844300Y1738529D1*
G1X1844400Y1736659D2*
G1X1844400Y1738429D1*
G1X1844500Y1736648D2*
G1X1844500Y1738400D1*
G1X1844600Y1736636D2*
G1X1844600Y1738400D1*
G1X1844700Y1736625D2*
G1X1844700Y1738400D1*
G1X1844800Y1736636D2*
G1X1844800Y1738400D1*
G1X1844900Y1736648D2*
G1X1844900Y1738400D1*
G1X1845000Y1736659D2*
G1X1845000Y1738429D1*
G1X1845100Y1736670D2*
G1X1845100Y1738529D1*
G1X1845200Y1736681D2*
G1X1845200Y1738629D1*
G1X1845300Y1736692D2*
G1X1845300Y1738815D1*
G1X1845400Y1736703D2*
G1X1845400Y1739065D1*
G1X1845500Y1736714D2*
G1X1845500Y1742775D1*
G1X1845600Y1736725D2*
G1X1845600Y1742775D1*
G1X1845700Y1736736D2*
G1X1845700Y1742775D1*
G1X1845800Y1736748D2*
G1X1845800Y1742775D1*
G1X1845900Y1736828D2*
G1X1845900Y1742775D1*
G1X1846000Y1736911D2*
G1X1846000Y1742775D1*
G1X1846100Y1736994D2*
G1X1846100Y1742775D1*
G1X1846200Y1737078D2*
G1X1846200Y1742775D1*
G1X1846300Y1737161D2*
G1X1846300Y1742775D1*
G1X1846400Y1737244D2*
G1X1846400Y1742775D1*
G1X1846500Y1737328D2*
G1X1846500Y1742775D1*
G1X1846600Y1737446D2*
G1X1846600Y1742775D1*
G1X1846700Y1737586D2*
G1X1846700Y1742775D1*
G1X1846800Y1737726D2*
G1X1846800Y1742775D1*
G1X1846900Y1737866D2*
G1X1846900Y1742775D1*
G1X1847000Y1738006D2*
G1X1847000Y1742775D1*
G1X1847100Y1738146D2*
G1X1847100Y1742775D1*
G1X1847200Y1738653D2*
G1X1847200Y1742775D1*
G1X1848500Y1743971D2*
G1X1848500Y1744935D1*
G1X1848600Y1743871D2*
G1X1848600Y1745085D1*
G1X1848700Y1736750D2*
G1X1848700Y1742775D1*
G1X1848700Y1743771D2*
G1X1848700Y1745235D1*
G1X1848800Y1736750D2*
G1X1848800Y1742775D1*
G1X1848800Y1743693D2*
G1X1848800Y1745306D1*
G1X1848900Y1736750D2*
G1X1848900Y1742775D1*
G1X1848900Y1743627D2*
G1X1848900Y1745339D1*
G1X1849000Y1736750D2*
G1X1849000Y1742775D1*
G1X1849000Y1743560D2*
G1X1849000Y1745372D1*
G1X1849100Y1736750D2*
G1X1849100Y1742775D1*
G1X1849100Y1743495D2*
G1X1849100Y1745405D1*
G1X1849200Y1736750D2*
G1X1849200Y1742775D1*
G1X1849200Y1743470D2*
G1X1849200Y1745430D1*
G1X1849300Y1736750D2*
G1X1849300Y1742775D1*
G1X1849300Y1743445D2*
G1X1849300Y1745455D1*
G1X1849400Y1736750D2*
G1X1849400Y1742775D1*
G1X1849400Y1743420D2*
G1X1849400Y1745480D1*
G1X1849500Y1736750D2*
G1X1849500Y1742775D1*
G1X1849500Y1743395D2*
G1X1849500Y1745505D1*
G1X1849600Y1736750D2*
G1X1849600Y1742775D1*
G1X1849600Y1743386D2*
G1X1849600Y1745514D1*
G1X1849700Y1736750D2*
G1X1849700Y1742775D1*
G1X1849700Y1743419D2*
G1X1849700Y1745481D1*
G1X1849800Y1736750D2*
G1X1849800Y1742775D1*
G1X1849800Y1743453D2*
G1X1849800Y1745447D1*
G1X1849900Y1736750D2*
G1X1849900Y1742775D1*
G1X1849900Y1743486D2*
G1X1849900Y1745414D1*
G1X1850000Y1736750D2*
G1X1850000Y1742775D1*
G1X1850000Y1743543D2*
G1X1850000Y1745381D1*
G1X1850100Y1736750D2*
G1X1850100Y1742775D1*
G1X1850100Y1743610D2*
G1X1850100Y1745347D1*
G1X1850200Y1736750D2*
G1X1850200Y1742775D1*
G1X1850200Y1743677D2*
G1X1850200Y1745314D1*
G1X1850300Y1736750D2*
G1X1850300Y1742775D1*
G1X1850300Y1743746D2*
G1X1850300Y1745272D1*
G1X1850400Y1736750D2*
G1X1850400Y1742775D1*
G1X1850400Y1743846D2*
G1X1850400Y1745122D1*
G1X1850500Y1736750D2*
G1X1850500Y1742775D1*
G1X1850500Y1743946D2*
G1X1850500Y1744972D1*
G1X1850600Y1744256D2*
G1X1850600Y1744644D1*
G1X1851900Y1736750D2*
G1X1851900Y1740422D1*
G1X1852000Y1736750D2*
G1X1852000Y1741309D1*
G1X1852100Y1736750D2*
G1X1852100Y1741449D1*
G1X1852200Y1736750D2*
G1X1852200Y1741589D1*
G1X1852300Y1736750D2*
G1X1852300Y1741729D1*
G1X1852400Y1736750D2*
G1X1852400Y1741869D1*
G1X1852500Y1736750D2*
G1X1852500Y1742009D1*
G1X1852600Y1736750D2*
G1X1852600Y1742149D1*
G1X1852700Y1736750D2*
G1X1852700Y1742223D1*
G1X1852800Y1736750D2*
G1X1852800Y1742290D1*
G1X1852900Y1736750D2*
G1X1852900Y1742357D1*
G1X1853000Y1736750D2*
G1X1853000Y1742423D1*
G1X1853100Y1736750D2*
G1X1853100Y1742490D1*
G1X1853200Y1736750D2*
G1X1853200Y1742557D1*
G1X1853300Y1736750D2*
G1X1853300Y1742623D1*
G1X1853400Y1736750D2*
G1X1853400Y1742665D1*
G1X1853500Y1736750D2*
G1X1853500Y1742688D1*
G1X1853600Y1736750D2*
G1X1853600Y1742710D1*
G1X1853700Y1736750D2*
G1X1853700Y1742732D1*
G1X1853800Y1740330D2*
G1X1853800Y1742754D1*
G1X1853900Y1740830D2*
G1X1853900Y1742777D1*
G1X1854000Y1740889D2*
G1X1854000Y1742799D1*
G1X1854100Y1740914D2*
G1X1854100Y1742821D1*
G1X1854200Y1740939D2*
G1X1854200Y1742843D1*
G1X1854300Y1740964D2*
G1X1854300Y1742865D1*
G1X1854400Y1740989D2*
G1X1854400Y1742888D1*
G1X1854500Y1740989D2*
G1X1854500Y1742888D1*
G1X1854600Y1740964D2*
G1X1854600Y1742865D1*
G1X1854700Y1740939D2*
G1X1854700Y1742843D1*
G1X1854800Y1740914D2*
G1X1854800Y1742821D1*
G1X1854900Y1740889D2*
G1X1854900Y1742799D1*
G1X1855000Y1740835D2*
G1X1855000Y1742777D1*
G1X1855100Y1740585D2*
G1X1855100Y1742754D1*
G1X1855200Y1740335D2*
G1X1855200Y1742732D1*
G1X1855300Y1736750D2*
G1X1855300Y1742710D1*
G1X1855400Y1736750D2*
G1X1855400Y1742688D1*
G1X1855500Y1736750D2*
G1X1855500Y1742665D1*
G1X1855600Y1736750D2*
G1X1855600Y1742623D1*
G1X1855700Y1736750D2*
G1X1855700Y1742557D1*
G1X1855800Y1736750D2*
G1X1855800Y1742490D1*
G1X1855900Y1736750D2*
G1X1855900Y1742423D1*
G1X1856000Y1736750D2*
G1X1856000Y1742357D1*
G1X1856100Y1736750D2*
G1X1856100Y1742290D1*
G1X1856200Y1736750D2*
G1X1856200Y1742223D1*
G1X1856300Y1736750D2*
G1X1856300Y1742149D1*
G1X1856400Y1736750D2*
G1X1856400Y1742009D1*
G1X1856500Y1736750D2*
G1X1856500Y1741869D1*
G1X1856600Y1736750D2*
G1X1856600Y1741729D1*
G1X1856700Y1736750D2*
G1X1856700Y1741589D1*
G1X1856800Y1736750D2*
G1X1856800Y1741449D1*
G1X1856900Y1736750D2*
G1X1856900Y1741309D1*
G1X1857000Y1736750D2*
G1X1857000Y1740422D1*
G1X1858100Y1739205D2*
G1X1858100Y1740195D1*
G1X1858200Y1738705D2*
G1X1858200Y1740695D1*
G1X1858300Y1738384D2*
G1X1858300Y1741016D1*
G1X1858400Y1738224D2*
G1X1858400Y1741176D1*
G1X1858500Y1738064D2*
G1X1858500Y1741336D1*
G1X1858600Y1737904D2*
G1X1858600Y1741496D1*
G1X1858700Y1737744D2*
G1X1858700Y1741656D1*
G1X1858800Y1737584D2*
G1X1858800Y1741816D1*
G1X1858900Y1737456D2*
G1X1858900Y1741944D1*
G1X1859000Y1737381D2*
G1X1859000Y1742019D1*
G1X1859100Y1737306D2*
G1X1859100Y1742094D1*
G1X1859200Y1737231D2*
G1X1859200Y1742169D1*
G1X1859300Y1737156D2*
G1X1859300Y1742244D1*
G1X1859400Y1737093D2*
G1X1859400Y1742319D1*
G1X1859500Y1737043D2*
G1X1859500Y1742394D1*
G1X1859600Y1736993D2*
G1X1859600Y1742469D1*
G1X1859700Y1736943D2*
G1X1859700Y1742544D1*
G1X1859800Y1736893D2*
G1X1859800Y1739594D1*
G1X1859800Y1739806D2*
G1X1859800Y1742619D1*
G1X1859900Y1736861D2*
G1X1859900Y1739194D1*
G1X1859900Y1740206D2*
G1X1859900Y1742664D1*
G1X1860000Y1736841D2*
G1X1860000Y1739035D1*
G1X1860000Y1740412D2*
G1X1860000Y1742684D1*
G1X1860100Y1736821D2*
G1X1860100Y1738885D1*
G1X1860100Y1740612D2*
G1X1860100Y1742704D1*
G1X1860200Y1736801D2*
G1X1860200Y1738765D1*
G1X1860200Y1740760D2*
G1X1860200Y1742724D1*
G1X1860300Y1736781D2*
G1X1860300Y1738698D1*
G1X1860300Y1740827D2*
G1X1860300Y1742744D1*
G1X1860400Y1736761D2*
G1X1860400Y1738632D1*
G1X1860400Y1740893D2*
G1X1860400Y1742764D1*
G1X1860500Y1736741D2*
G1X1860500Y1738565D1*
G1X1860500Y1740960D2*
G1X1860500Y1742784D1*
G1X1860600Y1736721D2*
G1X1860600Y1738517D1*
G1X1860600Y1741000D2*
G1X1860600Y1742804D1*
G1X1860700Y1736701D2*
G1X1860700Y1738492D1*
G1X1860700Y1741000D2*
G1X1860700Y1742824D1*
G1X1860800Y1736681D2*
G1X1860800Y1738467D1*
G1X1860800Y1741000D2*
G1X1860800Y1742844D1*
G1X1860900Y1736661D2*
G1X1860900Y1738442D1*
G1X1860900Y1741000D2*
G1X1860900Y1742864D1*
G1X1861000Y1736641D2*
G1X1861000Y1738417D1*
G1X1861000Y1741000D2*
G1X1861000Y1742884D1*
G1X1861100Y1736632D2*
G1X1861100Y1738405D1*
G1X1861100Y1741000D2*
G1X1861100Y1742893D1*
G1X1861200Y1736654D2*
G1X1861200Y1738430D1*
G1X1861200Y1741000D2*
G1X1861200Y1742871D1*
G1X1861300Y1736676D2*
G1X1861300Y1738455D1*
G1X1861300Y1741000D2*
G1X1861300Y1742849D1*
G1X1861400Y1736698D2*
G1X1861400Y1738480D1*
G1X1861400Y1741000D2*
G1X1861400Y1742827D1*
G1X1861500Y1736721D2*
G1X1861500Y1738505D1*
G1X1861500Y1741000D2*
G1X1861500Y1742804D1*
G1X1861600Y1736743D2*
G1X1861600Y1738532D1*
G1X1861600Y1740993D2*
G1X1861600Y1742782D1*
G1X1861700Y1736765D2*
G1X1861700Y1738598D1*
G1X1861700Y1740896D2*
G1X1861700Y1742760D1*
G1X1861800Y1736787D2*
G1X1861800Y1738665D1*
G1X1861800Y1740796D2*
G1X1861800Y1742738D1*
G1X1861900Y1736810D2*
G1X1861900Y1738732D1*
G1X1861900Y1740696D2*
G1X1861900Y1742715D1*
G1X1862000Y1736832D2*
G1X1862000Y1738810D1*
G1X1862000Y1740590D2*
G1X1862000Y1742693D1*
G1X1862100Y1736854D2*
G1X1862100Y1738960D1*
G1X1862100Y1740440D2*
G1X1862100Y1742671D1*
G1X1862200Y1736884D2*
G1X1862200Y1739110D1*
G1X1862200Y1740290D2*
G1X1862200Y1742637D1*
G1X1862300Y1736946D2*
G1X1862300Y1739394D1*
G1X1862300Y1740006D2*
G1X1862300Y1742562D1*
G1X1862400Y1737009D2*
G1X1862400Y1742487D1*
G1X1862500Y1737071D2*
G1X1862500Y1742412D1*
G1X1862600Y1737134D2*
G1X1862600Y1742337D1*
G1X1862700Y1737196D2*
G1X1862700Y1742262D1*
G1X1862800Y1737259D2*
G1X1862800Y1742187D1*
G1X1862900Y1737321D2*
G1X1862900Y1742113D1*
G1X1863000Y1737384D2*
G1X1863000Y1742038D1*
G1X1863100Y1737446D2*
G1X1863100Y1741963D1*
G1X1863200Y1737533D2*
G1X1863200Y1741867D1*
G1X1863300Y1737667D2*
G1X1863300Y1741733D1*
G1X1863400Y1737800D2*
G1X1863400Y1741600D1*
G1X1863500Y1737933D2*
G1X1863500Y1741467D1*
G1X1863600Y1738067D2*
G1X1863600Y1741333D1*
G1X1863700Y1738200D2*
G1X1863700Y1741200D1*
G1X1863800Y1738333D2*
G1X1863800Y1741067D1*
G1X1863900Y1738467D2*
G1X1863900Y1740933D1*
G1X1864000Y1738955D2*
G1X1864000Y1740445D1*
G1X1864100Y1739455D2*
G1X1864100Y1739945D1*
G1X1864800Y1743500D2*
G1X1864800Y1744250D1*
G1X1864900Y1743500D2*
G1X1864900Y1744250D1*
G1X1865000Y1743500D2*
G1X1865000Y1744250D1*
G1X1865100Y1743500D2*
G1X1865100Y1744250D1*
G1X1865200Y1743500D2*
G1X1865200Y1744250D1*
G1X1865300Y1743500D2*
G1X1865300Y1744250D1*
G1X1865400Y1743500D2*
G1X1865400Y1744250D1*
G1X1865500Y1740850D2*
G1X1865500Y1744250D1*
G1X1865600Y1740850D2*
G1X1865600Y1744250D1*
G1X1865700Y1740850D2*
G1X1865700Y1744250D1*
G1X1865800Y1740850D2*
G1X1865800Y1744250D1*
G1X1865900Y1740850D2*
G1X1865900Y1744250D1*
G1X1866000Y1740850D2*
G1X1866000Y1744250D1*
G1X1866100Y1740850D2*
G1X1866100Y1744250D1*
G1X1866200Y1743450D2*
G1X1866200Y1744250D1*
G1X1866300Y1743500D2*
G1X1866300Y1744250D1*
G1X1866400Y1743500D2*
G1X1866400Y1744250D1*
G1X1866500Y1743500D2*
G1X1866500Y1744250D1*
G1X1866600Y1743500D2*
G1X1866600Y1744250D1*
G1X1866700Y1743500D2*
G1X1866700Y1744250D1*
G1X1866800Y1743500D2*
G1X1866800Y1744250D1*
G1X1867300Y1740850D2*
G1X1867300Y1743470D1*
G1X1867400Y1740850D2*
G1X1867400Y1743774D1*
G1X1867500Y1740850D2*
G1X1867500Y1743949D1*
G1X1867600Y1740850D2*
G1X1867600Y1744060D1*
G1X1867700Y1740850D2*
G1X1867700Y1744131D1*
G1X1867800Y1740850D2*
G1X1867800Y1744203D1*
G1X1867900Y1740850D2*
G1X1867900Y1744255D1*
G1X1868000Y1740850D2*
G1X1868000Y1744265D1*
G1X1868100Y1743404D2*
G1X1868100Y1744275D1*
G1X1868200Y1743521D2*
G1X1868200Y1744285D1*
G1X1868300Y1743550D2*
G1X1868300Y1744295D1*
G1X1868400Y1743550D2*
G1X1868400Y1744288D1*
G1X1868500Y1743550D2*
G1X1868500Y1744265D1*
G1X1868600Y1743471D2*
G1X1868600Y1744243D1*
G1X1868700Y1743258D2*
G1X1868700Y1744221D1*
G1X1868800Y1740850D2*
G1X1868800Y1744185D1*
G1X1868900Y1740850D2*
G1X1868900Y1744102D1*
G1X1869000Y1740850D2*
G1X1869000Y1744018D1*
G1X1869100Y1740850D2*
G1X1869100Y1743950D1*
G1X1869200Y1740850D2*
G1X1869200Y1744010D1*
G1X1869300Y1740850D2*
G1X1869300Y1744081D1*
G1X1869400Y1740850D2*
G1X1869400Y1744153D1*
G1X1869500Y1743100D2*
G1X1869500Y1744210D1*
G1X1869600Y1743408D2*
G1X1869600Y1744232D1*
G1X1869700Y1743550D2*
G1X1869700Y1744254D1*
G1X1869800Y1743550D2*
G1X1869800Y1744277D1*
G1X1869900Y1743550D2*
G1X1869900Y1744299D1*
G1X1870000Y1743550D2*
G1X1870000Y1744289D1*
G1X1870100Y1743471D2*
G1X1870100Y1744277D1*
G1X1870200Y1740850D2*
G1X1870200Y1744266D1*
G1X1870300Y1740850D2*
G1X1870300Y1744255D1*
G1X1870400Y1740850D2*
G1X1870400Y1744210D1*
G1X1870500Y1740850D2*
G1X1870500Y1744147D1*
G1X1870600Y1740850D2*
G1X1870600Y1744085D1*
G1X1870700Y1740850D2*
G1X1870700Y1744022D1*
G1X1870800Y1740850D2*
G1X1870800Y1743862D1*
G1X1870900Y1740850D2*
G1X1870900Y1743687D1*
G1X1800974Y1757926D2*
G54D11*
G1X1785226Y1757926D1*
G1X1785226Y1773674D1*
G1X1800974Y1773674D1*
G1X1800974Y1757926D1*
G1X1657100Y1652300D2*
G1X1714600Y1652300D1*
G1X1714600Y1613300D1*
G1X1707100Y1613300D1*
G1X1689100Y1613300D2*
G1X1654100Y1613300D1*
G1X1654100Y1652300D1*
G1X1657100Y1652300D1*
G1X1704966Y1772706D2*
G1X1704966Y1720737D1*
G1X1638037Y1720737D1*
G1X1638037Y1772706D1*
G1X1704966Y1772706D1*
G1X1882163Y1623422D2*
G1X1882163Y1692422D1*
G1X1910163Y1692422D1*
G1X1910163Y1623422D1*
G1X1882163Y1623422D1*
G1X1911206Y1634300D2*
G1X1915206Y1633300D1*
G1X1915206Y1635300D1*
G1X1911206Y1634300D1*
G1X1710604Y1714304D2*
G1X1707604Y1717304D1*
G1X1707604Y1777296D1*
G1X1770596Y1777296D1*
G1X1770596Y1714304D1*
G1X1710604Y1714304D1*
G1X1808600Y1669600D2*
G1X1808600Y1686000D1*
G1X1817600Y1686000D1*
G1X1817600Y1669600D1*
G1X1808600Y1669600D1*
G1X1896600Y1696800D2*
G1X1878600Y1696800D1*
G1X1878600Y1704800D1*
G1X1896600Y1704800D1*
G1X1896600Y1696800D1*
G1X1746100Y1665300D2*
G1X1749600Y1665300D1*
G1X1749600Y1643300D1*
G1X1746100Y1643300D1*
G1X1734100Y1665300D2*
G1X1730600Y1665300D1*
G1X1730600Y1643300D1*
G1X1734100Y1643300D1*
G1X1746100Y1665300D2*
G1X1746100Y1663300D1*
G1X1749600Y1663300D1*
G1X1734100Y1665300D2*
G1X1734100Y1663300D1*
G1X1730600Y1663300D1*
G1X1749600Y1664800D2*
G1X1746100Y1664800D1*
G1X1746100Y1664300D2*
G1X1749100Y1664300D1*
G1X1734100Y1664800D2*
G1X1731100Y1664800D1*
G1X1734100Y1663800D2*
G1X1730600Y1663800D1*
G1X1700100Y1792300D2*
G1X1700100Y1786300D1*
G1X1673100Y1786300D1*
G1X1673100Y1792300D1*
G1X1700100Y1798300D2*
G1X1700100Y1804300D1*
G1X1673100Y1804300D1*
G1X1673100Y1798800D1*
G1X1827100Y1696300D2*
G1X1824600Y1698800D1*
G1X1824600Y1714095D1*
G1X1858143Y1714095D1*
G1X1858143Y1696300D1*
G1X1827100Y1696300D1*
G1X1915873Y1733863D2*
G1X1915873Y1728863D1*
G1X1915645Y1727925D1*
G1X1915418Y1727613D1*
G1X1914964Y1727300D1*
G1X1914509Y1727300D1*
G1X1914055Y1727613D1*
G1X1913827Y1727925D1*
G1X1913600Y1728863D1*
G1X1913600Y1729488D1*
G1X1920191Y1733863D2*
G1X1917918Y1729488D1*
G1X1921327Y1729488D1*
G1X1920191Y1733863D2*
G1X1920191Y1727300D1*
G1X1858441Y1672956D2*
G1X1858441Y1668269D1*
G1X1858668Y1667331D1*
G1X1859123Y1666706D1*
G1X1859805Y1666394D1*
G1X1860259Y1666394D1*
G1X1860941Y1666706D1*
G1X1861395Y1667331D1*
G1X1861623Y1668269D1*
G1X1861623Y1672956D1*
G1X1866850Y1672956D2*
G1X1864577Y1666394D1*
G1X1863668Y1672956D2*
G1X1866850Y1672956D1*
G1X1719873Y1627863D2*
G1X1719873Y1622863D1*
G1X1719645Y1621925D1*
G1X1719418Y1621613D1*
G1X1718964Y1621300D1*
G1X1718509Y1621300D1*
G1X1718055Y1621613D1*
G1X1717827Y1621925D1*
G1X1717600Y1622863D1*
G1X1717600Y1623488D1*
G1X1722145Y1626300D2*
G1X1722145Y1626613D1*
G1X1722373Y1627238D1*
G1X1722600Y1627550D1*
G1X1723055Y1627863D1*
G1X1723964Y1627863D1*
G1X1724418Y1627550D1*
G1X1724645Y1627238D1*
G1X1724873Y1626613D1*
G1X1724873Y1625988D1*
G1X1724645Y1625363D1*
G1X1724191Y1624425D1*
G1X1721918Y1621300D1*
G1X1725100Y1621300D1*
G1X1689473Y1718063D2*
G1X1689473Y1713063D1*
G1X1689245Y1712125D1*
G1X1689018Y1711813D1*
G1X1688564Y1711500D1*
G1X1688109Y1711500D1*
G1X1687655Y1711813D1*
G1X1687427Y1712125D1*
G1X1687200Y1713063D1*
G1X1687200Y1713688D1*
G1X1694473Y1718063D2*
G1X1692200Y1718063D1*
G1X1691973Y1715250D1*
G1X1692200Y1715563D1*
G1X1692882Y1715875D1*
G1X1693564Y1715875D1*
G1X1694245Y1715563D1*
G1X1694700Y1714938D1*
G1X1694927Y1714000D1*
G1X1694700Y1713375D1*
G1X1694473Y1712438D1*
G1X1694018Y1711813D1*
G1X1693336Y1711500D1*
G1X1692655Y1711500D1*
G1X1691973Y1711813D1*
G1X1691745Y1712125D1*
G1X1691518Y1712750D1*
G1X1876173Y1691263D2*
G1X1876173Y1686263D1*
G1X1875945Y1685325D1*
G1X1875718Y1685013D1*
G1X1875264Y1684700D1*
G1X1874809Y1684700D1*
G1X1874355Y1685013D1*
G1X1874127Y1685325D1*
G1X1873900Y1686263D1*
G1X1873900Y1686888D1*
G1X1878218Y1690013D2*
G1X1878673Y1690325D1*
G1X1879355Y1691263D1*
G1X1879355Y1684700D1*
G1X1865471Y1753776D2*
G1X1865471Y1749089D1*
G1X1865698Y1748151D1*
G1X1866153Y1747526D1*
G1X1866835Y1747214D1*
G1X1867289Y1747214D1*
G1X1867971Y1747526D1*
G1X1868425Y1748151D1*
G1X1868653Y1749089D1*
G1X1868653Y1753776D1*
G1X1871835Y1753776D2*
G1X1871153Y1753464D1*
G1X1870925Y1752839D1*
G1X1870925Y1752214D1*
G1X1871153Y1751589D1*
G1X1871607Y1751276D1*
G1X1872516Y1750964D1*
G1X1873198Y1750651D1*
G1X1873653Y1750026D1*
G1X1873880Y1749401D1*
G1X1873880Y1748464D1*
G1X1873653Y1747839D1*
G1X1873425Y1747526D1*
G1X1872744Y1747214D1*
G1X1871835Y1747214D1*
G1X1871153Y1747526D1*
G1X1870925Y1747839D1*
G1X1870698Y1748464D1*
G1X1870698Y1749401D1*
G1X1870925Y1750026D1*
G1X1871380Y1750651D1*
G1X1872062Y1750964D1*
G1X1872971Y1751276D1*
G1X1873425Y1751589D1*
G1X1873653Y1752214D1*
G1X1873653Y1752839D1*
G1X1873425Y1753464D1*
G1X1872744Y1753776D1*
G1X1871835Y1753776D1*
G1X1867981Y1706876D2*
G1X1867981Y1702189D1*
G1X1868208Y1701251D1*
G1X1868663Y1700626D1*
G1X1869345Y1700314D1*
G1X1869799Y1700314D1*
G1X1870481Y1700626D1*
G1X1870935Y1701251D1*
G1X1871163Y1702189D1*
G1X1871163Y1706876D1*
G1X1873663Y1706876D2*
G1X1876163Y1706876D1*
G1X1874799Y1704376D1*
G1X1875481Y1704376D1*
G1X1875935Y1704064D1*
G1X1876163Y1703751D1*
G1X1876390Y1702814D1*
G1X1876390Y1702189D1*
G1X1876163Y1701251D1*
G1X1875708Y1700626D1*
G1X1875026Y1700314D1*
G1X1874345Y1700314D1*
G1X1873663Y1700626D1*
G1X1873435Y1700939D1*
G1X1873208Y1701564D1*
G1X1871327Y1768456D2*
G1X1871327Y1763769D1*
G1X1871555Y1762831D1*
G1X1872009Y1762206D1*
G1X1872691Y1761894D1*
G1X1873145Y1761894D1*
G1X1873827Y1762206D1*
G1X1874282Y1762831D1*
G1X1874509Y1763769D1*
G1X1874509Y1768456D1*
G1X1879509Y1768456D2*
G1X1877236Y1768456D1*
G1X1877009Y1765644D1*
G1X1877236Y1765956D1*
G1X1877918Y1766269D1*
G1X1878600Y1766269D1*
G1X1879282Y1765956D1*
G1X1879736Y1765331D1*
G1X1879964Y1764394D1*
G1X1879736Y1763769D1*
G1X1879509Y1762831D1*
G1X1879055Y1762206D1*
G1X1878373Y1761894D1*
G1X1877691Y1761894D1*
G1X1877009Y1762206D1*
G1X1876782Y1762519D1*
G1X1876555Y1763144D1*
G1X1732855Y1712556D2*
G1X1732855Y1707869D1*
G1X1733082Y1706931D1*
G1X1733536Y1706306D1*
G1X1734218Y1705994D1*
G1X1734673Y1705994D1*
G1X1735355Y1706306D1*
G1X1735809Y1706931D1*
G1X1736036Y1707869D1*
G1X1736036Y1712556D1*
G1X1740809Y1711619D2*
G1X1740582Y1712244D1*
G1X1739900Y1712556D1*
G1X1739445Y1712556D1*
G1X1738764Y1712244D1*
G1X1738309Y1711306D1*
G1X1738082Y1709744D1*
G1X1738082Y1708181D1*
G1X1738309Y1706931D1*
G1X1738764Y1706306D1*
G1X1739445Y1705994D1*
G1X1739673Y1705994D1*
G1X1740355Y1706306D1*
G1X1740809Y1706931D1*
G1X1741036Y1707869D1*
G1X1741036Y1708181D1*
G1X1740809Y1709119D1*
G1X1740355Y1709744D1*
G1X1739673Y1710056D1*
G1X1739445Y1710056D1*
G1X1738764Y1709744D1*
G1X1738309Y1709119D1*
G1X1738082Y1708181D1*
G1X1773441Y1756456D2*
G1X1773441Y1751769D1*
G1X1773668Y1750831D1*
G1X1774123Y1750206D1*
G1X1774805Y1749894D1*
G1X1775259Y1749894D1*
G1X1775941Y1750206D1*
G1X1776395Y1750831D1*
G1X1776623Y1751769D1*
G1X1776623Y1756456D1*
G1X1778895Y1754894D2*
G1X1778895Y1755206D1*
G1X1779123Y1755831D1*
G1X1779350Y1756144D1*
G1X1779805Y1756456D1*
G1X1780714Y1756456D1*
G1X1781168Y1756144D1*
G1X1781395Y1755831D1*
G1X1781623Y1755206D1*
G1X1781623Y1754581D1*
G1X1781395Y1753956D1*
G1X1780941Y1753019D1*
G1X1778668Y1749894D1*
G1X1781850Y1749894D1*
G1X1727100Y1786363D2*
G1X1727100Y1781675D1*
G1X1727327Y1780738D1*
G1X1727782Y1780113D1*
G1X1728464Y1779800D1*
G1X1728918Y1779800D1*
G1X1729600Y1780113D1*
G1X1730055Y1780738D1*
G1X1730282Y1781675D1*
G1X1730282Y1786363D1*
G1X1732327Y1785113D2*
G1X1732782Y1785425D1*
G1X1733464Y1786363D1*
G1X1733464Y1779800D1*
G1X1790555Y1690456D2*
G1X1790555Y1685769D1*
G1X1790782Y1684831D1*
G1X1791236Y1684206D1*
G1X1791918Y1683894D1*
G1X1792373Y1683894D1*
G1X1793055Y1684206D1*
G1X1793509Y1684831D1*
G1X1793736Y1685769D1*
G1X1793736Y1690456D1*
G1X1798736Y1688269D2*
G1X1798509Y1687331D1*
G1X1798055Y1686706D1*
G1X1797373Y1686394D1*
G1X1797145Y1686394D1*
G1X1796464Y1686706D1*
G1X1796009Y1687331D1*
G1X1795782Y1688269D1*
G1X1795782Y1688581D1*
G1X1796009Y1689519D1*
G1X1796464Y1690144D1*
G1X1797145Y1690456D1*
G1X1797373Y1690456D1*
G1X1798055Y1690144D1*
G1X1798509Y1689519D1*
G1X1798736Y1688269D1*
G1X1798736Y1686706D1*
G1X1798509Y1685144D1*
G1X1798055Y1684206D1*
G1X1797373Y1683894D1*
G1X1796918Y1683894D1*
G1X1796236Y1684206D1*
G1X1796009Y1684831D1*
G1X1668600Y1673363D2*
G1X1668600Y1668675D1*
G1X1668827Y1667738D1*
G1X1669282Y1667113D1*
G1X1669964Y1666800D1*
G1X1670418Y1666800D1*
G1X1671100Y1667113D1*
G1X1671555Y1667738D1*
G1X1671782Y1668675D1*
G1X1671782Y1673363D1*
G1X1673827Y1672113D2*
G1X1674282Y1672425D1*
G1X1674964Y1673363D1*
G1X1674964Y1666800D1*
G1X1678373Y1673363D2*
G1X1677691Y1673050D1*
G1X1677236Y1672113D1*
G1X1677009Y1670550D1*
G1X1677009Y1669613D1*
G1X1677236Y1668050D1*
G1X1677691Y1667113D1*
G1X1678373Y1666800D1*
G1X1678827Y1666800D1*
G1X1679509Y1667113D1*
G1X1679964Y1668050D1*
G1X1680191Y1669613D1*
G1X1680191Y1670550D1*
G1X1679964Y1672113D1*
G1X1679509Y1673050D1*
G1X1678827Y1673363D1*
G1X1678373Y1673363D1*
G1X1710864Y1799809D2*
G1X1710409Y1800434D1*
G1X1709727Y1800747D1*
G1X1708818Y1800747D1*
G1X1708136Y1800434D1*
G1X1707682Y1799809D1*
G1X1707682Y1799184D1*
G1X1707909Y1798559D1*
G1X1708136Y1798247D1*
G1X1708591Y1797934D1*
G1X1709954Y1797309D1*
G1X1710409Y1796997D1*
G1X1710636Y1796684D1*
G1X1710864Y1796059D1*
G1X1710864Y1795122D1*
G1X1710409Y1794497D1*
G1X1709727Y1794184D1*
G1X1708818Y1794184D1*
G1X1708136Y1794497D1*
G1X1707682Y1795122D1*
G1X1712909Y1799497D2*
G1X1713364Y1799809D1*
G1X1714045Y1800747D1*
G1X1714045Y1794184D1*
G1X1812053Y1704973D2*
G1X1812053Y1699973D1*
G1X1811825Y1699035D1*
G1X1811598Y1698723D1*
G1X1811144Y1698410D1*
G1X1810689Y1698410D1*
G1X1810235Y1698723D1*
G1X1810007Y1699035D1*
G1X1809780Y1699973D1*
G1X1809780Y1700598D1*
G1X1814098Y1704973D2*
G1X1814098Y1698410D1*
G1X1814098Y1704973D2*
G1X1816144Y1704973D1*
G1X1816825Y1704660D1*
G1X1817053Y1704348D1*
G1X1817280Y1703723D1*
G1X1817280Y1702785D1*
G1X1817053Y1702160D1*
G1X1816825Y1701848D1*
G1X1816144Y1701535D1*
G1X1814098Y1701535D1*
G1X1819780Y1704973D2*
G1X1822280Y1704973D1*
G1X1820916Y1702473D1*
G1X1821598Y1702473D1*
G1X1822053Y1702160D1*
G1X1822280Y1701848D1*
G1X1822507Y1700910D1*
G1X1822507Y1700285D1*
G1X1822280Y1699348D1*
G1X1821825Y1698723D1*
G1X1821144Y1698410D1*
G1X1820462Y1698410D1*
G1X1819780Y1698723D1*
G1X1819553Y1699035D1*
G1X1819325Y1699660D1*
G1X1795100Y1567733D2*
G1X1795100Y1561170D1*
G1X1797827Y1561170D1*
G1X1799873Y1567733D2*
G1X1799873Y1561170D1*
G1X1801918Y1567733D2*
G1X1801918Y1561170D1*
G1X1801918Y1567733D2*
G1X1805100Y1561170D1*
G1X1805100Y1567733D2*
G1X1805100Y1561170D1*
G1X1807145Y1567733D2*
G1X1807145Y1561170D1*
G1X1807145Y1567733D2*
G1X1810100Y1567733D1*
G1X1807145Y1564608D2*
G1X1808964Y1564608D1*
G1X1807145Y1561170D2*
G1X1810100Y1561170D1*
G1X1813964Y1567733D2*
G1X1812145Y1561170D1*
G1X1813964Y1567733D2*
G1X1815782Y1561170D1*
G1X1812827Y1563358D2*
G1X1815100Y1563358D1*
G1X1817827Y1567733D2*
G1X1817827Y1561170D1*
G1X1817827Y1567733D2*
G1X1819873Y1567733D1*
G1X1820555Y1567420D1*
G1X1820782Y1567108D1*
G1X1821009Y1566483D1*
G1X1821009Y1565858D1*
G1X1820782Y1565233D1*
G1X1820555Y1564920D1*
G1X1819873Y1564608D1*
G1X1817827Y1564608D1*
G1X1819418Y1564608D2*
G1X1821009Y1561170D1*
G1X1829873Y1567733D2*
G1X1829873Y1561170D1*
G1X1828282Y1567733D2*
G1X1831464Y1567733D1*
G1X1833509Y1567733D2*
G1X1833509Y1561170D1*
G1X1833509Y1567733D2*
G1X1836464Y1567733D1*
G1X1833509Y1564608D2*
G1X1835327Y1564608D1*
G1X1833509Y1561170D2*
G1X1836464Y1561170D1*
G1X1841918Y1566170D2*
G1X1841691Y1566795D1*
G1X1841236Y1567420D1*
G1X1840782Y1567733D1*
G1X1839873Y1567733D1*
G1X1839418Y1567420D1*
G1X1838964Y1566795D1*
G1X1838736Y1566170D1*
G1X1838509Y1565233D1*
G1X1838509Y1563670D1*
G1X1838736Y1562733D1*
G1X1838964Y1562108D1*
G1X1839418Y1561483D1*
G1X1839873Y1561170D1*
G1X1840782Y1561170D1*
G1X1841236Y1561483D1*
G1X1841691Y1562108D1*
G1X1841918Y1562733D1*
G1X1843964Y1567733D2*
G1X1843964Y1561170D1*
G1X1847145Y1567733D2*
G1X1847145Y1561170D1*
G1X1843964Y1564608D2*
G1X1847145Y1564608D1*
G1X1849191Y1567733D2*
G1X1849191Y1561170D1*
G1X1849191Y1567733D2*
G1X1852373Y1561170D1*
G1X1852373Y1567733D2*
G1X1852373Y1561170D1*
G1X1855782Y1567733D2*
G1X1855327Y1567420D1*
G1X1854873Y1566795D1*
G1X1854645Y1566170D1*
G1X1854418Y1565233D1*
G1X1854418Y1563670D1*
G1X1854645Y1562733D1*
G1X1854873Y1562108D1*
G1X1855327Y1561483D1*
G1X1855782Y1561170D1*
G1X1856691Y1561170D1*
G1X1857145Y1561483D1*
G1X1857600Y1562108D1*
G1X1857827Y1562733D1*
G1X1858055Y1563670D1*
G1X1858055Y1565233D1*
G1X1857827Y1566170D1*
G1X1857600Y1566795D1*
G1X1857145Y1567420D1*
G1X1856691Y1567733D1*
G1X1855782Y1567733D1*
G1X1860100Y1567733D2*
G1X1860100Y1561170D1*
G1X1862827Y1561170D1*
G1X1866236Y1567733D2*
G1X1865782Y1567420D1*
G1X1865327Y1566795D1*
G1X1865100Y1566170D1*
G1X1864873Y1565233D1*
G1X1864873Y1563670D1*
G1X1865100Y1562733D1*
G1X1865327Y1562108D1*
G1X1865782Y1561483D1*
G1X1866236Y1561170D1*
G1X1867145Y1561170D1*
G1X1867600Y1561483D1*
G1X1868055Y1562108D1*
G1X1868282Y1562733D1*
G1X1868509Y1563670D1*
G1X1868509Y1565233D1*
G1X1868282Y1566170D1*
G1X1868055Y1566795D1*
G1X1867600Y1567420D1*
G1X1867145Y1567733D1*
G1X1866236Y1567733D1*
G1X1873964Y1566170D2*
G1X1873736Y1566795D1*
G1X1873282Y1567420D1*
G1X1872827Y1567733D1*
G1X1871918Y1567733D1*
G1X1871464Y1567420D1*
G1X1871009Y1566795D1*
G1X1870782Y1566170D1*
G1X1870555Y1565233D1*
G1X1870555Y1563670D1*
G1X1870782Y1562733D1*
G1X1871009Y1562108D1*
G1X1871464Y1561483D1*
G1X1871918Y1561170D1*
G1X1872827Y1561170D1*
G1X1873282Y1561483D1*
G1X1873736Y1562108D1*
G1X1873964Y1562733D1*
G1X1873964Y1563670D1*
G1X1872827Y1563670D2*
G1X1873964Y1563670D1*
G1X1876009Y1567733D2*
G1X1877827Y1564608D1*
G1X1877827Y1561170D1*
G1X1879645Y1567733D2*
G1X1877827Y1564608D1*
G1X1886918Y1567733D2*
G1X1886918Y1561170D1*
G1X1892145Y1566795D2*
G1X1891691Y1567420D1*
G1X1891009Y1567733D1*
G1X1890100Y1567733D1*
G1X1889418Y1567420D1*
G1X1888964Y1566795D1*
G1X1888964Y1566170D1*
G1X1889191Y1565545D1*
G1X1889418Y1565233D1*
G1X1889873Y1564920D1*
G1X1891236Y1564295D1*
G1X1891691Y1563983D1*
G1X1891918Y1563670D1*
G1X1892145Y1563045D1*
G1X1892145Y1562108D1*
G1X1891691Y1561483D1*
G1X1891009Y1561170D1*
G1X1890100Y1561170D1*
G1X1889418Y1561483D1*
G1X1888964Y1562108D1*
G1X1895555Y1567733D2*
G1X1895100Y1567420D1*
G1X1894645Y1566795D1*
G1X1894418Y1566170D1*
G1X1894191Y1565233D1*
G1X1894191Y1563670D1*
G1X1894418Y1562733D1*
G1X1894645Y1562108D1*
G1X1895100Y1561483D1*
G1X1895555Y1561170D1*
G1X1896464Y1561170D1*
G1X1896918Y1561483D1*
G1X1897373Y1562108D1*
G1X1897600Y1562733D1*
G1X1897827Y1563670D1*
G1X1897827Y1565233D1*
G1X1897600Y1566170D1*
G1X1897373Y1566795D1*
G1X1896918Y1567420D1*
G1X1896464Y1567733D1*
G1X1895555Y1567733D1*
G1X1899873Y1567733D2*
G1X1899873Y1561170D1*
G1X1902600Y1561170D1*
G1X1906464Y1567733D2*
G1X1904645Y1561170D1*
G1X1906464Y1567733D2*
G1X1908282Y1561170D1*
G1X1905327Y1563358D2*
G1X1907600Y1563358D1*
G1X1911918Y1567733D2*
G1X1911918Y1561170D1*
G1X1910327Y1567733D2*
G1X1913509Y1567733D1*
G1X1915555Y1567733D2*
G1X1915555Y1561170D1*
G1X1915555Y1567733D2*
G1X1918509Y1567733D1*
G1X1915555Y1564608D2*
G1X1917373Y1564608D1*
G1X1915555Y1561170D2*
G1X1918509Y1561170D1*
G1X1920555Y1567733D2*
G1X1920555Y1561170D1*
G1X1920555Y1567733D2*
G1X1922145Y1567733D1*
G1X1922827Y1567420D1*
G1X1923282Y1566795D1*
G1X1923509Y1566170D1*
G1X1923736Y1565233D1*
G1X1923736Y1563670D1*
G1X1923509Y1562733D1*
G1X1923282Y1562108D1*
G1X1922827Y1561483D1*
G1X1922145Y1561170D1*
G1X1920555Y1561170D1*
G1X1808600Y1750300D2*
G1X1809327Y1746800D1*
G1X1810055Y1750300D2*
G1X1809327Y1746800D1*
G1X1810055Y1750300D2*
G1X1810782Y1746800D1*
G1X1811509Y1750300D2*
G1X1810782Y1746800D1*
G1X1813145Y1750300D2*
G1X1813873Y1746800D1*
G1X1814600Y1750300D2*
G1X1813873Y1746800D1*
G1X1814600Y1750300D2*
G1X1815327Y1746800D1*
G1X1816055Y1750300D2*
G1X1815327Y1746800D1*
G1X1817691Y1750300D2*
G1X1818418Y1746800D1*
G1X1819145Y1750300D2*
G1X1818418Y1746800D1*
G1X1819145Y1750300D2*
G1X1819873Y1746800D1*
G1X1820600Y1750300D2*
G1X1819873Y1746800D1*
G1X1822418Y1747300D2*
G1X1822236Y1747050D1*
G1X1822418Y1746800D1*
G1X1822600Y1747050D1*
G1X1822418Y1747300D1*
G1X1824236Y1752050D2*
G1X1824236Y1746800D1*
G1X1825873Y1752050D2*
G1X1826055Y1751800D1*
G1X1826236Y1752050D1*
G1X1826055Y1752300D1*
G1X1825873Y1752050D1*
G1X1826055Y1750300D2*
G1X1826055Y1746800D1*
G1X1827873Y1750300D2*
G1X1827873Y1746800D1*
G1X1827873Y1749300D2*
G1X1828418Y1750050D1*
G1X1828782Y1750300D1*
G1X1829327Y1750300D1*
G1X1829691Y1750050D1*
G1X1829873Y1749300D1*
G1X1829873Y1746800D1*
G1X1831509Y1748800D2*
G1X1833691Y1748800D1*
G1X1833691Y1749300D1*
G1X1833509Y1749800D1*
G1X1833327Y1750050D1*
G1X1832964Y1750300D1*
G1X1832418Y1750300D1*
G1X1832055Y1750050D1*
G1X1831691Y1749550D1*
G1X1831509Y1748800D1*
G1X1831509Y1748300D1*
G1X1831691Y1747550D1*
G1X1832055Y1747050D1*
G1X1832418Y1746800D1*
G1X1832964Y1746800D1*
G1X1833327Y1747050D1*
G1X1833691Y1747550D1*
G1X1837509Y1750300D2*
G1X1837509Y1746800D1*
G1X1837509Y1749550D2*
G1X1837145Y1750050D1*
G1X1836782Y1750300D1*
G1X1836236Y1750300D1*
G1X1835873Y1750050D1*
G1X1835509Y1749550D1*
G1X1835327Y1748800D1*
G1X1835327Y1748300D1*
G1X1835509Y1747550D1*
G1X1835873Y1747050D1*
G1X1836236Y1746800D1*
G1X1836782Y1746800D1*
G1X1837145Y1747050D1*
G1X1837509Y1747550D1*
G1X1839145Y1750300D2*
G1X1839145Y1746800D1*
G1X1839145Y1748800D2*
G1X1839327Y1749550D1*
G1X1839691Y1750050D1*
G1X1840055Y1750300D1*
G1X1840600Y1750300D1*
G1X1842418Y1747300D2*
G1X1842236Y1747050D1*
G1X1842418Y1746800D1*
G1X1842600Y1747050D1*
G1X1842418Y1747300D1*
G1X1846418Y1749550D2*
G1X1846055Y1750050D1*
G1X1845691Y1750300D1*
G1X1845145Y1750300D1*
G1X1844782Y1750050D1*
G1X1844418Y1749550D1*
G1X1844236Y1748800D1*
G1X1844236Y1748300D1*
G1X1844418Y1747550D1*
G1X1844782Y1747050D1*
G1X1845145Y1746800D1*
G1X1845691Y1746800D1*
G1X1846055Y1747050D1*
G1X1846418Y1747550D1*
G1X1848964Y1750300D2*
G1X1848600Y1750050D1*
G1X1848236Y1749550D1*
G1X1848055Y1748800D1*
G1X1848055Y1748300D1*
G1X1848236Y1747550D1*
G1X1848600Y1747050D1*
G1X1848964Y1746800D1*
G1X1849509Y1746800D1*
G1X1849873Y1747050D1*
G1X1850236Y1747550D1*
G1X1850418Y1748300D1*
G1X1850418Y1748800D1*
G1X1850236Y1749550D1*
G1X1849873Y1750050D1*
G1X1849509Y1750300D1*
G1X1848964Y1750300D1*
G1X1852055Y1750300D2*
G1X1852055Y1746800D1*
G1X1852055Y1749300D2*
G1X1852600Y1750050D1*
G1X1852964Y1750300D1*
G1X1853509Y1750300D1*
G1X1853873Y1750050D1*
G1X1854055Y1749300D1*
G1X1854055Y1746800D1*
G1X1854055Y1749300D2*
G1X1854600Y1750050D1*
G1X1854964Y1750300D1*
G1X1855509Y1750300D1*
G1X1855873Y1750050D1*
G1X1856055Y1749300D1*
G1X1856055Y1746800D1*
G1X1809714Y1758769D2*
G1X1809395Y1758331D1*
G1X1809077Y1757675D1*
G1X1808759Y1756800D1*
G1X1808600Y1755706D1*
G1X1808600Y1754831D1*
G1X1808759Y1753738D1*
G1X1809077Y1752862D1*
G1X1809395Y1752206D1*
G1X1809714Y1751769D1*
G1X1812736Y1757894D2*
G1X1811145Y1754831D1*
G1X1813532Y1754831D1*
G1X1812736Y1757894D2*
G1X1812736Y1753300D1*
G1X1815918Y1757894D2*
G1X1815441Y1757675D1*
G1X1815123Y1757019D1*
G1X1814964Y1755925D1*
G1X1814964Y1755269D1*
G1X1815123Y1754175D1*
G1X1815441Y1753519D1*
G1X1815918Y1753300D1*
G1X1816236Y1753300D1*
G1X1816714Y1753519D1*
G1X1817032Y1754175D1*
G1X1817191Y1755269D1*
G1X1817191Y1755925D1*
G1X1817032Y1757019D1*
G1X1816714Y1757675D1*
G1X1816236Y1757894D1*
G1X1815918Y1757894D1*
G1X1819418Y1757894D2*
G1X1818941Y1757675D1*
G1X1818782Y1757238D1*
G1X1818782Y1756800D1*
G1X1818941Y1756363D1*
G1X1819259Y1756144D1*
G1X1819895Y1755925D1*
G1X1820373Y1755706D1*
G1X1820691Y1755269D1*
G1X1820850Y1754831D1*
G1X1820850Y1754175D1*
G1X1820691Y1753738D1*
G1X1820532Y1753519D1*
G1X1820055Y1753300D1*
G1X1819418Y1753300D1*
G1X1818941Y1753519D1*
G1X1818782Y1753738D1*
G1X1818623Y1754175D1*
G1X1818623Y1754831D1*
G1X1818782Y1755269D1*
G1X1819100Y1755706D1*
G1X1819577Y1755925D1*
G1X1820214Y1756144D1*
G1X1820532Y1756363D1*
G1X1820691Y1756800D1*
G1X1820691Y1757238D1*
G1X1820532Y1757675D1*
G1X1820055Y1757894D1*
G1X1819418Y1757894D1*
G1X1822282Y1758769D2*
G1X1822600Y1758331D1*
G1X1822918Y1757675D1*
G1X1823236Y1756800D1*
G1X1823395Y1755706D1*
G1X1823395Y1754831D1*
G1X1823236Y1753738D1*
G1X1822918Y1752862D1*
G1X1822600Y1752206D1*
G1X1822282Y1751769D1*
G1X1830077Y1757894D2*
G1X1828486Y1754831D1*
G1X1830873Y1754831D1*
G1X1830077Y1757894D2*
G1X1830077Y1753300D1*
G1X1832623Y1757894D2*
G1X1834373Y1757894D1*
G1X1833418Y1756144D1*
G1X1833895Y1756144D1*
G1X1834214Y1755925D1*
G1X1834373Y1755706D1*
G1X1834532Y1755050D1*
G1X1834532Y1754613D1*
G1X1834373Y1753956D1*
G1X1834055Y1753519D1*
G1X1833577Y1753300D1*
G1X1833100Y1753300D1*
G1X1832623Y1753519D1*
G1X1832464Y1753738D1*
G1X1832305Y1754175D1*
G1X1836123Y1756800D2*
G1X1836123Y1757019D1*
G1X1836282Y1757456D1*
G1X1836441Y1757675D1*
G1X1836759Y1757894D1*
G1X1837395Y1757894D1*
G1X1837714Y1757675D1*
G1X1837873Y1757456D1*
G1X1838032Y1757019D1*
G1X1838032Y1756581D1*
G1X1837873Y1756144D1*
G1X1837555Y1755488D1*
G1X1835964Y1753300D1*
G1X1838191Y1753300D1*
G1X1839623Y1755269D2*
G1X1842486Y1755269D1*
G1X1843918Y1757019D2*
G1X1844236Y1757238D1*
G1X1844714Y1757894D1*
G1X1844714Y1753300D1*
G1X1848214Y1756363D2*
G1X1848055Y1755706D1*
G1X1847736Y1755269D1*
G1X1847259Y1755050D1*
G1X1847100Y1755050D1*
G1X1846623Y1755269D1*
G1X1846305Y1755706D1*
G1X1846145Y1756363D1*
G1X1846145Y1756581D1*
G1X1846305Y1757238D1*
G1X1846623Y1757675D1*
G1X1847100Y1757894D1*
G1X1847259Y1757894D1*
G1X1847736Y1757675D1*
G1X1848055Y1757238D1*
G1X1848214Y1756363D1*
G1X1848214Y1755269D1*
G1X1848055Y1754175D1*
G1X1847736Y1753519D1*
G1X1847259Y1753300D1*
G1X1846941Y1753300D1*
G1X1846464Y1753519D1*
G1X1846305Y1753956D1*
G1X1850600Y1757894D2*
G1X1850123Y1757675D1*
G1X1849805Y1757019D1*
G1X1849645Y1755925D1*
G1X1849645Y1755269D1*
G1X1849805Y1754175D1*
G1X1850123Y1753519D1*
G1X1850600Y1753300D1*
G1X1850918Y1753300D1*
G1X1851395Y1753519D1*
G1X1851714Y1754175D1*
G1X1851873Y1755269D1*
G1X1851873Y1755925D1*
G1X1851714Y1757019D1*
G1X1851395Y1757675D1*
G1X1850918Y1757894D1*
G1X1850600Y1757894D1*
G1X1854259Y1757894D2*
G1X1853782Y1757675D1*
G1X1853464Y1757019D1*
G1X1853305Y1755925D1*
G1X1853305Y1755269D1*
G1X1853464Y1754175D1*
G1X1853782Y1753519D1*
G1X1854259Y1753300D1*
G1X1854577Y1753300D1*
G1X1855055Y1753519D1*
G1X1855373Y1754175D1*
G1X1855532Y1755269D1*
G1X1855532Y1755925D1*
G1X1855373Y1757019D1*
G1X1855055Y1757675D1*
G1X1854577Y1757894D1*
G1X1854259Y1757894D1*
G1X1774600Y1721306D2*
G1X1774600Y1715400D1*
G1X1774600Y1721306D2*
G1X1776032Y1721306D1*
G1X1776645Y1721025D1*
G1X1777055Y1720463D1*
G1X1777259Y1719900D1*
G1X1777464Y1719056D1*
G1X1777464Y1717650D1*
G1X1777259Y1716806D1*
G1X1777055Y1716244D1*
G1X1776645Y1715681D1*
G1X1776032Y1715400D1*
G1X1774600Y1715400D1*
G1X1779305Y1721306D2*
G1X1779305Y1715400D1*
G1X1779305Y1721306D2*
G1X1781964Y1721306D1*
G1X1779305Y1718494D2*
G1X1780941Y1718494D1*
G1X1779305Y1715400D2*
G1X1781964Y1715400D1*
G1X1783805Y1721306D2*
G1X1783805Y1715400D1*
G1X1783805Y1721306D2*
G1X1785441Y1715400D1*
G1X1787077Y1721306D2*
G1X1785441Y1715400D1*
G1X1787077Y1721306D2*
G1X1787077Y1715400D1*
G1X1790145Y1721306D2*
G1X1789736Y1721025D1*
G1X1789327Y1720463D1*
G1X1789123Y1719900D1*
G1X1788918Y1719056D1*
G1X1788918Y1717650D1*
G1X1789123Y1716806D1*
G1X1789327Y1716244D1*
G1X1789736Y1715681D1*
G1X1790145Y1715400D1*
G1X1790964Y1715400D1*
G1X1791373Y1715681D1*
G1X1791782Y1716244D1*
G1X1791986Y1716806D1*
G1X1792191Y1717650D1*
G1X1792191Y1719056D1*
G1X1791986Y1719900D1*
G1X1791782Y1720463D1*
G1X1791373Y1721025D1*
G1X1790964Y1721306D1*
G1X1790145Y1721306D1*
G1X1801805Y1719900D2*
G1X1801600Y1720463D1*
G1X1801191Y1721025D1*
G1X1800782Y1721306D1*
G1X1799964Y1721306D1*
G1X1799555Y1721025D1*
G1X1799145Y1720463D1*
G1X1798941Y1719900D1*
G1X1798736Y1719056D1*
G1X1798736Y1717650D1*
G1X1798941Y1716806D1*
G1X1799145Y1716244D1*
G1X1799555Y1715681D1*
G1X1799964Y1715400D1*
G1X1800782Y1715400D1*
G1X1801191Y1715681D1*
G1X1801600Y1716244D1*
G1X1801805Y1716806D1*
G1X1803645Y1721306D2*
G1X1803645Y1715400D1*
G1X1805486Y1721306D2*
G1X1805486Y1715400D1*
G1X1805486Y1721306D2*
G1X1807327Y1721306D1*
G1X1807941Y1721025D1*
G1X1808145Y1720744D1*
G1X1808350Y1720181D1*
G1X1808350Y1719619D1*
G1X1808145Y1719056D1*
G1X1807941Y1718775D1*
G1X1807327Y1718494D1*
G1X1805486Y1718494D1*
G1X1806918Y1718494D2*
G1X1808350Y1715400D1*
G1X1813259Y1719900D2*
G1X1813055Y1720463D1*
G1X1812645Y1721025D1*
G1X1812236Y1721306D1*
G1X1811418Y1721306D1*
G1X1811009Y1721025D1*
G1X1810600Y1720463D1*
G1X1810395Y1719900D1*
G1X1810191Y1719056D1*
G1X1810191Y1717650D1*
G1X1810395Y1716806D1*
G1X1810600Y1716244D1*
G1X1811009Y1715681D1*
G1X1811418Y1715400D1*
G1X1812236Y1715400D1*
G1X1812645Y1715681D1*
G1X1813055Y1716244D1*
G1X1813259Y1716806D1*
G1X1815100Y1721306D2*
G1X1815100Y1717088D1*
G1X1815305Y1716244D1*
G1X1815714Y1715681D1*
G1X1816327Y1715400D1*
G1X1816736Y1715400D1*
G1X1817350Y1715681D1*
G1X1817759Y1716244D1*
G1X1817964Y1717088D1*
G1X1817964Y1721306D1*
G1X1819805Y1721306D2*
G1X1819805Y1715400D1*
G1X1823077Y1721306D2*
G1X1823077Y1715400D1*
G1X1821645Y1721306D2*
G1X1824509Y1721306D1*
G1X1785827Y1711900D2*
G1X1785827Y1712213D1*
G1X1786055Y1712838D1*
G1X1786282Y1713150D1*
G1X1786736Y1713463D1*
G1X1787645Y1713463D1*
G1X1788100Y1713150D1*
G1X1788327Y1712838D1*
G1X1788555Y1712213D1*
G1X1788555Y1711588D1*
G1X1788327Y1710963D1*
G1X1787873Y1710025D1*
G1X1785600Y1706900D1*
G1X1788782Y1706900D1*
G1X1792191Y1713463D2*
G1X1791509Y1713150D1*
G1X1791055Y1712213D1*
G1X1790827Y1710650D1*
G1X1790827Y1709713D1*
G1X1791055Y1708150D1*
G1X1791509Y1707213D1*
G1X1792191Y1706900D1*
G1X1792645Y1706900D1*
G1X1793327Y1707213D1*
G1X1793782Y1708150D1*
G1X1794009Y1709713D1*
G1X1794009Y1710650D1*
G1X1793782Y1712213D1*
G1X1793327Y1713150D1*
G1X1792645Y1713463D1*
G1X1792191Y1713463D1*
G1X1796282Y1711900D2*
G1X1796282Y1712213D1*
G1X1796509Y1712838D1*
G1X1796736Y1713150D1*
G1X1797191Y1713463D1*
G1X1798100Y1713463D1*
G1X1798555Y1713150D1*
G1X1798782Y1712838D1*
G1X1799009Y1712213D1*
G1X1799009Y1711588D1*
G1X1798782Y1710963D1*
G1X1798327Y1710025D1*
G1X1796055Y1706900D1*
G1X1799236Y1706900D1*
G1X1804009Y1712525D2*
G1X1803782Y1713150D1*
G1X1803100Y1713463D1*
G1X1802645Y1713463D1*
G1X1801964Y1713150D1*
G1X1801509Y1712213D1*
G1X1801282Y1710650D1*
G1X1801282Y1709088D1*
G1X1801509Y1707838D1*
G1X1801964Y1707213D1*
G1X1802645Y1706900D1*
G1X1802873Y1706900D1*
G1X1803555Y1707213D1*
G1X1804009Y1707838D1*
G1X1804236Y1708775D1*
G1X1804236Y1709088D1*
G1X1804009Y1710025D1*
G1X1803555Y1710650D1*
G1X1802873Y1710963D1*
G1X1802645Y1710963D1*
G1X1801964Y1710650D1*
G1X1801509Y1710025D1*
G1X1801282Y1709088D1*
G1X1809691Y1711900D2*
G1X1809464Y1712525D1*
G1X1809009Y1713150D1*
G1X1808555Y1713463D1*
G1X1807645Y1713463D1*
G1X1807191Y1713150D1*
G1X1806736Y1712525D1*
G1X1806509Y1711900D1*
G1X1806282Y1710963D1*
G1X1806282Y1709400D1*
G1X1806509Y1708463D1*
G1X1806736Y1707838D1*
G1X1807191Y1707213D1*
G1X1807645Y1706900D1*
G1X1808555Y1706900D1*
G1X1809009Y1707213D1*
G1X1809464Y1707838D1*
G1X1809691Y1708463D1*
G1X1795100Y1587733D2*
G1X1795100Y1581170D1*
G1X1795100Y1587733D2*
G1X1796691Y1587733D1*
G1X1797373Y1587420D1*
G1X1797827Y1586795D1*
G1X1798055Y1586170D1*
G1X1798282Y1585233D1*
G1X1798282Y1583670D1*
G1X1798055Y1582733D1*
G1X1797827Y1582108D1*
G1X1797373Y1581483D1*
G1X1796691Y1581170D1*
G1X1795100Y1581170D1*
G1X1803736Y1586170D2*
G1X1803509Y1586795D1*
G1X1803055Y1587420D1*
G1X1802600Y1587733D1*
G1X1801691Y1587733D1*
G1X1801236Y1587420D1*
G1X1800782Y1586795D1*
G1X1800555Y1586170D1*
G1X1800327Y1585233D1*
G1X1800327Y1583670D1*
G1X1800555Y1582733D1*
G1X1800782Y1582108D1*
G1X1801236Y1581483D1*
G1X1801691Y1581170D1*
G1X1802600Y1581170D1*
G1X1803055Y1581483D1*
G1X1803509Y1582108D1*
G1X1803736Y1582733D1*
G1X1806009Y1586170D2*
G1X1806009Y1586483D1*
G1X1806236Y1587108D1*
G1X1806464Y1587420D1*
G1X1806918Y1587733D1*
G1X1807827Y1587733D1*
G1X1808282Y1587420D1*
G1X1808509Y1587108D1*
G1X1808736Y1586483D1*
G1X1808736Y1585858D1*
G1X1808509Y1585233D1*
G1X1808055Y1584295D1*
G1X1805782Y1581170D1*
G1X1808964Y1581170D1*
G1X1812373Y1587733D2*
G1X1811691Y1587420D1*
G1X1811236Y1586483D1*
G1X1811009Y1584920D1*
G1X1811009Y1583983D1*
G1X1811236Y1582420D1*
G1X1811691Y1581483D1*
G1X1812373Y1581170D1*
G1X1812827Y1581170D1*
G1X1813509Y1581483D1*
G1X1813964Y1582420D1*
G1X1814191Y1583983D1*
G1X1814191Y1584920D1*
G1X1813964Y1586483D1*
G1X1813509Y1587420D1*
G1X1812827Y1587733D1*
G1X1812373Y1587733D1*
G1X1816464Y1586170D2*
G1X1816464Y1586483D1*
G1X1816691Y1587108D1*
G1X1816918Y1587420D1*
G1X1817373Y1587733D1*
G1X1818282Y1587733D1*
G1X1818736Y1587420D1*
G1X1818964Y1587108D1*
G1X1819191Y1586483D1*
G1X1819191Y1585858D1*
G1X1818964Y1585233D1*
G1X1818509Y1584295D1*
G1X1816236Y1581170D1*
G1X1819418Y1581170D1*
G1X1824191Y1586795D2*
G1X1823964Y1587420D1*
G1X1823282Y1587733D1*
G1X1822827Y1587733D1*
G1X1822145Y1587420D1*
G1X1821691Y1586483D1*
G1X1821464Y1584920D1*
G1X1821464Y1583358D1*
G1X1821691Y1582108D1*
G1X1822145Y1581483D1*
G1X1822827Y1581170D1*
G1X1823055Y1581170D1*
G1X1823736Y1581483D1*
G1X1824191Y1582108D1*
G1X1824418Y1583045D1*
G1X1824418Y1583358D1*
G1X1824191Y1584295D1*
G1X1823736Y1584920D1*
G1X1823055Y1585233D1*
G1X1822827Y1585233D1*
G1X1822145Y1584920D1*
G1X1821691Y1584295D1*
G1X1821464Y1583358D1*
G1X1829873Y1586170D2*
G1X1829645Y1586795D1*
G1X1829191Y1587420D1*
G1X1828736Y1587733D1*
G1X1827827Y1587733D1*
G1X1827373Y1587420D1*
G1X1826918Y1586795D1*
G1X1826691Y1586170D1*
G1X1826464Y1585233D1*
G1X1826464Y1583670D1*
G1X1826691Y1582733D1*
G1X1826918Y1582108D1*
G1X1827373Y1581483D1*
G1X1827827Y1581170D1*
G1X1828736Y1581170D1*
G1X1829191Y1581483D1*
G1X1829645Y1582108D1*
G1X1829873Y1582733D1*
G1X1831918Y1583983D2*
G1X1836009Y1583983D1*
G1X1838055Y1586483D2*
G1X1838509Y1586795D1*
G1X1839191Y1587733D1*
G1X1839191Y1581170D1*
G1X1847600Y1585858D2*
G1X1847600Y1582108D1*
G1X1846464Y1584920D2*
G1X1848736Y1583045D1*
G1X1848736Y1584920D2*
G1X1846464Y1583045D1*
G1X1856009Y1587733D2*
G1X1856009Y1581170D1*
G1X1858736Y1581170D1*
G1X1862373Y1587733D2*
G1X1862373Y1581170D1*
G1X1860782Y1587733D2*
G1X1863964Y1587733D1*
G1X1866009Y1587733D2*
G1X1866009Y1581170D1*
G1X1866009Y1587733D2*
G1X1867827Y1581170D1*
G1X1869645Y1587733D2*
G1X1867827Y1581170D1*
G1X1869645Y1587733D2*
G1X1869645Y1581170D1*
G1X1871918Y1586170D2*
G1X1871918Y1586483D1*
G1X1872145Y1587108D1*
G1X1872373Y1587420D1*
G1X1872827Y1587733D1*
G1X1873736Y1587733D1*
G1X1874191Y1587420D1*
G1X1874418Y1587108D1*
G1X1874645Y1586483D1*
G1X1874645Y1585858D1*
G1X1874418Y1585233D1*
G1X1873964Y1584295D1*
G1X1871691Y1581170D1*
G1X1874873Y1581170D1*
G1X1878055Y1587733D2*
G1X1877373Y1587420D1*
G1X1877145Y1586795D1*
G1X1877145Y1586170D1*
G1X1877373Y1585545D1*
G1X1877827Y1585233D1*
G1X1878736Y1584920D1*
G1X1879418Y1584608D1*
G1X1879873Y1583983D1*
G1X1880100Y1583358D1*
G1X1880100Y1582420D1*
G1X1879873Y1581795D1*
G1X1879645Y1581483D1*
G1X1878964Y1581170D1*
G1X1878055Y1581170D1*
G1X1877373Y1581483D1*
G1X1877145Y1581795D1*
G1X1876918Y1582420D1*
G1X1876918Y1583358D1*
G1X1877145Y1583983D1*
G1X1877600Y1584608D1*
G1X1878282Y1584920D1*
G1X1879191Y1585233D1*
G1X1879645Y1585545D1*
G1X1879873Y1586170D1*
G1X1879873Y1586795D1*
G1X1879645Y1587420D1*
G1X1878964Y1587733D1*
G1X1878055Y1587733D1*
G1X1883282Y1587733D2*
G1X1882600Y1587420D1*
G1X1882373Y1586795D1*
G1X1882373Y1586170D1*
G1X1882600Y1585545D1*
G1X1883055Y1585233D1*
G1X1883964Y1584920D1*
G1X1884645Y1584608D1*
G1X1885100Y1583983D1*
G1X1885327Y1583358D1*
G1X1885327Y1582420D1*
G1X1885100Y1581795D1*
G1X1884873Y1581483D1*
G1X1884191Y1581170D1*
G1X1883282Y1581170D1*
G1X1882600Y1581483D1*
G1X1882373Y1581795D1*
G1X1882145Y1582420D1*
G1X1882145Y1583358D1*
G1X1882373Y1583983D1*
G1X1882827Y1584608D1*
G1X1883509Y1584920D1*
G1X1884418Y1585233D1*
G1X1884873Y1585545D1*
G1X1885100Y1586170D1*
G1X1885100Y1586795D1*
G1X1884873Y1587420D1*
G1X1884191Y1587733D1*
G1X1883282Y1587733D1*
G1X1889645Y1587733D2*
G1X1887373Y1583358D1*
G1X1890782Y1583358D1*
G1X1889645Y1587733D2*
G1X1889645Y1581170D1*
G1X1896236Y1586170D2*
G1X1896009Y1586795D1*
G1X1895555Y1587420D1*
G1X1895100Y1587733D1*
G1X1894191Y1587733D1*
G1X1893736Y1587420D1*
G1X1893282Y1586795D1*
G1X1893055Y1586170D1*
G1X1892827Y1585233D1*
G1X1892827Y1583670D1*
G1X1893055Y1582733D1*
G1X1893282Y1582108D1*
G1X1893736Y1581483D1*
G1X1894191Y1581170D1*
G1X1895100Y1581170D1*
G1X1895555Y1581483D1*
G1X1896009Y1582108D1*
G1X1896236Y1582733D1*
G1X1898282Y1587733D2*
G1X1900100Y1584608D1*
G1X1900100Y1581170D1*
G1X1901918Y1587733D2*
G1X1900100Y1584608D1*
G1X1665691Y1571863D2*
G1X1665691Y1565300D1*
G1X1664100Y1571863D2*
G1X1667282Y1571863D1*
G1X1670691Y1571863D2*
G1X1670236Y1571550D1*
G1X1669782Y1570925D1*
G1X1669555Y1570300D1*
G1X1669327Y1569363D1*
G1X1669327Y1567800D1*
G1X1669555Y1566863D1*
G1X1669782Y1566238D1*
G1X1670236Y1565613D1*
G1X1670691Y1565300D1*
G1X1671600Y1565300D1*
G1X1672055Y1565613D1*
G1X1672509Y1566238D1*
G1X1672736Y1566863D1*
G1X1672964Y1567800D1*
G1X1672964Y1569363D1*
G1X1672736Y1570300D1*
G1X1672509Y1570925D1*
G1X1672055Y1571550D1*
G1X1671600Y1571863D1*
G1X1670691Y1571863D1*
G1X1675009Y1571863D2*
G1X1675009Y1565300D1*
G1X1675009Y1571863D2*
G1X1677055Y1571863D1*
G1X1677736Y1571550D1*
G1X1677964Y1571238D1*
G1X1678191Y1570613D1*
G1X1678191Y1569675D1*
G1X1677964Y1569050D1*
G1X1677736Y1568738D1*
G1X1677055Y1568425D1*
G1X1675009Y1568425D1*
G1X1688645Y1570925D2*
G1X1688191Y1571550D1*
G1X1687509Y1571863D1*
G1X1686600Y1571863D1*
G1X1685918Y1571550D1*
G1X1685464Y1570925D1*
G1X1685464Y1570300D1*
G1X1685691Y1569675D1*
G1X1685918Y1569363D1*
G1X1686373Y1569050D1*
G1X1687736Y1568425D1*
G1X1688191Y1568113D1*
G1X1688418Y1567800D1*
G1X1688645Y1567175D1*
G1X1688645Y1566238D1*
G1X1688191Y1565613D1*
G1X1687509Y1565300D1*
G1X1686600Y1565300D1*
G1X1685918Y1565613D1*
G1X1685464Y1566238D1*
G1X1690691Y1571863D2*
G1X1690691Y1565300D1*
G1X1692736Y1571863D2*
G1X1692736Y1565300D1*
G1X1695464Y1565300D1*
G1X1697509Y1571863D2*
G1X1697509Y1565300D1*
G1X1700691Y1571863D2*
G1X1697509Y1567488D1*
G1X1698645Y1569050D2*
G1X1700691Y1565300D1*
G1X1705918Y1570925D2*
G1X1705464Y1571550D1*
G1X1704782Y1571863D1*
G1X1703873Y1571863D1*
G1X1703191Y1571550D1*
G1X1702736Y1570925D1*
G1X1702736Y1570300D1*
G1X1702964Y1569675D1*
G1X1703191Y1569363D1*
G1X1703645Y1569050D1*
G1X1705009Y1568425D1*
G1X1705464Y1568113D1*
G1X1705691Y1567800D1*
G1X1705918Y1567175D1*
G1X1705918Y1566238D1*
G1X1705464Y1565613D1*
G1X1704782Y1565300D1*
G1X1703873Y1565300D1*
G1X1703191Y1565613D1*
G1X1702736Y1566238D1*
G1X1711373Y1570300D2*
G1X1711145Y1570925D1*
G1X1710691Y1571550D1*
G1X1710236Y1571863D1*
G1X1709327Y1571863D1*
G1X1708873Y1571550D1*
G1X1708418Y1570925D1*
G1X1708191Y1570300D1*
G1X1707964Y1569363D1*
G1X1707964Y1567800D1*
G1X1708191Y1566863D1*
G1X1708418Y1566238D1*
G1X1708873Y1565613D1*
G1X1709327Y1565300D1*
G1X1710236Y1565300D1*
G1X1710691Y1565613D1*
G1X1711145Y1566238D1*
G1X1711373Y1566863D1*
G1X1713418Y1571863D2*
G1X1713418Y1565300D1*
G1X1713418Y1571863D2*
G1X1715464Y1571863D1*
G1X1716145Y1571550D1*
G1X1716373Y1571238D1*
G1X1716600Y1570613D1*
G1X1716600Y1569988D1*
G1X1716373Y1569363D1*
G1X1716145Y1569050D1*
G1X1715464Y1568738D1*
G1X1713418Y1568738D1*
G1X1715009Y1568738D2*
G1X1716600Y1565300D1*
G1X1718645Y1571863D2*
G1X1718645Y1565300D1*
G1X1718645Y1571863D2*
G1X1721600Y1571863D1*
G1X1718645Y1568738D2*
G1X1720464Y1568738D1*
G1X1718645Y1565300D2*
G1X1721600Y1565300D1*
G1X1723645Y1571863D2*
G1X1723645Y1565300D1*
G1X1723645Y1571863D2*
G1X1726600Y1571863D1*
G1X1723645Y1568738D2*
G1X1725464Y1568738D1*
G1X1723645Y1565300D2*
G1X1726600Y1565300D1*
G1X1728645Y1571863D2*
G1X1728645Y1565300D1*
G1X1728645Y1571863D2*
G1X1731827Y1565300D1*
G1X1731827Y1571863D2*
G1X1731827Y1565300D1*
G1X1795100Y1577733D2*
G1X1795100Y1571170D1*
G1X1797827Y1571170D1*
G1X1799873Y1577733D2*
G1X1799873Y1571170D1*
G1X1801918Y1577733D2*
G1X1801918Y1571170D1*
G1X1801918Y1577733D2*
G1X1805100Y1571170D1*
G1X1805100Y1577733D2*
G1X1805100Y1571170D1*
G1X1807145Y1577733D2*
G1X1807145Y1571170D1*
G1X1807145Y1577733D2*
G1X1808736Y1577733D1*
G1X1809418Y1577420D1*
G1X1809873Y1576795D1*
G1X1810100Y1576170D1*
G1X1810327Y1575233D1*
G1X1810327Y1573670D1*
G1X1810100Y1572733D1*
G1X1809873Y1572108D1*
G1X1809418Y1571483D1*
G1X1808736Y1571170D1*
G1X1807145Y1571170D1*
G1X1812373Y1577733D2*
G1X1812373Y1573045D1*
G1X1812600Y1572108D1*
G1X1813055Y1571483D1*
G1X1813736Y1571170D1*
G1X1814191Y1571170D1*
G1X1814873Y1571483D1*
G1X1815327Y1572108D1*
G1X1815555Y1573045D1*
G1X1815555Y1577733D1*
G1X1817600Y1577733D2*
G1X1817600Y1571170D1*
G1X1819645Y1577733D2*
G1X1819645Y1571170D1*
G1X1819645Y1577733D2*
G1X1822827Y1571170D1*
G1X1822827Y1577733D2*
G1X1822827Y1571170D1*
G1X1826236Y1577733D2*
G1X1825782Y1577420D1*
G1X1825327Y1576795D1*
G1X1825100Y1576170D1*
G1X1824873Y1575233D1*
G1X1824873Y1573670D1*
G1X1825100Y1572733D1*
G1X1825327Y1572108D1*
G1X1825782Y1571483D1*
G1X1826236Y1571170D1*
G1X1827145Y1571170D1*
G1X1827600Y1571483D1*
G1X1828055Y1572108D1*
G1X1828282Y1572733D1*
G1X1828509Y1573670D1*
G1X1828509Y1575233D1*
G1X1828282Y1576170D1*
G1X1828055Y1576795D1*
G1X1827600Y1577420D1*
G1X1827145Y1577733D1*
G1X1826236Y1577733D1*
G1X1837145Y1577733D2*
G1X1836691Y1577420D1*
G1X1836236Y1576795D1*
G1X1836009Y1576170D1*
G1X1835782Y1575233D1*
G1X1835782Y1573670D1*
G1X1836009Y1572733D1*
G1X1836236Y1572108D1*
G1X1836691Y1571483D1*
G1X1837145Y1571170D1*
G1X1838055Y1571170D1*
G1X1838509Y1571483D1*
G1X1838964Y1572108D1*
G1X1839191Y1572733D1*
G1X1839418Y1573670D1*
G1X1839418Y1575233D1*
G1X1839191Y1576170D1*
G1X1838964Y1576795D1*
G1X1838509Y1577420D1*
G1X1838055Y1577733D1*
G1X1837145Y1577733D1*
G1X1841464Y1577733D2*
G1X1841464Y1571170D1*
G1X1841464Y1577733D2*
G1X1844645Y1571170D1*
G1X1844645Y1577733D2*
G1X1844645Y1571170D1*
G1X1846691Y1577733D2*
G1X1846691Y1571170D1*
G1X1846691Y1577733D2*
G1X1849645Y1577733D1*
G1X1846691Y1574608D2*
G1X1848509Y1574608D1*
G1X1846691Y1571170D2*
G1X1849645Y1571170D1*
G1X1851918Y1575545D2*
G1X1851691Y1575233D1*
G1X1851918Y1574920D1*
G1X1852145Y1575233D1*
G1X1851918Y1575545D1*
G1X1851918Y1571795D2*
G1X1851691Y1571483D1*
G1X1851918Y1571170D1*
G1X1852145Y1571483D1*
G1X1851918Y1571795D1*
G1X1796918Y1557733D2*
G1X1795100Y1551170D1*
G1X1796918Y1557733D2*
G1X1798736Y1551170D1*
G1X1795782Y1553358D2*
G1X1798055Y1553358D1*
G1X1800782Y1557733D2*
G1X1800782Y1551170D1*
G1X1800782Y1557733D2*
G1X1802827Y1557733D1*
G1X1803509Y1557420D1*
G1X1803736Y1557108D1*
G1X1803964Y1556483D1*
G1X1803964Y1555858D1*
G1X1803736Y1555233D1*
G1X1803509Y1554920D1*
G1X1802827Y1554608D1*
G1X1800782Y1554608D1*
G1X1802373Y1554608D2*
G1X1803964Y1551170D1*
G1X1806009Y1557733D2*
G1X1806009Y1551170D1*
G1X1806009Y1557733D2*
G1X1807600Y1557733D1*
G1X1808282Y1557420D1*
G1X1808736Y1556795D1*
G1X1808964Y1556170D1*
G1X1809191Y1555233D1*
G1X1809191Y1553670D1*
G1X1808964Y1552733D1*
G1X1808736Y1552108D1*
G1X1808282Y1551483D1*
G1X1807600Y1551170D1*
G1X1806009Y1551170D1*
G1X1811236Y1557733D2*
G1X1811236Y1553045D1*
G1X1811464Y1552108D1*
G1X1811918Y1551483D1*
G1X1812600Y1551170D1*
G1X1813055Y1551170D1*
G1X1813736Y1551483D1*
G1X1814191Y1552108D1*
G1X1814418Y1553045D1*
G1X1814418Y1557733D1*
G1X1816464Y1557733D2*
G1X1816464Y1551170D1*
G1X1818509Y1557733D2*
G1X1818509Y1551170D1*
G1X1818509Y1557733D2*
G1X1821691Y1551170D1*
G1X1821691Y1557733D2*
G1X1821691Y1551170D1*
G1X1825100Y1557733D2*
G1X1824645Y1557420D1*
G1X1824191Y1556795D1*
G1X1823964Y1556170D1*
G1X1823736Y1555233D1*
G1X1823736Y1553670D1*
G1X1823964Y1552733D1*
G1X1824191Y1552108D1*
G1X1824645Y1551483D1*
G1X1825100Y1551170D1*
G1X1826009Y1551170D1*
G1X1826464Y1551483D1*
G1X1826918Y1552108D1*
G1X1827145Y1552733D1*
G1X1827373Y1553670D1*
G1X1827373Y1555233D1*
G1X1827145Y1556170D1*
G1X1826918Y1556795D1*
G1X1826464Y1557420D1*
G1X1826009Y1557733D1*
G1X1825100Y1557733D1*
G1X1829418Y1553983D2*
G1X1833509Y1553983D1*
G1X1838964Y1556170D2*
G1X1838736Y1556795D1*
G1X1838282Y1557420D1*
G1X1837827Y1557733D1*
G1X1836918Y1557733D1*
G1X1836464Y1557420D1*
G1X1836009Y1556795D1*
G1X1835782Y1556170D1*
G1X1835555Y1555233D1*
G1X1835555Y1553670D1*
G1X1835782Y1552733D1*
G1X1836009Y1552108D1*
G1X1836464Y1551483D1*
G1X1836918Y1551170D1*
G1X1837827Y1551170D1*
G1X1838282Y1551483D1*
G1X1838736Y1552108D1*
G1X1838964Y1552733D1*
G1X1842373Y1557733D2*
G1X1841918Y1557420D1*
G1X1841464Y1556795D1*
G1X1841236Y1556170D1*
G1X1841009Y1555233D1*
G1X1841009Y1553670D1*
G1X1841236Y1552733D1*
G1X1841464Y1552108D1*
G1X1841918Y1551483D1*
G1X1842373Y1551170D1*
G1X1843282Y1551170D1*
G1X1843736Y1551483D1*
G1X1844191Y1552108D1*
G1X1844418Y1552733D1*
G1X1844645Y1553670D1*
G1X1844645Y1555233D1*
G1X1844418Y1556170D1*
G1X1844191Y1556795D1*
G1X1843736Y1557420D1*
G1X1843282Y1557733D1*
G1X1842373Y1557733D1*
G1X1846691Y1557733D2*
G1X1846691Y1551170D1*
G1X1846691Y1557733D2*
G1X1848509Y1551170D1*
G1X1850327Y1557733D2*
G1X1848509Y1551170D1*
G1X1850327Y1557733D2*
G1X1850327Y1551170D1*
G1X1852373Y1557733D2*
G1X1852373Y1551170D1*
G1X1852373Y1557733D2*
G1X1854418Y1557733D1*
G1X1855100Y1557420D1*
G1X1855327Y1557108D1*
G1X1855555Y1556483D1*
G1X1855555Y1555545D1*
G1X1855327Y1554920D1*
G1X1855100Y1554608D1*
G1X1854418Y1554295D1*
G1X1852373Y1554295D1*
G1X1859418Y1557733D2*
G1X1857600Y1551170D1*
G1X1859418Y1557733D2*
G1X1861236Y1551170D1*
G1X1858282Y1553358D2*
G1X1860555Y1553358D1*
G1X1864873Y1557733D2*
G1X1864873Y1551170D1*
G1X1863282Y1557733D2*
G1X1866464Y1557733D1*
G1X1868509Y1557733D2*
G1X1868509Y1551170D1*
G1X1870555Y1557733D2*
G1X1870555Y1551170D1*
G1X1870555Y1557733D2*
G1X1872600Y1557733D1*
G1X1873282Y1557420D1*
G1X1873509Y1557108D1*
G1X1873736Y1556483D1*
G1X1873736Y1555858D1*
G1X1873509Y1555233D1*
G1X1873282Y1554920D1*
G1X1872600Y1554608D1*
G1X1870555Y1554608D2*
G1X1872600Y1554608D1*
G1X1873282Y1554295D1*
G1X1873509Y1553983D1*
G1X1873736Y1553358D1*
G1X1873736Y1552420D1*
G1X1873509Y1551795D1*
G1X1873282Y1551483D1*
G1X1872600Y1551170D1*
G1X1870555Y1551170D1*
G1X1875782Y1557733D2*
G1X1875782Y1551170D1*
G1X1878509Y1551170D1*
G1X1880555Y1557733D2*
G1X1880555Y1551170D1*
G1X1880555Y1557733D2*
G1X1883509Y1557733D1*
G1X1880555Y1554608D2*
G1X1882373Y1554608D1*
G1X1880555Y1551170D2*
G1X1883509Y1551170D1*
G1X1890782Y1557733D2*
G1X1890782Y1551170D1*
G1X1890782Y1557733D2*
G1X1892373Y1557733D1*
G1X1893055Y1557420D1*
G1X1893509Y1556795D1*
G1X1893736Y1556170D1*
G1X1893964Y1555233D1*
G1X1893964Y1553670D1*
G1X1893736Y1552733D1*
G1X1893509Y1552108D1*
G1X1893055Y1551483D1*
G1X1892373Y1551170D1*
G1X1890782Y1551170D1*
G1X1896009Y1557733D2*
G1X1896009Y1551170D1*
G1X1896009Y1557733D2*
G1X1898964Y1557733D1*
G1X1896009Y1554608D2*
G1X1897827Y1554608D1*
G1X1896009Y1551170D2*
G1X1898964Y1551170D1*
G1X1901009Y1557733D2*
G1X1901009Y1551170D1*
G1X1901009Y1557733D2*
G1X1902827Y1551170D1*
G1X1904645Y1557733D2*
G1X1902827Y1551170D1*
G1X1904645Y1557733D2*
G1X1904645Y1551170D1*
G1X1908055Y1557733D2*
G1X1907600Y1557420D1*
G1X1907145Y1556795D1*
G1X1906918Y1556170D1*
G1X1906691Y1555233D1*
G1X1906691Y1553670D1*
G1X1906918Y1552733D1*
G1X1907145Y1552108D1*
G1X1907600Y1551483D1*
G1X1908055Y1551170D1*
G1X1908964Y1551170D1*
G1X1909418Y1551483D1*
G1X1909873Y1552108D1*
G1X1910100Y1552733D1*
G1X1910327Y1553670D1*
G1X1910327Y1555233D1*
G1X1910100Y1556170D1*
G1X1909873Y1556795D1*
G1X1909418Y1557420D1*
G1X1908964Y1557733D1*
G1X1908055Y1557733D1*
G1X1912373Y1557733D2*
G1X1912373Y1551170D1*
G1X1912373Y1557733D2*
G1X1915555Y1551170D1*
G1X1915555Y1557733D2*
G1X1915555Y1551170D1*
G1X1920782Y1556795D2*
G1X1920327Y1557420D1*
G1X1919645Y1557733D1*
G1X1918736Y1557733D1*
G1X1918055Y1557420D1*
G1X1917600Y1556795D1*
G1X1917600Y1556170D1*
G1X1917827Y1555545D1*
G1X1918055Y1555233D1*
G1X1918509Y1554920D1*
G1X1919873Y1554295D1*
G1X1920327Y1553983D1*
G1X1920555Y1553670D1*
G1X1920782Y1553045D1*
G1X1920782Y1552108D1*
G1X1920327Y1551483D1*
G1X1919645Y1551170D1*
G1X1918736Y1551170D1*
G1X1918055Y1551483D1*
G1X1917600Y1552108D1*
G1X1924418Y1557733D2*
G1X1924418Y1551170D1*
G1X1922827Y1557733D2*
G1X1926009Y1557733D1*
G1X1928055Y1557733D2*
G1X1928055Y1551170D1*
G1X1928055Y1557733D2*
G1X1930100Y1557733D1*
G1X1930782Y1557420D1*
G1X1931009Y1557108D1*
G1X1931236Y1556483D1*
G1X1931236Y1555858D1*
G1X1931009Y1555233D1*
G1X1930782Y1554920D1*
G1X1930100Y1554608D1*
G1X1928055Y1554608D1*
G1X1929645Y1554608D2*
G1X1931236Y1551170D1*
G1X1935100Y1557733D2*
G1X1933282Y1551170D1*
G1X1935100Y1557733D2*
G1X1936918Y1551170D1*
G1X1933964Y1553358D2*
G1X1936236Y1553358D1*
G1X1940555Y1557733D2*
G1X1940555Y1551170D1*
G1X1938964Y1557733D2*
G1X1942145Y1557733D1*
G1X1944191Y1557733D2*
G1X1944191Y1551170D1*
G1X1947600Y1557733D2*
G1X1947145Y1557420D1*
G1X1946691Y1556795D1*
G1X1946464Y1556170D1*
G1X1946236Y1555233D1*
G1X1946236Y1553670D1*
G1X1946464Y1552733D1*
G1X1946691Y1552108D1*
G1X1947145Y1551483D1*
G1X1947600Y1551170D1*
G1X1948509Y1551170D1*
G1X1948964Y1551483D1*
G1X1949418Y1552108D1*
G1X1949645Y1552733D1*
G1X1949873Y1553670D1*
G1X1949873Y1555233D1*
G1X1949645Y1556170D1*
G1X1949418Y1556795D1*
G1X1948964Y1557420D1*
G1X1948509Y1557733D1*
G1X1947600Y1557733D1*
G1X1951918Y1557733D2*
G1X1951918Y1551170D1*
G1X1951918Y1557733D2*
G1X1955100Y1551170D1*
G1X1955100Y1557733D2*
G1X1955100Y1551170D1*
G1X1962373Y1557733D2*
G1X1962373Y1551170D1*
G1X1962373Y1557733D2*
G1X1964418Y1557733D1*
G1X1965100Y1557420D1*
G1X1965327Y1557108D1*
G1X1965555Y1556483D1*
G1X1965555Y1555858D1*
G1X1965327Y1555233D1*
G1X1965100Y1554920D1*
G1X1964418Y1554608D1*
G1X1962373Y1554608D2*
G1X1964418Y1554608D1*
G1X1965100Y1554295D1*
G1X1965327Y1553983D1*
G1X1965555Y1553358D1*
G1X1965555Y1552420D1*
G1X1965327Y1551795D1*
G1X1965100Y1551483D1*
G1X1964418Y1551170D1*
G1X1962373Y1551170D1*
G1X1968964Y1557733D2*
G1X1968509Y1557420D1*
G1X1968055Y1556795D1*
G1X1967827Y1556170D1*
G1X1967600Y1555233D1*
G1X1967600Y1553670D1*
G1X1967827Y1552733D1*
G1X1968055Y1552108D1*
G1X1968509Y1551483D1*
G1X1968964Y1551170D1*
G1X1969873Y1551170D1*
G1X1970327Y1551483D1*
G1X1970782Y1552108D1*
G1X1971009Y1552733D1*
G1X1971236Y1553670D1*
G1X1971236Y1555233D1*
G1X1971009Y1556170D1*
G1X1970782Y1556795D1*
G1X1970327Y1557420D1*
G1X1969873Y1557733D1*
G1X1968964Y1557733D1*
G1X1975100Y1557733D2*
G1X1973282Y1551170D1*
G1X1975100Y1557733D2*
G1X1976918Y1551170D1*
G1X1973964Y1553358D2*
G1X1976236Y1553358D1*
G1X1978964Y1557733D2*
G1X1978964Y1551170D1*
G1X1978964Y1557733D2*
G1X1981009Y1557733D1*
G1X1981691Y1557420D1*
G1X1981918Y1557108D1*
G1X1982145Y1556483D1*
G1X1982145Y1555858D1*
G1X1981918Y1555233D1*
G1X1981691Y1554920D1*
G1X1981009Y1554608D1*
G1X1978964Y1554608D1*
G1X1980555Y1554608D2*
G1X1982145Y1551170D1*
G1X1984191Y1557733D2*
G1X1984191Y1551170D1*
G1X1984191Y1557733D2*
G1X1985782Y1557733D1*
G1X1986464Y1557420D1*
G1X1986918Y1556795D1*
G1X1987145Y1556170D1*
G1X1987373Y1555233D1*
G1X1987373Y1553670D1*
G1X1987145Y1552733D1*
G1X1986918Y1552108D1*
G1X1986464Y1551483D1*
G1X1985782Y1551170D1*
G1X1984191Y1551170D1*
G1X1666100Y1601800D2*
G75*
G3X1668100Y1599800I2000J0D1*
G74*
G1X1666100Y1601800D2*
G1X1666100Y1807800D1*
G1X1668100Y1809800D2*
G75*
G3X1666100Y1807800I0J-2000D1*
G74*
G1X1668100Y1809800D2*
G1X1920100Y1809800D1*
G1X1926100Y1803800D1*
G1X1926100Y1758800D1*
G1X1936100Y1748800D1*
G1X1936100Y1619800D1*
G1X1926100Y1609800D1*
G1X1926100Y1601800D1*
G1X1924100Y1599800D2*
G75*
G3X1926100Y1601800I0J2000D1*
G74*
G1X1924100Y1599800D2*
G1X1668100Y1599800D1*
G1X1823100Y1762300D2*
G1X1823987Y1762976D1*
G1X1825085Y1768214D2*
G1X1822593Y1762638D1*
G1X1823564Y1772480D2*
G1X1824367Y1771382D1*
G1X1833406Y1775310D2*
G1X1818115Y1775310D1*
G1X1820058Y1773367D2*
G1X1820439Y1773367D1*
G1X1820946Y1773325D1*
G1X1821706Y1773156D1*
G1X1822593Y1772734D1*
G1X1823395Y1772100D1*
G1X1823776Y1771678D1*
G1X1824029Y1771297D1*
G1X1824325Y1770748D1*
G1X1824409Y1770537D1*
G1X1824536Y1770157D1*
G1X1824578Y1769988D1*
G1X1824663Y1769566D1*
G1X1824705Y1769185D1*
G1X1824705Y1768552D1*
G1X1824663Y1768172D1*
G1X1824578Y1767791D1*
G1X1824451Y1767327D1*
G1X1823776Y1765975D1*
G1X1823395Y1765173D1*
G1X1823015Y1764412D1*
G1X1822720Y1763779D1*
G1X1822170Y1762723D1*
G1X1821495Y1761286D1*
G1X1833406Y1775310D2*
G1X1832646Y1774930D1*
G1X1831843Y1774423D1*
G1X1831168Y1773958D1*
G1X1830407Y1773283D1*
G1X1829605Y1772438D1*
G1X1828971Y1771635D1*
G1X1828464Y1770875D1*
G1X1827873Y1769777D1*
G1X1827408Y1768721D1*
G1X1827155Y1767622D1*
G1X1826986Y1766904D1*
G1X1826775Y1766186D1*
G1X1826394Y1765384D1*
G1X1826183Y1764961D1*
G1X1825592Y1764117D1*
G1X1825170Y1763652D1*
G1X1824916Y1763356D1*
G1X1824494Y1762976D1*
G1X1824114Y1762638D1*
G1X1823733Y1762342D1*
G1X1823353Y1762089D1*
G1X1822762Y1761793D1*
G1X1822382Y1761582D1*
G1X1821917Y1761413D1*
G1X1821621Y1761286D1*
G1X1821537Y1761286D1*
G1X1818411Y1774803D2*
G1X1831379Y1774803D1*
G1X1830534Y1774170D1*
G1X1818158Y1774212D1*
G1X1818073Y1773874D1*
G1X1830196Y1773790D1*
G1X1829520Y1773240D1*
G1X1822720Y1773283D1*
G1X1823607Y1772734D1*
G1X1829013Y1772691D1*
G1X1828464Y1772058D1*
G1X1824198Y1772015D1*
G1X1824705Y1771297D1*
G1X1828084Y1771382D1*
G1X1827577Y1770495D1*
G1X1824958Y1770537D1*
G1X1825254Y1769608D1*
G1X1827113Y1769608D1*
G1X1826775Y1768763D1*
G1X1826141Y1766440D1*
G1X1825386Y1764370D1*
G1X1822015Y1761747D1*
G1X1823818Y1764666D1*
G1X1824705Y1766398D1*
G1X1825381Y1768087D1*
G1X1825423Y1769439D1*
G1X1826174Y1770666D1*
G1X1825930Y1768045D1*
G1X1825423Y1766398D1*
G1X1823591Y1763408D1*
G1X1818200Y1775057D2*
G1X1817566Y1773663D1*
G1X1815919Y1774972D2*
G1X1815074Y1774423D1*
G1X1815116Y1773874D2*
G1X1815919Y1774972D1*
G1X1818115Y1775352D2*
G1X1817102Y1773367D1*
G1X1820058Y1773367D1*
G1X1819298Y1761709D2*
G1X1806330Y1761709D1*
G1X1807175Y1762342D1*
G1X1819552Y1762300D1*
G1X1819636Y1762638D1*
G1X1807513Y1762723D1*
G1X1808189Y1763272D1*
G1X1814990Y1763230D1*
G1X1814103Y1763779D1*
G1X1808696Y1763821D1*
G1X1809245Y1764454D1*
G1X1813511Y1764497D1*
G1X1813004Y1765215D1*
G1X1809625Y1765130D1*
G1X1810132Y1766017D1*
G1X1812751Y1765975D1*
G1X1812455Y1766904D1*
G1X1810597Y1766904D1*
G1X1810935Y1767749D1*
G1X1811568Y1770072D1*
G1X1812339Y1771973D1*
G1X1815623Y1774732D1*
G1X1813891Y1771846D1*
G1X1813004Y1770115D1*
G1X1812329Y1768425D1*
G1X1812286Y1767073D1*
G1X1811399Y1767116D1*
G1X1811779Y1768467D1*
G1X1812286Y1770115D1*
G1X1813891Y1772649D1*
G1X1804303Y1761202D2*
G1X1805063Y1761582D1*
G1X1805866Y1762089D1*
G1X1806542Y1762554D1*
G1X1807302Y1763230D1*
G1X1808105Y1764074D1*
G1X1808738Y1764877D1*
G1X1809245Y1765637D1*
G1X1809836Y1766735D1*
G1X1810301Y1767791D1*
G1X1810554Y1768890D1*
G1X1810723Y1769608D1*
G1X1810935Y1770326D1*
G1X1811315Y1771128D1*
G1X1811526Y1771551D1*
G1X1812117Y1772396D1*
G1X1812540Y1772860D1*
G1X1812793Y1773156D1*
G1X1813216Y1773536D1*
G1X1813596Y1773874D1*
G1X1813976Y1774170D1*
G1X1814356Y1774423D1*
G1X1814947Y1774719D1*
G1X1815328Y1774930D1*
G1X1815792Y1775099D1*
G1X1816088Y1775226D1*
G1X1816172Y1775226D1*
G1X1817651Y1763145D2*
G1X1817271Y1763145D1*
G1X1816764Y1763187D1*
G1X1816003Y1763356D1*
G1X1815116Y1763779D1*
G1X1814314Y1764412D1*
G1X1813934Y1764835D1*
G1X1813680Y1765215D1*
G1X1813385Y1765764D1*
G1X1813300Y1765975D1*
G1X1813173Y1766355D1*
G1X1813131Y1766524D1*
G1X1813047Y1766947D1*
G1X1813004Y1767327D1*
G1X1813004Y1767960D1*
G1X1813047Y1768341D1*
G1X1813131Y1768721D1*
G1X1813258Y1769185D1*
G1X1813934Y1770537D1*
G1X1814314Y1771340D1*
G1X1814694Y1772100D1*
G1X1814990Y1772734D1*
G1X1815539Y1773790D1*
G1X1816215Y1775226D1*
G1X1810259Y1765595D2*
G1X1809203Y1765088D1*
G1X1809836Y1766102D2*
G1X1810386Y1766482D1*
G1X1810681Y1768341D2*
G1X1809836Y1766102D1*
G1X1804303Y1761202D2*
G1X1819594Y1761202D1*
G1X1809203Y1765088D2*
G1X1806373Y1761455D1*
G1X1815328Y1763272D2*
G1X1814145Y1764032D1*
G1X1820143Y1762849D2*
G1X1816088Y1763018D1*
G1X1815328Y1763272D1*
G1X1819594Y1761160D2*
G1X1820608Y1763145D1*
G1X1817651Y1763145D1*
G1X1819509Y1761455D2*
G1X1820143Y1762849D1*
G1X1822635Y1762089D2*
G1X1823100Y1762300D1*
G1X1821790Y1761540D2*
G1X1822635Y1762089D1*
G1X1822593Y1762638D2*
G1X1821790Y1761540D1*
G1X1810892Y1769312D2*
G1X1810681Y1768341D1*
G1X1812624Y1768298D2*
G1X1815116Y1773874D1*
G1X1814145Y1764032D2*
G1X1813342Y1765130D1*
G1X1810766Y1765595D2*
G1X1810259Y1765595D1*
G1X1812371Y1766355D2*
G1X1810766Y1765595D1*
G1X1810386Y1766482D2*
G1X1812371Y1766355D1*
G1X1812709Y1767285D2*
G1X1812624Y1768298D1*
G1X1813089Y1765679D2*
G1X1812709Y1767285D1*
G1X1813342Y1765130D2*
G1X1813089Y1765679D1*
G1X1812498Y1765384D2*
G1X1811610Y1765510D1*
G1X1813722Y1773536D2*
G1X1812371Y1772311D1*
G1X1811357Y1770537D2*
G1X1810892Y1769312D1*
G1X1812371Y1772311D2*
G1X1811357Y1770537D1*
G1X1814610Y1774212D2*
G1X1813722Y1773536D1*
G1X1815074Y1774423D2*
G1X1814610Y1774212D1*
G1X1817566Y1773663D2*
G1X1821621Y1773494D1*
G1X1822382Y1773240D2*
G1X1823564Y1772480D1*
G1X1821621Y1773494D2*
G1X1822382Y1773240D1*
G1X1828506Y1771424D2*
G1X1831337Y1775057D1*
G1X1835705Y1764429D2*
G1X1837948Y1764429D1*
G1X1823987Y1762976D2*
G1X1825338Y1764201D1*
G1X1827028Y1768172D2*
G1X1827873Y1770410D1*
G1X1825001Y1769228D2*
G1X1825085Y1768214D1*
G1X1826817Y1767200D2*
G1X1827028Y1768172D1*
G1X1826352Y1765975D2*
G1X1826817Y1767200D1*
G1X1825338Y1764201D2*
G1X1826352Y1765975D1*
G1X1826944Y1770917D2*
G1X1827450Y1770917D1*
G1X1827166Y1770602D2*
G1X1825181Y1770729D1*
G1X1825338Y1770157D2*
G1X1826944Y1770917D1*
G1X1824620Y1770833D2*
G1X1825001Y1769228D1*
G1X1824367Y1771382D2*
G1X1824620Y1770833D1*
G1X1825212Y1771128D2*
G1X1826099Y1771002D1*
G1X1827450Y1770917D2*
G1X1828506Y1771424D1*
G1X1827873Y1770410D2*
G1X1827324Y1770030D1*
G1X1843986Y1763653D2*
G75*
G3X1841765Y1763653I-1110J-376D1*
G74*
G1X1840018Y1762833D2*
G1X1838746Y1762833D1*
G1X1847329Y1762833D2*
G1X1845108Y1762833D1*
G1X1838746Y1764429D2*
G1X1840816Y1764429D1*
G1X1831590Y1774930D2*
G1X1832012Y1775014D1*
G1X1831674Y1774761D2*
G1X1831590Y1774930D1*
G1X1832604Y1775099D2*
G1X1831674Y1774761D1*
G1X1831337Y1775057D2*
G1X1832604Y1775099D1*
G1X1864689Y1764429D2*
G1X1865961Y1762833D1*
G1X1854338Y1763653D2*
G75*
G3X1852116Y1763653I-1111J-378D1*
G1X1864042Y1763653D2*
G3X1861821Y1763653I-1111J-378D1*
G1X1860549Y1763653D2*
G3X1858327Y1763653I-1111J-376D1*
G74*
G1X1865961Y1762833D2*
G1X1867234Y1764429D1*
G1X1838746Y1761087D2*
G1X1838746Y1764429D1*
G1X1845108Y1764429D2*
G1X1845108Y1761087D1*
G1X1847329Y1761087D2*
G1X1847329Y1764429D1*
G1X1848601Y1761087D2*
G1X1848601Y1764429D1*
G1X1850844Y1761087D1*
G1X1850844Y1764429D1*
G1X1840816Y1761087D2*
G1X1838746Y1761087D1*
G1X1841765Y1763653D2*
G75*
G3X1841765Y1761885I2188J-884D1*
G3X1843986Y1761885I1111J376D1*
G74*
G1X1855610Y1764429D2*
G1X1855610Y1761087D1*
G1X1858327Y1763653D2*
G75*
G3X1858327Y1761885I2188J-884D1*
G1X1854338Y1761885D2*
G3X1854338Y1763653I-2178J884D1*
G1X1852115Y1763651D2*
G3X1852117Y1761883I2184J-882D1*
G1X1852116Y1761885D2*
G3X1854338Y1761885I1111J378D1*
G74*
G1X1855610Y1761087D2*
G1X1857529Y1761087D1*
G1X1861821Y1763653D2*
G75*
G3X1861821Y1761885I2188J-884D1*
G1X1858327Y1761885D2*
G3X1860549Y1761885I1111J376D1*
G3X1860549Y1763653I-2177J884D1*
G74*
G1X1863244Y1762359D2*
G1X1864042Y1762359D1*
G1X1861821Y1761885D2*
G75*
G3X1864042Y1761885I1111J378D1*
G74*
G1X1864042Y1762359D2*
G1X1864042Y1761885D1*
G1X1865961Y1762833D2*
G1X1865961Y1761087D1*
G1X1836827Y1764429D2*
G1X1836827Y1761087D1*
G1X1743100Y1679300D2*
G54D12*
G1X1738100Y1679300D1*
G1X1913600Y1765800D2*
G1X1908600Y1765800D1*
G1X1914100Y1740800D2*
G1X1909100Y1740800D1*
G1X1905100Y1713800D2*
G1X1900100Y1713800D1*
G1X1791230Y1745091D2*
G1X1794970Y1745091D1*
G1X1794970Y1756509D1*
G1X1791230Y1756509D1*
G1X1791230Y1745091D1*
G1X1801100Y1736300D2*
G1X1801100Y1741300D1*
G1X1681515Y1677060D2*
G75*
G3X1681515Y1677060I-884J0D1*
G74*
G1X1699454Y1686800D2*
G1X1699454Y1708800D1*
G1X1718746Y1708800D1*
G1X1718746Y1686800D1*
G1X1699454Y1686800D1*
G1X1711100Y1658300D2*
G1X1708100Y1658300D1*
G1X1703600Y1662800D1*
G1X1703600Y1682300D1*
G1X1711100Y1682300D1*
G1X1720100Y1658300D2*
G1X1723100Y1658300D1*
G1X1727600Y1662800D1*
G1X1727600Y1682300D1*
G1X1720100Y1682300D1*
G1X1710498Y1655599D2*
G75*
G3X1710498Y1655599I-1197J0D1*
G74*
G1X1762150Y1695300D2*
G1X1786100Y1695300D1*
G1X1786100Y1703300D1*
G1X1762100Y1703300D1*
G1X1762100Y1695350D1*
G1X1931600Y1724800D2*
G54D14*
G1X1931600Y1694800D1*
G1X1911600Y1694800D1*
G1X1911600Y1724800D1*
G1X1931600Y1724800D1*
G1X1836335Y1774915D2*
G54D40*
G1X1836335Y1766544D1*
G1X1839714Y1766544D1*
G1X1841909Y1774915D2*
G1X1841909Y1766544D1*
G1X1844013Y1774915D2*
G1X1844013Y1766544D1*
G1X1848122Y1774915D2*
G1X1848122Y1766544D1*
G1X1844052Y1774685D2*
G1X1844321Y1774685D1*
G1X1844666Y1774646D1*
G1X1845165Y1774531D1*
G1X1845626Y1774416D1*
G1X1846049Y1774262D1*
G1X1846509Y1774032D1*
G1X1846855Y1773801D1*
G1X1847124Y1773609D1*
G1X1847431Y1773302D1*
G1X1847661Y1773033D1*
G1X1847969Y1772688D1*
G1X1850829Y1770038D2*
G1X1850829Y1769539D1*
G1X1850867Y1769193D1*
G1X1850983Y1768694D1*
G1X1851175Y1768310D1*
G1X1851443Y1767926D1*
G1X1851712Y1767581D1*
G1X1852058Y1767273D1*
G1X1852557Y1766966D1*
G1X1853095Y1766774D1*
G1X1853555Y1766697D1*
G1X1854055Y1766621D1*
G1X1855763Y1766621D1*
G1X1850176Y1772193D2*
G1X1854323Y1772193D1*
G1X1850829Y1774877D2*
G1X1850829Y1770192D1*
G1X1850829Y1774953D2*
G1X1854362Y1774953D1*
G1X1861216Y1766621D2*
G1X1858548Y1774915D1*
G1X1858374Y1774915D1*
G1X1855360Y1766621D1*
G1X1862572Y1774915D2*
G1X1862572Y1766544D1*
G1X1866950Y1766544D2*
G1X1866527Y1766582D1*
G1X1865529Y1766813D1*
G1X1865030Y1767005D1*
G1X1864070Y1767581D1*
G1X1863571Y1767965D1*
G1X1863148Y1768425D1*
G1X1856685Y1772153D2*
G1X1858989Y1772153D1*
G1X1863110Y1774915D2*
G1X1863494Y1774915D1*
G1X1863724Y1774877D1*
G1X1864531Y1774608D1*
G1X1864799Y1774493D1*
G1X1865145Y1774185D1*
G1X1865491Y1773801D1*
G1X1865798Y1773417D1*
G1X1866028Y1773110D1*
G1X1866220Y1772688D1*
G1X1866297Y1772342D1*
G1X1866374Y1771651D1*
G1X1866374Y1771459D1*
G1X1866335Y1771305D1*
G1X1866259Y1770845D1*
G1X1865951Y1770153D1*
G1X1865644Y1769693D1*
G1X1865145Y1769193D1*
G1X1864607Y1768771D1*
G1X1864300Y1768617D1*
G1X1863647Y1768502D1*
G1X1863071Y1768502D1*
G1X1863071Y1768464D1*
G1X1825895Y1664005D2*
G54D161*
G1X1850305Y1664005D1*
G1X1850305Y1639595D1*
G1X1825895Y1639595D1*
G1X1825895Y1664005D1*
G1X1880230Y1734591D2*
G1X1883970Y1734591D1*
G1X1883970Y1746009D1*
G1X1880230Y1746009D1*
G1X1880230Y1734591D1*
G1X1874830Y1708891D2*
G1X1878570Y1708891D1*
G1X1878570Y1720309D1*
G1X1874830Y1720309D1*
G1X1874830Y1708891D1*
G1X1890230Y1760091D2*
G1X1893970Y1760091D1*
G1X1893970Y1771509D1*
G1X1890230Y1771509D1*
G1X1890230Y1760091D1*
G1X1731291Y1698570D2*
G1X1731291Y1694830D1*
G1X1742709Y1694830D1*
G1X1742709Y1698570D1*
G1X1731291Y1698570D1*
G1X1803419Y1634091D2*
G1X1805781Y1634091D1*
G1X1805781Y1645509D1*
G1X1803419Y1645509D1*
G1X1803419Y1634091D1*
G1X1765342Y1644121D2*
G1X1783058Y1644121D1*
G1X1783058Y1684279D1*
G1X1775775Y1684279D1*
G1X1775775Y1681523D1*
G1X1772625Y1681523D1*
G1X1772625Y1684279D1*
G1X1765342Y1684279D1*
G1X1765342Y1644121D1*
G1X1736500Y1615954D2*
G1X1736500Y1622646D1*
G1X1729700Y1615954D2*
G1X1729700Y1622646D1*
G1X1745500Y1615954D2*
G1X1745500Y1622646D1*
G1X1738700Y1615954D2*
G1X1738700Y1622646D1*
G1X1755500Y1615954D2*
G1X1755500Y1622646D1*
G1X1748700Y1615954D2*
G1X1748700Y1622646D1*
G1X1765500Y1615954D2*
G1X1765500Y1622646D1*
G1X1758700Y1615954D2*
G1X1758700Y1622646D1*
G1X1719950Y1698465D2*
G1X1719950Y1694135D1*
G1X1728250Y1698465D2*
G1X1728250Y1694135D1*
G1X1700750Y1667135D2*
G1X1700750Y1671465D1*
G1X1692450Y1667135D2*
G1X1692450Y1671465D1*
G1X1678600Y1690812D2*
G1X1694600Y1690812D1*
G1X1694600Y1679788D1*
G1X1678600Y1679788D1*
G1X1678600Y1684300D1*
G1X1679600Y1684300D1*
G1X1679600Y1686300D1*
G1X1678600Y1686300D1*
G1X1678600Y1690812D1*
G1X1881600Y1752800D2*
G54D163*
G1X1881600Y1748800D1*
G1X1892100Y1778800D2*
G1X1892100Y1774800D1*
G1X1906100Y1765800D2*
G1X1902100Y1765800D1*
G1X1750200Y1704200D2*
G1X1750200Y1700200D1*
G1X1838100Y1629800D2*
G1X1838100Y1625800D1*
G1X1826100Y1625800D2*
G1X1826100Y1629800D1*
G1X1896600Y1740800D2*
G1X1892600Y1740800D1*
G1X1794600Y1663800D2*
G1X1798600Y1663800D1*
G1X1754600Y1686300D2*
G1X1750600Y1686300D1*
G1X1845100Y1679800D2*
G1X1845100Y1675800D1*
G1X1798600Y1651300D2*
G1X1794600Y1651300D1*
G1X1793100Y1774800D2*
G1X1793100Y1778800D1*
G1X1795100Y1725200D2*
G1X1795100Y1729200D1*
G1X1875700Y1726900D2*
G1X1875700Y1722900D1*
G1X1904600Y1740800D2*
G1X1900600Y1740800D1*
G1X1875100Y1644300D2*
G1X1875100Y1640300D1*
G1X1801600Y1677800D2*
G1X1805600Y1677800D1*
G1X1754600Y1674800D2*
G1X1750600Y1674800D1*
G1X1774000Y1635500D2*
G1X1774000Y1631500D1*
G1X1774000Y1641500D2*
G1X1774000Y1637500D1*
G1X1795100Y1730100D2*
G1X1795100Y1734100D1*
G1X1779100Y1743800D2*
G1X1779100Y1747800D1*
G1X1919600Y1671670D2*
G1X1919600Y1675670D1*
G1X1919600Y1663670D2*
G1X1919600Y1667670D1*
G1X1919600Y1641670D2*
G1X1919600Y1645670D1*
G1X1904600Y1728800D2*
G1X1900600Y1728800D1*
G1X1691200Y1701450D2*
G1X1691200Y1698950D1*
G1X1675073Y1700966D2*
G1X1672573Y1700966D1*
G1X1671257Y1700966D2*
G1X1668757Y1700966D1*
G1X1674400Y1681800D2*
G1X1676900Y1681800D1*
G1X1676800Y1688800D2*
G1X1674300Y1688800D1*
G1X1686100Y1665500D2*
G1X1686100Y1663000D1*
G1X1685300Y1669800D2*
G1X1682800Y1669800D1*
G1X1830600Y1681100D2*
G1X1834600Y1681100D1*
G1X1919600Y1648170D2*
G1X1919600Y1652170D1*
G1X1866900Y1723400D2*
G1X1862900Y1723400D1*
G1X1891200Y1713700D2*
G1X1887200Y1713700D1*
G1X1865100Y1708300D2*
G1X1861100Y1708300D1*
G1X1824600Y1681300D2*
G1X1828600Y1681300D1*
G1X1815600Y1631300D2*
G1X1819600Y1631300D1*
G1X1875100Y1651300D2*
G1X1875100Y1647300D1*
G1X1919600Y1655670D2*
G1X1919600Y1659670D1*
G1X1875100Y1660800D2*
G1X1875100Y1656800D1*
G1X1846827Y1628956D2*
G1X1846691Y1629331D1*
G1X1846418Y1629706D1*
G1X1846145Y1629894D1*
G1X1845600Y1629894D1*
G1X1845327Y1629706D1*
G1X1845055Y1629331D1*
G1X1844918Y1628956D1*
G1X1844782Y1628394D1*
G1X1844782Y1627456D1*
G1X1844918Y1626894D1*
G1X1845055Y1626519D1*
G1X1845327Y1626144D1*
G1X1845600Y1625956D1*
G1X1846145Y1625956D1*
G1X1846418Y1626144D1*
G1X1846691Y1626519D1*
G1X1846827Y1626894D1*
G1X1848055Y1629144D2*
G1X1848327Y1629331D1*
G1X1848736Y1629894D1*
G1X1848736Y1625956D1*
G1X1850645Y1629894D2*
G1X1850236Y1629706D1*
G1X1850100Y1629331D1*
G1X1850100Y1628956D1*
G1X1850236Y1628581D1*
G1X1850509Y1628394D1*
G1X1851055Y1628206D1*
G1X1851464Y1628019D1*
G1X1851736Y1627644D1*
G1X1851873Y1627269D1*
G1X1851873Y1626706D1*
G1X1851736Y1626331D1*
G1X1851600Y1626144D1*
G1X1851191Y1625956D1*
G1X1850645Y1625956D1*
G1X1850236Y1626144D1*
G1X1850100Y1626331D1*
G1X1849964Y1626706D1*
G1X1849964Y1627269D1*
G1X1850100Y1627644D1*
G1X1850373Y1628019D1*
G1X1850782Y1628206D1*
G1X1851327Y1628394D1*
G1X1851600Y1628581D1*
G1X1851736Y1628956D1*
G1X1851736Y1629331D1*
G1X1851600Y1629706D1*
G1X1851191Y1629894D1*
G1X1850645Y1629894D1*
G1X1821594Y1632795D2*
G1X1821219Y1632659D1*
G1X1820844Y1632386D1*
G1X1820656Y1632114D1*
G1X1820656Y1631568D1*
G1X1820844Y1631295D1*
G1X1821219Y1631023D1*
G1X1821594Y1630886D1*
G1X1822156Y1630750D1*
G1X1823094Y1630750D1*
G1X1823656Y1630886D1*
G1X1824031Y1631023D1*
G1X1824406Y1631295D1*
G1X1824594Y1631568D1*
G1X1824594Y1632114D1*
G1X1824406Y1632386D1*
G1X1824031Y1632659D1*
G1X1823656Y1632795D1*
G1X1821406Y1634023D2*
G1X1821219Y1634295D1*
G1X1820656Y1634705D1*
G1X1824594Y1634705D1*
G1X1821969Y1637705D2*
G1X1822531Y1637568D1*
G1X1822906Y1637295D1*
G1X1823094Y1636886D1*
G1X1823094Y1636750D1*
G1X1822906Y1636341D1*
G1X1822531Y1636068D1*
G1X1821969Y1635932D1*
G1X1821781Y1635932D1*
G1X1821219Y1636068D1*
G1X1820844Y1636341D1*
G1X1820656Y1636750D1*
G1X1820656Y1636886D1*
G1X1820844Y1637295D1*
G1X1821219Y1637568D1*
G1X1821969Y1637705D1*
G1X1822906Y1637705D1*
G1X1823844Y1637568D1*
G1X1824406Y1637295D1*
G1X1824594Y1636886D1*
G1X1824594Y1636614D1*
G1X1824406Y1636205D1*
G1X1824031Y1636068D1*
G1X1861400Y1644394D2*
G1X1861400Y1640456D1*
G1X1861400Y1644394D2*
G1X1862627Y1644394D1*
G1X1863036Y1644206D1*
G1X1863173Y1644019D1*
G1X1863309Y1643644D1*
G1X1863309Y1643269D1*
G1X1863173Y1642894D1*
G1X1863036Y1642706D1*
G1X1862627Y1642519D1*
G1X1861400Y1642519D1*
G1X1862355Y1642519D2*
G1X1863309Y1640456D1*
G1X1864536Y1643644D2*
G1X1864809Y1643831D1*
G1X1865218Y1644394D1*
G1X1865218Y1640456D1*
G1X1867264Y1644394D2*
G1X1866855Y1644206D1*
G1X1866582Y1643644D1*
G1X1866445Y1642706D1*
G1X1866445Y1642144D1*
G1X1866582Y1641206D1*
G1X1866855Y1640644D1*
G1X1867264Y1640456D1*
G1X1867536Y1640456D1*
G1X1867945Y1640644D1*
G1X1868218Y1641206D1*
G1X1868355Y1642144D1*
G1X1868355Y1642706D1*
G1X1868218Y1643644D1*
G1X1867945Y1644206D1*
G1X1867536Y1644394D1*
G1X1867264Y1644394D1*
G1X1926723Y1675764D2*
G1X1926723Y1671826D1*
G1X1926723Y1675764D2*
G1X1927950Y1675764D1*
G1X1928359Y1675576D1*
G1X1928495Y1675389D1*
G1X1928632Y1675014D1*
G1X1928632Y1674639D1*
G1X1928495Y1674264D1*
G1X1928359Y1674076D1*
G1X1927950Y1673889D1*
G1X1926723Y1673889D1*
G1X1927677Y1673889D2*
G1X1928632Y1671826D1*
G1X1931495Y1675201D2*
G1X1931359Y1675576D1*
G1X1930950Y1675764D1*
G1X1930677Y1675764D1*
G1X1930268Y1675576D1*
G1X1929995Y1675014D1*
G1X1929859Y1674076D1*
G1X1929859Y1673139D1*
G1X1929995Y1672389D1*
G1X1930268Y1672014D1*
G1X1930677Y1671826D1*
G1X1930814Y1671826D1*
G1X1931223Y1672014D1*
G1X1931495Y1672389D1*
G1X1931632Y1672951D1*
G1X1931632Y1673139D1*
G1X1931495Y1673701D1*
G1X1931223Y1674076D1*
G1X1930814Y1674264D1*
G1X1930677Y1674264D1*
G1X1930268Y1674076D1*
G1X1929995Y1673701D1*
G1X1929859Y1673139D1*
G1X1926655Y1667764D2*
G1X1926655Y1663826D1*
G1X1926655Y1667764D2*
G1X1927882Y1667764D1*
G1X1928291Y1667576D1*
G1X1928427Y1667389D1*
G1X1928564Y1667014D1*
G1X1928564Y1666639D1*
G1X1928427Y1666264D1*
G1X1928291Y1666076D1*
G1X1927882Y1665889D1*
G1X1926655Y1665889D1*
G1X1927609Y1665889D2*
G1X1928564Y1663826D1*
G1X1931700Y1667764D2*
G1X1930336Y1663826D1*
G1X1929791Y1667764D2*
G1X1931700Y1667764D1*
G1X1926723Y1645764D2*
G1X1926723Y1641826D1*
G1X1926723Y1645764D2*
G1X1927950Y1645764D1*
G1X1928359Y1645576D1*
G1X1928495Y1645389D1*
G1X1928632Y1645014D1*
G1X1928632Y1644639D1*
G1X1928495Y1644264D1*
G1X1928359Y1644076D1*
G1X1927950Y1643889D1*
G1X1926723Y1643889D1*
G1X1927677Y1643889D2*
G1X1928632Y1641826D1*
G1X1931632Y1644451D2*
G1X1931495Y1643889D1*
G1X1931223Y1643514D1*
G1X1930814Y1643326D1*
G1X1930677Y1643326D1*
G1X1930268Y1643514D1*
G1X1929995Y1643889D1*
G1X1929859Y1644451D1*
G1X1929859Y1644639D1*
G1X1929995Y1645201D1*
G1X1930268Y1645576D1*
G1X1930677Y1645764D1*
G1X1930814Y1645764D1*
G1X1931223Y1645576D1*
G1X1931495Y1645201D1*
G1X1931632Y1644451D1*
G1X1931632Y1643514D1*
G1X1931495Y1642576D1*
G1X1931223Y1642014D1*
G1X1930814Y1641826D1*
G1X1930541Y1641826D1*
G1X1930132Y1642014D1*
G1X1929995Y1642389D1*
G1X1925500Y1652264D2*
G1X1925500Y1648326D1*
G1X1925500Y1652264D2*
G1X1926727Y1652264D1*
G1X1927136Y1652076D1*
G1X1927273Y1651889D1*
G1X1927409Y1651514D1*
G1X1927409Y1651139D1*
G1X1927273Y1650764D1*
G1X1927136Y1650576D1*
G1X1926727Y1650389D1*
G1X1925500Y1650389D1*
G1X1926455Y1650389D2*
G1X1927409Y1648326D1*
G1X1930000Y1652264D2*
G1X1928636Y1649639D1*
G1X1930682Y1649639D1*
G1X1930000Y1652264D2*
G1X1930000Y1648326D1*
G1X1933682Y1652264D2*
G1X1932318Y1652264D1*
G1X1932182Y1650576D1*
G1X1932318Y1650764D1*
G1X1932727Y1650951D1*
G1X1933136Y1650951D1*
G1X1933545Y1650764D1*
G1X1933818Y1650389D1*
G1X1933955Y1649826D1*
G1X1933818Y1649451D1*
G1X1933682Y1648889D1*
G1X1933409Y1648514D1*
G1X1933000Y1648326D1*
G1X1932591Y1648326D1*
G1X1932182Y1648514D1*
G1X1932045Y1648701D1*
G1X1931909Y1649076D1*
G1X1811006Y1629795D2*
G1X1814944Y1629795D1*
G1X1811006Y1629795D2*
G1X1811006Y1631023D1*
G1X1811194Y1631432D1*
G1X1811381Y1631568D1*
G1X1811756Y1631704D1*
G1X1812131Y1631704D1*
G1X1812506Y1631568D1*
G1X1812694Y1631432D1*
G1X1812881Y1631023D1*
G1X1812881Y1629795D1*
G1X1812881Y1630750D2*
G1X1814944Y1631704D1*
G1X1811006Y1634704D2*
G1X1811006Y1633341D1*
G1X1812694Y1633204D1*
G1X1812506Y1633341D1*
G1X1812319Y1633750D1*
G1X1812319Y1634159D1*
G1X1812506Y1634568D1*
G1X1812881Y1634841D1*
G1X1813444Y1634977D1*
G1X1813819Y1634841D1*
G1X1814381Y1634704D1*
G1X1814756Y1634432D1*
G1X1814944Y1634023D1*
G1X1814944Y1633613D1*
G1X1814756Y1633204D1*
G1X1814569Y1633068D1*
G1X1814194Y1632932D1*
G1X1811006Y1637568D2*
G1X1813631Y1636204D1*
G1X1813631Y1638250D1*
G1X1811006Y1637568D2*
G1X1814944Y1637568D1*
G1X1860095Y1651394D2*
G1X1860095Y1647456D1*
G1X1860095Y1651394D2*
G1X1861323Y1651394D1*
G1X1861732Y1651206D1*
G1X1861868Y1651019D1*
G1X1862004Y1650644D1*
G1X1862004Y1650269D1*
G1X1861868Y1649894D1*
G1X1861732Y1649706D1*
G1X1861323Y1649519D1*
G1X1860095Y1649519D1*
G1X1861050Y1649519D2*
G1X1862004Y1647456D1*
G1X1865004Y1651394D2*
G1X1863641Y1651394D1*
G1X1863504Y1649706D1*
G1X1863641Y1649894D1*
G1X1864050Y1650081D1*
G1X1864459Y1650081D1*
G1X1864868Y1649894D1*
G1X1865141Y1649519D1*
G1X1865277Y1648956D1*
G1X1865141Y1648581D1*
G1X1865004Y1648019D1*
G1X1864732Y1647644D1*
G1X1864323Y1647456D1*
G1X1863913Y1647456D1*
G1X1863504Y1647644D1*
G1X1863368Y1647831D1*
G1X1863232Y1648206D1*
G1X1868277Y1651394D2*
G1X1866913Y1651394D1*
G1X1866777Y1649706D1*
G1X1866913Y1649894D1*
G1X1867323Y1650081D1*
G1X1867732Y1650081D1*
G1X1868141Y1649894D1*
G1X1868413Y1649519D1*
G1X1868550Y1648956D1*
G1X1868413Y1648581D1*
G1X1868277Y1648019D1*
G1X1868004Y1647644D1*
G1X1867595Y1647456D1*
G1X1867186Y1647456D1*
G1X1866777Y1647644D1*
G1X1866641Y1647831D1*
G1X1866504Y1648206D1*
G1X1925641Y1659764D2*
G1X1925641Y1655826D1*
G1X1925641Y1659764D2*
G1X1926868Y1659764D1*
G1X1927277Y1659576D1*
G1X1927414Y1659389D1*
G1X1927550Y1659014D1*
G1X1927550Y1658639D1*
G1X1927414Y1658264D1*
G1X1927277Y1658076D1*
G1X1926868Y1657889D1*
G1X1925641Y1657889D1*
G1X1926596Y1657889D2*
G1X1927550Y1655826D1*
G1X1930550Y1659764D2*
G1X1929187Y1659764D1*
G1X1929050Y1658076D1*
G1X1929187Y1658264D1*
G1X1929596Y1658451D1*
G1X1930005Y1658451D1*
G1X1930414Y1658264D1*
G1X1930687Y1657889D1*
G1X1930823Y1657326D1*
G1X1930687Y1656951D1*
G1X1930550Y1656389D1*
G1X1930277Y1656014D1*
G1X1929868Y1655826D1*
G1X1929459Y1655826D1*
G1X1929050Y1656014D1*
G1X1928914Y1656201D1*
G1X1928777Y1656576D1*
G1X1933687Y1659201D2*
G1X1933550Y1659576D1*
G1X1933141Y1659764D1*
G1X1932868Y1659764D1*
G1X1932459Y1659576D1*
G1X1932187Y1659014D1*
G1X1932050Y1658076D1*
G1X1932050Y1657139D1*
G1X1932187Y1656389D1*
G1X1932459Y1656014D1*
G1X1932868Y1655826D1*
G1X1933005Y1655826D1*
G1X1933414Y1656014D1*
G1X1933687Y1656389D1*
G1X1933823Y1656951D1*
G1X1933823Y1657139D1*
G1X1933687Y1657701D1*
G1X1933414Y1658076D1*
G1X1933005Y1658264D1*
G1X1932868Y1658264D1*
G1X1932459Y1658076D1*
G1X1932187Y1657701D1*
G1X1932050Y1657139D1*
G1X1860168Y1660894D2*
G1X1860168Y1656956D1*
G1X1860168Y1660894D2*
G1X1861395Y1660894D1*
G1X1861805Y1660706D1*
G1X1861941Y1660519D1*
G1X1862077Y1660144D1*
G1X1862077Y1659769D1*
G1X1861941Y1659394D1*
G1X1861805Y1659206D1*
G1X1861395Y1659019D1*
G1X1860168Y1659019D1*
G1X1861123Y1659019D2*
G1X1862077Y1656956D1*
G1X1865077Y1660894D2*
G1X1863714Y1660894D1*
G1X1863577Y1659206D1*
G1X1863714Y1659394D1*
G1X1864123Y1659581D1*
G1X1864532Y1659581D1*
G1X1864941Y1659394D1*
G1X1865214Y1659019D1*
G1X1865350Y1658456D1*
G1X1865214Y1658081D1*
G1X1865077Y1657519D1*
G1X1864805Y1657144D1*
G1X1864395Y1656956D1*
G1X1863986Y1656956D1*
G1X1863577Y1657144D1*
G1X1863441Y1657331D1*
G1X1863305Y1657706D1*
G1X1868486Y1660894D2*
G1X1867123Y1656956D1*
G1X1866577Y1660894D2*
G1X1868486Y1660894D1*
G1X1852372Y1670698D2*
G75*
G54D164*
G3X1852372Y1670698I-492J0D1*
G1X1876096Y1747190D2*
G3X1876096Y1747190I-492J0D1*
G1X1870696Y1721490D2*
G3X1870696Y1721490I-492J0D1*
G1X1886096Y1772690D2*
G3X1886096Y1772690I-492J0D1*
G1X1744382Y1703196D2*
G3X1744382Y1703196I-492J0D1*
G1X1784096Y1754690D2*
G3X1784096Y1754690I-492J0D1*
G1X1801549Y1646493D2*
G3X1801549Y1646493I-492J0D1*
G1X1758354Y1683688D2*
G3X1758354Y1683688I-493J0D1*
G1X1729518Y1613285D2*
G3X1729518Y1613285I-492J0D1*
G1X1738518Y1613285D2*
G3X1738518Y1613285I-492J0D1*
G1X1748518Y1613285D2*
G3X1748518Y1613285I-492J0D1*
G1X1758518Y1613285D2*
G3X1758518Y1613285I-492J0D1*
G74*
G1X1881361Y1757566D2*
G54D165*
G1X1881202Y1758003D1*
G1X1880884Y1758441D1*
G1X1880566Y1758659D1*
G1X1879930Y1758659D1*
G1X1879611Y1758441D1*
G1X1879293Y1758003D1*
G1X1879134Y1757566D1*
G1X1878975Y1756909D1*
G1X1878975Y1755816D1*
G1X1879134Y1755159D1*
G1X1879293Y1754722D1*
G1X1879611Y1754284D1*
G1X1879930Y1754066D1*
G1X1880566Y1754066D1*
G1X1880884Y1754284D1*
G1X1881202Y1754722D1*
G1X1881361Y1755159D1*
G1X1882793Y1757784D2*
G1X1883111Y1758003D1*
G1X1883589Y1758659D1*
G1X1883589Y1754066D1*
G1X1879792Y1777916D2*
G1X1879633Y1778353D1*
G1X1879315Y1778791D1*
G1X1878996Y1779009D1*
G1X1878360Y1779009D1*
G1X1878042Y1778791D1*
G1X1877724Y1778353D1*
G1X1877565Y1777916D1*
G1X1877405Y1777259D1*
G1X1877405Y1776166D1*
G1X1877565Y1775509D1*
G1X1877724Y1775072D1*
G1X1878042Y1774634D1*
G1X1878360Y1774416D1*
G1X1878996Y1774416D1*
G1X1879315Y1774634D1*
G1X1879633Y1775072D1*
G1X1879792Y1775509D1*
G1X1881224Y1778134D2*
G1X1881542Y1778353D1*
G1X1882019Y1779009D1*
G1X1882019Y1774416D1*
G1X1883769Y1779009D2*
G1X1885519Y1779009D1*
G1X1884565Y1777259D1*
G1X1885042Y1777259D1*
G1X1885360Y1777041D1*
G1X1885519Y1776822D1*
G1X1885678Y1776166D1*
G1X1885678Y1775728D1*
G1X1885519Y1775072D1*
G1X1885201Y1774634D1*
G1X1884724Y1774416D1*
G1X1884246Y1774416D1*
G1X1883769Y1774634D1*
G1X1883610Y1774853D1*
G1X1883451Y1775291D1*
G1X1900602Y1758216D2*
G1X1900443Y1758653D1*
G1X1900125Y1759091D1*
G1X1899807Y1759309D1*
G1X1899170Y1759309D1*
G1X1898852Y1759091D1*
G1X1898534Y1758653D1*
G1X1898375Y1758216D1*
G1X1898216Y1757559D1*
G1X1898216Y1756466D1*
G1X1898375Y1755809D1*
G1X1898534Y1755372D1*
G1X1898852Y1754934D1*
G1X1899170Y1754716D1*
G1X1899807Y1754716D1*
G1X1900125Y1754934D1*
G1X1900443Y1755372D1*
G1X1900602Y1755809D1*
G1X1902034Y1758434D2*
G1X1902352Y1758653D1*
G1X1902830Y1759309D1*
G1X1902830Y1754716D1*
G1X1905852Y1759309D2*
G1X1904261Y1756247D1*
G1X1906648Y1756247D1*
G1X1905852Y1759309D2*
G1X1905852Y1754716D1*
G1X1748732Y1697566D2*
G1X1748573Y1698003D1*
G1X1748255Y1698441D1*
G1X1747936Y1698659D1*
G1X1747300Y1698659D1*
G1X1746982Y1698441D1*
G1X1746664Y1698003D1*
G1X1746505Y1697566D1*
G1X1746345Y1696909D1*
G1X1746345Y1695816D1*
G1X1746505Y1695159D1*
G1X1746664Y1694722D1*
G1X1746982Y1694284D1*
G1X1747300Y1694066D1*
G1X1747936Y1694066D1*
G1X1748255Y1694284D1*
G1X1748573Y1694722D1*
G1X1748732Y1695159D1*
G1X1750164Y1697784D2*
G1X1750482Y1698003D1*
G1X1750959Y1698659D1*
G1X1750959Y1694066D1*
G1X1754618Y1698659D2*
G1X1753027Y1694066D1*
G1X1752391Y1698659D2*
G1X1754618Y1698659D1*
G1X1892834Y1749145D2*
G1X1892397Y1748986D1*
G1X1891959Y1748668D1*
G1X1891741Y1748350D1*
G1X1891741Y1747714D1*
G1X1891959Y1747395D1*
G1X1892397Y1747077D1*
G1X1892834Y1746918D1*
G1X1893491Y1746759D1*
G1X1894584Y1746759D1*
G1X1895241Y1746918D1*
G1X1895678Y1747077D1*
G1X1896116Y1747395D1*
G1X1896334Y1747714D1*
G1X1896334Y1748350D1*
G1X1896116Y1748668D1*
G1X1895678Y1748986D1*
G1X1895241Y1749145D1*
G1X1892834Y1750736D2*
G1X1892616Y1750736D1*
G1X1892178Y1750895D1*
G1X1891959Y1751055D1*
G1X1891741Y1751373D1*
G1X1891741Y1752009D1*
G1X1891959Y1752327D1*
G1X1892178Y1752486D1*
G1X1892616Y1752645D1*
G1X1893053Y1752645D1*
G1X1893491Y1752486D1*
G1X1894147Y1752168D1*
G1X1896334Y1750577D1*
G1X1896334Y1752805D1*
G1X1802466Y1664816D2*
G1X1802307Y1665253D1*
G1X1801989Y1665691D1*
G1X1801670Y1665909D1*
G1X1801034Y1665909D1*
G1X1800716Y1665691D1*
G1X1800398Y1665253D1*
G1X1800239Y1664816D1*
G1X1800080Y1664159D1*
G1X1800080Y1663066D1*
G1X1800239Y1662409D1*
G1X1800398Y1661972D1*
G1X1800716Y1661534D1*
G1X1801034Y1661316D1*
G1X1801670Y1661316D1*
G1X1801989Y1661534D1*
G1X1802307Y1661972D1*
G1X1802466Y1662409D1*
G1X1804057Y1664816D2*
G1X1804057Y1665034D1*
G1X1804216Y1665472D1*
G1X1804375Y1665691D1*
G1X1804693Y1665909D1*
G1X1805330Y1665909D1*
G1X1805648Y1665691D1*
G1X1805807Y1665472D1*
G1X1805966Y1665034D1*
G1X1805966Y1664597D1*
G1X1805807Y1664159D1*
G1X1805489Y1663503D1*
G1X1803898Y1661316D1*
G1X1806125Y1661316D1*
G1X1808511Y1665909D2*
G1X1808034Y1665691D1*
G1X1807716Y1665034D1*
G1X1807557Y1663941D1*
G1X1807557Y1663284D1*
G1X1807716Y1662191D1*
G1X1808034Y1661534D1*
G1X1808511Y1661316D1*
G1X1808830Y1661316D1*
G1X1809307Y1661534D1*
G1X1809625Y1662191D1*
G1X1809784Y1663284D1*
G1X1809784Y1663941D1*
G1X1809625Y1665034D1*
G1X1809307Y1665691D1*
G1X1808830Y1665909D1*
G1X1808511Y1665909D1*
G1X1745834Y1684032D2*
G1X1745397Y1683873D1*
G1X1744959Y1683555D1*
G1X1744741Y1683236D1*
G1X1744741Y1682600D1*
G1X1744959Y1682282D1*
G1X1745397Y1681964D1*
G1X1745834Y1681805D1*
G1X1746491Y1681645D1*
G1X1747584Y1681645D1*
G1X1748241Y1681805D1*
G1X1748678Y1681964D1*
G1X1749116Y1682282D1*
G1X1749334Y1682600D1*
G1X1749334Y1683236D1*
G1X1749116Y1683555D1*
G1X1748678Y1683873D1*
G1X1748241Y1684032D1*
G1X1745834Y1685623D2*
G1X1745616Y1685623D1*
G1X1745178Y1685782D1*
G1X1744959Y1685941D1*
G1X1744741Y1686259D1*
G1X1744741Y1686895D1*
G1X1744959Y1687214D1*
G1X1745178Y1687373D1*
G1X1745616Y1687532D1*
G1X1746053Y1687532D1*
G1X1746491Y1687373D1*
G1X1747147Y1687055D1*
G1X1749334Y1685464D1*
G1X1749334Y1687691D1*
G1X1745616Y1689123D2*
G1X1745397Y1689441D1*
G1X1744741Y1689918D1*
G1X1749334Y1689918D1*
G1X1842316Y1684566D2*
G1X1842157Y1685003D1*
G1X1841839Y1685441D1*
G1X1841520Y1685659D1*
G1X1840884Y1685659D1*
G1X1840566Y1685441D1*
G1X1840248Y1685003D1*
G1X1840089Y1684566D1*
G1X1839930Y1683909D1*
G1X1839930Y1682816D1*
G1X1840089Y1682159D1*
G1X1840248Y1681722D1*
G1X1840566Y1681284D1*
G1X1840884Y1681066D1*
G1X1841520Y1681066D1*
G1X1841839Y1681284D1*
G1X1842157Y1681722D1*
G1X1842316Y1682159D1*
G1X1843907Y1684566D2*
G1X1843907Y1684784D1*
G1X1844066Y1685222D1*
G1X1844225Y1685441D1*
G1X1844543Y1685659D1*
G1X1845180Y1685659D1*
G1X1845498Y1685441D1*
G1X1845657Y1685222D1*
G1X1845816Y1684784D1*
G1X1845816Y1684347D1*
G1X1845657Y1683909D1*
G1X1845339Y1683253D1*
G1X1843748Y1681066D1*
G1X1845975Y1681066D1*
G1X1847566Y1684566D2*
G1X1847566Y1684784D1*
G1X1847725Y1685222D1*
G1X1847884Y1685441D1*
G1X1848202Y1685659D1*
G1X1848839Y1685659D1*
G1X1849157Y1685441D1*
G1X1849316Y1685222D1*
G1X1849475Y1684784D1*
G1X1849475Y1684347D1*
G1X1849316Y1683909D1*
G1X1848998Y1683253D1*
G1X1847407Y1681066D1*
G1X1849634Y1681066D1*
G1X1802466Y1652216D2*
G1X1802307Y1652653D1*
G1X1801989Y1653091D1*
G1X1801670Y1653309D1*
G1X1801034Y1653309D1*
G1X1800716Y1653091D1*
G1X1800398Y1652653D1*
G1X1800239Y1652216D1*
G1X1800080Y1651559D1*
G1X1800080Y1650466D1*
G1X1800239Y1649809D1*
G1X1800398Y1649372D1*
G1X1800716Y1648934D1*
G1X1801034Y1648716D1*
G1X1801670Y1648716D1*
G1X1801989Y1648934D1*
G1X1802307Y1649372D1*
G1X1802466Y1649809D1*
G1X1804057Y1652216D2*
G1X1804057Y1652434D1*
G1X1804216Y1652872D1*
G1X1804375Y1653091D1*
G1X1804693Y1653309D1*
G1X1805330Y1653309D1*
G1X1805648Y1653091D1*
G1X1805807Y1652872D1*
G1X1805966Y1652434D1*
G1X1805966Y1651997D1*
G1X1805807Y1651559D1*
G1X1805489Y1650903D1*
G1X1803898Y1648716D1*
G1X1806125Y1648716D1*
G1X1807875Y1653309D2*
G1X1809625Y1653309D1*
G1X1808670Y1651559D1*
G1X1809148Y1651559D1*
G1X1809466Y1651341D1*
G1X1809625Y1651122D1*
G1X1809784Y1650466D1*
G1X1809784Y1650028D1*
G1X1809625Y1649372D1*
G1X1809307Y1648934D1*
G1X1808830Y1648716D1*
G1X1808352Y1648716D1*
G1X1807875Y1648934D1*
G1X1807716Y1649153D1*
G1X1807557Y1649591D1*
G1X1802866Y1778066D2*
G1X1802707Y1778503D1*
G1X1802389Y1778941D1*
G1X1802070Y1779159D1*
G1X1801434Y1779159D1*
G1X1801116Y1778941D1*
G1X1800798Y1778503D1*
G1X1800639Y1778066D1*
G1X1800480Y1777409D1*
G1X1800480Y1776316D1*
G1X1800639Y1775659D1*
G1X1800798Y1775222D1*
G1X1801116Y1774784D1*
G1X1801434Y1774566D1*
G1X1802070Y1774566D1*
G1X1802389Y1774784D1*
G1X1802707Y1775222D1*
G1X1802866Y1775659D1*
G1X1805889Y1779159D2*
G1X1804298Y1776097D1*
G1X1806684Y1776097D1*
G1X1805889Y1779159D2*
G1X1805889Y1774566D1*
G1X1783866Y1727566D2*
G1X1783707Y1728003D1*
G1X1783389Y1728441D1*
G1X1783070Y1728659D1*
G1X1782434Y1728659D1*
G1X1782116Y1728441D1*
G1X1781798Y1728003D1*
G1X1781639Y1727566D1*
G1X1781480Y1726909D1*
G1X1781480Y1725816D1*
G1X1781639Y1725159D1*
G1X1781798Y1724722D1*
G1X1782116Y1724284D1*
G1X1782434Y1724066D1*
G1X1783070Y1724066D1*
G1X1783389Y1724284D1*
G1X1783707Y1724722D1*
G1X1783866Y1725159D1*
G1X1787366Y1728659D2*
G1X1785775Y1728659D1*
G1X1785616Y1726691D1*
G1X1785775Y1726909D1*
G1X1786252Y1727128D1*
G1X1786730Y1727128D1*
G1X1787207Y1726909D1*
G1X1787525Y1726472D1*
G1X1787684Y1725816D1*
G1X1787525Y1725378D1*
G1X1787366Y1724722D1*
G1X1787048Y1724284D1*
G1X1786570Y1724066D1*
G1X1786093Y1724066D1*
G1X1785616Y1724284D1*
G1X1785457Y1724503D1*
G1X1785298Y1724941D1*
G1X1873605Y1731496D2*
G1X1873446Y1731933D1*
G1X1873128Y1732371D1*
G1X1872810Y1732589D1*
G1X1872174Y1732589D1*
G1X1871855Y1732371D1*
G1X1871537Y1731933D1*
G1X1871378Y1731496D1*
G1X1871219Y1730839D1*
G1X1871219Y1729746D1*
G1X1871378Y1729089D1*
G1X1871537Y1728652D1*
G1X1871855Y1728214D1*
G1X1872174Y1727996D1*
G1X1872810Y1727996D1*
G1X1873128Y1728214D1*
G1X1873446Y1728652D1*
G1X1873605Y1729089D1*
G1X1877265Y1732589D2*
G1X1875674Y1727996D1*
G1X1875037Y1732589D2*
G1X1877265Y1732589D1*
G1X1730682Y1685716D2*
G1X1730523Y1686153D1*
G1X1730205Y1686591D1*
G1X1729886Y1686809D1*
G1X1729250Y1686809D1*
G1X1728932Y1686591D1*
G1X1728614Y1686153D1*
G1X1728455Y1685716D1*
G1X1728295Y1685059D1*
G1X1728295Y1683966D1*
G1X1728455Y1683309D1*
G1X1728614Y1682872D1*
G1X1728932Y1682434D1*
G1X1729250Y1682216D1*
G1X1729886Y1682216D1*
G1X1730205Y1682434D1*
G1X1730523Y1682872D1*
G1X1730682Y1683309D1*
G1X1732114Y1685934D2*
G1X1732432Y1686153D1*
G1X1732909Y1686809D1*
G1X1732909Y1682216D1*
G1X1734500Y1685716D2*
G1X1734500Y1685934D1*
G1X1734659Y1686372D1*
G1X1734818Y1686591D1*
G1X1735136Y1686809D1*
G1X1735773Y1686809D1*
G1X1736091Y1686591D1*
G1X1736250Y1686372D1*
G1X1736409Y1685934D1*
G1X1736409Y1685497D1*
G1X1736250Y1685059D1*
G1X1735932Y1684403D1*
G1X1734341Y1682216D1*
G1X1736568Y1682216D1*
G1X1917602Y1766216D2*
G1X1917443Y1766653D1*
G1X1917125Y1767091D1*
G1X1916807Y1767309D1*
G1X1916170Y1767309D1*
G1X1915852Y1767091D1*
G1X1915534Y1766653D1*
G1X1915375Y1766216D1*
G1X1915216Y1765559D1*
G1X1915216Y1764466D1*
G1X1915375Y1763809D1*
G1X1915534Y1763372D1*
G1X1915852Y1762934D1*
G1X1916170Y1762716D1*
G1X1916807Y1762716D1*
G1X1917125Y1762934D1*
G1X1917443Y1763372D1*
G1X1917602Y1763809D1*
G1X1919034Y1766434D2*
G1X1919352Y1766653D1*
G1X1919830Y1767309D1*
G1X1919830Y1762716D1*
G1X1923330Y1767309D2*
G1X1921739Y1767309D1*
G1X1921580Y1765341D1*
G1X1921739Y1765559D1*
G1X1922216Y1765778D1*
G1X1922693Y1765778D1*
G1X1923170Y1765559D1*
G1X1923489Y1765122D1*
G1X1923648Y1764466D1*
G1X1923489Y1764028D1*
G1X1923330Y1763372D1*
G1X1923011Y1762934D1*
G1X1922534Y1762716D1*
G1X1922057Y1762716D1*
G1X1921580Y1762934D1*
G1X1921420Y1763153D1*
G1X1921261Y1763591D1*
G1X1910704Y1750155D2*
G1X1910267Y1749996D1*
G1X1909829Y1749678D1*
G1X1909611Y1749360D1*
G1X1909611Y1748724D1*
G1X1909829Y1748405D1*
G1X1910267Y1748087D1*
G1X1910704Y1747928D1*
G1X1911361Y1747769D1*
G1X1912454Y1747769D1*
G1X1913111Y1747928D1*
G1X1913548Y1748087D1*
G1X1913986Y1748405D1*
G1X1914204Y1748724D1*
G1X1914204Y1749360D1*
G1X1913986Y1749678D1*
G1X1913548Y1749996D1*
G1X1913111Y1750155D1*
G1X1909611Y1751905D2*
G1X1909611Y1753655D1*
G1X1911361Y1752701D1*
G1X1911361Y1753178D1*
G1X1911579Y1753496D1*
G1X1911798Y1753655D1*
G1X1912454Y1753815D1*
G1X1912892Y1753815D1*
G1X1913548Y1753655D1*
G1X1913986Y1753337D1*
G1X1914204Y1752860D1*
G1X1914204Y1752383D1*
G1X1913986Y1751905D1*
G1X1913767Y1751746D1*
G1X1913329Y1751587D1*
G1X1895014Y1712305D2*
G1X1894577Y1712146D1*
G1X1894139Y1711828D1*
G1X1893921Y1711510D1*
G1X1893921Y1710873D1*
G1X1894139Y1710555D1*
G1X1894577Y1710237D1*
G1X1895014Y1710078D1*
G1X1895671Y1709919D1*
G1X1896764Y1709919D1*
G1X1897421Y1710078D1*
G1X1897858Y1710237D1*
G1X1898296Y1710555D1*
G1X1898514Y1710873D1*
G1X1898514Y1711510D1*
G1X1898296Y1711828D1*
G1X1897858Y1712146D1*
G1X1897421Y1712305D1*
G1X1895452Y1715805D2*
G1X1896108Y1715646D1*
G1X1896546Y1715328D1*
G1X1896764Y1714850D1*
G1X1896764Y1714691D1*
G1X1896546Y1714214D1*
G1X1896108Y1713896D1*
G1X1895452Y1713737D1*
G1X1895233Y1713737D1*
G1X1894577Y1713896D1*
G1X1894139Y1714214D1*
G1X1893921Y1714691D1*
G1X1893921Y1714850D1*
G1X1894139Y1715328D1*
G1X1894577Y1715646D1*
G1X1895452Y1715805D1*
G1X1896546Y1715805D1*
G1X1897639Y1715646D1*
G1X1898296Y1715328D1*
G1X1898514Y1714850D1*
G1X1898514Y1714532D1*
G1X1898296Y1714055D1*
G1X1897858Y1713896D1*
G1X1777600Y1767894D2*
G1X1777600Y1763300D1*
G1X1779509Y1763300D1*
G1X1781100Y1766800D2*
G1X1781100Y1767019D1*
G1X1781259Y1767456D1*
G1X1781418Y1767675D1*
G1X1781736Y1767894D1*
G1X1782373Y1767894D1*
G1X1782691Y1767675D1*
G1X1782850Y1767456D1*
G1X1783009Y1767019D1*
G1X1783009Y1766581D1*
G1X1782850Y1766144D1*
G1X1782532Y1765488D1*
G1X1780941Y1763300D1*
G1X1783168Y1763300D1*
G1X1900741Y1747555D2*
G1X1905334Y1747555D1*
G1X1900741Y1747555D2*
G1X1900741Y1748986D1*
G1X1900959Y1749464D1*
G1X1901178Y1749623D1*
G1X1901616Y1749782D1*
G1X1902053Y1749782D1*
G1X1902491Y1749623D1*
G1X1902709Y1749464D1*
G1X1902928Y1748986D1*
G1X1902928Y1747555D1*
G1X1902928Y1748668D2*
G1X1905334Y1749782D1*
G1X1901616Y1751214D2*
G1X1901397Y1751532D1*
G1X1900741Y1752009D1*
G1X1905334Y1752009D1*
G1X1795741Y1673505D2*
G1X1800334Y1673505D1*
G1X1795741Y1673505D2*
G1X1795741Y1674936D1*
G1X1795959Y1675414D1*
G1X1796178Y1675573D1*
G1X1796616Y1675732D1*
G1X1797053Y1675732D1*
G1X1797491Y1675573D1*
G1X1797709Y1675414D1*
G1X1797928Y1674936D1*
G1X1797928Y1673505D1*
G1X1797928Y1674618D2*
G1X1800334Y1675732D1*
G1X1796616Y1677164D2*
G1X1796397Y1677482D1*
G1X1795741Y1677959D1*
G1X1800334Y1677959D1*
G1X1796397Y1681300D2*
G1X1795959Y1681141D1*
G1X1795741Y1680664D1*
G1X1795741Y1680345D1*
G1X1795959Y1679868D1*
G1X1796616Y1679550D1*
G1X1797709Y1679391D1*
G1X1798803Y1679391D1*
G1X1799678Y1679550D1*
G1X1800116Y1679868D1*
G1X1800334Y1680345D1*
G1X1800334Y1680505D1*
G1X1800116Y1680982D1*
G1X1799678Y1681300D1*
G1X1799022Y1681459D1*
G1X1798803Y1681459D1*
G1X1798147Y1681300D1*
G1X1797709Y1680982D1*
G1X1797491Y1680505D1*
G1X1797491Y1680345D1*
G1X1797709Y1679868D1*
G1X1798147Y1679550D1*
G1X1798803Y1679391D1*
G1X1744741Y1670225D2*
G1X1749334Y1670225D1*
G1X1744741Y1670225D2*
G1X1744741Y1671657D1*
G1X1744959Y1672134D1*
G1X1745178Y1672293D1*
G1X1745616Y1672452D1*
G1X1746053Y1672452D1*
G1X1746491Y1672293D1*
G1X1746709Y1672134D1*
G1X1746928Y1671657D1*
G1X1746928Y1670225D1*
G1X1746928Y1671339D2*
G1X1749334Y1672452D1*
G1X1745834Y1674043D2*
G1X1745616Y1674043D1*
G1X1745178Y1674202D1*
G1X1744959Y1674361D1*
G1X1744741Y1674680D1*
G1X1744741Y1675316D1*
G1X1744959Y1675634D1*
G1X1745178Y1675793D1*
G1X1745616Y1675952D1*
G1X1746053Y1675952D1*
G1X1746491Y1675793D1*
G1X1747147Y1675475D1*
G1X1749334Y1673884D1*
G1X1749334Y1676111D1*
G1X1745616Y1677543D2*
G1X1745397Y1677861D1*
G1X1744741Y1678339D1*
G1X1749334Y1678339D1*
G1X1782109Y1636159D2*
G1X1782109Y1631566D1*
G1X1782109Y1636159D2*
G1X1783541Y1636159D1*
G1X1784018Y1635941D1*
G1X1784177Y1635722D1*
G1X1784336Y1635284D1*
G1X1784336Y1634847D1*
G1X1784177Y1634409D1*
G1X1784018Y1634191D1*
G1X1783541Y1633972D1*
G1X1782109Y1633972D1*
G1X1783223Y1633972D2*
G1X1784336Y1631566D1*
G1X1785927Y1635066D2*
G1X1785927Y1635284D1*
G1X1786086Y1635722D1*
G1X1786245Y1635941D1*
G1X1786564Y1636159D1*
G1X1787200Y1636159D1*
G1X1787518Y1635941D1*
G1X1787677Y1635722D1*
G1X1787836Y1635284D1*
G1X1787836Y1634847D1*
G1X1787677Y1634409D1*
G1X1787359Y1633753D1*
G1X1785768Y1631566D1*
G1X1787995Y1631566D1*
G1X1789745Y1636159D2*
G1X1791495Y1636159D1*
G1X1790541Y1634409D1*
G1X1791018Y1634409D1*
G1X1791336Y1634191D1*
G1X1791495Y1633972D1*
G1X1791655Y1633316D1*
G1X1791655Y1632878D1*
G1X1791495Y1632222D1*
G1X1791177Y1631784D1*
G1X1790700Y1631566D1*
G1X1790223Y1631566D1*
G1X1789745Y1631784D1*
G1X1789586Y1632003D1*
G1X1789427Y1632441D1*
G1X1782030Y1642359D2*
G1X1782030Y1637766D1*
G1X1782030Y1642359D2*
G1X1783461Y1642359D1*
G1X1783939Y1642141D1*
G1X1784098Y1641922D1*
G1X1784257Y1641484D1*
G1X1784257Y1641047D1*
G1X1784098Y1640609D1*
G1X1783939Y1640391D1*
G1X1783461Y1640172D1*
G1X1782030Y1640172D1*
G1X1783143Y1640172D2*
G1X1784257Y1637766D1*
G1X1785848Y1641266D2*
G1X1785848Y1641484D1*
G1X1786007Y1641922D1*
G1X1786166Y1642141D1*
G1X1786484Y1642359D1*
G1X1787120Y1642359D1*
G1X1787439Y1642141D1*
G1X1787598Y1641922D1*
G1X1787757Y1641484D1*
G1X1787757Y1641047D1*
G1X1787598Y1640609D1*
G1X1787280Y1639953D1*
G1X1785689Y1637766D1*
G1X1787916Y1637766D1*
G1X1790939Y1642359D2*
G1X1789348Y1639297D1*
G1X1791734Y1639297D1*
G1X1790939Y1642359D2*
G1X1790939Y1637766D1*
G1X1781139Y1734659D2*
G1X1781139Y1730066D1*
G1X1781139Y1734659D2*
G1X1782570Y1734659D1*
G1X1783048Y1734441D1*
G1X1783207Y1734222D1*
G1X1783366Y1733784D1*
G1X1783366Y1733347D1*
G1X1783207Y1732909D1*
G1X1783048Y1732691D1*
G1X1782570Y1732472D1*
G1X1781139Y1732472D1*
G1X1782252Y1732472D2*
G1X1783366Y1730066D1*
G1X1785116Y1734659D2*
G1X1786866Y1734659D1*
G1X1785911Y1732909D1*
G1X1786389Y1732909D1*
G1X1786707Y1732691D1*
G1X1786866Y1732472D1*
G1X1787025Y1731816D1*
G1X1787025Y1731378D1*
G1X1786866Y1730722D1*
G1X1786548Y1730284D1*
G1X1786070Y1730066D1*
G1X1785593Y1730066D1*
G1X1785116Y1730284D1*
G1X1784957Y1730503D1*
G1X1784798Y1730941D1*
G1X1776059Y1742659D2*
G1X1776059Y1738066D1*
G1X1776059Y1742659D2*
G1X1777491Y1742659D1*
G1X1777968Y1742441D1*
G1X1778127Y1742222D1*
G1X1778286Y1741784D1*
G1X1778286Y1741347D1*
G1X1778127Y1740909D1*
G1X1777968Y1740691D1*
G1X1777491Y1740472D1*
G1X1776059Y1740472D1*
G1X1777173Y1740472D2*
G1X1778286Y1738066D1*
G1X1781786Y1742659D2*
G1X1780195Y1742659D1*
G1X1780036Y1740691D1*
G1X1780195Y1740909D1*
G1X1780673Y1741128D1*
G1X1781150Y1741128D1*
G1X1781627Y1740909D1*
G1X1781945Y1740472D1*
G1X1782105Y1739816D1*
G1X1781945Y1739378D1*
G1X1781786Y1738722D1*
G1X1781468Y1738284D1*
G1X1780991Y1738066D1*
G1X1780514Y1738066D1*
G1X1780036Y1738284D1*
G1X1779877Y1738503D1*
G1X1779718Y1738941D1*
G1X1809600Y1693394D2*
G1X1810873Y1691206D1*
G1X1810873Y1688800D1*
G1X1812145Y1693394D2*
G1X1810873Y1691206D1*
G1X1813577Y1692519D2*
G1X1813895Y1692738D1*
G1X1814373Y1693394D1*
G1X1814373Y1688800D1*
G1X1900231Y1705564D2*
G1X1900231Y1702064D1*
G1X1900072Y1701408D1*
G1X1899913Y1701189D1*
G1X1899595Y1700970D1*
G1X1899276Y1700970D1*
G1X1898958Y1701189D1*
G1X1898799Y1701408D1*
G1X1898640Y1702064D1*
G1X1898640Y1702501D1*
G1X1901663Y1705564D2*
G1X1901663Y1700970D1*
G1X1901663Y1705564D2*
G1X1903095Y1705564D1*
G1X1903572Y1705345D1*
G1X1903731Y1705126D1*
G1X1903890Y1704689D1*
G1X1903890Y1704033D1*
G1X1903731Y1703595D1*
G1X1903572Y1703376D1*
G1X1903095Y1703158D1*
G1X1901663Y1703158D1*
G1X1905322Y1704689D2*
G1X1905640Y1704908D1*
G1X1906117Y1705564D1*
G1X1906117Y1700970D1*
G1X1810350Y1647159D2*
G1X1810032Y1646941D1*
G1X1809714Y1646503D1*
G1X1809555Y1646066D1*
G1X1809395Y1645409D1*
G1X1809395Y1644316D1*
G1X1809555Y1643659D1*
G1X1809714Y1643222D1*
G1X1810032Y1642784D1*
G1X1810350Y1642566D1*
G1X1810986Y1642566D1*
G1X1811305Y1642784D1*
G1X1811623Y1643222D1*
G1X1811782Y1643659D1*
G1X1811941Y1644316D1*
G1X1811941Y1645409D1*
G1X1811782Y1646066D1*
G1X1811623Y1646503D1*
G1X1811305Y1646941D1*
G1X1810986Y1647159D1*
G1X1810350Y1647159D1*
G1X1810827Y1643441D2*
G1X1811782Y1642128D1*
G1X1813373Y1646284D2*
G1X1813691Y1646503D1*
G1X1814168Y1647159D1*
G1X1814168Y1642566D1*
G1X1906241Y1725759D2*
G1X1910834Y1725759D1*
G1X1906241Y1725759D2*
G1X1906241Y1727191D1*
G1X1906459Y1727668D1*
G1X1906678Y1727827D1*
G1X1907116Y1727986D1*
G1X1907553Y1727986D1*
G1X1907991Y1727827D1*
G1X1908209Y1727668D1*
G1X1908428Y1727191D1*
G1X1908428Y1725759D1*
G1X1908428Y1726873D2*
G1X1910834Y1727986D1*
G1X1906241Y1731009D2*
G1X1909303Y1729418D1*
G1X1909303Y1731805D1*
G1X1906241Y1731009D2*
G1X1910834Y1731009D1*
G1X1789525Y1740566D2*
G1X1789366Y1741003D1*
G1X1789048Y1741441D1*
G1X1788730Y1741659D1*
G1X1788093Y1741659D1*
G1X1787775Y1741441D1*
G1X1787457Y1741003D1*
G1X1787298Y1740566D1*
G1X1787139Y1739909D1*
G1X1787139Y1738816D1*
G1X1787298Y1738159D1*
G1X1787457Y1737722D1*
G1X1787775Y1737284D1*
G1X1788093Y1737066D1*
G1X1788730Y1737066D1*
G1X1789048Y1737284D1*
G1X1789366Y1737722D1*
G1X1789525Y1738159D1*
G1X1792866Y1741003D2*
G1X1792707Y1741441D1*
G1X1792230Y1741659D1*
G1X1791911Y1741659D1*
G1X1791434Y1741441D1*
G1X1791116Y1740784D1*
G1X1790957Y1739691D1*
G1X1790957Y1738597D1*
G1X1791116Y1737722D1*
G1X1791434Y1737284D1*
G1X1791911Y1737066D1*
G1X1792070Y1737066D1*
G1X1792548Y1737284D1*
G1X1792866Y1737722D1*
G1X1793025Y1738378D1*
G1X1793025Y1738597D1*
G1X1792866Y1739253D1*
G1X1792548Y1739691D1*
G1X1792070Y1739909D1*
G1X1791911Y1739909D1*
G1X1791434Y1739691D1*
G1X1791116Y1739253D1*
G1X1790957Y1738597D1*
G1X1730741Y1627539D2*
G1X1735334Y1627539D1*
G1X1730741Y1627539D2*
G1X1730741Y1628652D1*
G1X1730959Y1629130D1*
G1X1731397Y1629448D1*
G1X1731834Y1629607D1*
G1X1732491Y1629766D1*
G1X1733584Y1629766D1*
G1X1734241Y1629607D1*
G1X1734678Y1629448D1*
G1X1735116Y1629130D1*
G1X1735334Y1628652D1*
G1X1735334Y1627539D1*
G1X1731834Y1631357D2*
G1X1731616Y1631357D1*
G1X1731178Y1631516D1*
G1X1730959Y1631675D1*
G1X1730741Y1631993D1*
G1X1730741Y1632630D1*
G1X1730959Y1632948D1*
G1X1731178Y1633107D1*
G1X1731616Y1633266D1*
G1X1732053Y1633266D1*
G1X1732491Y1633107D1*
G1X1733147Y1632789D1*
G1X1735334Y1631198D1*
G1X1735334Y1633425D1*
G1X1739741Y1627755D2*
G1X1744334Y1627755D1*
G1X1739741Y1627755D2*
G1X1739741Y1628868D1*
G1X1739959Y1629345D1*
G1X1740397Y1629664D1*
G1X1740834Y1629823D1*
G1X1741491Y1629982D1*
G1X1742584Y1629982D1*
G1X1743241Y1629823D1*
G1X1743678Y1629664D1*
G1X1744116Y1629345D1*
G1X1744334Y1628868D1*
G1X1744334Y1627755D1*
G1X1740616Y1631414D2*
G1X1740397Y1631732D1*
G1X1739741Y1632209D1*
G1X1744334Y1632209D1*
G1X1749741Y1627459D2*
G1X1754334Y1627459D1*
G1X1749741Y1627459D2*
G1X1749741Y1628573D1*
G1X1749959Y1629050D1*
G1X1750397Y1629368D1*
G1X1750834Y1629527D1*
G1X1751491Y1629686D1*
G1X1752584Y1629686D1*
G1X1753241Y1629527D1*
G1X1753678Y1629368D1*
G1X1754116Y1629050D1*
G1X1754334Y1628573D1*
G1X1754334Y1627459D1*
G1X1749741Y1632709D2*
G1X1752803Y1631118D1*
G1X1752803Y1633505D1*
G1X1749741Y1632709D2*
G1X1754334Y1632709D1*
G1X1759741Y1627459D2*
G1X1764334Y1627459D1*
G1X1759741Y1627459D2*
G1X1759741Y1628573D1*
G1X1759959Y1629050D1*
G1X1760397Y1629368D1*
G1X1760834Y1629527D1*
G1X1761491Y1629686D1*
G1X1762584Y1629686D1*
G1X1763241Y1629527D1*
G1X1763678Y1629368D1*
G1X1764116Y1629050D1*
G1X1764334Y1628573D1*
G1X1764334Y1627459D1*
G1X1759741Y1633186D2*
G1X1759741Y1631595D1*
G1X1761709Y1631436D1*
G1X1761491Y1631595D1*
G1X1761272Y1632073D1*
G1X1761272Y1632550D1*
G1X1761491Y1633027D1*
G1X1761928Y1633345D1*
G1X1762584Y1633505D1*
G1X1763022Y1633345D1*
G1X1763678Y1633186D1*
G1X1764116Y1632868D1*
G1X1764334Y1632391D1*
G1X1764334Y1631914D1*
G1X1764116Y1631436D1*
G1X1763897Y1631277D1*
G1X1763459Y1631118D1*
G1X1690916Y1706066D2*
G1X1690757Y1706503D1*
G1X1690439Y1706941D1*
G1X1690120Y1707159D1*
G1X1689484Y1707159D1*
G1X1689166Y1706941D1*
G1X1688848Y1706503D1*
G1X1688689Y1706066D1*
G1X1688530Y1705409D1*
G1X1688530Y1704316D1*
G1X1688689Y1703659D1*
G1X1688848Y1703222D1*
G1X1689166Y1702784D1*
G1X1689484Y1702566D1*
G1X1690120Y1702566D1*
G1X1690439Y1702784D1*
G1X1690757Y1703222D1*
G1X1690916Y1703659D1*
G1X1692507Y1706066D2*
G1X1692507Y1706284D1*
G1X1692666Y1706722D1*
G1X1692825Y1706941D1*
G1X1693143Y1707159D1*
G1X1693780Y1707159D1*
G1X1694098Y1706941D1*
G1X1694257Y1706722D1*
G1X1694416Y1706284D1*
G1X1694416Y1705847D1*
G1X1694257Y1705409D1*
G1X1693939Y1704753D1*
G1X1692348Y1702566D1*
G1X1694575Y1702566D1*
G1X1698234Y1707159D2*
G1X1696643Y1702566D1*
G1X1696007Y1707159D2*
G1X1698234Y1707159D1*
G1X1675834Y1709832D2*
G1X1675397Y1709673D1*
G1X1674959Y1709355D1*
G1X1674741Y1709036D1*
G1X1674741Y1708400D1*
G1X1674959Y1708082D1*
G1X1675397Y1707764D1*
G1X1675834Y1707605D1*
G1X1676491Y1707445D1*
G1X1677584Y1707445D1*
G1X1678241Y1707605D1*
G1X1678678Y1707764D1*
G1X1679116Y1708082D1*
G1X1679334Y1708400D1*
G1X1679334Y1709036D1*
G1X1679116Y1709355D1*
G1X1678678Y1709673D1*
G1X1678241Y1709832D1*
G1X1675616Y1711264D2*
G1X1675397Y1711582D1*
G1X1674741Y1712059D1*
G1X1679334Y1712059D1*
G1X1674741Y1714445D2*
G1X1674959Y1713968D1*
G1X1675616Y1713650D1*
G1X1676709Y1713491D1*
G1X1677366Y1713491D1*
G1X1678459Y1713650D1*
G1X1679116Y1713968D1*
G1X1679334Y1714445D1*
G1X1679334Y1714764D1*
G1X1679116Y1715241D1*
G1X1678459Y1715559D1*
G1X1677366Y1715718D1*
G1X1676709Y1715718D1*
G1X1675616Y1715559D1*
G1X1674959Y1715241D1*
G1X1674741Y1714764D1*
G1X1674741Y1714445D1*
G1X1724198Y1709516D2*
G1X1724039Y1709953D1*
G1X1723720Y1710391D1*
G1X1723402Y1710609D1*
G1X1722766Y1710609D1*
G1X1722448Y1710391D1*
G1X1722130Y1709953D1*
G1X1721970Y1709516D1*
G1X1721811Y1708859D1*
G1X1721811Y1707766D1*
G1X1721970Y1707109D1*
G1X1722130Y1706672D1*
G1X1722448Y1706234D1*
G1X1722766Y1706016D1*
G1X1723402Y1706016D1*
G1X1723720Y1706234D1*
G1X1724039Y1706672D1*
G1X1724198Y1707109D1*
G1X1725630Y1709734D2*
G1X1725948Y1709953D1*
G1X1726425Y1710609D1*
G1X1726425Y1706016D1*
G1X1727857Y1709734D2*
G1X1728175Y1709953D1*
G1X1728652Y1710609D1*
G1X1728652Y1706016D1*
G1X1694461Y1658516D2*
G1X1694302Y1658953D1*
G1X1693984Y1659391D1*
G1X1693666Y1659609D1*
G1X1693030Y1659609D1*
G1X1692711Y1659391D1*
G1X1692393Y1658953D1*
G1X1692234Y1658516D1*
G1X1692075Y1657859D1*
G1X1692075Y1656766D1*
G1X1692234Y1656109D1*
G1X1692393Y1655672D1*
G1X1692711Y1655234D1*
G1X1693030Y1655016D1*
G1X1693666Y1655016D1*
G1X1693984Y1655234D1*
G1X1694302Y1655672D1*
G1X1694461Y1656109D1*
G1X1695893Y1658734D2*
G1X1696211Y1658953D1*
G1X1696689Y1659609D1*
G1X1696689Y1655016D1*
G1X1700030Y1658953D2*
G1X1699870Y1659391D1*
G1X1699393Y1659609D1*
G1X1699075Y1659609D1*
G1X1698598Y1659391D1*
G1X1698280Y1658734D1*
G1X1698120Y1657641D1*
G1X1698120Y1656547D1*
G1X1698280Y1655672D1*
G1X1698598Y1655234D1*
G1X1699075Y1655016D1*
G1X1699234Y1655016D1*
G1X1699711Y1655234D1*
G1X1700030Y1655672D1*
G1X1700189Y1656328D1*
G1X1700189Y1656547D1*
G1X1700030Y1657203D1*
G1X1699711Y1657641D1*
G1X1699234Y1657859D1*
G1X1699075Y1657859D1*
G1X1698598Y1657641D1*
G1X1698280Y1657203D1*
G1X1698120Y1656547D1*
G1X1668541Y1708045D2*
G1X1673134Y1708045D1*
G1X1668541Y1708045D2*
G1X1668541Y1709477D1*
G1X1668759Y1709955D1*
G1X1668978Y1710114D1*
G1X1669416Y1710273D1*
G1X1669853Y1710273D1*
G1X1670291Y1710114D1*
G1X1670509Y1709955D1*
G1X1670728Y1709477D1*
G1X1670728Y1708045D1*
G1X1670728Y1709159D2*
G1X1673134Y1710273D1*
G1X1669416Y1711705D2*
G1X1669197Y1712023D1*
G1X1668541Y1712500D1*
G1X1673134Y1712500D1*
G1X1668541Y1715523D2*
G1X1671603Y1713932D1*
G1X1671603Y1716318D1*
G1X1668541Y1715523D2*
G1X1673134Y1715523D1*
G1X1668241Y1675209D2*
G1X1672834Y1675209D1*
G1X1668241Y1675209D2*
G1X1668241Y1676641D1*
G1X1668459Y1677118D1*
G1X1668678Y1677277D1*
G1X1669116Y1677436D1*
G1X1669553Y1677436D1*
G1X1669991Y1677277D1*
G1X1670209Y1677118D1*
G1X1670428Y1676641D1*
G1X1670428Y1675209D1*
G1X1670428Y1676323D2*
G1X1672834Y1677436D1*
G1X1668241Y1679186D2*
G1X1668241Y1680936D1*
G1X1669991Y1679982D1*
G1X1669991Y1680459D1*
G1X1670209Y1680777D1*
G1X1670428Y1680936D1*
G1X1671084Y1681095D1*
G1X1671522Y1681095D1*
G1X1672178Y1680936D1*
G1X1672616Y1680618D1*
G1X1672834Y1680141D1*
G1X1672834Y1679664D1*
G1X1672616Y1679186D1*
G1X1672397Y1679027D1*
G1X1671959Y1678868D1*
G1X1668241Y1683482D2*
G1X1668459Y1683005D1*
G1X1669116Y1682686D1*
G1X1670209Y1682527D1*
G1X1670866Y1682527D1*
G1X1671959Y1682686D1*
G1X1672616Y1683005D1*
G1X1672834Y1683482D1*
G1X1672834Y1683800D1*
G1X1672616Y1684277D1*
G1X1671959Y1684595D1*
G1X1670866Y1684755D1*
G1X1670209Y1684755D1*
G1X1669116Y1684595D1*
G1X1668459Y1684277D1*
G1X1668241Y1683800D1*
G1X1668241Y1683482D1*
G1X1668241Y1686589D2*
G1X1672834Y1686589D1*
G1X1668241Y1686589D2*
G1X1668241Y1688020D1*
G1X1668459Y1688498D1*
G1X1668678Y1688657D1*
G1X1669116Y1688816D1*
G1X1669553Y1688816D1*
G1X1669991Y1688657D1*
G1X1670209Y1688498D1*
G1X1670428Y1688020D1*
G1X1670428Y1686589D1*
G1X1670428Y1687702D2*
G1X1672834Y1688816D1*
G1X1669334Y1690407D2*
G1X1669116Y1690407D1*
G1X1668678Y1690566D1*
G1X1668459Y1690725D1*
G1X1668241Y1691043D1*
G1X1668241Y1691680D1*
G1X1668459Y1691998D1*
G1X1668678Y1692157D1*
G1X1669116Y1692316D1*
G1X1669553Y1692316D1*
G1X1669991Y1692157D1*
G1X1670647Y1691839D1*
G1X1672834Y1690248D1*
G1X1672834Y1692475D1*
G1X1669772Y1695975D2*
G1X1670428Y1695816D1*
G1X1670866Y1695498D1*
G1X1671084Y1695020D1*
G1X1671084Y1694861D1*
G1X1670866Y1694384D1*
G1X1670428Y1694066D1*
G1X1669772Y1693907D1*
G1X1669553Y1693907D1*
G1X1668897Y1694066D1*
G1X1668459Y1694384D1*
G1X1668241Y1694861D1*
G1X1668241Y1695020D1*
G1X1668459Y1695498D1*
G1X1668897Y1695816D1*
G1X1669772Y1695975D1*
G1X1670866Y1695975D1*
G1X1671959Y1695816D1*
G1X1672616Y1695498D1*
G1X1672834Y1695020D1*
G1X1672834Y1694702D1*
G1X1672616Y1694225D1*
G1X1672178Y1694066D1*
G1X1679109Y1658759D2*
G1X1679109Y1654166D1*
G1X1679109Y1658759D2*
G1X1680541Y1658759D1*
G1X1681018Y1658541D1*
G1X1681177Y1658322D1*
G1X1681336Y1657884D1*
G1X1681336Y1657447D1*
G1X1681177Y1657009D1*
G1X1681018Y1656791D1*
G1X1680541Y1656572D1*
G1X1679109Y1656572D1*
G1X1680223Y1656572D2*
G1X1681336Y1654166D1*
G1X1682927Y1657666D2*
G1X1682927Y1657884D1*
G1X1683086Y1658322D1*
G1X1683245Y1658541D1*
G1X1683564Y1658759D1*
G1X1684200Y1658759D1*
G1X1684518Y1658541D1*
G1X1684677Y1658322D1*
G1X1684836Y1657884D1*
G1X1684836Y1657447D1*
G1X1684677Y1657009D1*
G1X1684359Y1656353D1*
G1X1682768Y1654166D1*
G1X1684995Y1654166D1*
G1X1687223Y1658759D2*
G1X1686745Y1658541D1*
G1X1686586Y1658103D1*
G1X1686586Y1657666D1*
G1X1686745Y1657228D1*
G1X1687064Y1657009D1*
G1X1687700Y1656791D1*
G1X1688177Y1656572D1*
G1X1688495Y1656134D1*
G1X1688655Y1655697D1*
G1X1688655Y1655041D1*
G1X1688495Y1654603D1*
G1X1688336Y1654384D1*
G1X1687859Y1654166D1*
G1X1687223Y1654166D1*
G1X1686745Y1654384D1*
G1X1686586Y1654603D1*
G1X1686427Y1655041D1*
G1X1686427Y1655697D1*
G1X1686586Y1656134D1*
G1X1686905Y1656572D1*
G1X1687382Y1656791D1*
G1X1688018Y1657009D1*
G1X1688336Y1657228D1*
G1X1688495Y1657666D1*
G1X1688495Y1658103D1*
G1X1688336Y1658541D1*
G1X1687859Y1658759D1*
G1X1687223Y1658759D1*
G1X1667659Y1663809D2*
G1X1667659Y1659216D1*
G1X1667659Y1663809D2*
G1X1669091Y1663809D1*
G1X1669568Y1663591D1*
G1X1669727Y1663372D1*
G1X1669886Y1662934D1*
G1X1669886Y1662497D1*
G1X1669727Y1662059D1*
G1X1669568Y1661841D1*
G1X1669091Y1661622D1*
G1X1667659Y1661622D1*
G1X1668773Y1661622D2*
G1X1669886Y1659216D1*
G1X1671477Y1662716D2*
G1X1671477Y1662934D1*
G1X1671636Y1663372D1*
G1X1671795Y1663591D1*
G1X1672114Y1663809D1*
G1X1672750Y1663809D1*
G1X1673068Y1663591D1*
G1X1673227Y1663372D1*
G1X1673386Y1662934D1*
G1X1673386Y1662497D1*
G1X1673227Y1662059D1*
G1X1672909Y1661403D1*
G1X1671318Y1659216D1*
G1X1673545Y1659216D1*
G1X1677205Y1663809D2*
G1X1675614Y1659216D1*
G1X1674977Y1663809D2*
G1X1677205Y1663809D1*
G1X1737089Y1639159D2*
G1X1737089Y1634566D1*
G1X1737089Y1639159D2*
G1X1738520Y1639159D1*
G1X1738998Y1638941D1*
G1X1739157Y1638722D1*
G1X1739316Y1638284D1*
G1X1739316Y1637847D1*
G1X1739157Y1637409D1*
G1X1738998Y1637191D1*
G1X1738520Y1636972D1*
G1X1737089Y1636972D1*
G1X1738202Y1636972D2*
G1X1739316Y1634566D1*
G1X1740907Y1638066D2*
G1X1740907Y1638284D1*
G1X1741066Y1638722D1*
G1X1741225Y1638941D1*
G1X1741543Y1639159D1*
G1X1742180Y1639159D1*
G1X1742498Y1638941D1*
G1X1742657Y1638722D1*
G1X1742816Y1638284D1*
G1X1742816Y1637847D1*
G1X1742657Y1637409D1*
G1X1742339Y1636753D1*
G1X1740748Y1634566D1*
G1X1742975Y1634566D1*
G1X1746316Y1638503D2*
G1X1746157Y1638941D1*
G1X1745680Y1639159D1*
G1X1745361Y1639159D1*
G1X1744884Y1638941D1*
G1X1744566Y1638284D1*
G1X1744407Y1637191D1*
G1X1744407Y1636097D1*
G1X1744566Y1635222D1*
G1X1744884Y1634784D1*
G1X1745361Y1634566D1*
G1X1745520Y1634566D1*
G1X1745998Y1634784D1*
G1X1746316Y1635222D1*
G1X1746475Y1635878D1*
G1X1746475Y1636097D1*
G1X1746316Y1636753D1*
G1X1745998Y1637191D1*
G1X1745520Y1637409D1*
G1X1745361Y1637409D1*
G1X1744884Y1637191D1*
G1X1744566Y1636753D1*
G1X1744407Y1636097D1*
G1X1750941Y1641439D2*
G1X1755534Y1641439D1*
G1X1750941Y1641439D2*
G1X1750941Y1642552D1*
G1X1751159Y1643030D1*
G1X1751597Y1643348D1*
G1X1752034Y1643507D1*
G1X1752691Y1643666D1*
G1X1753784Y1643666D1*
G1X1754441Y1643507D1*
G1X1754878Y1643348D1*
G1X1755316Y1643030D1*
G1X1755534Y1642552D1*
G1X1755534Y1641439D1*
G1X1750941Y1645416D2*
G1X1750941Y1647166D1*
G1X1752691Y1646211D1*
G1X1752691Y1646689D1*
G1X1752909Y1647007D1*
G1X1753128Y1647166D1*
G1X1753784Y1647325D1*
G1X1754222Y1647325D1*
G1X1754878Y1647166D1*
G1X1755316Y1646848D1*
G1X1755534Y1646370D1*
G1X1755534Y1645893D1*
G1X1755316Y1645416D1*
G1X1755097Y1645257D1*
G1X1754659Y1645098D1*
G1X1693600Y1697094D2*
G1X1693600Y1692500D1*
G1X1695509Y1692500D1*
G1X1696941Y1696219D2*
G1X1697259Y1696438D1*
G1X1697736Y1697094D1*
G1X1697736Y1692500D1*
G1X1718045Y1653916D2*
G1X1717886Y1654353D1*
G1X1717568Y1654791D1*
G1X1717250Y1655009D1*
G1X1716614Y1655009D1*
G1X1716295Y1654791D1*
G1X1715977Y1654353D1*
G1X1715818Y1653916D1*
G1X1715659Y1653259D1*
G1X1715659Y1652166D1*
G1X1715818Y1651509D1*
G1X1715977Y1651072D1*
G1X1716295Y1650634D1*
G1X1716614Y1650416D1*
G1X1717250Y1650416D1*
G1X1717568Y1650634D1*
G1X1717886Y1651072D1*
G1X1718045Y1651509D1*
G1X1719636Y1653916D2*
G1X1719636Y1654134D1*
G1X1719795Y1654572D1*
G1X1719955Y1654791D1*
G1X1720273Y1655009D1*
G1X1720909Y1655009D1*
G1X1721227Y1654791D1*
G1X1721386Y1654572D1*
G1X1721545Y1654134D1*
G1X1721545Y1653697D1*
G1X1721386Y1653259D1*
G1X1721068Y1652603D1*
G1X1719477Y1650416D1*
G1X1721705Y1650416D1*
G1X1725045Y1654353D2*
G1X1724886Y1654791D1*
G1X1724409Y1655009D1*
G1X1724091Y1655009D1*
G1X1723614Y1654791D1*
G1X1723295Y1654134D1*
G1X1723136Y1653041D1*
G1X1723136Y1651947D1*
G1X1723295Y1651072D1*
G1X1723614Y1650634D1*
G1X1724091Y1650416D1*
G1X1724250Y1650416D1*
G1X1724727Y1650634D1*
G1X1725045Y1651072D1*
G1X1725205Y1651728D1*
G1X1725205Y1651947D1*
G1X1725045Y1652603D1*
G1X1724727Y1653041D1*
G1X1724250Y1653259D1*
G1X1724091Y1653259D1*
G1X1723614Y1653041D1*
G1X1723295Y1652603D1*
G1X1723136Y1651947D1*
G1X1731506Y1667914D2*
G1X1736100Y1667914D1*
G1X1731506Y1666800D2*
G1X1731506Y1669027D1*
G1X1731506Y1670459D2*
G1X1736100Y1670459D1*
G1X1731506Y1670459D2*
G1X1731506Y1671891D1*
G1X1731725Y1672368D1*
G1X1731944Y1672527D1*
G1X1732381Y1672686D1*
G1X1733037Y1672686D1*
G1X1733475Y1672527D1*
G1X1733694Y1672368D1*
G1X1733912Y1671891D1*
G1X1733912Y1670459D1*
G1X1732381Y1674118D2*
G1X1732162Y1674436D1*
G1X1731506Y1674914D1*
G1X1736100Y1674914D1*
G1X1681234Y1707434D2*
G1X1685500Y1707434D1*
G1X1681234Y1706400D2*
G1X1681234Y1708468D1*
G1X1681234Y1709798D2*
G1X1685500Y1709798D1*
G1X1681234Y1709798D2*
G1X1681234Y1711127D1*
G1X1681437Y1711570D1*
G1X1681641Y1711718D1*
G1X1682047Y1711866D1*
G1X1682656Y1711866D1*
G1X1683062Y1711718D1*
G1X1683266Y1711570D1*
G1X1683469Y1711127D1*
G1X1683469Y1709798D1*
G1X1682250Y1713343D2*
G1X1682047Y1713343D1*
G1X1681641Y1713491D1*
G1X1681437Y1713639D1*
G1X1681234Y1713934D1*
G1X1681234Y1714525D1*
G1X1681437Y1714820D1*
G1X1681641Y1714968D1*
G1X1682047Y1715116D1*
G1X1682453Y1715116D1*
G1X1682859Y1714968D1*
G1X1683469Y1714673D1*
G1X1685500Y1713195D1*
G1X1685500Y1715264D1*
G1X1833966Y1691416D2*
G1X1833807Y1691853D1*
G1X1833489Y1692291D1*
G1X1833170Y1692509D1*
G1X1832534Y1692509D1*
G1X1832216Y1692291D1*
G1X1831898Y1691853D1*
G1X1831739Y1691416D1*
G1X1831580Y1690759D1*
G1X1831580Y1689666D1*
G1X1831739Y1689009D1*
G1X1831898Y1688572D1*
G1X1832216Y1688134D1*
G1X1832534Y1687916D1*
G1X1833170Y1687916D1*
G1X1833489Y1688134D1*
G1X1833807Y1688572D1*
G1X1833966Y1689009D1*
G1X1835557Y1691416D2*
G1X1835557Y1691634D1*
G1X1835716Y1692072D1*
G1X1835875Y1692291D1*
G1X1836193Y1692509D1*
G1X1836830Y1692509D1*
G1X1837148Y1692291D1*
G1X1837307Y1692072D1*
G1X1837466Y1691634D1*
G1X1837466Y1691197D1*
G1X1837307Y1690759D1*
G1X1836989Y1690103D1*
G1X1835398Y1687916D1*
G1X1837625Y1687916D1*
G1X1839852Y1692509D2*
G1X1839375Y1692291D1*
G1X1839216Y1691853D1*
G1X1839216Y1691416D1*
G1X1839375Y1690978D1*
G1X1839693Y1690759D1*
G1X1840330Y1690541D1*
G1X1840807Y1690322D1*
G1X1841125Y1689884D1*
G1X1841284Y1689447D1*
G1X1841284Y1688791D1*
G1X1841125Y1688353D1*
G1X1840966Y1688134D1*
G1X1840489Y1687916D1*
G1X1839852Y1687916D1*
G1X1839375Y1688134D1*
G1X1839216Y1688353D1*
G1X1839057Y1688791D1*
G1X1839057Y1689447D1*
G1X1839216Y1689884D1*
G1X1839534Y1690322D1*
G1X1840011Y1690541D1*
G1X1840648Y1690759D1*
G1X1840966Y1690978D1*
G1X1841125Y1691416D1*
G1X1841125Y1691853D1*
G1X1840966Y1692291D1*
G1X1840489Y1692509D1*
G1X1839852Y1692509D1*
G1X1857621Y1718580D2*
G1X1862214Y1718580D1*
G1X1857621Y1718580D2*
G1X1857621Y1720011D1*
G1X1857839Y1720489D1*
G1X1858058Y1720648D1*
G1X1858496Y1720807D1*
G1X1858933Y1720807D1*
G1X1859371Y1720648D1*
G1X1859589Y1720489D1*
G1X1859808Y1720011D1*
G1X1859808Y1718580D1*
G1X1859808Y1719693D2*
G1X1862214Y1720807D1*
G1X1857621Y1723830D2*
G1X1860683Y1722239D1*
G1X1860683Y1724625D1*
G1X1857621Y1723830D2*
G1X1862214Y1723830D1*
G1X1857621Y1728284D2*
G1X1862214Y1726693D1*
G1X1857621Y1726057D2*
G1X1857621Y1728284D1*
G1X1886841Y1719830D2*
G1X1891434Y1719830D1*
G1X1886841Y1719830D2*
G1X1886841Y1721261D1*
G1X1887059Y1721739D1*
G1X1887278Y1721898D1*
G1X1887716Y1722057D1*
G1X1888153Y1722057D1*
G1X1888591Y1721898D1*
G1X1888809Y1721739D1*
G1X1889028Y1721261D1*
G1X1889028Y1719830D1*
G1X1889028Y1720943D2*
G1X1891434Y1722057D1*
G1X1886841Y1725080D2*
G1X1889903Y1723489D1*
G1X1889903Y1725875D1*
G1X1886841Y1725080D2*
G1X1891434Y1725080D1*
G1X1886841Y1728102D2*
G1X1887059Y1727625D1*
G1X1887497Y1727466D1*
G1X1887934Y1727466D1*
G1X1888372Y1727625D1*
G1X1888591Y1727943D1*
G1X1888809Y1728580D1*
G1X1889028Y1729057D1*
G1X1889466Y1729375D1*
G1X1889903Y1729534D1*
G1X1890559Y1729534D1*
G1X1890997Y1729375D1*
G1X1891216Y1729216D1*
G1X1891434Y1728739D1*
G1X1891434Y1728102D1*
G1X1891216Y1727625D1*
G1X1890997Y1727466D1*
G1X1890559Y1727307D1*
G1X1889903Y1727307D1*
G1X1889466Y1727466D1*
G1X1889028Y1727784D1*
G1X1888809Y1728261D1*
G1X1888591Y1728898D1*
G1X1888372Y1729216D1*
G1X1887934Y1729375D1*
G1X1887497Y1729375D1*
G1X1887059Y1729216D1*
G1X1886841Y1728739D1*
G1X1886841Y1728102D1*
G1X1860741Y1692009D2*
G1X1865334Y1692009D1*
G1X1860741Y1692009D2*
G1X1860741Y1693441D1*
G1X1860959Y1693918D1*
G1X1861178Y1694077D1*
G1X1861616Y1694236D1*
G1X1862053Y1694236D1*
G1X1862491Y1694077D1*
G1X1862709Y1693918D1*
G1X1862928Y1693441D1*
G1X1862928Y1692009D1*
G1X1862928Y1693123D2*
G1X1865334Y1694236D1*
G1X1860741Y1697259D2*
G1X1863803Y1695668D1*
G1X1863803Y1698055D1*
G1X1860741Y1697259D2*
G1X1865334Y1697259D1*
G1X1862272Y1701555D2*
G1X1862928Y1701395D1*
G1X1863366Y1701077D1*
G1X1863584Y1700600D1*
G1X1863584Y1700441D1*
G1X1863366Y1699964D1*
G1X1862928Y1699645D1*
G1X1862272Y1699486D1*
G1X1862053Y1699486D1*
G1X1861397Y1699645D1*
G1X1860959Y1699964D1*
G1X1860741Y1700441D1*
G1X1860741Y1700600D1*
G1X1860959Y1701077D1*
G1X1861397Y1701395D1*
G1X1862272Y1701555D1*
G1X1863366Y1701555D1*
G1X1864459Y1701395D1*
G1X1865116Y1701077D1*
G1X1865334Y1700600D1*
G1X1865334Y1700282D1*
G1X1865116Y1699805D1*
G1X1864678Y1699645D1*
G1X1762091Y1709394D2*
G1X1762091Y1705894D1*
G1X1761932Y1705238D1*
G1X1761773Y1705019D1*
G1X1761455Y1704800D1*
G1X1761136Y1704800D1*
G1X1760818Y1705019D1*
G1X1760659Y1705238D1*
G1X1760500Y1705894D1*
G1X1760500Y1706331D1*
G1X1763523Y1709394D2*
G1X1763523Y1704800D1*
G1X1763523Y1709394D2*
G1X1764955Y1709394D1*
G1X1765432Y1709175D1*
G1X1765591Y1708956D1*
G1X1765750Y1708519D1*
G1X1765750Y1707863D1*
G1X1765591Y1707425D1*
G1X1765432Y1707206D1*
G1X1764955Y1706988D1*
G1X1763523Y1706988D1*
G1X1767341Y1708300D2*
G1X1767341Y1708519D1*
G1X1767500Y1708956D1*
G1X1767659Y1709175D1*
G1X1767977Y1709394D1*
G1X1768614Y1709394D1*
G1X1768932Y1709175D1*
G1X1769091Y1708956D1*
G1X1769250Y1708519D1*
G1X1769250Y1708081D1*
G1X1769091Y1707644D1*
G1X1768773Y1706988D1*
G1X1767182Y1704800D1*
G1X1769409Y1704800D1*
G1X1819080Y1692455D2*
G1X1819080Y1687861D1*
G1X1819080Y1692455D2*
G1X1820511Y1692455D1*
G1X1820989Y1692236D1*
G1X1821148Y1692017D1*
G1X1821307Y1691580D1*
G1X1821307Y1691142D1*
G1X1821148Y1690705D1*
G1X1820989Y1690486D1*
G1X1820511Y1690267D1*
G1X1819080Y1690267D1*
G1X1820193Y1690267D2*
G1X1821307Y1687861D1*
G1X1824807Y1692455D2*
G1X1823216Y1692455D1*
G1X1823057Y1690486D1*
G1X1823216Y1690705D1*
G1X1823693Y1690923D1*
G1X1824170Y1690923D1*
G1X1824648Y1690705D1*
G1X1824966Y1690267D1*
G1X1825125Y1689611D1*
G1X1824966Y1689173D1*
G1X1824807Y1688517D1*
G1X1824489Y1688080D1*
G1X1824011Y1687861D1*
G1X1823534Y1687861D1*
G1X1823057Y1688080D1*
G1X1822898Y1688298D1*
G1X1822739Y1688736D1*
G1X1826716Y1691361D2*
G1X1826716Y1691580D1*
G1X1826875Y1692017D1*
G1X1827034Y1692236D1*
G1X1827352Y1692455D1*
G1X1827989Y1692455D1*
G1X1828307Y1692236D1*
G1X1828466Y1692017D1*
G1X1828625Y1691580D1*
G1X1828625Y1691142D1*
G1X1828466Y1690705D1*
G1X1828148Y1690048D1*
G1X1826557Y1687861D1*
G1X1828784Y1687861D1*
G1X1740162Y1604027D2*
G1X1739725Y1603709D1*
G1X1739506Y1603232D1*
G1X1739506Y1602595D1*
G1X1739725Y1602118D1*
G1X1740162Y1601800D1*
G1X1740600Y1601800D1*
G1X1741037Y1601959D1*
G1X1741256Y1602118D1*
G1X1741475Y1602436D1*
G1X1741912Y1603391D1*
G1X1742131Y1603709D1*
G1X1742350Y1603868D1*
G1X1742787Y1604027D1*
G1X1743444Y1604027D1*
G1X1743881Y1603709D1*
G1X1744100Y1603232D1*
G1X1744100Y1602595D1*
G1X1743881Y1602118D1*
G1X1743444Y1601800D1*
G1X1740600Y1607845D2*
G1X1740162Y1607686D1*
G1X1739725Y1607368D1*
G1X1739506Y1607050D1*
G1X1739506Y1606414D1*
G1X1739725Y1606095D1*
G1X1740162Y1605777D1*
G1X1740600Y1605618D1*
G1X1741256Y1605459D1*
G1X1742350Y1605459D1*
G1X1743006Y1605618D1*
G1X1743444Y1605777D1*
G1X1743881Y1606095D1*
G1X1744100Y1606414D1*
G1X1744100Y1607050D1*
G1X1743881Y1607368D1*
G1X1743444Y1607686D1*
G1X1743006Y1607845D1*
G1X1739506Y1609277D2*
G1X1744100Y1609277D1*
G1X1739506Y1611505D2*
G1X1742569Y1609277D1*
G1X1741475Y1610073D2*
G1X1744100Y1611505D1*
G1X1749506Y1602300D2*
G1X1754100Y1602300D1*
G1X1749506Y1602300D2*
G1X1749506Y1603732D1*
G1X1749725Y1604209D1*
G1X1749944Y1604368D1*
G1X1750381Y1604527D1*
G1X1750819Y1604527D1*
G1X1751256Y1604368D1*
G1X1751475Y1604209D1*
G1X1751694Y1603732D1*
G1X1751694Y1602300D1*
G1X1751694Y1603414D2*
G1X1754100Y1604527D1*
G1X1749506Y1605959D2*
G1X1754100Y1608186D1*
G1X1749506Y1608186D2*
G1X1754100Y1605959D1*
G1X1760006Y1603414D2*
G1X1764600Y1603414D1*
G1X1760006Y1602300D2*
G1X1760006Y1604527D1*
G1X1760006Y1605959D2*
G1X1764600Y1608186D1*
G1X1760006Y1608186D2*
G1X1764600Y1605959D1*
G1X1730506Y1603255D2*
G1X1730725Y1602936D1*
G1X1731162Y1602618D1*
G1X1731600Y1602459D1*
G1X1732256Y1602300D1*
G1X1733350Y1602300D1*
G1X1734006Y1602459D1*
G1X1734444Y1602618D1*
G1X1734881Y1602936D1*
G1X1735100Y1603255D1*
G1X1735100Y1603891D1*
G1X1734881Y1604209D1*
G1X1734444Y1604527D1*
G1X1734006Y1604686D1*
G1X1733350Y1604845D1*
G1X1732256Y1604845D1*
G1X1731600Y1604686D1*
G1X1731162Y1604527D1*
G1X1730725Y1604209D1*
G1X1730506Y1603891D1*
G1X1730506Y1603255D1*
G1X1730506Y1606277D2*
G1X1735100Y1606277D1*
G1X1730506Y1606277D2*
G1X1735100Y1608505D1*
G1X1730506Y1608505D2*
G1X1735100Y1608505D1*
G1X1914373Y1621894D2*
G1X1913100Y1617300D1*
G1X1914373Y1621894D2*
G1X1915645Y1617300D1*
G1X1913577Y1618831D2*
G1X1915168Y1618831D1*
G1X1919145Y1621894D2*
G1X1917555Y1621894D1*
G1X1917395Y1619925D1*
G1X1917555Y1620144D1*
G1X1918032Y1620363D1*
G1X1918509Y1620363D1*
G1X1918986Y1620144D1*
G1X1919305Y1619706D1*
G1X1919464Y1619050D1*
G1X1919305Y1618613D1*
G1X1919145Y1617956D1*
G1X1918827Y1617519D1*
G1X1918350Y1617300D1*
G1X1917873Y1617300D1*
G1X1917395Y1617519D1*
G1X1917236Y1617738D1*
G1X1917077Y1618175D1*
G1X1874873Y1621894D2*
G1X1873600Y1617300D1*
G1X1874873Y1621894D2*
G1X1876145Y1617300D1*
G1X1874077Y1618831D2*
G1X1875668Y1618831D1*
G1X1877577Y1621019D2*
G1X1877895Y1621238D1*
G1X1878373Y1621894D1*
G1X1878373Y1617300D1*
G1X1864373Y1621894D2*
G1X1863100Y1617300D1*
G1X1864373Y1621894D2*
G1X1865645Y1617300D1*
G1X1863577Y1618831D2*
G1X1865168Y1618831D1*
G1X1868032Y1621894D2*
G1X1867555Y1621675D1*
G1X1867236Y1621019D1*
G1X1867077Y1619925D1*
G1X1867077Y1619269D1*
G1X1867236Y1618175D1*
G1X1867555Y1617519D1*
G1X1868032Y1617300D1*
G1X1868350Y1617300D1*
G1X1868827Y1617519D1*
G1X1869145Y1618175D1*
G1X1869305Y1619269D1*
G1X1869305Y1619925D1*
G1X1869145Y1621019D1*
G1X1868827Y1621675D1*
G1X1868350Y1621894D1*
G1X1868032Y1621894D1*
G1X1842100Y1621894D2*
G1X1843373Y1617300D1*
G1X1844645Y1621894D2*
G1X1843373Y1617300D1*
G1X1846077Y1621894D2*
G1X1846077Y1617300D1*
G1X1847509Y1621894D2*
G1X1847509Y1617300D1*
G1X1847509Y1621894D2*
G1X1849736Y1617300D1*
G1X1849736Y1621894D2*
G1X1849736Y1617300D1*
G1X1828986Y1620800D2*
G1X1828827Y1621238D1*
G1X1828509Y1621675D1*
G1X1828191Y1621894D1*
G1X1827555Y1621894D1*
G1X1827236Y1621675D1*
G1X1826918Y1621238D1*
G1X1826759Y1620800D1*
G1X1826600Y1620144D1*
G1X1826600Y1619050D1*
G1X1826759Y1618394D1*
G1X1826918Y1617956D1*
G1X1827236Y1617519D1*
G1X1827555Y1617300D1*
G1X1828191Y1617300D1*
G1X1828509Y1617519D1*
G1X1828827Y1617956D1*
G1X1828986Y1618394D1*
G1X1828986Y1619050D1*
G1X1828191Y1619050D2*
G1X1828986Y1619050D1*
G1X1830418Y1621894D2*
G1X1830418Y1617300D1*
G1X1830418Y1621894D2*
G1X1832645Y1617300D1*
G1X1832645Y1621894D2*
G1X1832645Y1617300D1*
G1X1834077Y1621894D2*
G1X1834077Y1617300D1*
G1X1834077Y1621894D2*
G1X1835191Y1621894D1*
G1X1835668Y1621675D1*
G1X1835986Y1621238D1*
G1X1836145Y1620800D1*
G1X1836305Y1620144D1*
G1X1836305Y1619050D1*
G1X1836145Y1618394D1*
G1X1835986Y1617956D1*
G1X1835668Y1617519D1*
G1X1835191Y1617300D1*
G1X1834077Y1617300D1*
G1X1814668Y1621894D2*
G1X1813077Y1621894D1*
G1X1812918Y1619925D1*
G1X1813077Y1620144D1*
G1X1813555Y1620363D1*
G1X1814032Y1620363D1*
G1X1814509Y1620144D1*
G1X1814827Y1619706D1*
G1X1814986Y1619050D1*
G1X1814827Y1618613D1*
G1X1814668Y1617956D1*
G1X1814350Y1617519D1*
G1X1813873Y1617300D1*
G1X1813395Y1617300D1*
G1X1812918Y1617519D1*
G1X1812759Y1617738D1*
G1X1812600Y1618175D1*
G1X1816418Y1621894D2*
G1X1817691Y1617300D1*
G1X1818964Y1621894D2*
G1X1817691Y1617300D1*
G1X1804506Y1617618D2*
G1X1804506Y1619368D1*
G1X1806256Y1618414D1*
G1X1806256Y1618891D1*
G1X1806475Y1619209D1*
G1X1806694Y1619368D1*
G1X1807350Y1619527D1*
G1X1807787Y1619527D1*
G1X1808444Y1619368D1*
G1X1808881Y1619050D1*
G1X1809100Y1618573D1*
G1X1809100Y1618095D1*
G1X1808881Y1617618D1*
G1X1808662Y1617459D1*
G1X1808225Y1617300D1*
G1X1804506Y1620959D2*
G1X1809100Y1622232D1*
G1X1804506Y1623505D2*
G1X1809100Y1622232D1*
G1X1804506Y1625255D2*
G1X1804506Y1627005D1*
G1X1806256Y1626050D1*
G1X1806256Y1626527D1*
G1X1806475Y1626845D1*
G1X1806694Y1627005D1*
G1X1807350Y1627164D1*
G1X1807787Y1627164D1*
G1X1808444Y1627005D1*
G1X1808881Y1626686D1*
G1X1809100Y1626209D1*
G1X1809100Y1625732D1*
G1X1808881Y1625255D1*
G1X1808662Y1625095D1*
G1X1808225Y1624936D1*
G1X1794006Y1618300D2*
G1X1798600Y1618300D1*
G1X1794006Y1618300D2*
G1X1794006Y1619732D1*
G1X1794225Y1620209D1*
G1X1794444Y1620368D1*
G1X1794881Y1620527D1*
G1X1795319Y1620527D1*
G1X1795756Y1620368D1*
G1X1795975Y1620209D1*
G1X1796194Y1619732D1*
G1X1796194Y1618300D1*
G1X1796194Y1619414D2*
G1X1798600Y1620527D1*
G1X1794662Y1624186D2*
G1X1794225Y1623868D1*
G1X1794006Y1623391D1*
G1X1794006Y1622755D1*
G1X1794225Y1622277D1*
G1X1794662Y1621959D1*
G1X1795100Y1621959D1*
G1X1795537Y1622118D1*
G1X1795756Y1622277D1*
G1X1795975Y1622595D1*
G1X1796412Y1623550D1*
G1X1796631Y1623868D1*
G1X1796850Y1624027D1*
G1X1797287Y1624186D1*
G1X1797944Y1624186D1*
G1X1798381Y1623868D1*
G1X1798600Y1623391D1*
G1X1798600Y1622755D1*
G1X1798381Y1622277D1*
G1X1797944Y1621959D1*
G1X1794006Y1626732D2*
G1X1798600Y1626732D1*
G1X1794006Y1625618D2*
G1X1794006Y1627845D1*
G1X1785168Y1622394D2*
G1X1783577Y1622394D1*
G1X1783418Y1620425D1*
G1X1783577Y1620644D1*
G1X1784055Y1620863D1*
G1X1784532Y1620863D1*
G1X1785009Y1620644D1*
G1X1785327Y1620206D1*
G1X1785486Y1619550D1*
G1X1785327Y1619113D1*
G1X1785168Y1618456D1*
G1X1784850Y1618019D1*
G1X1784373Y1617800D1*
G1X1783895Y1617800D1*
G1X1783418Y1618019D1*
G1X1783259Y1618238D1*
G1X1783100Y1618675D1*
G1X1786918Y1622394D2*
G1X1788191Y1617800D1*
G1X1789464Y1622394D2*
G1X1788191Y1617800D1*
G1X1772600Y1622394D2*
G1X1772600Y1617800D1*
G1X1772600Y1622394D2*
G1X1774827Y1617800D1*
G1X1774827Y1622394D2*
G1X1774827Y1617800D1*
G1X1778645Y1621300D2*
G1X1778486Y1621738D1*
G1X1778168Y1622175D1*
G1X1777850Y1622394D1*
G1X1777214Y1622394D1*
G1X1776895Y1622175D1*
G1X1776577Y1621738D1*
G1X1776418Y1621300D1*
G1X1776259Y1620644D1*
G1X1776259Y1619550D1*
G1X1776418Y1618894D1*
G1X1776577Y1618456D1*
G1X1776895Y1618019D1*
G1X1777214Y1617800D1*
G1X1777850Y1617800D1*
G1X1778168Y1618019D1*
G1X1778486Y1618456D1*
G1X1778645Y1618894D1*
G1X1885373Y1621894D2*
G1X1884100Y1617300D1*
G1X1885373Y1621894D2*
G1X1886645Y1617300D1*
G1X1884577Y1618831D2*
G1X1886168Y1618831D1*
G1X1888236Y1620800D2*
G1X1888236Y1621019D1*
G1X1888395Y1621456D1*
G1X1888555Y1621675D1*
G1X1888873Y1621894D1*
G1X1889509Y1621894D1*
G1X1889827Y1621675D1*
G1X1889986Y1621456D1*
G1X1890145Y1621019D1*
G1X1890145Y1620581D1*
G1X1889986Y1620144D1*
G1X1889668Y1619488D1*
G1X1888077Y1617300D1*
G1X1890305Y1617300D1*
G1X1895373Y1621894D2*
G1X1894100Y1617300D1*
G1X1895373Y1621894D2*
G1X1896645Y1617300D1*
G1X1894577Y1618831D2*
G1X1896168Y1618831D1*
G1X1898395Y1621894D2*
G1X1900145Y1621894D1*
G1X1899191Y1620144D1*
G1X1899668Y1620144D1*
G1X1899986Y1619925D1*
G1X1900145Y1619706D1*
G1X1900305Y1619050D1*
G1X1900305Y1618613D1*
G1X1900145Y1617956D1*
G1X1899827Y1617519D1*
G1X1899350Y1617300D1*
G1X1898873Y1617300D1*
G1X1898395Y1617519D1*
G1X1898236Y1617738D1*
G1X1898077Y1618175D1*
G1X1905373Y1621894D2*
G1X1904100Y1617300D1*
G1X1905373Y1621894D2*
G1X1906645Y1617300D1*
G1X1904577Y1618831D2*
G1X1906168Y1618831D1*
G1X1909668Y1621894D2*
G1X1908077Y1618831D1*
G1X1910464Y1618831D1*
G1X1909668Y1621894D2*
G1X1909668Y1617300D1*
G1X1916600Y1692550D2*
G1X1916600Y1687300D1*
G1X1920964Y1691300D2*
G1X1920782Y1691800D1*
G1X1920418Y1692300D1*
G1X1920055Y1692550D1*
G1X1919327Y1692550D1*
G1X1918964Y1692300D1*
G1X1918600Y1691800D1*
G1X1918418Y1691300D1*
G1X1918236Y1690550D1*
G1X1918236Y1689300D1*
G1X1918418Y1688550D1*
G1X1918600Y1688050D1*
G1X1918964Y1687550D1*
G1X1919327Y1687300D1*
G1X1920055Y1687300D1*
G1X1920418Y1687550D1*
G1X1920782Y1688050D1*
G1X1920964Y1688550D1*
G1X1925145Y1691800D2*
G1X1924782Y1692300D1*
G1X1924236Y1692550D1*
G1X1923509Y1692550D1*
G1X1922964Y1692300D1*
G1X1922600Y1691800D1*
G1X1922600Y1691300D1*
G1X1922782Y1690800D1*
G1X1922964Y1690550D1*
G1X1923327Y1690300D1*
G1X1924418Y1689800D1*
G1X1924782Y1689550D1*
G1X1924964Y1689300D1*
G1X1925145Y1688800D1*
G1X1925145Y1688050D1*
G1X1924782Y1687550D1*
G1X1924236Y1687300D1*
G1X1923509Y1687300D1*
G1X1922964Y1687550D1*
G1X1922600Y1688050D1*
G1X1926782Y1692550D2*
G1X1926782Y1687300D1*
G1X1926782Y1692550D2*
G1X1928418Y1692550D1*
G1X1928964Y1692300D1*
G1X1929145Y1692050D1*
G1X1929327Y1691550D1*
G1X1929327Y1690800D1*
G1X1929145Y1690300D1*
G1X1928964Y1690050D1*
G1X1928418Y1689800D1*
G1X1926782Y1689800D1*
G1X1872600Y1680050D2*
G1X1872600Y1674800D1*
G1X1875327Y1680050D2*
G1X1874964Y1679800D1*
G1X1874600Y1679300D1*
G1X1874418Y1678800D1*
G1X1874236Y1678050D1*
G1X1874236Y1676800D1*
G1X1874418Y1676050D1*
G1X1874600Y1675550D1*
G1X1874964Y1675050D1*
G1X1875327Y1674800D1*
G1X1876055Y1674800D1*
G1X1876418Y1675050D1*
G1X1876782Y1675550D1*
G1X1876964Y1676050D1*
G1X1877145Y1676800D1*
G1X1877145Y1678050D1*
G1X1876964Y1678800D1*
G1X1876782Y1679300D1*
G1X1876418Y1679800D1*
G1X1876055Y1680050D1*
G1X1875327Y1680050D1*
G1X1914006Y1778300D2*
G1X1918600Y1778300D1*
G1X1914006Y1778300D2*
G1X1914006Y1779732D1*
G1X1914225Y1780209D1*
G1X1914444Y1780368D1*
G1X1914881Y1780527D1*
G1X1915319Y1780527D1*
G1X1915756Y1780368D1*
G1X1915975Y1780209D1*
G1X1916194Y1779732D1*
G1X1916194Y1778300D1*
G1X1916194Y1779414D2*
G1X1918600Y1780527D1*
G1X1914006Y1781959D2*
G1X1918600Y1784186D1*
G1X1914006Y1784186D2*
G1X1918600Y1781959D1*
G1X1914006Y1790232D2*
G1X1914225Y1789755D1*
G1X1914881Y1789436D1*
G1X1915975Y1789277D1*
G1X1916631Y1789277D1*
G1X1917725Y1789436D1*
G1X1918381Y1789755D1*
G1X1918600Y1790232D1*
G1X1918600Y1790550D1*
G1X1918381Y1791027D1*
G1X1917725Y1791345D1*
G1X1916631Y1791505D1*
G1X1915975Y1791505D1*
G1X1914881Y1791345D1*
G1X1914225Y1791027D1*
G1X1914006Y1790550D1*
G1X1914006Y1790232D1*
G1X1904006Y1779914D2*
G1X1908600Y1779914D1*
G1X1904006Y1778800D2*
G1X1904006Y1781027D1*
G1X1904006Y1782459D2*
G1X1908600Y1784686D1*
G1X1904006Y1784686D2*
G1X1908600Y1782459D1*
G1X1904881Y1789777D2*
G1X1904662Y1790095D1*
G1X1904006Y1790573D1*
G1X1908600Y1790573D1*
G1X1894600Y1787959D2*
G1X1894381Y1787959D1*
G1X1893944Y1788118D1*
G1X1893725Y1788277D1*
G1X1893506Y1788595D1*
G1X1893506Y1789232D1*
G1X1893725Y1789550D1*
G1X1893944Y1789709D1*
G1X1894381Y1789868D1*
G1X1894819Y1789868D1*
G1X1895256Y1789709D1*
G1X1895912Y1789391D1*
G1X1898100Y1787800D1*
G1X1898100Y1790027D1*
G1X1828506Y1789595D2*
G1X1828725Y1789118D1*
G1X1829162Y1788959D1*
G1X1829600Y1788959D1*
G1X1830037Y1789118D1*
G1X1830256Y1789436D1*
G1X1830475Y1790073D1*
G1X1830694Y1790550D1*
G1X1831131Y1790868D1*
G1X1831569Y1791027D1*
G1X1832225Y1791027D1*
G1X1832662Y1790868D1*
G1X1832881Y1790709D1*
G1X1833100Y1790232D1*
G1X1833100Y1789595D1*
G1X1832881Y1789118D1*
G1X1832662Y1788959D1*
G1X1832225Y1788800D1*
G1X1831569Y1788800D1*
G1X1831131Y1788959D1*
G1X1830694Y1789277D1*
G1X1830475Y1789755D1*
G1X1830256Y1790391D1*
G1X1830037Y1790709D1*
G1X1829600Y1790868D1*
G1X1829162Y1790868D1*
G1X1828725Y1790709D1*
G1X1828506Y1790232D1*
G1X1828506Y1789595D1*
G1X1807944Y1783800D2*
G1X1807506Y1784118D1*
G1X1807506Y1784595D1*
G1X1808162Y1785073D1*
G1X1808162Y1785550D1*
G1X1807725Y1785868D1*
G1X1808381Y1786664D2*
G1X1808162Y1786982D1*
G1X1807506Y1787459D1*
G1X1812100Y1787459D1*
G1X1807506Y1789845D2*
G1X1807725Y1789368D1*
G1X1808381Y1789050D1*
G1X1809475Y1788891D1*
G1X1810131Y1788891D1*
G1X1811225Y1789050D1*
G1X1811881Y1789368D1*
G1X1812100Y1789845D1*
G1X1812100Y1790164D1*
G1X1811881Y1790641D1*
G1X1811225Y1790959D1*
G1X1810131Y1791118D1*
G1X1809475Y1791118D1*
G1X1808381Y1790959D1*
G1X1807725Y1790641D1*
G1X1807506Y1790164D1*
G1X1807506Y1789845D1*
G1X1668873Y1608894D2*
G1X1667600Y1604300D1*
G1X1668873Y1608894D2*
G1X1670145Y1604300D1*
G1X1668077Y1605831D2*
G1X1669668Y1605831D1*
G1X1673964Y1607800D2*
G1X1673805Y1608238D1*
G1X1673486Y1608675D1*
G1X1673168Y1608894D1*
G1X1672532Y1608894D1*
G1X1672214Y1608675D1*
G1X1671895Y1608238D1*
G1X1671736Y1607800D1*
G1X1671577Y1607144D1*
G1X1671577Y1606050D1*
G1X1671736Y1605394D1*
G1X1671895Y1604956D1*
G1X1672214Y1604519D1*
G1X1672532Y1604300D1*
G1X1673168Y1604300D1*
G1X1673486Y1604519D1*
G1X1673805Y1604956D1*
G1X1673964Y1605394D1*
G1X1680327Y1608894D2*
G1X1679055Y1604300D1*
G1X1680327Y1608894D2*
G1X1681600Y1604300D1*
G1X1679532Y1605831D2*
G1X1681123Y1605831D1*
G1X1683032Y1608894D2*
G1X1683032Y1604300D1*
G1X1683032Y1608894D2*
G1X1684145Y1608894D1*
G1X1684623Y1608675D1*
G1X1684941Y1608238D1*
G1X1685100Y1607800D1*
G1X1685259Y1607144D1*
G1X1685259Y1606050D1*
G1X1685100Y1605394D1*
G1X1684941Y1604956D1*
G1X1684623Y1604519D1*
G1X1684145Y1604300D1*
G1X1683032Y1604300D1*
G1X1687964Y1608894D2*
G1X1686691Y1604300D1*
G1X1687964Y1608894D2*
G1X1689236Y1604300D1*
G1X1687168Y1605831D2*
G1X1688759Y1605831D1*
G1X1690668Y1608894D2*
G1X1690668Y1604300D1*
G1X1690668Y1608894D2*
G1X1692100Y1608894D1*
G1X1692577Y1608675D1*
G1X1692736Y1608456D1*
G1X1692895Y1608019D1*
G1X1692895Y1607363D1*
G1X1692736Y1606925D1*
G1X1692577Y1606706D1*
G1X1692100Y1606488D1*
G1X1690668Y1606488D1*
G1X1695441Y1608894D2*
G1X1695441Y1604300D1*
G1X1694327Y1608894D2*
G1X1696555Y1608894D1*
G1X1698941Y1608894D2*
G1X1698623Y1608675D1*
G1X1698305Y1608238D1*
G1X1698145Y1607800D1*
G1X1697986Y1607144D1*
G1X1697986Y1606050D1*
G1X1698145Y1605394D1*
G1X1698305Y1604956D1*
G1X1698623Y1604519D1*
G1X1698941Y1604300D1*
G1X1699577Y1604300D1*
G1X1699895Y1604519D1*
G1X1700214Y1604956D1*
G1X1700373Y1605394D1*
G1X1700532Y1606050D1*
G1X1700532Y1607144D1*
G1X1700373Y1607800D1*
G1X1700214Y1608238D1*
G1X1699895Y1608675D1*
G1X1699577Y1608894D1*
G1X1698941Y1608894D1*
G1X1701964Y1608894D2*
G1X1701964Y1604300D1*
G1X1701964Y1608894D2*
G1X1703395Y1608894D1*
G1X1703873Y1608675D1*
G1X1704032Y1608456D1*
G1X1704191Y1608019D1*
G1X1704191Y1607581D1*
G1X1704032Y1607144D1*
G1X1703873Y1606925D1*
G1X1703395Y1606706D1*
G1X1701964Y1606706D1*
G1X1703077Y1606706D2*
G1X1704191Y1604300D1*
G1X1709282Y1608894D2*
G1X1709282Y1604300D1*
G1X1710714Y1608894D2*
G1X1710714Y1604300D1*
G1X1710714Y1608894D2*
G1X1712941Y1604300D1*
G1X1712941Y1608894D2*
G1X1712941Y1604300D1*
G1X1771300Y1628794D2*
G1X1771300Y1624200D1*
G1X1771300Y1628794D2*
G1X1772732Y1628794D1*
G1X1773209Y1628575D1*
G1X1773368Y1628356D1*
G1X1773527Y1627919D1*
G1X1773527Y1627263D1*
G1X1773368Y1626825D1*
G1X1773209Y1626606D1*
G1X1772732Y1626388D1*
G1X1771300Y1626388D1*
G1X1775914Y1628794D2*
G1X1775595Y1628575D1*
G1X1775277Y1628138D1*
G1X1775118Y1627700D1*
G1X1774959Y1627044D1*
G1X1774959Y1625950D1*
G1X1775118Y1625294D1*
G1X1775277Y1624856D1*
G1X1775595Y1624419D1*
G1X1775914Y1624200D1*
G1X1776550Y1624200D1*
G1X1776868Y1624419D1*
G1X1777186Y1624856D1*
G1X1777345Y1625294D1*
G1X1777505Y1625950D1*
G1X1777505Y1627044D1*
G1X1777345Y1627700D1*
G1X1777186Y1628138D1*
G1X1776868Y1628575D1*
G1X1776550Y1628794D1*
G1X1775914Y1628794D1*
G1X1778936Y1628794D2*
G1X1779732Y1624200D1*
G1X1780527Y1628794D2*
G1X1779732Y1624200D1*
G1X1780527Y1628794D2*
G1X1781323Y1624200D1*
G1X1782118Y1628794D2*
G1X1781323Y1624200D1*
G1X1783550Y1628794D2*
G1X1783550Y1624200D1*
G1X1783550Y1628794D2*
G1X1785618Y1628794D1*
G1X1783550Y1626606D2*
G1X1784823Y1626606D1*
G1X1783550Y1624200D2*
G1X1785618Y1624200D1*
G1X1787050Y1628794D2*
G1X1787050Y1624200D1*
G1X1787050Y1628794D2*
G1X1788482Y1628794D1*
G1X1788959Y1628575D1*
G1X1789118Y1628356D1*
G1X1789277Y1627919D1*
G1X1789277Y1627481D1*
G1X1789118Y1627044D1*
G1X1788959Y1626825D1*
G1X1788482Y1626606D1*
G1X1787050Y1626606D1*
G1X1788164Y1626606D2*
G1X1789277Y1624200D1*
G1X1863600Y1628394D2*
G1X1863600Y1623800D1*
G1X1865032Y1628394D2*
G1X1865032Y1623800D1*
G1X1865032Y1628394D2*
G1X1867259Y1623800D1*
G1X1867259Y1628394D2*
G1X1867259Y1623800D1*
G1X1857873Y1634894D2*
G1X1856600Y1630300D1*
G1X1857873Y1634894D2*
G1X1859145Y1630300D1*
G1X1857077Y1631831D2*
G1X1858668Y1631831D1*
G1X1860577Y1634894D2*
G1X1860577Y1630300D1*
G1X1860577Y1634894D2*
G1X1862805Y1630300D1*
G1X1862805Y1634894D2*
G1X1862805Y1630300D1*
G1X1865509Y1634894D2*
G1X1864236Y1630300D1*
G1X1865509Y1634894D2*
G1X1866782Y1630300D1*
G1X1864714Y1631831D2*
G1X1866305Y1631831D1*
G1X1868214Y1634894D2*
G1X1868214Y1630300D1*
G1X1870123Y1630300D1*
G1X1872509Y1634894D2*
G1X1872191Y1634675D1*
G1X1871873Y1634238D1*
G1X1871714Y1633800D1*
G1X1871555Y1633144D1*
G1X1871555Y1632050D1*
G1X1871714Y1631394D1*
G1X1871873Y1630956D1*
G1X1872191Y1630519D1*
G1X1872509Y1630300D1*
G1X1873145Y1630300D1*
G1X1873464Y1630519D1*
G1X1873782Y1630956D1*
G1X1873941Y1631394D1*
G1X1874100Y1632050D1*
G1X1874100Y1633144D1*
G1X1873941Y1633800D1*
G1X1873782Y1634238D1*
G1X1873464Y1634675D1*
G1X1873145Y1634894D1*
G1X1872509Y1634894D1*
G1X1877918Y1633800D2*
G1X1877759Y1634238D1*
G1X1877441Y1634675D1*
G1X1877123Y1634894D1*
G1X1876486Y1634894D1*
G1X1876168Y1634675D1*
G1X1875850Y1634238D1*
G1X1875691Y1633800D1*
G1X1875532Y1633144D1*
G1X1875532Y1632050D1*
G1X1875691Y1631394D1*
G1X1875850Y1630956D1*
G1X1876168Y1630519D1*
G1X1876486Y1630300D1*
G1X1877123Y1630300D1*
G1X1877441Y1630519D1*
G1X1877759Y1630956D1*
G1X1877918Y1631394D1*
G1X1877918Y1632050D1*
G1X1877123Y1632050D2*
G1X1877918Y1632050D1*
G1X1697200Y1716994D2*
G1X1697200Y1713713D1*
G1X1697359Y1713056D1*
G1X1697677Y1712619D1*
G1X1698155Y1712400D1*
G1X1698473Y1712400D1*
G1X1698950Y1712619D1*
G1X1699268Y1713056D1*
G1X1699427Y1713713D1*
G1X1699427Y1716994D1*
G1X1703086Y1716338D2*
G1X1702768Y1716775D1*
G1X1702291Y1716994D1*
G1X1701655Y1716994D1*
G1X1701177Y1716775D1*
G1X1700859Y1716338D1*
G1X1700859Y1715900D1*
G1X1701018Y1715463D1*
G1X1701177Y1715244D1*
G1X1701495Y1715025D1*
G1X1702450Y1714588D1*
G1X1702768Y1714369D1*
G1X1702927Y1714150D1*
G1X1703086Y1713713D1*
G1X1703086Y1713056D1*
G1X1702768Y1712619D1*
G1X1702291Y1712400D1*
G1X1701655Y1712400D1*
G1X1701177Y1712619D1*
G1X1700859Y1713056D1*
G1X1704518Y1716994D2*
G1X1704518Y1712400D1*
G1X1704518Y1716994D2*
G1X1705950Y1716994D1*
G1X1706427Y1716775D1*
G1X1706586Y1716556D1*
G1X1706745Y1716119D1*
G1X1706745Y1715681D1*
G1X1706586Y1715244D1*
G1X1706427Y1715025D1*
G1X1705950Y1714806D1*
G1X1704518Y1714806D2*
G1X1705950Y1714806D1*
G1X1706427Y1714588D1*
G1X1706586Y1714369D1*
G1X1706745Y1713931D1*
G1X1706745Y1713275D1*
G1X1706586Y1712838D1*
G1X1706427Y1712619D1*
G1X1705950Y1712400D1*
G1X1704518Y1712400D1*
G1X1820100Y1783394D2*
G1X1820100Y1778800D1*
G1X1820100Y1783394D2*
G1X1821214Y1783394D1*
G1X1821691Y1783175D1*
G1X1822009Y1782738D1*
G1X1822168Y1782300D1*
G1X1822327Y1781644D1*
G1X1822327Y1780550D1*
G1X1822168Y1779894D1*
G1X1822009Y1779456D1*
G1X1821691Y1779019D1*
G1X1821214Y1778800D1*
G1X1820100Y1778800D1*
G1X1823759Y1783394D2*
G1X1823759Y1778800D1*
G1X1827577Y1782300D2*
G1X1827418Y1782738D1*
G1X1827100Y1783175D1*
G1X1826782Y1783394D1*
G1X1826145Y1783394D1*
G1X1825827Y1783175D1*
G1X1825509Y1782738D1*
G1X1825350Y1782300D1*
G1X1825191Y1781644D1*
G1X1825191Y1780550D1*
G1X1825350Y1779894D1*
G1X1825509Y1779456D1*
G1X1825827Y1779019D1*
G1X1826145Y1778800D1*
G1X1826782Y1778800D1*
G1X1827100Y1779019D1*
G1X1827418Y1779456D1*
G1X1827577Y1779894D1*
G1X1827577Y1780550D1*
G1X1826782Y1780550D2*
G1X1827577Y1780550D1*
G1X1829009Y1783394D2*
G1X1829009Y1778800D1*
G1X1831555Y1783394D2*
G1X1831555Y1778800D1*
G1X1830441Y1783394D2*
G1X1832668Y1783394D1*
G1X1835373Y1783394D2*
G1X1834100Y1778800D1*
G1X1835373Y1783394D2*
G1X1836645Y1778800D1*
G1X1834577Y1780331D2*
G1X1836168Y1780331D1*
G1X1838077Y1783394D2*
G1X1838077Y1778800D1*
G1X1839986Y1778800D1*
G1X1846191Y1784269D2*
G1X1845873Y1783831D1*
G1X1845555Y1783175D1*
G1X1845236Y1782300D1*
G1X1845077Y1781206D1*
G1X1845077Y1780331D1*
G1X1845236Y1779238D1*
G1X1845555Y1778362D1*
G1X1845873Y1777706D1*
G1X1846191Y1777269D1*
G1X1847623Y1783394D2*
G1X1847623Y1778800D1*
G1X1847623Y1783394D2*
G1X1849055Y1783394D1*
G1X1849532Y1783175D1*
G1X1849691Y1782956D1*
G1X1849850Y1782519D1*
G1X1849850Y1781863D1*
G1X1849691Y1781425D1*
G1X1849532Y1781206D1*
G1X1849055Y1780988D1*
G1X1847623Y1780988D1*
G1X1851282Y1783394D2*
G1X1852077Y1778800D1*
G1X1852873Y1783394D2*
G1X1852077Y1778800D1*
G1X1852873Y1783394D2*
G1X1853668Y1778800D1*
G1X1854464Y1783394D2*
G1X1853668Y1778800D1*
G1X1855895Y1783394D2*
G1X1855895Y1778800D1*
G1X1855895Y1783394D2*
G1X1857168Y1778800D1*
G1X1858441Y1783394D2*
G1X1857168Y1778800D1*
G1X1858441Y1783394D2*
G1X1858441Y1778800D1*
G1X1859873Y1782956D2*
G1X1860191Y1783394D1*
G1X1860668Y1783394D1*
G1X1861145Y1782738D1*
G1X1861623Y1782738D1*
G1X1861941Y1783175D1*
G1X1862736Y1784269D2*
G1X1863055Y1783831D1*
G1X1863373Y1783175D1*
G1X1863691Y1782300D1*
G1X1863850Y1781206D1*
G1X1863850Y1780331D1*
G1X1863691Y1779238D1*
G1X1863373Y1778362D1*
G1X1863055Y1777706D1*
G1X1862736Y1777269D1*
G1X1706100Y1792394D2*
G1X1706100Y1787800D1*
G1X1706100Y1792394D2*
G1X1707532Y1792394D1*
G1X1708009Y1792175D1*
G1X1708168Y1791956D1*
G1X1708327Y1791519D1*
G1X1708327Y1791081D1*
G1X1708168Y1790644D1*
G1X1708009Y1790425D1*
G1X1707532Y1790206D1*
G1X1706100Y1790206D1*
G1X1707214Y1790206D2*
G1X1708327Y1787800D1*
G1X1709759Y1792394D2*
G1X1709759Y1787800D1*
G1X1709759Y1792394D2*
G1X1711827Y1792394D1*
G1X1709759Y1790206D2*
G1X1711032Y1790206D1*
G1X1709759Y1787800D2*
G1X1711827Y1787800D1*
G1X1715486Y1791738D2*
G1X1715168Y1792175D1*
G1X1714691Y1792394D1*
G1X1714055Y1792394D1*
G1X1713577Y1792175D1*
G1X1713259Y1791738D1*
G1X1713259Y1791300D1*
G1X1713418Y1790863D1*
G1X1713577Y1790644D1*
G1X1713895Y1790425D1*
G1X1714850Y1789988D1*
G1X1715168Y1789769D1*
G1X1715327Y1789550D1*
G1X1715486Y1789113D1*
G1X1715486Y1788456D1*
G1X1715168Y1788019D1*
G1X1714691Y1787800D1*
G1X1714055Y1787800D1*
G1X1713577Y1788019D1*
G1X1713259Y1788456D1*
G1X1716918Y1792394D2*
G1X1716918Y1787800D1*
G1X1716918Y1792394D2*
G1X1718986Y1792394D1*
G1X1716918Y1790206D2*
G1X1718191Y1790206D1*
G1X1716918Y1787800D2*
G1X1718986Y1787800D1*
G1X1721532Y1792394D2*
G1X1721532Y1787800D1*
G1X1720418Y1792394D2*
G1X1722645Y1792394D1*
G1X1883944Y1785800D2*
G1X1883506Y1786118D1*
G1X1883506Y1786595D1*
G1X1884162Y1787073D1*
G1X1884162Y1787550D1*
G1X1883725Y1787868D1*
G1X1883506Y1788982D2*
G1X1883506Y1790732D1*
G1X1885256Y1789777D1*
G1X1885256Y1790255D1*
G1X1885475Y1790573D1*
G1X1885694Y1790732D1*
G1X1886350Y1790891D1*
G1X1886787Y1790891D1*
G1X1887444Y1790732D1*
G1X1887881Y1790414D1*
G1X1888100Y1789936D1*
G1X1888100Y1789459D1*
G1X1887881Y1788982D1*
G1X1887662Y1788823D1*
G1X1887225Y1788664D1*
G1X1873506Y1790391D2*
G1X1876569Y1788800D1*
G1X1876569Y1791186D1*
G1X1873506Y1790391D2*
G1X1878100Y1790391D1*
G1X1863944Y1785800D2*
G1X1863506Y1786118D1*
G1X1863506Y1786595D1*
G1X1864162Y1787073D1*
G1X1864162Y1787550D1*
G1X1863725Y1787868D1*
G1X1863506Y1790732D2*
G1X1863506Y1789141D1*
G1X1865475Y1788982D1*
G1X1865256Y1789141D1*
G1X1865037Y1789618D1*
G1X1865037Y1790095D1*
G1X1865256Y1790573D1*
G1X1865694Y1790891D1*
G1X1866350Y1791050D1*
G1X1866787Y1790891D1*
G1X1867444Y1790732D1*
G1X1867881Y1790414D1*
G1X1868100Y1789936D1*
G1X1868100Y1789459D1*
G1X1867881Y1788982D1*
G1X1867662Y1788823D1*
G1X1867225Y1788664D1*
G1X1853944Y1785800D2*
G1X1853506Y1786118D1*
G1X1853506Y1786595D1*
G1X1854162Y1787073D1*
G1X1854162Y1787550D1*
G1X1853725Y1787868D1*
G1X1854162Y1790573D2*
G1X1853725Y1790414D1*
G1X1853506Y1789936D1*
G1X1853506Y1789618D1*
G1X1853725Y1789141D1*
G1X1854381Y1788823D1*
G1X1855475Y1788664D1*
G1X1856569Y1788664D1*
G1X1857444Y1788823D1*
G1X1857881Y1789141D1*
G1X1858100Y1789618D1*
G1X1858100Y1789777D1*
G1X1857881Y1790255D1*
G1X1857444Y1790573D1*
G1X1856787Y1790732D1*
G1X1856569Y1790732D1*
G1X1855912Y1790573D1*
G1X1855475Y1790255D1*
G1X1855256Y1789777D1*
G1X1855256Y1789618D1*
G1X1855475Y1789141D1*
G1X1855912Y1788823D1*
G1X1856569Y1788664D1*
G1X1843506Y1791027D2*
G1X1848100Y1789436D1*
G1X1843506Y1788800D2*
G1X1843506Y1791027D1*
G1X1817944Y1785800D2*
G1X1817506Y1786118D1*
G1X1817506Y1786595D1*
G1X1818162Y1787073D1*
G1X1818162Y1787550D1*
G1X1817725Y1787868D1*
G1X1819037Y1790732D2*
G1X1819694Y1790573D1*
G1X1820131Y1790255D1*
G1X1820350Y1789777D1*
G1X1820350Y1789618D1*
G1X1820131Y1789141D1*
G1X1819694Y1788823D1*
G1X1819037Y1788664D1*
G1X1818819Y1788664D1*
G1X1818162Y1788823D1*
G1X1817725Y1789141D1*
G1X1817506Y1789618D1*
G1X1817506Y1789777D1*
G1X1817725Y1790255D1*
G1X1818162Y1790573D1*
G1X1819037Y1790732D1*
G1X1820131Y1790732D1*
G1X1821225Y1790573D1*
G1X1821881Y1790255D1*
G1X1822100Y1789777D1*
G1X1822100Y1789459D1*
G1X1821881Y1788982D1*
G1X1821444Y1788823D1*
G1X1797944Y1784800D2*
G1X1797506Y1785118D1*
G1X1797506Y1785595D1*
G1X1798162Y1786073D1*
G1X1798162Y1786550D1*
G1X1797725Y1786868D1*
G1X1798381Y1787664D2*
G1X1798162Y1787982D1*
G1X1797506Y1788459D1*
G1X1802100Y1788459D1*
G1X1798381Y1789891D2*
G1X1798162Y1790209D1*
G1X1797506Y1790686D1*
G1X1802100Y1790686D1*
G1X1788381Y1786800D2*
G1X1788162Y1787118D1*
G1X1787506Y1787595D1*
G1X1792100Y1787595D1*
G1X1788600Y1789186D2*
G1X1788381Y1789186D1*
G1X1787944Y1789345D1*
G1X1787725Y1789505D1*
G1X1787506Y1789823D1*
G1X1787506Y1790459D1*
G1X1787725Y1790777D1*
G1X1787944Y1790936D1*
G1X1788381Y1791095D1*
G1X1788819Y1791095D1*
G1X1789256Y1790936D1*
G1X1789912Y1790618D1*
G1X1792100Y1789027D1*
G1X1792100Y1791255D1*
G1X1778381Y1786800D2*
G1X1778162Y1787118D1*
G1X1777506Y1787595D1*
G1X1782100Y1787595D1*
G1X1777506Y1789345D2*
G1X1777506Y1791095D1*
G1X1779256Y1790141D1*
G1X1779256Y1790618D1*
G1X1779475Y1790936D1*
G1X1779694Y1791095D1*
G1X1780350Y1791255D1*
G1X1780787Y1791255D1*
G1X1781444Y1791095D1*
G1X1781881Y1790777D1*
G1X1782100Y1790300D1*
G1X1782100Y1789823D1*
G1X1781881Y1789345D1*
G1X1781662Y1789186D1*
G1X1781225Y1789027D1*
G1X1768600Y1784186D2*
G1X1768162Y1784027D1*
G1X1767725Y1783709D1*
G1X1767506Y1783391D1*
G1X1767506Y1782755D1*
G1X1767725Y1782436D1*
G1X1768162Y1782118D1*
G1X1768600Y1781959D1*
G1X1769256Y1781800D1*
G1X1770350Y1781800D1*
G1X1771006Y1781959D1*
G1X1771444Y1782118D1*
G1X1771881Y1782436D1*
G1X1772100Y1782755D1*
G1X1772100Y1783391D1*
G1X1771881Y1783709D1*
G1X1771444Y1784027D1*
G1X1771006Y1784186D1*
G1X1770350Y1784186D1*
G1X1770350Y1783391D2*
G1X1770350Y1784186D1*
G1X1767506Y1785618D2*
G1X1772100Y1785618D1*
G1X1767506Y1785618D2*
G1X1772100Y1787845D1*
G1X1767506Y1787845D2*
G1X1772100Y1787845D1*
G1X1767506Y1789277D2*
G1X1772100Y1789277D1*
G1X1767506Y1789277D2*
G1X1767506Y1790391D1*
G1X1767725Y1790868D1*
G1X1768162Y1791186D1*
G1X1768600Y1791345D1*
G1X1769256Y1791505D1*
G1X1770350Y1791505D1*
G1X1771006Y1791345D1*
G1X1771444Y1791186D1*
G1X1771881Y1790868D1*
G1X1772100Y1790391D1*
G1X1772100Y1789277D1*
G1X1757506Y1781073D2*
G1X1762100Y1779800D1*
G1X1757506Y1781073D2*
G1X1762100Y1782345D1*
G1X1760569Y1780277D2*
G1X1760569Y1781868D1*
G1X1757506Y1783777D2*
G1X1762100Y1783777D1*
G1X1757506Y1783777D2*
G1X1757506Y1785209D1*
G1X1757725Y1785686D1*
G1X1757944Y1785845D1*
G1X1758381Y1786005D1*
G1X1758819Y1786005D1*
G1X1759256Y1785845D1*
G1X1759475Y1785686D1*
G1X1759694Y1785209D1*
G1X1759694Y1783777D1*
G1X1759694Y1784891D2*
G1X1762100Y1786005D1*
G1X1757506Y1787436D2*
G1X1762100Y1787436D1*
G1X1757506Y1787436D2*
G1X1757506Y1789505D1*
G1X1759694Y1787436D2*
G1X1759694Y1788709D1*
G1X1762100Y1787436D2*
G1X1762100Y1789505D1*
G1X1757506Y1790936D2*
G1X1762100Y1790936D1*
G1X1757506Y1790936D2*
G1X1757506Y1793005D1*
G1X1759694Y1790936D2*
G1X1759694Y1792209D1*
G1X1748162Y1784027D2*
G1X1747725Y1783709D1*
G1X1747506Y1783232D1*
G1X1747506Y1782595D1*
G1X1747725Y1782118D1*
G1X1748162Y1781800D1*
G1X1748600Y1781800D1*
G1X1749037Y1781959D1*
G1X1749256Y1782118D1*
G1X1749475Y1782436D1*
G1X1749912Y1783391D1*
G1X1750131Y1783709D1*
G1X1750350Y1783868D1*
G1X1750787Y1784027D1*
G1X1751444Y1784027D1*
G1X1751881Y1783709D1*
G1X1752100Y1783232D1*
G1X1752100Y1782595D1*
G1X1751881Y1782118D1*
G1X1751444Y1781800D1*
G1X1747506Y1785459D2*
G1X1752100Y1785459D1*
G1X1747506Y1785459D2*
G1X1747506Y1786573D1*
G1X1747725Y1787050D1*
G1X1748162Y1787368D1*
G1X1748600Y1787527D1*
G1X1749256Y1787686D1*
G1X1750350Y1787686D1*
G1X1751006Y1787527D1*
G1X1751444Y1787368D1*
G1X1751881Y1787050D1*
G1X1752100Y1786573D1*
G1X1752100Y1785459D1*
G1X1747506Y1790391D2*
G1X1752100Y1789118D1*
G1X1747506Y1790391D2*
G1X1752100Y1791664D1*
G1X1750569Y1789595D2*
G1X1750569Y1791186D1*
G1X1738162Y1785027D2*
G1X1737725Y1784709D1*
G1X1737506Y1784232D1*
G1X1737506Y1783595D1*
G1X1737725Y1783118D1*
G1X1738162Y1782800D1*
G1X1738600Y1782800D1*
G1X1739037Y1782959D1*
G1X1739256Y1783118D1*
G1X1739475Y1783436D1*
G1X1739912Y1784391D1*
G1X1740131Y1784709D1*
G1X1740350Y1784868D1*
G1X1740787Y1785027D1*
G1X1741444Y1785027D1*
G1X1741881Y1784709D1*
G1X1742100Y1784232D1*
G1X1742100Y1783595D1*
G1X1741881Y1783118D1*
G1X1741444Y1782800D1*
G1X1738600Y1788845D2*
G1X1738162Y1788686D1*
G1X1737725Y1788368D1*
G1X1737506Y1788050D1*
G1X1737506Y1787414D1*
G1X1737725Y1787095D1*
G1X1738162Y1786777D1*
G1X1738600Y1786618D1*
G1X1739256Y1786459D1*
G1X1740350Y1786459D1*
G1X1741006Y1786618D1*
G1X1741444Y1786777D1*
G1X1741881Y1787095D1*
G1X1742100Y1787414D1*
G1X1742100Y1788050D1*
G1X1741881Y1788368D1*
G1X1741444Y1788686D1*
G1X1741006Y1788845D1*
G1X1737506Y1790277D2*
G1X1742100Y1790277D1*
G1X1742100Y1792186D1*
G1X1773055Y1709394D2*
G1X1772736Y1709175D1*
G1X1772418Y1708738D1*
G1X1772259Y1708300D1*
G1X1772100Y1707644D1*
G1X1772100Y1706550D1*
G1X1772259Y1705894D1*
G1X1772418Y1705456D1*
G1X1772736Y1705019D1*
G1X1773055Y1704800D1*
G1X1773691Y1704800D1*
G1X1774009Y1705019D1*
G1X1774327Y1705456D1*
G1X1774486Y1705894D1*
G1X1774645Y1706550D1*
G1X1774645Y1707644D1*
G1X1774486Y1708300D1*
G1X1774327Y1708738D1*
G1X1774009Y1709175D1*
G1X1773691Y1709394D1*
G1X1773055Y1709394D1*
G1X1776077Y1709394D2*
G1X1776077Y1704800D1*
G1X1776077Y1709394D2*
G1X1777509Y1709394D1*
G1X1777986Y1709175D1*
G1X1778145Y1708956D1*
G1X1778305Y1708519D1*
G1X1778305Y1707863D1*
G1X1778145Y1707425D1*
G1X1777986Y1707206D1*
G1X1777509Y1706988D1*
G1X1776077Y1706988D1*
G1X1780850Y1709394D2*
G1X1780850Y1704800D1*
G1X1779736Y1709394D2*
G1X1781964Y1709394D1*
G1X1908600Y1721019D2*
G1X1908918Y1721238D1*
G1X1909395Y1721894D1*
G1X1909395Y1717300D1*
G1X1761820Y1693674D2*
G1X1761820Y1689080D1*
G1X1761820Y1693674D2*
G1X1764047Y1689080D1*
G1X1764047Y1693674D2*
G1X1764047Y1689080D1*
G1X1766434Y1693674D2*
G1X1766115Y1693455D1*
G1X1765797Y1693018D1*
G1X1765638Y1692580D1*
G1X1765479Y1691924D1*
G1X1765479Y1690830D1*
G1X1765638Y1690174D1*
G1X1765797Y1689736D1*
G1X1766115Y1689299D1*
G1X1766434Y1689080D1*
G1X1767070Y1689080D1*
G1X1767388Y1689299D1*
G1X1767706Y1689736D1*
G1X1767865Y1690174D1*
G1X1768025Y1690830D1*
G1X1768025Y1691924D1*
G1X1767865Y1692580D1*
G1X1767706Y1693018D1*
G1X1767388Y1693455D1*
G1X1767070Y1693674D1*
G1X1766434Y1693674D1*
G1X1769456Y1693674D2*
G1X1769456Y1689080D1*
G1X1769456Y1693674D2*
G1X1770888Y1693674D1*
G1X1771365Y1693455D1*
G1X1771525Y1693236D1*
G1X1771684Y1692799D1*
G1X1771684Y1692361D1*
G1X1771525Y1691924D1*
G1X1771365Y1691705D1*
G1X1770888Y1691486D1*
G1X1769456Y1691486D1*
G1X1770570Y1691486D2*
G1X1771684Y1689080D1*
G1X1773115Y1693674D2*
G1X1773115Y1689080D1*
G1X1773115Y1693674D2*
G1X1774388Y1689080D1*
G1X1775661Y1693674D2*
G1X1774388Y1689080D1*
G1X1775661Y1693674D2*
G1X1775661Y1689080D1*
G1X1898805Y1699854D2*
G1X1898486Y1699635D1*
G1X1898168Y1699198D1*
G1X1898009Y1698760D1*
G1X1897850Y1698104D1*
G1X1897850Y1697010D1*
G1X1898009Y1696354D1*
G1X1898168Y1695916D1*
G1X1898486Y1695479D1*
G1X1898805Y1695260D1*
G1X1899441Y1695260D1*
G1X1899759Y1695479D1*
G1X1900077Y1695916D1*
G1X1900236Y1696354D1*
G1X1900395Y1697010D1*
G1X1900395Y1698104D1*
G1X1900236Y1698760D1*
G1X1900077Y1699198D1*
G1X1899759Y1699635D1*
G1X1899441Y1699854D1*
G1X1898805Y1699854D1*
G1X1901827Y1699854D2*
G1X1901827Y1695260D1*
G1X1901827Y1699854D2*
G1X1903259Y1699854D1*
G1X1903736Y1699635D1*
G1X1903895Y1699416D1*
G1X1904055Y1698979D1*
G1X1904055Y1698323D1*
G1X1903895Y1697885D1*
G1X1903736Y1697666D1*
G1X1903259Y1697448D1*
G1X1901827Y1697448D1*
G1X1906600Y1699854D2*
G1X1906600Y1695260D1*
G1X1905486Y1699854D2*
G1X1907714Y1699854D1*
G1X1850706Y1717568D2*
G1X1850706Y1715977D1*
G1X1852675Y1715818D1*
G1X1852456Y1715977D1*
G1X1852237Y1716455D1*
G1X1852237Y1716932D1*
G1X1852456Y1717409D1*
G1X1852894Y1717727D1*
G1X1853550Y1717886D1*
G1X1853987Y1717727D1*
G1X1854644Y1717568D1*
G1X1855081Y1717250D1*
G1X1855300Y1716773D1*
G1X1855300Y1716295D1*
G1X1855081Y1715818D1*
G1X1854862Y1715659D1*
G1X1854425Y1715500D1*
G1X1850706Y1719318D2*
G1X1855300Y1720591D1*
G1X1850706Y1721864D2*
G1X1855300Y1720591D1*
G1X1842606Y1715818D2*
G1X1842606Y1717568D1*
G1X1844356Y1716614D1*
G1X1844356Y1717091D1*
G1X1844575Y1717409D1*
G1X1844794Y1717568D1*
G1X1845450Y1717727D1*
G1X1845887Y1717727D1*
G1X1846544Y1717568D1*
G1X1846981Y1717250D1*
G1X1847200Y1716773D1*
G1X1847200Y1716295D1*
G1X1846981Y1715818D1*
G1X1846762Y1715659D1*
G1X1846325Y1715500D1*
G1X1846762Y1719318D2*
G1X1846981Y1719159D1*
G1X1847200Y1719318D1*
G1X1846981Y1719477D1*
G1X1846762Y1719318D1*
G1X1842606Y1721227D2*
G1X1842606Y1722977D1*
G1X1844356Y1722023D1*
G1X1844356Y1722500D1*
G1X1844575Y1722818D1*
G1X1844794Y1722977D1*
G1X1845450Y1723136D1*
G1X1845887Y1723136D1*
G1X1846544Y1722977D1*
G1X1846981Y1722659D1*
G1X1847200Y1722182D1*
G1X1847200Y1721705D1*
G1X1846981Y1721227D1*
G1X1846762Y1721068D1*
G1X1846325Y1720909D1*
G1X1842606Y1724568D2*
G1X1847200Y1725841D1*
G1X1842606Y1727114D2*
G1X1847200Y1725841D1*
G1X1835800Y1715659D2*
G1X1835581Y1715659D1*
G1X1835144Y1715818D1*
G1X1834925Y1715977D1*
G1X1834706Y1716295D1*
G1X1834706Y1716932D1*
G1X1834925Y1717250D1*
G1X1835144Y1717409D1*
G1X1835581Y1717568D1*
G1X1836019Y1717568D1*
G1X1836456Y1717409D1*
G1X1837112Y1717091D1*
G1X1839300Y1715500D1*
G1X1839300Y1717727D1*
G1X1838862Y1719318D2*
G1X1839081Y1719159D1*
G1X1839300Y1719318D1*
G1X1839081Y1719477D1*
G1X1838862Y1719318D1*
G1X1834706Y1722977D2*
G1X1834706Y1721386D1*
G1X1836675Y1721227D1*
G1X1836456Y1721386D1*
G1X1836237Y1721864D1*
G1X1836237Y1722341D1*
G1X1836456Y1722818D1*
G1X1836894Y1723136D1*
G1X1837550Y1723295D1*
G1X1837987Y1723136D1*
G1X1838644Y1722977D1*
G1X1839081Y1722659D1*
G1X1839300Y1722182D1*
G1X1839300Y1721705D1*
G1X1839081Y1721227D1*
G1X1838862Y1721068D1*
G1X1838425Y1720909D1*
G1X1834706Y1724727D2*
G1X1839300Y1726000D1*
G1X1834706Y1727273D2*
G1X1839300Y1726000D1*
G1X1826606Y1715900D2*
G1X1831200Y1715900D1*
G1X1826606Y1715900D2*
G1X1826606Y1717968D1*
G1X1828794Y1715900D2*
G1X1828794Y1717173D1*
G1X1831200Y1715900D2*
G1X1831200Y1717968D1*
G1X1826606Y1719400D2*
G1X1831200Y1721627D1*
G1X1826606Y1721627D2*
G1X1831200Y1719400D1*
G1X1826606Y1724173D2*
G1X1831200Y1724173D1*
G1X1826606Y1723059D2*
G1X1826606Y1725286D1*
G1X1914754Y1787450D2*
G1X1917446Y1787450D1*
G1X1916100Y1785431D1*
G1X1914754Y1787450D1*
G1X1907446Y1786150D2*
G1X1904754Y1786150D1*
G1X1906100Y1788169D1*
G1X1907446Y1786150D1*
G1X1914841Y1787320D2*
G1X1917359Y1787320D1*
G1X1915261Y1786690D2*
G1X1916939Y1786690D1*
G1X1915681Y1786060D2*
G1X1916519Y1786060D1*
G1X1905173Y1786779D2*
G1X1907027Y1786779D1*
G1X1905593Y1787409D2*
G1X1906607Y1787409D1*
G1X1906013Y1788039D2*
G1X1906187Y1788039D1*
G1X1855100Y1616800D2*
G1X1855100Y1635800D1*
G1X1856100Y1636800D1*
G1X1877600Y1636800D1*
G1X1879600Y1634800D1*
G1X1879600Y1622800D1*
G1X1880600Y1621800D1*
G1X1883600Y1621800D1*
G1X1769100Y1616800D2*
G1X1769100Y1628200D1*
G1X1771100Y1630200D1*
G1X1809500Y1630200D1*
G1X1816100Y1623800D1*
G1X1850600Y1623800D1*
G1X1852100Y1622300D1*
G1X1852100Y1616800D1*
G1X1780100Y1784800D2*
G1X1784100Y1780800D1*
G1X1818100Y1780800D1*
G1X1865100Y1780800D2*
G1X1894100Y1780800D1*
G1X1899100Y1785800D1*
G1X1682050Y1666850D2*
G1X1678900Y1663700D1*
G1X1685500Y1662100D2*
G1X1684700Y1659700D1*
G1X1680680Y1701866D2*
G1X1682700Y1706300D1*
G1X1675900Y1701000D2*
G1X1677400Y1702500D1*
G1X1677400Y1705700D1*
G1X1670100Y1704600D2*
G1X1670100Y1706400D1*
G1X1847746Y1660461D2*
G75*
G54D197*
G3X1847746Y1660461I-985J0D1*
G74*
G1X1729100Y1633800D2*
G54D198*
G1X1729100Y1639800D1*
G1X1803500Y1644700D2*
G54D199*
G1X1804100Y1645300D1*
G1X1803600Y1644400D2*
G1X1804700Y1645500D1*
G1X1803500Y1644000D2*
G1X1805000Y1645500D1*
G1X1803700Y1643700D2*
G1X1805500Y1645500D1*
G1X1741281Y1671032D2*
G75*
G54D218*
G3X1741281Y1671032I-1181J0D1*
G74*
M2*
