*
%LPD*%
%LNDC2026C1-BP*%
%FSLAX25Y25*%
%MOIN*%
%AD*%
%AD*%
%ADD11C,0.01*%
%ADD171R,0.0374X0.039370079*%
%ADD172R,0.039370079X0.0374*%
%ADD173R,0.045279921X0.057090157*%
%ADD177R,0.039370079X0.035429921*%
%ADD178R,0.035429921X0.039370079*%
%ADD179R,0.039370079X0.057090157*%
%ADD188R,0.048029921X0.02165*%
%ADD204R,0.070870079X0.045279921*%
%ADD216R,0.057090157X0.017*%
%ADD217R,0.039370079X0.011809843*%
G54D11*
%SRX1Y1I0.0J0.0*%
G1X1795100Y1567733D2*
G1X1795100Y1561170D1*
G1X1797827Y1561170D1*
G1X1799873Y1567733D2*
G1X1799873Y1561170D1*
G1X1801918Y1567733D2*
G1X1801918Y1561170D1*
G1X1801918Y1567733D2*
G1X1805100Y1561170D1*
G1X1805100Y1567733D2*
G1X1805100Y1561170D1*
G1X1807145Y1567733D2*
G1X1807145Y1561170D1*
G1X1807145Y1567733D2*
G1X1810100Y1567733D1*
G1X1807145Y1564608D2*
G1X1808964Y1564608D1*
G1X1807145Y1561170D2*
G1X1810100Y1561170D1*
G1X1813964Y1567733D2*
G1X1812145Y1561170D1*
G1X1813964Y1567733D2*
G1X1815782Y1561170D1*
G1X1812827Y1563358D2*
G1X1815100Y1563358D1*
G1X1817827Y1567733D2*
G1X1817827Y1561170D1*
G1X1817827Y1567733D2*
G1X1819873Y1567733D1*
G1X1820555Y1567420D1*
G1X1820782Y1567108D1*
G1X1821009Y1566483D1*
G1X1821009Y1565858D1*
G1X1820782Y1565233D1*
G1X1820555Y1564920D1*
G1X1819873Y1564608D1*
G1X1817827Y1564608D1*
G1X1819418Y1564608D2*
G1X1821009Y1561170D1*
G1X1829873Y1567733D2*
G1X1829873Y1561170D1*
G1X1828282Y1567733D2*
G1X1831464Y1567733D1*
G1X1833509Y1567733D2*
G1X1833509Y1561170D1*
G1X1833509Y1567733D2*
G1X1836464Y1567733D1*
G1X1833509Y1564608D2*
G1X1835327Y1564608D1*
G1X1833509Y1561170D2*
G1X1836464Y1561170D1*
G1X1841918Y1566170D2*
G1X1841691Y1566795D1*
G1X1841236Y1567420D1*
G1X1840782Y1567733D1*
G1X1839873Y1567733D1*
G1X1839418Y1567420D1*
G1X1838964Y1566795D1*
G1X1838736Y1566170D1*
G1X1838509Y1565233D1*
G1X1838509Y1563670D1*
G1X1838736Y1562733D1*
G1X1838964Y1562108D1*
G1X1839418Y1561483D1*
G1X1839873Y1561170D1*
G1X1840782Y1561170D1*
G1X1841236Y1561483D1*
G1X1841691Y1562108D1*
G1X1841918Y1562733D1*
G1X1843964Y1567733D2*
G1X1843964Y1561170D1*
G1X1847145Y1567733D2*
G1X1847145Y1561170D1*
G1X1843964Y1564608D2*
G1X1847145Y1564608D1*
G1X1849191Y1567733D2*
G1X1849191Y1561170D1*
G1X1849191Y1567733D2*
G1X1852373Y1561170D1*
G1X1852373Y1567733D2*
G1X1852373Y1561170D1*
G1X1855782Y1567733D2*
G1X1855327Y1567420D1*
G1X1854873Y1566795D1*
G1X1854645Y1566170D1*
G1X1854418Y1565233D1*
G1X1854418Y1563670D1*
G1X1854645Y1562733D1*
G1X1854873Y1562108D1*
G1X1855327Y1561483D1*
G1X1855782Y1561170D1*
G1X1856691Y1561170D1*
G1X1857145Y1561483D1*
G1X1857600Y1562108D1*
G1X1857827Y1562733D1*
G1X1858055Y1563670D1*
G1X1858055Y1565233D1*
G1X1857827Y1566170D1*
G1X1857600Y1566795D1*
G1X1857145Y1567420D1*
G1X1856691Y1567733D1*
G1X1855782Y1567733D1*
G1X1860100Y1567733D2*
G1X1860100Y1561170D1*
G1X1862827Y1561170D1*
G1X1866236Y1567733D2*
G1X1865782Y1567420D1*
G1X1865327Y1566795D1*
G1X1865100Y1566170D1*
G1X1864873Y1565233D1*
G1X1864873Y1563670D1*
G1X1865100Y1562733D1*
G1X1865327Y1562108D1*
G1X1865782Y1561483D1*
G1X1866236Y1561170D1*
G1X1867145Y1561170D1*
G1X1867600Y1561483D1*
G1X1868055Y1562108D1*
G1X1868282Y1562733D1*
G1X1868509Y1563670D1*
G1X1868509Y1565233D1*
G1X1868282Y1566170D1*
G1X1868055Y1566795D1*
G1X1867600Y1567420D1*
G1X1867145Y1567733D1*
G1X1866236Y1567733D1*
G1X1873964Y1566170D2*
G1X1873736Y1566795D1*
G1X1873282Y1567420D1*
G1X1872827Y1567733D1*
G1X1871918Y1567733D1*
G1X1871464Y1567420D1*
G1X1871009Y1566795D1*
G1X1870782Y1566170D1*
G1X1870555Y1565233D1*
G1X1870555Y1563670D1*
G1X1870782Y1562733D1*
G1X1871009Y1562108D1*
G1X1871464Y1561483D1*
G1X1871918Y1561170D1*
G1X1872827Y1561170D1*
G1X1873282Y1561483D1*
G1X1873736Y1562108D1*
G1X1873964Y1562733D1*
G1X1873964Y1563670D1*
G1X1872827Y1563670D2*
G1X1873964Y1563670D1*
G1X1876009Y1567733D2*
G1X1877827Y1564608D1*
G1X1877827Y1561170D1*
G1X1879645Y1567733D2*
G1X1877827Y1564608D1*
G1X1886918Y1567733D2*
G1X1886918Y1561170D1*
G1X1892145Y1566795D2*
G1X1891691Y1567420D1*
G1X1891009Y1567733D1*
G1X1890100Y1567733D1*
G1X1889418Y1567420D1*
G1X1888964Y1566795D1*
G1X1888964Y1566170D1*
G1X1889191Y1565545D1*
G1X1889418Y1565233D1*
G1X1889873Y1564920D1*
G1X1891236Y1564295D1*
G1X1891691Y1563983D1*
G1X1891918Y1563670D1*
G1X1892145Y1563045D1*
G1X1892145Y1562108D1*
G1X1891691Y1561483D1*
G1X1891009Y1561170D1*
G1X1890100Y1561170D1*
G1X1889418Y1561483D1*
G1X1888964Y1562108D1*
G1X1895555Y1567733D2*
G1X1895100Y1567420D1*
G1X1894645Y1566795D1*
G1X1894418Y1566170D1*
G1X1894191Y1565233D1*
G1X1894191Y1563670D1*
G1X1894418Y1562733D1*
G1X1894645Y1562108D1*
G1X1895100Y1561483D1*
G1X1895555Y1561170D1*
G1X1896464Y1561170D1*
G1X1896918Y1561483D1*
G1X1897373Y1562108D1*
G1X1897600Y1562733D1*
G1X1897827Y1563670D1*
G1X1897827Y1565233D1*
G1X1897600Y1566170D1*
G1X1897373Y1566795D1*
G1X1896918Y1567420D1*
G1X1896464Y1567733D1*
G1X1895555Y1567733D1*
G1X1899873Y1567733D2*
G1X1899873Y1561170D1*
G1X1902600Y1561170D1*
G1X1906464Y1567733D2*
G1X1904645Y1561170D1*
G1X1906464Y1567733D2*
G1X1908282Y1561170D1*
G1X1905327Y1563358D2*
G1X1907600Y1563358D1*
G1X1911918Y1567733D2*
G1X1911918Y1561170D1*
G1X1910327Y1567733D2*
G1X1913509Y1567733D1*
G1X1915555Y1567733D2*
G1X1915555Y1561170D1*
G1X1915555Y1567733D2*
G1X1918509Y1567733D1*
G1X1915555Y1564608D2*
G1X1917373Y1564608D1*
G1X1915555Y1561170D2*
G1X1918509Y1561170D1*
G1X1920555Y1567733D2*
G1X1920555Y1561170D1*
G1X1920555Y1567733D2*
G1X1922145Y1567733D1*
G1X1922827Y1567420D1*
G1X1923282Y1566795D1*
G1X1923509Y1566170D1*
G1X1923736Y1565233D1*
G1X1923736Y1563670D1*
G1X1923509Y1562733D1*
G1X1923282Y1562108D1*
G1X1922827Y1561483D1*
G1X1922145Y1561170D1*
G1X1920555Y1561170D1*
G1X1664100Y1571863D2*
G1X1664100Y1565300D1*
G1X1664100Y1571863D2*
G1X1666145Y1571863D1*
G1X1666827Y1571550D1*
G1X1667055Y1571238D1*
G1X1667282Y1570613D1*
G1X1667282Y1569988D1*
G1X1667055Y1569363D1*
G1X1666827Y1569050D1*
G1X1666145Y1568738D1*
G1X1664100Y1568738D2*
G1X1666145Y1568738D1*
G1X1666827Y1568425D1*
G1X1667055Y1568113D1*
G1X1667282Y1567488D1*
G1X1667282Y1566550D1*
G1X1667055Y1565925D1*
G1X1666827Y1565613D1*
G1X1666145Y1565300D1*
G1X1664100Y1565300D1*
G1X1670691Y1571863D2*
G1X1670236Y1571550D1*
G1X1669782Y1570925D1*
G1X1669555Y1570300D1*
G1X1669327Y1569363D1*
G1X1669327Y1567800D1*
G1X1669555Y1566863D1*
G1X1669782Y1566238D1*
G1X1670236Y1565613D1*
G1X1670691Y1565300D1*
G1X1671600Y1565300D1*
G1X1672055Y1565613D1*
G1X1672509Y1566238D1*
G1X1672736Y1566863D1*
G1X1672964Y1567800D1*
G1X1672964Y1569363D1*
G1X1672736Y1570300D1*
G1X1672509Y1570925D1*
G1X1672055Y1571550D1*
G1X1671600Y1571863D1*
G1X1670691Y1571863D1*
G1X1676600Y1571863D2*
G1X1676600Y1565300D1*
G1X1675009Y1571863D2*
G1X1678191Y1571863D1*
G1X1681827Y1571863D2*
G1X1681827Y1565300D1*
G1X1680236Y1571863D2*
G1X1683418Y1571863D1*
G1X1686827Y1571863D2*
G1X1686373Y1571550D1*
G1X1685918Y1570925D1*
G1X1685691Y1570300D1*
G1X1685464Y1569363D1*
G1X1685464Y1567800D1*
G1X1685691Y1566863D1*
G1X1685918Y1566238D1*
G1X1686373Y1565613D1*
G1X1686827Y1565300D1*
G1X1687736Y1565300D1*
G1X1688191Y1565613D1*
G1X1688645Y1566238D1*
G1X1688873Y1566863D1*
G1X1689100Y1567800D1*
G1X1689100Y1569363D1*
G1X1688873Y1570300D1*
G1X1688645Y1570925D1*
G1X1688191Y1571550D1*
G1X1687736Y1571863D1*
G1X1686827Y1571863D1*
G1X1691145Y1571863D2*
G1X1691145Y1565300D1*
G1X1691145Y1571863D2*
G1X1692964Y1565300D1*
G1X1694782Y1571863D2*
G1X1692964Y1565300D1*
G1X1694782Y1571863D2*
G1X1694782Y1565300D1*
G1X1702055Y1571863D2*
G1X1702055Y1565300D1*
G1X1702055Y1571863D2*
G1X1704100Y1571863D1*
G1X1704782Y1571550D1*
G1X1705009Y1571238D1*
G1X1705236Y1570613D1*
G1X1705236Y1569675D1*
G1X1705009Y1569050D1*
G1X1704782Y1568738D1*
G1X1704100Y1568425D1*
G1X1702055Y1568425D1*
G1X1709100Y1571863D2*
G1X1707282Y1565300D1*
G1X1709100Y1571863D2*
G1X1710918Y1565300D1*
G1X1707964Y1567488D2*
G1X1710236Y1567488D1*
G1X1716145Y1570925D2*
G1X1715691Y1571550D1*
G1X1715009Y1571863D1*
G1X1714100Y1571863D1*
G1X1713418Y1571550D1*
G1X1712964Y1570925D1*
G1X1712964Y1570300D1*
G1X1713191Y1569675D1*
G1X1713418Y1569363D1*
G1X1713873Y1569050D1*
G1X1715236Y1568425D1*
G1X1715691Y1568113D1*
G1X1715918Y1567800D1*
G1X1716145Y1567175D1*
G1X1716145Y1566238D1*
G1X1715691Y1565613D1*
G1X1715009Y1565300D1*
G1X1714100Y1565300D1*
G1X1713418Y1565613D1*
G1X1712964Y1566238D1*
G1X1719782Y1571863D2*
G1X1719782Y1565300D1*
G1X1718191Y1571863D2*
G1X1721373Y1571863D1*
G1X1723418Y1571863D2*
G1X1723418Y1565300D1*
G1X1723418Y1571863D2*
G1X1726373Y1571863D1*
G1X1723418Y1568738D2*
G1X1725236Y1568738D1*
G1X1723418Y1565300D2*
G1X1726373Y1565300D1*
G1X1733645Y1571863D2*
G1X1733645Y1565300D1*
G1X1733645Y1571863D2*
G1X1735464Y1565300D1*
G1X1737282Y1571863D2*
G1X1735464Y1565300D1*
G1X1737282Y1571863D2*
G1X1737282Y1565300D1*
G1X1741145Y1571863D2*
G1X1739327Y1565300D1*
G1X1741145Y1571863D2*
G1X1742964Y1565300D1*
G1X1740009Y1567488D2*
G1X1742282Y1567488D1*
G1X1748191Y1570925D2*
G1X1747736Y1571550D1*
G1X1747055Y1571863D1*
G1X1746145Y1571863D1*
G1X1745464Y1571550D1*
G1X1745009Y1570925D1*
G1X1745009Y1570300D1*
G1X1745236Y1569675D1*
G1X1745464Y1569363D1*
G1X1745918Y1569050D1*
G1X1747282Y1568425D1*
G1X1747736Y1568113D1*
G1X1747964Y1567800D1*
G1X1748191Y1567175D1*
G1X1748191Y1566238D1*
G1X1747736Y1565613D1*
G1X1747055Y1565300D1*
G1X1746145Y1565300D1*
G1X1745464Y1565613D1*
G1X1745009Y1566238D1*
G1X1750236Y1571863D2*
G1X1750236Y1565300D1*
G1X1753418Y1571863D2*
G1X1750236Y1567488D1*
G1X1751373Y1569050D2*
G1X1753418Y1565300D1*
G1X1795100Y1587733D2*
G1X1795100Y1581170D1*
G1X1795100Y1587733D2*
G1X1796691Y1587733D1*
G1X1797373Y1587420D1*
G1X1797827Y1586795D1*
G1X1798055Y1586170D1*
G1X1798282Y1585233D1*
G1X1798282Y1583670D1*
G1X1798055Y1582733D1*
G1X1797827Y1582108D1*
G1X1797373Y1581483D1*
G1X1796691Y1581170D1*
G1X1795100Y1581170D1*
G1X1803736Y1586170D2*
G1X1803509Y1586795D1*
G1X1803055Y1587420D1*
G1X1802600Y1587733D1*
G1X1801691Y1587733D1*
G1X1801236Y1587420D1*
G1X1800782Y1586795D1*
G1X1800555Y1586170D1*
G1X1800327Y1585233D1*
G1X1800327Y1583670D1*
G1X1800555Y1582733D1*
G1X1800782Y1582108D1*
G1X1801236Y1581483D1*
G1X1801691Y1581170D1*
G1X1802600Y1581170D1*
G1X1803055Y1581483D1*
G1X1803509Y1582108D1*
G1X1803736Y1582733D1*
G1X1806009Y1586170D2*
G1X1806009Y1586483D1*
G1X1806236Y1587108D1*
G1X1806464Y1587420D1*
G1X1806918Y1587733D1*
G1X1807827Y1587733D1*
G1X1808282Y1587420D1*
G1X1808509Y1587108D1*
G1X1808736Y1586483D1*
G1X1808736Y1585858D1*
G1X1808509Y1585233D1*
G1X1808055Y1584295D1*
G1X1805782Y1581170D1*
G1X1808964Y1581170D1*
G1X1812373Y1587733D2*
G1X1811691Y1587420D1*
G1X1811236Y1586483D1*
G1X1811009Y1584920D1*
G1X1811009Y1583983D1*
G1X1811236Y1582420D1*
G1X1811691Y1581483D1*
G1X1812373Y1581170D1*
G1X1812827Y1581170D1*
G1X1813509Y1581483D1*
G1X1813964Y1582420D1*
G1X1814191Y1583983D1*
G1X1814191Y1584920D1*
G1X1813964Y1586483D1*
G1X1813509Y1587420D1*
G1X1812827Y1587733D1*
G1X1812373Y1587733D1*
G1X1816464Y1586170D2*
G1X1816464Y1586483D1*
G1X1816691Y1587108D1*
G1X1816918Y1587420D1*
G1X1817373Y1587733D1*
G1X1818282Y1587733D1*
G1X1818736Y1587420D1*
G1X1818964Y1587108D1*
G1X1819191Y1586483D1*
G1X1819191Y1585858D1*
G1X1818964Y1585233D1*
G1X1818509Y1584295D1*
G1X1816236Y1581170D1*
G1X1819418Y1581170D1*
G1X1824191Y1586795D2*
G1X1823964Y1587420D1*
G1X1823282Y1587733D1*
G1X1822827Y1587733D1*
G1X1822145Y1587420D1*
G1X1821691Y1586483D1*
G1X1821464Y1584920D1*
G1X1821464Y1583358D1*
G1X1821691Y1582108D1*
G1X1822145Y1581483D1*
G1X1822827Y1581170D1*
G1X1823055Y1581170D1*
G1X1823736Y1581483D1*
G1X1824191Y1582108D1*
G1X1824418Y1583045D1*
G1X1824418Y1583358D1*
G1X1824191Y1584295D1*
G1X1823736Y1584920D1*
G1X1823055Y1585233D1*
G1X1822827Y1585233D1*
G1X1822145Y1584920D1*
G1X1821691Y1584295D1*
G1X1821464Y1583358D1*
G1X1829873Y1586170D2*
G1X1829645Y1586795D1*
G1X1829191Y1587420D1*
G1X1828736Y1587733D1*
G1X1827827Y1587733D1*
G1X1827373Y1587420D1*
G1X1826918Y1586795D1*
G1X1826691Y1586170D1*
G1X1826464Y1585233D1*
G1X1826464Y1583670D1*
G1X1826691Y1582733D1*
G1X1826918Y1582108D1*
G1X1827373Y1581483D1*
G1X1827827Y1581170D1*
G1X1828736Y1581170D1*
G1X1829191Y1581483D1*
G1X1829645Y1582108D1*
G1X1829873Y1582733D1*
G1X1831918Y1583983D2*
G1X1836009Y1583983D1*
G1X1838055Y1586483D2*
G1X1838509Y1586795D1*
G1X1839191Y1587733D1*
G1X1839191Y1581170D1*
G1X1847600Y1585858D2*
G1X1847600Y1582108D1*
G1X1846464Y1584920D2*
G1X1848736Y1583045D1*
G1X1848736Y1584920D2*
G1X1846464Y1583045D1*
G1X1856009Y1587733D2*
G1X1856009Y1581170D1*
G1X1858736Y1581170D1*
G1X1862373Y1587733D2*
G1X1862373Y1581170D1*
G1X1860782Y1587733D2*
G1X1863964Y1587733D1*
G1X1866009Y1587733D2*
G1X1866009Y1581170D1*
G1X1866009Y1587733D2*
G1X1867827Y1581170D1*
G1X1869645Y1587733D2*
G1X1867827Y1581170D1*
G1X1869645Y1587733D2*
G1X1869645Y1581170D1*
G1X1871918Y1586170D2*
G1X1871918Y1586483D1*
G1X1872145Y1587108D1*
G1X1872373Y1587420D1*
G1X1872827Y1587733D1*
G1X1873736Y1587733D1*
G1X1874191Y1587420D1*
G1X1874418Y1587108D1*
G1X1874645Y1586483D1*
G1X1874645Y1585858D1*
G1X1874418Y1585233D1*
G1X1873964Y1584295D1*
G1X1871691Y1581170D1*
G1X1874873Y1581170D1*
G1X1878055Y1587733D2*
G1X1877373Y1587420D1*
G1X1877145Y1586795D1*
G1X1877145Y1586170D1*
G1X1877373Y1585545D1*
G1X1877827Y1585233D1*
G1X1878736Y1584920D1*
G1X1879418Y1584608D1*
G1X1879873Y1583983D1*
G1X1880100Y1583358D1*
G1X1880100Y1582420D1*
G1X1879873Y1581795D1*
G1X1879645Y1581483D1*
G1X1878964Y1581170D1*
G1X1878055Y1581170D1*
G1X1877373Y1581483D1*
G1X1877145Y1581795D1*
G1X1876918Y1582420D1*
G1X1876918Y1583358D1*
G1X1877145Y1583983D1*
G1X1877600Y1584608D1*
G1X1878282Y1584920D1*
G1X1879191Y1585233D1*
G1X1879645Y1585545D1*
G1X1879873Y1586170D1*
G1X1879873Y1586795D1*
G1X1879645Y1587420D1*
G1X1878964Y1587733D1*
G1X1878055Y1587733D1*
G1X1883282Y1587733D2*
G1X1882600Y1587420D1*
G1X1882373Y1586795D1*
G1X1882373Y1586170D1*
G1X1882600Y1585545D1*
G1X1883055Y1585233D1*
G1X1883964Y1584920D1*
G1X1884645Y1584608D1*
G1X1885100Y1583983D1*
G1X1885327Y1583358D1*
G1X1885327Y1582420D1*
G1X1885100Y1581795D1*
G1X1884873Y1581483D1*
G1X1884191Y1581170D1*
G1X1883282Y1581170D1*
G1X1882600Y1581483D1*
G1X1882373Y1581795D1*
G1X1882145Y1582420D1*
G1X1882145Y1583358D1*
G1X1882373Y1583983D1*
G1X1882827Y1584608D1*
G1X1883509Y1584920D1*
G1X1884418Y1585233D1*
G1X1884873Y1585545D1*
G1X1885100Y1586170D1*
G1X1885100Y1586795D1*
G1X1884873Y1587420D1*
G1X1884191Y1587733D1*
G1X1883282Y1587733D1*
G1X1889645Y1587733D2*
G1X1887373Y1583358D1*
G1X1890782Y1583358D1*
G1X1889645Y1587733D2*
G1X1889645Y1581170D1*
G1X1896236Y1586170D2*
G1X1896009Y1586795D1*
G1X1895555Y1587420D1*
G1X1895100Y1587733D1*
G1X1894191Y1587733D1*
G1X1893736Y1587420D1*
G1X1893282Y1586795D1*
G1X1893055Y1586170D1*
G1X1892827Y1585233D1*
G1X1892827Y1583670D1*
G1X1893055Y1582733D1*
G1X1893282Y1582108D1*
G1X1893736Y1581483D1*
G1X1894191Y1581170D1*
G1X1895100Y1581170D1*
G1X1895555Y1581483D1*
G1X1896009Y1582108D1*
G1X1896236Y1582733D1*
G1X1898282Y1587733D2*
G1X1900100Y1584608D1*
G1X1900100Y1581170D1*
G1X1901918Y1587733D2*
G1X1900100Y1584608D1*
G1X1795100Y1577733D2*
G1X1795100Y1571170D1*
G1X1797827Y1571170D1*
G1X1799873Y1577733D2*
G1X1799873Y1571170D1*
G1X1801918Y1577733D2*
G1X1801918Y1571170D1*
G1X1801918Y1577733D2*
G1X1805100Y1571170D1*
G1X1805100Y1577733D2*
G1X1805100Y1571170D1*
G1X1807145Y1577733D2*
G1X1807145Y1571170D1*
G1X1807145Y1577733D2*
G1X1808736Y1577733D1*
G1X1809418Y1577420D1*
G1X1809873Y1576795D1*
G1X1810100Y1576170D1*
G1X1810327Y1575233D1*
G1X1810327Y1573670D1*
G1X1810100Y1572733D1*
G1X1809873Y1572108D1*
G1X1809418Y1571483D1*
G1X1808736Y1571170D1*
G1X1807145Y1571170D1*
G1X1812373Y1577733D2*
G1X1812373Y1573045D1*
G1X1812600Y1572108D1*
G1X1813055Y1571483D1*
G1X1813736Y1571170D1*
G1X1814191Y1571170D1*
G1X1814873Y1571483D1*
G1X1815327Y1572108D1*
G1X1815555Y1573045D1*
G1X1815555Y1577733D1*
G1X1817600Y1577733D2*
G1X1817600Y1571170D1*
G1X1819645Y1577733D2*
G1X1819645Y1571170D1*
G1X1819645Y1577733D2*
G1X1822827Y1571170D1*
G1X1822827Y1577733D2*
G1X1822827Y1571170D1*
G1X1826236Y1577733D2*
G1X1825782Y1577420D1*
G1X1825327Y1576795D1*
G1X1825100Y1576170D1*
G1X1824873Y1575233D1*
G1X1824873Y1573670D1*
G1X1825100Y1572733D1*
G1X1825327Y1572108D1*
G1X1825782Y1571483D1*
G1X1826236Y1571170D1*
G1X1827145Y1571170D1*
G1X1827600Y1571483D1*
G1X1828055Y1572108D1*
G1X1828282Y1572733D1*
G1X1828509Y1573670D1*
G1X1828509Y1575233D1*
G1X1828282Y1576170D1*
G1X1828055Y1576795D1*
G1X1827600Y1577420D1*
G1X1827145Y1577733D1*
G1X1826236Y1577733D1*
G1X1837145Y1577733D2*
G1X1836691Y1577420D1*
G1X1836236Y1576795D1*
G1X1836009Y1576170D1*
G1X1835782Y1575233D1*
G1X1835782Y1573670D1*
G1X1836009Y1572733D1*
G1X1836236Y1572108D1*
G1X1836691Y1571483D1*
G1X1837145Y1571170D1*
G1X1838055Y1571170D1*
G1X1838509Y1571483D1*
G1X1838964Y1572108D1*
G1X1839191Y1572733D1*
G1X1839418Y1573670D1*
G1X1839418Y1575233D1*
G1X1839191Y1576170D1*
G1X1838964Y1576795D1*
G1X1838509Y1577420D1*
G1X1838055Y1577733D1*
G1X1837145Y1577733D1*
G1X1841464Y1577733D2*
G1X1841464Y1571170D1*
G1X1841464Y1577733D2*
G1X1844645Y1571170D1*
G1X1844645Y1577733D2*
G1X1844645Y1571170D1*
G1X1846691Y1577733D2*
G1X1846691Y1571170D1*
G1X1846691Y1577733D2*
G1X1849645Y1577733D1*
G1X1846691Y1574608D2*
G1X1848509Y1574608D1*
G1X1846691Y1571170D2*
G1X1849645Y1571170D1*
G1X1851918Y1575545D2*
G1X1851691Y1575233D1*
G1X1851918Y1574920D1*
G1X1852145Y1575233D1*
G1X1851918Y1575545D1*
G1X1851918Y1571795D2*
G1X1851691Y1571483D1*
G1X1851918Y1571170D1*
G1X1852145Y1571483D1*
G1X1851918Y1571795D1*
G1X1796918Y1557733D2*
G1X1795100Y1551170D1*
G1X1796918Y1557733D2*
G1X1798736Y1551170D1*
G1X1795782Y1553358D2*
G1X1798055Y1553358D1*
G1X1800782Y1557733D2*
G1X1800782Y1551170D1*
G1X1800782Y1557733D2*
G1X1802827Y1557733D1*
G1X1803509Y1557420D1*
G1X1803736Y1557108D1*
G1X1803964Y1556483D1*
G1X1803964Y1555858D1*
G1X1803736Y1555233D1*
G1X1803509Y1554920D1*
G1X1802827Y1554608D1*
G1X1800782Y1554608D1*
G1X1802373Y1554608D2*
G1X1803964Y1551170D1*
G1X1806009Y1557733D2*
G1X1806009Y1551170D1*
G1X1806009Y1557733D2*
G1X1807600Y1557733D1*
G1X1808282Y1557420D1*
G1X1808736Y1556795D1*
G1X1808964Y1556170D1*
G1X1809191Y1555233D1*
G1X1809191Y1553670D1*
G1X1808964Y1552733D1*
G1X1808736Y1552108D1*
G1X1808282Y1551483D1*
G1X1807600Y1551170D1*
G1X1806009Y1551170D1*
G1X1811236Y1557733D2*
G1X1811236Y1553045D1*
G1X1811464Y1552108D1*
G1X1811918Y1551483D1*
G1X1812600Y1551170D1*
G1X1813055Y1551170D1*
G1X1813736Y1551483D1*
G1X1814191Y1552108D1*
G1X1814418Y1553045D1*
G1X1814418Y1557733D1*
G1X1816464Y1557733D2*
G1X1816464Y1551170D1*
G1X1818509Y1557733D2*
G1X1818509Y1551170D1*
G1X1818509Y1557733D2*
G1X1821691Y1551170D1*
G1X1821691Y1557733D2*
G1X1821691Y1551170D1*
G1X1825100Y1557733D2*
G1X1824645Y1557420D1*
G1X1824191Y1556795D1*
G1X1823964Y1556170D1*
G1X1823736Y1555233D1*
G1X1823736Y1553670D1*
G1X1823964Y1552733D1*
G1X1824191Y1552108D1*
G1X1824645Y1551483D1*
G1X1825100Y1551170D1*
G1X1826009Y1551170D1*
G1X1826464Y1551483D1*
G1X1826918Y1552108D1*
G1X1827145Y1552733D1*
G1X1827373Y1553670D1*
G1X1827373Y1555233D1*
G1X1827145Y1556170D1*
G1X1826918Y1556795D1*
G1X1826464Y1557420D1*
G1X1826009Y1557733D1*
G1X1825100Y1557733D1*
G1X1829418Y1553983D2*
G1X1833509Y1553983D1*
G1X1838964Y1556170D2*
G1X1838736Y1556795D1*
G1X1838282Y1557420D1*
G1X1837827Y1557733D1*
G1X1836918Y1557733D1*
G1X1836464Y1557420D1*
G1X1836009Y1556795D1*
G1X1835782Y1556170D1*
G1X1835555Y1555233D1*
G1X1835555Y1553670D1*
G1X1835782Y1552733D1*
G1X1836009Y1552108D1*
G1X1836464Y1551483D1*
G1X1836918Y1551170D1*
G1X1837827Y1551170D1*
G1X1838282Y1551483D1*
G1X1838736Y1552108D1*
G1X1838964Y1552733D1*
G1X1842373Y1557733D2*
G1X1841918Y1557420D1*
G1X1841464Y1556795D1*
G1X1841236Y1556170D1*
G1X1841009Y1555233D1*
G1X1841009Y1553670D1*
G1X1841236Y1552733D1*
G1X1841464Y1552108D1*
G1X1841918Y1551483D1*
G1X1842373Y1551170D1*
G1X1843282Y1551170D1*
G1X1843736Y1551483D1*
G1X1844191Y1552108D1*
G1X1844418Y1552733D1*
G1X1844645Y1553670D1*
G1X1844645Y1555233D1*
G1X1844418Y1556170D1*
G1X1844191Y1556795D1*
G1X1843736Y1557420D1*
G1X1843282Y1557733D1*
G1X1842373Y1557733D1*
G1X1846691Y1557733D2*
G1X1846691Y1551170D1*
G1X1846691Y1557733D2*
G1X1848509Y1551170D1*
G1X1850327Y1557733D2*
G1X1848509Y1551170D1*
G1X1850327Y1557733D2*
G1X1850327Y1551170D1*
G1X1852373Y1557733D2*
G1X1852373Y1551170D1*
G1X1852373Y1557733D2*
G1X1854418Y1557733D1*
G1X1855100Y1557420D1*
G1X1855327Y1557108D1*
G1X1855555Y1556483D1*
G1X1855555Y1555545D1*
G1X1855327Y1554920D1*
G1X1855100Y1554608D1*
G1X1854418Y1554295D1*
G1X1852373Y1554295D1*
G1X1859418Y1557733D2*
G1X1857600Y1551170D1*
G1X1859418Y1557733D2*
G1X1861236Y1551170D1*
G1X1858282Y1553358D2*
G1X1860555Y1553358D1*
G1X1864873Y1557733D2*
G1X1864873Y1551170D1*
G1X1863282Y1557733D2*
G1X1866464Y1557733D1*
G1X1868509Y1557733D2*
G1X1868509Y1551170D1*
G1X1870555Y1557733D2*
G1X1870555Y1551170D1*
G1X1870555Y1557733D2*
G1X1872600Y1557733D1*
G1X1873282Y1557420D1*
G1X1873509Y1557108D1*
G1X1873736Y1556483D1*
G1X1873736Y1555858D1*
G1X1873509Y1555233D1*
G1X1873282Y1554920D1*
G1X1872600Y1554608D1*
G1X1870555Y1554608D2*
G1X1872600Y1554608D1*
G1X1873282Y1554295D1*
G1X1873509Y1553983D1*
G1X1873736Y1553358D1*
G1X1873736Y1552420D1*
G1X1873509Y1551795D1*
G1X1873282Y1551483D1*
G1X1872600Y1551170D1*
G1X1870555Y1551170D1*
G1X1875782Y1557733D2*
G1X1875782Y1551170D1*
G1X1878509Y1551170D1*
G1X1880555Y1557733D2*
G1X1880555Y1551170D1*
G1X1880555Y1557733D2*
G1X1883509Y1557733D1*
G1X1880555Y1554608D2*
G1X1882373Y1554608D1*
G1X1880555Y1551170D2*
G1X1883509Y1551170D1*
G1X1890782Y1557733D2*
G1X1890782Y1551170D1*
G1X1890782Y1557733D2*
G1X1892373Y1557733D1*
G1X1893055Y1557420D1*
G1X1893509Y1556795D1*
G1X1893736Y1556170D1*
G1X1893964Y1555233D1*
G1X1893964Y1553670D1*
G1X1893736Y1552733D1*
G1X1893509Y1552108D1*
G1X1893055Y1551483D1*
G1X1892373Y1551170D1*
G1X1890782Y1551170D1*
G1X1896009Y1557733D2*
G1X1896009Y1551170D1*
G1X1896009Y1557733D2*
G1X1898964Y1557733D1*
G1X1896009Y1554608D2*
G1X1897827Y1554608D1*
G1X1896009Y1551170D2*
G1X1898964Y1551170D1*
G1X1901009Y1557733D2*
G1X1901009Y1551170D1*
G1X1901009Y1557733D2*
G1X1902827Y1551170D1*
G1X1904645Y1557733D2*
G1X1902827Y1551170D1*
G1X1904645Y1557733D2*
G1X1904645Y1551170D1*
G1X1908055Y1557733D2*
G1X1907600Y1557420D1*
G1X1907145Y1556795D1*
G1X1906918Y1556170D1*
G1X1906691Y1555233D1*
G1X1906691Y1553670D1*
G1X1906918Y1552733D1*
G1X1907145Y1552108D1*
G1X1907600Y1551483D1*
G1X1908055Y1551170D1*
G1X1908964Y1551170D1*
G1X1909418Y1551483D1*
G1X1909873Y1552108D1*
G1X1910100Y1552733D1*
G1X1910327Y1553670D1*
G1X1910327Y1555233D1*
G1X1910100Y1556170D1*
G1X1909873Y1556795D1*
G1X1909418Y1557420D1*
G1X1908964Y1557733D1*
G1X1908055Y1557733D1*
G1X1912373Y1557733D2*
G1X1912373Y1551170D1*
G1X1912373Y1557733D2*
G1X1915555Y1551170D1*
G1X1915555Y1557733D2*
G1X1915555Y1551170D1*
G1X1920782Y1556795D2*
G1X1920327Y1557420D1*
G1X1919645Y1557733D1*
G1X1918736Y1557733D1*
G1X1918055Y1557420D1*
G1X1917600Y1556795D1*
G1X1917600Y1556170D1*
G1X1917827Y1555545D1*
G1X1918055Y1555233D1*
G1X1918509Y1554920D1*
G1X1919873Y1554295D1*
G1X1920327Y1553983D1*
G1X1920555Y1553670D1*
G1X1920782Y1553045D1*
G1X1920782Y1552108D1*
G1X1920327Y1551483D1*
G1X1919645Y1551170D1*
G1X1918736Y1551170D1*
G1X1918055Y1551483D1*
G1X1917600Y1552108D1*
G1X1924418Y1557733D2*
G1X1924418Y1551170D1*
G1X1922827Y1557733D2*
G1X1926009Y1557733D1*
G1X1928055Y1557733D2*
G1X1928055Y1551170D1*
G1X1928055Y1557733D2*
G1X1930100Y1557733D1*
G1X1930782Y1557420D1*
G1X1931009Y1557108D1*
G1X1931236Y1556483D1*
G1X1931236Y1555858D1*
G1X1931009Y1555233D1*
G1X1930782Y1554920D1*
G1X1930100Y1554608D1*
G1X1928055Y1554608D1*
G1X1929645Y1554608D2*
G1X1931236Y1551170D1*
G1X1935100Y1557733D2*
G1X1933282Y1551170D1*
G1X1935100Y1557733D2*
G1X1936918Y1551170D1*
G1X1933964Y1553358D2*
G1X1936236Y1553358D1*
G1X1940555Y1557733D2*
G1X1940555Y1551170D1*
G1X1938964Y1557733D2*
G1X1942145Y1557733D1*
G1X1944191Y1557733D2*
G1X1944191Y1551170D1*
G1X1947600Y1557733D2*
G1X1947145Y1557420D1*
G1X1946691Y1556795D1*
G1X1946464Y1556170D1*
G1X1946236Y1555233D1*
G1X1946236Y1553670D1*
G1X1946464Y1552733D1*
G1X1946691Y1552108D1*
G1X1947145Y1551483D1*
G1X1947600Y1551170D1*
G1X1948509Y1551170D1*
G1X1948964Y1551483D1*
G1X1949418Y1552108D1*
G1X1949645Y1552733D1*
G1X1949873Y1553670D1*
G1X1949873Y1555233D1*
G1X1949645Y1556170D1*
G1X1949418Y1556795D1*
G1X1948964Y1557420D1*
G1X1948509Y1557733D1*
G1X1947600Y1557733D1*
G1X1951918Y1557733D2*
G1X1951918Y1551170D1*
G1X1951918Y1557733D2*
G1X1955100Y1551170D1*
G1X1955100Y1557733D2*
G1X1955100Y1551170D1*
G1X1962373Y1557733D2*
G1X1962373Y1551170D1*
G1X1962373Y1557733D2*
G1X1964418Y1557733D1*
G1X1965100Y1557420D1*
G1X1965327Y1557108D1*
G1X1965555Y1556483D1*
G1X1965555Y1555858D1*
G1X1965327Y1555233D1*
G1X1965100Y1554920D1*
G1X1964418Y1554608D1*
G1X1962373Y1554608D2*
G1X1964418Y1554608D1*
G1X1965100Y1554295D1*
G1X1965327Y1553983D1*
G1X1965555Y1553358D1*
G1X1965555Y1552420D1*
G1X1965327Y1551795D1*
G1X1965100Y1551483D1*
G1X1964418Y1551170D1*
G1X1962373Y1551170D1*
G1X1968964Y1557733D2*
G1X1968509Y1557420D1*
G1X1968055Y1556795D1*
G1X1967827Y1556170D1*
G1X1967600Y1555233D1*
G1X1967600Y1553670D1*
G1X1967827Y1552733D1*
G1X1968055Y1552108D1*
G1X1968509Y1551483D1*
G1X1968964Y1551170D1*
G1X1969873Y1551170D1*
G1X1970327Y1551483D1*
G1X1970782Y1552108D1*
G1X1971009Y1552733D1*
G1X1971236Y1553670D1*
G1X1971236Y1555233D1*
G1X1971009Y1556170D1*
G1X1970782Y1556795D1*
G1X1970327Y1557420D1*
G1X1969873Y1557733D1*
G1X1968964Y1557733D1*
G1X1975100Y1557733D2*
G1X1973282Y1551170D1*
G1X1975100Y1557733D2*
G1X1976918Y1551170D1*
G1X1973964Y1553358D2*
G1X1976236Y1553358D1*
G1X1978964Y1557733D2*
G1X1978964Y1551170D1*
G1X1978964Y1557733D2*
G1X1981009Y1557733D1*
G1X1981691Y1557420D1*
G1X1981918Y1557108D1*
G1X1982145Y1556483D1*
G1X1982145Y1555858D1*
G1X1981918Y1555233D1*
G1X1981691Y1554920D1*
G1X1981009Y1554608D1*
G1X1978964Y1554608D1*
G1X1980555Y1554608D2*
G1X1982145Y1551170D1*
G1X1984191Y1557733D2*
G1X1984191Y1551170D1*
G1X1984191Y1557733D2*
G1X1985782Y1557733D1*
G1X1986464Y1557420D1*
G1X1986918Y1556795D1*
G1X1987145Y1556170D1*
G1X1987373Y1555233D1*
G1X1987373Y1553670D1*
G1X1987145Y1552733D1*
G1X1986918Y1552108D1*
G1X1986464Y1551483D1*
G1X1985782Y1551170D1*
G1X1984191Y1551170D1*
G1X1666100Y1601800D2*
G75*
G3X1668100Y1599800I2000J0D1*
G74*
G1X1666100Y1601800D2*
G1X1666100Y1807800D1*
G1X1668100Y1809800D2*
G75*
G3X1666100Y1807800I0J-2000D1*
G74*
G1X1668100Y1809800D2*
G1X1920100Y1809800D1*
G1X1926100Y1803800D1*
G1X1926100Y1758800D1*
G1X1936100Y1748800D1*
G1X1936100Y1619800D1*
G1X1926100Y1609800D1*
G1X1926100Y1601800D1*
G1X1924100Y1599800D2*
G75*
G3X1926100Y1601800I0J2000D1*
G74*
G1X1924100Y1599800D2*
G1X1668100Y1599800D1*
G54D171*
G1X1788750Y1740300D3*
G1X1782450Y1740300D3*
G1X1860950Y1762800D3*
G1X1867250Y1762800D3*
G1X1806250Y1753300D3*
G1X1799950Y1753300D3*
G1X1818950Y1776300D3*
G1X1825250Y1776300D3*
G54D172*
G1X1808600Y1763150D3*
G1X1808600Y1769450D3*
G1X1807100Y1707450D3*
G1X1807100Y1701150D3*
G54D173*
G1X1718343Y1766900D3*
G1X1711257Y1766900D3*
G54D177*
G1X1733100Y1628950D3*
G1X1733100Y1622650D3*
G1X1742100Y1622650D3*
G1X1742100Y1628950D3*
G1X1752100Y1628950D3*
G1X1752100Y1622650D3*
G1X1762100Y1628950D3*
G1X1762100Y1622650D3*
G1X1757600Y1771950D3*
G1X1757600Y1765650D3*
G1X1855100Y1735950D3*
G1X1855100Y1729650D3*
G1X1875100Y1740950D3*
G1X1875100Y1734650D3*
G1X1817600Y1707450D3*
G1X1817600Y1701150D3*
G1X1853300Y1721450D3*
G1X1853300Y1715150D3*
G1X1845400Y1721450D3*
G1X1845400Y1715150D3*
G1X1837500Y1721450D3*
G1X1837500Y1715150D3*
G54D178*
G1X1769950Y1689300D3*
G1X1776250Y1689300D3*
G1X1782450Y1745800D3*
G1X1788750Y1745800D3*
G1X1797250Y1787300D3*
G1X1790950Y1787300D3*
G1X1803650Y1787400D3*
G1X1809950Y1787400D3*
G1X1845250Y1755300D3*
G1X1838950Y1755300D3*
G1X1845250Y1749300D3*
G1X1838950Y1749300D3*
G1X1838950Y1743300D3*
G1X1845250Y1743300D3*
G1X1867250Y1751300D3*
G1X1860950Y1751300D3*
G1X1867250Y1756800D3*
G1X1860950Y1756800D3*
G1X1860950Y1730800D3*
G1X1867250Y1730800D3*
G1X1831250Y1722300D3*
G1X1824950Y1722300D3*
G1X1824950Y1727800D3*
G1X1831250Y1727800D3*
G1X1808500Y1732300D3*
G1X1802200Y1732300D3*
G1X1817500Y1726550D3*
G1X1811200Y1726550D3*
G1X1797700Y1726050D3*
G1X1804000Y1726050D3*
G1X1838950Y1761300D3*
G1X1845250Y1761300D3*
G1X1833250Y1691300D3*
G1X1826950Y1691300D3*
G54D179*
G1X1769340Y1715300D3*
G1X1761860Y1715300D3*
G1X1718440Y1774300D3*
G1X1710960Y1774300D3*
G54D188*
G1X1817557Y1720140D3*
G1X1817557Y1716400D3*
G1X1817557Y1712660D3*
G1X1807243Y1712660D3*
G1X1807243Y1716400D3*
G1X1807243Y1720140D3*
G54D204*
G1X1736900Y1755706D3*
G1X1736900Y1743894D3*
G1X1736900Y1738706D3*
G1X1736900Y1726894D3*
G54D216*
G1X1830565Y1758698D3*
G1X1830565Y1756139D3*
G1X1830565Y1753580D3*
G1X1830565Y1751020D3*
G1X1830565Y1748461D3*
G1X1830565Y1745902D3*
G1X1813635Y1745902D3*
G1X1813635Y1748461D3*
G1X1813635Y1751020D3*
G1X1813635Y1753580D3*
G1X1813635Y1756139D3*
G1X1813635Y1758698D3*
G54D217*
G1X1827612Y1770753D3*
G1X1827612Y1768784D3*
G1X1827612Y1766816D3*
G1X1827612Y1764847D3*
G1X1816588Y1764847D3*
G1X1816588Y1766816D3*
G1X1816588Y1768784D3*
G1X1816588Y1770753D3*
G1X1869612Y1745753D3*
G1X1869612Y1743784D3*
G1X1869612Y1741816D3*
G1X1869612Y1739847D3*
G1X1858588Y1739847D3*
G1X1858588Y1741816D3*
G1X1858588Y1743784D3*
G1X1858588Y1745753D3*
M2*
