*
%LPD*%
%LNDC2026C1-1*%
%FSLAX25Y25*%
%MOIN*%
%AD*%
%AD*%
%ADD10C,0.005*%
%ADD11C,0.01*%
%ADD12C,0.008*%
%ADD14C,0.012*%
%ADD22R,0.06X0.06*%
%ADD23C,0.06*%
%ADD33R,0.055X0.055*%
%ADD36C,0.11*%
%ADD38C,0.02*%
%ADD39C,0.025*%
%ADD40C,0.015*%
%ADD44C,0.05*%
%ADD119C,0.028*%
%ADD163C,0.006*%
%ADD165C,0.007*%
%ADD167C,0.126*%
%ADD168O,0.06X0.12*%
%ADD169R,0.01575X0.062990157*%
%ADD170R,0.062990157X0.01575*%
%ADD171R,0.0374X0.039370079*%
%ADD172R,0.039370079X0.0374*%
%ADD173R,0.045279921X0.057090157*%
%ADD174R,0.057090157X0.045279921*%
%ADD176R,0.044X0.126*%
%ADD177R,0.039370079X0.035429921*%
%ADD178R,0.035429921X0.039370079*%
%ADD179R,0.039370079X0.057090157*%
%ADD180R,0.06X0.17*%
%ADD181R,0.06X0.15*%
%ADD182R,0.15X0.06*%
%ADD183O,0.065X0.055*%
%ADD186R,0.043309843X0.02165*%
%ADD187R,0.02165X0.043309843*%
%ADD188R,0.048029921X0.02165*%
%ADD189C,0.0248*%
%ADD192R,0.041340157X0.025590157*%
%ADD193R,0.072829921X0.017720079*%
%ADD194R,0.049209843X0.043309843*%
%ADD195C,0.03*%
%ADD201R,0.062990157X0.011809843*%
%ADD202R,0.022829921X0.025979921*%
%ADD203R,0.025979921X0.022829921*%
%ADD204R,0.070870079X0.045279921*%
%ADD205R,0.024409843X0.022440157*%
%ADD206R,0.022440157X0.024409843*%
%ADD207R,0.09055X0.098429921*%
%ADD208R,0.011X0.035*%
%ADD209R,0.074020079X0.066140157*%
%ADD210R,0.09055X0.064959843*%
%ADD211R,0.070870079X0.118109843*%
%ADD212R,0.078740157X0.039370079*%
%ADD213R,0.054X0.054*%
%ADD214C,0.054*%
G54D10*
%SRX1Y1I0.0J0.0*%
G1X1773350Y1779550D2*
G1X1791850Y1779550D1*
G1X1791850Y1774550D1*
G1X1781350Y1774550D1*
G1X1781350Y1751650D1*
G1X1791850Y1751650D1*
G1X1791850Y1757550D1*
G1X1794350Y1757550D1*
G1X1794350Y1744696D1*
G1X1794996Y1744050D1*
G1X1799850Y1744050D1*
G1X1799850Y1736050D1*
G1X1788150Y1736050D1*
G1X1788150Y1741996D1*
G1X1791850Y1745696D1*
G1X1791850Y1749950D1*
G1X1777850Y1749950D1*
G1X1777850Y1743550D1*
G1X1773350Y1743550D1*
G1X1773350Y1779550D1*
G1X1783250Y1772550D2*
G1X1791850Y1772550D1*
G1X1791850Y1759050D1*
G1X1790050Y1759050D1*
G1X1790050Y1753750D1*
G1X1783250Y1753750D1*
G1X1783250Y1772550D1*
G1X1794350Y1779550D2*
G1X1804250Y1779550D1*
G1X1804250Y1753750D1*
G1X1796050Y1753750D1*
G1X1796050Y1759050D1*
G1X1794350Y1759050D1*
G1X1794350Y1779550D1*
G1X1780750Y1747950D2*
G1X1790050Y1747950D1*
G1X1790050Y1746050D1*
G1X1788996Y1746050D1*
G1X1786350Y1743404D1*
G1X1786350Y1734050D1*
G1X1793450Y1734050D1*
G1X1793450Y1725050D1*
G1X1780750Y1725050D1*
G1X1780750Y1747950D1*
G1X1796150Y1751650D2*
G1X1811350Y1751650D1*
G1X1811350Y1725050D1*
G1X1796650Y1725050D1*
G1X1796650Y1734050D1*
G1X1802250Y1734050D1*
G1X1802250Y1744050D1*
G1X1804404Y1744050D1*
G1X1806050Y1745696D1*
G1X1806050Y1748404D1*
G1X1804404Y1750050D1*
G1X1796150Y1750050D1*
G1X1796150Y1751650D1*
G1X1701850Y1647550D2*
G1X1720850Y1647550D1*
G1X1720850Y1621550D1*
G1X1701850Y1621550D1*
G1X1701850Y1647550D1*
G1X1675350Y1653050D2*
G1X1699350Y1653050D1*
G1X1699350Y1618550D1*
G1X1710350Y1618550D1*
G1X1710350Y1608050D1*
G1X1675350Y1608050D1*
G1X1675350Y1653050D1*
G1X1862550Y1729090D2*
G1X1874050Y1729090D1*
G1X1874050Y1717550D1*
G1X1869450Y1717550D1*
G1X1869450Y1724950D1*
G1X1862550Y1724950D1*
G1X1862550Y1729090D1*
G1X1866790Y1753226D2*
G1X1867844Y1754280D1*
G1X1879296Y1754280D1*
G1X1880350Y1753226D1*
G1X1880350Y1744294D1*
G1X1879296Y1743240D1*
G1X1867844Y1743240D1*
G1X1866790Y1744294D1*
G1X1866790Y1753226D1*
G1X1885120Y1747020D2*
G1X1891350Y1747020D1*
G1X1891350Y1750550D1*
G1X1914700Y1750550D1*
G1X1914700Y1742380D1*
G1X1885120Y1742380D1*
G1X1885120Y1747020D1*
G1X1880050Y1719550D2*
G1X1889850Y1719550D1*
G1X1889850Y1728050D1*
G1X1897850Y1728050D1*
G1X1897850Y1722050D1*
G1X1905950Y1722050D1*
G1X1905950Y1715350D1*
G1X1880050Y1715350D1*
G1X1880050Y1719550D1*
G1X1895250Y1773050D2*
G1X1903350Y1773050D1*
G1X1903350Y1780050D1*
G1X1918350Y1780050D1*
G1X1918350Y1767350D1*
G1X1895250Y1767350D1*
G1X1895250Y1773050D1*
G1X1743850Y1777050D2*
G1X1760350Y1777050D1*
G1X1760350Y1752050D1*
G1X1765850Y1752050D1*
G1X1765850Y1744550D1*
G1X1760350Y1744550D1*
G1X1760350Y1737550D1*
G1X1766350Y1737550D1*
G1X1766350Y1728550D1*
G1X1760350Y1728550D1*
G1X1760350Y1712550D1*
G1X1743850Y1712550D1*
G1X1743850Y1777050D1*
G1X1717350Y1773550D2*
G1X1725350Y1773550D1*
G1X1725350Y1718050D1*
G1X1717350Y1718050D1*
G1X1717350Y1773550D1*
G1X1715350Y1753250D2*
G1X1708850Y1753250D1*
G1X1708850Y1773450D1*
G1X1715350Y1773450D1*
G1X1715350Y1753250D1*
G1X1789852Y1743699D2*
G1X1799850Y1743699D1*
G1X1789402Y1743249D2*
G1X1799850Y1743249D1*
G1X1788952Y1742799D2*
G1X1799850Y1742799D1*
G1X1788502Y1742349D2*
G1X1799850Y1742349D1*
G1X1788150Y1741899D2*
G1X1799850Y1741899D1*
G1X1788150Y1741449D2*
G1X1799850Y1741449D1*
G1X1788150Y1740999D2*
G1X1799850Y1740999D1*
G1X1788150Y1740549D2*
G1X1799850Y1740549D1*
G1X1788150Y1740099D2*
G1X1799850Y1740099D1*
G1X1788150Y1739649D2*
G1X1799850Y1739649D1*
G1X1788150Y1739199D2*
G1X1799850Y1739199D1*
G1X1788150Y1738749D2*
G1X1799850Y1738749D1*
G1X1788150Y1738299D2*
G1X1799850Y1738299D1*
G1X1788150Y1737849D2*
G1X1799850Y1737849D1*
G1X1788150Y1737399D2*
G1X1799850Y1737399D1*
G1X1788150Y1736949D2*
G1X1799850Y1736949D1*
G1X1788150Y1736499D2*
G1X1799850Y1736499D1*
G1X1790302Y1744149D2*
G1X1794898Y1744149D1*
G1X1790752Y1744599D2*
G1X1794448Y1744599D1*
G1X1791850Y1757199D2*
G1X1794350Y1757199D1*
G1X1791850Y1756749D2*
G1X1794350Y1756749D1*
G1X1791850Y1756299D2*
G1X1794350Y1756299D1*
G1X1791850Y1755849D2*
G1X1794350Y1755849D1*
G1X1791850Y1755399D2*
G1X1794350Y1755399D1*
G1X1791850Y1754949D2*
G1X1794350Y1754949D1*
G1X1791850Y1754499D2*
G1X1794350Y1754499D1*
G1X1791850Y1754049D2*
G1X1794350Y1754049D1*
G1X1791850Y1753599D2*
G1X1794350Y1753599D1*
G1X1791850Y1753149D2*
G1X1794350Y1753149D1*
G1X1791850Y1752699D2*
G1X1794350Y1752699D1*
G1X1791850Y1752249D2*
G1X1794350Y1752249D1*
G1X1791850Y1751799D2*
G1X1794350Y1751799D1*
G1X1773350Y1751349D2*
G1X1794350Y1751349D1*
G1X1773350Y1750899D2*
G1X1794350Y1750899D1*
G1X1773350Y1750449D2*
G1X1794350Y1750449D1*
G1X1773350Y1749999D2*
G1X1794350Y1749999D1*
G1X1791850Y1749549D2*
G1X1794350Y1749549D1*
G1X1791850Y1749099D2*
G1X1794350Y1749099D1*
G1X1791850Y1748649D2*
G1X1794350Y1748649D1*
G1X1791850Y1748199D2*
G1X1794350Y1748199D1*
G1X1791850Y1747749D2*
G1X1794350Y1747749D1*
G1X1791850Y1747299D2*
G1X1794350Y1747299D1*
G1X1791850Y1746849D2*
G1X1794350Y1746849D1*
G1X1791850Y1746399D2*
G1X1794350Y1746399D1*
G1X1791850Y1745949D2*
G1X1794350Y1745949D1*
G1X1791652Y1745499D2*
G1X1794350Y1745499D1*
G1X1791202Y1745049D2*
G1X1794350Y1745049D1*
G1X1773350Y1779249D2*
G1X1791850Y1779249D1*
G1X1773350Y1778799D2*
G1X1791850Y1778799D1*
G1X1773350Y1778349D2*
G1X1791850Y1778349D1*
G1X1773350Y1777899D2*
G1X1791850Y1777899D1*
G1X1773350Y1777449D2*
G1X1791850Y1777449D1*
G1X1773350Y1776999D2*
G1X1791850Y1776999D1*
G1X1773350Y1776549D2*
G1X1791850Y1776549D1*
G1X1773350Y1776099D2*
G1X1791850Y1776099D1*
G1X1773350Y1775649D2*
G1X1791850Y1775649D1*
G1X1773350Y1775199D2*
G1X1791850Y1775199D1*
G1X1773350Y1774749D2*
G1X1791850Y1774749D1*
G1X1773350Y1774299D2*
G1X1781350Y1774299D1*
G1X1773350Y1773849D2*
G1X1781350Y1773849D1*
G1X1773350Y1773399D2*
G1X1781350Y1773399D1*
G1X1773350Y1772949D2*
G1X1781350Y1772949D1*
G1X1773350Y1772499D2*
G1X1781350Y1772499D1*
G1X1773350Y1772049D2*
G1X1781350Y1772049D1*
G1X1773350Y1771599D2*
G1X1781350Y1771599D1*
G1X1773350Y1771149D2*
G1X1781350Y1771149D1*
G1X1773350Y1770699D2*
G1X1781350Y1770699D1*
G1X1773350Y1770249D2*
G1X1781350Y1770249D1*
G1X1773350Y1769799D2*
G1X1781350Y1769799D1*
G1X1773350Y1769349D2*
G1X1781350Y1769349D1*
G1X1773350Y1768899D2*
G1X1781350Y1768899D1*
G1X1773350Y1768449D2*
G1X1781350Y1768449D1*
G1X1773350Y1767999D2*
G1X1781350Y1767999D1*
G1X1773350Y1767549D2*
G1X1781350Y1767549D1*
G1X1773350Y1767099D2*
G1X1781350Y1767099D1*
G1X1773350Y1766649D2*
G1X1781350Y1766649D1*
G1X1773350Y1766199D2*
G1X1781350Y1766199D1*
G1X1773350Y1765749D2*
G1X1781350Y1765749D1*
G1X1773350Y1765299D2*
G1X1781350Y1765299D1*
G1X1773350Y1764849D2*
G1X1781350Y1764849D1*
G1X1773350Y1764399D2*
G1X1781350Y1764399D1*
G1X1773350Y1763949D2*
G1X1781350Y1763949D1*
G1X1773350Y1763499D2*
G1X1781350Y1763499D1*
G1X1773350Y1763049D2*
G1X1781350Y1763049D1*
G1X1773350Y1762599D2*
G1X1781350Y1762599D1*
G1X1773350Y1762149D2*
G1X1781350Y1762149D1*
G1X1773350Y1761699D2*
G1X1781350Y1761699D1*
G1X1773350Y1761249D2*
G1X1781350Y1761249D1*
G1X1773350Y1760799D2*
G1X1781350Y1760799D1*
G1X1773350Y1760349D2*
G1X1781350Y1760349D1*
G1X1773350Y1759899D2*
G1X1781350Y1759899D1*
G1X1773350Y1759449D2*
G1X1781350Y1759449D1*
G1X1773350Y1758999D2*
G1X1781350Y1758999D1*
G1X1773350Y1758549D2*
G1X1781350Y1758549D1*
G1X1773350Y1758099D2*
G1X1781350Y1758099D1*
G1X1773350Y1757649D2*
G1X1781350Y1757649D1*
G1X1773350Y1757199D2*
G1X1781350Y1757199D1*
G1X1773350Y1756749D2*
G1X1781350Y1756749D1*
G1X1773350Y1756299D2*
G1X1781350Y1756299D1*
G1X1773350Y1755849D2*
G1X1781350Y1755849D1*
G1X1773350Y1755399D2*
G1X1781350Y1755399D1*
G1X1773350Y1754949D2*
G1X1781350Y1754949D1*
G1X1773350Y1754499D2*
G1X1781350Y1754499D1*
G1X1773350Y1754049D2*
G1X1781350Y1754049D1*
G1X1773350Y1753599D2*
G1X1781350Y1753599D1*
G1X1773350Y1753149D2*
G1X1781350Y1753149D1*
G1X1773350Y1752699D2*
G1X1781350Y1752699D1*
G1X1773350Y1752249D2*
G1X1781350Y1752249D1*
G1X1773350Y1751799D2*
G1X1781350Y1751799D1*
G1X1773350Y1749549D2*
G1X1777850Y1749549D1*
G1X1773350Y1749099D2*
G1X1777850Y1749099D1*
G1X1773350Y1748649D2*
G1X1777850Y1748649D1*
G1X1773350Y1748199D2*
G1X1777850Y1748199D1*
G1X1773350Y1747749D2*
G1X1777850Y1747749D1*
G1X1773350Y1747299D2*
G1X1777850Y1747299D1*
G1X1773350Y1746849D2*
G1X1777850Y1746849D1*
G1X1773350Y1746399D2*
G1X1777850Y1746399D1*
G1X1773350Y1745949D2*
G1X1777850Y1745949D1*
G1X1773350Y1745499D2*
G1X1777850Y1745499D1*
G1X1773350Y1745049D2*
G1X1777850Y1745049D1*
G1X1773350Y1744599D2*
G1X1777850Y1744599D1*
G1X1773350Y1744149D2*
G1X1777850Y1744149D1*
G1X1773350Y1743699D2*
G1X1777850Y1743699D1*
G1X1783250Y1772199D2*
G1X1791850Y1772199D1*
G1X1783250Y1771749D2*
G1X1791850Y1771749D1*
G1X1783250Y1771299D2*
G1X1791850Y1771299D1*
G1X1783250Y1770849D2*
G1X1791850Y1770849D1*
G1X1783250Y1770399D2*
G1X1791850Y1770399D1*
G1X1783250Y1769949D2*
G1X1791850Y1769949D1*
G1X1783250Y1769499D2*
G1X1791850Y1769499D1*
G1X1783250Y1769049D2*
G1X1791850Y1769049D1*
G1X1783250Y1768599D2*
G1X1791850Y1768599D1*
G1X1783250Y1768149D2*
G1X1791850Y1768149D1*
G1X1783250Y1767699D2*
G1X1791850Y1767699D1*
G1X1783250Y1767249D2*
G1X1791850Y1767249D1*
G1X1783250Y1766799D2*
G1X1791850Y1766799D1*
G1X1783250Y1766349D2*
G1X1791850Y1766349D1*
G1X1783250Y1765899D2*
G1X1791850Y1765899D1*
G1X1783250Y1765449D2*
G1X1791850Y1765449D1*
G1X1783250Y1764999D2*
G1X1791850Y1764999D1*
G1X1783250Y1764549D2*
G1X1791850Y1764549D1*
G1X1783250Y1764099D2*
G1X1791850Y1764099D1*
G1X1783250Y1763649D2*
G1X1791850Y1763649D1*
G1X1783250Y1763199D2*
G1X1791850Y1763199D1*
G1X1783250Y1762749D2*
G1X1791850Y1762749D1*
G1X1783250Y1762299D2*
G1X1791850Y1762299D1*
G1X1783250Y1761849D2*
G1X1791850Y1761849D1*
G1X1783250Y1761399D2*
G1X1791850Y1761399D1*
G1X1783250Y1760949D2*
G1X1791850Y1760949D1*
G1X1783250Y1760499D2*
G1X1791850Y1760499D1*
G1X1783250Y1760049D2*
G1X1791850Y1760049D1*
G1X1783250Y1759599D2*
G1X1791850Y1759599D1*
G1X1783250Y1759149D2*
G1X1791850Y1759149D1*
G1X1783250Y1758699D2*
G1X1790050Y1758699D1*
G1X1783250Y1758249D2*
G1X1790050Y1758249D1*
G1X1783250Y1757799D2*
G1X1790050Y1757799D1*
G1X1783250Y1757349D2*
G1X1790050Y1757349D1*
G1X1783250Y1756899D2*
G1X1790050Y1756899D1*
G1X1783250Y1756449D2*
G1X1790050Y1756449D1*
G1X1783250Y1755999D2*
G1X1790050Y1755999D1*
G1X1783250Y1755549D2*
G1X1790050Y1755549D1*
G1X1783250Y1755099D2*
G1X1790050Y1755099D1*
G1X1783250Y1754649D2*
G1X1790050Y1754649D1*
G1X1783250Y1754199D2*
G1X1790050Y1754199D1*
G1X1794350Y1779399D2*
G1X1804250Y1779399D1*
G1X1794350Y1778949D2*
G1X1804250Y1778949D1*
G1X1794350Y1778499D2*
G1X1804250Y1778499D1*
G1X1794350Y1778049D2*
G1X1804250Y1778049D1*
G1X1794350Y1777599D2*
G1X1804250Y1777599D1*
G1X1794350Y1777149D2*
G1X1804250Y1777149D1*
G1X1794350Y1776699D2*
G1X1804250Y1776699D1*
G1X1794350Y1776249D2*
G1X1804250Y1776249D1*
G1X1794350Y1775799D2*
G1X1804250Y1775799D1*
G1X1794350Y1775349D2*
G1X1804250Y1775349D1*
G1X1794350Y1774899D2*
G1X1804250Y1774899D1*
G1X1794350Y1774449D2*
G1X1804250Y1774449D1*
G1X1794350Y1773999D2*
G1X1804250Y1773999D1*
G1X1794350Y1773549D2*
G1X1804250Y1773549D1*
G1X1794350Y1773099D2*
G1X1804250Y1773099D1*
G1X1794350Y1772649D2*
G1X1804250Y1772649D1*
G1X1794350Y1772199D2*
G1X1804250Y1772199D1*
G1X1794350Y1771749D2*
G1X1804250Y1771749D1*
G1X1794350Y1771299D2*
G1X1804250Y1771299D1*
G1X1794350Y1770849D2*
G1X1804250Y1770849D1*
G1X1794350Y1770399D2*
G1X1804250Y1770399D1*
G1X1794350Y1769949D2*
G1X1804250Y1769949D1*
G1X1794350Y1769499D2*
G1X1804250Y1769499D1*
G1X1794350Y1769049D2*
G1X1804250Y1769049D1*
G1X1794350Y1768599D2*
G1X1804250Y1768599D1*
G1X1794350Y1768149D2*
G1X1804250Y1768149D1*
G1X1794350Y1767699D2*
G1X1804250Y1767699D1*
G1X1794350Y1767249D2*
G1X1804250Y1767249D1*
G1X1794350Y1766799D2*
G1X1804250Y1766799D1*
G1X1794350Y1766349D2*
G1X1804250Y1766349D1*
G1X1794350Y1765899D2*
G1X1804250Y1765899D1*
G1X1794350Y1765449D2*
G1X1804250Y1765449D1*
G1X1794350Y1764999D2*
G1X1804250Y1764999D1*
G1X1794350Y1764549D2*
G1X1804250Y1764549D1*
G1X1794350Y1764099D2*
G1X1804250Y1764099D1*
G1X1794350Y1763649D2*
G1X1804250Y1763649D1*
G1X1794350Y1763199D2*
G1X1804250Y1763199D1*
G1X1794350Y1762749D2*
G1X1804250Y1762749D1*
G1X1794350Y1762299D2*
G1X1804250Y1762299D1*
G1X1794350Y1761849D2*
G1X1804250Y1761849D1*
G1X1794350Y1761399D2*
G1X1804250Y1761399D1*
G1X1794350Y1760949D2*
G1X1804250Y1760949D1*
G1X1794350Y1760499D2*
G1X1804250Y1760499D1*
G1X1794350Y1760049D2*
G1X1804250Y1760049D1*
G1X1794350Y1759599D2*
G1X1804250Y1759599D1*
G1X1794350Y1759149D2*
G1X1804250Y1759149D1*
G1X1796050Y1758699D2*
G1X1804250Y1758699D1*
G1X1796050Y1758249D2*
G1X1804250Y1758249D1*
G1X1796050Y1757799D2*
G1X1804250Y1757799D1*
G1X1796050Y1757349D2*
G1X1804250Y1757349D1*
G1X1796050Y1756899D2*
G1X1804250Y1756899D1*
G1X1796050Y1756449D2*
G1X1804250Y1756449D1*
G1X1796050Y1755999D2*
G1X1804250Y1755999D1*
G1X1796050Y1755549D2*
G1X1804250Y1755549D1*
G1X1796050Y1755099D2*
G1X1804250Y1755099D1*
G1X1796050Y1754649D2*
G1X1804250Y1754649D1*
G1X1796050Y1754199D2*
G1X1804250Y1754199D1*
G1X1780750Y1734049D2*
G1X1793450Y1734049D1*
G1X1780750Y1733599D2*
G1X1793450Y1733599D1*
G1X1780750Y1733149D2*
G1X1793450Y1733149D1*
G1X1780750Y1732699D2*
G1X1793450Y1732699D1*
G1X1780750Y1732249D2*
G1X1793450Y1732249D1*
G1X1780750Y1731799D2*
G1X1793450Y1731799D1*
G1X1780750Y1731349D2*
G1X1793450Y1731349D1*
G1X1780750Y1730899D2*
G1X1793450Y1730899D1*
G1X1780750Y1730449D2*
G1X1793450Y1730449D1*
G1X1780750Y1729999D2*
G1X1793450Y1729999D1*
G1X1780750Y1729549D2*
G1X1793450Y1729549D1*
G1X1780750Y1729099D2*
G1X1793450Y1729099D1*
G1X1780750Y1728649D2*
G1X1793450Y1728649D1*
G1X1780750Y1728199D2*
G1X1793450Y1728199D1*
G1X1780750Y1727749D2*
G1X1793450Y1727749D1*
G1X1780750Y1727299D2*
G1X1793450Y1727299D1*
G1X1780750Y1726849D2*
G1X1793450Y1726849D1*
G1X1780750Y1726399D2*
G1X1793450Y1726399D1*
G1X1780750Y1725949D2*
G1X1793450Y1725949D1*
G1X1780750Y1725499D2*
G1X1793450Y1725499D1*
G1X1780750Y1747549D2*
G1X1790050Y1747549D1*
G1X1780750Y1747099D2*
G1X1790050Y1747099D1*
G1X1780750Y1746649D2*
G1X1790050Y1746649D1*
G1X1780750Y1746199D2*
G1X1790050Y1746199D1*
G1X1780750Y1745749D2*
G1X1788695Y1745749D1*
G1X1780750Y1745299D2*
G1X1788245Y1745299D1*
G1X1780750Y1744849D2*
G1X1787795Y1744849D1*
G1X1780750Y1744399D2*
G1X1787345Y1744399D1*
G1X1780750Y1743949D2*
G1X1786895Y1743949D1*
G1X1780750Y1743499D2*
G1X1786445Y1743499D1*
G1X1780750Y1743049D2*
G1X1786350Y1743049D1*
G1X1780750Y1742599D2*
G1X1786350Y1742599D1*
G1X1780750Y1742149D2*
G1X1786350Y1742149D1*
G1X1780750Y1741699D2*
G1X1786350Y1741699D1*
G1X1780750Y1741249D2*
G1X1786350Y1741249D1*
G1X1780750Y1740799D2*
G1X1786350Y1740799D1*
G1X1780750Y1740349D2*
G1X1786350Y1740349D1*
G1X1780750Y1739899D2*
G1X1786350Y1739899D1*
G1X1780750Y1739449D2*
G1X1786350Y1739449D1*
G1X1780750Y1738999D2*
G1X1786350Y1738999D1*
G1X1780750Y1738549D2*
G1X1786350Y1738549D1*
G1X1780750Y1738099D2*
G1X1786350Y1738099D1*
G1X1780750Y1737649D2*
G1X1786350Y1737649D1*
G1X1780750Y1737199D2*
G1X1786350Y1737199D1*
G1X1780750Y1736749D2*
G1X1786350Y1736749D1*
G1X1780750Y1736299D2*
G1X1786350Y1736299D1*
G1X1780750Y1735849D2*
G1X1786350Y1735849D1*
G1X1780750Y1735399D2*
G1X1786350Y1735399D1*
G1X1780750Y1734949D2*
G1X1786350Y1734949D1*
G1X1780750Y1734499D2*
G1X1786350Y1734499D1*
G1X1796150Y1751599D2*
G1X1811350Y1751599D1*
G1X1796150Y1751149D2*
G1X1811350Y1751149D1*
G1X1796150Y1750699D2*
G1X1811350Y1750699D1*
G1X1796150Y1750249D2*
G1X1811350Y1750249D1*
G1X1804655Y1749799D2*
G1X1811350Y1749799D1*
G1X1805105Y1749349D2*
G1X1811350Y1749349D1*
G1X1805555Y1748899D2*
G1X1811350Y1748899D1*
G1X1806005Y1748449D2*
G1X1811350Y1748449D1*
G1X1806050Y1747999D2*
G1X1811350Y1747999D1*
G1X1806050Y1747549D2*
G1X1811350Y1747549D1*
G1X1806050Y1747099D2*
G1X1811350Y1747099D1*
G1X1806050Y1746649D2*
G1X1811350Y1746649D1*
G1X1806050Y1746199D2*
G1X1811350Y1746199D1*
G1X1806050Y1745749D2*
G1X1811350Y1745749D1*
G1X1805652Y1745299D2*
G1X1811350Y1745299D1*
G1X1805202Y1744849D2*
G1X1811350Y1744849D1*
G1X1804752Y1744399D2*
G1X1811350Y1744399D1*
G1X1802250Y1743949D2*
G1X1811350Y1743949D1*
G1X1802250Y1743499D2*
G1X1811350Y1743499D1*
G1X1802250Y1743049D2*
G1X1811350Y1743049D1*
G1X1802250Y1742599D2*
G1X1811350Y1742599D1*
G1X1802250Y1742149D2*
G1X1811350Y1742149D1*
G1X1802250Y1741699D2*
G1X1811350Y1741699D1*
G1X1802250Y1741249D2*
G1X1811350Y1741249D1*
G1X1802250Y1740799D2*
G1X1811350Y1740799D1*
G1X1802250Y1740349D2*
G1X1811350Y1740349D1*
G1X1802250Y1739899D2*
G1X1811350Y1739899D1*
G1X1802250Y1739449D2*
G1X1811350Y1739449D1*
G1X1802250Y1738999D2*
G1X1811350Y1738999D1*
G1X1802250Y1738549D2*
G1X1811350Y1738549D1*
G1X1802250Y1738099D2*
G1X1811350Y1738099D1*
G1X1802250Y1737649D2*
G1X1811350Y1737649D1*
G1X1802250Y1737199D2*
G1X1811350Y1737199D1*
G1X1802250Y1736749D2*
G1X1811350Y1736749D1*
G1X1802250Y1736299D2*
G1X1811350Y1736299D1*
G1X1802250Y1735849D2*
G1X1811350Y1735849D1*
G1X1802250Y1735399D2*
G1X1811350Y1735399D1*
G1X1802250Y1734949D2*
G1X1811350Y1734949D1*
G1X1802250Y1734499D2*
G1X1811350Y1734499D1*
G1X1796650Y1734049D2*
G1X1811350Y1734049D1*
G1X1796650Y1733599D2*
G1X1811350Y1733599D1*
G1X1796650Y1733149D2*
G1X1811350Y1733149D1*
G1X1796650Y1732699D2*
G1X1811350Y1732699D1*
G1X1796650Y1732249D2*
G1X1811350Y1732249D1*
G1X1796650Y1731799D2*
G1X1811350Y1731799D1*
G1X1796650Y1731349D2*
G1X1811350Y1731349D1*
G1X1796650Y1730899D2*
G1X1811350Y1730899D1*
G1X1796650Y1730449D2*
G1X1811350Y1730449D1*
G1X1796650Y1729999D2*
G1X1811350Y1729999D1*
G1X1796650Y1729549D2*
G1X1811350Y1729549D1*
G1X1796650Y1729099D2*
G1X1811350Y1729099D1*
G1X1796650Y1728649D2*
G1X1811350Y1728649D1*
G1X1796650Y1728199D2*
G1X1811350Y1728199D1*
G1X1796650Y1727749D2*
G1X1811350Y1727749D1*
G1X1796650Y1727299D2*
G1X1811350Y1727299D1*
G1X1796650Y1726849D2*
G1X1811350Y1726849D1*
G1X1796650Y1726399D2*
G1X1811350Y1726399D1*
G1X1796650Y1725949D2*
G1X1811350Y1725949D1*
G1X1796650Y1725499D2*
G1X1811350Y1725499D1*
G1X1701850Y1647199D2*
G1X1720850Y1647199D1*
G1X1701850Y1646749D2*
G1X1720850Y1646749D1*
G1X1701850Y1646299D2*
G1X1720850Y1646299D1*
G1X1701850Y1645849D2*
G1X1720850Y1645849D1*
G1X1701850Y1645399D2*
G1X1720850Y1645399D1*
G1X1701850Y1644949D2*
G1X1720850Y1644949D1*
G1X1701850Y1644499D2*
G1X1720850Y1644499D1*
G1X1701850Y1644049D2*
G1X1720850Y1644049D1*
G1X1701850Y1643599D2*
G1X1720850Y1643599D1*
G1X1701850Y1643149D2*
G1X1720850Y1643149D1*
G1X1701850Y1642699D2*
G1X1720850Y1642699D1*
G1X1701850Y1642249D2*
G1X1720850Y1642249D1*
G1X1701850Y1641799D2*
G1X1720850Y1641799D1*
G1X1701850Y1641349D2*
G1X1720850Y1641349D1*
G1X1701850Y1640899D2*
G1X1720850Y1640899D1*
G1X1701850Y1640449D2*
G1X1720850Y1640449D1*
G1X1701850Y1639999D2*
G1X1720850Y1639999D1*
G1X1701850Y1639549D2*
G1X1720850Y1639549D1*
G1X1701850Y1639099D2*
G1X1720850Y1639099D1*
G1X1701850Y1638649D2*
G1X1720850Y1638649D1*
G1X1701850Y1638199D2*
G1X1720850Y1638199D1*
G1X1701850Y1637749D2*
G1X1720850Y1637749D1*
G1X1701850Y1637299D2*
G1X1720850Y1637299D1*
G1X1701850Y1636849D2*
G1X1720850Y1636849D1*
G1X1701850Y1636399D2*
G1X1720850Y1636399D1*
G1X1701850Y1635949D2*
G1X1720850Y1635949D1*
G1X1701850Y1635499D2*
G1X1720850Y1635499D1*
G1X1701850Y1635049D2*
G1X1720850Y1635049D1*
G1X1701850Y1634599D2*
G1X1720850Y1634599D1*
G1X1701850Y1634149D2*
G1X1720850Y1634149D1*
G1X1701850Y1633699D2*
G1X1720850Y1633699D1*
G1X1701850Y1633249D2*
G1X1720850Y1633249D1*
G1X1701850Y1632799D2*
G1X1720850Y1632799D1*
G1X1701850Y1632349D2*
G1X1720850Y1632349D1*
G1X1701850Y1631899D2*
G1X1720850Y1631899D1*
G1X1701850Y1631449D2*
G1X1720850Y1631449D1*
G1X1701850Y1630999D2*
G1X1720850Y1630999D1*
G1X1701850Y1630549D2*
G1X1720850Y1630549D1*
G1X1701850Y1630099D2*
G1X1720850Y1630099D1*
G1X1701850Y1629649D2*
G1X1720850Y1629649D1*
G1X1701850Y1629199D2*
G1X1720850Y1629199D1*
G1X1701850Y1628749D2*
G1X1720850Y1628749D1*
G1X1701850Y1628299D2*
G1X1720850Y1628299D1*
G1X1701850Y1627849D2*
G1X1720850Y1627849D1*
G1X1701850Y1627399D2*
G1X1720850Y1627399D1*
G1X1701850Y1626949D2*
G1X1720850Y1626949D1*
G1X1701850Y1626499D2*
G1X1720850Y1626499D1*
G1X1701850Y1626049D2*
G1X1720850Y1626049D1*
G1X1701850Y1625599D2*
G1X1720850Y1625599D1*
G1X1701850Y1625149D2*
G1X1720850Y1625149D1*
G1X1701850Y1624699D2*
G1X1720850Y1624699D1*
G1X1701850Y1624249D2*
G1X1720850Y1624249D1*
G1X1701850Y1623799D2*
G1X1720850Y1623799D1*
G1X1701850Y1623349D2*
G1X1720850Y1623349D1*
G1X1701850Y1622899D2*
G1X1720850Y1622899D1*
G1X1701850Y1622449D2*
G1X1720850Y1622449D1*
G1X1701850Y1621999D2*
G1X1720850Y1621999D1*
G1X1675350Y1618399D2*
G1X1710350Y1618399D1*
G1X1675350Y1617949D2*
G1X1710350Y1617949D1*
G1X1675350Y1617499D2*
G1X1710350Y1617499D1*
G1X1675350Y1617049D2*
G1X1710350Y1617049D1*
G1X1675350Y1616599D2*
G1X1710350Y1616599D1*
G1X1675350Y1616149D2*
G1X1710350Y1616149D1*
G1X1675350Y1615699D2*
G1X1710350Y1615699D1*
G1X1675350Y1615249D2*
G1X1710350Y1615249D1*
G1X1675350Y1614799D2*
G1X1710350Y1614799D1*
G1X1675350Y1614349D2*
G1X1710350Y1614349D1*
G1X1675350Y1613899D2*
G1X1710350Y1613899D1*
G1X1675350Y1613449D2*
G1X1710350Y1613449D1*
G1X1675350Y1612999D2*
G1X1710350Y1612999D1*
G1X1675350Y1612549D2*
G1X1710350Y1612549D1*
G1X1675350Y1612099D2*
G1X1710350Y1612099D1*
G1X1675350Y1611649D2*
G1X1710350Y1611649D1*
G1X1675350Y1611199D2*
G1X1710350Y1611199D1*
G1X1675350Y1610749D2*
G1X1710350Y1610749D1*
G1X1675350Y1610299D2*
G1X1710350Y1610299D1*
G1X1675350Y1609849D2*
G1X1710350Y1609849D1*
G1X1675350Y1609399D2*
G1X1710350Y1609399D1*
G1X1675350Y1608949D2*
G1X1710350Y1608949D1*
G1X1675350Y1608499D2*
G1X1710350Y1608499D1*
G1X1675350Y1653049D2*
G1X1699350Y1653049D1*
G1X1675350Y1652599D2*
G1X1699350Y1652599D1*
G1X1675350Y1652149D2*
G1X1699350Y1652149D1*
G1X1675350Y1651699D2*
G1X1699350Y1651699D1*
G1X1675350Y1651249D2*
G1X1699350Y1651249D1*
G1X1675350Y1650799D2*
G1X1699350Y1650799D1*
G1X1675350Y1650349D2*
G1X1699350Y1650349D1*
G1X1675350Y1649899D2*
G1X1699350Y1649899D1*
G1X1675350Y1649449D2*
G1X1699350Y1649449D1*
G1X1675350Y1648999D2*
G1X1699350Y1648999D1*
G1X1675350Y1648549D2*
G1X1699350Y1648549D1*
G1X1675350Y1648099D2*
G1X1699350Y1648099D1*
G1X1675350Y1647649D2*
G1X1699350Y1647649D1*
G1X1675350Y1647199D2*
G1X1699350Y1647199D1*
G1X1675350Y1646749D2*
G1X1699350Y1646749D1*
G1X1675350Y1646299D2*
G1X1699350Y1646299D1*
G1X1675350Y1645849D2*
G1X1699350Y1645849D1*
G1X1675350Y1645399D2*
G1X1699350Y1645399D1*
G1X1675350Y1644949D2*
G1X1699350Y1644949D1*
G1X1675350Y1644499D2*
G1X1699350Y1644499D1*
G1X1675350Y1644049D2*
G1X1699350Y1644049D1*
G1X1675350Y1643599D2*
G1X1699350Y1643599D1*
G1X1675350Y1643149D2*
G1X1699350Y1643149D1*
G1X1675350Y1642699D2*
G1X1699350Y1642699D1*
G1X1675350Y1642249D2*
G1X1699350Y1642249D1*
G1X1675350Y1641799D2*
G1X1699350Y1641799D1*
G1X1675350Y1641349D2*
G1X1699350Y1641349D1*
G1X1675350Y1640899D2*
G1X1699350Y1640899D1*
G1X1675350Y1640449D2*
G1X1699350Y1640449D1*
G1X1675350Y1639999D2*
G1X1699350Y1639999D1*
G1X1675350Y1639549D2*
G1X1699350Y1639549D1*
G1X1675350Y1639099D2*
G1X1699350Y1639099D1*
G1X1675350Y1638649D2*
G1X1699350Y1638649D1*
G1X1675350Y1638199D2*
G1X1699350Y1638199D1*
G1X1675350Y1637749D2*
G1X1699350Y1637749D1*
G1X1675350Y1637299D2*
G1X1699350Y1637299D1*
G1X1675350Y1636849D2*
G1X1699350Y1636849D1*
G1X1675350Y1636399D2*
G1X1699350Y1636399D1*
G1X1675350Y1635949D2*
G1X1699350Y1635949D1*
G1X1675350Y1635499D2*
G1X1699350Y1635499D1*
G1X1675350Y1635049D2*
G1X1699350Y1635049D1*
G1X1675350Y1634599D2*
G1X1699350Y1634599D1*
G1X1675350Y1634149D2*
G1X1699350Y1634149D1*
G1X1675350Y1633699D2*
G1X1699350Y1633699D1*
G1X1675350Y1633249D2*
G1X1699350Y1633249D1*
G1X1675350Y1632799D2*
G1X1699350Y1632799D1*
G1X1675350Y1632349D2*
G1X1699350Y1632349D1*
G1X1675350Y1631899D2*
G1X1699350Y1631899D1*
G1X1675350Y1631449D2*
G1X1699350Y1631449D1*
G1X1675350Y1630999D2*
G1X1699350Y1630999D1*
G1X1675350Y1630549D2*
G1X1699350Y1630549D1*
G1X1675350Y1630099D2*
G1X1699350Y1630099D1*
G1X1675350Y1629649D2*
G1X1699350Y1629649D1*
G1X1675350Y1629199D2*
G1X1699350Y1629199D1*
G1X1675350Y1628749D2*
G1X1699350Y1628749D1*
G1X1675350Y1628299D2*
G1X1699350Y1628299D1*
G1X1675350Y1627849D2*
G1X1699350Y1627849D1*
G1X1675350Y1627399D2*
G1X1699350Y1627399D1*
G1X1675350Y1626949D2*
G1X1699350Y1626949D1*
G1X1675350Y1626499D2*
G1X1699350Y1626499D1*
G1X1675350Y1626049D2*
G1X1699350Y1626049D1*
G1X1675350Y1625599D2*
G1X1699350Y1625599D1*
G1X1675350Y1625149D2*
G1X1699350Y1625149D1*
G1X1675350Y1624699D2*
G1X1699350Y1624699D1*
G1X1675350Y1624249D2*
G1X1699350Y1624249D1*
G1X1675350Y1623799D2*
G1X1699350Y1623799D1*
G1X1675350Y1623349D2*
G1X1699350Y1623349D1*
G1X1675350Y1622899D2*
G1X1699350Y1622899D1*
G1X1675350Y1622449D2*
G1X1699350Y1622449D1*
G1X1675350Y1621999D2*
G1X1699350Y1621999D1*
G1X1675350Y1621549D2*
G1X1699350Y1621549D1*
G1X1675350Y1621099D2*
G1X1699350Y1621099D1*
G1X1675350Y1620649D2*
G1X1699350Y1620649D1*
G1X1675350Y1620199D2*
G1X1699350Y1620199D1*
G1X1675350Y1619749D2*
G1X1699350Y1619749D1*
G1X1675350Y1619299D2*
G1X1699350Y1619299D1*
G1X1675350Y1618849D2*
G1X1699350Y1618849D1*
G1X1862550Y1728799D2*
G1X1874050Y1728799D1*
G1X1862550Y1728349D2*
G1X1874050Y1728349D1*
G1X1862550Y1727899D2*
G1X1874050Y1727899D1*
G1X1862550Y1727449D2*
G1X1874050Y1727449D1*
G1X1862550Y1726999D2*
G1X1874050Y1726999D1*
G1X1862550Y1726549D2*
G1X1874050Y1726549D1*
G1X1862550Y1726099D2*
G1X1874050Y1726099D1*
G1X1862550Y1725649D2*
G1X1874050Y1725649D1*
G1X1862550Y1725199D2*
G1X1874050Y1725199D1*
G1X1869450Y1724749D2*
G1X1874050Y1724749D1*
G1X1869450Y1724299D2*
G1X1874050Y1724299D1*
G1X1869450Y1723849D2*
G1X1874050Y1723849D1*
G1X1869450Y1723399D2*
G1X1874050Y1723399D1*
G1X1869450Y1722949D2*
G1X1874050Y1722949D1*
G1X1869450Y1722499D2*
G1X1874050Y1722499D1*
G1X1869450Y1722049D2*
G1X1874050Y1722049D1*
G1X1869450Y1721599D2*
G1X1874050Y1721599D1*
G1X1869450Y1721149D2*
G1X1874050Y1721149D1*
G1X1869450Y1720699D2*
G1X1874050Y1720699D1*
G1X1869450Y1720249D2*
G1X1874050Y1720249D1*
G1X1869450Y1719799D2*
G1X1874050Y1719799D1*
G1X1869450Y1719349D2*
G1X1874050Y1719349D1*
G1X1869450Y1718899D2*
G1X1874050Y1718899D1*
G1X1869450Y1718449D2*
G1X1874050Y1718449D1*
G1X1869450Y1717999D2*
G1X1874050Y1717999D1*
G1X1866790Y1753139D2*
G1X1880350Y1753139D1*
G1X1866790Y1752689D2*
G1X1880350Y1752689D1*
G1X1866790Y1752239D2*
G1X1880350Y1752239D1*
G1X1866790Y1751789D2*
G1X1880350Y1751789D1*
G1X1866790Y1751339D2*
G1X1880350Y1751339D1*
G1X1866790Y1750889D2*
G1X1880350Y1750889D1*
G1X1866790Y1750439D2*
G1X1880350Y1750439D1*
G1X1866790Y1749989D2*
G1X1880350Y1749989D1*
G1X1866790Y1749539D2*
G1X1880350Y1749539D1*
G1X1866790Y1749089D2*
G1X1880350Y1749089D1*
G1X1866790Y1748639D2*
G1X1880350Y1748639D1*
G1X1866790Y1748189D2*
G1X1880350Y1748189D1*
G1X1866790Y1747739D2*
G1X1880350Y1747739D1*
G1X1866790Y1747289D2*
G1X1880350Y1747289D1*
G1X1866790Y1746839D2*
G1X1880350Y1746839D1*
G1X1866790Y1746389D2*
G1X1880350Y1746389D1*
G1X1866790Y1745939D2*
G1X1880350Y1745939D1*
G1X1866790Y1745489D2*
G1X1880350Y1745489D1*
G1X1866790Y1745039D2*
G1X1880350Y1745039D1*
G1X1866790Y1744589D2*
G1X1880350Y1744589D1*
G1X1866945Y1744139D2*
G1X1880195Y1744139D1*
G1X1867152Y1753589D2*
G1X1879988Y1753589D1*
G1X1867395Y1743689D2*
G1X1879745Y1743689D1*
G1X1867602Y1754039D2*
G1X1879538Y1754039D1*
G1X1891350Y1750479D2*
G1X1914700Y1750479D1*
G1X1891350Y1750029D2*
G1X1914700Y1750029D1*
G1X1891350Y1749579D2*
G1X1914700Y1749579D1*
G1X1891350Y1749129D2*
G1X1914700Y1749129D1*
G1X1891350Y1748679D2*
G1X1914700Y1748679D1*
G1X1891350Y1748229D2*
G1X1914700Y1748229D1*
G1X1891350Y1747779D2*
G1X1914700Y1747779D1*
G1X1891350Y1747329D2*
G1X1914700Y1747329D1*
G1X1885120Y1746879D2*
G1X1914700Y1746879D1*
G1X1885120Y1746429D2*
G1X1914700Y1746429D1*
G1X1885120Y1745979D2*
G1X1914700Y1745979D1*
G1X1885120Y1745529D2*
G1X1914700Y1745529D1*
G1X1885120Y1745079D2*
G1X1914700Y1745079D1*
G1X1885120Y1744629D2*
G1X1914700Y1744629D1*
G1X1885120Y1744179D2*
G1X1914700Y1744179D1*
G1X1885120Y1743729D2*
G1X1914700Y1743729D1*
G1X1885120Y1743279D2*
G1X1914700Y1743279D1*
G1X1885120Y1742829D2*
G1X1914700Y1742829D1*
G1X1889850Y1721649D2*
G1X1905950Y1721649D1*
G1X1889850Y1721199D2*
G1X1905950Y1721199D1*
G1X1889850Y1720749D2*
G1X1905950Y1720749D1*
G1X1889850Y1720299D2*
G1X1905950Y1720299D1*
G1X1889850Y1719849D2*
G1X1905950Y1719849D1*
G1X1880050Y1719399D2*
G1X1905950Y1719399D1*
G1X1880050Y1718949D2*
G1X1905950Y1718949D1*
G1X1880050Y1718499D2*
G1X1905950Y1718499D1*
G1X1880050Y1718049D2*
G1X1905950Y1718049D1*
G1X1880050Y1717599D2*
G1X1905950Y1717599D1*
G1X1880050Y1717149D2*
G1X1905950Y1717149D1*
G1X1880050Y1716699D2*
G1X1905950Y1716699D1*
G1X1880050Y1716249D2*
G1X1905950Y1716249D1*
G1X1880050Y1715799D2*
G1X1905950Y1715799D1*
G1X1889850Y1727949D2*
G1X1897850Y1727949D1*
G1X1889850Y1727499D2*
G1X1897850Y1727499D1*
G1X1889850Y1727049D2*
G1X1897850Y1727049D1*
G1X1889850Y1726599D2*
G1X1897850Y1726599D1*
G1X1889850Y1726149D2*
G1X1897850Y1726149D1*
G1X1889850Y1725699D2*
G1X1897850Y1725699D1*
G1X1889850Y1725249D2*
G1X1897850Y1725249D1*
G1X1889850Y1724799D2*
G1X1897850Y1724799D1*
G1X1889850Y1724349D2*
G1X1897850Y1724349D1*
G1X1889850Y1723899D2*
G1X1897850Y1723899D1*
G1X1889850Y1723449D2*
G1X1897850Y1723449D1*
G1X1889850Y1722999D2*
G1X1897850Y1722999D1*
G1X1889850Y1722549D2*
G1X1897850Y1722549D1*
G1X1889850Y1722099D2*
G1X1897850Y1722099D1*
G1X1903350Y1779949D2*
G1X1918350Y1779949D1*
G1X1903350Y1779499D2*
G1X1918350Y1779499D1*
G1X1903350Y1779049D2*
G1X1918350Y1779049D1*
G1X1903350Y1778599D2*
G1X1918350Y1778599D1*
G1X1903350Y1778149D2*
G1X1918350Y1778149D1*
G1X1903350Y1777699D2*
G1X1918350Y1777699D1*
G1X1903350Y1777249D2*
G1X1918350Y1777249D1*
G1X1903350Y1776799D2*
G1X1918350Y1776799D1*
G1X1903350Y1776349D2*
G1X1918350Y1776349D1*
G1X1903350Y1775899D2*
G1X1918350Y1775899D1*
G1X1903350Y1775449D2*
G1X1918350Y1775449D1*
G1X1903350Y1774999D2*
G1X1918350Y1774999D1*
G1X1903350Y1774549D2*
G1X1918350Y1774549D1*
G1X1903350Y1774099D2*
G1X1918350Y1774099D1*
G1X1903350Y1773649D2*
G1X1918350Y1773649D1*
G1X1903350Y1773199D2*
G1X1918350Y1773199D1*
G1X1895250Y1772749D2*
G1X1918350Y1772749D1*
G1X1895250Y1772299D2*
G1X1918350Y1772299D1*
G1X1895250Y1771849D2*
G1X1918350Y1771849D1*
G1X1895250Y1771399D2*
G1X1918350Y1771399D1*
G1X1895250Y1770949D2*
G1X1918350Y1770949D1*
G1X1895250Y1770499D2*
G1X1918350Y1770499D1*
G1X1895250Y1770049D2*
G1X1918350Y1770049D1*
G1X1895250Y1769599D2*
G1X1918350Y1769599D1*
G1X1895250Y1769149D2*
G1X1918350Y1769149D1*
G1X1895250Y1768699D2*
G1X1918350Y1768699D1*
G1X1895250Y1768249D2*
G1X1918350Y1768249D1*
G1X1895250Y1767799D2*
G1X1918350Y1767799D1*
G1X1743850Y1737299D2*
G1X1766350Y1737299D1*
G1X1743850Y1736849D2*
G1X1766350Y1736849D1*
G1X1743850Y1736399D2*
G1X1766350Y1736399D1*
G1X1743850Y1735949D2*
G1X1766350Y1735949D1*
G1X1743850Y1735499D2*
G1X1766350Y1735499D1*
G1X1743850Y1735049D2*
G1X1766350Y1735049D1*
G1X1743850Y1734599D2*
G1X1766350Y1734599D1*
G1X1743850Y1734149D2*
G1X1766350Y1734149D1*
G1X1743850Y1733699D2*
G1X1766350Y1733699D1*
G1X1743850Y1733249D2*
G1X1766350Y1733249D1*
G1X1743850Y1732799D2*
G1X1766350Y1732799D1*
G1X1743850Y1732349D2*
G1X1766350Y1732349D1*
G1X1743850Y1731899D2*
G1X1766350Y1731899D1*
G1X1743850Y1731449D2*
G1X1766350Y1731449D1*
G1X1743850Y1730999D2*
G1X1766350Y1730999D1*
G1X1743850Y1730549D2*
G1X1766350Y1730549D1*
G1X1743850Y1730099D2*
G1X1766350Y1730099D1*
G1X1743850Y1729649D2*
G1X1766350Y1729649D1*
G1X1743850Y1729199D2*
G1X1766350Y1729199D1*
G1X1743850Y1728749D2*
G1X1766350Y1728749D1*
G1X1743850Y1751699D2*
G1X1765850Y1751699D1*
G1X1743850Y1751249D2*
G1X1765850Y1751249D1*
G1X1743850Y1750799D2*
G1X1765850Y1750799D1*
G1X1743850Y1750349D2*
G1X1765850Y1750349D1*
G1X1743850Y1749899D2*
G1X1765850Y1749899D1*
G1X1743850Y1749449D2*
G1X1765850Y1749449D1*
G1X1743850Y1748999D2*
G1X1765850Y1748999D1*
G1X1743850Y1748549D2*
G1X1765850Y1748549D1*
G1X1743850Y1748099D2*
G1X1765850Y1748099D1*
G1X1743850Y1747649D2*
G1X1765850Y1747649D1*
G1X1743850Y1747199D2*
G1X1765850Y1747199D1*
G1X1743850Y1746749D2*
G1X1765850Y1746749D1*
G1X1743850Y1746299D2*
G1X1765850Y1746299D1*
G1X1743850Y1745849D2*
G1X1765850Y1745849D1*
G1X1743850Y1745399D2*
G1X1765850Y1745399D1*
G1X1743850Y1744949D2*
G1X1765850Y1744949D1*
G1X1743850Y1776899D2*
G1X1760350Y1776899D1*
G1X1743850Y1776449D2*
G1X1760350Y1776449D1*
G1X1743850Y1775999D2*
G1X1760350Y1775999D1*
G1X1743850Y1775549D2*
G1X1760350Y1775549D1*
G1X1743850Y1775099D2*
G1X1760350Y1775099D1*
G1X1743850Y1774649D2*
G1X1760350Y1774649D1*
G1X1743850Y1774199D2*
G1X1760350Y1774199D1*
G1X1743850Y1773749D2*
G1X1760350Y1773749D1*
G1X1743850Y1773299D2*
G1X1760350Y1773299D1*
G1X1743850Y1772849D2*
G1X1760350Y1772849D1*
G1X1743850Y1772399D2*
G1X1760350Y1772399D1*
G1X1743850Y1771949D2*
G1X1760350Y1771949D1*
G1X1743850Y1771499D2*
G1X1760350Y1771499D1*
G1X1743850Y1771049D2*
G1X1760350Y1771049D1*
G1X1743850Y1770599D2*
G1X1760350Y1770599D1*
G1X1743850Y1770149D2*
G1X1760350Y1770149D1*
G1X1743850Y1769699D2*
G1X1760350Y1769699D1*
G1X1743850Y1769249D2*
G1X1760350Y1769249D1*
G1X1743850Y1768799D2*
G1X1760350Y1768799D1*
G1X1743850Y1768349D2*
G1X1760350Y1768349D1*
G1X1743850Y1767899D2*
G1X1760350Y1767899D1*
G1X1743850Y1767449D2*
G1X1760350Y1767449D1*
G1X1743850Y1766999D2*
G1X1760350Y1766999D1*
G1X1743850Y1766549D2*
G1X1760350Y1766549D1*
G1X1743850Y1766099D2*
G1X1760350Y1766099D1*
G1X1743850Y1765649D2*
G1X1760350Y1765649D1*
G1X1743850Y1765199D2*
G1X1760350Y1765199D1*
G1X1743850Y1764749D2*
G1X1760350Y1764749D1*
G1X1743850Y1764299D2*
G1X1760350Y1764299D1*
G1X1743850Y1763849D2*
G1X1760350Y1763849D1*
G1X1743850Y1763399D2*
G1X1760350Y1763399D1*
G1X1743850Y1762949D2*
G1X1760350Y1762949D1*
G1X1743850Y1762499D2*
G1X1760350Y1762499D1*
G1X1743850Y1762049D2*
G1X1760350Y1762049D1*
G1X1743850Y1761599D2*
G1X1760350Y1761599D1*
G1X1743850Y1761149D2*
G1X1760350Y1761149D1*
G1X1743850Y1760699D2*
G1X1760350Y1760699D1*
G1X1743850Y1760249D2*
G1X1760350Y1760249D1*
G1X1743850Y1759799D2*
G1X1760350Y1759799D1*
G1X1743850Y1759349D2*
G1X1760350Y1759349D1*
G1X1743850Y1758899D2*
G1X1760350Y1758899D1*
G1X1743850Y1758449D2*
G1X1760350Y1758449D1*
G1X1743850Y1757999D2*
G1X1760350Y1757999D1*
G1X1743850Y1757549D2*
G1X1760350Y1757549D1*
G1X1743850Y1757099D2*
G1X1760350Y1757099D1*
G1X1743850Y1756649D2*
G1X1760350Y1756649D1*
G1X1743850Y1756199D2*
G1X1760350Y1756199D1*
G1X1743850Y1755749D2*
G1X1760350Y1755749D1*
G1X1743850Y1755299D2*
G1X1760350Y1755299D1*
G1X1743850Y1754849D2*
G1X1760350Y1754849D1*
G1X1743850Y1754399D2*
G1X1760350Y1754399D1*
G1X1743850Y1753949D2*
G1X1760350Y1753949D1*
G1X1743850Y1753499D2*
G1X1760350Y1753499D1*
G1X1743850Y1753049D2*
G1X1760350Y1753049D1*
G1X1743850Y1752599D2*
G1X1760350Y1752599D1*
G1X1743850Y1752149D2*
G1X1760350Y1752149D1*
G1X1743850Y1744499D2*
G1X1760350Y1744499D1*
G1X1743850Y1744049D2*
G1X1760350Y1744049D1*
G1X1743850Y1743599D2*
G1X1760350Y1743599D1*
G1X1743850Y1743149D2*
G1X1760350Y1743149D1*
G1X1743850Y1742699D2*
G1X1760350Y1742699D1*
G1X1743850Y1742249D2*
G1X1760350Y1742249D1*
G1X1743850Y1741799D2*
G1X1760350Y1741799D1*
G1X1743850Y1741349D2*
G1X1760350Y1741349D1*
G1X1743850Y1740899D2*
G1X1760350Y1740899D1*
G1X1743850Y1740449D2*
G1X1760350Y1740449D1*
G1X1743850Y1739999D2*
G1X1760350Y1739999D1*
G1X1743850Y1739549D2*
G1X1760350Y1739549D1*
G1X1743850Y1739099D2*
G1X1760350Y1739099D1*
G1X1743850Y1738649D2*
G1X1760350Y1738649D1*
G1X1743850Y1738199D2*
G1X1760350Y1738199D1*
G1X1743850Y1737749D2*
G1X1760350Y1737749D1*
G1X1743850Y1728299D2*
G1X1760350Y1728299D1*
G1X1743850Y1727849D2*
G1X1760350Y1727849D1*
G1X1743850Y1727399D2*
G1X1760350Y1727399D1*
G1X1743850Y1726949D2*
G1X1760350Y1726949D1*
G1X1743850Y1726499D2*
G1X1760350Y1726499D1*
G1X1743850Y1726049D2*
G1X1760350Y1726049D1*
G1X1743850Y1725599D2*
G1X1760350Y1725599D1*
G1X1743850Y1725149D2*
G1X1760350Y1725149D1*
G1X1743850Y1724699D2*
G1X1760350Y1724699D1*
G1X1743850Y1724249D2*
G1X1760350Y1724249D1*
G1X1743850Y1723799D2*
G1X1760350Y1723799D1*
G1X1743850Y1723349D2*
G1X1760350Y1723349D1*
G1X1743850Y1722899D2*
G1X1760350Y1722899D1*
G1X1743850Y1722449D2*
G1X1760350Y1722449D1*
G1X1743850Y1721999D2*
G1X1760350Y1721999D1*
G1X1743850Y1721549D2*
G1X1760350Y1721549D1*
G1X1743850Y1721099D2*
G1X1760350Y1721099D1*
G1X1743850Y1720649D2*
G1X1760350Y1720649D1*
G1X1743850Y1720199D2*
G1X1760350Y1720199D1*
G1X1743850Y1719749D2*
G1X1760350Y1719749D1*
G1X1743850Y1719299D2*
G1X1760350Y1719299D1*
G1X1743850Y1718849D2*
G1X1760350Y1718849D1*
G1X1743850Y1718399D2*
G1X1760350Y1718399D1*
G1X1743850Y1717949D2*
G1X1760350Y1717949D1*
G1X1743850Y1717499D2*
G1X1760350Y1717499D1*
G1X1743850Y1717049D2*
G1X1760350Y1717049D1*
G1X1743850Y1716599D2*
G1X1760350Y1716599D1*
G1X1743850Y1716149D2*
G1X1760350Y1716149D1*
G1X1743850Y1715699D2*
G1X1760350Y1715699D1*
G1X1743850Y1715249D2*
G1X1760350Y1715249D1*
G1X1743850Y1714799D2*
G1X1760350Y1714799D1*
G1X1743850Y1714349D2*
G1X1760350Y1714349D1*
G1X1743850Y1713899D2*
G1X1760350Y1713899D1*
G1X1743850Y1713449D2*
G1X1760350Y1713449D1*
G1X1743850Y1712999D2*
G1X1760350Y1712999D1*
G1X1717350Y1773399D2*
G1X1725350Y1773399D1*
G1X1717350Y1772949D2*
G1X1725350Y1772949D1*
G1X1717350Y1772499D2*
G1X1725350Y1772499D1*
G1X1717350Y1772049D2*
G1X1725350Y1772049D1*
G1X1717350Y1771599D2*
G1X1725350Y1771599D1*
G1X1717350Y1771149D2*
G1X1725350Y1771149D1*
G1X1717350Y1770699D2*
G1X1725350Y1770699D1*
G1X1717350Y1770249D2*
G1X1725350Y1770249D1*
G1X1717350Y1769799D2*
G1X1725350Y1769799D1*
G1X1717350Y1769349D2*
G1X1725350Y1769349D1*
G1X1717350Y1768899D2*
G1X1725350Y1768899D1*
G1X1717350Y1768449D2*
G1X1725350Y1768449D1*
G1X1717350Y1767999D2*
G1X1725350Y1767999D1*
G1X1717350Y1767549D2*
G1X1725350Y1767549D1*
G1X1717350Y1767099D2*
G1X1725350Y1767099D1*
G1X1717350Y1766649D2*
G1X1725350Y1766649D1*
G1X1717350Y1766199D2*
G1X1725350Y1766199D1*
G1X1717350Y1765749D2*
G1X1725350Y1765749D1*
G1X1717350Y1765299D2*
G1X1725350Y1765299D1*
G1X1717350Y1764849D2*
G1X1725350Y1764849D1*
G1X1717350Y1764399D2*
G1X1725350Y1764399D1*
G1X1717350Y1763949D2*
G1X1725350Y1763949D1*
G1X1717350Y1763499D2*
G1X1725350Y1763499D1*
G1X1717350Y1763049D2*
G1X1725350Y1763049D1*
G1X1717350Y1762599D2*
G1X1725350Y1762599D1*
G1X1717350Y1762149D2*
G1X1725350Y1762149D1*
G1X1717350Y1761699D2*
G1X1725350Y1761699D1*
G1X1717350Y1761249D2*
G1X1725350Y1761249D1*
G1X1717350Y1760799D2*
G1X1725350Y1760799D1*
G1X1717350Y1760349D2*
G1X1725350Y1760349D1*
G1X1717350Y1759899D2*
G1X1725350Y1759899D1*
G1X1717350Y1759449D2*
G1X1725350Y1759449D1*
G1X1717350Y1758999D2*
G1X1725350Y1758999D1*
G1X1717350Y1758549D2*
G1X1725350Y1758549D1*
G1X1717350Y1758099D2*
G1X1725350Y1758099D1*
G1X1717350Y1757649D2*
G1X1725350Y1757649D1*
G1X1717350Y1757199D2*
G1X1725350Y1757199D1*
G1X1717350Y1756749D2*
G1X1725350Y1756749D1*
G1X1717350Y1756299D2*
G1X1725350Y1756299D1*
G1X1717350Y1755849D2*
G1X1725350Y1755849D1*
G1X1717350Y1755399D2*
G1X1725350Y1755399D1*
G1X1717350Y1754949D2*
G1X1725350Y1754949D1*
G1X1717350Y1754499D2*
G1X1725350Y1754499D1*
G1X1717350Y1754049D2*
G1X1725350Y1754049D1*
G1X1717350Y1753599D2*
G1X1725350Y1753599D1*
G1X1717350Y1753149D2*
G1X1725350Y1753149D1*
G1X1717350Y1752699D2*
G1X1725350Y1752699D1*
G1X1717350Y1752249D2*
G1X1725350Y1752249D1*
G1X1717350Y1751799D2*
G1X1725350Y1751799D1*
G1X1717350Y1751349D2*
G1X1725350Y1751349D1*
G1X1717350Y1750899D2*
G1X1725350Y1750899D1*
G1X1717350Y1750449D2*
G1X1725350Y1750449D1*
G1X1717350Y1749999D2*
G1X1725350Y1749999D1*
G1X1717350Y1749549D2*
G1X1725350Y1749549D1*
G1X1717350Y1749099D2*
G1X1725350Y1749099D1*
G1X1717350Y1748649D2*
G1X1725350Y1748649D1*
G1X1717350Y1748199D2*
G1X1725350Y1748199D1*
G1X1717350Y1747749D2*
G1X1725350Y1747749D1*
G1X1717350Y1747299D2*
G1X1725350Y1747299D1*
G1X1717350Y1746849D2*
G1X1725350Y1746849D1*
G1X1717350Y1746399D2*
G1X1725350Y1746399D1*
G1X1717350Y1745949D2*
G1X1725350Y1745949D1*
G1X1717350Y1745499D2*
G1X1725350Y1745499D1*
G1X1717350Y1745049D2*
G1X1725350Y1745049D1*
G1X1717350Y1744599D2*
G1X1725350Y1744599D1*
G1X1717350Y1744149D2*
G1X1725350Y1744149D1*
G1X1717350Y1743699D2*
G1X1725350Y1743699D1*
G1X1717350Y1743249D2*
G1X1725350Y1743249D1*
G1X1717350Y1742799D2*
G1X1725350Y1742799D1*
G1X1717350Y1742349D2*
G1X1725350Y1742349D1*
G1X1717350Y1741899D2*
G1X1725350Y1741899D1*
G1X1717350Y1741449D2*
G1X1725350Y1741449D1*
G1X1717350Y1740999D2*
G1X1725350Y1740999D1*
G1X1717350Y1740549D2*
G1X1725350Y1740549D1*
G1X1717350Y1740099D2*
G1X1725350Y1740099D1*
G1X1717350Y1739649D2*
G1X1725350Y1739649D1*
G1X1717350Y1739199D2*
G1X1725350Y1739199D1*
G1X1717350Y1738749D2*
G1X1725350Y1738749D1*
G1X1717350Y1738299D2*
G1X1725350Y1738299D1*
G1X1717350Y1737849D2*
G1X1725350Y1737849D1*
G1X1717350Y1737399D2*
G1X1725350Y1737399D1*
G1X1717350Y1736949D2*
G1X1725350Y1736949D1*
G1X1717350Y1736499D2*
G1X1725350Y1736499D1*
G1X1717350Y1736049D2*
G1X1725350Y1736049D1*
G1X1717350Y1735599D2*
G1X1725350Y1735599D1*
G1X1717350Y1735149D2*
G1X1725350Y1735149D1*
G1X1717350Y1734699D2*
G1X1725350Y1734699D1*
G1X1717350Y1734249D2*
G1X1725350Y1734249D1*
G1X1717350Y1733799D2*
G1X1725350Y1733799D1*
G1X1717350Y1733349D2*
G1X1725350Y1733349D1*
G1X1717350Y1732899D2*
G1X1725350Y1732899D1*
G1X1717350Y1732449D2*
G1X1725350Y1732449D1*
G1X1717350Y1731999D2*
G1X1725350Y1731999D1*
G1X1717350Y1731549D2*
G1X1725350Y1731549D1*
G1X1717350Y1731099D2*
G1X1725350Y1731099D1*
G1X1717350Y1730649D2*
G1X1725350Y1730649D1*
G1X1717350Y1730199D2*
G1X1725350Y1730199D1*
G1X1717350Y1729749D2*
G1X1725350Y1729749D1*
G1X1717350Y1729299D2*
G1X1725350Y1729299D1*
G1X1717350Y1728849D2*
G1X1725350Y1728849D1*
G1X1717350Y1728399D2*
G1X1725350Y1728399D1*
G1X1717350Y1727949D2*
G1X1725350Y1727949D1*
G1X1717350Y1727499D2*
G1X1725350Y1727499D1*
G1X1717350Y1727049D2*
G1X1725350Y1727049D1*
G1X1717350Y1726599D2*
G1X1725350Y1726599D1*
G1X1717350Y1726149D2*
G1X1725350Y1726149D1*
G1X1717350Y1725699D2*
G1X1725350Y1725699D1*
G1X1717350Y1725249D2*
G1X1725350Y1725249D1*
G1X1717350Y1724799D2*
G1X1725350Y1724799D1*
G1X1717350Y1724349D2*
G1X1725350Y1724349D1*
G1X1717350Y1723899D2*
G1X1725350Y1723899D1*
G1X1717350Y1723449D2*
G1X1725350Y1723449D1*
G1X1717350Y1722999D2*
G1X1725350Y1722999D1*
G1X1717350Y1722549D2*
G1X1725350Y1722549D1*
G1X1717350Y1722099D2*
G1X1725350Y1722099D1*
G1X1717350Y1721649D2*
G1X1725350Y1721649D1*
G1X1717350Y1721199D2*
G1X1725350Y1721199D1*
G1X1717350Y1720749D2*
G1X1725350Y1720749D1*
G1X1717350Y1720299D2*
G1X1725350Y1720299D1*
G1X1717350Y1719849D2*
G1X1725350Y1719849D1*
G1X1717350Y1719399D2*
G1X1725350Y1719399D1*
G1X1717350Y1718949D2*
G1X1725350Y1718949D1*
G1X1717350Y1718499D2*
G1X1725350Y1718499D1*
G1X1708850Y1773049D2*
G1X1715350Y1773049D1*
G1X1708850Y1772599D2*
G1X1715350Y1772599D1*
G1X1708850Y1772149D2*
G1X1715350Y1772149D1*
G1X1708850Y1771699D2*
G1X1715350Y1771699D1*
G1X1708850Y1771249D2*
G1X1715350Y1771249D1*
G1X1708850Y1770799D2*
G1X1715350Y1770799D1*
G1X1708850Y1770349D2*
G1X1715350Y1770349D1*
G1X1708850Y1769899D2*
G1X1715350Y1769899D1*
G1X1708850Y1769449D2*
G1X1715350Y1769449D1*
G1X1708850Y1768999D2*
G1X1715350Y1768999D1*
G1X1708850Y1768549D2*
G1X1715350Y1768549D1*
G1X1708850Y1768099D2*
G1X1715350Y1768099D1*
G1X1708850Y1767649D2*
G1X1715350Y1767649D1*
G1X1708850Y1767199D2*
G1X1715350Y1767199D1*
G1X1708850Y1766749D2*
G1X1715350Y1766749D1*
G1X1708850Y1766299D2*
G1X1715350Y1766299D1*
G1X1708850Y1765849D2*
G1X1715350Y1765849D1*
G1X1708850Y1765399D2*
G1X1715350Y1765399D1*
G1X1708850Y1764949D2*
G1X1715350Y1764949D1*
G1X1708850Y1764499D2*
G1X1715350Y1764499D1*
G1X1708850Y1764049D2*
G1X1715350Y1764049D1*
G1X1708850Y1763599D2*
G1X1715350Y1763599D1*
G1X1708850Y1763149D2*
G1X1715350Y1763149D1*
G1X1708850Y1762699D2*
G1X1715350Y1762699D1*
G1X1708850Y1762249D2*
G1X1715350Y1762249D1*
G1X1708850Y1761799D2*
G1X1715350Y1761799D1*
G1X1708850Y1761349D2*
G1X1715350Y1761349D1*
G1X1708850Y1760899D2*
G1X1715350Y1760899D1*
G1X1708850Y1760449D2*
G1X1715350Y1760449D1*
G1X1708850Y1759999D2*
G1X1715350Y1759999D1*
G1X1708850Y1759549D2*
G1X1715350Y1759549D1*
G1X1708850Y1759099D2*
G1X1715350Y1759099D1*
G1X1708850Y1758649D2*
G1X1715350Y1758649D1*
G1X1708850Y1758199D2*
G1X1715350Y1758199D1*
G1X1708850Y1757749D2*
G1X1715350Y1757749D1*
G1X1708850Y1757299D2*
G1X1715350Y1757299D1*
G1X1708850Y1756849D2*
G1X1715350Y1756849D1*
G1X1708850Y1756399D2*
G1X1715350Y1756399D1*
G1X1708850Y1755949D2*
G1X1715350Y1755949D1*
G1X1708850Y1755499D2*
G1X1715350Y1755499D1*
G1X1708850Y1755049D2*
G1X1715350Y1755049D1*
G1X1708850Y1754599D2*
G1X1715350Y1754599D1*
G1X1708850Y1754149D2*
G1X1715350Y1754149D1*
G1X1708850Y1753699D2*
G1X1715350Y1753699D1*
G1X1664100Y1581863D2*
G54D11*
G1X1664100Y1575300D1*
G1X1666827Y1575300D1*
G1X1670691Y1581863D2*
G1X1668873Y1575300D1*
G1X1670691Y1581863D2*
G1X1672509Y1575300D1*
G1X1669555Y1577488D2*
G1X1671827Y1577488D1*
G1X1674555Y1581863D2*
G1X1676373Y1578738D1*
G1X1676373Y1575300D1*
G1X1678191Y1581863D2*
G1X1676373Y1578738D1*
G1X1680236Y1581863D2*
G1X1680236Y1575300D1*
G1X1680236Y1581863D2*
G1X1683191Y1581863D1*
G1X1680236Y1578738D2*
G1X1682055Y1578738D1*
G1X1680236Y1575300D2*
G1X1683191Y1575300D1*
G1X1685236Y1581863D2*
G1X1685236Y1575300D1*
G1X1685236Y1581863D2*
G1X1687282Y1581863D1*
G1X1687964Y1581550D1*
G1X1688191Y1581238D1*
G1X1688418Y1580613D1*
G1X1688418Y1579988D1*
G1X1688191Y1579363D1*
G1X1687964Y1579050D1*
G1X1687282Y1578738D1*
G1X1685236Y1578738D1*
G1X1686827Y1578738D2*
G1X1688418Y1575300D1*
G1X1695691Y1580613D2*
G1X1696145Y1580925D1*
G1X1696827Y1581863D1*
G1X1696827Y1575300D1*
G1X1704100Y1578113D2*
G1X1708191Y1578113D1*
G1X1717055Y1581863D2*
G1X1717055Y1575300D1*
G1X1715464Y1581863D2*
G1X1718645Y1581863D1*
G1X1722055Y1581863D2*
G1X1721600Y1581550D1*
G1X1721145Y1580925D1*
G1X1720918Y1580300D1*
G1X1720691Y1579363D1*
G1X1720691Y1577800D1*
G1X1720918Y1576863D1*
G1X1721145Y1576238D1*
G1X1721600Y1575613D1*
G1X1722055Y1575300D1*
G1X1722964Y1575300D1*
G1X1723418Y1575613D1*
G1X1723873Y1576238D1*
G1X1724100Y1576863D1*
G1X1724327Y1577800D1*
G1X1724327Y1579363D1*
G1X1724100Y1580300D1*
G1X1723873Y1580925D1*
G1X1723418Y1581550D1*
G1X1722964Y1581863D1*
G1X1722055Y1581863D1*
G1X1726373Y1581863D2*
G1X1726373Y1575300D1*
G1X1726373Y1581863D2*
G1X1728418Y1581863D1*
G1X1729100Y1581550D1*
G1X1729327Y1581238D1*
G1X1729555Y1580613D1*
G1X1729555Y1579675D1*
G1X1729327Y1579050D1*
G1X1729100Y1578738D1*
G1X1728418Y1578425D1*
G1X1726373Y1578425D1*
G1X1736827Y1581863D2*
G1X1736827Y1575300D1*
G1X1739555Y1575300D1*
G1X1743418Y1581863D2*
G1X1741600Y1575300D1*
G1X1743418Y1581863D2*
G1X1745236Y1575300D1*
G1X1742282Y1577488D2*
G1X1744555Y1577488D1*
G1X1747282Y1581863D2*
G1X1749100Y1578738D1*
G1X1749100Y1575300D1*
G1X1750918Y1581863D2*
G1X1749100Y1578738D1*
G1X1752964Y1581863D2*
G1X1752964Y1575300D1*
G1X1752964Y1581863D2*
G1X1755918Y1581863D1*
G1X1752964Y1578738D2*
G1X1754782Y1578738D1*
G1X1752964Y1575300D2*
G1X1755918Y1575300D1*
G1X1757964Y1581863D2*
G1X1757964Y1575300D1*
G1X1757964Y1581863D2*
G1X1760009Y1581863D1*
G1X1760691Y1581550D1*
G1X1760918Y1581238D1*
G1X1761145Y1580613D1*
G1X1761145Y1579988D1*
G1X1760918Y1579363D1*
G1X1760691Y1579050D1*
G1X1760009Y1578738D1*
G1X1757964Y1578738D1*
G1X1759555Y1578738D2*
G1X1761145Y1575300D1*
G1X1795100Y1567733D2*
G1X1795100Y1561170D1*
G1X1797827Y1561170D1*
G1X1799873Y1567733D2*
G1X1799873Y1561170D1*
G1X1801918Y1567733D2*
G1X1801918Y1561170D1*
G1X1801918Y1567733D2*
G1X1805100Y1561170D1*
G1X1805100Y1567733D2*
G1X1805100Y1561170D1*
G1X1807145Y1567733D2*
G1X1807145Y1561170D1*
G1X1807145Y1567733D2*
G1X1810100Y1567733D1*
G1X1807145Y1564608D2*
G1X1808964Y1564608D1*
G1X1807145Y1561170D2*
G1X1810100Y1561170D1*
G1X1813964Y1567733D2*
G1X1812145Y1561170D1*
G1X1813964Y1567733D2*
G1X1815782Y1561170D1*
G1X1812827Y1563358D2*
G1X1815100Y1563358D1*
G1X1817827Y1567733D2*
G1X1817827Y1561170D1*
G1X1817827Y1567733D2*
G1X1819873Y1567733D1*
G1X1820555Y1567420D1*
G1X1820782Y1567108D1*
G1X1821009Y1566483D1*
G1X1821009Y1565858D1*
G1X1820782Y1565233D1*
G1X1820555Y1564920D1*
G1X1819873Y1564608D1*
G1X1817827Y1564608D1*
G1X1819418Y1564608D2*
G1X1821009Y1561170D1*
G1X1829873Y1567733D2*
G1X1829873Y1561170D1*
G1X1828282Y1567733D2*
G1X1831464Y1567733D1*
G1X1833509Y1567733D2*
G1X1833509Y1561170D1*
G1X1833509Y1567733D2*
G1X1836464Y1567733D1*
G1X1833509Y1564608D2*
G1X1835327Y1564608D1*
G1X1833509Y1561170D2*
G1X1836464Y1561170D1*
G1X1841918Y1566170D2*
G1X1841691Y1566795D1*
G1X1841236Y1567420D1*
G1X1840782Y1567733D1*
G1X1839873Y1567733D1*
G1X1839418Y1567420D1*
G1X1838964Y1566795D1*
G1X1838736Y1566170D1*
G1X1838509Y1565233D1*
G1X1838509Y1563670D1*
G1X1838736Y1562733D1*
G1X1838964Y1562108D1*
G1X1839418Y1561483D1*
G1X1839873Y1561170D1*
G1X1840782Y1561170D1*
G1X1841236Y1561483D1*
G1X1841691Y1562108D1*
G1X1841918Y1562733D1*
G1X1843964Y1567733D2*
G1X1843964Y1561170D1*
G1X1847145Y1567733D2*
G1X1847145Y1561170D1*
G1X1843964Y1564608D2*
G1X1847145Y1564608D1*
G1X1849191Y1567733D2*
G1X1849191Y1561170D1*
G1X1849191Y1567733D2*
G1X1852373Y1561170D1*
G1X1852373Y1567733D2*
G1X1852373Y1561170D1*
G1X1855782Y1567733D2*
G1X1855327Y1567420D1*
G1X1854873Y1566795D1*
G1X1854645Y1566170D1*
G1X1854418Y1565233D1*
G1X1854418Y1563670D1*
G1X1854645Y1562733D1*
G1X1854873Y1562108D1*
G1X1855327Y1561483D1*
G1X1855782Y1561170D1*
G1X1856691Y1561170D1*
G1X1857145Y1561483D1*
G1X1857600Y1562108D1*
G1X1857827Y1562733D1*
G1X1858055Y1563670D1*
G1X1858055Y1565233D1*
G1X1857827Y1566170D1*
G1X1857600Y1566795D1*
G1X1857145Y1567420D1*
G1X1856691Y1567733D1*
G1X1855782Y1567733D1*
G1X1860100Y1567733D2*
G1X1860100Y1561170D1*
G1X1862827Y1561170D1*
G1X1866236Y1567733D2*
G1X1865782Y1567420D1*
G1X1865327Y1566795D1*
G1X1865100Y1566170D1*
G1X1864873Y1565233D1*
G1X1864873Y1563670D1*
G1X1865100Y1562733D1*
G1X1865327Y1562108D1*
G1X1865782Y1561483D1*
G1X1866236Y1561170D1*
G1X1867145Y1561170D1*
G1X1867600Y1561483D1*
G1X1868055Y1562108D1*
G1X1868282Y1562733D1*
G1X1868509Y1563670D1*
G1X1868509Y1565233D1*
G1X1868282Y1566170D1*
G1X1868055Y1566795D1*
G1X1867600Y1567420D1*
G1X1867145Y1567733D1*
G1X1866236Y1567733D1*
G1X1873964Y1566170D2*
G1X1873736Y1566795D1*
G1X1873282Y1567420D1*
G1X1872827Y1567733D1*
G1X1871918Y1567733D1*
G1X1871464Y1567420D1*
G1X1871009Y1566795D1*
G1X1870782Y1566170D1*
G1X1870555Y1565233D1*
G1X1870555Y1563670D1*
G1X1870782Y1562733D1*
G1X1871009Y1562108D1*
G1X1871464Y1561483D1*
G1X1871918Y1561170D1*
G1X1872827Y1561170D1*
G1X1873282Y1561483D1*
G1X1873736Y1562108D1*
G1X1873964Y1562733D1*
G1X1873964Y1563670D1*
G1X1872827Y1563670D2*
G1X1873964Y1563670D1*
G1X1876009Y1567733D2*
G1X1877827Y1564608D1*
G1X1877827Y1561170D1*
G1X1879645Y1567733D2*
G1X1877827Y1564608D1*
G1X1886918Y1567733D2*
G1X1886918Y1561170D1*
G1X1892145Y1566795D2*
G1X1891691Y1567420D1*
G1X1891009Y1567733D1*
G1X1890100Y1567733D1*
G1X1889418Y1567420D1*
G1X1888964Y1566795D1*
G1X1888964Y1566170D1*
G1X1889191Y1565545D1*
G1X1889418Y1565233D1*
G1X1889873Y1564920D1*
G1X1891236Y1564295D1*
G1X1891691Y1563983D1*
G1X1891918Y1563670D1*
G1X1892145Y1563045D1*
G1X1892145Y1562108D1*
G1X1891691Y1561483D1*
G1X1891009Y1561170D1*
G1X1890100Y1561170D1*
G1X1889418Y1561483D1*
G1X1888964Y1562108D1*
G1X1895555Y1567733D2*
G1X1895100Y1567420D1*
G1X1894645Y1566795D1*
G1X1894418Y1566170D1*
G1X1894191Y1565233D1*
G1X1894191Y1563670D1*
G1X1894418Y1562733D1*
G1X1894645Y1562108D1*
G1X1895100Y1561483D1*
G1X1895555Y1561170D1*
G1X1896464Y1561170D1*
G1X1896918Y1561483D1*
G1X1897373Y1562108D1*
G1X1897600Y1562733D1*
G1X1897827Y1563670D1*
G1X1897827Y1565233D1*
G1X1897600Y1566170D1*
G1X1897373Y1566795D1*
G1X1896918Y1567420D1*
G1X1896464Y1567733D1*
G1X1895555Y1567733D1*
G1X1899873Y1567733D2*
G1X1899873Y1561170D1*
G1X1902600Y1561170D1*
G1X1906464Y1567733D2*
G1X1904645Y1561170D1*
G1X1906464Y1567733D2*
G1X1908282Y1561170D1*
G1X1905327Y1563358D2*
G1X1907600Y1563358D1*
G1X1911918Y1567733D2*
G1X1911918Y1561170D1*
G1X1910327Y1567733D2*
G1X1913509Y1567733D1*
G1X1915555Y1567733D2*
G1X1915555Y1561170D1*
G1X1915555Y1567733D2*
G1X1918509Y1567733D1*
G1X1915555Y1564608D2*
G1X1917373Y1564608D1*
G1X1915555Y1561170D2*
G1X1918509Y1561170D1*
G1X1920555Y1567733D2*
G1X1920555Y1561170D1*
G1X1920555Y1567733D2*
G1X1922145Y1567733D1*
G1X1922827Y1567420D1*
G1X1923282Y1566795D1*
G1X1923509Y1566170D1*
G1X1923736Y1565233D1*
G1X1923736Y1563670D1*
G1X1923509Y1562733D1*
G1X1923282Y1562108D1*
G1X1922827Y1561483D1*
G1X1922145Y1561170D1*
G1X1920555Y1561170D1*
G1X1795100Y1587733D2*
G1X1795100Y1581170D1*
G1X1795100Y1587733D2*
G1X1796691Y1587733D1*
G1X1797373Y1587420D1*
G1X1797827Y1586795D1*
G1X1798055Y1586170D1*
G1X1798282Y1585233D1*
G1X1798282Y1583670D1*
G1X1798055Y1582733D1*
G1X1797827Y1582108D1*
G1X1797373Y1581483D1*
G1X1796691Y1581170D1*
G1X1795100Y1581170D1*
G1X1803736Y1586170D2*
G1X1803509Y1586795D1*
G1X1803055Y1587420D1*
G1X1802600Y1587733D1*
G1X1801691Y1587733D1*
G1X1801236Y1587420D1*
G1X1800782Y1586795D1*
G1X1800555Y1586170D1*
G1X1800327Y1585233D1*
G1X1800327Y1583670D1*
G1X1800555Y1582733D1*
G1X1800782Y1582108D1*
G1X1801236Y1581483D1*
G1X1801691Y1581170D1*
G1X1802600Y1581170D1*
G1X1803055Y1581483D1*
G1X1803509Y1582108D1*
G1X1803736Y1582733D1*
G1X1806009Y1586170D2*
G1X1806009Y1586483D1*
G1X1806236Y1587108D1*
G1X1806464Y1587420D1*
G1X1806918Y1587733D1*
G1X1807827Y1587733D1*
G1X1808282Y1587420D1*
G1X1808509Y1587108D1*
G1X1808736Y1586483D1*
G1X1808736Y1585858D1*
G1X1808509Y1585233D1*
G1X1808055Y1584295D1*
G1X1805782Y1581170D1*
G1X1808964Y1581170D1*
G1X1812373Y1587733D2*
G1X1811691Y1587420D1*
G1X1811236Y1586483D1*
G1X1811009Y1584920D1*
G1X1811009Y1583983D1*
G1X1811236Y1582420D1*
G1X1811691Y1581483D1*
G1X1812373Y1581170D1*
G1X1812827Y1581170D1*
G1X1813509Y1581483D1*
G1X1813964Y1582420D1*
G1X1814191Y1583983D1*
G1X1814191Y1584920D1*
G1X1813964Y1586483D1*
G1X1813509Y1587420D1*
G1X1812827Y1587733D1*
G1X1812373Y1587733D1*
G1X1816464Y1586170D2*
G1X1816464Y1586483D1*
G1X1816691Y1587108D1*
G1X1816918Y1587420D1*
G1X1817373Y1587733D1*
G1X1818282Y1587733D1*
G1X1818736Y1587420D1*
G1X1818964Y1587108D1*
G1X1819191Y1586483D1*
G1X1819191Y1585858D1*
G1X1818964Y1585233D1*
G1X1818509Y1584295D1*
G1X1816236Y1581170D1*
G1X1819418Y1581170D1*
G1X1824191Y1586795D2*
G1X1823964Y1587420D1*
G1X1823282Y1587733D1*
G1X1822827Y1587733D1*
G1X1822145Y1587420D1*
G1X1821691Y1586483D1*
G1X1821464Y1584920D1*
G1X1821464Y1583358D1*
G1X1821691Y1582108D1*
G1X1822145Y1581483D1*
G1X1822827Y1581170D1*
G1X1823055Y1581170D1*
G1X1823736Y1581483D1*
G1X1824191Y1582108D1*
G1X1824418Y1583045D1*
G1X1824418Y1583358D1*
G1X1824191Y1584295D1*
G1X1823736Y1584920D1*
G1X1823055Y1585233D1*
G1X1822827Y1585233D1*
G1X1822145Y1584920D1*
G1X1821691Y1584295D1*
G1X1821464Y1583358D1*
G1X1829873Y1586170D2*
G1X1829645Y1586795D1*
G1X1829191Y1587420D1*
G1X1828736Y1587733D1*
G1X1827827Y1587733D1*
G1X1827373Y1587420D1*
G1X1826918Y1586795D1*
G1X1826691Y1586170D1*
G1X1826464Y1585233D1*
G1X1826464Y1583670D1*
G1X1826691Y1582733D1*
G1X1826918Y1582108D1*
G1X1827373Y1581483D1*
G1X1827827Y1581170D1*
G1X1828736Y1581170D1*
G1X1829191Y1581483D1*
G1X1829645Y1582108D1*
G1X1829873Y1582733D1*
G1X1831918Y1583983D2*
G1X1836009Y1583983D1*
G1X1838055Y1586483D2*
G1X1838509Y1586795D1*
G1X1839191Y1587733D1*
G1X1839191Y1581170D1*
G1X1847600Y1585858D2*
G1X1847600Y1582108D1*
G1X1846464Y1584920D2*
G1X1848736Y1583045D1*
G1X1848736Y1584920D2*
G1X1846464Y1583045D1*
G1X1856009Y1587733D2*
G1X1856009Y1581170D1*
G1X1858736Y1581170D1*
G1X1862373Y1587733D2*
G1X1862373Y1581170D1*
G1X1860782Y1587733D2*
G1X1863964Y1587733D1*
G1X1866009Y1587733D2*
G1X1866009Y1581170D1*
G1X1866009Y1587733D2*
G1X1867827Y1581170D1*
G1X1869645Y1587733D2*
G1X1867827Y1581170D1*
G1X1869645Y1587733D2*
G1X1869645Y1581170D1*
G1X1871918Y1586170D2*
G1X1871918Y1586483D1*
G1X1872145Y1587108D1*
G1X1872373Y1587420D1*
G1X1872827Y1587733D1*
G1X1873736Y1587733D1*
G1X1874191Y1587420D1*
G1X1874418Y1587108D1*
G1X1874645Y1586483D1*
G1X1874645Y1585858D1*
G1X1874418Y1585233D1*
G1X1873964Y1584295D1*
G1X1871691Y1581170D1*
G1X1874873Y1581170D1*
G1X1878055Y1587733D2*
G1X1877373Y1587420D1*
G1X1877145Y1586795D1*
G1X1877145Y1586170D1*
G1X1877373Y1585545D1*
G1X1877827Y1585233D1*
G1X1878736Y1584920D1*
G1X1879418Y1584608D1*
G1X1879873Y1583983D1*
G1X1880100Y1583358D1*
G1X1880100Y1582420D1*
G1X1879873Y1581795D1*
G1X1879645Y1581483D1*
G1X1878964Y1581170D1*
G1X1878055Y1581170D1*
G1X1877373Y1581483D1*
G1X1877145Y1581795D1*
G1X1876918Y1582420D1*
G1X1876918Y1583358D1*
G1X1877145Y1583983D1*
G1X1877600Y1584608D1*
G1X1878282Y1584920D1*
G1X1879191Y1585233D1*
G1X1879645Y1585545D1*
G1X1879873Y1586170D1*
G1X1879873Y1586795D1*
G1X1879645Y1587420D1*
G1X1878964Y1587733D1*
G1X1878055Y1587733D1*
G1X1883282Y1587733D2*
G1X1882600Y1587420D1*
G1X1882373Y1586795D1*
G1X1882373Y1586170D1*
G1X1882600Y1585545D1*
G1X1883055Y1585233D1*
G1X1883964Y1584920D1*
G1X1884645Y1584608D1*
G1X1885100Y1583983D1*
G1X1885327Y1583358D1*
G1X1885327Y1582420D1*
G1X1885100Y1581795D1*
G1X1884873Y1581483D1*
G1X1884191Y1581170D1*
G1X1883282Y1581170D1*
G1X1882600Y1581483D1*
G1X1882373Y1581795D1*
G1X1882145Y1582420D1*
G1X1882145Y1583358D1*
G1X1882373Y1583983D1*
G1X1882827Y1584608D1*
G1X1883509Y1584920D1*
G1X1884418Y1585233D1*
G1X1884873Y1585545D1*
G1X1885100Y1586170D1*
G1X1885100Y1586795D1*
G1X1884873Y1587420D1*
G1X1884191Y1587733D1*
G1X1883282Y1587733D1*
G1X1889645Y1587733D2*
G1X1887373Y1583358D1*
G1X1890782Y1583358D1*
G1X1889645Y1587733D2*
G1X1889645Y1581170D1*
G1X1896236Y1586170D2*
G1X1896009Y1586795D1*
G1X1895555Y1587420D1*
G1X1895100Y1587733D1*
G1X1894191Y1587733D1*
G1X1893736Y1587420D1*
G1X1893282Y1586795D1*
G1X1893055Y1586170D1*
G1X1892827Y1585233D1*
G1X1892827Y1583670D1*
G1X1893055Y1582733D1*
G1X1893282Y1582108D1*
G1X1893736Y1581483D1*
G1X1894191Y1581170D1*
G1X1895100Y1581170D1*
G1X1895555Y1581483D1*
G1X1896009Y1582108D1*
G1X1896236Y1582733D1*
G1X1898282Y1587733D2*
G1X1900100Y1584608D1*
G1X1900100Y1581170D1*
G1X1901918Y1587733D2*
G1X1900100Y1584608D1*
G1X1795100Y1577733D2*
G1X1795100Y1571170D1*
G1X1797827Y1571170D1*
G1X1799873Y1577733D2*
G1X1799873Y1571170D1*
G1X1801918Y1577733D2*
G1X1801918Y1571170D1*
G1X1801918Y1577733D2*
G1X1805100Y1571170D1*
G1X1805100Y1577733D2*
G1X1805100Y1571170D1*
G1X1807145Y1577733D2*
G1X1807145Y1571170D1*
G1X1807145Y1577733D2*
G1X1808736Y1577733D1*
G1X1809418Y1577420D1*
G1X1809873Y1576795D1*
G1X1810100Y1576170D1*
G1X1810327Y1575233D1*
G1X1810327Y1573670D1*
G1X1810100Y1572733D1*
G1X1809873Y1572108D1*
G1X1809418Y1571483D1*
G1X1808736Y1571170D1*
G1X1807145Y1571170D1*
G1X1812373Y1577733D2*
G1X1812373Y1573045D1*
G1X1812600Y1572108D1*
G1X1813055Y1571483D1*
G1X1813736Y1571170D1*
G1X1814191Y1571170D1*
G1X1814873Y1571483D1*
G1X1815327Y1572108D1*
G1X1815555Y1573045D1*
G1X1815555Y1577733D1*
G1X1817600Y1577733D2*
G1X1817600Y1571170D1*
G1X1819645Y1577733D2*
G1X1819645Y1571170D1*
G1X1819645Y1577733D2*
G1X1822827Y1571170D1*
G1X1822827Y1577733D2*
G1X1822827Y1571170D1*
G1X1826236Y1577733D2*
G1X1825782Y1577420D1*
G1X1825327Y1576795D1*
G1X1825100Y1576170D1*
G1X1824873Y1575233D1*
G1X1824873Y1573670D1*
G1X1825100Y1572733D1*
G1X1825327Y1572108D1*
G1X1825782Y1571483D1*
G1X1826236Y1571170D1*
G1X1827145Y1571170D1*
G1X1827600Y1571483D1*
G1X1828055Y1572108D1*
G1X1828282Y1572733D1*
G1X1828509Y1573670D1*
G1X1828509Y1575233D1*
G1X1828282Y1576170D1*
G1X1828055Y1576795D1*
G1X1827600Y1577420D1*
G1X1827145Y1577733D1*
G1X1826236Y1577733D1*
G1X1837145Y1577733D2*
G1X1836691Y1577420D1*
G1X1836236Y1576795D1*
G1X1836009Y1576170D1*
G1X1835782Y1575233D1*
G1X1835782Y1573670D1*
G1X1836009Y1572733D1*
G1X1836236Y1572108D1*
G1X1836691Y1571483D1*
G1X1837145Y1571170D1*
G1X1838055Y1571170D1*
G1X1838509Y1571483D1*
G1X1838964Y1572108D1*
G1X1839191Y1572733D1*
G1X1839418Y1573670D1*
G1X1839418Y1575233D1*
G1X1839191Y1576170D1*
G1X1838964Y1576795D1*
G1X1838509Y1577420D1*
G1X1838055Y1577733D1*
G1X1837145Y1577733D1*
G1X1841464Y1577733D2*
G1X1841464Y1571170D1*
G1X1841464Y1577733D2*
G1X1844645Y1571170D1*
G1X1844645Y1577733D2*
G1X1844645Y1571170D1*
G1X1846691Y1577733D2*
G1X1846691Y1571170D1*
G1X1846691Y1577733D2*
G1X1849645Y1577733D1*
G1X1846691Y1574608D2*
G1X1848509Y1574608D1*
G1X1846691Y1571170D2*
G1X1849645Y1571170D1*
G1X1851918Y1575545D2*
G1X1851691Y1575233D1*
G1X1851918Y1574920D1*
G1X1852145Y1575233D1*
G1X1851918Y1575545D1*
G1X1851918Y1571795D2*
G1X1851691Y1571483D1*
G1X1851918Y1571170D1*
G1X1852145Y1571483D1*
G1X1851918Y1571795D1*
G1X1796918Y1557733D2*
G1X1795100Y1551170D1*
G1X1796918Y1557733D2*
G1X1798736Y1551170D1*
G1X1795782Y1553358D2*
G1X1798055Y1553358D1*
G1X1800782Y1557733D2*
G1X1800782Y1551170D1*
G1X1800782Y1557733D2*
G1X1802827Y1557733D1*
G1X1803509Y1557420D1*
G1X1803736Y1557108D1*
G1X1803964Y1556483D1*
G1X1803964Y1555858D1*
G1X1803736Y1555233D1*
G1X1803509Y1554920D1*
G1X1802827Y1554608D1*
G1X1800782Y1554608D1*
G1X1802373Y1554608D2*
G1X1803964Y1551170D1*
G1X1806009Y1557733D2*
G1X1806009Y1551170D1*
G1X1806009Y1557733D2*
G1X1807600Y1557733D1*
G1X1808282Y1557420D1*
G1X1808736Y1556795D1*
G1X1808964Y1556170D1*
G1X1809191Y1555233D1*
G1X1809191Y1553670D1*
G1X1808964Y1552733D1*
G1X1808736Y1552108D1*
G1X1808282Y1551483D1*
G1X1807600Y1551170D1*
G1X1806009Y1551170D1*
G1X1811236Y1557733D2*
G1X1811236Y1553045D1*
G1X1811464Y1552108D1*
G1X1811918Y1551483D1*
G1X1812600Y1551170D1*
G1X1813055Y1551170D1*
G1X1813736Y1551483D1*
G1X1814191Y1552108D1*
G1X1814418Y1553045D1*
G1X1814418Y1557733D1*
G1X1816464Y1557733D2*
G1X1816464Y1551170D1*
G1X1818509Y1557733D2*
G1X1818509Y1551170D1*
G1X1818509Y1557733D2*
G1X1821691Y1551170D1*
G1X1821691Y1557733D2*
G1X1821691Y1551170D1*
G1X1825100Y1557733D2*
G1X1824645Y1557420D1*
G1X1824191Y1556795D1*
G1X1823964Y1556170D1*
G1X1823736Y1555233D1*
G1X1823736Y1553670D1*
G1X1823964Y1552733D1*
G1X1824191Y1552108D1*
G1X1824645Y1551483D1*
G1X1825100Y1551170D1*
G1X1826009Y1551170D1*
G1X1826464Y1551483D1*
G1X1826918Y1552108D1*
G1X1827145Y1552733D1*
G1X1827373Y1553670D1*
G1X1827373Y1555233D1*
G1X1827145Y1556170D1*
G1X1826918Y1556795D1*
G1X1826464Y1557420D1*
G1X1826009Y1557733D1*
G1X1825100Y1557733D1*
G1X1829418Y1553983D2*
G1X1833509Y1553983D1*
G1X1838964Y1556170D2*
G1X1838736Y1556795D1*
G1X1838282Y1557420D1*
G1X1837827Y1557733D1*
G1X1836918Y1557733D1*
G1X1836464Y1557420D1*
G1X1836009Y1556795D1*
G1X1835782Y1556170D1*
G1X1835555Y1555233D1*
G1X1835555Y1553670D1*
G1X1835782Y1552733D1*
G1X1836009Y1552108D1*
G1X1836464Y1551483D1*
G1X1836918Y1551170D1*
G1X1837827Y1551170D1*
G1X1838282Y1551483D1*
G1X1838736Y1552108D1*
G1X1838964Y1552733D1*
G1X1842373Y1557733D2*
G1X1841918Y1557420D1*
G1X1841464Y1556795D1*
G1X1841236Y1556170D1*
G1X1841009Y1555233D1*
G1X1841009Y1553670D1*
G1X1841236Y1552733D1*
G1X1841464Y1552108D1*
G1X1841918Y1551483D1*
G1X1842373Y1551170D1*
G1X1843282Y1551170D1*
G1X1843736Y1551483D1*
G1X1844191Y1552108D1*
G1X1844418Y1552733D1*
G1X1844645Y1553670D1*
G1X1844645Y1555233D1*
G1X1844418Y1556170D1*
G1X1844191Y1556795D1*
G1X1843736Y1557420D1*
G1X1843282Y1557733D1*
G1X1842373Y1557733D1*
G1X1846691Y1557733D2*
G1X1846691Y1551170D1*
G1X1846691Y1557733D2*
G1X1848509Y1551170D1*
G1X1850327Y1557733D2*
G1X1848509Y1551170D1*
G1X1850327Y1557733D2*
G1X1850327Y1551170D1*
G1X1852373Y1557733D2*
G1X1852373Y1551170D1*
G1X1852373Y1557733D2*
G1X1854418Y1557733D1*
G1X1855100Y1557420D1*
G1X1855327Y1557108D1*
G1X1855555Y1556483D1*
G1X1855555Y1555545D1*
G1X1855327Y1554920D1*
G1X1855100Y1554608D1*
G1X1854418Y1554295D1*
G1X1852373Y1554295D1*
G1X1859418Y1557733D2*
G1X1857600Y1551170D1*
G1X1859418Y1557733D2*
G1X1861236Y1551170D1*
G1X1858282Y1553358D2*
G1X1860555Y1553358D1*
G1X1864873Y1557733D2*
G1X1864873Y1551170D1*
G1X1863282Y1557733D2*
G1X1866464Y1557733D1*
G1X1868509Y1557733D2*
G1X1868509Y1551170D1*
G1X1870555Y1557733D2*
G1X1870555Y1551170D1*
G1X1870555Y1557733D2*
G1X1872600Y1557733D1*
G1X1873282Y1557420D1*
G1X1873509Y1557108D1*
G1X1873736Y1556483D1*
G1X1873736Y1555858D1*
G1X1873509Y1555233D1*
G1X1873282Y1554920D1*
G1X1872600Y1554608D1*
G1X1870555Y1554608D2*
G1X1872600Y1554608D1*
G1X1873282Y1554295D1*
G1X1873509Y1553983D1*
G1X1873736Y1553358D1*
G1X1873736Y1552420D1*
G1X1873509Y1551795D1*
G1X1873282Y1551483D1*
G1X1872600Y1551170D1*
G1X1870555Y1551170D1*
G1X1875782Y1557733D2*
G1X1875782Y1551170D1*
G1X1878509Y1551170D1*
G1X1880555Y1557733D2*
G1X1880555Y1551170D1*
G1X1880555Y1557733D2*
G1X1883509Y1557733D1*
G1X1880555Y1554608D2*
G1X1882373Y1554608D1*
G1X1880555Y1551170D2*
G1X1883509Y1551170D1*
G1X1890782Y1557733D2*
G1X1890782Y1551170D1*
G1X1890782Y1557733D2*
G1X1892373Y1557733D1*
G1X1893055Y1557420D1*
G1X1893509Y1556795D1*
G1X1893736Y1556170D1*
G1X1893964Y1555233D1*
G1X1893964Y1553670D1*
G1X1893736Y1552733D1*
G1X1893509Y1552108D1*
G1X1893055Y1551483D1*
G1X1892373Y1551170D1*
G1X1890782Y1551170D1*
G1X1896009Y1557733D2*
G1X1896009Y1551170D1*
G1X1896009Y1557733D2*
G1X1898964Y1557733D1*
G1X1896009Y1554608D2*
G1X1897827Y1554608D1*
G1X1896009Y1551170D2*
G1X1898964Y1551170D1*
G1X1901009Y1557733D2*
G1X1901009Y1551170D1*
G1X1901009Y1557733D2*
G1X1902827Y1551170D1*
G1X1904645Y1557733D2*
G1X1902827Y1551170D1*
G1X1904645Y1557733D2*
G1X1904645Y1551170D1*
G1X1908055Y1557733D2*
G1X1907600Y1557420D1*
G1X1907145Y1556795D1*
G1X1906918Y1556170D1*
G1X1906691Y1555233D1*
G1X1906691Y1553670D1*
G1X1906918Y1552733D1*
G1X1907145Y1552108D1*
G1X1907600Y1551483D1*
G1X1908055Y1551170D1*
G1X1908964Y1551170D1*
G1X1909418Y1551483D1*
G1X1909873Y1552108D1*
G1X1910100Y1552733D1*
G1X1910327Y1553670D1*
G1X1910327Y1555233D1*
G1X1910100Y1556170D1*
G1X1909873Y1556795D1*
G1X1909418Y1557420D1*
G1X1908964Y1557733D1*
G1X1908055Y1557733D1*
G1X1912373Y1557733D2*
G1X1912373Y1551170D1*
G1X1912373Y1557733D2*
G1X1915555Y1551170D1*
G1X1915555Y1557733D2*
G1X1915555Y1551170D1*
G1X1920782Y1556795D2*
G1X1920327Y1557420D1*
G1X1919645Y1557733D1*
G1X1918736Y1557733D1*
G1X1918055Y1557420D1*
G1X1917600Y1556795D1*
G1X1917600Y1556170D1*
G1X1917827Y1555545D1*
G1X1918055Y1555233D1*
G1X1918509Y1554920D1*
G1X1919873Y1554295D1*
G1X1920327Y1553983D1*
G1X1920555Y1553670D1*
G1X1920782Y1553045D1*
G1X1920782Y1552108D1*
G1X1920327Y1551483D1*
G1X1919645Y1551170D1*
G1X1918736Y1551170D1*
G1X1918055Y1551483D1*
G1X1917600Y1552108D1*
G1X1924418Y1557733D2*
G1X1924418Y1551170D1*
G1X1922827Y1557733D2*
G1X1926009Y1557733D1*
G1X1928055Y1557733D2*
G1X1928055Y1551170D1*
G1X1928055Y1557733D2*
G1X1930100Y1557733D1*
G1X1930782Y1557420D1*
G1X1931009Y1557108D1*
G1X1931236Y1556483D1*
G1X1931236Y1555858D1*
G1X1931009Y1555233D1*
G1X1930782Y1554920D1*
G1X1930100Y1554608D1*
G1X1928055Y1554608D1*
G1X1929645Y1554608D2*
G1X1931236Y1551170D1*
G1X1935100Y1557733D2*
G1X1933282Y1551170D1*
G1X1935100Y1557733D2*
G1X1936918Y1551170D1*
G1X1933964Y1553358D2*
G1X1936236Y1553358D1*
G1X1940555Y1557733D2*
G1X1940555Y1551170D1*
G1X1938964Y1557733D2*
G1X1942145Y1557733D1*
G1X1944191Y1557733D2*
G1X1944191Y1551170D1*
G1X1947600Y1557733D2*
G1X1947145Y1557420D1*
G1X1946691Y1556795D1*
G1X1946464Y1556170D1*
G1X1946236Y1555233D1*
G1X1946236Y1553670D1*
G1X1946464Y1552733D1*
G1X1946691Y1552108D1*
G1X1947145Y1551483D1*
G1X1947600Y1551170D1*
G1X1948509Y1551170D1*
G1X1948964Y1551483D1*
G1X1949418Y1552108D1*
G1X1949645Y1552733D1*
G1X1949873Y1553670D1*
G1X1949873Y1555233D1*
G1X1949645Y1556170D1*
G1X1949418Y1556795D1*
G1X1948964Y1557420D1*
G1X1948509Y1557733D1*
G1X1947600Y1557733D1*
G1X1951918Y1557733D2*
G1X1951918Y1551170D1*
G1X1951918Y1557733D2*
G1X1955100Y1551170D1*
G1X1955100Y1557733D2*
G1X1955100Y1551170D1*
G1X1962373Y1557733D2*
G1X1962373Y1551170D1*
G1X1962373Y1557733D2*
G1X1964418Y1557733D1*
G1X1965100Y1557420D1*
G1X1965327Y1557108D1*
G1X1965555Y1556483D1*
G1X1965555Y1555858D1*
G1X1965327Y1555233D1*
G1X1965100Y1554920D1*
G1X1964418Y1554608D1*
G1X1962373Y1554608D2*
G1X1964418Y1554608D1*
G1X1965100Y1554295D1*
G1X1965327Y1553983D1*
G1X1965555Y1553358D1*
G1X1965555Y1552420D1*
G1X1965327Y1551795D1*
G1X1965100Y1551483D1*
G1X1964418Y1551170D1*
G1X1962373Y1551170D1*
G1X1968964Y1557733D2*
G1X1968509Y1557420D1*
G1X1968055Y1556795D1*
G1X1967827Y1556170D1*
G1X1967600Y1555233D1*
G1X1967600Y1553670D1*
G1X1967827Y1552733D1*
G1X1968055Y1552108D1*
G1X1968509Y1551483D1*
G1X1968964Y1551170D1*
G1X1969873Y1551170D1*
G1X1970327Y1551483D1*
G1X1970782Y1552108D1*
G1X1971009Y1552733D1*
G1X1971236Y1553670D1*
G1X1971236Y1555233D1*
G1X1971009Y1556170D1*
G1X1970782Y1556795D1*
G1X1970327Y1557420D1*
G1X1969873Y1557733D1*
G1X1968964Y1557733D1*
G1X1975100Y1557733D2*
G1X1973282Y1551170D1*
G1X1975100Y1557733D2*
G1X1976918Y1551170D1*
G1X1973964Y1553358D2*
G1X1976236Y1553358D1*
G1X1978964Y1557733D2*
G1X1978964Y1551170D1*
G1X1978964Y1557733D2*
G1X1981009Y1557733D1*
G1X1981691Y1557420D1*
G1X1981918Y1557108D1*
G1X1982145Y1556483D1*
G1X1982145Y1555858D1*
G1X1981918Y1555233D1*
G1X1981691Y1554920D1*
G1X1981009Y1554608D1*
G1X1978964Y1554608D1*
G1X1980555Y1554608D2*
G1X1982145Y1551170D1*
G1X1984191Y1557733D2*
G1X1984191Y1551170D1*
G1X1984191Y1557733D2*
G1X1985782Y1557733D1*
G1X1986464Y1557420D1*
G1X1986918Y1556795D1*
G1X1987145Y1556170D1*
G1X1987373Y1555233D1*
G1X1987373Y1553670D1*
G1X1987145Y1552733D1*
G1X1986918Y1552108D1*
G1X1986464Y1551483D1*
G1X1985782Y1551170D1*
G1X1984191Y1551170D1*
G1X1742100Y1609300D2*
G1X1742100Y1614900D1*
G1X1762100Y1609800D2*
G1X1762100Y1614900D1*
G1X1752100Y1609800D2*
G1X1752100Y1614900D1*
G1X1766600Y1644300D2*
G1X1766600Y1636800D1*
G1X1770600Y1632800D1*
G1X1770950Y1632800D1*
G1X1762100Y1623700D2*
G1X1762200Y1623800D1*
G1X1766600Y1623800D1*
G1X1752100Y1623700D2*
G1X1752200Y1623800D1*
G1X1756600Y1623800D1*
G1X1742100Y1623700D2*
G1X1742200Y1623800D1*
G1X1746100Y1623800D1*
G1X1733100Y1623700D2*
G1X1733200Y1623800D1*
G1X1737100Y1623800D1*
G1X1796100Y1627300D2*
G1X1807600Y1627300D1*
G1X1781600Y1624300D2*
G1X1787700Y1630400D1*
G1X1806400Y1630400D1*
G1X1809200Y1633200D1*
G1X1809200Y1636500D1*
G1X1800072Y1643540D2*
G1X1811360Y1643540D1*
G1X1814600Y1640300D1*
G1X1814600Y1637300D1*
G1X1777150Y1639500D2*
G1X1777250Y1639400D1*
G1X1780900Y1639400D1*
G1X1770850Y1639500D2*
G1X1770950Y1638800D1*
G1X1770950Y1667450D1*
G1X1777150Y1633500D2*
G1X1777250Y1633400D1*
G1X1781300Y1633400D1*
G1X1770850Y1633500D2*
G1X1770950Y1632800D1*
G1X1817600Y1634450D2*
G1X1818450Y1635300D1*
G1X1826844Y1635300D1*
G1X1827076Y1635068D1*
G1X1834911Y1627839D2*
G1X1834911Y1630132D1*
G1X1836525Y1631746D1*
G1X1836525Y1635068D1*
G1X1834911Y1627839D2*
G1X1834950Y1627800D1*
G1X1814600Y1637300D2*
G1X1817450Y1634450D1*
G1X1817600Y1634450D1*
G1X1833100Y1643300D2*
G1X1836525Y1639875D1*
G1X1836525Y1635068D1*
G1X1836100Y1647300D2*
G1X1854608Y1647300D1*
G1X1854832Y1647076D1*
G1X1809128Y1639800D2*
G1X1809200Y1639728D1*
G1X1809200Y1636500D1*
G1X1845974Y1635068D2*
G1X1845974Y1630526D1*
G1X1852500Y1624000D1*
G1X1861900Y1624000D1*
G1X1866100Y1619800D1*
G1X1866100Y1609800D1*
G1X1821368Y1640776D2*
G1X1821391Y1640800D1*
G1X1826100Y1640800D1*
G1X1878250Y1642300D2*
G1X1878600Y1641950D1*
G1X1878600Y1638300D1*
G1X1879600Y1637300D1*
G1X1854832Y1647076D2*
G1X1859100Y1647076D1*
G1X1863600Y1642576D1*
G1X1863600Y1638300D1*
G1X1878600Y1623300D1*
G1X1899600Y1623300D1*
G1X1906100Y1616800D1*
G1X1906100Y1609800D1*
G1X1854832Y1643926D2*
G1X1859100Y1643926D1*
G1X1861100Y1641926D1*
G1X1861100Y1636800D1*
G1X1877100Y1620800D1*
G1X1889100Y1620800D1*
G1X1896100Y1613800D1*
G1X1896100Y1609800D1*
G1X1854832Y1640776D2*
G1X1855100Y1640509D1*
G1X1855100Y1638800D1*
G1X1875600Y1618300D1*
G1X1882600Y1618300D1*
G1X1886100Y1614800D1*
G1X1886100Y1609800D1*
G1X1849124Y1635068D2*
G1X1854832Y1635068D1*
G1X1876100Y1613800D1*
G1X1876100Y1609800D1*
G1X1909100Y1634800D2*
G1X1916470Y1642170D1*
G1X1916450Y1643670D2*
G1X1916470Y1643650D1*
G1X1916470Y1642170D1*
G1X1684630Y1681100D2*
G1X1684630Y1685300D1*
G1X1686600Y1685300D1*
G1X1684630Y1675100D2*
G1X1684630Y1676750D1*
G1X1684630Y1681100D1*
G1X1684100Y1667910D2*
G1X1686600Y1667910D1*
G1X1686600Y1676750D1*
G1X1684100Y1667910D2*
G1X1684100Y1664410D1*
G1X1684210Y1664300D1*
G1X1684100Y1671690D2*
G1X1684630Y1671690D1*
G1X1684630Y1675100D1*
G1X1732100Y1687800D2*
G1X1732100Y1689140D1*
G1X1733260Y1690300D1*
G1X1733260Y1691385D1*
G1X1732100Y1687800D2*
G1X1732100Y1682800D1*
G1X1733600Y1681300D1*
G1X1733600Y1678300D1*
G1X1760420Y1670598D2*
G1X1760818Y1670200D1*
G1X1768200Y1670200D1*
G1X1770950Y1667450D1*
G1X1760420Y1673157D2*
G1X1766184Y1673157D1*
G1X1760420Y1680834D2*
G1X1760554Y1680700D1*
G1X1766700Y1680700D1*
G1X1752600Y1683150D2*
G1X1752600Y1677950D1*
G1X1752925Y1678275D1*
G1X1760420Y1678275D1*
G1X1797100Y1688800D2*
G1X1812600Y1688800D1*
G1X1813600Y1689800D1*
G1X1837200Y1689800D1*
G1X1843950Y1683050D1*
G1X1856850Y1683050D1*
G1X1873100Y1666800D1*
G1X1880600Y1666800D1*
G1X1776500Y1659100D2*
G1X1776500Y1663100D1*
G1X1779600Y1666200D1*
G1X1783180Y1666200D1*
G1X1783900Y1665480D1*
G1X1787980Y1665480D1*
G1X1776600Y1668000D2*
G1X1776639Y1668039D1*
G1X1787980Y1668039D1*
G1X1787980Y1652684D2*
G1X1788095Y1652800D1*
G1X1794950Y1652800D1*
G1X1796600Y1654450D1*
G1X1803600Y1680950D2*
G1X1803750Y1680800D1*
G1X1807360Y1680800D1*
G1X1808100Y1681540D1*
G1X1813100Y1681540D1*
G1X1803600Y1674650D2*
G1X1803691Y1674560D1*
G1X1807600Y1674560D1*
G1X1808100Y1674060D1*
G1X1813100Y1674060D1*
G1X1844600Y1650300D2*
G1X1854757Y1650300D1*
G1X1854832Y1650225D1*
G1X1820600Y1685300D2*
G1X1821450Y1684450D1*
G1X1826600Y1684450D1*
G1X1821368Y1662824D2*
G1X1821344Y1662800D1*
G1X1828100Y1662800D1*
G1X1833100Y1657800D1*
G1X1841600Y1657800D1*
G1X1815100Y1652800D2*
G1X1815100Y1650076D1*
G1X1818100Y1647076D1*
G1X1821368Y1647076D1*
G1X1811600Y1660300D2*
G1X1811600Y1649800D1*
G1X1817474Y1643926D1*
G1X1821368Y1643926D1*
G1X1833376Y1663275D2*
G1X1833376Y1668532D1*
G1X1839675Y1663304D2*
G1X1839675Y1668532D1*
G1X1813100Y1681540D2*
G1X1820360Y1681540D1*
G1X1823100Y1678800D1*
G1X1823100Y1674800D1*
G1X1824100Y1673800D1*
G1X1829100Y1673800D1*
G1X1830226Y1672674D1*
G1X1830226Y1668532D1*
G1X1813100Y1674060D2*
G1X1816572Y1674060D1*
G1X1822100Y1668532D1*
G1X1827076Y1668532D1*
G1X1821368Y1650225D2*
G1X1828025Y1650225D1*
G1X1828100Y1650300D1*
G1X1821368Y1653375D2*
G1X1821368Y1653300D1*
G1X1826100Y1653300D1*
G1X1821368Y1656524D2*
G1X1821643Y1656800D1*
G1X1827100Y1656800D1*
G1X1832100Y1651800D1*
G1X1821368Y1659674D2*
G1X1821742Y1659300D1*
G1X1828600Y1659300D1*
G1X1833600Y1654300D1*
G1X1841600Y1654300D1*
G1X1845974Y1668532D2*
G1X1845974Y1672300D1*
G1X1847474Y1673800D1*
G1X1855100Y1673800D1*
G1X1878250Y1658800D2*
G1X1883600Y1658800D1*
G1X1871950Y1658800D2*
G1X1872100Y1658950D1*
G1X1878250Y1649300D2*
G1X1880974Y1649300D1*
G1X1888100Y1642174D1*
G1X1892226Y1642174D1*
G1X1871950Y1649300D2*
G1X1878250Y1643001D1*
G1X1878250Y1642300D1*
G1X1858600Y1676800D2*
G1X1872100Y1663300D1*
G1X1872100Y1658950D1*
G1X1867700Y1683000D2*
G1X1885100Y1683000D1*
G1X1886556Y1681544D1*
G1X1892226Y1681544D1*
G1X1867100Y1654000D2*
G1X1888500Y1654000D1*
G1X1865500Y1683000D2*
G1X1867700Y1683000D1*
G1X1848100Y1653300D2*
G1X1848175Y1653375D1*
G1X1854832Y1653375D1*
G1X1854832Y1662824D2*
G1X1854856Y1662800D1*
G1X1859100Y1662800D1*
G1X1861100Y1664800D1*
G1X1854832Y1659674D2*
G1X1860974Y1659674D1*
G1X1861100Y1659800D1*
G1X1854832Y1656524D2*
G1X1854857Y1656500D1*
G1X1859600Y1656500D1*
G1X1862000Y1654100D1*
G1X1854832Y1650225D2*
G1X1860389Y1650225D1*
G1X1866100Y1644514D1*
G1X1866100Y1639800D1*
G1X1880100Y1625800D1*
G1X1908100Y1625800D1*
G1X1916100Y1617800D1*
G1X1916100Y1609800D1*
G1X1849124Y1668532D2*
G1X1849356Y1668300D1*
G1X1858100Y1668300D1*
G1X1922750Y1657670D2*
G1X1922880Y1657800D1*
G1X1928600Y1657800D1*
G1X1912100Y1673670D2*
G1X1916450Y1673670D1*
G1X1912100Y1665800D2*
G1X1916320Y1665800D1*
G1X1916450Y1665670D1*
G1X1900100Y1673670D2*
G1X1912100Y1673670D1*
G1X1900100Y1665796D2*
G1X1900104Y1665800D1*
G1X1912100Y1665800D1*
G1X1900100Y1657922D2*
G1X1900222Y1657800D1*
G1X1916320Y1657800D1*
G1X1916450Y1657670D1*
G1X1900100Y1650048D2*
G1X1900152Y1650100D1*
G1X1916380Y1650100D1*
G1X1916450Y1650170D1*
G1X1679900Y1699000D2*
G1X1682530Y1699000D1*
G1X1684630Y1696900D1*
G1X1684630Y1693850D1*
G1X1679900Y1699000D2*
G1X1680100Y1698800D1*
G1X1688570Y1693850D2*
G1X1688600Y1693850D1*
G1X1688600Y1699100D1*
G1X1689270Y1699770D1*
G1X1689270Y1700199D1*
G1X1689271Y1700200D1*
G1X1759600Y1692800D2*
G1X1767925Y1692800D1*
G1X1773425Y1698300D1*
G1X1773425Y1698751D1*
G1X1774000Y1699300D1*
G1X1740740Y1702015D2*
G1X1740925Y1702200D1*
G1X1741700Y1702200D1*
G1X1752600Y1689450D2*
G1X1752600Y1692980D1*
G1X1758930Y1699310D1*
G1X1766090Y1699310D1*
G1X1766100Y1699300D1*
G1X1784100Y1718300D2*
G1X1811100Y1718300D1*
G1X1822200Y1729400D1*
G1X1822200Y1735900D1*
G1X1774000Y1699300D2*
G1X1774200Y1699300D1*
G1X1779100Y1694400D1*
G1X1806200Y1694400D1*
G1X1809900Y1698100D1*
G1X1815600Y1698100D1*
G1X1816900Y1696800D1*
G1X1842600Y1696800D1*
G1X1846100Y1693300D1*
G1X1849100Y1690300D1*
G1X1901100Y1690300D1*
G1X1905100Y1694300D1*
G1X1812600Y1695300D2*
G1X1812800Y1695300D1*
G1X1813300Y1694800D1*
G1X1839100Y1694800D1*
G1X1846100Y1687800D1*
G1X1904000Y1687800D1*
G1X1906500Y1690300D1*
G1X1910600Y1690300D1*
G1X1809100Y1691800D2*
G1X1809300Y1692000D1*
G1X1811200Y1692000D1*
G1X1811400Y1692200D1*
G1X1838200Y1692200D1*
G1X1845100Y1685300D1*
G1X1858600Y1685300D1*
G1X1864500Y1679400D1*
G1X1879500Y1679400D1*
G1X1880600Y1679300D1*
G1X1829600Y1709200D2*
G1X1834700Y1714300D1*
G1X1849000Y1714300D1*
G1X1857500Y1722800D1*
G1X1862350Y1722800D1*
G1X1864900Y1720250D1*
G1X1859600Y1719800D2*
G1X1859600Y1714753D1*
G1X1862903Y1711450D1*
G1X1863100Y1711450D1*
G1X1863297Y1711450D1*
G1X1866946Y1707800D1*
G1X1878040Y1707800D1*
G1X1881100Y1710860D1*
G1X1882015Y1710860D1*
G1X1864900Y1720250D2*
G1X1864900Y1715900D1*
G1X1870000Y1710800D1*
G1X1871325Y1710800D1*
G1X1871385Y1710860D1*
G1X1882015Y1710860D2*
G1X1889291Y1710860D1*
G1X1889300Y1710850D1*
G1X1889200Y1710550D2*
G1X1889300Y1710850D1*
G1X1714100Y1735800D2*
G1X1714100Y1740800D1*
G1X1798257Y1747060D2*
G1X1798298Y1747100D1*
G1X1802500Y1747100D1*
G1X1887415Y1736560D2*
G1X1889040Y1736560D1*
G1X1893650Y1731950D1*
G1X1902600Y1731950D1*
G1X1876785Y1736560D2*
G1X1876815Y1736590D1*
G1X1881900Y1736590D1*
G1X1883827Y1738517D1*
G1X1883827Y1738573D1*
G1X1884514Y1739260D1*
G1X1890620Y1739260D1*
G1X1892230Y1737650D1*
G1X1894600Y1737650D1*
G1X1902600Y1731950D2*
G1X1902600Y1737650D1*
G1X1897415Y1762060D2*
G1X1901100Y1762060D1*
G1X1901840Y1762800D1*
G1X1903950Y1762800D1*
G1X1904100Y1762650D1*
G1X1698411Y1795300D2*
G1X1707700Y1795300D1*
G1X1758100Y1788800D2*
G1X1777100Y1788800D1*
G1X1666100Y1601800D2*
G75*
G3X1668100Y1599800I2000J0D1*
G74*
G1X1666100Y1601800D2*
G1X1666100Y1807800D1*
G1X1668100Y1809800D2*
G75*
G3X1666100Y1807800I0J-2000D1*
G74*
G1X1668100Y1809800D2*
G1X1920100Y1809800D1*
G1X1926100Y1803800D1*
G1X1926100Y1758800D1*
G1X1936100Y1748800D1*
G1X1936100Y1619800D1*
G1X1926100Y1609800D1*
G1X1926100Y1601800D1*
G1X1924100Y1599800D2*
G75*
G3X1926100Y1601800I0J2000D1*
G74*
G1X1924100Y1599800D2*
G1X1668100Y1599800D1*
G1X1781135Y1646992D2*
G54D12*
G1X1783150Y1646992D1*
G1X1783723Y1647566D1*
G1X1787980Y1647566D1*
G1X1781135Y1650592D2*
G1X1783203Y1650592D1*
G1X1783670Y1650125D1*
G1X1787980Y1650125D1*
G1X1707885Y1721500D2*
G1X1709685Y1721500D1*
G1X1710685Y1722500D1*
G1X1712400Y1722500D1*
G1X1714100Y1720800D1*
G1X1707885Y1725100D2*
G1X1709685Y1725100D1*
G1X1710685Y1724100D1*
G1X1712400Y1724100D1*
G1X1714100Y1725800D1*
G1X1764100Y1725800D2*
G1X1766150Y1725800D1*
G1X1766850Y1725100D1*
G1X1769060Y1725100D1*
G1X1764100Y1720800D2*
G1X1766150Y1720800D1*
G1X1766850Y1721500D1*
G1X1769060Y1721500D1*
G1X1813100Y1677800D2*
G54D14*
G1X1820000Y1677800D1*
G54D22*
G1X1916600Y1719800D3*
G1X1766100Y1699300D3*
G54D23*
G1X1926600Y1719800D3*
G1X1916600Y1709800D3*
G1X1926600Y1709800D3*
G1X1916600Y1699800D3*
G1X1926600Y1699800D3*
G1X1699100Y1741800D3*
G1X1699100Y1751643D3*
G1X1691226Y1751643D3*
G1X1691226Y1741800D3*
G1X1892600Y1700800D3*
G1X1882600Y1700800D3*
G1X1774000Y1699300D3*
G1X1781900Y1699300D3*
G54D33*
G1X1900100Y1634300D3*
G54D36*
G1X1680557Y1723020D3*
G1X1680557Y1770422D3*
G1X1771000Y1628500D2*
G54D38*
G1X1779700Y1619800D1*
G1X1840100Y1619800D1*
G1X1846100Y1613800D1*
G1X1846100Y1609800D1*
G1X1807900Y1757700D2*
G1X1815150Y1764950D1*
G1X1815150Y1776250D1*
G1X1818900Y1780000D1*
G1X1853600Y1743800D2*
G1X1865100Y1732300D1*
G1X1886600Y1732300D1*
G1X1890850Y1728050D1*
G1X1911100Y1757800D2*
G1X1911100Y1762257D1*
G1X1819000Y1779900D2*
G1X1831500Y1767400D1*
G1X1861000Y1767400D1*
G1X1741700Y1702200D2*
G54D39*
G1X1747050Y1702200D1*
G1X1761600Y1708800D2*
G1X1769100Y1708800D1*
G1X1747050Y1702200D2*
G1X1747050Y1706000D1*
G1X1749850Y1708800D1*
G1X1761600Y1708800D1*
G1X1769100Y1708800D2*
G1X1771100Y1708800D1*
G1X1775791Y1713491D1*
G1X1910600Y1725300D2*
G1X1910600Y1696100D1*
G1X1919100Y1687600D1*
G1X1919100Y1686800D1*
G1X1910600Y1725300D2*
G1X1912600Y1727300D1*
G1X1710600Y1750800D2*
G1X1714100Y1750800D1*
G1X1719100Y1745800D2*
G1X1717350Y1745800D1*
G1X1714100Y1745800D1*
G1X1764100Y1770800D2*
G1X1764100Y1765800D1*
G1X1764100Y1760800D1*
G1X1764100Y1755800D2*
G1X1767100Y1755800D1*
G1X1769600Y1753300D1*
G1X1769600Y1736789D1*
G1X1775791Y1730599D1*
G1X1775791Y1713491D1*
G1X1764100Y1755800D2*
G1X1764100Y1760800D1*
G1X1811350Y1745900D2*
G1X1849800Y1745900D1*
G1X1849800Y1745800D1*
G1X1808300Y1743800D2*
G1X1811350Y1745900D1*
G1X1849800Y1745800D2*
G1X1852500Y1748500D1*
G1X1866790Y1748500D1*
G1X1849800Y1745800D2*
G1X1849800Y1740250D1*
G1X1862550Y1727500D1*
G1X1733100Y1609800D2*
G54D40*
G1X1733100Y1614900D1*
G1X1791100Y1633800D2*
G1X1793360Y1636060D1*
G1X1800072Y1636060D1*
G1X1794100Y1644300D2*
G1X1796600Y1646800D1*
G1X1796600Y1648150D1*
G1X1817600Y1624300D2*
G1X1817600Y1628150D1*
G1X1830200Y1640200D2*
G1X1830226Y1638200D1*
G1X1830226Y1635068D1*
G1X1822950Y1627800D2*
G1X1822950Y1624300D1*
G1X1823100Y1624300D1*
G1X1829250Y1627800D2*
G1X1830226Y1627800D1*
G1X1830226Y1635068D1*
G1X1839675Y1635068D2*
G1X1839675Y1640300D1*
G1X1843100Y1643700D1*
G1X1839675Y1635068D2*
G1X1839675Y1631800D1*
G1X1841100Y1630375D1*
G1X1841100Y1627950D1*
G1X1841250Y1627800D1*
G1X1871950Y1642300D2*
G1X1871950Y1639300D1*
G1X1876950Y1634300D1*
G1X1892226Y1634300D1*
G1X1892226Y1633674D1*
G1X1897200Y1628700D1*
G1X1911650Y1628700D1*
G1X1922750Y1639800D1*
G1X1922750Y1643670D1*
G1X1736100Y1672300D2*
G1X1739600Y1675800D1*
G1X1740557Y1675800D1*
G1X1740600Y1675757D1*
G1X1752600Y1667300D2*
G1X1752600Y1671650D1*
G1X1760420Y1665480D2*
G1X1766241Y1665480D1*
G1X1782700Y1659155D2*
G1X1782700Y1659361D1*
G1X1783700Y1660361D1*
G1X1787980Y1660361D1*
G1X1782700Y1659155D2*
G1X1782700Y1659093D1*
G1X1783700Y1657802D1*
G1X1787980Y1657802D1*
G1X1781106Y1659155D2*
G1X1781164Y1659155D1*
G1X1781225Y1659093D1*
G1X1782700Y1659093D1*
G1X1781096Y1673157D2*
G1X1781096Y1675716D1*
G1X1787980Y1675716D1*
G1X1781096Y1673157D2*
G1X1787980Y1673157D1*
G1X1781191Y1655243D2*
G1X1787980Y1655243D1*
G1X1781000Y1662900D2*
G1X1781020Y1662920D1*
G1X1787980Y1662920D1*
G1X1794600Y1670800D2*
G1X1795100Y1670800D1*
G1X1796600Y1669300D1*
G1X1796600Y1666950D1*
G1X1787980Y1660361D2*
G1X1796389Y1660361D1*
G1X1796600Y1660650D1*
G1X1826600Y1678150D2*
G1X1832400Y1678150D1*
G1X1832600Y1677950D1*
G1X1820000Y1677800D2*
G1X1820100Y1677700D1*
G1X1832600Y1684250D2*
G1X1836650Y1684250D1*
G1X1836700Y1684200D1*
G1X1832600Y1677950D2*
G1X1832600Y1672900D1*
G1X1833300Y1672200D1*
G1X1833300Y1668532D1*
G1X1833376Y1668532D1*
G1X1836525Y1668532D2*
G1X1836539Y1668532D1*
G1X1836539Y1673364D1*
G1X1839675Y1668532D2*
G1X1839675Y1675524D1*
G1X1841950Y1677800D1*
G1X1842824Y1668532D2*
G1X1842824Y1673383D1*
G1X1848250Y1677800D2*
G1X1852100Y1677800D1*
G1X1922750Y1650170D2*
G1X1922750Y1643670D1*
G1X1922750Y1665670D2*
G1X1922750Y1665800D1*
G1X1927600Y1665800D1*
G1X1922750Y1673670D2*
G1X1927600Y1673670D1*
G1X1737000Y1702015D2*
G1X1737000Y1698300D1*
G1X1737000Y1698200D1*
G1X1733260Y1702015D2*
G1X1733260Y1698300D1*
G1X1737000Y1698300D1*
G1X1737000Y1702015D2*
G1X1737000Y1705700D1*
G1X1753350Y1702200D2*
G1X1757000Y1702200D1*
G1X1831200Y1718000D2*
G1X1834500Y1718000D1*
G1X1850000Y1733500D1*
G1X1878600Y1728800D2*
G1X1878600Y1724900D1*
G1X1878850Y1724900D1*
G1X1853274Y1701300D2*
G1X1859250Y1701300D1*
G1X1863100Y1705150D1*
G1X1871385Y1714600D2*
G1X1871585Y1714800D1*
G1X1876100Y1714800D1*
G1X1906600Y1725800D2*
G1X1902450Y1725800D1*
G1X1902600Y1725650D1*
G1X1902600Y1710257D2*
G1X1904100Y1710257D1*
G1X1904100Y1706300D1*
G1X1882100Y1765800D2*
G1X1886785Y1765800D1*
G1X1884600Y1754800D2*
G1X1884750Y1754800D1*
G1X1884750Y1750800D1*
G1X1886785Y1762060D2*
G1X1887025Y1762300D1*
G1X1891600Y1762300D1*
G1X1876785Y1740300D2*
G1X1880500Y1740300D1*
G1X1908100Y1733300D2*
G1X1908100Y1733757D1*
G1X1911600Y1737257D1*
G1X1674789Y1795300D2*
G1X1674789Y1801289D1*
G1X1674800Y1801300D1*
G1X1818900Y1780000D2*
G1X1819000Y1779900D1*
G1X1886785Y1769540D2*
G1X1886785Y1773985D1*
G1X1889100Y1776300D1*
G1X1889100Y1776650D1*
G1X1886785Y1769540D2*
G1X1891600Y1769540D1*
G1X1891600Y1769540D3*
G1X1895250Y1776800D2*
G1X1899100Y1776800D1*
G1X1888950Y1776800D2*
G1X1889100Y1776650D1*
G54D44*
G1X1733600Y1678300D3*
G1X1680100Y1698800D3*
G1X1815100Y1740800D3*
G1X1815100Y1733300D3*
G1X1708850Y1757800D2*
G54D119*
G1X1711000Y1757800D1*
G1X1708000Y1754400D2*
G1X1708850Y1754400D1*
G1X1711000Y1754400D1*
G1X1708850Y1761400D2*
G1X1711000Y1761400D1*
G1X1708000Y1757800D2*
G1X1708850Y1757800D1*
G1X1708100Y1761400D2*
G1X1708850Y1761400D1*
G1X1686100Y1615800D3*
G1X1681100Y1620800D3*
G1X1686100Y1645800D3*
G1X1681100Y1640800D3*
G1X1681100Y1630800D3*
G1X1716100Y1628300D3*
G1X1716100Y1637300D3*
G1X1704600Y1637300D3*
G1X1713600Y1643300D3*
G1X1706100Y1643300D3*
G1X1704600Y1628300D3*
G1X1696100Y1625800D3*
G1X1691100Y1620800D3*
G1X1696100Y1635800D3*
G1X1691100Y1630800D3*
G1X1696100Y1645800D3*
G1X1691100Y1640800D3*
G1X1742100Y1609300D3*
G1X1746100Y1623800D3*
G1X1766600Y1623800D3*
G1X1756600Y1623800D3*
G1X1762100Y1609800D3*
G1X1752100Y1609800D3*
G1X1737100Y1623800D3*
G1X1766600Y1644300D3*
G1X1728600Y1628800D3*
G1X1757100Y1628800D3*
G1X1733100Y1609800D3*
G1X1807600Y1627300D3*
G1X1796100Y1627300D3*
G1X1781600Y1624300D3*
G1X1780900Y1639400D3*
G1X1781300Y1633400D3*
G1X1781135Y1646992D3*
G1X1771000Y1628500D3*
G1X1791100Y1633800D3*
G1X1794100Y1644300D3*
G1X1817600Y1624300D3*
G1X1814600Y1637300D3*
G1X1826100Y1640800D3*
G1X1833100Y1643300D3*
G1X1836100Y1647300D3*
G1X1830200Y1640200D3*
G1X1843100Y1643700D3*
G1X1823100Y1624300D3*
G1X1880100Y1629800D3*
G1X1879600Y1637300D3*
G1X1909100Y1634800D3*
G1X1683600Y1688300D3*
G1X1686600Y1685300D3*
G1X1683600Y1682300D3*
G1X1682600Y1685300D3*
G1X1678600Y1685300D3*
G1X1681100Y1650800D3*
G1X1709100Y1677800D3*
G1X1704100Y1675300D3*
G1X1701600Y1680300D3*
G1X1706600Y1683800D3*
G1X1699100Y1683800D3*
G1X1689600Y1688300D3*
G1X1726600Y1685300D3*
G1X1694600Y1680300D3*
G1X1694600Y1685300D3*
G1X1690600Y1685300D3*
G1X1689600Y1682300D3*
G1X1691100Y1650800D3*
G1X1721600Y1675300D3*
G1X1724100Y1680300D3*
G1X1721600Y1685300D3*
G1X1766700Y1680700D3*
G1X1745600Y1684800D3*
G1X1735600Y1684800D3*
G1X1737600Y1687800D3*
G1X1744100Y1687800D3*
G1X1766184Y1673157D3*
G1X1736100Y1672300D3*
G1X1752600Y1667300D3*
G1X1766241Y1665480D3*
G1X1797100Y1688800D3*
G1X1776500Y1659100D3*
G1X1776600Y1668000D3*
G1X1781135Y1650592D3*
G1X1781106Y1659155D3*
G1X1781096Y1673157D3*
G1X1781191Y1655243D3*
G1X1781000Y1662900D3*
G1X1794600Y1670800D3*
G1X1844600Y1650300D3*
G1X1820600Y1685300D3*
G1X1845600Y1657800D3*
G1X1815100Y1652800D3*
G1X1811600Y1660300D3*
G1X1828100Y1650300D3*
G1X1826100Y1653300D3*
G1X1832100Y1651800D3*
G1X1841600Y1654300D3*
G1X1841600Y1657800D3*
G1X1833376Y1663275D3*
G1X1839675Y1663304D3*
G1X1836700Y1684200D3*
G1X1820100Y1677700D3*
G1X1842824Y1673383D3*
G1X1836539Y1673364D3*
G1X1858600Y1676800D3*
G1X1883600Y1658800D3*
G1X1867100Y1654000D3*
G1X1865500Y1683000D3*
G1X1880600Y1666800D3*
G1X1848100Y1653300D3*
G1X1880600Y1679300D3*
G1X1855100Y1673800D3*
G1X1858100Y1668300D3*
G1X1861100Y1664800D3*
G1X1861100Y1659800D3*
G1X1862000Y1654100D3*
G1X1852100Y1677800D3*
G1X1912100Y1673670D3*
G1X1912100Y1665800D3*
G1X1919100Y1686800D3*
G1X1927600Y1665800D3*
G1X1927600Y1673670D3*
G1X1928600Y1657800D3*
G1X1687600Y1706300D3*
G1X1707885Y1721500D3*
G1X1707885Y1725100D3*
G1X1693600Y1706300D3*
G1X1699600Y1706300D3*
G1X1701600Y1702300D3*
G1X1717600Y1702300D3*
G1X1717600Y1706300D3*
G1X1724100Y1706300D3*
G1X1721600Y1695800D3*
G1X1726600Y1695800D3*
G1X1759600Y1692800D3*
G1X1761600Y1708800D3*
G1X1744100Y1691300D3*
G1X1737600Y1691300D3*
G1X1766600Y1689300D3*
G1X1754100Y1724800D3*
G1X1757000Y1702200D3*
G1X1751100Y1727800D3*
G1X1751100Y1721800D3*
G1X1751100Y1716800D3*
G1X1746100Y1716800D3*
G1X1737000Y1705700D3*
G1X1737000Y1698200D3*
G1X1797280Y1721090D3*
G1X1769060Y1721500D3*
G1X1769060Y1725100D3*
G1X1784100Y1718300D3*
G1X1769100Y1708800D3*
G1X1803500Y1707400D3*
G1X1846100Y1693300D3*
G1X1812600Y1695300D3*
G1X1809100Y1691800D3*
G1X1831200Y1718000D3*
G1X1811700Y1702300D3*
G1X1823500Y1716200D3*
G1X1836600Y1728300D3*
G1X1859600Y1719800D3*
G1X1876100Y1714800D3*
G1X1878600Y1728800D3*
G1X1905100Y1694300D3*
G1X1910600Y1690300D3*
G1X1896100Y1726300D3*
G1X1891600Y1726300D3*
G1X1891600Y1721800D3*
G1X1896100Y1721800D3*
G1X1912600Y1727300D3*
G1X1904100Y1706300D3*
G1X1906600Y1725800D3*
G1X1711000Y1757800D3*
G1X1708000Y1754400D3*
G1X1708000Y1757800D3*
G1X1711000Y1761400D3*
G1X1722600Y1763300D3*
G1X1722600Y1768300D3*
G1X1722600Y1758300D3*
G1X1722600Y1753300D3*
G1X1722600Y1748300D3*
G1X1722600Y1743300D3*
G1X1722600Y1738300D3*
G1X1710600Y1750800D3*
G1X1711000Y1754400D3*
G1X1708100Y1761400D3*
G1X1754100Y1742800D3*
G1X1754100Y1736800D3*
G1X1754100Y1760800D3*
G1X1754100Y1754800D3*
G1X1754100Y1748800D3*
G1X1751100Y1745800D3*
G1X1751100Y1739800D3*
G1X1751100Y1733800D3*
G1X1754100Y1730800D3*
G1X1802500Y1747100D3*
G1X1802100Y1764800D3*
G1X1802100Y1758300D3*
G1X1773600Y1740300D3*
G1X1793100Y1756300D3*
G1X1793100Y1744800D3*
G1X1793100Y1737300D3*
G1X1778100Y1740300D3*
G1X1777100Y1762800D3*
G1X1777100Y1754300D3*
G1X1819600Y1761000D3*
G1X1821400Y1751000D3*
G1X1828600Y1732900D3*
G1X1832200Y1738500D3*
G1X1822200Y1735900D3*
G1X1807900Y1757700D3*
G1X1827010Y1762300D3*
G1X1830600Y1742600D3*
G1X1843100Y1740000D3*
G1X1865100Y1737800D3*
G1X1853600Y1743800D3*
G1X1861000Y1767400D3*
G1X1850000Y1733500D3*
G1X1849700Y1750900D3*
G1X1866100Y1766800D3*
G1X1849500Y1757900D3*
G1X1856200Y1753500D3*
G1X1869600Y1737300D3*
G1X1863400Y1743700D3*
G1X1882100Y1765800D3*
G1X1884600Y1754800D3*
G1X1880500Y1740300D3*
G1X1911600Y1748800D3*
G1X1906100Y1748800D3*
G1X1900100Y1748800D3*
G1X1894600Y1748800D3*
G1X1891600Y1762300D3*
G1X1911100Y1757800D3*
G1X1908100Y1733300D3*
G1X1674800Y1801300D3*
G1X1707700Y1795300D3*
G1X1758100Y1788800D3*
G1X1751100Y1774800D3*
G1X1751100Y1768900D3*
G1X1773850Y1785300D3*
G1X1777100Y1788800D3*
G1X1803600Y1783800D3*
G1X1797100Y1783800D3*
G1X1802100Y1776800D3*
G1X1802100Y1770800D3*
G1X1784100Y1777300D3*
G1X1777100Y1773300D3*
G1X1823000Y1769400D3*
G1X1819000Y1779900D3*
G1X1824000Y1780200D3*
G1X1809600Y1774100D3*
G1X1910100Y1784300D3*
G1X1899600Y1785300D3*
G1X1916100Y1774800D3*
G1X1913600Y1777800D3*
G1X1908600Y1777800D3*
G1X1911100Y1774800D3*
G1X1905600Y1774800D3*
G1X1891600Y1769540D3*
G1X1899100Y1776800D3*
G1X1690300Y1691500D2*
G54D163*
G1X1696824Y1691500D1*
G1X1700224Y1688100D1*
G1X1713800Y1688100D1*
G1X1713800Y1696500D1*
G1X1699976Y1696500D1*
G1X1695176Y1701300D1*
G1X1693300Y1701300D1*
G1X1693300Y1698476D1*
G1X1690300Y1695476D1*
G1X1690300Y1691500D1*
G1X1686400Y1692400D2*
G1X1686400Y1698924D1*
G1X1682611Y1702714D1*
G1X1681116Y1704165D1*
G1X1677994Y1704165D1*
G1X1675819Y1701990D1*
G1X1675819Y1701921D1*
G1X1668333Y1701921D1*
G1X1668333Y1709476D1*
G1X1668357Y1709500D1*
G1X1724976Y1709500D1*
G1X1728800Y1705676D1*
G1X1728800Y1700100D1*
G1X1700663Y1700100D1*
G1X1697179Y1703700D1*
G1X1687776Y1703700D1*
G1X1686800Y1702724D1*
G1X1686800Y1692400D1*
G1X1686400Y1692400D1*
G1X1682900Y1675100D2*
G1X1670583Y1675100D1*
G1X1668457Y1677279D1*
G1X1668457Y1698186D1*
G1X1675188Y1698186D1*
G1X1675188Y1695780D1*
G1X1673867Y1694459D1*
G1X1672240Y1692832D1*
G1X1672240Y1678500D1*
G1X1682900Y1678500D1*
G1X1682900Y1675100D1*
G1X1674600Y1689500D2*
G1X1674600Y1692276D1*
G1X1676624Y1694300D1*
G1X1680496Y1694300D1*
G1X1681896Y1695300D1*
G1X1682900Y1695300D1*
G1X1682900Y1691900D1*
G1X1679776Y1691900D1*
G1X1677376Y1689500D1*
G1X1674600Y1689500D1*
G1X1674700Y1682900D2*
G1X1678124Y1682900D1*
G1X1679924Y1681100D1*
G1X1690300Y1681100D1*
G1X1690300Y1675124D1*
G1X1692824Y1672600D1*
G1X1724976Y1672600D1*
G1X1728800Y1676424D1*
G1X1728800Y1697000D1*
G1X1718724Y1697000D1*
G1X1716900Y1695176D1*
G1X1716900Y1688176D1*
G1X1713724Y1685000D1*
G1X1698476Y1685000D1*
G1X1694076Y1689400D1*
G1X1679624Y1689400D1*
G1X1678124Y1687900D1*
G1X1674700Y1687900D1*
G1X1674700Y1682900D1*
G1X1688400Y1678000D2*
G1X1688400Y1662824D1*
G1X1691124Y1660100D1*
G1X1702724Y1660100D1*
G1X1708724Y1654100D1*
G1X1745476Y1654100D1*
G1X1747300Y1655924D1*
G1X1747300Y1667176D1*
G1X1745476Y1669000D1*
G1X1693276Y1669000D1*
G1X1688800Y1673476D1*
G1X1688800Y1678000D1*
G1X1688400Y1678000D1*
G1X1737724Y1681000D2*
G1X1734500Y1684224D1*
G1X1734500Y1687276D1*
G1X1736300Y1689076D1*
G1X1736300Y1691876D1*
G1X1738024Y1693600D1*
G1X1743576Y1693600D1*
G1X1745500Y1691676D1*
G1X1745500Y1688628D1*
G1X1747100Y1686989D1*
G1X1747100Y1684468D1*
G1X1743382Y1681000D1*
G1X1737724Y1681000D1*
G1X1691023Y1696199D2*
G1X1713800Y1696199D1*
G1X1690483Y1695659D2*
G1X1713800Y1695659D1*
G1X1690300Y1695119D2*
G1X1713800Y1695119D1*
G1X1690300Y1694579D2*
G1X1713800Y1694579D1*
G1X1690300Y1694039D2*
G1X1713800Y1694039D1*
G1X1690300Y1693499D2*
G1X1713800Y1693499D1*
G1X1690300Y1692959D2*
G1X1713800Y1692959D1*
G1X1690300Y1692419D2*
G1X1713800Y1692419D1*
G1X1690300Y1691879D2*
G1X1713800Y1691879D1*
G1X1696986Y1691339D2*
G1X1713800Y1691339D1*
G1X1697526Y1690799D2*
G1X1713800Y1690799D1*
G1X1698066Y1690259D2*
G1X1713800Y1690259D1*
G1X1698606Y1689719D2*
G1X1713800Y1689719D1*
G1X1699146Y1689179D2*
G1X1713800Y1689179D1*
G1X1699686Y1688639D2*
G1X1713800Y1688639D1*
G1X1691563Y1696739D2*
G1X1699737Y1696739D1*
G1X1692103Y1697279D2*
G1X1699197Y1697279D1*
G1X1692643Y1697819D2*
G1X1698657Y1697819D1*
G1X1693183Y1698359D2*
G1X1698117Y1698359D1*
G1X1693300Y1698899D2*
G1X1697577Y1698899D1*
G1X1693300Y1699439D2*
G1X1697037Y1699439D1*
G1X1693300Y1699979D2*
G1X1696497Y1699979D1*
G1X1693300Y1700519D2*
G1X1695957Y1700519D1*
G1X1693300Y1701059D2*
G1X1695417Y1701059D1*
G1X1668333Y1705359D2*
G1X1728800Y1705359D1*
G1X1668333Y1704819D2*
G1X1728800Y1704819D1*
G1X1668333Y1704279D2*
G1X1728800Y1704279D1*
G1X1681555Y1703739D2*
G1X1728800Y1703739D1*
G1X1697664Y1703199D2*
G1X1728800Y1703199D1*
G1X1698186Y1702659D2*
G1X1728800Y1702659D1*
G1X1698709Y1702119D2*
G1X1728800Y1702119D1*
G1X1699232Y1701579D2*
G1X1728800Y1701579D1*
G1X1699754Y1701039D2*
G1X1728800Y1701039D1*
G1X1700277Y1700499D2*
G1X1728800Y1700499D1*
G1X1668333Y1705899D2*
G1X1728577Y1705899D1*
G1X1668333Y1706439D2*
G1X1728037Y1706439D1*
G1X1668333Y1706979D2*
G1X1727497Y1706979D1*
G1X1668333Y1707519D2*
G1X1726957Y1707519D1*
G1X1668333Y1708059D2*
G1X1726417Y1708059D1*
G1X1668333Y1708599D2*
G1X1725877Y1708599D1*
G1X1668333Y1709139D2*
G1X1725337Y1709139D1*
G1X1682111Y1703199D2*
G1X1687274Y1703199D1*
G1X1682666Y1702659D2*
G1X1686800Y1702659D1*
G1X1683206Y1702119D2*
G1X1686800Y1702119D1*
G1X1683746Y1701579D2*
G1X1686800Y1701579D1*
G1X1684286Y1701039D2*
G1X1686800Y1701039D1*
G1X1684826Y1700499D2*
G1X1686800Y1700499D1*
G1X1685366Y1699959D2*
G1X1686800Y1699959D1*
G1X1685906Y1699419D2*
G1X1686800Y1699419D1*
G1X1686400Y1698879D2*
G1X1686800Y1698879D1*
G1X1686400Y1698339D2*
G1X1686800Y1698339D1*
G1X1686400Y1697799D2*
G1X1686800Y1697799D1*
G1X1686400Y1697259D2*
G1X1686800Y1697259D1*
G1X1686400Y1696719D2*
G1X1686800Y1696719D1*
G1X1686400Y1696179D2*
G1X1686800Y1696179D1*
G1X1686400Y1695639D2*
G1X1686800Y1695639D1*
G1X1686400Y1695099D2*
G1X1686800Y1695099D1*
G1X1686400Y1694559D2*
G1X1686800Y1694559D1*
G1X1686400Y1694019D2*
G1X1686800Y1694019D1*
G1X1686400Y1693479D2*
G1X1686800Y1693479D1*
G1X1686400Y1692939D2*
G1X1686800Y1692939D1*
G1X1668333Y1703739D2*
G1X1677568Y1703739D1*
G1X1668333Y1703199D2*
G1X1677028Y1703199D1*
G1X1668333Y1702659D2*
G1X1676488Y1702659D1*
G1X1668333Y1702119D2*
G1X1675948Y1702119D1*
G1X1668457Y1678339D2*
G1X1682900Y1678339D1*
G1X1668457Y1677799D2*
G1X1682900Y1677799D1*
G1X1668476Y1677259D2*
G1X1682900Y1677259D1*
G1X1669003Y1676719D2*
G1X1682900Y1676719D1*
G1X1669530Y1676179D2*
G1X1682900Y1676179D1*
G1X1670057Y1675639D2*
G1X1682900Y1675639D1*
G1X1668457Y1697779D2*
G1X1675188Y1697779D1*
G1X1668457Y1697239D2*
G1X1675188Y1697239D1*
G1X1668457Y1696699D2*
G1X1675188Y1696699D1*
G1X1668457Y1696159D2*
G1X1675188Y1696159D1*
G1X1668457Y1695619D2*
G1X1675027Y1695619D1*
G1X1668457Y1695079D2*
G1X1674487Y1695079D1*
G1X1668457Y1694539D2*
G1X1673947Y1694539D1*
G1X1668457Y1693999D2*
G1X1673407Y1693999D1*
G1X1668457Y1693459D2*
G1X1672867Y1693459D1*
G1X1668457Y1692919D2*
G1X1672327Y1692919D1*
G1X1668457Y1678879D2*
G1X1672240Y1678879D1*
G1X1668457Y1679419D2*
G1X1672240Y1679419D1*
G1X1668457Y1679959D2*
G1X1672240Y1679959D1*
G1X1668457Y1680499D2*
G1X1672240Y1680499D1*
G1X1668457Y1681039D2*
G1X1672240Y1681039D1*
G1X1668457Y1681579D2*
G1X1672240Y1681579D1*
G1X1668457Y1682119D2*
G1X1672240Y1682119D1*
G1X1668457Y1682659D2*
G1X1672240Y1682659D1*
G1X1668457Y1683199D2*
G1X1672240Y1683199D1*
G1X1668457Y1683739D2*
G1X1672240Y1683739D1*
G1X1668457Y1684279D2*
G1X1672240Y1684279D1*
G1X1668457Y1684819D2*
G1X1672240Y1684819D1*
G1X1668457Y1685359D2*
G1X1672240Y1685359D1*
G1X1668457Y1685899D2*
G1X1672240Y1685899D1*
G1X1668457Y1686439D2*
G1X1672240Y1686439D1*
G1X1668457Y1686979D2*
G1X1672240Y1686979D1*
G1X1668457Y1687519D2*
G1X1672240Y1687519D1*
G1X1668457Y1688059D2*
G1X1672240Y1688059D1*
G1X1668457Y1688599D2*
G1X1672240Y1688599D1*
G1X1668457Y1689139D2*
G1X1672240Y1689139D1*
G1X1668457Y1689679D2*
G1X1672240Y1689679D1*
G1X1668457Y1690219D2*
G1X1672240Y1690219D1*
G1X1668457Y1690759D2*
G1X1672240Y1690759D1*
G1X1668457Y1691299D2*
G1X1672240Y1691299D1*
G1X1668457Y1691839D2*
G1X1672240Y1691839D1*
G1X1668457Y1692379D2*
G1X1672240Y1692379D1*
G1X1681334Y1694899D2*
G1X1682900Y1694899D1*
G1X1680578Y1694359D2*
G1X1682900Y1694359D1*
G1X1676143Y1693819D2*
G1X1682900Y1693819D1*
G1X1675603Y1693279D2*
G1X1682900Y1693279D1*
G1X1675063Y1692739D2*
G1X1682900Y1692739D1*
G1X1674600Y1692199D2*
G1X1682900Y1692199D1*
G1X1674600Y1691659D2*
G1X1679534Y1691659D1*
G1X1674600Y1691119D2*
G1X1678994Y1691119D1*
G1X1674600Y1690579D2*
G1X1678454Y1690579D1*
G1X1674600Y1690039D2*
G1X1677914Y1690039D1*
G1X1718623Y1696899D2*
G1X1728800Y1696899D1*
G1X1718083Y1696359D2*
G1X1728800Y1696359D1*
G1X1717543Y1695819D2*
G1X1728800Y1695819D1*
G1X1717003Y1695279D2*
G1X1728800Y1695279D1*
G1X1716900Y1694739D2*
G1X1728800Y1694739D1*
G1X1716900Y1694199D2*
G1X1728800Y1694199D1*
G1X1716900Y1693659D2*
G1X1728800Y1693659D1*
G1X1716900Y1693119D2*
G1X1728800Y1693119D1*
G1X1716900Y1692579D2*
G1X1728800Y1692579D1*
G1X1716900Y1692039D2*
G1X1728800Y1692039D1*
G1X1716900Y1691499D2*
G1X1728800Y1691499D1*
G1X1716900Y1690959D2*
G1X1728800Y1690959D1*
G1X1716900Y1690419D2*
G1X1728800Y1690419D1*
G1X1716900Y1689879D2*
G1X1728800Y1689879D1*
G1X1716900Y1689339D2*
G1X1728800Y1689339D1*
G1X1716900Y1688799D2*
G1X1728800Y1688799D1*
G1X1716900Y1688259D2*
G1X1728800Y1688259D1*
G1X1716443Y1687719D2*
G1X1728800Y1687719D1*
G1X1715903Y1687179D2*
G1X1728800Y1687179D1*
G1X1715363Y1686639D2*
G1X1728800Y1686639D1*
G1X1714823Y1686099D2*
G1X1728800Y1686099D1*
G1X1714283Y1685559D2*
G1X1728800Y1685559D1*
G1X1713743Y1685019D2*
G1X1728800Y1685019D1*
G1X1674700Y1684479D2*
G1X1728800Y1684479D1*
G1X1674700Y1683939D2*
G1X1728800Y1683939D1*
G1X1674700Y1683399D2*
G1X1728800Y1683399D1*
G1X1678166Y1682859D2*
G1X1728800Y1682859D1*
G1X1678706Y1682319D2*
G1X1728800Y1682319D1*
G1X1679246Y1681779D2*
G1X1728800Y1681779D1*
G1X1679786Y1681239D2*
G1X1728800Y1681239D1*
G1X1690300Y1680699D2*
G1X1728800Y1680699D1*
G1X1690300Y1680159D2*
G1X1728800Y1680159D1*
G1X1690300Y1679619D2*
G1X1728800Y1679619D1*
G1X1690300Y1679079D2*
G1X1728800Y1679079D1*
G1X1690300Y1678539D2*
G1X1728800Y1678539D1*
G1X1690300Y1677999D2*
G1X1728800Y1677999D1*
G1X1690300Y1677459D2*
G1X1728800Y1677459D1*
G1X1690300Y1676919D2*
G1X1728800Y1676919D1*
G1X1690300Y1676379D2*
G1X1728754Y1676379D1*
G1X1690300Y1675839D2*
G1X1728214Y1675839D1*
G1X1690300Y1675299D2*
G1X1727674Y1675299D1*
G1X1690666Y1674759D2*
G1X1727134Y1674759D1*
G1X1691206Y1674219D2*
G1X1726594Y1674219D1*
G1X1691746Y1673679D2*
G1X1726054Y1673679D1*
G1X1692286Y1673139D2*
G1X1725514Y1673139D1*
G1X1674700Y1685019D2*
G1X1698457Y1685019D1*
G1X1674700Y1685559D2*
G1X1697917Y1685559D1*
G1X1674700Y1686099D2*
G1X1697377Y1686099D1*
G1X1674700Y1686639D2*
G1X1696837Y1686639D1*
G1X1674700Y1687179D2*
G1X1696297Y1687179D1*
G1X1674700Y1687719D2*
G1X1695757Y1687719D1*
G1X1678483Y1688259D2*
G1X1695217Y1688259D1*
G1X1679023Y1688799D2*
G1X1694677Y1688799D1*
G1X1679563Y1689339D2*
G1X1694137Y1689339D1*
G1X1688400Y1667059D2*
G1X1747300Y1667059D1*
G1X1688400Y1666519D2*
G1X1747300Y1666519D1*
G1X1688400Y1665979D2*
G1X1747300Y1665979D1*
G1X1688400Y1665439D2*
G1X1747300Y1665439D1*
G1X1688400Y1664899D2*
G1X1747300Y1664899D1*
G1X1688400Y1664359D2*
G1X1747300Y1664359D1*
G1X1688400Y1663819D2*
G1X1747300Y1663819D1*
G1X1688400Y1663279D2*
G1X1747300Y1663279D1*
G1X1688486Y1662739D2*
G1X1747300Y1662739D1*
G1X1689026Y1662199D2*
G1X1747300Y1662199D1*
G1X1689566Y1661659D2*
G1X1747300Y1661659D1*
G1X1690106Y1661119D2*
G1X1747300Y1661119D1*
G1X1690646Y1660579D2*
G1X1747300Y1660579D1*
G1X1702786Y1660039D2*
G1X1747300Y1660039D1*
G1X1703326Y1659499D2*
G1X1747300Y1659499D1*
G1X1703866Y1658959D2*
G1X1747300Y1658959D1*
G1X1704406Y1658419D2*
G1X1747300Y1658419D1*
G1X1704946Y1657879D2*
G1X1747300Y1657879D1*
G1X1705486Y1657339D2*
G1X1747300Y1657339D1*
G1X1706026Y1656799D2*
G1X1747300Y1656799D1*
G1X1706566Y1656259D2*
G1X1747300Y1656259D1*
G1X1707106Y1655719D2*
G1X1747094Y1655719D1*
G1X1688400Y1667599D2*
G1X1746877Y1667599D1*
G1X1707646Y1655179D2*
G1X1746554Y1655179D1*
G1X1688400Y1668139D2*
G1X1746337Y1668139D1*
G1X1708186Y1654639D2*
G1X1746014Y1654639D1*
G1X1688400Y1668679D2*
G1X1745797Y1668679D1*
G1X1688400Y1669219D2*
G1X1693057Y1669219D1*
G1X1688400Y1669759D2*
G1X1692517Y1669759D1*
G1X1688400Y1670299D2*
G1X1691977Y1670299D1*
G1X1688400Y1670839D2*
G1X1691437Y1670839D1*
G1X1688400Y1671379D2*
G1X1690897Y1671379D1*
G1X1688400Y1671919D2*
G1X1690357Y1671919D1*
G1X1688400Y1672459D2*
G1X1689817Y1672459D1*
G1X1688400Y1672999D2*
G1X1689277Y1672999D1*
G1X1688400Y1677859D2*
G1X1688800Y1677859D1*
G1X1688400Y1677319D2*
G1X1688800Y1677319D1*
G1X1688400Y1676779D2*
G1X1688800Y1676779D1*
G1X1688400Y1676239D2*
G1X1688800Y1676239D1*
G1X1688400Y1675699D2*
G1X1688800Y1675699D1*
G1X1688400Y1675159D2*
G1X1688800Y1675159D1*
G1X1688400Y1674619D2*
G1X1688800Y1674619D1*
G1X1688400Y1674079D2*
G1X1688800Y1674079D1*
G1X1688400Y1673539D2*
G1X1688800Y1673539D1*
G1X1734500Y1686939D2*
G1X1747100Y1686939D1*
G1X1734500Y1686399D2*
G1X1747100Y1686399D1*
G1X1734500Y1685859D2*
G1X1747100Y1685859D1*
G1X1734500Y1685319D2*
G1X1747100Y1685319D1*
G1X1734500Y1684779D2*
G1X1747100Y1684779D1*
G1X1734500Y1684239D2*
G1X1746854Y1684239D1*
G1X1734703Y1687479D2*
G1X1746622Y1687479D1*
G1X1735026Y1683699D2*
G1X1746275Y1683699D1*
G1X1735243Y1688019D2*
G1X1746095Y1688019D1*
G1X1735566Y1683159D2*
G1X1745696Y1683159D1*
G1X1735783Y1688559D2*
G1X1745568Y1688559D1*
G1X1736300Y1691259D2*
G1X1745500Y1691259D1*
G1X1736300Y1690719D2*
G1X1745500Y1690719D1*
G1X1736300Y1690179D2*
G1X1745500Y1690179D1*
G1X1736300Y1689639D2*
G1X1745500Y1689639D1*
G1X1736300Y1689099D2*
G1X1745500Y1689099D1*
G1X1736300Y1691799D2*
G1X1745377Y1691799D1*
G1X1736106Y1682619D2*
G1X1745117Y1682619D1*
G1X1736763Y1692339D2*
G1X1744837Y1692339D1*
G1X1736646Y1682079D2*
G1X1744538Y1682079D1*
G1X1737303Y1692879D2*
G1X1744297Y1692879D1*
G1X1737186Y1681539D2*
G1X1743959Y1681539D1*
G1X1737843Y1693419D2*
G1X1743757Y1693419D1*
G1X1888500Y1654000D2*
G54D165*
G1X1895648Y1654000D1*
G1X1899600Y1650048D1*
G1X1900100Y1650048D1*
G54D167*
G1X1725990Y1800030D3*
G1X1925990Y1740030D3*
G1X1925990Y1630030D3*
G1X1720990Y1610030D3*
G54D168*
G1X1866100Y1609800D3*
G1X1876100Y1609800D3*
G1X1886100Y1609800D3*
G1X1896100Y1609800D3*
G1X1906100Y1609800D3*
G1X1916100Y1609800D3*
G1X1776100Y1609800D3*
G1X1786100Y1609800D3*
G1X1796100Y1609800D3*
G1X1806100Y1609800D3*
G1X1816100Y1609800D3*
G1X1826100Y1609800D3*
G1X1836100Y1609800D3*
G1X1846100Y1609800D3*
G1X1830100Y1799800D3*
G1X1820100Y1799800D3*
G1X1810100Y1799800D3*
G1X1800100Y1799800D3*
G1X1790100Y1799800D3*
G1X1780100Y1799800D3*
G1X1770100Y1799800D3*
G1X1760100Y1799800D3*
G1X1750100Y1799800D3*
G1X1740100Y1799800D3*
G1X1916100Y1799800D3*
G1X1906100Y1799800D3*
G1X1896100Y1799800D3*
G1X1886100Y1799800D3*
G1X1876100Y1799800D3*
G1X1866100Y1799800D3*
G1X1856100Y1799800D3*
G1X1846100Y1799800D3*
G54D169*
G1X1849124Y1668532D3*
G1X1845974Y1668532D3*
G1X1842824Y1668532D3*
G1X1839675Y1668532D3*
G1X1836525Y1668532D3*
G1X1833376Y1668532D3*
G1X1830226Y1668532D3*
G1X1827076Y1668532D3*
G1X1827076Y1635068D3*
G1X1830226Y1635068D3*
G1X1833376Y1635068D3*
G1X1836525Y1635068D3*
G1X1839675Y1635068D3*
G1X1842824Y1635068D3*
G1X1845974Y1635068D3*
G1X1849124Y1635068D3*
G54D170*
G1X1821368Y1662824D3*
G1X1821368Y1659674D3*
G1X1821368Y1656524D3*
G1X1821368Y1653375D3*
G1X1821368Y1650225D3*
G1X1821368Y1647076D3*
G1X1821368Y1643926D3*
G1X1821368Y1640776D3*
G1X1854832Y1640776D3*
G1X1854832Y1643926D3*
G1X1854832Y1647076D3*
G1X1854832Y1650225D3*
G1X1854832Y1653375D3*
G1X1854832Y1656524D3*
G1X1854832Y1659674D3*
G1X1854832Y1662824D3*
G54D171*
G1X1878450Y1750800D3*
G1X1884750Y1750800D3*
G1X1888950Y1776800D3*
G1X1895250Y1776800D3*
G1X1747050Y1702200D3*
G1X1753350Y1702200D3*
G1X1834950Y1627800D3*
G1X1841250Y1627800D3*
G1X1829250Y1627800D3*
G1X1822950Y1627800D3*
G1X1841950Y1677800D3*
G1X1848250Y1677800D3*
G1X1796250Y1776800D3*
G1X1789950Y1776800D3*
G1X1798250Y1727200D3*
G1X1791950Y1727200D3*
G1X1872550Y1724900D3*
G1X1878850Y1724900D3*
G54D172*
G1X1904100Y1768950D3*
G1X1904100Y1762650D3*
G1X1894600Y1743950D3*
G1X1894600Y1737650D3*
G1X1796600Y1660650D3*
G1X1796600Y1666950D3*
G1X1752600Y1689450D3*
G1X1752600Y1683150D3*
G1X1796600Y1654450D3*
G1X1796600Y1648150D3*
G1X1832600Y1677950D3*
G1X1832600Y1684250D3*
G54D173*
G1X1804643Y1738800D3*
G1X1797557Y1738800D3*
G54D174*
G1X1740600Y1682843D3*
G1X1740600Y1675757D3*
G1X1911100Y1769343D3*
G1X1911100Y1762257D3*
G1X1911600Y1744343D3*
G1X1911600Y1737257D3*
G1X1902600Y1717343D3*
G1X1902600Y1710257D3*
G54D176*
G1X1797200Y1765800D3*
G1X1789000Y1765800D3*
G54D177*
G1X1902600Y1743950D3*
G1X1902600Y1737650D3*
G1X1803600Y1674650D3*
G1X1803600Y1680950D3*
G1X1752600Y1677950D3*
G1X1752600Y1671650D3*
G1X1902600Y1731950D3*
G1X1902600Y1725650D3*
G1X1864900Y1726550D3*
G1X1864900Y1720250D3*
G1X1889200Y1716850D3*
G1X1889200Y1710550D3*
G1X1863100Y1711450D3*
G1X1863100Y1705150D3*
G1X1826600Y1678150D3*
G1X1826600Y1684450D3*
G1X1817600Y1628150D3*
G1X1817600Y1634450D3*
G54D178*
G1X1871950Y1642300D3*
G1X1878250Y1642300D3*
G1X1770850Y1633500D3*
G1X1777150Y1633500D3*
G1X1770850Y1639500D3*
G1X1777150Y1639500D3*
G1X1798250Y1732100D3*
G1X1791950Y1732100D3*
G1X1782250Y1745800D3*
G1X1775950Y1745800D3*
G1X1922750Y1673670D3*
G1X1916450Y1673670D3*
G1X1922750Y1665670D3*
G1X1916450Y1665670D3*
G1X1922750Y1643670D3*
G1X1916450Y1643670D3*
G1X1922750Y1650170D3*
G1X1916450Y1650170D3*
G1X1871950Y1649300D3*
G1X1878250Y1649300D3*
G1X1922750Y1657670D3*
G1X1916450Y1657670D3*
G1X1871950Y1658800D3*
G1X1878250Y1658800D3*
G54D179*
G1X1725360Y1636800D3*
G1X1732840Y1636800D3*
G54D180*
G1X1710100Y1632800D3*
G54D181*
G1X1686100Y1632800D3*
G54D182*
G1X1698100Y1614296D3*
G54D183*
G1X1892226Y1634300D3*
G1X1900100Y1642174D3*
G1X1892226Y1642174D3*
G1X1900100Y1650048D3*
G1X1892226Y1650048D3*
G1X1900100Y1657922D3*
G1X1892226Y1657922D3*
G1X1900100Y1665796D3*
G1X1892226Y1665796D3*
G1X1900100Y1673670D3*
G1X1892226Y1673670D3*
G1X1900100Y1681544D3*
G1X1892226Y1681544D3*
G54D186*
G1X1876785Y1744040D3*
G1X1876785Y1740300D3*
G1X1876785Y1736560D3*
G1X1887415Y1736560D3*
G1X1887415Y1744040D3*
G1X1871385Y1718340D3*
G1X1871385Y1714600D3*
G1X1871385Y1710860D3*
G1X1882015Y1710860D3*
G1X1882015Y1718340D3*
G1X1886785Y1769540D3*
G1X1886785Y1765800D3*
G1X1886785Y1762060D3*
G1X1897415Y1762060D3*
G1X1897415Y1769540D3*
G54D187*
G1X1740740Y1702015D3*
G1X1737000Y1702015D3*
G1X1733260Y1702015D3*
G1X1733260Y1691385D3*
G1X1740740Y1691385D3*
G54D188*
G1X1787943Y1754540D3*
G1X1787943Y1750800D3*
G1X1787943Y1747060D3*
G1X1798257Y1747060D3*
G1X1798257Y1750800D3*
G1X1798257Y1754540D3*
G54D189*
G1X1714100Y1720800D3*
G1X1714100Y1725800D3*
G1X1714100Y1730800D3*
G1X1714100Y1735800D3*
G1X1714100Y1740800D3*
G1X1714100Y1745800D3*
G1X1714100Y1750800D3*
G1X1714100Y1755800D3*
G1X1714100Y1760800D3*
G1X1714100Y1765800D3*
G1X1714100Y1770800D3*
G1X1719100Y1770800D3*
G1X1719100Y1765800D3*
G1X1719100Y1760800D3*
G1X1719100Y1755800D3*
G1X1719100Y1745800D3*
G1X1719100Y1740800D3*
G1X1719100Y1735800D3*
G1X1719100Y1730800D3*
G1X1719100Y1725800D3*
G1X1719100Y1720800D3*
G1X1719100Y1750800D3*
G1X1759100Y1720800D3*
G1X1759100Y1725800D3*
G1X1759100Y1730800D3*
G1X1759100Y1735800D3*
G1X1759100Y1740800D3*
G1X1759100Y1745800D3*
G1X1759100Y1750800D3*
G1X1759100Y1755800D3*
G1X1759100Y1760800D3*
G1X1759100Y1765800D3*
G1X1759100Y1770800D3*
G1X1764100Y1720800D3*
G1X1764100Y1725800D3*
G1X1764100Y1730800D3*
G1X1764100Y1735800D3*
G1X1764100Y1740800D3*
G1X1764100Y1745800D3*
G1X1764100Y1750800D3*
G1X1764100Y1755800D3*
G1X1764100Y1760800D3*
G1X1764100Y1765800D3*
G1X1764100Y1770800D3*
G54D192*
G1X1800072Y1643540D3*
G1X1800072Y1636060D3*
G1X1809128Y1639800D3*
G54D193*
G1X1760420Y1680834D3*
G1X1760420Y1678275D3*
G1X1760420Y1675716D3*
G1X1760420Y1673157D3*
G1X1760420Y1670598D3*
G1X1760420Y1668039D3*
G1X1760420Y1665480D3*
G1X1760420Y1662920D3*
G1X1760420Y1660361D3*
G1X1760420Y1657802D3*
G1X1760420Y1655243D3*
G1X1760420Y1652684D3*
G1X1760420Y1650125D3*
G1X1760420Y1647566D3*
G1X1787980Y1647566D3*
G1X1787980Y1650125D3*
G1X1787980Y1652684D3*
G1X1787980Y1655243D3*
G1X1787980Y1657802D3*
G1X1787980Y1660361D3*
G1X1787980Y1662920D3*
G1X1787980Y1665480D3*
G1X1787980Y1668039D3*
G1X1787980Y1670598D3*
G1X1787980Y1673157D3*
G1X1787980Y1675716D3*
G1X1787980Y1678275D3*
G1X1787980Y1680834D3*
G54D194*
G1X1733100Y1614900D3*
G1X1733100Y1623700D3*
G1X1742100Y1614900D3*
G1X1742100Y1623700D3*
G1X1752100Y1614900D3*
G1X1752100Y1623700D3*
G1X1762100Y1614900D3*
G1X1762100Y1623700D3*
G1X1720850Y1636800D2*
G54D195*
G1X1725360Y1636800D1*
G1X1732840Y1636800D2*
G1X1740100Y1644060D1*
G1X1740100Y1645835D1*
G1X1719100Y1730800D2*
G1X1717350Y1730800D1*
G1X1714100Y1730800D1*
G54D201*
G1X1813100Y1674060D3*
G1X1813100Y1677800D3*
G1X1813100Y1681540D3*
G54D202*
G1X1689271Y1700200D3*
G1X1693129Y1700200D3*
G54D203*
G1X1673823Y1702895D3*
G1X1673823Y1699037D3*
G54D204*
G1X1724100Y1702206D3*
G1X1724100Y1690394D3*
G1X1696600Y1663394D3*
G1X1696600Y1675206D3*
G54D205*
G1X1670057Y1702855D3*
G1X1670057Y1699076D3*
G1X1675600Y1679910D3*
G1X1675600Y1683690D3*
G1X1675600Y1690690D3*
G1X1675600Y1686910D3*
G1X1684100Y1671690D3*
G1X1684100Y1667910D3*
G54D206*
G1X1684210Y1664300D3*
G1X1687990Y1664300D3*
G54D207*
G1X1740100Y1662765D3*
G1X1740100Y1645835D3*
G54D208*
G1X1682660Y1676750D3*
G1X1684630Y1676750D3*
G1X1686600Y1676750D3*
G1X1688570Y1676750D3*
G1X1690540Y1676750D3*
G1X1690540Y1693850D3*
G1X1688570Y1693850D3*
G1X1686600Y1693850D3*
G1X1684630Y1693850D3*
G1X1682660Y1693850D3*
G54D209*
G1X1686600Y1685300D3*
G54D210*
G1X1709100Y1691300D3*
G1X1709100Y1704300D3*
G54D211*
G1X1715600Y1661639D3*
G1X1715600Y1678961D3*
G54D212*
G1X1698411Y1795300D3*
G1X1674789Y1795300D3*
G54D213*
G1X1829600Y1701300D3*
G54D214*
G1X1829600Y1709200D3*
G1X1837500Y1701300D3*
G1X1837500Y1709200D3*
G1X1845400Y1701300D3*
G1X1845400Y1709200D3*
G1X1853274Y1701300D3*
G1X1853274Y1709174D3*
M2*
