*
*
G04 PADS VX.0 Build Number: 635560 generated Gerber (RS-274-X) file*
G04 PC Version=2.1*
*
%IN "DC2259A-2.pcb"*%
*
%MOIN*%
*
%FSLAX35Y35*%
*
*
*
*
G04 PC Standard Apertures*
*
*
G04 Thermal Relief Aperture macro.*
%AMTER*
1,1,$1,0,0*
1,0,$1-$2,0,0*
21,0,$3,$4,0,0,45*
21,0,$3,$4,0,0,135*
%
*
*
G04 Annular Aperture macro.*
%AMANN*
1,1,$1,0,0*
1,0,$2,0,0*
%
*
*
G04 Odd Aperture macro.*
%AMODD*
1,1,$1,0,0*
1,0,$1-0.005,0,0*
%
*
*
G04 PC Custom Aperture Macros*
*
*
*
*
*
*
G04 PC Aperture Table*
*
%ADD011C,0.01*%
%ADD022R,0.06X0.06*%
%ADD023C,0.06*%
%ADD036C,0.11*%
%ADD043C,0.001*%
%ADD125R,0.0337X0.03*%
%ADD135R,0.0473X0.056*%
%ADD141C,0.125*%
%ADD142C,0.12*%
%ADD143R,0.059X0.059*%
%ADD144C,0.059*%
%ADD154R,0.08465X0.08465*%
%ADD155C,0.08465*%
%ADD156R,0.05992X0.05992*%
%ADD157C,0.05984*%
%ADD158R,0.13X0.05*%
*
*
*
*
G04 PC Circuitry*
G04 Layer Name DC2259A-2.pcb - circuitry*
%LPD*%
*
*
G04 PC Custom Flashes*
G04 Layer Name DC2259A-2.pcb - flashes*
%LPD*%
*
*
G04 PC Circuitry*
G04 Layer Name DC2259A-2.pcb - circuitry*
%LPD*%
*
G54D11*
G01X1905457Y1407813D02*
Y1401250D01*
X1908184*
X1910230Y1407813D02*
Y1401250D01*
X1912275Y1407813D02*
Y1401250D01*
Y1407813D02*
X1915457Y1401250D01*
Y1407813D02*
Y1401250D01*
X1917502Y1407813D02*
Y1401250D01*
Y1407813D02*
X1920457D01*
X1917502Y1404688D02*
X1919321D01*
X1917502Y1401250D02*
X1920457D01*
X1924321Y1407813D02*
X1922502Y1401250D01*
X1924321Y1407813D02*
X1926139Y1401250D01*
X1923184Y1403438D02*
X1925457D01*
X1928184Y1407813D02*
Y1401250D01*
Y1407813D02*
X1930230D01*
X1930230D02*
X1930912Y1407500D01*
X1931139Y1407188*
X1931139D02*
X1931366Y1406563D01*
X1931366D02*
Y1405938D01*
X1931366D02*
X1931139Y1405313D01*
X1931139D02*
X1930912Y1405000D01*
X1930230Y1404688*
X1930230D02*
X1928184D01*
X1929775D02*
X1931366Y1401250D01*
X1940230Y1407813D02*
Y1401250D01*
X1938639Y1407813D02*
X1941821D01*
X1943866D02*
Y1401250D01*
Y1407813D02*
X1946821D01*
X1943866Y1404688D02*
X1945684D01*
X1943866Y1401250D02*
X1946821D01*
X1952275Y1406250D02*
X1952048Y1406875D01*
X1951593Y1407500*
X1951139Y1407813*
X1951139D02*
X1950230D01*
X1950230D02*
X1949775Y1407500D01*
X1949321Y1406875*
X1949093Y1406250*
X1948866Y1405313*
X1948866D02*
Y1403750D01*
X1949093Y1402813*
X1949093D02*
X1949321Y1402188D01*
X1949321D02*
X1949775Y1401563D01*
X1949775D02*
X1950230Y1401250D01*
X1951139*
X1951593Y1401563*
X1951593D02*
X1952048Y1402188D01*
X1952048D02*
X1952275Y1402813D01*
X1954321Y1407813D02*
Y1401250D01*
X1957502Y1407813D02*
Y1401250D01*
X1954321Y1404688D02*
X1957502D01*
X1959548Y1407813D02*
Y1401250D01*
Y1407813D02*
X1962730Y1401250D01*
Y1407813D02*
Y1401250D01*
X1966139Y1407813D02*
X1965684Y1407500D01*
X1965230Y1406875*
X1965002Y1406250*
X1964775Y1405313*
X1964775D02*
Y1403750D01*
X1965002Y1402813*
X1965002D02*
X1965230Y1402188D01*
X1965230D02*
X1965684Y1401563D01*
X1965684D02*
X1966139Y1401250D01*
X1967048*
X1967502Y1401563*
X1967502D02*
X1967957Y1402188D01*
X1967957D02*
X1968184Y1402813D01*
X1968184D02*
X1968412Y1403750D01*
Y1405313*
X1968412D02*
X1968184Y1406250D01*
X1967957Y1406875*
X1967502Y1407500*
X1967048Y1407813*
X1967048D02*
X1966139D01*
X1970457D02*
Y1401250D01*
X1973184*
X1976593Y1407813D02*
X1976139Y1407500D01*
X1975684Y1406875*
X1975457Y1406250*
X1975230Y1405313*
X1975230D02*
Y1403750D01*
X1975457Y1402813*
X1975457D02*
X1975684Y1402188D01*
X1975684D02*
X1976139Y1401563D01*
X1976139D02*
X1976593Y1401250D01*
X1977502*
X1977957Y1401563*
X1977957D02*
X1978412Y1402188D01*
X1978412D02*
X1978639Y1402813D01*
X1978639D02*
X1978866Y1403750D01*
Y1405313*
X1978866D02*
X1978639Y1406250D01*
X1978412Y1406875*
X1977957Y1407500*
X1977502Y1407813*
X1977502D02*
X1976593D01*
X1984321Y1406250D02*
X1984093Y1406875D01*
X1983639Y1407500*
X1983184Y1407813*
X1983184D02*
X1982275D01*
X1982275D02*
X1981821Y1407500D01*
X1981366Y1406875*
X1981139Y1406250*
X1980912Y1405313*
X1980912D02*
Y1403750D01*
X1981139Y1402813*
X1981139D02*
X1981366Y1402188D01*
X1981366D02*
X1981821Y1401563D01*
X1981821D02*
X1982275Y1401250D01*
X1983184*
X1983639Y1401563*
X1983639D02*
X1984093Y1402188D01*
X1984093D02*
X1984321Y1402813D01*
X1984321D02*
Y1403750D01*
X1983184D02*
X1984321D01*
X1986366Y1407813D02*
X1988184Y1404688D01*
X1988184D02*
Y1401250D01*
X1990002Y1407813D02*
X1988184Y1404688D01*
X1905457Y1393813D02*
Y1387250D01*
Y1393813D02*
X1907048D01*
X1907048D02*
X1907730Y1393500D01*
X1908184Y1392875*
X1908412Y1392250*
X1908639Y1391313*
X1908639D02*
Y1389750D01*
X1908412Y1388813*
X1908412D02*
X1908184Y1388188D01*
X1908184D02*
X1907730Y1387563D01*
X1907730D02*
X1907048Y1387250D01*
X1905457*
X1914093Y1392250D02*
X1913866Y1392875D01*
X1913412Y1393500*
X1912957Y1393813*
X1912957D02*
X1912048D01*
X1912048D02*
X1911593Y1393500D01*
X1911139Y1392875*
X1910912Y1392250*
X1910684Y1391313*
X1910684D02*
Y1389750D01*
X1910912Y1388813*
X1910912D02*
X1911139Y1388188D01*
X1911139D02*
X1911593Y1387563D01*
X1911593D02*
X1912048Y1387250D01*
X1912957*
X1913412Y1387563*
X1913412D02*
X1913866Y1388188D01*
X1913866D02*
X1914093Y1388813D01*
X1916366Y1392250D02*
Y1392563D01*
X1916366D02*
X1916593Y1393188D01*
X1916593D02*
X1916821Y1393500D01*
X1917275Y1393813*
X1917275D02*
X1918184D01*
X1918184D02*
X1918639Y1393500D01*
X1918866Y1393188*
X1918866D02*
X1919093Y1392563D01*
X1919093D02*
Y1391938D01*
X1919093D02*
X1918866Y1391313D01*
X1918866D02*
X1918412Y1390375D01*
X1916139Y1387250*
X1919321*
X1921593Y1392250D02*
Y1392563D01*
X1921593D02*
X1921821Y1393188D01*
X1921821D02*
X1922048Y1393500D01*
X1922502Y1393813*
X1922502D02*
X1923412D01*
X1923412D02*
X1923866Y1393500D01*
X1924093Y1393188*
X1924093D02*
X1924321Y1392563D01*
X1924321D02*
Y1391938D01*
X1924321D02*
X1924093Y1391313D01*
X1924093D02*
X1923639Y1390375D01*
X1921366Y1387250*
X1924548*
X1929548Y1393813D02*
X1927275D01*
X1927275D02*
X1927048Y1391000D01*
X1927275Y1391313*
X1927275D02*
X1927957Y1391625D01*
X1928639*
X1929321Y1391313*
X1929321D02*
X1929775Y1390688D01*
X1929775D02*
X1930002Y1389750D01*
X1929775Y1389125*
X1929548Y1388188*
X1929548D02*
X1929093Y1387563D01*
X1929093D02*
X1928412Y1387250D01*
X1927730*
X1927048Y1387563*
X1927048D02*
X1926821Y1387875D01*
X1926593Y1388500*
X1935002Y1391625D02*
X1934775Y1390688D01*
X1934775D02*
X1934321Y1390063D01*
X1934321D02*
X1933639Y1389750D01*
X1933412*
X1932730Y1390063*
X1932730D02*
X1932275Y1390688D01*
X1932275D02*
X1932048Y1391625D01*
Y1391938*
X1932048D02*
X1932275Y1392875D01*
X1932730Y1393500*
X1933412Y1393813*
X1933412D02*
X1933639D01*
X1933639D02*
X1934321Y1393500D01*
X1934775Y1392875*
X1935002Y1391625*
Y1390063*
X1935002D02*
X1934775Y1388500D01*
X1934321Y1387563*
X1934321D02*
X1933639Y1387250D01*
X1933184*
X1932502Y1387563*
X1932502D02*
X1932275Y1388188D01*
X1938866Y1393813D02*
X1937048Y1387250D01*
X1938866Y1393813D02*
X1940684Y1387250D01*
X1937730Y1389438D02*
X1940002D01*
X1942730Y1390063D02*
X1946821D01*
X1949093Y1392250D02*
Y1392563D01*
X1949093D02*
X1949321Y1393188D01*
X1949321D02*
X1949548Y1393500D01*
X1950002Y1393813*
X1950002D02*
X1950912D01*
X1950912D02*
X1951366Y1393500D01*
X1951593Y1393188*
X1951593D02*
X1951821Y1392563D01*
X1951821D02*
Y1391938D01*
X1951821D02*
X1951593Y1391313D01*
X1951593D02*
X1951139Y1390375D01*
X1948866Y1387250*
X1952048*
X1954093Y1390063D02*
X1958184D01*
X1970684Y1393813D02*
Y1387250D01*
X1973412*
X1977048Y1393813D02*
Y1387250D01*
X1975457Y1393813D02*
X1978639D01*
X1984093Y1392250D02*
X1983866Y1392875D01*
X1983412Y1393500*
X1982957Y1393813*
X1982957D02*
X1982048D01*
X1982048D02*
X1981593Y1393500D01*
X1981139Y1392875*
X1980912Y1392250*
X1980684Y1391313*
X1980684D02*
Y1389750D01*
X1980912Y1388813*
X1980912D02*
X1981139Y1388188D01*
X1981139D02*
X1981593Y1387563D01*
X1981593D02*
X1982048Y1387250D01*
X1982957*
X1983412Y1387563*
X1983412D02*
X1983866Y1388188D01*
X1983866D02*
X1984093Y1388813D01*
X1988866Y1392875D02*
X1988639Y1393500D01*
X1987957Y1393813*
X1987957D02*
X1987502D01*
X1987502D02*
X1986821Y1393500D01*
X1986366Y1392563*
X1986366D02*
X1986139Y1391000D01*
Y1389438*
X1986139D02*
X1986366Y1388188D01*
X1986366D02*
X1986821Y1387563D01*
X1986821D02*
X1987502Y1387250D01*
X1987730*
X1988412Y1387563*
X1988412D02*
X1988866Y1388188D01*
X1988866D02*
X1989093Y1389125D01*
Y1389438*
X1989093D02*
X1988866Y1390375D01*
X1988412Y1391000*
X1987730Y1391313*
X1987730D02*
X1987502D01*
X1987502D02*
X1986821Y1391000D01*
X1986366Y1390375*
X1986139Y1389438*
X1992275Y1393813D02*
X1991593Y1393500D01*
X1991366Y1392875*
Y1392250*
X1991593Y1391625*
X1992048Y1391313*
X1992048D02*
X1992957Y1391000D01*
X1993639Y1390688*
X1993639D02*
X1994093Y1390063D01*
X1994093D02*
X1994321Y1389438D01*
X1994321D02*
Y1388500D01*
X1994093Y1387875*
X1993866Y1387563*
X1993866D02*
X1993184Y1387250D01*
X1992275*
X1991593Y1387563*
X1991593D02*
X1991366Y1387875D01*
X1991139Y1388500*
Y1389438*
X1991139D02*
X1991366Y1390063D01*
X1991366D02*
X1991821Y1390688D01*
X1991821D02*
X1992502Y1391000D01*
X1993412Y1391313*
X1993412D02*
X1993866Y1391625D01*
X1994093Y1392250*
Y1392875*
X1993866Y1393500*
X1993184Y1393813*
X1993184D02*
X1992275D01*
X1996366Y1392563D02*
X1996821Y1392875D01*
X1997502Y1393813*
X1997502D02*
Y1387250D01*
X1999548Y1392563D02*
X2000002Y1392875D01*
X2000684Y1393813*
X2000684D02*
Y1387250D01*
X2002730Y1393813D02*
Y1387250D01*
X2008184Y1392250D02*
X2007957Y1392875D01*
X2007502Y1393500*
X2007048Y1393813*
X2007048D02*
X2006139D01*
X2006139D02*
X2005684Y1393500D01*
X2005230Y1392875*
X2005002Y1392250*
X2004775Y1391313*
X2004775D02*
Y1389750D01*
X2005002Y1388813*
X2005002D02*
X2005230Y1388188D01*
X2005230D02*
X2005684Y1387563D01*
X2005684D02*
X2006139Y1387250D01*
X2007048*
X2007502Y1387563*
X2007502D02*
X2007957Y1388188D01*
X2007957D02*
X2008184Y1388813D01*
X2008184D02*
Y1389750D01*
X2007048D02*
X2008184D01*
X2010230Y1390063D02*
X2014321D01*
X2016366Y1392563D02*
X2016821Y1392875D01*
X2017502Y1393813*
X2017502D02*
Y1387250D01*
X2006457Y1409813D02*
Y1403250D01*
Y1409813D02*
X2008048D01*
X2008048D02*
X2008730Y1409500D01*
X2009184Y1408875*
X2009412Y1408250*
X2009639Y1407313*
X2009639D02*
Y1405750D01*
X2009412Y1404813*
X2009412D02*
X2009184Y1404188D01*
X2009184D02*
X2008730Y1403563D01*
X2008730D02*
X2008048Y1403250D01*
X2006457*
X2013502Y1409813D02*
X2011684Y1403250D01*
X2013502Y1409813D02*
X2015321Y1403250D01*
X2012366Y1405438D02*
X2014639D01*
X2018957Y1409813D02*
Y1403250D01*
X2017366Y1409813D02*
X2020548D01*
X2022593D02*
Y1403250D01*
Y1409813D02*
X2025548D01*
X2022593Y1406688D02*
X2024412D01*
X2022593Y1403250D02*
X2025548D01*
X2027821Y1407625D02*
X2027593Y1407313D01*
X2027593D02*
X2027821Y1407000D01*
X2028048Y1407313*
X2028048D02*
X2027821Y1407625D01*
Y1403875D02*
X2027593Y1403563D01*
X2027593D02*
X2027821Y1403250D01*
X2028048Y1403563*
X2028048D02*
X2027821Y1403875D01*
X2036684Y1409813D02*
X2036002Y1409500D01*
X2035548Y1408563*
X2035548D02*
X2035321Y1407000D01*
Y1406063*
X2035321D02*
X2035548Y1404500D01*
X2036002Y1403563*
X2036002D02*
X2036684Y1403250D01*
X2037139*
X2037821Y1403563*
X2037821D02*
X2038275Y1404500D01*
X2038502Y1406063*
X2038502D02*
Y1407000D01*
X2038275Y1408563*
X2038275D02*
X2037821Y1409500D01*
X2037139Y1409813*
X2037139D02*
X2036684D01*
X2043275Y1408875D02*
X2043048Y1409500D01*
X2042366Y1409813*
X2042366D02*
X2041912D01*
X2041912D02*
X2041230Y1409500D01*
X2040775Y1408563*
X2040775D02*
X2040548Y1407000D01*
Y1405438*
X2040548D02*
X2040775Y1404188D01*
X2040775D02*
X2041230Y1403563D01*
X2041230D02*
X2041912Y1403250D01*
X2042139*
X2042821Y1403563*
X2042821D02*
X2043275Y1404188D01*
X2043275D02*
X2043502Y1405125D01*
Y1405438*
X2043502D02*
X2043275Y1406375D01*
X2042821Y1407000*
X2042139Y1407313*
X2042139D02*
X2041912D01*
X2041912D02*
X2041230Y1407000D01*
X2040775Y1406375*
X2040548Y1405438*
X2045548Y1406063D02*
X2049639D01*
X2051684Y1408563D02*
X2052139Y1408875D01*
X2052821Y1409813*
X2052821D02*
Y1403250D01*
X2057821Y1409813D02*
X2055548D01*
X2055548D02*
X2055321Y1407000D01*
X2055548Y1407313*
X2055548D02*
X2056230Y1407625D01*
X2056912*
X2057593Y1407313*
X2057593D02*
X2058048Y1406688D01*
X2058048D02*
X2058275Y1405750D01*
X2058048Y1405125*
X2057821Y1404188*
X2057821D02*
X2057366Y1403563D01*
X2057366D02*
X2056684Y1403250D01*
X2056002*
X2055321Y1403563*
X2055321D02*
X2055093Y1403875D01*
X2054866Y1404500*
X2060321Y1406063D02*
X2064412D01*
X2066457Y1408563D02*
X2066912Y1408875D01*
X2067593Y1409813*
X2067593D02*
Y1403250D01*
X2072593Y1409813D02*
X2070321D01*
X2070321D02*
X2070093Y1407000D01*
X2070321Y1407313*
X2070321D02*
X2071002Y1407625D01*
X2071684*
X2072366Y1407313*
X2072366D02*
X2072821Y1406688D01*
X2072821D02*
X2073048Y1405750D01*
X2072821Y1405125*
X2072593Y1404188*
X2072593D02*
X2072139Y1403563D01*
X2072139D02*
X2071457Y1403250D01*
X2070775*
X2070093Y1403563*
X2070093D02*
X2069866Y1403875D01*
X2069639Y1404500*
X1905457Y1379813D02*
X1905684Y1379500D01*
X1905912Y1379813*
X1905912D02*
X1905684Y1380125D01*
X1905457Y1379813*
X1905684Y1377625D02*
Y1373250D01*
X1910457Y1376688D02*
X1910230Y1377313D01*
X1910230D02*
X1909548Y1377625D01*
X1908866*
X1908184Y1377313*
X1908184D02*
X1907957Y1376688D01*
X1907957D02*
X1908184Y1376063D01*
X1908184D02*
X1908639Y1375750D01*
X1909775Y1375438*
X1909775D02*
X1910230Y1375125D01*
X1910457Y1374500*
Y1374188*
X1910457D02*
X1910230Y1373563D01*
X1910230D02*
X1909548Y1373250D01*
X1908866*
X1908184Y1373563*
X1908184D02*
X1907957Y1374188D01*
X1913639Y1377625D02*
X1913184Y1377313D01*
X1913184D02*
X1912730Y1376688D01*
X1912730D02*
X1912502Y1375750D01*
Y1375125*
X1912730Y1374188*
X1912730D02*
X1913184Y1373563D01*
X1913184D02*
X1913639Y1373250D01*
X1914321*
X1914775Y1373563*
X1914775D02*
X1915230Y1374188D01*
X1915230D02*
X1915457Y1375125D01*
Y1375750*
X1915230Y1376688*
X1915230D02*
X1914775Y1377313D01*
X1914775D02*
X1914321Y1377625D01*
X1913639*
X1920684Y1378875D02*
X1920230Y1379500D01*
X1919548Y1379813*
X1919548D02*
X1918639D01*
X1918639D02*
X1917957Y1379500D01*
X1917502Y1378875*
Y1378250*
X1917730Y1377625*
X1917957Y1377313*
X1917957D02*
X1918412Y1377000D01*
X1919775Y1376375*
X1920230Y1376063*
X1920230D02*
X1920457Y1375750D01*
X1920684Y1375125*
Y1374188*
X1920684D02*
X1920230Y1373563D01*
X1920230D02*
X1919548Y1373250D01*
X1918639*
X1917957Y1373563*
X1917957D02*
X1917502Y1374188D01*
X1922730Y1379813D02*
Y1373250D01*
Y1379813D02*
X1924775D01*
X1924775D02*
X1925457Y1379500D01*
X1925684Y1379188*
X1925684D02*
X1925912Y1378563D01*
X1925912D02*
Y1377625D01*
X1925684Y1377000*
X1925457Y1376688*
X1925457D02*
X1924775Y1376375D01*
X1922730*
X1927957Y1379813D02*
Y1373250D01*
X1935230Y1378563D02*
X1935684Y1378875D01*
X1936366Y1379813*
X1936366D02*
Y1373250D01*
X1938639Y1378250D02*
Y1378563D01*
X1938639D02*
X1938866Y1379188D01*
X1938866D02*
X1939093Y1379500D01*
X1939548Y1379813*
X1939548D02*
X1940457D01*
X1940457D02*
X1940912Y1379500D01*
X1941139Y1379188*
X1941139D02*
X1941366Y1378563D01*
X1941366D02*
Y1377938D01*
X1941366D02*
X1941139Y1377313D01*
X1941139D02*
X1940684Y1376375D01*
X1938412Y1373250*
X1941593*
X1943639Y1376063D02*
X1947730D01*
X1953184Y1378250D02*
X1952957Y1378875D01*
X1952502Y1379500*
X1952048Y1379813*
X1952048D02*
X1951139D01*
X1951139D02*
X1950684Y1379500D01*
X1950230Y1378875*
X1950002Y1378250*
X1949775Y1377313*
X1949775D02*
Y1375750D01*
X1950002Y1374813*
X1950002D02*
X1950230Y1374188D01*
X1950230D02*
X1950684Y1373563D01*
X1950684D02*
X1951139Y1373250D01*
X1952048*
X1952502Y1373563*
X1952502D02*
X1952957Y1374188D01*
X1952957D02*
X1953184Y1374813D01*
X1955230Y1379813D02*
Y1373250D01*
Y1379813D02*
X1958184D01*
X1955230Y1376688D02*
X1957048D01*
X1955230Y1373250D02*
X1958184D01*
X1960230Y1379813D02*
Y1373250D01*
X1962957*
X1965002Y1379813D02*
Y1373250D01*
X1967730*
X1975002Y1379813D02*
Y1373250D01*
Y1379813D02*
X1977048D01*
X1977048D02*
X1977730Y1379500D01*
X1977957Y1379188*
X1977957D02*
X1978184Y1378563D01*
X1978184D02*
Y1377938D01*
X1978184D02*
X1977957Y1377313D01*
X1977957D02*
X1977730Y1377000D01*
X1977048Y1376688*
X1975002D02*
X1977048D01*
X1977048D02*
X1977730Y1376375D01*
X1977957Y1376063*
X1977957D02*
X1978184Y1375438D01*
X1978184D02*
Y1374500D01*
X1977957Y1373875*
X1977730Y1373563*
X1977730D02*
X1977048Y1373250D01*
X1975002*
X1982048Y1379813D02*
X1980230Y1373250D01*
X1982048Y1379813D02*
X1983866Y1373250D01*
X1980912Y1375438D02*
X1983184D01*
X1987502Y1379813D02*
Y1373250D01*
X1985912Y1379813D02*
X1989093D01*
X1992730D02*
Y1373250D01*
X1991139Y1379813D02*
X1994321D01*
X1996366D02*
Y1373250D01*
Y1379813D02*
X1999321D01*
X1996366Y1376688D02*
X1998184D01*
X1996366Y1373250D02*
X1999321D01*
X2001366Y1379813D02*
Y1373250D01*
Y1379813D02*
X2003412D01*
X2003412D02*
X2004093Y1379500D01*
X2004321Y1379188*
X2004321D02*
X2004548Y1378563D01*
X2004548D02*
Y1377938D01*
X2004548D02*
X2004321Y1377313D01*
X2004321D02*
X2004093Y1377000D01*
X2003412Y1376688*
X2003412D02*
X2001366D01*
X2002957D02*
X2004548Y1373250D01*
X2006593Y1379813D02*
X2008412Y1376688D01*
X2008412D02*
Y1373250D01*
X2010230Y1379813D02*
X2008412Y1376688D01*
X2012275Y1376063D02*
X2016366D01*
X2021593Y1378875D02*
X2021139Y1379500D01*
X2020457Y1379813*
X2020457D02*
X2019548D01*
X2019548D02*
X2018866Y1379500D01*
X2018412Y1378875*
Y1378250*
X2018639Y1377625*
X2018866Y1377313*
X2018866D02*
X2019321Y1377000D01*
X2020684Y1376375*
X2021139Y1376063*
X2021139D02*
X2021366Y1375750D01*
X2021593Y1375125*
Y1374188*
X2021593D02*
X2021139Y1373563D01*
X2021139D02*
X2020457Y1373250D01*
X2019548*
X2018866Y1373563*
X2018866D02*
X2018412Y1374188D01*
X2025230Y1379813D02*
Y1373250D01*
X2023639Y1379813D02*
X2026821D01*
X2030684D02*
X2028866Y1373250D01*
X2030684Y1379813D02*
X2032502Y1373250D01*
X2029548Y1375438D02*
X2031821D01*
X2037957Y1378250D02*
X2037730Y1378875D01*
X2037275Y1379500*
X2036821Y1379813*
X2036821D02*
X2035912D01*
X2035912D02*
X2035457Y1379500D01*
X2035002Y1378875*
X2034775Y1378250*
X2034548Y1377313*
X2034548D02*
Y1375750D01*
X2034775Y1374813*
X2034775D02*
X2035002Y1374188D01*
X2035002D02*
X2035457Y1373563D01*
X2035457D02*
X2035912Y1373250D01*
X2036821*
X2037275Y1373563*
X2037275D02*
X2037730Y1374188D01*
X2037730D02*
X2037957Y1374813D01*
X2040002Y1379813D02*
Y1373250D01*
X2043184Y1379813D02*
X2040002Y1375438D01*
X2041139Y1377000D02*
X2043184Y1373250D01*
X2050457Y1379813D02*
Y1373250D01*
Y1379813D02*
X2052275Y1373250D01*
X2054093Y1379813D02*
X2052275Y1373250D01*
X2054093Y1379813D02*
Y1373250D01*
X2057502Y1379813D02*
X2057048Y1379500D01*
X2056593Y1378875*
X2056366Y1378250*
X2056139Y1377313*
X2056139D02*
Y1375750D01*
X2056366Y1374813*
X2056366D02*
X2056593Y1374188D01*
X2056593D02*
X2057048Y1373563D01*
X2057048D02*
X2057502Y1373250D01*
X2058412*
X2058866Y1373563*
X2058866D02*
X2059321Y1374188D01*
X2059321D02*
X2059548Y1374813D01*
X2059548D02*
X2059775Y1375750D01*
Y1377313*
X2059775D02*
X2059548Y1378250D01*
X2059321Y1378875*
X2058866Y1379500*
X2058412Y1379813*
X2058412D02*
X2057502D01*
X2061821D02*
Y1373250D01*
Y1379813D02*
X2065002Y1373250D01*
Y1379813D02*
Y1373250D01*
X2067048Y1379813D02*
Y1373250D01*
X2070684Y1379813D02*
Y1373250D01*
X2069093Y1379813D02*
X2072275D01*
X2075684D02*
X2075230Y1379500D01*
X2074775Y1378875*
X2074548Y1378250*
X2074321Y1377313*
X2074321D02*
Y1375750D01*
X2074548Y1374813*
X2074548D02*
X2074775Y1374188D01*
X2074775D02*
X2075230Y1373563D01*
X2075230D02*
X2075684Y1373250D01*
X2076593*
X2077048Y1373563*
X2077048D02*
X2077502Y1374188D01*
X2077502D02*
X2077730Y1374813D01*
X2077730D02*
X2077957Y1375750D01*
Y1377313*
X2077957D02*
X2077730Y1378250D01*
X2077502Y1378875*
X2077048Y1379500*
X2076593Y1379813*
X2076593D02*
X2075684D01*
X2080002D02*
Y1373250D01*
Y1379813D02*
X2082048D01*
X2082048D02*
X2082730Y1379500D01*
X2082957Y1379188*
X2082957D02*
X2083184Y1378563D01*
X2083184D02*
Y1377938D01*
X2083184D02*
X2082957Y1377313D01*
X2082957D02*
X2082730Y1377000D01*
X2082048Y1376688*
X2082048D02*
X2080002D01*
X2081593D02*
X2083184Y1373250D01*
X1909457Y1425813D02*
Y1419250D01*
Y1425813D02*
X1911502D01*
X1911502D02*
X1912184Y1425500D01*
X1912412Y1425188*
X1912412D02*
X1912639Y1424563D01*
X1912639D02*
Y1423938D01*
X1912639D02*
X1912412Y1423313D01*
X1912412D02*
X1912184Y1423000D01*
X1911502Y1422688*
X1909457D02*
X1911502D01*
X1911502D02*
X1912184Y1422375D01*
X1912412Y1422063*
X1912412D02*
X1912639Y1421438D01*
X1912639D02*
Y1420500D01*
X1912412Y1419875*
X1912184Y1419563*
X1912184D02*
X1911502Y1419250D01*
X1909457*
X1916048Y1425813D02*
X1915593Y1425500D01*
X1915139Y1424875*
X1914912Y1424250*
X1914684Y1423313*
X1914684D02*
Y1421750D01*
X1914912Y1420813*
X1914912D02*
X1915139Y1420188D01*
X1915139D02*
X1915593Y1419563D01*
X1915593D02*
X1916048Y1419250D01*
X1916957*
X1917412Y1419563*
X1917412D02*
X1917866Y1420188D01*
X1917866D02*
X1918093Y1420813D01*
X1918093D02*
X1918321Y1421750D01*
Y1423313*
X1918321D02*
X1918093Y1424250D01*
X1917866Y1424875*
X1917412Y1425500*
X1916957Y1425813*
X1916957D02*
X1916048D01*
X1921957D02*
Y1419250D01*
X1920366Y1425813D02*
X1923548D01*
X1927184D02*
Y1419250D01*
X1925593Y1425813D02*
X1928775D01*
X1932184D02*
X1931730Y1425500D01*
X1931275Y1424875*
X1931048Y1424250*
X1930821Y1423313*
X1930821D02*
Y1421750D01*
X1931048Y1420813*
X1931048D02*
X1931275Y1420188D01*
X1931275D02*
X1931730Y1419563D01*
X1931730D02*
X1932184Y1419250D01*
X1933093*
X1933548Y1419563*
X1933548D02*
X1934002Y1420188D01*
X1934002D02*
X1934230Y1420813D01*
X1934230D02*
X1934457Y1421750D01*
Y1423313*
X1934457D02*
X1934230Y1424250D01*
X1934002Y1424875*
X1933548Y1425500*
X1933093Y1425813*
X1933093D02*
X1932184D01*
X1936502D02*
Y1419250D01*
Y1425813D02*
X1938321Y1419250D01*
X1940139Y1425813D02*
X1938321Y1419250D01*
X1940139Y1425813D02*
Y1419250D01*
X1950593Y1424875D02*
X1950139Y1425500D01*
X1949457Y1425813*
X1949457D02*
X1948548D01*
X1948548D02*
X1947866Y1425500D01*
X1947412Y1424875*
Y1424250*
X1947639Y1423625*
X1947866Y1423313*
X1947866D02*
X1948321Y1423000D01*
X1949684Y1422375*
X1950139Y1422063*
X1950139D02*
X1950366Y1421750D01*
X1950593Y1421125*
Y1420188*
X1950593D02*
X1950139Y1419563D01*
X1950139D02*
X1949457Y1419250D01*
X1948548*
X1947866Y1419563*
X1947866D02*
X1947412Y1420188D01*
X1954002Y1425813D02*
X1953548Y1425500D01*
X1953093Y1424875*
X1952866Y1424250*
X1952639Y1423313*
X1952639D02*
Y1421750D01*
X1952866Y1420813*
X1952866D02*
X1953093Y1420188D01*
X1953093D02*
X1953548Y1419563D01*
X1953548D02*
X1954002Y1419250D01*
X1954912*
X1955366Y1419563*
X1955366D02*
X1955821Y1420188D01*
X1955821D02*
X1956048Y1420813D01*
X1956048D02*
X1956275Y1421750D01*
Y1423313*
X1956275D02*
X1956048Y1424250D01*
X1955821Y1424875*
X1955366Y1425500*
X1954912Y1425813*
X1954912D02*
X1954002D01*
X1958321D02*
Y1419250D01*
X1961048*
X1963093Y1425813D02*
Y1419250D01*
Y1425813D02*
X1964684D01*
X1964684D02*
X1965366Y1425500D01*
X1965821Y1424875*
X1966048Y1424250*
X1966275Y1423313*
X1966275D02*
Y1421750D01*
X1966048Y1420813*
X1966048D02*
X1965821Y1420188D01*
X1965821D02*
X1965366Y1419563D01*
X1965366D02*
X1964684Y1419250D01*
X1963093*
X1968321Y1425813D02*
Y1419250D01*
Y1425813D02*
X1971275D01*
X1968321Y1422688D02*
X1970139D01*
X1968321Y1419250D02*
X1971275D01*
X1973321Y1425813D02*
Y1419250D01*
Y1425813D02*
X1975366D01*
X1975366D02*
X1976048Y1425500D01*
X1976275Y1425188*
X1976275D02*
X1976502Y1424563D01*
X1976502D02*
Y1423938D01*
X1976502D02*
X1976275Y1423313D01*
X1976275D02*
X1976048Y1423000D01*
X1975366Y1422688*
X1975366D02*
X1973321D01*
X1974912D02*
X1976502Y1419250D01*
X1983775Y1425813D02*
Y1419250D01*
Y1425813D02*
X1985593Y1419250D01*
X1987412Y1425813D02*
X1985593Y1419250D01*
X1987412Y1425813D02*
Y1419250D01*
X1991275Y1425813D02*
X1989457Y1419250D01*
X1991275Y1425813D02*
X1993093Y1419250D01*
X1990139Y1421438D02*
X1992412D01*
X1998321Y1424875D02*
X1997866Y1425500D01*
X1997184Y1425813*
X1997184D02*
X1996275D01*
X1996275D02*
X1995593Y1425500D01*
X1995139Y1424875*
Y1424250*
X1995366Y1423625*
X1995593Y1423313*
X1995593D02*
X1996048Y1423000D01*
X1997412Y1422375*
X1997866Y1422063*
X1997866D02*
X1998093Y1421750D01*
X1998321Y1421125*
Y1420188*
X1998321D02*
X1997866Y1419563D01*
X1997866D02*
X1997184Y1419250D01*
X1996275*
X1995593Y1419563*
X1995593D02*
X1995139Y1420188D01*
X2000366Y1425813D02*
Y1419250D01*
X2003548Y1425813D02*
X2000366Y1421438D01*
X2001502Y1423000D02*
X2003548Y1419250D01*
X1847456Y1483235D02*
G75*
G03X1867157Y1460249I21344J-1642D01*
G01X1867142Y1460250D02*
X2132890D01*
X2132898D02*
G03X2152575Y1482258I-1165J20843D01*
G01Y1482250D02*
Y1783376D01*
Y1783367D02*
G03X2132899Y1803250I-19779J103D01*
G01X2132890D02*
X2109268D01*
Y1826750*
X1890764*
Y1803250*
X1867142*
X1867133D02*
G03X1847457Y1783367I104J-19780D01*
G01Y1783376D02*
Y1483250D01*
G54D22*
X2093457Y1498250D03*
X2010457D03*
G54D23*
X2098457Y1508250D03*
X2103457Y1498250D03*
X2108457Y1508250D03*
X2113457Y1498250D03*
X2118457Y1508250D03*
X2123457Y1498250D03*
X2128457Y1508250D03*
X2015457D03*
X2020457Y1498250D03*
X2025457Y1508250D03*
X2030457Y1498250D03*
X2035457Y1508250D03*
X2040457Y1498250D03*
X2045457Y1508250D03*
G54D36*
X1897457Y1555750D03*
X1948457Y1625250D03*
X1897457Y1614250D03*
X1949457Y1667250D03*
X1969957Y1585250D03*
X1936457D03*
X1897457D03*
X1935957Y1555750D03*
G54D43*
G54D125*
X2002777Y1661250D03*
X1996137D03*
X1998777Y1651250D03*
X1992137D03*
X2023777Y1648250D03*
X2017137D03*
X2023777Y1640750D03*
X2017137D03*
X2023777Y1654250D03*
X2017137D03*
G54D135*
X1904457Y1704950D03*
Y1695550D03*
X2081457Y1704950D03*
Y1695550D03*
X2101457Y1704950D03*
Y1695550D03*
X2120457Y1704950D03*
Y1695550D03*
X1924457Y1704950D03*
Y1695550D03*
X1944457Y1704950D03*
Y1695550D03*
X1964457Y1704950D03*
Y1695550D03*
X1983457Y1704950D03*
Y1695550D03*
X2003457Y1704950D03*
Y1695550D03*
X2022457Y1704950D03*
Y1695550D03*
X2042457Y1704950D03*
Y1695550D03*
X2062457Y1704950D03*
Y1695550D03*
G54D141*
X2088457Y1473250D03*
X2133457D03*
X2005457D03*
X2050457D03*
G54D142*
X2080457Y1485250D03*
X2141457D03*
X1997457D03*
X2058457D03*
G54D143*
X1871079Y1590463D03*
Y1698250D03*
G54D144*
X1863179Y1590463D03*
X1871079Y1598363D03*
X1863179D03*
X1871079Y1606263D03*
X1863179D03*
X1871079Y1614163D03*
X1863179D03*
X1871079Y1622063D03*
X1863179D03*
X1871079Y1629963D03*
X1863179D03*
X1871079Y1637863D03*
X1863179D03*
Y1698250D03*
X1871079Y1706150D03*
X1863179D03*
X1871079Y1714050D03*
X1863179D03*
X1871079Y1721950D03*
X1863179D03*
X1871079Y1729850D03*
X1863179D03*
X1871079Y1737750D03*
X1863179D03*
X1871079Y1745650D03*
X1863179D03*
G54D154*
X1896670Y1791250D03*
G54D155*
X1910449D03*
X1924229D03*
X1938008D03*
X1951788D03*
X1965567D03*
X1979347D03*
X1993126D03*
X2006906D03*
X2020685D03*
X2034465D03*
X2048244D03*
X2062024D03*
X2075803D03*
X2089583D03*
X2103363D03*
G54D156*
X1915457Y1614376D03*
X1987457D03*
X2005957D03*
X2023457D03*
G54D157*
X1915457Y1622250D03*
Y1630124D03*
X1987457Y1622250D03*
Y1630124D03*
X2005957Y1622250D03*
Y1630124D03*
X2023457Y1622250D03*
Y1630124D03*
G54D158*
X1896457Y1758750D03*
Y1733750D03*
X1916552Y1758750D03*
Y1733750D03*
X1936237Y1758750D03*
Y1733750D03*
X1955922Y1758750D03*
Y1733750D03*
X1975607Y1758750D03*
Y1733750D03*
X1995292Y1758750D03*
Y1733750D03*
X2014977Y1758750D03*
Y1733750D03*
X2034662Y1758750D03*
Y1733750D03*
X2054150Y1758750D03*
Y1733750D03*
X2074032Y1758750D03*
Y1733750D03*
X2093717Y1758750D03*
Y1733750D03*
X2113402Y1758750D03*
Y1733750D03*
G74*
X0Y0D02*
M02*
