*
*
G04 PADS VX.0 Build Number: 635560 generated Gerber (RS-274-X) file*
G04 PC Version=2.1*
*
%IN "DC2259A-2.pcb"*%
*
%MOIN*%
*
%FSLAX35Y35*%
*
*
*
*
G04 PC Standard Apertures*
*
*
G04 Thermal Relief Aperture macro.*
%AMTER*
1,1,$1,0,0*
1,0,$1-$2,0,0*
21,0,$3,$4,0,0,45*
21,0,$3,$4,0,0,135*
%
*
*
G04 Annular Aperture macro.*
%AMANN*
1,1,$1,0,0*
1,0,$2,0,0*
%
*
*
G04 Odd Aperture macro.*
%AMODD*
1,1,$1,0,0*
1,0,$1-0.005,0,0*
%
*
*
G04 PC Custom Aperture Macros*
*
*
*
*
*
*
G04 PC Aperture Table*
*
%ADD011C,0.01*%
%ADD012C,0.008*%
%ADD013C,0.009*%
%ADD043C,0.001*%
%ADD123C,0.00787*%
%ADD124C,0.01181*%
%ADD166C,0.00787*%
*
*
*
*
G04 PC Circuitry*
G04 Layer Name DC2259A-2.pcb - circuitry*
%LPD*%
*
*
G04 PC Custom Flashes*
G04 Layer Name DC2259A-2.pcb - flashes*
%LPD*%
*
*
G04 PC Circuitry*
G04 Layer Name DC2259A-2.pcb - circuitry*
%LPD*%
*
G54D11*
G01X1903108Y1766250D02*
X1898457D01*
X1903108D02*
Y1767700D01*
X1902886Y1768183*
X1902665Y1768344*
X1902222Y1768505*
X1901779*
X1901336Y1768344*
X1901115Y1768183*
X1901115D02*
X1900893Y1767700D01*
Y1766250*
Y1767377D02*
X1898457Y1768505D01*
X1903108Y1770276D02*
Y1772048D01*
X1901336Y1771082*
Y1771565*
X1901115Y1771887*
X1901115D02*
X1900893Y1772048D01*
X1900229Y1772209*
X1899786*
X1899121Y1772048*
X1898678Y1771726*
X1898457Y1771243*
Y1770760*
X1898678Y1770276*
X1898900Y1770115*
X1899343Y1769954*
X1903108Y1775914D02*
X1898457Y1774303D01*
X1903108Y1773659D02*
Y1775914D01*
X1923108Y1766250D02*
X1918457D01*
X1923108D02*
Y1767700D01*
X1922886Y1768183*
X1922665Y1768344*
X1922222Y1768505*
X1921779*
X1921336Y1768344*
X1921115Y1768183*
X1921115D02*
X1920893Y1767700D01*
Y1766250*
Y1767377D02*
X1918457Y1768505D01*
X1923108Y1770276D02*
Y1772048D01*
X1921336Y1771082*
Y1771565*
X1921115Y1771887*
X1921115D02*
X1920893Y1772048D01*
X1920229Y1772209*
X1919786*
X1919121Y1772048*
X1918678Y1771726*
X1918457Y1771243*
Y1770760*
X1918678Y1770276*
X1918900Y1770115*
X1919343Y1769954*
X1923108Y1774464D02*
X1922886Y1773981D01*
X1922443Y1773820*
X1922000*
X1921557Y1773981*
X1921336Y1774303*
X1921115Y1774947*
X1921115D02*
X1920893Y1775430D01*
X1920450Y1775753*
X1920007Y1775914*
X1919343*
X1918900Y1775753*
X1918678Y1775591*
X1918457Y1775108*
Y1774464*
X1918678Y1773981*
X1918900Y1773820*
X1919343Y1773659*
X1920007*
X1920450Y1773820*
X1920893Y1774142*
X1921115Y1774625*
X1921115D02*
X1921336Y1775269D01*
X1921557Y1775591*
X1922000Y1775753*
X1922443*
X1922886Y1775591*
X1923108Y1775108*
Y1774464*
X1942108Y1766250D02*
X1937457D01*
X1942108D02*
Y1767700D01*
X1941886Y1768183*
X1941665Y1768344*
X1941222Y1768505*
X1940779*
X1940336Y1768344*
X1940115Y1768183*
X1940115D02*
X1939893Y1767700D01*
Y1766250*
Y1767377D02*
X1937457Y1768505D01*
X1942108Y1770276D02*
Y1772048D01*
X1940336Y1771082*
Y1771565*
X1940115Y1771887*
X1940115D02*
X1939893Y1772048D01*
X1939229Y1772209*
X1938786*
X1938121Y1772048*
X1937678Y1771726*
X1937457Y1771243*
Y1770760*
X1937678Y1770276*
X1937900Y1770115*
X1938343Y1769954*
X1940557Y1775753D02*
X1939893Y1775591D01*
X1939450Y1775269*
X1939229Y1774786*
Y1774625*
X1939450Y1774142*
X1939893Y1773820*
X1940557Y1773659*
X1940779*
X1941443Y1773820*
X1941886Y1774142*
X1942108Y1774625*
Y1774786*
X1941886Y1775269*
X1941443Y1775591*
X1940557Y1775753*
X1939450*
X1938343Y1775591*
X1937678Y1775269*
X1937457Y1774786*
Y1774464*
X1937678Y1773981*
X1938121Y1773820*
X1962108Y1766250D02*
X1957457D01*
X1962108D02*
Y1767700D01*
X1961886Y1768183*
X1961665Y1768344*
X1961222Y1768505*
X1960779*
X1960336Y1768344*
X1960115Y1768183*
X1960115D02*
X1959893Y1767700D01*
Y1766250*
Y1767377D02*
X1957457Y1768505D01*
X1962108Y1771565D02*
X1959007Y1769954D01*
Y1772370*
X1962108Y1771565D02*
X1957457D01*
X1962108Y1774786D02*
X1961886Y1774303D01*
X1961222Y1773981*
X1960115Y1773820*
X1960115D02*
X1959450D01*
X1958343Y1773981*
X1957678Y1774303*
X1957457Y1774786*
Y1775108*
X1957678Y1775591*
X1958343Y1775914*
X1959450Y1776075*
X1960115*
X1960115D02*
X1961222Y1775914D01*
X1961886Y1775591*
X1962108Y1775108*
Y1774786*
X1982108Y1766250D02*
X1977457D01*
X1982108D02*
Y1767700D01*
X1981886Y1768183*
X1981665Y1768344*
X1981222Y1768505*
X1980779*
X1980336Y1768344*
X1980115Y1768183*
X1980115D02*
X1979893Y1767700D01*
Y1766250*
Y1767377D02*
X1977457Y1768505D01*
X1982108Y1771565D02*
X1979007Y1769954D01*
Y1772370*
X1982108Y1771565D02*
X1977457D01*
X1981222Y1773820D02*
X1981443Y1774142D01*
X1982108Y1774625*
X1977457*
X2001108Y1766250D02*
X1996457D01*
X2001108D02*
Y1767700D01*
X2000886Y1768183*
X2000665Y1768344*
X2000222Y1768505*
X1999779*
X1999336Y1768344*
X1999115Y1768183*
X1999115D02*
X1998893Y1767700D01*
Y1766250*
Y1767377D02*
X1996457Y1768505D01*
X2001108Y1771565D02*
X1998007Y1769954D01*
Y1772370*
X2001108Y1771565D02*
X1996457D01*
X2000000Y1773981D02*
X2000222D01*
X2000665Y1774142*
X2000886Y1774303*
X2001108Y1774625*
Y1775269*
X2000886Y1775591*
X2000665Y1775753*
X2000222Y1775914*
X1999779*
X1999336Y1775753*
X1998672Y1775430*
X1996457Y1773820*
Y1776075*
X2021108Y1766250D02*
X2016457D01*
X2021108D02*
Y1767700D01*
X2020886Y1768183*
X2020665Y1768344*
X2020222Y1768505*
X2019779*
X2019336Y1768344*
X2019115Y1768183*
X2019115D02*
X2018893Y1767700D01*
Y1766250*
Y1767377D02*
X2016457Y1768505D01*
X2021108Y1771565D02*
X2018007Y1769954D01*
Y1772370*
X2021108Y1771565D02*
X2016457D01*
X2021108Y1774142D02*
Y1775914D01*
X2019336Y1774947*
Y1775430*
X2019115Y1775753*
X2019115D02*
X2018893Y1775914D01*
X2018229Y1776075*
X2017786*
X2017121Y1775914*
X2016678Y1775591*
X2016457Y1775108*
Y1774625*
X2016678Y1774142*
X2016900Y1773981*
X2017343Y1773820*
X2040108Y1766250D02*
X2035457D01*
X2040108D02*
Y1767700D01*
X2039886Y1768183*
X2039665Y1768344*
X2039222Y1768505*
X2038779*
X2038336Y1768344*
X2038115Y1768183*
X2038115D02*
X2037893Y1767700D01*
Y1766250*
Y1767377D02*
X2035457Y1768505D01*
X2040108Y1771565D02*
X2037007Y1769954D01*
Y1772370*
X2040108Y1771565D02*
X2035457D01*
X2040108Y1775430D02*
X2037007Y1773820D01*
Y1776236*
X2040108Y1775430D02*
X2035457D01*
X2060108Y1766250D02*
X2055457D01*
X2060108D02*
Y1767700D01*
X2059886Y1768183*
X2059665Y1768344*
X2059222Y1768505*
X2058779*
X2058336Y1768344*
X2058115Y1768183*
X2058115D02*
X2057893Y1767700D01*
Y1766250*
Y1767377D02*
X2055457Y1768505D01*
X2060108Y1771565D02*
X2057007Y1769954D01*
Y1772370*
X2060108Y1771565D02*
X2055457D01*
X2060108Y1775914D02*
Y1774303D01*
X2058115Y1774142*
X2058115D02*
X2058336Y1774303D01*
X2058557Y1774786*
Y1775269*
X2058336Y1775753*
X2057893Y1776075*
X2057229Y1776236*
X2056786Y1776075*
X2056121Y1775914*
X2055678Y1775591*
X2055457Y1775108*
Y1774625*
X2055678Y1774142*
X2055900Y1773981*
X2056343Y1773820*
X2080108Y1766250D02*
X2075457D01*
X2080108D02*
Y1767700D01*
X2079886Y1768183*
X2079665Y1768344*
X2079222Y1768505*
X2078779*
X2078336Y1768344*
X2078115Y1768183*
X2078115D02*
X2077893Y1767700D01*
Y1766250*
Y1767377D02*
X2075457Y1768505D01*
X2080108Y1771565D02*
X2077007Y1769954D01*
Y1772370*
X2080108Y1771565D02*
X2075457D01*
X2079443Y1775753D02*
X2079886Y1775591D01*
X2080108Y1775108*
Y1774786*
X2079886Y1774303*
X2079222Y1773981*
X2078115Y1773820*
X2078115D02*
X2077007D01*
X2076121Y1773981*
X2075678Y1774303*
X2075457Y1774786*
Y1774947*
X2075678Y1775430*
X2076121Y1775753*
X2076786Y1775914*
X2077007*
X2077672Y1775753*
X2078115Y1775430*
X2078115D02*
X2078336Y1774947D01*
Y1774786*
X2078115Y1774303*
X2078115D02*
X2077672Y1773981D01*
X2077007Y1773820*
X2099108Y1766250D02*
X2094457D01*
X2099108D02*
Y1767700D01*
X2098886Y1768183*
X2098665Y1768344*
X2098222Y1768505*
X2097779*
X2097336Y1768344*
X2097115Y1768183*
X2097115D02*
X2096893Y1767700D01*
Y1766250*
Y1767377D02*
X2094457Y1768505D01*
X2099108Y1771565D02*
X2096007Y1769954D01*
Y1772370*
X2099108Y1771565D02*
X2094457D01*
X2099108Y1776075D02*
X2094457Y1774464D01*
X2099108Y1773820D02*
Y1776075D01*
X2119108Y1766250D02*
X2114457D01*
X2119108D02*
Y1767700D01*
X2118886Y1768183*
X2118665Y1768344*
X2118222Y1768505*
X2117779*
X2117336Y1768344*
X2117115Y1768183*
X2117115D02*
X2116893Y1767700D01*
Y1766250*
Y1767377D02*
X2114457Y1768505D01*
X2119108Y1771565D02*
X2116007Y1769954D01*
Y1772370*
X2119108Y1771565D02*
X2114457D01*
X2119108Y1774625D02*
X2118886Y1774142D01*
X2118443Y1773981*
X2118000*
X2117557Y1774142*
X2117336Y1774464*
X2117115Y1775108*
X2117115D02*
X2116893Y1775591D01*
X2116450Y1775914*
X2116007Y1776075*
X2115343*
X2114900Y1775914*
X2114678Y1775753*
X2114457Y1775269*
Y1774625*
X2114678Y1774142*
X2114900Y1773981*
X2115343Y1773820*
X2116007*
X2116450Y1773981*
X2116893Y1774303*
X2117115Y1774786*
X2117115D02*
X2117336Y1775430D01*
X2117557Y1775753*
X2118000Y1775914*
X2118443*
X2118886Y1775753*
X2119108Y1775269*
Y1774625*
X1905457Y1407813D02*
Y1401250D01*
X1908184*
X1910230Y1407813D02*
Y1401250D01*
X1912275Y1407813D02*
Y1401250D01*
Y1407813D02*
X1915457Y1401250D01*
Y1407813D02*
Y1401250D01*
X1917502Y1407813D02*
Y1401250D01*
Y1407813D02*
X1920457D01*
X1917502Y1404688D02*
X1919321D01*
X1917502Y1401250D02*
X1920457D01*
X1924321Y1407813D02*
X1922502Y1401250D01*
X1924321Y1407813D02*
X1926139Y1401250D01*
X1923184Y1403438D02*
X1925457D01*
X1928184Y1407813D02*
Y1401250D01*
Y1407813D02*
X1930230D01*
X1930230D02*
X1930912Y1407500D01*
X1931139Y1407188*
X1931139D02*
X1931366Y1406563D01*
X1931366D02*
Y1405938D01*
X1931366D02*
X1931139Y1405313D01*
X1931139D02*
X1930912Y1405000D01*
X1930230Y1404688*
X1930230D02*
X1928184D01*
X1929775D02*
X1931366Y1401250D01*
X1940230Y1407813D02*
Y1401250D01*
X1938639Y1407813D02*
X1941821D01*
X1943866D02*
Y1401250D01*
Y1407813D02*
X1946821D01*
X1943866Y1404688D02*
X1945684D01*
X1943866Y1401250D02*
X1946821D01*
X1952275Y1406250D02*
X1952048Y1406875D01*
X1951593Y1407500*
X1951139Y1407813*
X1951139D02*
X1950230D01*
X1950230D02*
X1949775Y1407500D01*
X1949321Y1406875*
X1949093Y1406250*
X1948866Y1405313*
X1948866D02*
Y1403750D01*
X1949093Y1402813*
X1949093D02*
X1949321Y1402188D01*
X1949321D02*
X1949775Y1401563D01*
X1949775D02*
X1950230Y1401250D01*
X1951139*
X1951593Y1401563*
X1951593D02*
X1952048Y1402188D01*
X1952048D02*
X1952275Y1402813D01*
X1954321Y1407813D02*
Y1401250D01*
X1957502Y1407813D02*
Y1401250D01*
X1954321Y1404688D02*
X1957502D01*
X1959548Y1407813D02*
Y1401250D01*
Y1407813D02*
X1962730Y1401250D01*
Y1407813D02*
Y1401250D01*
X1966139Y1407813D02*
X1965684Y1407500D01*
X1965230Y1406875*
X1965002Y1406250*
X1964775Y1405313*
X1964775D02*
Y1403750D01*
X1965002Y1402813*
X1965002D02*
X1965230Y1402188D01*
X1965230D02*
X1965684Y1401563D01*
X1965684D02*
X1966139Y1401250D01*
X1967048*
X1967502Y1401563*
X1967502D02*
X1967957Y1402188D01*
X1967957D02*
X1968184Y1402813D01*
X1968184D02*
X1968412Y1403750D01*
Y1405313*
X1968412D02*
X1968184Y1406250D01*
X1967957Y1406875*
X1967502Y1407500*
X1967048Y1407813*
X1967048D02*
X1966139D01*
X1970457D02*
Y1401250D01*
X1973184*
X1976593Y1407813D02*
X1976139Y1407500D01*
X1975684Y1406875*
X1975457Y1406250*
X1975230Y1405313*
X1975230D02*
Y1403750D01*
X1975457Y1402813*
X1975457D02*
X1975684Y1402188D01*
X1975684D02*
X1976139Y1401563D01*
X1976139D02*
X1976593Y1401250D01*
X1977502*
X1977957Y1401563*
X1977957D02*
X1978412Y1402188D01*
X1978412D02*
X1978639Y1402813D01*
X1978639D02*
X1978866Y1403750D01*
Y1405313*
X1978866D02*
X1978639Y1406250D01*
X1978412Y1406875*
X1977957Y1407500*
X1977502Y1407813*
X1977502D02*
X1976593D01*
X1984321Y1406250D02*
X1984093Y1406875D01*
X1983639Y1407500*
X1983184Y1407813*
X1983184D02*
X1982275D01*
X1982275D02*
X1981821Y1407500D01*
X1981366Y1406875*
X1981139Y1406250*
X1980912Y1405313*
X1980912D02*
Y1403750D01*
X1981139Y1402813*
X1981139D02*
X1981366Y1402188D01*
X1981366D02*
X1981821Y1401563D01*
X1981821D02*
X1982275Y1401250D01*
X1983184*
X1983639Y1401563*
X1983639D02*
X1984093Y1402188D01*
X1984093D02*
X1984321Y1402813D01*
X1984321D02*
Y1403750D01*
X1983184D02*
X1984321D01*
X1986366Y1407813D02*
X1988184Y1404688D01*
X1988184D02*
Y1401250D01*
X1990002Y1407813D02*
X1988184Y1404688D01*
X1905457Y1393813D02*
Y1387250D01*
Y1393813D02*
X1907048D01*
X1907048D02*
X1907730Y1393500D01*
X1908184Y1392875*
X1908412Y1392250*
X1908639Y1391313*
X1908639D02*
Y1389750D01*
X1908412Y1388813*
X1908412D02*
X1908184Y1388188D01*
X1908184D02*
X1907730Y1387563D01*
X1907730D02*
X1907048Y1387250D01*
X1905457*
X1914093Y1392250D02*
X1913866Y1392875D01*
X1913412Y1393500*
X1912957Y1393813*
X1912957D02*
X1912048D01*
X1912048D02*
X1911593Y1393500D01*
X1911139Y1392875*
X1910912Y1392250*
X1910684Y1391313*
X1910684D02*
Y1389750D01*
X1910912Y1388813*
X1910912D02*
X1911139Y1388188D01*
X1911139D02*
X1911593Y1387563D01*
X1911593D02*
X1912048Y1387250D01*
X1912957*
X1913412Y1387563*
X1913412D02*
X1913866Y1388188D01*
X1913866D02*
X1914093Y1388813D01*
X1916366Y1392250D02*
Y1392563D01*
X1916366D02*
X1916593Y1393188D01*
X1916593D02*
X1916821Y1393500D01*
X1917275Y1393813*
X1917275D02*
X1918184D01*
X1918184D02*
X1918639Y1393500D01*
X1918866Y1393188*
X1918866D02*
X1919093Y1392563D01*
X1919093D02*
Y1391938D01*
X1919093D02*
X1918866Y1391313D01*
X1918866D02*
X1918412Y1390375D01*
X1916139Y1387250*
X1919321*
X1921593Y1392250D02*
Y1392563D01*
X1921593D02*
X1921821Y1393188D01*
X1921821D02*
X1922048Y1393500D01*
X1922502Y1393813*
X1922502D02*
X1923412D01*
X1923412D02*
X1923866Y1393500D01*
X1924093Y1393188*
X1924093D02*
X1924321Y1392563D01*
X1924321D02*
Y1391938D01*
X1924321D02*
X1924093Y1391313D01*
X1924093D02*
X1923639Y1390375D01*
X1921366Y1387250*
X1924548*
X1929548Y1393813D02*
X1927275D01*
X1927275D02*
X1927048Y1391000D01*
X1927275Y1391313*
X1927275D02*
X1927957Y1391625D01*
X1928639*
X1929321Y1391313*
X1929321D02*
X1929775Y1390688D01*
X1929775D02*
X1930002Y1389750D01*
X1929775Y1389125*
X1929548Y1388188*
X1929548D02*
X1929093Y1387563D01*
X1929093D02*
X1928412Y1387250D01*
X1927730*
X1927048Y1387563*
X1927048D02*
X1926821Y1387875D01*
X1926593Y1388500*
X1935002Y1391625D02*
X1934775Y1390688D01*
X1934775D02*
X1934321Y1390063D01*
X1934321D02*
X1933639Y1389750D01*
X1933412*
X1932730Y1390063*
X1932730D02*
X1932275Y1390688D01*
X1932275D02*
X1932048Y1391625D01*
Y1391938*
X1932048D02*
X1932275Y1392875D01*
X1932730Y1393500*
X1933412Y1393813*
X1933412D02*
X1933639D01*
X1933639D02*
X1934321Y1393500D01*
X1934775Y1392875*
X1935002Y1391625*
Y1390063*
X1935002D02*
X1934775Y1388500D01*
X1934321Y1387563*
X1934321D02*
X1933639Y1387250D01*
X1933184*
X1932502Y1387563*
X1932502D02*
X1932275Y1388188D01*
X1938866Y1393813D02*
X1937048Y1387250D01*
X1938866Y1393813D02*
X1940684Y1387250D01*
X1937730Y1389438D02*
X1940002D01*
X1942730Y1390063D02*
X1946821D01*
X1949093Y1392250D02*
Y1392563D01*
X1949093D02*
X1949321Y1393188D01*
X1949321D02*
X1949548Y1393500D01*
X1950002Y1393813*
X1950002D02*
X1950912D01*
X1950912D02*
X1951366Y1393500D01*
X1951593Y1393188*
X1951593D02*
X1951821Y1392563D01*
X1951821D02*
Y1391938D01*
X1951821D02*
X1951593Y1391313D01*
X1951593D02*
X1951139Y1390375D01*
X1948866Y1387250*
X1952048*
X1954093Y1390063D02*
X1958184D01*
X1970684Y1393813D02*
Y1387250D01*
X1973412*
X1977048Y1393813D02*
Y1387250D01*
X1975457Y1393813D02*
X1978639D01*
X1984093Y1392250D02*
X1983866Y1392875D01*
X1983412Y1393500*
X1982957Y1393813*
X1982957D02*
X1982048D01*
X1982048D02*
X1981593Y1393500D01*
X1981139Y1392875*
X1980912Y1392250*
X1980684Y1391313*
X1980684D02*
Y1389750D01*
X1980912Y1388813*
X1980912D02*
X1981139Y1388188D01*
X1981139D02*
X1981593Y1387563D01*
X1981593D02*
X1982048Y1387250D01*
X1982957*
X1983412Y1387563*
X1983412D02*
X1983866Y1388188D01*
X1983866D02*
X1984093Y1388813D01*
X1988866Y1392875D02*
X1988639Y1393500D01*
X1987957Y1393813*
X1987957D02*
X1987502D01*
X1987502D02*
X1986821Y1393500D01*
X1986366Y1392563*
X1986366D02*
X1986139Y1391000D01*
Y1389438*
X1986139D02*
X1986366Y1388188D01*
X1986366D02*
X1986821Y1387563D01*
X1986821D02*
X1987502Y1387250D01*
X1987730*
X1988412Y1387563*
X1988412D02*
X1988866Y1388188D01*
X1988866D02*
X1989093Y1389125D01*
Y1389438*
X1989093D02*
X1988866Y1390375D01*
X1988412Y1391000*
X1987730Y1391313*
X1987730D02*
X1987502D01*
X1987502D02*
X1986821Y1391000D01*
X1986366Y1390375*
X1986139Y1389438*
X1992275Y1393813D02*
X1991593Y1393500D01*
X1991366Y1392875*
Y1392250*
X1991593Y1391625*
X1992048Y1391313*
X1992048D02*
X1992957Y1391000D01*
X1993639Y1390688*
X1993639D02*
X1994093Y1390063D01*
X1994093D02*
X1994321Y1389438D01*
X1994321D02*
Y1388500D01*
X1994093Y1387875*
X1993866Y1387563*
X1993866D02*
X1993184Y1387250D01*
X1992275*
X1991593Y1387563*
X1991593D02*
X1991366Y1387875D01*
X1991139Y1388500*
Y1389438*
X1991139D02*
X1991366Y1390063D01*
X1991366D02*
X1991821Y1390688D01*
X1991821D02*
X1992502Y1391000D01*
X1993412Y1391313*
X1993412D02*
X1993866Y1391625D01*
X1994093Y1392250*
Y1392875*
X1993866Y1393500*
X1993184Y1393813*
X1993184D02*
X1992275D01*
X1996366Y1392563D02*
X1996821Y1392875D01*
X1997502Y1393813*
X1997502D02*
Y1387250D01*
X1999548Y1392563D02*
X2000002Y1392875D01*
X2000684Y1393813*
X2000684D02*
Y1387250D01*
X2002730Y1393813D02*
Y1387250D01*
X2008184Y1392250D02*
X2007957Y1392875D01*
X2007502Y1393500*
X2007048Y1393813*
X2007048D02*
X2006139D01*
X2006139D02*
X2005684Y1393500D01*
X2005230Y1392875*
X2005002Y1392250*
X2004775Y1391313*
X2004775D02*
Y1389750D01*
X2005002Y1388813*
X2005002D02*
X2005230Y1388188D01*
X2005230D02*
X2005684Y1387563D01*
X2005684D02*
X2006139Y1387250D01*
X2007048*
X2007502Y1387563*
X2007502D02*
X2007957Y1388188D01*
X2007957D02*
X2008184Y1388813D01*
X2008184D02*
Y1389750D01*
X2007048D02*
X2008184D01*
X2010230Y1390063D02*
X2014321D01*
X2016366Y1392563D02*
X2016821Y1392875D01*
X2017502Y1393813*
X2017502D02*
Y1387250D01*
X2006457Y1409813D02*
Y1403250D01*
Y1409813D02*
X2008048D01*
X2008048D02*
X2008730Y1409500D01*
X2009184Y1408875*
X2009412Y1408250*
X2009639Y1407313*
X2009639D02*
Y1405750D01*
X2009412Y1404813*
X2009412D02*
X2009184Y1404188D01*
X2009184D02*
X2008730Y1403563D01*
X2008730D02*
X2008048Y1403250D01*
X2006457*
X2013502Y1409813D02*
X2011684Y1403250D01*
X2013502Y1409813D02*
X2015321Y1403250D01*
X2012366Y1405438D02*
X2014639D01*
X2018957Y1409813D02*
Y1403250D01*
X2017366Y1409813D02*
X2020548D01*
X2022593D02*
Y1403250D01*
Y1409813D02*
X2025548D01*
X2022593Y1406688D02*
X2024412D01*
X2022593Y1403250D02*
X2025548D01*
X2027821Y1407625D02*
X2027593Y1407313D01*
X2027593D02*
X2027821Y1407000D01*
X2028048Y1407313*
X2028048D02*
X2027821Y1407625D01*
Y1403875D02*
X2027593Y1403563D01*
X2027593D02*
X2027821Y1403250D01*
X2028048Y1403563*
X2028048D02*
X2027821Y1403875D01*
X2036684Y1409813D02*
X2036002Y1409500D01*
X2035548Y1408563*
X2035548D02*
X2035321Y1407000D01*
Y1406063*
X2035321D02*
X2035548Y1404500D01*
X2036002Y1403563*
X2036002D02*
X2036684Y1403250D01*
X2037139*
X2037821Y1403563*
X2037821D02*
X2038275Y1404500D01*
X2038502Y1406063*
X2038502D02*
Y1407000D01*
X2038275Y1408563*
X2038275D02*
X2037821Y1409500D01*
X2037139Y1409813*
X2037139D02*
X2036684D01*
X2043275Y1408875D02*
X2043048Y1409500D01*
X2042366Y1409813*
X2042366D02*
X2041912D01*
X2041912D02*
X2041230Y1409500D01*
X2040775Y1408563*
X2040775D02*
X2040548Y1407000D01*
Y1405438*
X2040548D02*
X2040775Y1404188D01*
X2040775D02*
X2041230Y1403563D01*
X2041230D02*
X2041912Y1403250D01*
X2042139*
X2042821Y1403563*
X2042821D02*
X2043275Y1404188D01*
X2043275D02*
X2043502Y1405125D01*
Y1405438*
X2043502D02*
X2043275Y1406375D01*
X2042821Y1407000*
X2042139Y1407313*
X2042139D02*
X2041912D01*
X2041912D02*
X2041230Y1407000D01*
X2040775Y1406375*
X2040548Y1405438*
X2045548Y1406063D02*
X2049639D01*
X2051684Y1408563D02*
X2052139Y1408875D01*
X2052821Y1409813*
X2052821D02*
Y1403250D01*
X2057821Y1409813D02*
X2055548D01*
X2055548D02*
X2055321Y1407000D01*
X2055548Y1407313*
X2055548D02*
X2056230Y1407625D01*
X2056912*
X2057593Y1407313*
X2057593D02*
X2058048Y1406688D01*
X2058048D02*
X2058275Y1405750D01*
X2058048Y1405125*
X2057821Y1404188*
X2057821D02*
X2057366Y1403563D01*
X2057366D02*
X2056684Y1403250D01*
X2056002*
X2055321Y1403563*
X2055321D02*
X2055093Y1403875D01*
X2054866Y1404500*
X2060321Y1406063D02*
X2064412D01*
X2066457Y1408563D02*
X2066912Y1408875D01*
X2067593Y1409813*
X2067593D02*
Y1403250D01*
X2072593Y1409813D02*
X2070321D01*
X2070321D02*
X2070093Y1407000D01*
X2070321Y1407313*
X2070321D02*
X2071002Y1407625D01*
X2071684*
X2072366Y1407313*
X2072366D02*
X2072821Y1406688D01*
X2072821D02*
X2073048Y1405750D01*
X2072821Y1405125*
X2072593Y1404188*
X2072593D02*
X2072139Y1403563D01*
X2072139D02*
X2071457Y1403250D01*
X2070775*
X2070093Y1403563*
X2070093D02*
X2069866Y1403875D01*
X2069639Y1404500*
X1905457Y1379813D02*
X1905684Y1379500D01*
X1905912Y1379813*
X1905912D02*
X1905684Y1380125D01*
X1905457Y1379813*
X1905684Y1377625D02*
Y1373250D01*
X1910457Y1376688D02*
X1910230Y1377313D01*
X1910230D02*
X1909548Y1377625D01*
X1908866*
X1908184Y1377313*
X1908184D02*
X1907957Y1376688D01*
X1907957D02*
X1908184Y1376063D01*
X1908184D02*
X1908639Y1375750D01*
X1909775Y1375438*
X1909775D02*
X1910230Y1375125D01*
X1910457Y1374500*
Y1374188*
X1910457D02*
X1910230Y1373563D01*
X1910230D02*
X1909548Y1373250D01*
X1908866*
X1908184Y1373563*
X1908184D02*
X1907957Y1374188D01*
X1913639Y1377625D02*
X1913184Y1377313D01*
X1913184D02*
X1912730Y1376688D01*
X1912730D02*
X1912502Y1375750D01*
Y1375125*
X1912730Y1374188*
X1912730D02*
X1913184Y1373563D01*
X1913184D02*
X1913639Y1373250D01*
X1914321*
X1914775Y1373563*
X1914775D02*
X1915230Y1374188D01*
X1915230D02*
X1915457Y1375125D01*
Y1375750*
X1915230Y1376688*
X1915230D02*
X1914775Y1377313D01*
X1914775D02*
X1914321Y1377625D01*
X1913639*
X1920684Y1378875D02*
X1920230Y1379500D01*
X1919548Y1379813*
X1919548D02*
X1918639D01*
X1918639D02*
X1917957Y1379500D01*
X1917502Y1378875*
Y1378250*
X1917730Y1377625*
X1917957Y1377313*
X1917957D02*
X1918412Y1377000D01*
X1919775Y1376375*
X1920230Y1376063*
X1920230D02*
X1920457Y1375750D01*
X1920684Y1375125*
Y1374188*
X1920684D02*
X1920230Y1373563D01*
X1920230D02*
X1919548Y1373250D01*
X1918639*
X1917957Y1373563*
X1917957D02*
X1917502Y1374188D01*
X1922730Y1379813D02*
Y1373250D01*
Y1379813D02*
X1924775D01*
X1924775D02*
X1925457Y1379500D01*
X1925684Y1379188*
X1925684D02*
X1925912Y1378563D01*
X1925912D02*
Y1377625D01*
X1925684Y1377000*
X1925457Y1376688*
X1925457D02*
X1924775Y1376375D01*
X1922730*
X1927957Y1379813D02*
Y1373250D01*
X1935230Y1378563D02*
X1935684Y1378875D01*
X1936366Y1379813*
X1936366D02*
Y1373250D01*
X1938639Y1378250D02*
Y1378563D01*
X1938639D02*
X1938866Y1379188D01*
X1938866D02*
X1939093Y1379500D01*
X1939548Y1379813*
X1939548D02*
X1940457D01*
X1940457D02*
X1940912Y1379500D01*
X1941139Y1379188*
X1941139D02*
X1941366Y1378563D01*
X1941366D02*
Y1377938D01*
X1941366D02*
X1941139Y1377313D01*
X1941139D02*
X1940684Y1376375D01*
X1938412Y1373250*
X1941593*
X1943639Y1376063D02*
X1947730D01*
X1953184Y1378250D02*
X1952957Y1378875D01*
X1952502Y1379500*
X1952048Y1379813*
X1952048D02*
X1951139D01*
X1951139D02*
X1950684Y1379500D01*
X1950230Y1378875*
X1950002Y1378250*
X1949775Y1377313*
X1949775D02*
Y1375750D01*
X1950002Y1374813*
X1950002D02*
X1950230Y1374188D01*
X1950230D02*
X1950684Y1373563D01*
X1950684D02*
X1951139Y1373250D01*
X1952048*
X1952502Y1373563*
X1952502D02*
X1952957Y1374188D01*
X1952957D02*
X1953184Y1374813D01*
X1955230Y1379813D02*
Y1373250D01*
Y1379813D02*
X1958184D01*
X1955230Y1376688D02*
X1957048D01*
X1955230Y1373250D02*
X1958184D01*
X1960230Y1379813D02*
Y1373250D01*
X1962957*
X1965002Y1379813D02*
Y1373250D01*
X1967730*
X1975002Y1379813D02*
Y1373250D01*
Y1379813D02*
X1977048D01*
X1977048D02*
X1977730Y1379500D01*
X1977957Y1379188*
X1977957D02*
X1978184Y1378563D01*
X1978184D02*
Y1377938D01*
X1978184D02*
X1977957Y1377313D01*
X1977957D02*
X1977730Y1377000D01*
X1977048Y1376688*
X1975002D02*
X1977048D01*
X1977048D02*
X1977730Y1376375D01*
X1977957Y1376063*
X1977957D02*
X1978184Y1375438D01*
X1978184D02*
Y1374500D01*
X1977957Y1373875*
X1977730Y1373563*
X1977730D02*
X1977048Y1373250D01*
X1975002*
X1982048Y1379813D02*
X1980230Y1373250D01*
X1982048Y1379813D02*
X1983866Y1373250D01*
X1980912Y1375438D02*
X1983184D01*
X1987502Y1379813D02*
Y1373250D01*
X1985912Y1379813D02*
X1989093D01*
X1992730D02*
Y1373250D01*
X1991139Y1379813D02*
X1994321D01*
X1996366D02*
Y1373250D01*
Y1379813D02*
X1999321D01*
X1996366Y1376688D02*
X1998184D01*
X1996366Y1373250D02*
X1999321D01*
X2001366Y1379813D02*
Y1373250D01*
Y1379813D02*
X2003412D01*
X2003412D02*
X2004093Y1379500D01*
X2004321Y1379188*
X2004321D02*
X2004548Y1378563D01*
X2004548D02*
Y1377938D01*
X2004548D02*
X2004321Y1377313D01*
X2004321D02*
X2004093Y1377000D01*
X2003412Y1376688*
X2003412D02*
X2001366D01*
X2002957D02*
X2004548Y1373250D01*
X2006593Y1379813D02*
X2008412Y1376688D01*
X2008412D02*
Y1373250D01*
X2010230Y1379813D02*
X2008412Y1376688D01*
X2012275Y1376063D02*
X2016366D01*
X2021593Y1378875D02*
X2021139Y1379500D01*
X2020457Y1379813*
X2020457D02*
X2019548D01*
X2019548D02*
X2018866Y1379500D01*
X2018412Y1378875*
Y1378250*
X2018639Y1377625*
X2018866Y1377313*
X2018866D02*
X2019321Y1377000D01*
X2020684Y1376375*
X2021139Y1376063*
X2021139D02*
X2021366Y1375750D01*
X2021593Y1375125*
Y1374188*
X2021593D02*
X2021139Y1373563D01*
X2021139D02*
X2020457Y1373250D01*
X2019548*
X2018866Y1373563*
X2018866D02*
X2018412Y1374188D01*
X2025230Y1379813D02*
Y1373250D01*
X2023639Y1379813D02*
X2026821D01*
X2030684D02*
X2028866Y1373250D01*
X2030684Y1379813D02*
X2032502Y1373250D01*
X2029548Y1375438D02*
X2031821D01*
X2037957Y1378250D02*
X2037730Y1378875D01*
X2037275Y1379500*
X2036821Y1379813*
X2036821D02*
X2035912D01*
X2035912D02*
X2035457Y1379500D01*
X2035002Y1378875*
X2034775Y1378250*
X2034548Y1377313*
X2034548D02*
Y1375750D01*
X2034775Y1374813*
X2034775D02*
X2035002Y1374188D01*
X2035002D02*
X2035457Y1373563D01*
X2035457D02*
X2035912Y1373250D01*
X2036821*
X2037275Y1373563*
X2037275D02*
X2037730Y1374188D01*
X2037730D02*
X2037957Y1374813D01*
X2040002Y1379813D02*
Y1373250D01*
X2043184Y1379813D02*
X2040002Y1375438D01*
X2041139Y1377000D02*
X2043184Y1373250D01*
X2050457Y1379813D02*
Y1373250D01*
Y1379813D02*
X2052275Y1373250D01*
X2054093Y1379813D02*
X2052275Y1373250D01*
X2054093Y1379813D02*
Y1373250D01*
X2057502Y1379813D02*
X2057048Y1379500D01*
X2056593Y1378875*
X2056366Y1378250*
X2056139Y1377313*
X2056139D02*
Y1375750D01*
X2056366Y1374813*
X2056366D02*
X2056593Y1374188D01*
X2056593D02*
X2057048Y1373563D01*
X2057048D02*
X2057502Y1373250D01*
X2058412*
X2058866Y1373563*
X2058866D02*
X2059321Y1374188D01*
X2059321D02*
X2059548Y1374813D01*
X2059548D02*
X2059775Y1375750D01*
Y1377313*
X2059775D02*
X2059548Y1378250D01*
X2059321Y1378875*
X2058866Y1379500*
X2058412Y1379813*
X2058412D02*
X2057502D01*
X2061821D02*
Y1373250D01*
Y1379813D02*
X2065002Y1373250D01*
Y1379813D02*
Y1373250D01*
X2067048Y1379813D02*
Y1373250D01*
X2070684Y1379813D02*
Y1373250D01*
X2069093Y1379813D02*
X2072275D01*
X2075684D02*
X2075230Y1379500D01*
X2074775Y1378875*
X2074548Y1378250*
X2074321Y1377313*
X2074321D02*
Y1375750D01*
X2074548Y1374813*
X2074548D02*
X2074775Y1374188D01*
X2074775D02*
X2075230Y1373563D01*
X2075230D02*
X2075684Y1373250D01*
X2076593*
X2077048Y1373563*
X2077048D02*
X2077502Y1374188D01*
X2077502D02*
X2077730Y1374813D01*
X2077730D02*
X2077957Y1375750D01*
Y1377313*
X2077957D02*
X2077730Y1378250D01*
X2077502Y1378875*
X2077048Y1379500*
X2076593Y1379813*
X2076593D02*
X2075684D01*
X2080002D02*
Y1373250D01*
Y1379813D02*
X2082048D01*
X2082048D02*
X2082730Y1379500D01*
X2082957Y1379188*
X2082957D02*
X2083184Y1378563D01*
X2083184D02*
Y1377938D01*
X2083184D02*
X2082957Y1377313D01*
X2082957D02*
X2082730Y1377000D01*
X2082048Y1376688*
X2082048D02*
X2080002D01*
X2081593D02*
X2083184Y1373250D01*
X1918457Y1426813D02*
Y1420250D01*
Y1426813D02*
X1920502D01*
X1920502D02*
X1921184Y1426500D01*
X1921412Y1426188*
X1921412D02*
X1921639Y1425563D01*
X1921639D02*
Y1424938D01*
X1921639D02*
X1921412Y1424313D01*
X1921412D02*
X1921184Y1424000D01*
X1920502Y1423688*
X1918457D02*
X1920502D01*
X1920502D02*
X1921184Y1423375D01*
X1921412Y1423063*
X1921412D02*
X1921639Y1422438D01*
X1921639D02*
Y1421500D01*
X1921412Y1420875*
X1921184Y1420563*
X1921184D02*
X1920502Y1420250D01*
X1918457*
X1925048Y1426813D02*
X1924593Y1426500D01*
X1924139Y1425875*
X1923912Y1425250*
X1923684Y1424313*
X1923684D02*
Y1422750D01*
X1923912Y1421813*
X1923912D02*
X1924139Y1421188D01*
X1924139D02*
X1924593Y1420563D01*
X1924593D02*
X1925048Y1420250D01*
X1925957*
X1926412Y1420563*
X1926412D02*
X1926866Y1421188D01*
X1926866D02*
X1927093Y1421813D01*
X1927093D02*
X1927321Y1422750D01*
Y1424313*
X1927321D02*
X1927093Y1425250D01*
X1926866Y1425875*
X1926412Y1426500*
X1925957Y1426813*
X1925957D02*
X1925048D01*
X1930957D02*
Y1420250D01*
X1929366Y1426813D02*
X1932548D01*
X1936184D02*
Y1420250D01*
X1934593Y1426813D02*
X1937775D01*
X1941184D02*
X1940730Y1426500D01*
X1940275Y1425875*
X1940048Y1425250*
X1939821Y1424313*
X1939821D02*
Y1422750D01*
X1940048Y1421813*
X1940048D02*
X1940275Y1421188D01*
X1940275D02*
X1940730Y1420563D01*
X1940730D02*
X1941184Y1420250D01*
X1942093*
X1942548Y1420563*
X1942548D02*
X1943002Y1421188D01*
X1943002D02*
X1943230Y1421813D01*
X1943230D02*
X1943457Y1422750D01*
Y1424313*
X1943457D02*
X1943230Y1425250D01*
X1943002Y1425875*
X1942548Y1426500*
X1942093Y1426813*
X1942093D02*
X1941184D01*
X1945502D02*
Y1420250D01*
Y1426813D02*
X1947321Y1420250D01*
X1949139Y1426813D02*
X1947321Y1420250D01*
X1949139Y1426813D02*
Y1420250D01*
X1959593Y1425875D02*
X1959139Y1426500D01*
X1958457Y1426813*
X1958457D02*
X1957548D01*
X1957548D02*
X1956866Y1426500D01*
X1956412Y1425875*
Y1425250*
X1956639Y1424625*
X1956866Y1424313*
X1956866D02*
X1957321Y1424000D01*
X1958684Y1423375*
X1959139Y1423063*
X1959139D02*
X1959366Y1422750D01*
X1959593Y1422125*
Y1421188*
X1959593D02*
X1959139Y1420563D01*
X1959139D02*
X1958457Y1420250D01*
X1957548*
X1956866Y1420563*
X1956866D02*
X1956412Y1421188D01*
X1961639Y1426813D02*
Y1420250D01*
X1963684Y1426813D02*
Y1420250D01*
X1966412*
X1968457Y1426813D02*
Y1420250D01*
X1971639Y1426813D02*
X1968457Y1422438D01*
X1969593Y1424000D02*
X1971639Y1420250D01*
X1976866Y1425875D02*
X1976412Y1426500D01*
X1975730Y1426813*
X1975730D02*
X1974821D01*
X1974821D02*
X1974139Y1426500D01*
X1973684Y1425875*
Y1425250*
X1973912Y1424625*
X1974139Y1424313*
X1974139D02*
X1974593Y1424000D01*
X1975957Y1423375*
X1976412Y1423063*
X1976412D02*
X1976639Y1422750D01*
X1976866Y1422125*
Y1421188*
X1976866D02*
X1976412Y1420563D01*
X1976412D02*
X1975730Y1420250D01*
X1974821*
X1974139Y1420563*
X1974139D02*
X1973684Y1421188D01*
X1982321Y1425250D02*
X1982093Y1425875D01*
X1981639Y1426500*
X1981184Y1426813*
X1981184D02*
X1980275D01*
X1980275D02*
X1979821Y1426500D01*
X1979366Y1425875*
X1979139Y1425250*
X1978912Y1424313*
X1978912D02*
Y1422750D01*
X1979139Y1421813*
X1979139D02*
X1979366Y1421188D01*
X1979366D02*
X1979821Y1420563D01*
X1979821D02*
X1980275Y1420250D01*
X1981184*
X1981639Y1420563*
X1981639D02*
X1982093Y1421188D01*
X1982093D02*
X1982321Y1421813D01*
X1984366Y1426813D02*
Y1420250D01*
Y1426813D02*
X1986412D01*
X1986412D02*
X1987093Y1426500D01*
X1987321Y1426188*
X1987321D02*
X1987548Y1425563D01*
X1987548D02*
Y1424938D01*
X1987548D02*
X1987321Y1424313D01*
X1987321D02*
X1987093Y1424000D01*
X1986412Y1423688*
X1986412D02*
X1984366D01*
X1985957D02*
X1987548Y1420250D01*
X1989593Y1426813D02*
Y1420250D01*
Y1426813D02*
X1992548D01*
X1989593Y1423688D02*
X1991412D01*
X1989593Y1420250D02*
X1992548D01*
X1994593Y1426813D02*
Y1420250D01*
Y1426813D02*
X1997548D01*
X1994593Y1423688D02*
X1996412D01*
X1994593Y1420250D02*
X1997548D01*
X1999593Y1426813D02*
Y1420250D01*
Y1426813D02*
X2002775Y1420250D01*
Y1426813D02*
Y1420250D01*
X1847456Y1483235D02*
G75*
G03X1867157Y1460249I21344J-1642D01*
G01X1867142Y1460250D02*
X2132890D01*
X2132898D02*
G03X2152575Y1482258I-1165J20843D01*
G01Y1482250D02*
Y1783376D01*
Y1783367D02*
G03X2132899Y1803250I-19779J103D01*
G01X2132890D02*
X2109268D01*
Y1826750*
X1890764*
Y1803250*
X1867142*
X1867133D02*
G03X1847457Y1783367I104J-19780D01*
G01Y1783376D02*
Y1483250D01*
G54D12*
X1888957Y1762500D02*
Y1730000D01*
X1903957*
Y1762500*
X1888957*
X1909052D02*
Y1730000D01*
X1924052*
Y1762500*
X1909052*
X1928737D02*
Y1730000D01*
X1943737*
Y1762500*
X1928737*
X1948422D02*
Y1730000D01*
X1963422*
Y1762500*
X1948422*
X1968107D02*
Y1730000D01*
X1983107*
Y1762500*
X1968107*
X1987792D02*
Y1730000D01*
X2002792*
Y1762500*
X1987792*
X2007477D02*
Y1730000D01*
X2022477*
Y1762500*
X2007477*
X2027162D02*
Y1730000D01*
X2042162*
Y1762500*
X2027162*
X2046650D02*
Y1730000D01*
X2061650*
Y1762500*
X2046650*
X2066532D02*
Y1730000D01*
X2081532*
Y1762500*
X2066532*
X2086217D02*
Y1730000D01*
X2101217*
Y1762500*
X2086217*
X2105902D02*
Y1730000D01*
X2120902*
Y1762500*
X2105902*
X1907957Y1708250D02*
Y1692250D01*
X1900957*
Y1708250*
X1907957*
X2084957D02*
Y1692250D01*
X2077957*
Y1708250*
X2084957*
X2104957D02*
Y1692250D01*
X2097957*
Y1708250*
X2104957*
X2123957D02*
Y1692250D01*
X2116957*
Y1708250*
X2123957*
X1927957D02*
Y1692250D01*
X1920957*
Y1708250*
X1927957*
X1947957D02*
Y1692250D01*
X1940957*
Y1708250*
X1947957*
X1967957D02*
Y1692250D01*
X1960957*
Y1708250*
X1967957*
X1986957D02*
Y1692250D01*
X1979957*
Y1708250*
X1986957*
X2006957D02*
Y1692250D01*
X1999957*
Y1708250*
X2006957*
X2025957D02*
Y1692250D01*
X2018957*
Y1708250*
X2025957*
X2045957D02*
Y1692250D01*
X2038957*
Y1708250*
X2045957*
X2065957D02*
Y1692250D01*
X2058957*
Y1708250*
X2065957*
G54D13*
X2000071Y1668750D02*
X2000230Y1669188D01*
X2000230D02*
X2000548Y1669625D01*
X2000866Y1669844*
X2001502*
X2001821Y1669625*
X2002139Y1669188*
X2002139D02*
X2002298Y1668750D01*
X2002457Y1668094*
Y1667000*
X2002298Y1666344*
X2002139Y1665906*
X2001821Y1665469*
X2001502Y1665250*
X2000866*
X2000548Y1665469*
X2000230Y1665906*
X2000071Y1666344*
X1998639Y1668969D02*
X1998321Y1669188D01*
X1998321D02*
X1997843Y1669844D01*
Y1665250*
X1994184Y1669844D02*
X1995775Y1665250D01*
X1996412Y1669844D02*
X1994184D01*
X1986071Y1652250D02*
X1986230Y1652688D01*
X1986230D02*
X1986548Y1653125D01*
X1986866Y1653344*
X1987502*
X1987821Y1653125*
X1988139Y1652688*
X1988139D02*
X1988298Y1652250D01*
X1988457Y1651594*
Y1650500*
X1988298Y1649844*
X1988139Y1649406*
X1987821Y1648969*
X1987502Y1648750*
X1986866*
X1986548Y1648969*
X1986230Y1649406*
X1986071Y1649844*
X1984480Y1652250D02*
Y1652469D01*
X1984321Y1652906*
X1984162Y1653125*
X1983843Y1653344*
X1983207*
X1982889Y1653125*
X1982730Y1652906*
X1982571Y1652469*
Y1652031*
X1982730Y1651594*
X1983048Y1650938*
X1983048D02*
X1984639Y1648750D01*
X1982412*
X1980980Y1652469D02*
X1980662Y1652688D01*
X1980662D02*
X1980184Y1653344D01*
Y1648750*
X2037457Y1650344D02*
Y1645750D01*
Y1650344D02*
X2036025D01*
X2035548Y1650125*
X2035389Y1649906*
X2035230Y1649469*
Y1649031*
X2035389Y1648594*
X2035548Y1648375*
X2036025Y1648156*
X2037457*
X2036343D02*
X2035230Y1645750D01*
X2031889Y1649688D02*
X2032048Y1650125D01*
X2032525Y1650344*
X2032843*
X2033321Y1650125*
X2033639Y1649469*
X2033798Y1648375*
Y1647281*
X2033639Y1646406*
X2033321Y1645969*
X2032843Y1645750*
X2032684*
X2032207Y1645969*
X2031889Y1646406*
X2031730Y1647063*
X2031730D02*
Y1647281D01*
X2031889Y1647938*
X2031889D02*
X2032207Y1648375D01*
X2032684Y1648594*
X2032843*
X2033321Y1648375*
X2033639Y1647938*
X2033639D02*
X2033798Y1647281D01*
X2029980Y1650344D02*
X2028230D01*
X2029184Y1648594*
X2028707*
X2028389Y1648375*
X2028230Y1648156*
X2028071Y1647500*
Y1647063*
X2028071D02*
X2028230Y1646406D01*
X2028548Y1645969*
X2029025Y1645750*
X2029502*
X2029980Y1645969*
X2030139Y1646188*
X2030139D02*
X2030298Y1646625D01*
X2036957Y1643844D02*
Y1639250D01*
Y1643844D02*
X2035525D01*
X2035048Y1643625*
X2034889Y1643406*
X2034730Y1642969*
Y1642531*
X2034889Y1642094*
X2035048Y1641875*
X2035525Y1641656*
X2036957*
X2035843D02*
X2034730Y1639250D01*
X2031071Y1643844D02*
X2032662Y1639250D01*
X2033298Y1643844D02*
X2031071D01*
X2029321D02*
X2027571D01*
X2028525Y1642094*
X2028048*
X2027730Y1641875*
X2027571Y1641656*
X2027412Y1641000*
Y1640563*
X2027412D02*
X2027571Y1639906D01*
X2027889Y1639469*
X2028366Y1639250*
X2028843*
X2029321Y1639469*
X2029480Y1639688*
X2029480D02*
X2029639Y1640125D01*
X2036457Y1656344D02*
Y1651750D01*
Y1656344D02*
X2035025D01*
X2034548Y1656125*
X2034389Y1655906*
X2034230Y1655469*
Y1655031*
X2034389Y1654594*
X2034548Y1654375*
X2035025Y1654156*
X2036457*
X2035343D02*
X2034230Y1651750D01*
X2030889Y1655688D02*
X2031048Y1656125D01*
X2031525Y1656344*
X2031843*
X2032321Y1656125*
X2032639Y1655469*
X2032798Y1654375*
Y1653281*
X2032639Y1652406*
X2032321Y1651969*
X2031843Y1651750*
X2031684*
X2031207Y1651969*
X2030889Y1652406*
X2030730Y1653063*
X2030730D02*
Y1653281D01*
X2030889Y1653938*
X2030889D02*
X2031207Y1654375D01*
X2031684Y1654594*
X2031843*
X2032321Y1654375*
X2032639Y1653938*
X2032639D02*
X2032798Y1653281D01*
X2029139Y1655250D02*
Y1655469D01*
X2028980Y1655906*
X2028821Y1656125*
X2028502Y1656344*
X2027866*
X2027548Y1656125*
X2027389Y1655906*
X2027230Y1655469*
Y1655031*
X2027389Y1654594*
X2027707Y1653938*
X2027707D02*
X2029298Y1651750D01*
X2027071*
X1905957Y1714636D02*
X1906395Y1714477D01*
X1906832Y1714159*
X1907051Y1713841*
Y1713205*
X1906832Y1712886*
X1906395Y1712568*
X1905957Y1712409*
X1905301Y1712250*
X1904207*
X1903551Y1712409*
X1903113Y1712568*
X1902676Y1712886*
X1902457Y1713205*
Y1713841*
X1902676Y1714159*
X1903113Y1714477*
X1903551Y1714636*
X1906176Y1716068D02*
X1906395Y1716386D01*
X1907051Y1716864*
X1902457*
X2082957Y1714636D02*
X2083395Y1714477D01*
X2083832Y1714159*
X2084051Y1713841*
Y1713205*
X2083832Y1712886*
X2083395Y1712568*
X2082957Y1712409*
X2082301Y1712250*
X2081207*
X2080551Y1712409*
X2080113Y1712568*
X2079676Y1712886*
X2079457Y1713205*
Y1713841*
X2079676Y1714159*
X2080113Y1714477*
X2080551Y1714636*
X2083176Y1716068D02*
X2083395Y1716386D01*
X2084051Y1716864*
X2079457*
X2084051Y1719250D02*
X2083832Y1718773D01*
X2083176Y1718455*
X2082082Y1718295*
X2081426*
X2080332Y1718455*
X2079676Y1718773*
X2079457Y1719250*
Y1719568*
X2079676Y1720045*
X2080332Y1720364*
X2081426Y1720523*
X2082082*
X2083176Y1720364*
X2083832Y1720045*
X2084051Y1719568*
Y1719250*
X2102957Y1714636D02*
X2103395Y1714477D01*
X2103832Y1714159*
X2104051Y1713841*
Y1713205*
X2103832Y1712886*
X2103395Y1712568*
X2102957Y1712409*
X2102301Y1712250*
X2101207*
X2100551Y1712409*
X2100113Y1712568*
X2099676Y1712886*
X2099457Y1713205*
Y1713841*
X2099676Y1714159*
X2100113Y1714477*
X2100551Y1714636*
X2103176Y1716068D02*
X2103395Y1716386D01*
X2104051Y1716864*
X2099457*
X2103176Y1718295D02*
X2103395Y1718614D01*
X2104051Y1719091*
X2099457*
X2120957Y1714636D02*
X2121395Y1714477D01*
X2121832Y1714159*
X2122051Y1713841*
Y1713205*
X2121832Y1712886*
X2121395Y1712568*
X2120957Y1712409*
X2120301Y1712250*
X2119207*
X2118551Y1712409*
X2118113Y1712568*
X2117676Y1712886*
X2117457Y1713205*
Y1713841*
X2117676Y1714159*
X2118113Y1714477*
X2118551Y1714636*
X2121176Y1716068D02*
X2121395Y1716386D01*
X2122051Y1716864*
X2117457*
X2120957Y1718455D02*
X2121176D01*
X2121613Y1718614*
X2121832Y1718773*
X2122051Y1719091*
Y1719727*
X2121832Y1720045*
X2121613Y1720205*
X2121176Y1720364*
X2120738*
X2120301Y1720205*
X2119645Y1719886*
X2117457Y1718295*
Y1720523*
X1925957Y1714636D02*
X1926395Y1714477D01*
X1926832Y1714159*
X1927051Y1713841*
Y1713205*
X1926832Y1712886*
X1926395Y1712568*
X1925957Y1712409*
X1925301Y1712250*
X1924207*
X1923551Y1712409*
X1923113Y1712568*
X1922676Y1712886*
X1922457Y1713205*
Y1713841*
X1922676Y1714159*
X1923113Y1714477*
X1923551Y1714636*
X1925957Y1716227D02*
X1926176D01*
X1926613Y1716386*
X1926832Y1716545*
X1927051Y1716864*
Y1717500*
X1926832Y1717818*
X1926613Y1717977*
X1926176Y1718136*
X1925738*
X1925301Y1717977*
X1924645Y1717659*
X1922457Y1716068*
Y1718295*
X1944957Y1714636D02*
X1945395Y1714477D01*
X1945832Y1714159*
X1946051Y1713841*
Y1713205*
X1945832Y1712886*
X1945395Y1712568*
X1944957Y1712409*
X1944301Y1712250*
X1943207*
X1942551Y1712409*
X1942113Y1712568*
X1941676Y1712886*
X1941457Y1713205*
Y1713841*
X1941676Y1714159*
X1942113Y1714477*
X1942551Y1714636*
X1946051Y1716386D02*
Y1718136D01*
X1944301Y1717182*
Y1717659*
X1944082Y1717977*
X1943863Y1718136*
X1943207Y1718295*
X1942770*
X1942113Y1718136*
X1941676Y1717818*
X1941457Y1717341*
Y1716864*
X1941676Y1716386*
X1941895Y1716227*
X1942332Y1716068*
X1964957Y1714636D02*
X1965395Y1714477D01*
X1965832Y1714159*
X1966051Y1713841*
Y1713205*
X1965832Y1712886*
X1965395Y1712568*
X1964957Y1712409*
X1964301Y1712250*
X1963207*
X1962551Y1712409*
X1962113Y1712568*
X1961676Y1712886*
X1961457Y1713205*
Y1713841*
X1961676Y1714159*
X1962113Y1714477*
X1962551Y1714636*
X1966051Y1717659D02*
X1962988Y1716068D01*
Y1718455*
X1966051Y1717659D02*
X1961457D01*
X1983957Y1714636D02*
X1984395Y1714477D01*
X1984832Y1714159*
X1985051Y1713841*
Y1713205*
X1984832Y1712886*
X1984395Y1712568*
X1983957Y1712409*
X1983301Y1712250*
X1982207*
X1981551Y1712409*
X1981113Y1712568*
X1980676Y1712886*
X1980457Y1713205*
Y1713841*
X1980676Y1714159*
X1981113Y1714477*
X1981551Y1714636*
X1985051Y1718136D02*
Y1716545D01*
X1983082Y1716386*
X1983301Y1716545*
X1983520Y1717023*
Y1717500*
X1983301Y1717977*
X1982863Y1718295*
X1982207Y1718455*
X1981770Y1718295*
X1981113Y1718136*
X1980676Y1717818*
X1980457Y1717341*
Y1716864*
X1980676Y1716386*
X1980895Y1716227*
X1981332Y1716068*
X2004957Y1714636D02*
X2005395Y1714477D01*
X2005832Y1714159*
X2006051Y1713841*
Y1713205*
X2005832Y1712886*
X2005395Y1712568*
X2004957Y1712409*
X2004301Y1712250*
X2003207*
X2002551Y1712409*
X2002113Y1712568*
X2001676Y1712886*
X2001457Y1713205*
Y1713841*
X2001676Y1714159*
X2002113Y1714477*
X2002551Y1714636*
X2005395Y1717977D02*
X2005832Y1717818D01*
X2006051Y1717341*
Y1717023*
X2005832Y1716545*
X2005176Y1716227*
X2004082Y1716068*
X2002988*
X2002113Y1716227*
X2001676Y1716545*
X2001457Y1717023*
Y1717182*
X2001676Y1717659*
X2002113Y1717977*
X2002770Y1718136*
X2002988*
X2003645Y1717977*
X2004082Y1717659*
X2004301Y1717182*
Y1717023*
X2004082Y1716545*
X2003645Y1716227*
X2002988Y1716068*
X2023957Y1714636D02*
X2024395Y1714477D01*
X2024832Y1714159*
X2025051Y1713841*
Y1713205*
X2024832Y1712886*
X2024395Y1712568*
X2023957Y1712409*
X2023301Y1712250*
X2022207*
X2021551Y1712409*
X2021113Y1712568*
X2020676Y1712886*
X2020457Y1713205*
Y1713841*
X2020676Y1714159*
X2021113Y1714477*
X2021551Y1714636*
X2025051Y1718295D02*
X2020457Y1716705D01*
X2025051Y1716068D02*
Y1718295D01*
X2042957Y1714636D02*
X2043395Y1714477D01*
X2043832Y1714159*
X2044051Y1713841*
Y1713205*
X2043832Y1712886*
X2043395Y1712568*
X2042957Y1712409*
X2042301Y1712250*
X2041207*
X2040551Y1712409*
X2040113Y1712568*
X2039676Y1712886*
X2039457Y1713205*
Y1713841*
X2039676Y1714159*
X2040113Y1714477*
X2040551Y1714636*
X2044051Y1716864D02*
X2043832Y1716386D01*
X2043395Y1716227*
X2042957*
X2042520Y1716386*
X2042301Y1716705*
X2042082Y1717341*
X2041863Y1717818*
X2041426Y1718136*
X2040988Y1718295*
X2040332*
X2039895Y1718136*
X2039676Y1717977*
X2039457Y1717500*
Y1716864*
X2039676Y1716386*
X2039895Y1716227*
X2040332Y1716068*
X2040988*
X2041426Y1716227*
X2041863Y1716545*
X2042082Y1717023*
X2042301Y1717659*
X2042520Y1717977*
X2042957Y1718136*
X2043395*
X2043832Y1717977*
X2044051Y1717500*
Y1716864*
X2063957Y1714636D02*
X2064395Y1714477D01*
X2064832Y1714159*
X2065051Y1713841*
Y1713205*
X2064832Y1712886*
X2064395Y1712568*
X2063957Y1712409*
X2063301Y1712250*
X2062207*
X2061551Y1712409*
X2061113Y1712568*
X2060676Y1712886*
X2060457Y1713205*
Y1713841*
X2060676Y1714159*
X2061113Y1714477*
X2061551Y1714636*
X2063520Y1718136D02*
X2062863Y1717977D01*
X2062426Y1717659*
X2062207Y1717182*
Y1717023*
X2062426Y1716545*
X2062863Y1716227*
X2063520Y1716068*
X2063738*
X2064395Y1716227*
X2064832Y1716545*
X2065051Y1717023*
Y1717182*
X2064832Y1717659*
X2064395Y1717977*
X2063520Y1718136*
X2062426*
X2061332Y1717977*
X2060676Y1717659*
X2060457Y1717182*
Y1716864*
X2060676Y1716386*
X2061113Y1716227*
G54D43*
G54D123*
X2103457Y1623856D02*
Y1626219D01*
X2114874Y1630943*
X2110937Y1624644*
X2118811Y1625037*
X2117630Y1626612*
X2122355Y1625431*
X2118418Y1621888*
X2119205Y1623856*
X2107394Y1621888*
X2111725Y1628187*
X2103457Y1623856*
G54D124*
X2103654Y1625431D02*
X2113300Y1629565D01*
X2110150Y1624053*
X2121567Y1625234*
X2103654Y1624841D02*
X2114087Y1630352D01*
X2108575Y1622872*
X2120780Y1624644*
X2118615Y1625825D02*
X2120583Y1625037D01*
X2119402Y1623463*
X2098339Y1625431D02*
X2123929Y1609683D01*
Y1641179*
X2098339Y1625431*
G54D166*
X2004957Y1658750D02*
X1993957D01*
Y1663750*
X2004957*
Y1658750*
X2000957Y1648750D02*
X1989957D01*
Y1653750*
X2000957*
Y1648750*
X2025957Y1645750D02*
X2014957D01*
Y1650750*
X2025957*
Y1645750*
Y1638250D02*
X2014957D01*
Y1643250*
X2025957*
Y1638250*
Y1651750D02*
X2014957D01*
Y1656750*
X2025957*
Y1651750*
G74*
X0Y0D02*
M02*
