%
T1C.01F095S3
X0006Y01125
X00065Y01495
X00785Y0185
X00065Y0216
X00498Y02352
X0077Y0249
X0057Y0249
X0046Y0261
X00615Y02645
X01005Y0264
X0085Y0261
X0124Y0261
X0117Y0249
X0097Y0249
X0126Y0205
X012Y0202
X0126Y0198
X0119Y018
X0103Y0175
X01095Y01745
X0085Y0172
X0081Y0167
X01295Y0164
X01295Y01585
X01455Y0116
X014Y0144
X0169Y01505
X01765Y0176
X016Y0183
X017Y0185
X01445Y01955
X01695Y0197
X0152Y0197
X0159Y0201
X0156Y0249
X0175Y0249
X0136Y0249
X0164Y0261
X014Y02645
X01795Y02645
X0219Y02645
X0203Y0261
X0215Y0249
X0195Y0249
X02105Y0224
X01855Y02095
X01945Y0209
X0218Y0196
X01975Y0193
X0198Y0179
X0189Y0177
X01955Y01635
X0226Y0116
X02475Y019
X0254Y0249
X0234Y0249
X0273Y0249
X0243Y0261
X02585Y02645
X02819Y02674
T2C.02F197S55
X0045Y02785
X0065Y0279
X0084Y0279
X0104Y0279
X004941Y030561
X006909Y030561
X008878Y030561
X016752Y03058
X010846Y030561
X012815Y030561
X014783Y030561
X0143Y0279
X0164Y0279
X0124Y0279
X0183Y0279
X0202Y0279
X0222Y0279
X0242Y0279
X01872Y030561
X024626Y030561
X020689Y03058
X022657Y03058
X026201Y030364
X0261Y0279
T3C.035F197S55
X002362Y013021
X001572Y013021
X002362Y013811
X001572Y013811
X002362Y014601
X001572Y014601
X002362Y015391
X001572Y015391
X002362Y016181
X001572Y016181
X002362Y016971
X001572Y016971
X002362Y017761
X001572Y017761
X002362Y0238
X001572Y0238
X002362Y02459
X001572Y02459
X002362Y02538
X001572Y02538
X002362Y02617
X001572Y02617
X002362Y02696
X001572Y02696
X002362Y02775
X001572Y02775
X002362Y02854
X001572Y02854
X0068Y016987
X014Y016987
X014Y0162
X0068Y0162
X0068Y015413
X014Y015413
X01585Y015413
X0176Y015413
X01585Y0162
X0176Y0162
X01585Y016987
X0176Y016987
T4C.03819F197S55
X0163Y0038
X0173Y0038
X0168Y0048
X0178Y0048
X0188Y0048
X0198Y0048
X0251Y0048
X0183Y0038
X0246Y0038
X0193Y0038
X0256Y0038
X0266Y0038
X0276Y0038
X0271Y0048
X0261Y0048
X0281Y0048
T5C.056F107S55
X004921Y0331
X006299Y0331
X007677Y0331
X009055Y0331
X010433Y0331
X011811Y0331
X013189Y0331
X014567Y0331
X015945Y0331
X017323Y0331
X018701Y0331
X020079Y0331
X021457Y0331
X022835Y0331
X024213Y0331
X025591Y0331
T6C.063F089S55
X005Y00955
X00885Y00955
X005Y0125
X0089Y0125
X005Y0154
X0101Y0165
X0102Y0207
X01225Y0125
T7C.06496F089S55
X015Y0025
X0211Y0025
X0233Y0025
X0294Y0025
T8C.07F081S55
X02975Y0095
X001Y0305
T9C.12795F035S794
X0158Y0013
X0203Y0013
X0241Y0013
X0286Y0013
T10C.187F035S1033
X00195Y00755
X001969Y032313
X0286Y032313
X0286Y00755
M30
