*
*
G04 PADS VX.0 Build Number: 635560 generated Gerber (RS-274-X) file*
G04 PC Version=2.1*
*
%IN "DC2259A-2.pcb"*%
*
%MOIN*%
*
%FSLAX35Y35*%
*
*
*
*
G04 PC Standard Apertures*
*
*
G04 Thermal Relief Aperture macro.*
%AMTER*
1,1,$1,0,0*
1,0,$1-$2,0,0*
21,0,$3,$4,0,0,45*
21,0,$3,$4,0,0,135*
%
*
*
G04 Annular Aperture macro.*
%AMANN*
1,1,$1,0,0*
1,0,$2,0,0*
%
*
*
G04 Odd Aperture macro.*
%AMODD*
1,1,$1,0,0*
1,0,$1-0.005,0,0*
%
*
*
G04 PC Custom Aperture Macros*
*
*
*
*
*
*
G04 PC Aperture Table*
*
%ADD011C,0.01*%
%ADD014C,0.012*%
%ADD022R,0.06X0.06*%
%ADD023C,0.06*%
%ADD036C,0.11*%
%ADD038C,0.02*%
%ADD043C,0.001*%
%ADD097R,0.04X0.05*%
%ADD125R,0.0337X0.03*%
%ADD126R,0.08071X0.08071*%
%ADD127C,0.08553*%
%ADD128R,0.065X0.065*%
%ADD129C,0.06492*%
%ADD130R,0.0315X0.0315*%
%ADD131R,0.03X0.0337*%
%ADD132O,0.06102X0.01811*%
%ADD133O,0.06102X0.015*%
%ADD134O,0.06102X0.01772*%
%ADD135R,0.0473X0.056*%
%ADD137R,0.056X0.0473*%
%ADD138R,0.00984X0.05512*%
%ADD141C,0.125*%
%ADD142C,0.12*%
%ADD143R,0.059X0.059*%
%ADD144C,0.059*%
%ADD146C,0.18701*%
%ADD147R,0.025X0.03*%
%ADD148C,0.04*%
%ADD149C,0.03*%
%ADD150C,0.03937*%
%ADD151C,0.05906*%
%ADD152C,0.024*%
%ADD153C,0.039*%
%ADD164R,0.036X0.048*%
%ADD165C,0.068*%
%ADD167R,0.05906X0.07874*%
%ADD168R,0.14961X0.07874*%
%ADD172R,0.04X0.07*%
%ADD174R,0.03937X0.07874*%
%ADD175R,0.04331X0.08858*%
*
*
*
*
G04 PC Circuitry*
G04 Layer Name DC2259A-2.pcb - circuitry*
%LPD*%
*
*
G04 PC Custom Flashes*
G04 Layer Name DC2259A-2.pcb - flashes*
%LPD*%
*
*
G04 PC Circuitry*
G04 Layer Name DC2259A-2.pcb - circuitry*
%LPD*%
*
G54D11*
G01X1905457Y1425813D02*
Y1419250D01*
X1908184*
X1912048Y1425813D02*
X1910230Y1419250D01*
X1912048Y1425813D02*
X1913866Y1419250D01*
X1910912Y1421438D02*
X1913184D01*
X1915912Y1425813D02*
X1917730Y1422688D01*
X1917730D02*
Y1419250D01*
X1919548Y1425813D02*
X1917730Y1422688D01*
X1921593Y1425813D02*
Y1419250D01*
Y1425813D02*
X1924548D01*
X1921593Y1422688D02*
X1923412D01*
X1921593Y1419250D02*
X1924548D01*
X1926593Y1425813D02*
Y1419250D01*
Y1425813D02*
X1928639D01*
X1928639D02*
X1929321Y1425500D01*
X1929548Y1425188*
X1929548D02*
X1929775Y1424563D01*
X1929775D02*
Y1423938D01*
X1929775D02*
X1929548Y1423313D01*
X1929548D02*
X1929321Y1423000D01*
X1928639Y1422688*
X1928639D02*
X1926593D01*
X1928184D02*
X1929775Y1419250D01*
X1937048Y1424563D02*
X1937502Y1424875D01*
X1938184Y1425813*
X1938184D02*
Y1419250D01*
X1945684Y1423625D02*
X1945457Y1423313D01*
X1945457D02*
X1945684Y1423000D01*
X1945912Y1423313*
X1945912D02*
X1945684Y1423625D01*
Y1419875D02*
X1945457Y1419563D01*
X1945457D02*
X1945684Y1419250D01*
X1945912Y1419563*
X1945912D02*
X1945684Y1419875D01*
X1954775Y1425813D02*
Y1419250D01*
X1953184Y1425813D02*
X1956366D01*
X1959775D02*
X1959321Y1425500D01*
X1958866Y1424875*
X1958639Y1424250*
X1958412Y1423313*
X1958412D02*
Y1421750D01*
X1958639Y1420813*
X1958639D02*
X1958866Y1420188D01*
X1958866D02*
X1959321Y1419563D01*
X1959321D02*
X1959775Y1419250D01*
X1960684*
X1961139Y1419563*
X1961139D02*
X1961593Y1420188D01*
X1961593D02*
X1961821Y1420813D01*
X1961821D02*
X1962048Y1421750D01*
Y1423313*
X1962048D02*
X1961821Y1424250D01*
X1961593Y1424875*
X1961139Y1425500*
X1960684Y1425813*
X1960684D02*
X1959775D01*
X1964093D02*
Y1419250D01*
Y1425813D02*
X1966139D01*
X1966139D02*
X1966821Y1425500D01*
X1967048Y1425188*
X1967048D02*
X1967275Y1424563D01*
X1967275D02*
Y1423625D01*
X1967048Y1423000*
X1966821Y1422688*
X1966821D02*
X1966139Y1422375D01*
X1964093*
X1974548Y1425813D02*
Y1419250D01*
X1977275*
X1981139Y1425813D02*
X1979321Y1419250D01*
X1981139Y1425813D02*
X1982957Y1419250D01*
X1980002Y1421438D02*
X1982275D01*
X1985002Y1425813D02*
X1986821Y1422688D01*
X1986821D02*
Y1419250D01*
X1988639Y1425813D02*
X1986821Y1422688D01*
X1990684Y1425813D02*
Y1419250D01*
Y1425813D02*
X1993639D01*
X1990684Y1422688D02*
X1992502D01*
X1990684Y1419250D02*
X1993639D01*
X1995684Y1425813D02*
Y1419250D01*
Y1425813D02*
X1997730D01*
X1997730D02*
X1998412Y1425500D01*
X1998639Y1425188*
X1998639D02*
X1998866Y1424563D01*
X1998866D02*
Y1423938D01*
X1998866D02*
X1998639Y1423313D01*
X1998639D02*
X1998412Y1423000D01*
X1997730Y1422688*
X1997730D02*
X1995684D01*
X1997275D02*
X1998866Y1419250D01*
X1905457Y1407813D02*
Y1401250D01*
X1908184*
X1910230Y1407813D02*
Y1401250D01*
X1912275Y1407813D02*
Y1401250D01*
Y1407813D02*
X1915457Y1401250D01*
Y1407813D02*
Y1401250D01*
X1917502Y1407813D02*
Y1401250D01*
Y1407813D02*
X1920457D01*
X1917502Y1404688D02*
X1919321D01*
X1917502Y1401250D02*
X1920457D01*
X1924321Y1407813D02*
X1922502Y1401250D01*
X1924321Y1407813D02*
X1926139Y1401250D01*
X1923184Y1403438D02*
X1925457D01*
X1928184Y1407813D02*
Y1401250D01*
Y1407813D02*
X1930230D01*
X1930230D02*
X1930912Y1407500D01*
X1931139Y1407188*
X1931139D02*
X1931366Y1406563D01*
X1931366D02*
Y1405938D01*
X1931366D02*
X1931139Y1405313D01*
X1931139D02*
X1930912Y1405000D01*
X1930230Y1404688*
X1930230D02*
X1928184D01*
X1929775D02*
X1931366Y1401250D01*
X1940230Y1407813D02*
Y1401250D01*
X1938639Y1407813D02*
X1941821D01*
X1943866D02*
Y1401250D01*
Y1407813D02*
X1946821D01*
X1943866Y1404688D02*
X1945684D01*
X1943866Y1401250D02*
X1946821D01*
X1952275Y1406250D02*
X1952048Y1406875D01*
X1951593Y1407500*
X1951139Y1407813*
X1951139D02*
X1950230D01*
X1950230D02*
X1949775Y1407500D01*
X1949321Y1406875*
X1949093Y1406250*
X1948866Y1405313*
X1948866D02*
Y1403750D01*
X1949093Y1402813*
X1949093D02*
X1949321Y1402188D01*
X1949321D02*
X1949775Y1401563D01*
X1949775D02*
X1950230Y1401250D01*
X1951139*
X1951593Y1401563*
X1951593D02*
X1952048Y1402188D01*
X1952048D02*
X1952275Y1402813D01*
X1954321Y1407813D02*
Y1401250D01*
X1957502Y1407813D02*
Y1401250D01*
X1954321Y1404688D02*
X1957502D01*
X1959548Y1407813D02*
Y1401250D01*
Y1407813D02*
X1962730Y1401250D01*
Y1407813D02*
Y1401250D01*
X1966139Y1407813D02*
X1965684Y1407500D01*
X1965230Y1406875*
X1965002Y1406250*
X1964775Y1405313*
X1964775D02*
Y1403750D01*
X1965002Y1402813*
X1965002D02*
X1965230Y1402188D01*
X1965230D02*
X1965684Y1401563D01*
X1965684D02*
X1966139Y1401250D01*
X1967048*
X1967502Y1401563*
X1967502D02*
X1967957Y1402188D01*
X1967957D02*
X1968184Y1402813D01*
X1968184D02*
X1968412Y1403750D01*
Y1405313*
X1968412D02*
X1968184Y1406250D01*
X1967957Y1406875*
X1967502Y1407500*
X1967048Y1407813*
X1967048D02*
X1966139D01*
X1970457D02*
Y1401250D01*
X1973184*
X1976593Y1407813D02*
X1976139Y1407500D01*
X1975684Y1406875*
X1975457Y1406250*
X1975230Y1405313*
X1975230D02*
Y1403750D01*
X1975457Y1402813*
X1975457D02*
X1975684Y1402188D01*
X1975684D02*
X1976139Y1401563D01*
X1976139D02*
X1976593Y1401250D01*
X1977502*
X1977957Y1401563*
X1977957D02*
X1978412Y1402188D01*
X1978412D02*
X1978639Y1402813D01*
X1978639D02*
X1978866Y1403750D01*
Y1405313*
X1978866D02*
X1978639Y1406250D01*
X1978412Y1406875*
X1977957Y1407500*
X1977502Y1407813*
X1977502D02*
X1976593D01*
X1984321Y1406250D02*
X1984093Y1406875D01*
X1983639Y1407500*
X1983184Y1407813*
X1983184D02*
X1982275D01*
X1982275D02*
X1981821Y1407500D01*
X1981366Y1406875*
X1981139Y1406250*
X1980912Y1405313*
X1980912D02*
Y1403750D01*
X1981139Y1402813*
X1981139D02*
X1981366Y1402188D01*
X1981366D02*
X1981821Y1401563D01*
X1981821D02*
X1982275Y1401250D01*
X1983184*
X1983639Y1401563*
X1983639D02*
X1984093Y1402188D01*
X1984093D02*
X1984321Y1402813D01*
X1984321D02*
Y1403750D01*
X1983184D02*
X1984321D01*
X1986366Y1407813D02*
X1988184Y1404688D01*
X1988184D02*
Y1401250D01*
X1990002Y1407813D02*
X1988184Y1404688D01*
X1905457Y1393813D02*
Y1387250D01*
Y1393813D02*
X1907048D01*
X1907048D02*
X1907730Y1393500D01*
X1908184Y1392875*
X1908412Y1392250*
X1908639Y1391313*
X1908639D02*
Y1389750D01*
X1908412Y1388813*
X1908412D02*
X1908184Y1388188D01*
X1908184D02*
X1907730Y1387563D01*
X1907730D02*
X1907048Y1387250D01*
X1905457*
X1914093Y1392250D02*
X1913866Y1392875D01*
X1913412Y1393500*
X1912957Y1393813*
X1912957D02*
X1912048D01*
X1912048D02*
X1911593Y1393500D01*
X1911139Y1392875*
X1910912Y1392250*
X1910684Y1391313*
X1910684D02*
Y1389750D01*
X1910912Y1388813*
X1910912D02*
X1911139Y1388188D01*
X1911139D02*
X1911593Y1387563D01*
X1911593D02*
X1912048Y1387250D01*
X1912957*
X1913412Y1387563*
X1913412D02*
X1913866Y1388188D01*
X1913866D02*
X1914093Y1388813D01*
X1916366Y1392250D02*
Y1392563D01*
X1916366D02*
X1916593Y1393188D01*
X1916593D02*
X1916821Y1393500D01*
X1917275Y1393813*
X1917275D02*
X1918184D01*
X1918184D02*
X1918639Y1393500D01*
X1918866Y1393188*
X1918866D02*
X1919093Y1392563D01*
X1919093D02*
Y1391938D01*
X1919093D02*
X1918866Y1391313D01*
X1918866D02*
X1918412Y1390375D01*
X1916139Y1387250*
X1919321*
X1921593Y1392250D02*
Y1392563D01*
X1921593D02*
X1921821Y1393188D01*
X1921821D02*
X1922048Y1393500D01*
X1922502Y1393813*
X1922502D02*
X1923412D01*
X1923412D02*
X1923866Y1393500D01*
X1924093Y1393188*
X1924093D02*
X1924321Y1392563D01*
X1924321D02*
Y1391938D01*
X1924321D02*
X1924093Y1391313D01*
X1924093D02*
X1923639Y1390375D01*
X1921366Y1387250*
X1924548*
X1929548Y1393813D02*
X1927275D01*
X1927275D02*
X1927048Y1391000D01*
X1927275Y1391313*
X1927275D02*
X1927957Y1391625D01*
X1928639*
X1929321Y1391313*
X1929321D02*
X1929775Y1390688D01*
X1929775D02*
X1930002Y1389750D01*
X1929775Y1389125*
X1929548Y1388188*
X1929548D02*
X1929093Y1387563D01*
X1929093D02*
X1928412Y1387250D01*
X1927730*
X1927048Y1387563*
X1927048D02*
X1926821Y1387875D01*
X1926593Y1388500*
X1935002Y1391625D02*
X1934775Y1390688D01*
X1934775D02*
X1934321Y1390063D01*
X1934321D02*
X1933639Y1389750D01*
X1933412*
X1932730Y1390063*
X1932730D02*
X1932275Y1390688D01*
X1932275D02*
X1932048Y1391625D01*
Y1391938*
X1932048D02*
X1932275Y1392875D01*
X1932730Y1393500*
X1933412Y1393813*
X1933412D02*
X1933639D01*
X1933639D02*
X1934321Y1393500D01*
X1934775Y1392875*
X1935002Y1391625*
Y1390063*
X1935002D02*
X1934775Y1388500D01*
X1934321Y1387563*
X1934321D02*
X1933639Y1387250D01*
X1933184*
X1932502Y1387563*
X1932502D02*
X1932275Y1388188D01*
X1938866Y1393813D02*
X1937048Y1387250D01*
X1938866Y1393813D02*
X1940684Y1387250D01*
X1937730Y1389438D02*
X1940002D01*
X1942730Y1390063D02*
X1946821D01*
X1949093Y1392250D02*
Y1392563D01*
X1949093D02*
X1949321Y1393188D01*
X1949321D02*
X1949548Y1393500D01*
X1950002Y1393813*
X1950002D02*
X1950912D01*
X1950912D02*
X1951366Y1393500D01*
X1951593Y1393188*
X1951593D02*
X1951821Y1392563D01*
X1951821D02*
Y1391938D01*
X1951821D02*
X1951593Y1391313D01*
X1951593D02*
X1951139Y1390375D01*
X1948866Y1387250*
X1952048*
X1954093Y1390063D02*
X1958184D01*
X1970684Y1393813D02*
Y1387250D01*
X1973412*
X1977048Y1393813D02*
Y1387250D01*
X1975457Y1393813D02*
X1978639D01*
X1984093Y1392250D02*
X1983866Y1392875D01*
X1983412Y1393500*
X1982957Y1393813*
X1982957D02*
X1982048D01*
X1982048D02*
X1981593Y1393500D01*
X1981139Y1392875*
X1980912Y1392250*
X1980684Y1391313*
X1980684D02*
Y1389750D01*
X1980912Y1388813*
X1980912D02*
X1981139Y1388188D01*
X1981139D02*
X1981593Y1387563D01*
X1981593D02*
X1982048Y1387250D01*
X1982957*
X1983412Y1387563*
X1983412D02*
X1983866Y1388188D01*
X1983866D02*
X1984093Y1388813D01*
X1988866Y1392875D02*
X1988639Y1393500D01*
X1987957Y1393813*
X1987957D02*
X1987502D01*
X1987502D02*
X1986821Y1393500D01*
X1986366Y1392563*
X1986366D02*
X1986139Y1391000D01*
Y1389438*
X1986139D02*
X1986366Y1388188D01*
X1986366D02*
X1986821Y1387563D01*
X1986821D02*
X1987502Y1387250D01*
X1987730*
X1988412Y1387563*
X1988412D02*
X1988866Y1388188D01*
X1988866D02*
X1989093Y1389125D01*
Y1389438*
X1989093D02*
X1988866Y1390375D01*
X1988412Y1391000*
X1987730Y1391313*
X1987730D02*
X1987502D01*
X1987502D02*
X1986821Y1391000D01*
X1986366Y1390375*
X1986139Y1389438*
X1992275Y1393813D02*
X1991593Y1393500D01*
X1991366Y1392875*
Y1392250*
X1991593Y1391625*
X1992048Y1391313*
X1992048D02*
X1992957Y1391000D01*
X1993639Y1390688*
X1993639D02*
X1994093Y1390063D01*
X1994093D02*
X1994321Y1389438D01*
X1994321D02*
Y1388500D01*
X1994093Y1387875*
X1993866Y1387563*
X1993866D02*
X1993184Y1387250D01*
X1992275*
X1991593Y1387563*
X1991593D02*
X1991366Y1387875D01*
X1991139Y1388500*
Y1389438*
X1991139D02*
X1991366Y1390063D01*
X1991366D02*
X1991821Y1390688D01*
X1991821D02*
X1992502Y1391000D01*
X1993412Y1391313*
X1993412D02*
X1993866Y1391625D01*
X1994093Y1392250*
Y1392875*
X1993866Y1393500*
X1993184Y1393813*
X1993184D02*
X1992275D01*
X1996366Y1392563D02*
X1996821Y1392875D01*
X1997502Y1393813*
X1997502D02*
Y1387250D01*
X1999548Y1392563D02*
X2000002Y1392875D01*
X2000684Y1393813*
X2000684D02*
Y1387250D01*
X2002730Y1393813D02*
Y1387250D01*
X2008184Y1392250D02*
X2007957Y1392875D01*
X2007502Y1393500*
X2007048Y1393813*
X2007048D02*
X2006139D01*
X2006139D02*
X2005684Y1393500D01*
X2005230Y1392875*
X2005002Y1392250*
X2004775Y1391313*
X2004775D02*
Y1389750D01*
X2005002Y1388813*
X2005002D02*
X2005230Y1388188D01*
X2005230D02*
X2005684Y1387563D01*
X2005684D02*
X2006139Y1387250D01*
X2007048*
X2007502Y1387563*
X2007502D02*
X2007957Y1388188D01*
X2007957D02*
X2008184Y1388813D01*
X2008184D02*
Y1389750D01*
X2007048D02*
X2008184D01*
X2010230Y1390063D02*
X2014321D01*
X2016366Y1392563D02*
X2016821Y1392875D01*
X2017502Y1393813*
X2017502D02*
Y1387250D01*
X2006457Y1409813D02*
Y1403250D01*
Y1409813D02*
X2008048D01*
X2008048D02*
X2008730Y1409500D01*
X2009184Y1408875*
X2009412Y1408250*
X2009639Y1407313*
X2009639D02*
Y1405750D01*
X2009412Y1404813*
X2009412D02*
X2009184Y1404188D01*
X2009184D02*
X2008730Y1403563D01*
X2008730D02*
X2008048Y1403250D01*
X2006457*
X2013502Y1409813D02*
X2011684Y1403250D01*
X2013502Y1409813D02*
X2015321Y1403250D01*
X2012366Y1405438D02*
X2014639D01*
X2018957Y1409813D02*
Y1403250D01*
X2017366Y1409813D02*
X2020548D01*
X2022593D02*
Y1403250D01*
Y1409813D02*
X2025548D01*
X2022593Y1406688D02*
X2024412D01*
X2022593Y1403250D02*
X2025548D01*
X2027821Y1407625D02*
X2027593Y1407313D01*
X2027593D02*
X2027821Y1407000D01*
X2028048Y1407313*
X2028048D02*
X2027821Y1407625D01*
Y1403875D02*
X2027593Y1403563D01*
X2027593D02*
X2027821Y1403250D01*
X2028048Y1403563*
X2028048D02*
X2027821Y1403875D01*
X2036684Y1409813D02*
X2036002Y1409500D01*
X2035548Y1408563*
X2035548D02*
X2035321Y1407000D01*
Y1406063*
X2035321D02*
X2035548Y1404500D01*
X2036002Y1403563*
X2036002D02*
X2036684Y1403250D01*
X2037139*
X2037821Y1403563*
X2037821D02*
X2038275Y1404500D01*
X2038502Y1406063*
X2038502D02*
Y1407000D01*
X2038275Y1408563*
X2038275D02*
X2037821Y1409500D01*
X2037139Y1409813*
X2037139D02*
X2036684D01*
X2043275Y1408875D02*
X2043048Y1409500D01*
X2042366Y1409813*
X2042366D02*
X2041912D01*
X2041912D02*
X2041230Y1409500D01*
X2040775Y1408563*
X2040775D02*
X2040548Y1407000D01*
Y1405438*
X2040548D02*
X2040775Y1404188D01*
X2040775D02*
X2041230Y1403563D01*
X2041230D02*
X2041912Y1403250D01*
X2042139*
X2042821Y1403563*
X2042821D02*
X2043275Y1404188D01*
X2043275D02*
X2043502Y1405125D01*
Y1405438*
X2043502D02*
X2043275Y1406375D01*
X2042821Y1407000*
X2042139Y1407313*
X2042139D02*
X2041912D01*
X2041912D02*
X2041230Y1407000D01*
X2040775Y1406375*
X2040548Y1405438*
X2045548Y1406063D02*
X2049639D01*
X2051684Y1408563D02*
X2052139Y1408875D01*
X2052821Y1409813*
X2052821D02*
Y1403250D01*
X2057821Y1409813D02*
X2055548D01*
X2055548D02*
X2055321Y1407000D01*
X2055548Y1407313*
X2055548D02*
X2056230Y1407625D01*
X2056912*
X2057593Y1407313*
X2057593D02*
X2058048Y1406688D01*
X2058048D02*
X2058275Y1405750D01*
X2058048Y1405125*
X2057821Y1404188*
X2057821D02*
X2057366Y1403563D01*
X2057366D02*
X2056684Y1403250D01*
X2056002*
X2055321Y1403563*
X2055321D02*
X2055093Y1403875D01*
X2054866Y1404500*
X2060321Y1406063D02*
X2064412D01*
X2066457Y1408563D02*
X2066912Y1408875D01*
X2067593Y1409813*
X2067593D02*
Y1403250D01*
X2072593Y1409813D02*
X2070321D01*
X2070321D02*
X2070093Y1407000D01*
X2070321Y1407313*
X2070321D02*
X2071002Y1407625D01*
X2071684*
X2072366Y1407313*
X2072366D02*
X2072821Y1406688D01*
X2072821D02*
X2073048Y1405750D01*
X2072821Y1405125*
X2072593Y1404188*
X2072593D02*
X2072139Y1403563D01*
X2072139D02*
X2071457Y1403250D01*
X2070775*
X2070093Y1403563*
X2070093D02*
X2069866Y1403875D01*
X2069639Y1404500*
X1905457Y1379813D02*
X1905684Y1379500D01*
X1905912Y1379813*
X1905912D02*
X1905684Y1380125D01*
X1905457Y1379813*
X1905684Y1377625D02*
Y1373250D01*
X1910457Y1376688D02*
X1910230Y1377313D01*
X1910230D02*
X1909548Y1377625D01*
X1908866*
X1908184Y1377313*
X1908184D02*
X1907957Y1376688D01*
X1907957D02*
X1908184Y1376063D01*
X1908184D02*
X1908639Y1375750D01*
X1909775Y1375438*
X1909775D02*
X1910230Y1375125D01*
X1910457Y1374500*
Y1374188*
X1910457D02*
X1910230Y1373563D01*
X1910230D02*
X1909548Y1373250D01*
X1908866*
X1908184Y1373563*
X1908184D02*
X1907957Y1374188D01*
X1913639Y1377625D02*
X1913184Y1377313D01*
X1913184D02*
X1912730Y1376688D01*
X1912730D02*
X1912502Y1375750D01*
Y1375125*
X1912730Y1374188*
X1912730D02*
X1913184Y1373563D01*
X1913184D02*
X1913639Y1373250D01*
X1914321*
X1914775Y1373563*
X1914775D02*
X1915230Y1374188D01*
X1915230D02*
X1915457Y1375125D01*
Y1375750*
X1915230Y1376688*
X1915230D02*
X1914775Y1377313D01*
X1914775D02*
X1914321Y1377625D01*
X1913639*
X1920684Y1378875D02*
X1920230Y1379500D01*
X1919548Y1379813*
X1919548D02*
X1918639D01*
X1918639D02*
X1917957Y1379500D01*
X1917502Y1378875*
Y1378250*
X1917730Y1377625*
X1917957Y1377313*
X1917957D02*
X1918412Y1377000D01*
X1919775Y1376375*
X1920230Y1376063*
X1920230D02*
X1920457Y1375750D01*
X1920684Y1375125*
Y1374188*
X1920684D02*
X1920230Y1373563D01*
X1920230D02*
X1919548Y1373250D01*
X1918639*
X1917957Y1373563*
X1917957D02*
X1917502Y1374188D01*
X1922730Y1379813D02*
Y1373250D01*
Y1379813D02*
X1924775D01*
X1924775D02*
X1925457Y1379500D01*
X1925684Y1379188*
X1925684D02*
X1925912Y1378563D01*
X1925912D02*
Y1377625D01*
X1925684Y1377000*
X1925457Y1376688*
X1925457D02*
X1924775Y1376375D01*
X1922730*
X1927957Y1379813D02*
Y1373250D01*
X1935230Y1378563D02*
X1935684Y1378875D01*
X1936366Y1379813*
X1936366D02*
Y1373250D01*
X1938639Y1378250D02*
Y1378563D01*
X1938639D02*
X1938866Y1379188D01*
X1938866D02*
X1939093Y1379500D01*
X1939548Y1379813*
X1939548D02*
X1940457D01*
X1940457D02*
X1940912Y1379500D01*
X1941139Y1379188*
X1941139D02*
X1941366Y1378563D01*
X1941366D02*
Y1377938D01*
X1941366D02*
X1941139Y1377313D01*
X1941139D02*
X1940684Y1376375D01*
X1938412Y1373250*
X1941593*
X1943639Y1376063D02*
X1947730D01*
X1953184Y1378250D02*
X1952957Y1378875D01*
X1952502Y1379500*
X1952048Y1379813*
X1952048D02*
X1951139D01*
X1951139D02*
X1950684Y1379500D01*
X1950230Y1378875*
X1950002Y1378250*
X1949775Y1377313*
X1949775D02*
Y1375750D01*
X1950002Y1374813*
X1950002D02*
X1950230Y1374188D01*
X1950230D02*
X1950684Y1373563D01*
X1950684D02*
X1951139Y1373250D01*
X1952048*
X1952502Y1373563*
X1952502D02*
X1952957Y1374188D01*
X1952957D02*
X1953184Y1374813D01*
X1955230Y1379813D02*
Y1373250D01*
Y1379813D02*
X1958184D01*
X1955230Y1376688D02*
X1957048D01*
X1955230Y1373250D02*
X1958184D01*
X1960230Y1379813D02*
Y1373250D01*
X1962957*
X1965002Y1379813D02*
Y1373250D01*
X1967730*
X1975002Y1379813D02*
Y1373250D01*
Y1379813D02*
X1977048D01*
X1977048D02*
X1977730Y1379500D01*
X1977957Y1379188*
X1977957D02*
X1978184Y1378563D01*
X1978184D02*
Y1377938D01*
X1978184D02*
X1977957Y1377313D01*
X1977957D02*
X1977730Y1377000D01*
X1977048Y1376688*
X1975002D02*
X1977048D01*
X1977048D02*
X1977730Y1376375D01*
X1977957Y1376063*
X1977957D02*
X1978184Y1375438D01*
X1978184D02*
Y1374500D01*
X1977957Y1373875*
X1977730Y1373563*
X1977730D02*
X1977048Y1373250D01*
X1975002*
X1982048Y1379813D02*
X1980230Y1373250D01*
X1982048Y1379813D02*
X1983866Y1373250D01*
X1980912Y1375438D02*
X1983184D01*
X1987502Y1379813D02*
Y1373250D01*
X1985912Y1379813D02*
X1989093D01*
X1992730D02*
Y1373250D01*
X1991139Y1379813D02*
X1994321D01*
X1996366D02*
Y1373250D01*
Y1379813D02*
X1999321D01*
X1996366Y1376688D02*
X1998184D01*
X1996366Y1373250D02*
X1999321D01*
X2001366Y1379813D02*
Y1373250D01*
Y1379813D02*
X2003412D01*
X2003412D02*
X2004093Y1379500D01*
X2004321Y1379188*
X2004321D02*
X2004548Y1378563D01*
X2004548D02*
Y1377938D01*
X2004548D02*
X2004321Y1377313D01*
X2004321D02*
X2004093Y1377000D01*
X2003412Y1376688*
X2003412D02*
X2001366D01*
X2002957D02*
X2004548Y1373250D01*
X2006593Y1379813D02*
X2008412Y1376688D01*
X2008412D02*
Y1373250D01*
X2010230Y1379813D02*
X2008412Y1376688D01*
X2012275Y1376063D02*
X2016366D01*
X2021593Y1378875D02*
X2021139Y1379500D01*
X2020457Y1379813*
X2020457D02*
X2019548D01*
X2019548D02*
X2018866Y1379500D01*
X2018412Y1378875*
Y1378250*
X2018639Y1377625*
X2018866Y1377313*
X2018866D02*
X2019321Y1377000D01*
X2020684Y1376375*
X2021139Y1376063*
X2021139D02*
X2021366Y1375750D01*
X2021593Y1375125*
Y1374188*
X2021593D02*
X2021139Y1373563D01*
X2021139D02*
X2020457Y1373250D01*
X2019548*
X2018866Y1373563*
X2018866D02*
X2018412Y1374188D01*
X2025230Y1379813D02*
Y1373250D01*
X2023639Y1379813D02*
X2026821D01*
X2030684D02*
X2028866Y1373250D01*
X2030684Y1379813D02*
X2032502Y1373250D01*
X2029548Y1375438D02*
X2031821D01*
X2037957Y1378250D02*
X2037730Y1378875D01*
X2037275Y1379500*
X2036821Y1379813*
X2036821D02*
X2035912D01*
X2035912D02*
X2035457Y1379500D01*
X2035002Y1378875*
X2034775Y1378250*
X2034548Y1377313*
X2034548D02*
Y1375750D01*
X2034775Y1374813*
X2034775D02*
X2035002Y1374188D01*
X2035002D02*
X2035457Y1373563D01*
X2035457D02*
X2035912Y1373250D01*
X2036821*
X2037275Y1373563*
X2037275D02*
X2037730Y1374188D01*
X2037730D02*
X2037957Y1374813D01*
X2040002Y1379813D02*
Y1373250D01*
X2043184Y1379813D02*
X2040002Y1375438D01*
X2041139Y1377000D02*
X2043184Y1373250D01*
X2050457Y1379813D02*
Y1373250D01*
Y1379813D02*
X2052275Y1373250D01*
X2054093Y1379813D02*
X2052275Y1373250D01*
X2054093Y1379813D02*
Y1373250D01*
X2057502Y1379813D02*
X2057048Y1379500D01*
X2056593Y1378875*
X2056366Y1378250*
X2056139Y1377313*
X2056139D02*
Y1375750D01*
X2056366Y1374813*
X2056366D02*
X2056593Y1374188D01*
X2056593D02*
X2057048Y1373563D01*
X2057048D02*
X2057502Y1373250D01*
X2058412*
X2058866Y1373563*
X2058866D02*
X2059321Y1374188D01*
X2059321D02*
X2059548Y1374813D01*
X2059548D02*
X2059775Y1375750D01*
Y1377313*
X2059775D02*
X2059548Y1378250D01*
X2059321Y1378875*
X2058866Y1379500*
X2058412Y1379813*
X2058412D02*
X2057502D01*
X2061821D02*
Y1373250D01*
Y1379813D02*
X2065002Y1373250D01*
Y1379813D02*
Y1373250D01*
X2067048Y1379813D02*
Y1373250D01*
X2070684Y1379813D02*
Y1373250D01*
X2069093Y1379813D02*
X2072275D01*
X2075684D02*
X2075230Y1379500D01*
X2074775Y1378875*
X2074548Y1378250*
X2074321Y1377313*
X2074321D02*
Y1375750D01*
X2074548Y1374813*
X2074548D02*
X2074775Y1374188D01*
X2074775D02*
X2075230Y1373563D01*
X2075230D02*
X2075684Y1373250D01*
X2076593*
X2077048Y1373563*
X2077048D02*
X2077502Y1374188D01*
X2077502D02*
X2077730Y1374813D01*
X2077730D02*
X2077957Y1375750D01*
Y1377313*
X2077957D02*
X2077730Y1378250D01*
X2077502Y1378875*
X2077048Y1379500*
X2076593Y1379813*
X2076593D02*
X2075684D01*
X2080002D02*
Y1373250D01*
Y1379813D02*
X2082048D01*
X2082048D02*
X2082730Y1379500D01*
X2082957Y1379188*
X2082957D02*
X2083184Y1378563D01*
X2083184D02*
Y1377938D01*
X2083184D02*
X2082957Y1377313D01*
X2082957D02*
X2082730Y1377000D01*
X2082048Y1376688*
X2082048D02*
X2080002D01*
X2081593D02*
X2083184Y1373250D01*
X2015457Y1508250D02*
Y1515179D01*
X2025268Y1524990*
X2098457Y1508250D02*
Y1514750D01*
X2106268Y1522250*
Y1524990*
X2001646D02*
X2010457Y1516179D01*
Y1498250*
X2082646Y1524990D02*
X2083217D01*
X2093457Y1514750*
Y1498250*
X1897457Y1585250D02*
X1907457D01*
X1928457Y1606250*
Y1627250*
X1935957Y1555750D02*
X1952947Y1572740D01*
X1971947*
X1980754Y1581547*
Y1634047*
X1982457Y1635750*
X1986457*
X1988957Y1638250*
X2002457*
X2007457Y1643250*
X1969957Y1585250D02*
X1970137Y1585430D01*
Y1621750*
X2002457Y1576430D02*
X2002828Y1576801D01*
X2008733*
X2024457Y1583070D02*
X2002457D01*
X1996957*
X2001646Y1567510D02*
X2002386Y1568250D01*
X2002457*
Y1576430*
X2024457D02*
X2025268Y1575619D01*
Y1567510*
X2018181Y1576801D02*
X2024086D01*
X2024457Y1576430*
X2082957D02*
X2087361D01*
X2089733Y1576801*
X2105957Y1583070D02*
X2082957D01*
X2076457*
X2082646Y1567510D02*
X2082957Y1567821D01*
Y1576430*
X2105957D02*
Y1567821D01*
X2106268Y1567510*
X2099181Y1576801D02*
X2105586D01*
X2105957Y1576430*
X1850957Y1629063D02*
X1857957Y1622063D01*
X1863179*
X1850957Y1629063D02*
Y1665750D01*
X1856457Y1671250*
X1869334*
Y1671368*
X1871079Y1629963D02*
X1877457D01*
X1879457Y1631963*
Y1659250*
X1880957Y1660750*
X1885922*
X1886032Y1660640*
X1871079Y1622063D02*
X1881344D01*
X1882994Y1623713*
Y1657750*
X1886032*
Y1657923*
X1928457Y1627250D02*
Y1635050D01*
X1928657Y1635250*
X1970107Y1627252D02*
X1970137Y1627282D01*
Y1632250*
X1970107Y1627252D02*
X1970137Y1621750D01*
X1948457Y1625250D02*
X1957777D01*
X1963617Y1631090*
Y1640090*
X1963777Y1640250*
X1970137Y1621750D02*
Y1626750D01*
X1987457Y1604250D02*
Y1614376D01*
X2002137Y1604250D02*
X2005957Y1608070D01*
Y1614376*
X2008777Y1604250D02*
X2013137D01*
X2013457Y1603930*
X2001957Y1600750D02*
X2003457Y1599250D01*
X2008733*
Y1595699*
X2001957Y1600750D02*
Y1604070D01*
X2002137Y1604250*
X1998957Y1630570D02*
X2005457D01*
X2005701Y1630326*
X2005959*
X2005957Y1630124*
Y1622250D02*
X2012756Y1629049D01*
Y1650864*
X1987457Y1622250D02*
X1990957D01*
X1993457Y1624750*
Y1632750*
X1996457Y1635750*
X2003957*
X2010788Y1642581*
Y1650864*
X1987457Y1614376D02*
X1993083D01*
X1998957Y1620250*
Y1623930*
X2014725Y1629750D02*
Y1629250D01*
X2021457Y1622518*
X2023189*
X2023457Y1622250*
X2014725Y1629750D02*
X2014725D01*
Y1630750*
X2014725*
Y1642630*
Y1650864*
X2013457Y1603930D02*
X2018817D01*
X2019137Y1604250*
X2018181Y1595699D02*
Y1599250D01*
X2024457*
X2025957Y1600750*
Y1604070*
X2023457Y1630124D02*
X2027331Y1626250D01*
X2030277*
X2030457Y1625930*
X2023457Y1614376D02*
Y1606570D01*
X2025777Y1604250*
X2025957Y1604070*
X1854457Y1632250D02*
Y1654423D01*
X1857957Y1657923*
X1862032*
X1854457Y1632250D02*
X1856744Y1629963D01*
X1863179*
X1886032Y1665915D02*
X1890957D01*
X1892792Y1667750*
X1894259*
X1894307Y1667798*
X1886032Y1660640D02*
X1886550Y1660750D01*
X1894307*
Y1661158*
X1886032Y1657923D02*
X1900127D01*
X1900457Y1660930*
X1862032Y1657923D02*
X1867733D01*
Y1663199*
X1862032Y1660640D02*
X1867733D01*
Y1663199*
X1862032D02*
X1867733D01*
Y1665915*
X1862032*
X1867733*
Y1663199*
X1928657Y1635250D02*
Y1638250D01*
X1930157Y1639750*
X1943457*
Y1638930*
X1894307Y1667798D02*
X1896957D01*
X1897928Y1666827*
X1898034*
X1900457Y1667570*
X1966457Y1640250D02*
X1967957Y1641750D01*
X1983457*
X1987166Y1645459*
Y1649250*
Y1650864*
X1956957Y1634750D02*
X1957137Y1634930D01*
Y1640250*
X1936257Y1645250D02*
X1943137D01*
X1943457Y1645570*
X1936257Y1635250D02*
X1936457D01*
Y1585250*
X1936257Y1635250D02*
X1950457D01*
Y1638930*
X1967457Y1662250D02*
X1968457Y1661250D01*
X1995008*
X1997008Y1659250*
Y1650864*
X1963777Y1645250D02*
X1969957D01*
X1971457Y1643750*
X1982457*
X1985197Y1646490*
Y1650250*
Y1650864*
X1957137Y1640250D02*
Y1645250D01*
X1963777Y1640250D02*
X1966457D01*
X1950457Y1645570D02*
X1956817D01*
X1957137Y1645250*
X1943457Y1645570D02*
X1950457D01*
X1970137Y1632250D02*
X1970297Y1632410D01*
Y1637090*
X1972957Y1639750*
X1984457*
X1989134Y1644427*
Y1650864*
X1949457Y1667250D02*
Y1665570D01*
X1963777Y1651250*
Y1645250*
X2006457Y1661250D02*
X2009457Y1664250D01*
X2057457*
X2065457Y1656250*
X1991957Y1655750D02*
X1992957Y1654750D01*
Y1650978*
X1993071Y1650864*
X2004882Y1659250D02*
Y1655479D01*
Y1650864*
Y1659250D02*
X2006457Y1660825D01*
Y1661250*
X2007457Y1643250D02*
X2008819Y1644612D01*
Y1650864*
X2006851D02*
Y1657250D01*
X2010851Y1661250*
X2055457*
X2067457Y1649250*
X2072278*
Y1650220*
X2072357Y1649750*
X1973457Y1665250D02*
X2001457D01*
X2002914Y1663793*
Y1650864*
X1973457Y1658250D02*
X1974457Y1659250D01*
X1993540*
X1995040Y1657750*
Y1650864*
X1999457Y1657250D02*
X2000945Y1655762D01*
Y1650864*
X1976777Y1632250D02*
Y1635570D01*
X1978797Y1637590*
X1985297*
X1988457Y1640750*
X1997957*
X1998777Y1641570*
Y1644250*
X1998977Y1645450*
Y1650864*
X1991103D02*
Y1654896D01*
X1991957Y1655750*
X2044957Y1653250D02*
X2042637Y1655570D01*
X2042957*
Y1637930D02*
X2042613Y1635295D01*
X2042957Y1634951*
Y1633570*
X2023957Y1636250D02*
X2024137Y1636070D01*
X2026998*
X2030315Y1632754*
Y1632736*
X2030457Y1632570*
X2042957Y1644570D02*
X2045637D01*
X2089457Y1600750*
Y1595974*
X2089733Y1595699*
X2042957Y1637930D02*
X2043137Y1637750D01*
X2043957*
X2045457Y1639250*
X2017457Y1645250D02*
X2018572Y1646365D01*
X2018662*
Y1650864*
X2042957Y1648930D02*
X2045950D01*
X2093044Y1601837*
X2097595*
X2099181Y1600250*
Y1595699*
X2026536Y1650864D02*
Y1648930D01*
X2042957*
X2024567Y1650864D02*
Y1647250D01*
X2026567Y1645250*
X2039457*
X2042957*
Y1644570*
X2022599Y1650864D02*
Y1643570D01*
X2025277Y1640892*
Y1640750*
X2016693Y1650864D02*
Y1657250D01*
X2025277Y1640750D02*
X2029637D01*
X2018637D02*
X2018810D01*
X2020630Y1642570*
Y1649664*
Y1650864*
X2090557Y1649750D02*
X2091057Y1650250D01*
X2094957*
X2081457Y1649750D02*
Y1650250D01*
X1887221Y1706775D02*
X1891998D01*
X1892169Y1706604*
X1887221Y1706775D02*
Y1711694D01*
X1887457Y1711930*
X1892169Y1706604D02*
X1892257Y1706516D01*
Y1704424*
X1895489Y1701193*
X1908677Y1701093*
X1912615Y1697156*
X1912615D02*
X1925803D01*
X1929740Y1693219*
X1944307*
X1950276Y1687250*
X1957957*
X1961457Y1683750*
Y1659750*
X1975185Y1646022*
X1981729*
X1983229Y1647522*
Y1650864*
X1924457Y1709250D02*
Y1706604D01*
X1904457Y1709250D02*
Y1706604D01*
X1924457D02*
X1931539D01*
X1911854D02*
X1904457D01*
X1912811*
Y1703455*
X1915174Y1701093*
X1928559*
X1932496Y1697156*
X1946670*
X1951394Y1692431*
X1962418*
X1968627Y1686221*
X1979486*
X1981260Y1684447*
Y1677636*
X1931539Y1706604D02*
X1932300D01*
X1932496Y1706407*
Y1703848*
X1935252Y1701093*
X1948835*
X1952772Y1697156*
X1964977*
X1971382Y1690750*
X1980957*
X1985197Y1686510*
Y1677636*
X1918494Y1706604D02*
X1918520Y1706828D01*
Y1711946*
X1918494Y1706604D02*
X1924457D01*
X1904457D02*
X1898809D01*
X1898835Y1706631*
Y1711946*
X1951224Y1706604D02*
X1944307D01*
Y1709100*
X1944457Y1709250*
X1964457D02*
Y1706604D01*
X1970909*
X1972063*
Y1703061*
X1975782Y1699342*
X1984365*
X1993071Y1690636*
Y1677636*
X1951224Y1706604D02*
X1952181D01*
Y1704045*
X1955134Y1701093*
X1967733*
X1973575Y1695250*
X1982457*
X1989134Y1688573*
Y1677636*
X1957864Y1706604D02*
Y1711919D01*
X1957890Y1711946*
X1957864Y1706604D02*
X1964457D01*
X1938179D02*
Y1711919D01*
X1938205Y1711946*
X1938179Y1706604D02*
X1944307D01*
X2002914Y1677636D02*
Y1693207D01*
X2013914Y1704207*
Y1709250*
X2004882Y1677636D02*
Y1692175D01*
X2016945Y1704238*
Y1707250*
X2008819Y1677636D02*
Y1690112D01*
X2019957Y1701250*
X2034247*
X2036627Y1703630*
Y1706802*
X2036630Y1711946*
X2006851Y1677636D02*
Y1691144D01*
X2018957Y1703250*
X2032095*
X2033284Y1704439*
Y1709387*
X2010672Y1706604D02*
X2003457D01*
Y1709250*
X1983457D02*
X1983677Y1709030D01*
Y1706604*
X2010788Y1677636D02*
Y1689081D01*
X2020957Y1699250*
X2037457*
X2041268Y1703061*
X2051219*
X2052969Y1704811*
Y1709387*
X2000945Y1677636D02*
Y1694238D01*
X2010672Y1703965*
Y1706604*
X1990594D02*
X1983677D01*
X1990567*
Y1699140*
X1997008Y1692699*
Y1677636*
X2012756D02*
Y1688049D01*
X2022256Y1697549*
X2038756*
X2042300Y1701093*
X2054150*
X2056289Y1703231*
Y1706604*
X1997234D02*
X1997260Y1706828D01*
Y1711946*
X1997234Y1706604D02*
X2003457D01*
X1977549D02*
Y1711919D01*
X1977575Y1711946*
X1977549Y1706604D02*
X1983677D01*
X2022599Y1677636D02*
Y1682392D01*
X2026929Y1686722*
X2042929*
X2047457Y1691250*
X2068323*
X2072260Y1695187*
X2077378*
X2081315Y1699124*
X2097851*
X2101788Y1703061*
X2110668*
X2112221Y1704614*
Y1709190*
X2016693Y1677636D02*
Y1685986D01*
X2023926Y1693219*
X2040426*
X2044363Y1697156*
X2064386*
X2068323Y1701093*
X2073835*
X2075974Y1703231*
Y1706604*
X2020630Y1677636D02*
Y1683423D01*
X2026095Y1688888*
X2042095*
X2046426Y1693219*
X2067142*
X2071079Y1697156*
X2076197*
X2080134Y1701093*
X2093935*
X2095685Y1702843*
Y1711946*
X2016945D02*
Y1707250D01*
Y1706972*
X2017312Y1706604*
X2018662Y1684455D02*
Y1682587D01*
Y1677636*
Y1684455D02*
X2025260Y1691053D01*
X2041260*
X2045394Y1695187*
X2065764*
X2069701Y1699124*
X2075016*
X2078953Y1703061*
X2090589*
X2092339Y1704811*
Y1709557*
X2022457Y1709250D02*
Y1706604D01*
X2029964*
X2049649D02*
X2042339D01*
Y1709132*
X2042457Y1709250*
X2017312Y1706604D02*
X2022457D01*
X2014725Y1677636D02*
Y1687018D01*
X2023091Y1695384*
X2039591*
X2043331Y1699124*
X2063008*
X2066945Y1703061*
X2070904*
X2072654Y1704811*
Y1709387*
X2024567Y1677636D02*
Y1681360D01*
X2027764Y1684557*
X2043764*
X2048489Y1689281*
X2069504*
X2073441Y1693219*
X2078559*
X2082496Y1697156*
X2099819*
X2103756Y1701093*
X2112811*
X2115344Y1703625*
Y1706604*
X2026536Y1677636D02*
Y1680250D01*
X2036457*
Y1679950*
X2036957Y1679450*
X2043337*
X2036604Y1706604D02*
X2036627Y1706802D01*
X2036630Y1706828*
Y1711946*
X2036604Y1706604D02*
X2042339D01*
X2043137Y1679750D02*
X2043337Y1679450D01*
X2081457Y1709250D02*
Y1706604D01*
X2083949*
X2083957Y1706613*
X2088457*
X2089019Y1706604*
X2069334D02*
X2062418D01*
Y1709211*
X2062457Y1709250*
X2062418Y1706604D02*
X2056289D01*
X2056315Y1706828*
Y1711946*
X2075974Y1706604D02*
X2076000Y1706801D01*
Y1711946*
X2075974Y1706604D02*
X2081457D01*
X2108704D02*
X2101457D01*
Y1709250*
X2115344Y1706604D02*
Y1711722D01*
X2115370Y1711749*
X2115344Y1706604D02*
X2120457D01*
Y1709250*
X2095659Y1706604D02*
X2095685Y1706434D01*
Y1711946*
X2095659Y1706604D02*
X2101457D01*
X1908957Y1724750D02*
X1908965Y1724742D01*
X1912552*
X1892929Y1711946D02*
X1895489Y1709387D01*
Y1704439*
X1896866Y1703061*
X1910055*
X1913992Y1699124*
X1927181*
X1931118Y1695187*
X1945489*
X1950607Y1690069*
X1959457*
X1963827Y1685698*
Y1660880*
X1973512Y1651195*
X1981024*
X1981260Y1650864*
X1912615Y1711946D02*
X1915174Y1709387D01*
Y1704439*
X1916552Y1703061*
X1929937*
X1933874Y1699124*
X1947851*
X1952181Y1694793*
X1963599*
X1970022Y1688370*
X1980337*
X1983229Y1685478*
Y1677636*
X1932300Y1711946D02*
X1934859Y1709387D01*
Y1704811*
X1936609Y1703061*
X1950213*
X1954150Y1699124*
X1966355*
X1972229Y1693250*
X1981457*
X1987166Y1687541*
Y1677636*
X1947957Y1724250D02*
X1948449Y1724742D01*
X1951922*
X1951985Y1711946D02*
X1954544Y1709387D01*
Y1704614*
X1956097Y1703061*
X1968914*
X1974625Y1697350*
X1983357*
X1991103Y1689604*
Y1677636*
X1971670Y1711946D02*
X1974229Y1709387D01*
Y1704045*
X1977024Y1701250*
X1985457*
X1995040Y1691667*
Y1677636*
X1987457Y1724750D02*
X1987465Y1724742D01*
X1991292*
X1991355Y1711946D02*
X1993457Y1709387D01*
Y1699250*
X1998977Y1693730*
Y1677636*
X2011040Y1711946D02*
X2013735Y1709250D01*
X2013914*
X2026957Y1724750D02*
X2026965Y1724742D01*
X2030662*
X2030725Y1711946D02*
X2033284Y1709387D01*
X2050410Y1711946D02*
X2052969Y1709387D01*
X2066457Y1724750D02*
X2066465Y1724742D01*
X2070032*
X2089780Y1711946D02*
X2092169Y1709557D01*
X2092339*
X2070095Y1711946D02*
X2072654Y1709387D01*
X2105957Y1724750D02*
X2105965Y1724742D01*
X2109402*
X2109465Y1711946D02*
X2112221Y1709190D01*
X2115174Y1711946D02*
X2115370Y1711749D01*
X1882757Y1763750D02*
Y1765550D01*
X1882957Y1765750*
X1914457Y1773750D02*
X1917437D01*
X1917457Y1773730*
X1896170Y1766165D02*
X1896558D01*
X1896866Y1765856*
Y1774250D02*
X1898457D01*
X1898957Y1773750*
X1901457*
X2105437Y1758285D02*
X2112705D01*
Y1761616*
X2105437*
Y1758285*
X2084571D02*
X2091839D01*
Y1764372*
X2084571*
Y1758285*
X2064492D02*
X2071760D01*
Y1764766*
X2064492*
Y1758285*
X2045201D02*
X2052469D01*
Y1765159*
X2045201*
Y1758285*
X2025910D02*
X2033177D01*
Y1763585*
X2025910*
Y1758285*
X2006225D02*
X2013492D01*
Y1763191*
X2006225*
Y1758285*
X1987327D02*
X1994595D01*
Y1763585*
X1987327*
Y1758285*
X1967248D02*
X1974516D01*
Y1762797*
X1967248*
Y1758285*
X1947563D02*
X1954831D01*
Y1763585*
X1947563*
Y1758285*
X1927878D02*
X1935146D01*
Y1763191*
X1927878*
Y1758285*
X1907800D02*
X1915067D01*
Y1763585*
X1907800*
Y1758285*
X1880957D02*
X1896170D01*
Y1768750*
X1880957*
Y1758285*
X2106957Y1741750D02*
X2113957D01*
Y1731750*
X2106957*
Y1741750*
X2087957D02*
X2094957D01*
Y1731750*
X2087957*
Y1741750*
X2067957D02*
X2074957D01*
Y1731750*
X2067957*
Y1741750*
X2047957D02*
X2054957D01*
Y1731750*
X2047957*
Y1741750*
X2028949Y1741341D02*
X2035949D01*
Y1731341*
X2028949*
Y1741341*
X2008957Y1741750D02*
X2015957D01*
Y1731750*
X2008957*
Y1741750*
X1988957D02*
X1995957D01*
Y1731750*
X1988957*
Y1741750*
X1969957D02*
X1976957D01*
Y1731750*
X1969957*
Y1741750*
X1949957D02*
X1956957D01*
Y1731750*
X1949957*
Y1741750*
X1929957D02*
X1936957D01*
Y1731750*
X1929957*
Y1741750*
X1910957D02*
X1917957D01*
Y1731750*
X1910957*
Y1741750*
X1890957D02*
X1897957D01*
Y1731750*
X1890957*
Y1741750*
X2105437Y1760984D02*
X2112705D01*
X2105437Y1760084D02*
X2112705D01*
X2105437Y1759184D02*
X2112705D01*
X2084571Y1763684D02*
X2091839D01*
X2084571Y1762784D02*
X2091839D01*
X2084571Y1761884D02*
X2091839D01*
X2084571Y1760984D02*
X2091839D01*
X2084571Y1760084D02*
X2091839D01*
X2084571Y1759184D02*
X2091839D01*
X2064492Y1764584D02*
X2071760D01*
X2064492Y1763684D02*
X2071760D01*
X2064492Y1762784D02*
X2071760D01*
X2064492Y1761884D02*
X2071760D01*
X2064492Y1760984D02*
X2071760D01*
X2064492Y1760084D02*
X2071760D01*
X2064492Y1759184D02*
X2071760D01*
X2045201Y1764584D02*
X2052469D01*
X2045201Y1763684D02*
X2052469D01*
X2045201Y1762784D02*
X2052469D01*
X2045201Y1761884D02*
X2052469D01*
X2045201Y1760984D02*
X2052469D01*
X2045201Y1760084D02*
X2052469D01*
X2045201Y1759184D02*
X2052469D01*
X2025910Y1762784D02*
X2033177D01*
X2025910Y1761884D02*
X2033177D01*
X2025910Y1760984D02*
X2033177D01*
X2025910Y1760084D02*
X2033177D01*
X2025910Y1759184D02*
X2033177D01*
X2006225Y1762784D02*
X2013492D01*
X2006225Y1761884D02*
X2013492D01*
X2006225Y1760984D02*
X2013492D01*
X2006225Y1760084D02*
X2013492D01*
X2006225Y1759184D02*
X2013492D01*
X1987327Y1762784D02*
X1994595D01*
X1987327Y1761884D02*
X1994595D01*
X1987327Y1760984D02*
X1994595D01*
X1987327Y1760084D02*
X1994595D01*
X1987327Y1759184D02*
X1994595D01*
X1967248Y1762784D02*
X1974516D01*
X1967248Y1761884D02*
X1974516D01*
X1967248Y1760984D02*
X1974516D01*
X1967248Y1760084D02*
X1974516D01*
X1967248Y1759184D02*
X1974516D01*
X1947563Y1762784D02*
X1954831D01*
X1947563Y1761884D02*
X1954831D01*
X1947563Y1760984D02*
X1954831D01*
X1947563Y1760084D02*
X1954831D01*
X1947563Y1759184D02*
X1954831D01*
X1927878Y1762784D02*
X1935146D01*
X1927878Y1761884D02*
X1935146D01*
X1927878Y1760984D02*
X1935146D01*
X1927878Y1760084D02*
X1935146D01*
X1927878Y1759184D02*
X1935146D01*
X1907800Y1762784D02*
X1915067D01*
X1907800Y1761884D02*
X1915067D01*
X1907800Y1760984D02*
X1915067D01*
X1907800Y1760084D02*
X1915067D01*
X1907800Y1759184D02*
X1915067D01*
X1880957Y1768184D02*
X1896170D01*
X1880957Y1767284D02*
X1896170D01*
X1880957Y1766384D02*
X1896170D01*
X1880957Y1765484D02*
X1896170D01*
X1880957Y1764584D02*
X1896170D01*
X1880957Y1763684D02*
X1896170D01*
X1880957Y1762784D02*
X1896170D01*
X1880957Y1761884D02*
X1896170D01*
X1880957Y1760984D02*
X1896170D01*
X1880957Y1760084D02*
X1896170D01*
X1880957Y1759184D02*
X1896170D01*
X2106957Y1741649D02*
X2113957D01*
X2106957Y1740749D02*
X2113957D01*
X2106957Y1739849D02*
X2113957D01*
X2106957Y1738949D02*
X2113957D01*
X2106957Y1738049D02*
X2113957D01*
X2106957Y1737149D02*
X2113957D01*
X2106957Y1736249D02*
X2113957D01*
X2106957Y1735349D02*
X2113957D01*
X2106957Y1734449D02*
X2113957D01*
X2106957Y1733549D02*
X2113957D01*
X2106957Y1732649D02*
X2113957D01*
X2087957Y1741649D02*
X2094957D01*
X2087957Y1740749D02*
X2094957D01*
X2087957Y1739849D02*
X2094957D01*
X2087957Y1738949D02*
X2094957D01*
X2087957Y1738049D02*
X2094957D01*
X2087957Y1737149D02*
X2094957D01*
X2087957Y1736249D02*
X2094957D01*
X2087957Y1735349D02*
X2094957D01*
X2087957Y1734449D02*
X2094957D01*
X2087957Y1733549D02*
X2094957D01*
X2087957Y1732649D02*
X2094957D01*
X2067957Y1741649D02*
X2074957D01*
X2067957Y1740749D02*
X2074957D01*
X2067957Y1739849D02*
X2074957D01*
X2067957Y1738949D02*
X2074957D01*
X2067957Y1738049D02*
X2074957D01*
X2067957Y1737149D02*
X2074957D01*
X2067957Y1736249D02*
X2074957D01*
X2067957Y1735349D02*
X2074957D01*
X2067957Y1734449D02*
X2074957D01*
X2067957Y1733549D02*
X2074957D01*
X2067957Y1732649D02*
X2074957D01*
X2047957Y1741649D02*
X2054957D01*
X2047957Y1740749D02*
X2054957D01*
X2047957Y1739849D02*
X2054957D01*
X2047957Y1738949D02*
X2054957D01*
X2047957Y1738049D02*
X2054957D01*
X2047957Y1737149D02*
X2054957D01*
X2047957Y1736249D02*
X2054957D01*
X2047957Y1735349D02*
X2054957D01*
X2047957Y1734449D02*
X2054957D01*
X2047957Y1733549D02*
X2054957D01*
X2047957Y1732649D02*
X2054957D01*
X2028949Y1741239D02*
X2035949D01*
X2028949Y1740339D02*
X2035949D01*
X2028949Y1739439D02*
X2035949D01*
X2028949Y1738539D02*
X2035949D01*
X2028949Y1737639D02*
X2035949D01*
X2028949Y1736739D02*
X2035949D01*
X2028949Y1735839D02*
X2035949D01*
X2028949Y1734939D02*
X2035949D01*
X2028949Y1734039D02*
X2035949D01*
X2028949Y1733139D02*
X2035949D01*
X2028949Y1732239D02*
X2035949D01*
X2008957Y1741649D02*
X2015957D01*
X2008957Y1740749D02*
X2015957D01*
X2008957Y1739849D02*
X2015957D01*
X2008957Y1738949D02*
X2015957D01*
X2008957Y1738049D02*
X2015957D01*
X2008957Y1737149D02*
X2015957D01*
X2008957Y1736249D02*
X2015957D01*
X2008957Y1735349D02*
X2015957D01*
X2008957Y1734449D02*
X2015957D01*
X2008957Y1733549D02*
X2015957D01*
X2008957Y1732649D02*
X2015957D01*
X1988957Y1741649D02*
X1995957D01*
X1988957Y1740749D02*
X1995957D01*
X1988957Y1739849D02*
X1995957D01*
X1988957Y1738949D02*
X1995957D01*
X1988957Y1738049D02*
X1995957D01*
X1988957Y1737149D02*
X1995957D01*
X1988957Y1736249D02*
X1995957D01*
X1988957Y1735349D02*
X1995957D01*
X1988957Y1734449D02*
X1995957D01*
X1988957Y1733549D02*
X1995957D01*
X1988957Y1732649D02*
X1995957D01*
X1969957Y1741649D02*
X1976957D01*
X1969957Y1740749D02*
X1976957D01*
X1969957Y1739849D02*
X1976957D01*
X1969957Y1738949D02*
X1976957D01*
X1969957Y1738049D02*
X1976957D01*
X1969957Y1737149D02*
X1976957D01*
X1969957Y1736249D02*
X1976957D01*
X1969957Y1735349D02*
X1976957D01*
X1969957Y1734449D02*
X1976957D01*
X1969957Y1733549D02*
X1976957D01*
X1969957Y1732649D02*
X1976957D01*
X1949957Y1741649D02*
X1956957D01*
X1949957Y1740749D02*
X1956957D01*
X1949957Y1739849D02*
X1956957D01*
X1949957Y1738949D02*
X1956957D01*
X1949957Y1738049D02*
X1956957D01*
X1949957Y1737149D02*
X1956957D01*
X1949957Y1736249D02*
X1956957D01*
X1949957Y1735349D02*
X1956957D01*
X1949957Y1734449D02*
X1956957D01*
X1949957Y1733549D02*
X1956957D01*
X1949957Y1732649D02*
X1956957D01*
X1929957Y1741649D02*
X1936957D01*
X1929957Y1740749D02*
X1936957D01*
X1929957Y1739849D02*
X1936957D01*
X1929957Y1738949D02*
X1936957D01*
X1929957Y1738049D02*
X1936957D01*
X1929957Y1737149D02*
X1936957D01*
X1929957Y1736249D02*
X1936957D01*
X1929957Y1735349D02*
X1936957D01*
X1929957Y1734449D02*
X1936957D01*
X1929957Y1733549D02*
X1936957D01*
X1929957Y1732649D02*
X1936957D01*
X1910957Y1741649D02*
X1917957D01*
X1910957Y1740749D02*
X1917957D01*
X1910957Y1739849D02*
X1917957D01*
X1910957Y1738949D02*
X1917957D01*
X1910957Y1738049D02*
X1917957D01*
X1910957Y1737149D02*
X1917957D01*
X1910957Y1736249D02*
X1917957D01*
X1910957Y1735349D02*
X1917957D01*
X1910957Y1734449D02*
X1917957D01*
X1910957Y1733549D02*
X1917957D01*
X1910957Y1732649D02*
X1917957D01*
X1890957Y1741649D02*
X1897957D01*
X1890957Y1740749D02*
X1897957D01*
X1890957Y1739849D02*
X1897957D01*
X1890957Y1738949D02*
X1897957D01*
X1890957Y1738049D02*
X1897957D01*
X1890957Y1737149D02*
X1897957D01*
X1890957Y1736249D02*
X1897957D01*
X1890957Y1735349D02*
X1897957D01*
X1890957Y1734449D02*
X1897957D01*
X1890957Y1733549D02*
X1897957D01*
X1890957Y1732649D02*
X1897957D01*
X2145957Y1656750D02*
Y1697750D01*
G75*
G03X2145457Y1698250I-500J0D01*
G01X2113434*
G03X2113342Y1698242I0J-500*
G01X2112811Y1698192D02*
G03X2113342Y1698242I0J2901D01*
G01X2112811Y1698192D02*
X2105165D01*
X2105165D02*
G03X2104811Y1698046I-0J-500D01*
G01X2101870Y1695105*
X2099819Y1694255D02*
G03X2101870Y1695105I0J2901D01*
G01X2099819Y1694255D02*
X2083905D01*
G03X2083551Y1694109I-0J-500*
G01X2080610Y1691168*
X2078559Y1690318D02*
G03X2080610Y1691168I0J2901D01*
G01X2078559Y1690318D02*
X2075440D01*
G03X2075086Y1690172I-0J-500*
G01X2072164Y1687250*
X2071774*
G03X2071440Y1687122I-0J-500*
G01X2069504Y1686381D02*
G03X2071440Y1687122I0J2900D01*
G01X2069504Y1686381D02*
X2062043D01*
G03X2061579Y1685696I0J-500*
G01X2060328Y1681153D02*
G03X2061579Y1685696I-2371J3097D01*
G01X2060328Y1681153D02*
X2060153Y1681019D01*
G03X2059957Y1680622I304J-397*
G01Y1675750*
X2054457*
G03X2053957Y1675250I0J-500*
G01Y1667650*
G03X2054457Y1667150I500J0*
G01X2057457*
X2059508Y1666301D02*
G03X2057457Y1667150I-2051J-2051D01*
G01X2059508Y1666301D02*
X2061912Y1663896D01*
G03X2062265Y1663750I353J354*
G01X2068957*
Y1657150*
G03X2068969Y1657040I500J0*
G01X2069030Y1656689D02*
G03X2068969Y1657040I-3573J-439D01*
G01X2069030Y1656689D02*
G03X2069526Y1656250I496J61D01*
G01X2077457*
Y1654871*
G03X2077501Y1654667I500J0*
G01X2077710Y1653687D02*
G03X2077501Y1654667I-2400J0D01*
G01X2077710Y1653687D02*
Y1648750D01*
G03X2078210Y1648250I500J0*
G01X2084704*
G03X2085204Y1648750I0J500*
G01Y1653687*
X2085413Y1654667D02*
G03X2085204Y1653687I2191J-980D01*
G01X2085413Y1654667D02*
G03X2085457Y1654871I-456J204D01*
G01Y1656250*
X2145457*
G03X2145957Y1656750I0J500*
G01X2104514Y1697749D02*
X2145957D01*
X2103614Y1696849D02*
X2145957D01*
X2102714Y1695949D02*
X2145957D01*
X2101812Y1695049D02*
X2145957D01*
X2083596Y1694149D02*
X2145957D01*
X2082691Y1693249D02*
X2145957D01*
X2081791Y1692349D02*
X2145957D01*
X2080891Y1691449D02*
X2145957D01*
X2079692Y1690549D02*
X2145957D01*
X2074563Y1689649D02*
X2145957D01*
X2073663Y1688749D02*
X2145957D01*
X2072763Y1687849D02*
X2145957D01*
X2071227Y1686949D02*
X2145957D01*
X2061572Y1686049D02*
X2145957D01*
X2061752Y1685149D02*
X2145957D01*
X2061857Y1684249D02*
X2145957D01*
X2061751Y1683349D02*
X2145957D01*
X2061416Y1682449D02*
X2145957D01*
X2060770Y1681549D02*
X2145957D01*
X2059958Y1680649D02*
X2145957D01*
X2059957Y1679749D02*
X2145957D01*
X2059957Y1678849D02*
X2145957D01*
X2059957Y1677949D02*
X2145957D01*
X2059957Y1677049D02*
X2145957D01*
X2059957Y1676149D02*
X2145957D01*
X2053957Y1675249D02*
X2145957D01*
X2053957Y1674349D02*
X2145957D01*
X2053957Y1673449D02*
X2145957D01*
X2053957Y1672549D02*
X2145957D01*
X2053957Y1671649D02*
X2145957D01*
X2053957Y1670749D02*
X2145957D01*
X2053957Y1669849D02*
X2145957D01*
X2053957Y1668949D02*
X2145957D01*
X2053957Y1668049D02*
X2145957D01*
X2057545Y1667149D02*
X2145957D01*
X2059560Y1666249D02*
X2145957D01*
X2060460Y1665349D02*
X2145957D01*
X2061360Y1664449D02*
X2145957D01*
X2068957Y1663549D02*
X2145957D01*
X2068957Y1662649D02*
X2145957D01*
X2068957Y1661749D02*
X2145957D01*
X2068957Y1660849D02*
X2145957D01*
X2068957Y1659949D02*
X2145957D01*
X2068957Y1659049D02*
X2145957D01*
X2068957Y1658149D02*
X2145957D01*
X2068957Y1657249D02*
X2145957D01*
X2069228Y1656349D02*
X2145755D01*
X2077457Y1655449D02*
X2085457D01*
X2077550Y1654549D02*
X2085364D01*
X2077710Y1653649D02*
X2085204D01*
X2077710Y1652749D02*
X2085204D01*
X2077710Y1651849D02*
X2085204D01*
X2077710Y1650949D02*
X2085204D01*
X2077710Y1650049D02*
X2085204D01*
X2077710Y1649149D02*
X2085204D01*
X1847456Y1483235D02*
G03X1867157Y1460249I21344J-1642D01*
G01X1867142Y1460250D02*
X2132890D01*
X2132898D02*
G03X2152575Y1482258I-1165J20843D01*
G01Y1482250D02*
Y1783376D01*
Y1783367D02*
G03X2132899Y1803250I-19779J103D01*
G01X2132890D02*
X2109268D01*
Y1826750*
X1890764*
Y1803250*
X1867142*
X1867133D02*
G03X1847457Y1783367I104J-19780D01*
G01Y1783376D02*
Y1483250D01*
G54D14*
X1862032Y1665915D02*
X1875974D01*
Y1671368*
Y1665915*
X1878690Y1663199*
X1886032*
X1869334Y1671368D02*
X1873074Y1675108D01*
X1880134*
X1883677Y1671565*
Y1665915*
X1886032*
X1991957Y1655750D02*
X1992103D01*
X1992137Y1649216*
Y1644250*
X2036807Y1669910D02*
X2036957Y1670050D01*
G54D22*
X2093457Y1498250D03*
X2010457D03*
G54D23*
X2098457Y1508250D03*
X2103457Y1498250D03*
X2108457Y1508250D03*
X2113457Y1498250D03*
X2118457Y1508250D03*
X2123457Y1498250D03*
X2128457Y1508250D03*
X2015457D03*
X2020457Y1498250D03*
X2025457Y1508250D03*
X2030457Y1498250D03*
X2035457Y1508250D03*
X2040457Y1498250D03*
X2045457Y1508250D03*
G54D36*
X1897457Y1555750D03*
X1948457Y1625250D03*
X1897457Y1614250D03*
X1949457Y1667250D03*
X1969957Y1585250D03*
X1936457D03*
X1897457D03*
X1935957Y1555750D03*
G54D38*
X1992957Y1576250D02*
X1993137Y1576430D01*
X1996957*
X2073457Y1576250D02*
X2073637Y1576430D01*
X2076457*
X1976777Y1626750D02*
Y1624250D01*
X1976957*
X1976777Y1621750D02*
Y1618750D01*
X1976957*
X2013457Y1610570D02*
X2016457D01*
Y1610750*
X2042957Y1623750D02*
Y1626930D01*
X1932457Y1632250D02*
Y1635250D01*
X1925957Y1645250D02*
X1928657D01*
X2032957Y1669750D02*
X2036647D01*
X2036807Y1669910*
X2041957Y1669250D02*
X2046257D01*
X2036277Y1640750D02*
X2036457Y1637250D01*
X1871079Y1698250D02*
X1879257D01*
X1881257Y1700250*
X1887106*
X1887221Y1700135*
X1887706Y1699650*
X1893057*
X1897257Y1695450*
X1853707Y1675750D02*
Y1676500D01*
X1853957Y1676250*
X1892866Y1721250D02*
Y1718649D01*
X1892929Y1718586*
X1892866Y1721250D02*
X1893457D01*
X1892457Y1738750D02*
X1896866D01*
Y1733742*
X1892866Y1724742D02*
Y1721250D01*
X1932237D02*
Y1718649D01*
X1932300Y1718586*
X1932237Y1721250D02*
X1932457D01*
X1912457Y1739250D02*
X1916552D01*
Y1733742*
X1931457Y1739250D02*
X1936237D01*
Y1733742*
X1898835Y1718586D02*
X1900866Y1720617D01*
Y1724742*
X1918520Y1718586D02*
X1920552Y1720617D01*
Y1724742*
X1932237D02*
Y1721250D01*
X1916552Y1733742D02*
Y1740659D01*
X1912552Y1724742D02*
Y1718649D01*
X1912615Y1718586*
X1896866Y1733742D02*
Y1740659D01*
X1916552Y1746565D02*
Y1753284D01*
X1896866Y1746565D02*
Y1753284D01*
X1971607Y1718649D02*
X1971670Y1718586D01*
X1971457Y1721250D02*
X1971607Y1721100D01*
Y1718649*
X1951457Y1739250D02*
X1955922D01*
Y1733742*
X1971457Y1739250D02*
X1975607D01*
Y1733742*
X1938205Y1718586D02*
X1940237Y1720617D01*
Y1724742*
X1957890Y1718586D02*
X1959885Y1720581D01*
X1959922*
Y1724742*
X1971607D02*
Y1718649D01*
X1955922Y1733742D02*
Y1740659D01*
X1951922Y1724742D02*
Y1718649D01*
X1951985Y1718586*
X1936237Y1733742D02*
Y1740659D01*
X1955922Y1746565D02*
Y1753284D01*
X1936237Y1746565D02*
Y1753284D01*
X2010977Y1721250D02*
Y1718649D01*
X2011040Y1718586*
X2010977Y1721250D02*
X2011457D01*
X1990457Y1739250D02*
X1995292D01*
Y1733742*
X2011457Y1739250D02*
X2014977D01*
Y1733742*
X1977575Y1718586D02*
X1979570Y1720581D01*
X1979607*
Y1724742*
X1997260Y1718586D02*
X1999255Y1720581D01*
X1999292*
Y1724742*
X2010977D02*
Y1721250D01*
X1995292Y1733742D02*
Y1740659D01*
X1991292Y1724742D02*
X1991355Y1724679D01*
Y1718586*
X1975607Y1733742D02*
Y1740659D01*
X1995292Y1746565D02*
Y1753284D01*
X1975607Y1746565D02*
Y1753284D01*
X2050347Y1721250D02*
Y1718649D01*
X2050410Y1718586*
X2050347Y1721250D02*
X2050457D01*
X2030457Y1739250D02*
X2034662D01*
X2049457D02*
X2054347D01*
X2016945Y1718586D02*
X2017179D01*
X2018977Y1720384*
Y1724742*
X2036630Y1718586D02*
X2038625Y1720581D01*
X2038662*
Y1724742*
X2050347D02*
Y1721250D01*
X2034662Y1739250D02*
Y1733742D01*
Y1739250*
X2030662Y1724742D02*
Y1718649D01*
X2030725Y1718586*
X2014977Y1733742D02*
Y1740659D01*
X2034662D02*
Y1733742D01*
Y1746565D02*
Y1753284D01*
X2014977Y1746565D02*
Y1753284D01*
X2089717Y1722250D02*
Y1718649D01*
X2089780Y1718586*
X2089717Y1722250D02*
X2090457Y1721250D01*
X2089457Y1739250D02*
X2093717D01*
X2069457D02*
X2074032D01*
Y1733742*
X2076000Y1718586D02*
X2077995Y1720581D01*
X2078032*
Y1724742*
X2056315Y1718586D02*
X2058310Y1720581D01*
X2058347*
Y1724742*
X2054347Y1739250D02*
Y1733742D01*
Y1739250*
X2089717Y1724742D02*
Y1722250D01*
X2074032Y1733742D02*
Y1740659D01*
X2070032Y1724742D02*
Y1718649D01*
X2070095Y1718586*
X2054347Y1740659D02*
Y1733742D01*
Y1746565D02*
Y1753284D01*
X2074032Y1746565D02*
Y1753284D01*
X2108457Y1739250D02*
X2113402D01*
Y1733742*
X2095685Y1718586D02*
X2097717Y1720617D01*
Y1724742*
X2115174Y1718586D02*
X2115407D01*
X2117402Y1720581*
Y1724742*
X2113402Y1733742D02*
Y1740659D01*
X2109402Y1724742D02*
Y1718586D01*
X2109465*
X2093717Y1739250D02*
Y1733742D01*
Y1739250*
X2113402Y1746565D02*
Y1753284D01*
X2093717Y1740659D02*
Y1733742D01*
Y1746565D02*
Y1753284D01*
G54D43*
G54D97*
X1892866Y1724742D03*
X1900866D03*
X1896866Y1733742D03*
X2070032Y1724742D03*
X2078032D03*
X2074032Y1733742D03*
X2089717Y1724742D03*
X2097717D03*
X2093717Y1733742D03*
X2109402Y1724742D03*
X2117402D03*
X2113402Y1733742D03*
X1912552Y1724742D03*
X1920552D03*
X1916552Y1733742D03*
X1932237Y1724742D03*
X1940237D03*
X1936237Y1733742D03*
X1951922Y1724742D03*
X1959922D03*
X1955922Y1733742D03*
X1971607Y1724742D03*
X1979607D03*
X1975607Y1733742D03*
X1991292Y1724742D03*
X1999292D03*
X1995292Y1733742D03*
X2010977Y1724742D03*
X2018977D03*
X2014977Y1733742D03*
X2030662Y1724742D03*
X2038662D03*
X2034662Y1733742D03*
X2050347Y1724742D03*
X2058347D03*
X2054347Y1733742D03*
G54D125*
X1869334Y1671368D03*
X1875974D03*
X2036277Y1640750D03*
X2029637D03*
X2049777Y1679750D03*
X2043137D03*
X2018637Y1640750D03*
X2025277D03*
X2025777Y1604250D03*
X2019137D03*
X1898809Y1706604D03*
X1892169D03*
X2075974D03*
X2069334D03*
X2095659D03*
X2089019D03*
X2115344D03*
X2108704D03*
X1918494D03*
X1911854D03*
X1938179D03*
X1931539D03*
X1957864D03*
X1951224D03*
X1977549D03*
X1970909D03*
X1997234D03*
X1990594D03*
X2036604D03*
X2029964D03*
X2056289D03*
X2049649D03*
X1970137Y1621750D03*
X1976777D03*
X1998777Y1644250D03*
X1992137D03*
X2017312Y1706604D03*
X2010672D03*
X1970137Y1632250D03*
X1976777D03*
X1963777Y1640250D03*
X1957137D03*
X1963777Y1645250D03*
X1957137D03*
X1976777Y1626750D03*
X1970137D03*
X2008777Y1604250D03*
X2002137D03*
G54D126*
X1896670Y1791250D03*
G54D127*
X1910449D03*
X1924229D03*
X1938008D03*
X1951788D03*
X1965567D03*
X1979347D03*
X1993126D03*
X2006906D03*
X2020685D03*
X2034465D03*
X2048244D03*
X2062024D03*
X2075803D03*
X2089583D03*
X2103363D03*
G54D128*
X1915457Y1614376D03*
X1987457D03*
X2005957D03*
X2023457D03*
G54D129*
X1915457Y1622250D03*
Y1630124D03*
X1987457Y1622250D03*
Y1630124D03*
X2005957Y1622250D03*
Y1630124D03*
X2023457Y1622250D03*
Y1630124D03*
G54D130*
X1896866Y1746565D03*
Y1740659D03*
X2074032Y1746565D03*
Y1740659D03*
X2093717Y1746565D03*
Y1740659D03*
X2113402Y1746565D03*
Y1740659D03*
X1916552Y1746565D03*
Y1740659D03*
X1936237Y1746565D03*
Y1740659D03*
X1955922Y1746565D03*
Y1740659D03*
X1975607Y1746565D03*
Y1740659D03*
X1995292Y1746565D03*
Y1740659D03*
X2014977Y1746565D03*
Y1740659D03*
X2034662Y1746565D03*
Y1740659D03*
X2054347Y1746565D03*
Y1740659D03*
G54D131*
X2070095Y1718586D03*
Y1711946D03*
X2056315Y1718586D03*
Y1711946D03*
X2050410Y1718586D03*
Y1711946D03*
X2036630Y1718586D03*
Y1711946D03*
X2030725Y1718586D03*
Y1711946D03*
X2016945Y1718586D03*
Y1711946D03*
X2011040Y1718586D03*
Y1711946D03*
X1997260Y1718586D03*
Y1711946D03*
X1991355Y1718586D03*
Y1711946D03*
X1977575Y1718586D03*
Y1711946D03*
X1971670Y1718586D03*
Y1711946D03*
X1957890Y1718586D03*
Y1711946D03*
X1951985Y1718586D03*
Y1711946D03*
X1938205Y1718586D03*
Y1711946D03*
X1932300Y1718586D03*
Y1711946D03*
X1918520Y1718586D03*
Y1711946D03*
X1912615Y1718586D03*
Y1711946D03*
X1898835Y1718586D03*
Y1711946D03*
X1892929Y1718586D03*
Y1711946D03*
X2115174Y1718586D03*
Y1711946D03*
X2109465Y1718586D03*
Y1711946D03*
X2095685Y1718586D03*
Y1711946D03*
X2089780Y1718586D03*
Y1711946D03*
X2076000Y1718586D03*
Y1711946D03*
X1916552Y1759924D03*
Y1753284D03*
X1936237Y1759924D03*
Y1753284D03*
X1955922Y1759924D03*
Y1753284D03*
X1975607Y1759924D03*
Y1753284D03*
X1995292Y1759924D03*
Y1753284D03*
X2014977Y1759924D03*
Y1753284D03*
X2034662Y1759924D03*
Y1753284D03*
X2054347Y1759924D03*
Y1753284D03*
X2074032Y1759924D03*
Y1753284D03*
X2093717Y1759924D03*
Y1753284D03*
X2113402Y1759924D03*
Y1753284D03*
X1887457Y1718570D03*
Y1711930D03*
X1896866Y1759924D03*
Y1753284D03*
X1887221Y1706775D03*
Y1700135D03*
X1894307Y1661158D03*
Y1667798D03*
X1900457Y1660930D03*
Y1667570D03*
X2054457Y1681570D03*
Y1674930D03*
X1998957Y1630570D03*
Y1623930D03*
X2030457Y1625930D03*
Y1632570D03*
X1943457Y1638930D03*
Y1645570D03*
X1950457Y1638930D03*
Y1645570D03*
X2042957Y1648930D03*
Y1655570D03*
X2013457Y1610570D03*
Y1603930D03*
X1996957Y1576430D03*
Y1583070D03*
X2042957Y1626930D03*
Y1633570D03*
X2076457Y1576430D03*
Y1583070D03*
X2002457D03*
Y1576430D03*
X2024457D03*
Y1583070D03*
X2042957Y1637930D03*
Y1644570D03*
X2082957Y1583070D03*
Y1576430D03*
X2105957D03*
Y1583070D03*
G54D132*
X1862032Y1665915D03*
Y1657923D03*
X1886032Y1665915D03*
G54D133*
X1862032Y1663199D03*
Y1660640D03*
X1886032D03*
Y1663199D03*
G54D134*
Y1657923D03*
G54D135*
X2036957Y1670050D03*
Y1679450D03*
G54D137*
X2055657Y1669250D03*
X2046257D03*
G54D138*
X2026536Y1677636D03*
X2024567D03*
X2022599D03*
X2020630D03*
X2018662D03*
X2016693D03*
X2014725D03*
X2012756D03*
X2010788D03*
X2008819D03*
X2006851D03*
X2004882D03*
X2002914D03*
X2000945D03*
X1998977D03*
X1997008D03*
X1995040D03*
X1993071D03*
X1991103D03*
X1989134D03*
X1987166D03*
X1985197D03*
X1983229D03*
X1981260D03*
Y1650864D03*
X1983229D03*
X1985197D03*
X1987166D03*
X1989134D03*
X1991103D03*
X1993071D03*
X1995040D03*
X1997008D03*
X1998977D03*
X2000945D03*
X2002914D03*
X2004882D03*
X2006851D03*
X2008819D03*
X2010788D03*
X2012756D03*
X2014725D03*
X2016693D03*
X2018662D03*
X2020630D03*
X2022599D03*
X2024567D03*
X2026536D03*
G54D141*
X2088457Y1473250D03*
X2133457D03*
X2005457D03*
X2050457D03*
G54D142*
X2080457Y1485250D03*
X2141457D03*
X1997457D03*
X2058457D03*
G54D143*
X1871079Y1590463D03*
Y1698250D03*
G54D144*
X1863179Y1590463D03*
X1871079Y1598363D03*
X1863179D03*
X1871079Y1606263D03*
X1863179D03*
X1871079Y1614163D03*
X1863179D03*
X1871079Y1622063D03*
X1863179D03*
X1871079Y1629963D03*
X1863179D03*
X1871079Y1637863D03*
X1863179D03*
Y1698250D03*
X1871079Y1706150D03*
X1863179D03*
X1871079Y1714050D03*
X1863179D03*
X1871079Y1721950D03*
X1863179D03*
X1871079Y1729850D03*
X1863179D03*
X1871079Y1737750D03*
X1863179D03*
X1871079Y1745650D03*
X1863179D03*
G54D146*
X1867142Y1783376D03*
X2133457D03*
Y1535750D03*
X1866957D03*
G54D147*
X1928657Y1635250D03*
X1932457D03*
X1936257D03*
Y1645250D03*
X1928657D03*
G54D148*
X2081457Y1674750D02*
Y1671250D01*
Y1650250*
G54D149*
X1853457Y1572750D02*
X1853857Y1573250D01*
Y1580250*
X1877257*
X1880257Y1583250*
X1853857Y1580250D02*
Y1609750D01*
X1853957*
X1854044*
X1858457Y1614163*
X1863179*
X1871079Y1598363D02*
X1877257D01*
X1880257Y1595363*
Y1583250*
X2055657Y1669250D02*
X2055678D01*
X2055827Y1669101*
X2056457Y1668550*
Y1671250*
X2081457*
X1853707Y1675250D02*
Y1750500D01*
X1868457Y1765250*
X1871157Y1763750*
X1853707Y1675250D02*
X1862079D01*
X1871079Y1684250*
Y1698250*
X1853707Y1675250D02*
Y1675750D01*
X2049777Y1679750D02*
X2050457Y1680250D01*
X2054457Y1681570*
Y1674930D02*
Y1669250D01*
X2055657*
X2054457Y1681570D02*
X2057957Y1684250D01*
G54D150*
X1883457Y1742250D02*
Y1718570D01*
X1887457*
X1883457Y1742250D02*
Y1753452D01*
X1896170Y1766165*
G54D151*
X1920552Y1724742D02*
X1924426Y1728616D01*
Y1757982*
X1932300Y1765856*
X1936237*
X1900866Y1724742D02*
X1904150Y1728026D01*
Y1758376*
X1911630Y1765856*
X1916552*
X1959922Y1724742D02*
X1963796Y1728616D01*
Y1757982*
X1971866Y1766053*
X1975410*
X1975607Y1765856*
X1940237Y1724742D02*
X1944111Y1728616D01*
Y1758179*
X1951788Y1765856*
X1955922*
X1999292Y1724742D02*
X2003166Y1728616D01*
Y1758179*
X2011040Y1766053*
X2014977*
X1979607Y1724742D02*
X1983481Y1728616D01*
Y1757982*
X1991355Y1765856*
X1995292*
X2038662Y1724742D02*
X2042536Y1728616D01*
Y1760148*
X2051394Y1769006*
X2018977Y1724742D02*
X2022654Y1728419D01*
Y1757982*
X2030592Y1765920*
X2034651*
X2058347Y1724742D02*
X2062221Y1728616D01*
Y1760344*
X2070981Y1769104*
X2078032Y1724742D02*
X2081906Y1728616D01*
Y1759951*
X2090764Y1768809*
X2129357Y1727650D02*
X2122654Y1729994D01*
X2117402Y1724742*
X2097717D02*
X2101591Y1728616D01*
Y1756014*
X2109465Y1763888*
X1917457Y1773730D02*
X1934465D01*
X1951788Y1791053*
Y1791250*
X1896866Y1774250D02*
Y1778014D01*
X1900457Y1781604*
X1928363*
X1938008Y1791250*
X1896866Y1765856D02*
Y1774250D01*
X1916552Y1759924D02*
Y1765856D01*
X1916701Y1766006*
Y1773730*
X1917457*
X1896866Y1759924D02*
Y1765856D01*
X1936237D02*
X1940370D01*
X1965567Y1791053*
Y1791250*
X1936237Y1765856D02*
Y1759924D01*
X1955922Y1765856D02*
X1979347Y1789281D01*
Y1791250*
X1955922Y1759924D02*
Y1765856D01*
X1975607D02*
X1993126Y1783376D01*
Y1791250*
X1995292Y1765856D02*
X2006906Y1777470D01*
Y1791250*
X1995292Y1759924D02*
Y1765856D01*
X1975607Y1759924D02*
Y1765856D01*
X2014977Y1766053D02*
X2020685Y1771762D01*
Y1791250*
X2034662Y1765856D02*
Y1759924D01*
X2014977D02*
Y1766053D01*
X2048244Y1791250D02*
Y1772156D01*
X2051394Y1769006*
X2048244Y1791250D02*
Y1772156D01*
X2054347Y1766053*
X2034465Y1791250D02*
Y1767037D01*
X2034651Y1765920*
X2034465Y1791250D02*
Y1767037D01*
X2034651Y1765920*
X2034662Y1765856*
X2074032Y1766053D02*
Y1759924D01*
X2054347D02*
Y1766053D01*
X2089583Y1791250D02*
X2089780Y1791053D01*
Y1783573*
X2109465Y1763888*
X2075803Y1791250D02*
Y1783770D01*
X2090764Y1768809*
X2075803Y1791250D02*
Y1783770D01*
X2093717Y1765856*
X2062024Y1791250D02*
Y1778061D01*
X2070981Y1769104*
X2062024Y1791250D02*
Y1778061D01*
X2074032Y1766053*
X2093717Y1765856D02*
Y1759924D01*
X2109465Y1763888D02*
X2113402Y1759951D01*
Y1759924*
X2103363Y1791250D02*
Y1782589D01*
X2122654Y1763297*
Y1729994*
G54D152*
X1853457Y1572750D03*
X1992957Y1576250D03*
X2073457D03*
X1853957Y1609750D03*
X1928457Y1627250D03*
X1987457Y1604250D03*
X1976957Y1624250D03*
Y1618750D03*
X2042957Y1623750D03*
X2016457Y1610750D03*
X1932457Y1632250D03*
X1925957Y1645250D03*
X1966457Y1640250D03*
X1956957Y1634750D03*
X1950457Y1635250D03*
X1967457Y1662250D03*
X2006457Y1661250D03*
X1991957Y1655750D03*
X2007457Y1643250D03*
X1973457Y1665250D03*
Y1658250D03*
X1999457Y1657250D03*
X2044957Y1653250D03*
X2023957Y1636250D03*
X2036457Y1637250D03*
X2016957Y1657250D03*
X2017457Y1645250D03*
X2032957Y1669750D03*
X2041957Y1669250D03*
X2045457Y1639250D03*
X2065457Y1656250D03*
X2094957Y1650250D03*
X1853957Y1676250D03*
X1924457Y1709250D03*
X1897257Y1695450D03*
X1904457Y1709250D03*
X1944457D03*
X1964457D03*
X1983457D03*
X2003457D03*
X2022457D03*
X2042457D03*
X2057957Y1684250D03*
X2081457Y1709250D03*
X2062457D03*
X2120457D03*
X2101457D03*
X1932457Y1721250D03*
X1893457D03*
X1908957Y1724750D03*
X1947957Y1724250D03*
X1971457Y1721250D03*
X2011457D03*
X1987457Y1724750D03*
X2050457Y1721250D03*
X2026957Y1724750D03*
X2090457Y1721250D03*
X2066457Y1724750D03*
X2105957D03*
X2129357Y1727650D03*
G54D153*
X1892457Y1738750D03*
X1912457Y1739250D03*
X1931457D03*
X1951457D03*
X1971457D03*
X1990457D03*
X2011457D03*
X2030457D03*
X2049457D03*
X2089457D03*
X2069457D03*
X2108457D03*
X1896866Y1765856D03*
X1916552D03*
X1936237D03*
X1955922D03*
X1975607D03*
X1995292D03*
X2014977Y1766053D03*
X2034662Y1765856D03*
X2054347Y1766053D03*
X2074032D03*
X2093717Y1765856D03*
X2109465Y1763888D03*
G54D164*
X1901457Y1773750D03*
X1914457D03*
G54D165*
X1857457Y1765250D03*
X2144957Y1555250D03*
G54D167*
X2072357Y1649750D03*
X2081457D03*
X2090557D03*
G54D168*
X2081457Y1674750D03*
G54D172*
X1882757Y1763750D03*
X1871157D03*
G54D174*
X2099181Y1595699D03*
Y1576801D03*
X2089733D03*
Y1595699D03*
X2018181D03*
Y1576801D03*
X2008733D03*
Y1595699D03*
G54D175*
X2001646Y1524990D03*
X2025268D03*
Y1567510D03*
X2001646D03*
X2082646Y1524990D03*
X2106268D03*
Y1567510D03*
X2082646D03*
G74*
X0Y0D02*
M02*
