*
*
G04 PADS VX.0 Build Number: 635560 generated Gerber (RS-274-X) file*
G04 PC Version=2.1*
*
%IN "DC2259A-2.pcb"*%
*
%MOIN*%
*
%FSLAX35Y35*%
*
*
*
*
G04 PC Standard Apertures*
*
*
G04 Thermal Relief Aperture macro.*
%AMTER*
1,1,$1,0,0*
1,0,$1-$2,0,0*
21,0,$3,$4,0,0,45*
21,0,$3,$4,0,0,135*
%
*
*
G04 Annular Aperture macro.*
%AMANN*
1,1,$1,0,0*
1,0,$2,0,0*
%
*
*
G04 Odd Aperture macro.*
%AMODD*
1,1,$1,0,0*
1,0,$1-0.005,0,0*
%
*
*
G04 PC Custom Aperture Macros*
*
*
*
*
*
*
G04 PC Aperture Table*
*
%ADD011C,0.01*%
%ADD013C,0.009*%
%ADD014C,0.012*%
%ADD022R,0.06X0.06*%
%ADD023C,0.06*%
%ADD036C,0.11*%
%ADD038C,0.02*%
%ADD043C,0.001*%
%ADD125R,0.0337X0.03*%
%ADD135R,0.0473X0.056*%
%ADD141C,0.125*%
%ADD142C,0.12*%
%ADD143R,0.059X0.059*%
%ADD144C,0.059*%
%ADD148C,0.04*%
%ADD149C,0.03*%
%ADD152C,0.024*%
%ADD154R,0.08465X0.08465*%
%ADD155C,0.08465*%
%ADD156R,0.05992X0.05992*%
%ADD157C,0.05984*%
%ADD158R,0.13X0.05*%
%ADD159C,0.187*%
%ADD165C,0.068*%
%ADD173C,0.01969*%
*
*
*
*
G04 PC Circuitry*
G04 Layer Name DC2259A-2.pcb - circuitry*
%LPD*%
*
*
G04 PC Custom Flashes*
G04 Layer Name DC2259A-2.pcb - flashes*
%LPD*%
*
*
G04 PC Circuitry*
G04 Layer Name DC2259A-2.pcb - circuitry*
%LPD*%
*
G54D11*
G01X2148957Y1763417D02*
Y1758250D01*
Y1763417D02*
X2147346D01*
X2146810Y1763171*
X2146631Y1762925*
X2146452Y1762433*
Y1761941*
X2146631Y1761449*
X2146810Y1761203*
X2147346Y1760957*
X2148957*
X2147704D02*
X2146452Y1758250D01*
X2144841Y1763417D02*
Y1758250D01*
Y1763417D02*
X2142515D01*
X2144841Y1760957D02*
X2143409D01*
X2144841Y1758250D02*
X2142515D01*
X2140904Y1763417D02*
X2139472Y1758250D01*
X2138041Y1763417D02*
X2139472Y1758250D01*
X2132135Y1762187D02*
Y1762433D01*
X2131956Y1762925*
X2131777Y1763171*
X2131419Y1763417*
X2130704*
X2130346Y1763171*
X2130167Y1762925*
X2129988Y1762433*
Y1761941*
X2130167Y1761449*
X2130525Y1760711*
X2132314Y1758250*
X2129809*
X2118457Y1793433D02*
X2118099Y1793679D01*
X2117562Y1794417*
Y1789250*
X2113804Y1793679D02*
X2113983Y1794171D01*
X2114520Y1794417*
X2114878*
X2115415Y1794171*
X2115773Y1793433*
X2115952Y1792203*
Y1790972*
X2115773Y1789988*
X2115415Y1789496*
X2114878Y1789250*
X2114699*
X2114162Y1789496*
X2113804Y1789988*
X2113625Y1790726*
Y1790972*
X2113804Y1791711*
X2114162Y1792203*
X2114699Y1792449*
X2114878*
X2115415Y1792203*
X2115773Y1791711*
X2115952Y1790972*
X1888957Y1792933D02*
X1888599Y1793179D01*
X1888062Y1793917*
Y1788750*
X1905457Y1407813D02*
Y1401250D01*
X1908184*
X1910230Y1407813D02*
Y1401250D01*
X1912275Y1407813D02*
Y1401250D01*
Y1407813D02*
X1915457Y1401250D01*
Y1407813D02*
Y1401250D01*
X1917502Y1407813D02*
Y1401250D01*
Y1407813D02*
X1920457D01*
X1917502Y1404688D02*
X1919321D01*
X1917502Y1401250D02*
X1920457D01*
X1924321Y1407813D02*
X1922502Y1401250D01*
X1924321Y1407813D02*
X1926139Y1401250D01*
X1923184Y1403438D02*
X1925457D01*
X1928184Y1407813D02*
Y1401250D01*
Y1407813D02*
X1930230D01*
X1930230D02*
X1930912Y1407500D01*
X1931139Y1407188*
X1931139D02*
X1931366Y1406563D01*
X1931366D02*
Y1405938D01*
X1931366D02*
X1931139Y1405313D01*
X1931139D02*
X1930912Y1405000D01*
X1930230Y1404688*
X1930230D02*
X1928184D01*
X1929775D02*
X1931366Y1401250D01*
X1940230Y1407813D02*
Y1401250D01*
X1938639Y1407813D02*
X1941821D01*
X1943866D02*
Y1401250D01*
Y1407813D02*
X1946821D01*
X1943866Y1404688D02*
X1945684D01*
X1943866Y1401250D02*
X1946821D01*
X1952275Y1406250D02*
X1952048Y1406875D01*
X1951593Y1407500*
X1951139Y1407813*
X1951139D02*
X1950230D01*
X1950230D02*
X1949775Y1407500D01*
X1949321Y1406875*
X1949093Y1406250*
X1948866Y1405313*
X1948866D02*
Y1403750D01*
X1949093Y1402813*
X1949093D02*
X1949321Y1402188D01*
X1949321D02*
X1949775Y1401563D01*
X1949775D02*
X1950230Y1401250D01*
X1951139*
X1951593Y1401563*
X1951593D02*
X1952048Y1402188D01*
X1952048D02*
X1952275Y1402813D01*
X1954321Y1407813D02*
Y1401250D01*
X1957502Y1407813D02*
Y1401250D01*
X1954321Y1404688D02*
X1957502D01*
X1959548Y1407813D02*
Y1401250D01*
Y1407813D02*
X1962730Y1401250D01*
Y1407813D02*
Y1401250D01*
X1966139Y1407813D02*
X1965684Y1407500D01*
X1965230Y1406875*
X1965002Y1406250*
X1964775Y1405313*
X1964775D02*
Y1403750D01*
X1965002Y1402813*
X1965002D02*
X1965230Y1402188D01*
X1965230D02*
X1965684Y1401563D01*
X1965684D02*
X1966139Y1401250D01*
X1967048*
X1967502Y1401563*
X1967502D02*
X1967957Y1402188D01*
X1967957D02*
X1968184Y1402813D01*
X1968184D02*
X1968412Y1403750D01*
Y1405313*
X1968412D02*
X1968184Y1406250D01*
X1967957Y1406875*
X1967502Y1407500*
X1967048Y1407813*
X1967048D02*
X1966139D01*
X1970457D02*
Y1401250D01*
X1973184*
X1976593Y1407813D02*
X1976139Y1407500D01*
X1975684Y1406875*
X1975457Y1406250*
X1975230Y1405313*
X1975230D02*
Y1403750D01*
X1975457Y1402813*
X1975457D02*
X1975684Y1402188D01*
X1975684D02*
X1976139Y1401563D01*
X1976139D02*
X1976593Y1401250D01*
X1977502*
X1977957Y1401563*
X1977957D02*
X1978412Y1402188D01*
X1978412D02*
X1978639Y1402813D01*
X1978639D02*
X1978866Y1403750D01*
Y1405313*
X1978866D02*
X1978639Y1406250D01*
X1978412Y1406875*
X1977957Y1407500*
X1977502Y1407813*
X1977502D02*
X1976593D01*
X1984321Y1406250D02*
X1984093Y1406875D01*
X1983639Y1407500*
X1983184Y1407813*
X1983184D02*
X1982275D01*
X1982275D02*
X1981821Y1407500D01*
X1981366Y1406875*
X1981139Y1406250*
X1980912Y1405313*
X1980912D02*
Y1403750D01*
X1981139Y1402813*
X1981139D02*
X1981366Y1402188D01*
X1981366D02*
X1981821Y1401563D01*
X1981821D02*
X1982275Y1401250D01*
X1983184*
X1983639Y1401563*
X1983639D02*
X1984093Y1402188D01*
X1984093D02*
X1984321Y1402813D01*
X1984321D02*
Y1403750D01*
X1983184D02*
X1984321D01*
X1986366Y1407813D02*
X1988184Y1404688D01*
X1988184D02*
Y1401250D01*
X1990002Y1407813D02*
X1988184Y1404688D01*
X1905457Y1393813D02*
Y1387250D01*
Y1393813D02*
X1907048D01*
X1907048D02*
X1907730Y1393500D01*
X1908184Y1392875*
X1908412Y1392250*
X1908639Y1391313*
X1908639D02*
Y1389750D01*
X1908412Y1388813*
X1908412D02*
X1908184Y1388188D01*
X1908184D02*
X1907730Y1387563D01*
X1907730D02*
X1907048Y1387250D01*
X1905457*
X1914093Y1392250D02*
X1913866Y1392875D01*
X1913412Y1393500*
X1912957Y1393813*
X1912957D02*
X1912048D01*
X1912048D02*
X1911593Y1393500D01*
X1911139Y1392875*
X1910912Y1392250*
X1910684Y1391313*
X1910684D02*
Y1389750D01*
X1910912Y1388813*
X1910912D02*
X1911139Y1388188D01*
X1911139D02*
X1911593Y1387563D01*
X1911593D02*
X1912048Y1387250D01*
X1912957*
X1913412Y1387563*
X1913412D02*
X1913866Y1388188D01*
X1913866D02*
X1914093Y1388813D01*
X1916366Y1392250D02*
Y1392563D01*
X1916366D02*
X1916593Y1393188D01*
X1916593D02*
X1916821Y1393500D01*
X1917275Y1393813*
X1917275D02*
X1918184D01*
X1918184D02*
X1918639Y1393500D01*
X1918866Y1393188*
X1918866D02*
X1919093Y1392563D01*
X1919093D02*
Y1391938D01*
X1919093D02*
X1918866Y1391313D01*
X1918866D02*
X1918412Y1390375D01*
X1916139Y1387250*
X1919321*
X1921593Y1392250D02*
Y1392563D01*
X1921593D02*
X1921821Y1393188D01*
X1921821D02*
X1922048Y1393500D01*
X1922502Y1393813*
X1922502D02*
X1923412D01*
X1923412D02*
X1923866Y1393500D01*
X1924093Y1393188*
X1924093D02*
X1924321Y1392563D01*
X1924321D02*
Y1391938D01*
X1924321D02*
X1924093Y1391313D01*
X1924093D02*
X1923639Y1390375D01*
X1921366Y1387250*
X1924548*
X1929548Y1393813D02*
X1927275D01*
X1927275D02*
X1927048Y1391000D01*
X1927275Y1391313*
X1927275D02*
X1927957Y1391625D01*
X1928639*
X1929321Y1391313*
X1929321D02*
X1929775Y1390688D01*
X1929775D02*
X1930002Y1389750D01*
X1929775Y1389125*
X1929548Y1388188*
X1929548D02*
X1929093Y1387563D01*
X1929093D02*
X1928412Y1387250D01*
X1927730*
X1927048Y1387563*
X1927048D02*
X1926821Y1387875D01*
X1926593Y1388500*
X1935002Y1391625D02*
X1934775Y1390688D01*
X1934775D02*
X1934321Y1390063D01*
X1934321D02*
X1933639Y1389750D01*
X1933412*
X1932730Y1390063*
X1932730D02*
X1932275Y1390688D01*
X1932275D02*
X1932048Y1391625D01*
Y1391938*
X1932048D02*
X1932275Y1392875D01*
X1932730Y1393500*
X1933412Y1393813*
X1933412D02*
X1933639D01*
X1933639D02*
X1934321Y1393500D01*
X1934775Y1392875*
X1935002Y1391625*
Y1390063*
X1935002D02*
X1934775Y1388500D01*
X1934321Y1387563*
X1934321D02*
X1933639Y1387250D01*
X1933184*
X1932502Y1387563*
X1932502D02*
X1932275Y1388188D01*
X1938866Y1393813D02*
X1937048Y1387250D01*
X1938866Y1393813D02*
X1940684Y1387250D01*
X1937730Y1389438D02*
X1940002D01*
X1942730Y1390063D02*
X1946821D01*
X1949093Y1392250D02*
Y1392563D01*
X1949093D02*
X1949321Y1393188D01*
X1949321D02*
X1949548Y1393500D01*
X1950002Y1393813*
X1950002D02*
X1950912D01*
X1950912D02*
X1951366Y1393500D01*
X1951593Y1393188*
X1951593D02*
X1951821Y1392563D01*
X1951821D02*
Y1391938D01*
X1951821D02*
X1951593Y1391313D01*
X1951593D02*
X1951139Y1390375D01*
X1948866Y1387250*
X1952048*
X1954093Y1390063D02*
X1958184D01*
X1970684Y1393813D02*
Y1387250D01*
X1973412*
X1977048Y1393813D02*
Y1387250D01*
X1975457Y1393813D02*
X1978639D01*
X1984093Y1392250D02*
X1983866Y1392875D01*
X1983412Y1393500*
X1982957Y1393813*
X1982957D02*
X1982048D01*
X1982048D02*
X1981593Y1393500D01*
X1981139Y1392875*
X1980912Y1392250*
X1980684Y1391313*
X1980684D02*
Y1389750D01*
X1980912Y1388813*
X1980912D02*
X1981139Y1388188D01*
X1981139D02*
X1981593Y1387563D01*
X1981593D02*
X1982048Y1387250D01*
X1982957*
X1983412Y1387563*
X1983412D02*
X1983866Y1388188D01*
X1983866D02*
X1984093Y1388813D01*
X1988866Y1392875D02*
X1988639Y1393500D01*
X1987957Y1393813*
X1987957D02*
X1987502D01*
X1987502D02*
X1986821Y1393500D01*
X1986366Y1392563*
X1986366D02*
X1986139Y1391000D01*
Y1389438*
X1986139D02*
X1986366Y1388188D01*
X1986366D02*
X1986821Y1387563D01*
X1986821D02*
X1987502Y1387250D01*
X1987730*
X1988412Y1387563*
X1988412D02*
X1988866Y1388188D01*
X1988866D02*
X1989093Y1389125D01*
Y1389438*
X1989093D02*
X1988866Y1390375D01*
X1988412Y1391000*
X1987730Y1391313*
X1987730D02*
X1987502D01*
X1987502D02*
X1986821Y1391000D01*
X1986366Y1390375*
X1986139Y1389438*
X1992275Y1393813D02*
X1991593Y1393500D01*
X1991366Y1392875*
Y1392250*
X1991593Y1391625*
X1992048Y1391313*
X1992048D02*
X1992957Y1391000D01*
X1993639Y1390688*
X1993639D02*
X1994093Y1390063D01*
X1994093D02*
X1994321Y1389438D01*
X1994321D02*
Y1388500D01*
X1994093Y1387875*
X1993866Y1387563*
X1993866D02*
X1993184Y1387250D01*
X1992275*
X1991593Y1387563*
X1991593D02*
X1991366Y1387875D01*
X1991139Y1388500*
Y1389438*
X1991139D02*
X1991366Y1390063D01*
X1991366D02*
X1991821Y1390688D01*
X1991821D02*
X1992502Y1391000D01*
X1993412Y1391313*
X1993412D02*
X1993866Y1391625D01*
X1994093Y1392250*
Y1392875*
X1993866Y1393500*
X1993184Y1393813*
X1993184D02*
X1992275D01*
X1996366Y1392563D02*
X1996821Y1392875D01*
X1997502Y1393813*
X1997502D02*
Y1387250D01*
X1999548Y1392563D02*
X2000002Y1392875D01*
X2000684Y1393813*
X2000684D02*
Y1387250D01*
X2002730Y1393813D02*
Y1387250D01*
X2008184Y1392250D02*
X2007957Y1392875D01*
X2007502Y1393500*
X2007048Y1393813*
X2007048D02*
X2006139D01*
X2006139D02*
X2005684Y1393500D01*
X2005230Y1392875*
X2005002Y1392250*
X2004775Y1391313*
X2004775D02*
Y1389750D01*
X2005002Y1388813*
X2005002D02*
X2005230Y1388188D01*
X2005230D02*
X2005684Y1387563D01*
X2005684D02*
X2006139Y1387250D01*
X2007048*
X2007502Y1387563*
X2007502D02*
X2007957Y1388188D01*
X2007957D02*
X2008184Y1388813D01*
X2008184D02*
Y1389750D01*
X2007048D02*
X2008184D01*
X2010230Y1390063D02*
X2014321D01*
X2016366Y1392563D02*
X2016821Y1392875D01*
X2017502Y1393813*
X2017502D02*
Y1387250D01*
X2006457Y1409813D02*
Y1403250D01*
Y1409813D02*
X2008048D01*
X2008048D02*
X2008730Y1409500D01*
X2009184Y1408875*
X2009412Y1408250*
X2009639Y1407313*
X2009639D02*
Y1405750D01*
X2009412Y1404813*
X2009412D02*
X2009184Y1404188D01*
X2009184D02*
X2008730Y1403563D01*
X2008730D02*
X2008048Y1403250D01*
X2006457*
X2013502Y1409813D02*
X2011684Y1403250D01*
X2013502Y1409813D02*
X2015321Y1403250D01*
X2012366Y1405438D02*
X2014639D01*
X2018957Y1409813D02*
Y1403250D01*
X2017366Y1409813D02*
X2020548D01*
X2022593D02*
Y1403250D01*
Y1409813D02*
X2025548D01*
X2022593Y1406688D02*
X2024412D01*
X2022593Y1403250D02*
X2025548D01*
X2027821Y1407625D02*
X2027593Y1407313D01*
X2027593D02*
X2027821Y1407000D01*
X2028048Y1407313*
X2028048D02*
X2027821Y1407625D01*
Y1403875D02*
X2027593Y1403563D01*
X2027593D02*
X2027821Y1403250D01*
X2028048Y1403563*
X2028048D02*
X2027821Y1403875D01*
X2036684Y1409813D02*
X2036002Y1409500D01*
X2035548Y1408563*
X2035548D02*
X2035321Y1407000D01*
Y1406063*
X2035321D02*
X2035548Y1404500D01*
X2036002Y1403563*
X2036002D02*
X2036684Y1403250D01*
X2037139*
X2037821Y1403563*
X2037821D02*
X2038275Y1404500D01*
X2038502Y1406063*
X2038502D02*
Y1407000D01*
X2038275Y1408563*
X2038275D02*
X2037821Y1409500D01*
X2037139Y1409813*
X2037139D02*
X2036684D01*
X2043275Y1408875D02*
X2043048Y1409500D01*
X2042366Y1409813*
X2042366D02*
X2041912D01*
X2041912D02*
X2041230Y1409500D01*
X2040775Y1408563*
X2040775D02*
X2040548Y1407000D01*
Y1405438*
X2040548D02*
X2040775Y1404188D01*
X2040775D02*
X2041230Y1403563D01*
X2041230D02*
X2041912Y1403250D01*
X2042139*
X2042821Y1403563*
X2042821D02*
X2043275Y1404188D01*
X2043275D02*
X2043502Y1405125D01*
Y1405438*
X2043502D02*
X2043275Y1406375D01*
X2042821Y1407000*
X2042139Y1407313*
X2042139D02*
X2041912D01*
X2041912D02*
X2041230Y1407000D01*
X2040775Y1406375*
X2040548Y1405438*
X2045548Y1406063D02*
X2049639D01*
X2051684Y1408563D02*
X2052139Y1408875D01*
X2052821Y1409813*
X2052821D02*
Y1403250D01*
X2057821Y1409813D02*
X2055548D01*
X2055548D02*
X2055321Y1407000D01*
X2055548Y1407313*
X2055548D02*
X2056230Y1407625D01*
X2056912*
X2057593Y1407313*
X2057593D02*
X2058048Y1406688D01*
X2058048D02*
X2058275Y1405750D01*
X2058048Y1405125*
X2057821Y1404188*
X2057821D02*
X2057366Y1403563D01*
X2057366D02*
X2056684Y1403250D01*
X2056002*
X2055321Y1403563*
X2055321D02*
X2055093Y1403875D01*
X2054866Y1404500*
X2060321Y1406063D02*
X2064412D01*
X2066457Y1408563D02*
X2066912Y1408875D01*
X2067593Y1409813*
X2067593D02*
Y1403250D01*
X2072593Y1409813D02*
X2070321D01*
X2070321D02*
X2070093Y1407000D01*
X2070321Y1407313*
X2070321D02*
X2071002Y1407625D01*
X2071684*
X2072366Y1407313*
X2072366D02*
X2072821Y1406688D01*
X2072821D02*
X2073048Y1405750D01*
X2072821Y1405125*
X2072593Y1404188*
X2072593D02*
X2072139Y1403563D01*
X2072139D02*
X2071457Y1403250D01*
X2070775*
X2070093Y1403563*
X2070093D02*
X2069866Y1403875D01*
X2069639Y1404500*
X1905457Y1379813D02*
X1905684Y1379500D01*
X1905912Y1379813*
X1905912D02*
X1905684Y1380125D01*
X1905457Y1379813*
X1905684Y1377625D02*
Y1373250D01*
X1910457Y1376688D02*
X1910230Y1377313D01*
X1910230D02*
X1909548Y1377625D01*
X1908866*
X1908184Y1377313*
X1908184D02*
X1907957Y1376688D01*
X1907957D02*
X1908184Y1376063D01*
X1908184D02*
X1908639Y1375750D01*
X1909775Y1375438*
X1909775D02*
X1910230Y1375125D01*
X1910457Y1374500*
Y1374188*
X1910457D02*
X1910230Y1373563D01*
X1910230D02*
X1909548Y1373250D01*
X1908866*
X1908184Y1373563*
X1908184D02*
X1907957Y1374188D01*
X1913639Y1377625D02*
X1913184Y1377313D01*
X1913184D02*
X1912730Y1376688D01*
X1912730D02*
X1912502Y1375750D01*
Y1375125*
X1912730Y1374188*
X1912730D02*
X1913184Y1373563D01*
X1913184D02*
X1913639Y1373250D01*
X1914321*
X1914775Y1373563*
X1914775D02*
X1915230Y1374188D01*
X1915230D02*
X1915457Y1375125D01*
Y1375750*
X1915230Y1376688*
X1915230D02*
X1914775Y1377313D01*
X1914775D02*
X1914321Y1377625D01*
X1913639*
X1920684Y1378875D02*
X1920230Y1379500D01*
X1919548Y1379813*
X1919548D02*
X1918639D01*
X1918639D02*
X1917957Y1379500D01*
X1917502Y1378875*
Y1378250*
X1917730Y1377625*
X1917957Y1377313*
X1917957D02*
X1918412Y1377000D01*
X1919775Y1376375*
X1920230Y1376063*
X1920230D02*
X1920457Y1375750D01*
X1920684Y1375125*
Y1374188*
X1920684D02*
X1920230Y1373563D01*
X1920230D02*
X1919548Y1373250D01*
X1918639*
X1917957Y1373563*
X1917957D02*
X1917502Y1374188D01*
X1922730Y1379813D02*
Y1373250D01*
Y1379813D02*
X1924775D01*
X1924775D02*
X1925457Y1379500D01*
X1925684Y1379188*
X1925684D02*
X1925912Y1378563D01*
X1925912D02*
Y1377625D01*
X1925684Y1377000*
X1925457Y1376688*
X1925457D02*
X1924775Y1376375D01*
X1922730*
X1927957Y1379813D02*
Y1373250D01*
X1935230Y1378563D02*
X1935684Y1378875D01*
X1936366Y1379813*
X1936366D02*
Y1373250D01*
X1938639Y1378250D02*
Y1378563D01*
X1938639D02*
X1938866Y1379188D01*
X1938866D02*
X1939093Y1379500D01*
X1939548Y1379813*
X1939548D02*
X1940457D01*
X1940457D02*
X1940912Y1379500D01*
X1941139Y1379188*
X1941139D02*
X1941366Y1378563D01*
X1941366D02*
Y1377938D01*
X1941366D02*
X1941139Y1377313D01*
X1941139D02*
X1940684Y1376375D01*
X1938412Y1373250*
X1941593*
X1943639Y1376063D02*
X1947730D01*
X1953184Y1378250D02*
X1952957Y1378875D01*
X1952502Y1379500*
X1952048Y1379813*
X1952048D02*
X1951139D01*
X1951139D02*
X1950684Y1379500D01*
X1950230Y1378875*
X1950002Y1378250*
X1949775Y1377313*
X1949775D02*
Y1375750D01*
X1950002Y1374813*
X1950002D02*
X1950230Y1374188D01*
X1950230D02*
X1950684Y1373563D01*
X1950684D02*
X1951139Y1373250D01*
X1952048*
X1952502Y1373563*
X1952502D02*
X1952957Y1374188D01*
X1952957D02*
X1953184Y1374813D01*
X1955230Y1379813D02*
Y1373250D01*
Y1379813D02*
X1958184D01*
X1955230Y1376688D02*
X1957048D01*
X1955230Y1373250D02*
X1958184D01*
X1960230Y1379813D02*
Y1373250D01*
X1962957*
X1965002Y1379813D02*
Y1373250D01*
X1967730*
X1975002Y1379813D02*
Y1373250D01*
Y1379813D02*
X1977048D01*
X1977048D02*
X1977730Y1379500D01*
X1977957Y1379188*
X1977957D02*
X1978184Y1378563D01*
X1978184D02*
Y1377938D01*
X1978184D02*
X1977957Y1377313D01*
X1977957D02*
X1977730Y1377000D01*
X1977048Y1376688*
X1975002D02*
X1977048D01*
X1977048D02*
X1977730Y1376375D01*
X1977957Y1376063*
X1977957D02*
X1978184Y1375438D01*
X1978184D02*
Y1374500D01*
X1977957Y1373875*
X1977730Y1373563*
X1977730D02*
X1977048Y1373250D01*
X1975002*
X1982048Y1379813D02*
X1980230Y1373250D01*
X1982048Y1379813D02*
X1983866Y1373250D01*
X1980912Y1375438D02*
X1983184D01*
X1987502Y1379813D02*
Y1373250D01*
X1985912Y1379813D02*
X1989093D01*
X1992730D02*
Y1373250D01*
X1991139Y1379813D02*
X1994321D01*
X1996366D02*
Y1373250D01*
Y1379813D02*
X1999321D01*
X1996366Y1376688D02*
X1998184D01*
X1996366Y1373250D02*
X1999321D01*
X2001366Y1379813D02*
Y1373250D01*
Y1379813D02*
X2003412D01*
X2003412D02*
X2004093Y1379500D01*
X2004321Y1379188*
X2004321D02*
X2004548Y1378563D01*
X2004548D02*
Y1377938D01*
X2004548D02*
X2004321Y1377313D01*
X2004321D02*
X2004093Y1377000D01*
X2003412Y1376688*
X2003412D02*
X2001366D01*
X2002957D02*
X2004548Y1373250D01*
X2006593Y1379813D02*
X2008412Y1376688D01*
X2008412D02*
Y1373250D01*
X2010230Y1379813D02*
X2008412Y1376688D01*
X2012275Y1376063D02*
X2016366D01*
X2021593Y1378875D02*
X2021139Y1379500D01*
X2020457Y1379813*
X2020457D02*
X2019548D01*
X2019548D02*
X2018866Y1379500D01*
X2018412Y1378875*
Y1378250*
X2018639Y1377625*
X2018866Y1377313*
X2018866D02*
X2019321Y1377000D01*
X2020684Y1376375*
X2021139Y1376063*
X2021139D02*
X2021366Y1375750D01*
X2021593Y1375125*
Y1374188*
X2021593D02*
X2021139Y1373563D01*
X2021139D02*
X2020457Y1373250D01*
X2019548*
X2018866Y1373563*
X2018866D02*
X2018412Y1374188D01*
X2025230Y1379813D02*
Y1373250D01*
X2023639Y1379813D02*
X2026821D01*
X2030684D02*
X2028866Y1373250D01*
X2030684Y1379813D02*
X2032502Y1373250D01*
X2029548Y1375438D02*
X2031821D01*
X2037957Y1378250D02*
X2037730Y1378875D01*
X2037275Y1379500*
X2036821Y1379813*
X2036821D02*
X2035912D01*
X2035912D02*
X2035457Y1379500D01*
X2035002Y1378875*
X2034775Y1378250*
X2034548Y1377313*
X2034548D02*
Y1375750D01*
X2034775Y1374813*
X2034775D02*
X2035002Y1374188D01*
X2035002D02*
X2035457Y1373563D01*
X2035457D02*
X2035912Y1373250D01*
X2036821*
X2037275Y1373563*
X2037275D02*
X2037730Y1374188D01*
X2037730D02*
X2037957Y1374813D01*
X2040002Y1379813D02*
Y1373250D01*
X2043184Y1379813D02*
X2040002Y1375438D01*
X2041139Y1377000D02*
X2043184Y1373250D01*
X2050457Y1379813D02*
Y1373250D01*
Y1379813D02*
X2052275Y1373250D01*
X2054093Y1379813D02*
X2052275Y1373250D01*
X2054093Y1379813D02*
Y1373250D01*
X2057502Y1379813D02*
X2057048Y1379500D01*
X2056593Y1378875*
X2056366Y1378250*
X2056139Y1377313*
X2056139D02*
Y1375750D01*
X2056366Y1374813*
X2056366D02*
X2056593Y1374188D01*
X2056593D02*
X2057048Y1373563D01*
X2057048D02*
X2057502Y1373250D01*
X2058412*
X2058866Y1373563*
X2058866D02*
X2059321Y1374188D01*
X2059321D02*
X2059548Y1374813D01*
X2059548D02*
X2059775Y1375750D01*
Y1377313*
X2059775D02*
X2059548Y1378250D01*
X2059321Y1378875*
X2058866Y1379500*
X2058412Y1379813*
X2058412D02*
X2057502D01*
X2061821D02*
Y1373250D01*
Y1379813D02*
X2065002Y1373250D01*
Y1379813D02*
Y1373250D01*
X2067048Y1379813D02*
Y1373250D01*
X2070684Y1379813D02*
Y1373250D01*
X2069093Y1379813D02*
X2072275D01*
X2075684D02*
X2075230Y1379500D01*
X2074775Y1378875*
X2074548Y1378250*
X2074321Y1377313*
X2074321D02*
Y1375750D01*
X2074548Y1374813*
X2074548D02*
X2074775Y1374188D01*
X2074775D02*
X2075230Y1373563D01*
X2075230D02*
X2075684Y1373250D01*
X2076593*
X2077048Y1373563*
X2077048D02*
X2077502Y1374188D01*
X2077502D02*
X2077730Y1374813D01*
X2077730D02*
X2077957Y1375750D01*
Y1377313*
X2077957D02*
X2077730Y1378250D01*
X2077502Y1378875*
X2077048Y1379500*
X2076593Y1379813*
X2076593D02*
X2075684D01*
X2080002D02*
Y1373250D01*
Y1379813D02*
X2082048D01*
X2082048D02*
X2082730Y1379500D01*
X2082957Y1379188*
X2082957D02*
X2083184Y1378563D01*
X2083184D02*
Y1377938D01*
X2083184D02*
X2082957Y1377313D01*
X2082957D02*
X2082730Y1377000D01*
X2082048Y1376688*
X2082048D02*
X2080002D01*
X2081593D02*
X2083184Y1373250D01*
X1905457Y1425813D02*
Y1419250D01*
X1908184*
X1912048Y1425813D02*
X1910230Y1419250D01*
X1912048Y1425813D02*
X1913866Y1419250D01*
X1910912Y1421438D02*
X1913184D01*
X1915912Y1425813D02*
X1917730Y1422688D01*
X1917730D02*
Y1419250D01*
X1919548Y1425813D02*
X1917730Y1422688D01*
X1921593Y1425813D02*
Y1419250D01*
Y1425813D02*
X1924548D01*
X1921593Y1422688D02*
X1923412D01*
X1921593Y1419250D02*
X1924548D01*
X1926593Y1425813D02*
Y1419250D01*
Y1425813D02*
X1928639D01*
X1928639D02*
X1929321Y1425500D01*
X1929548Y1425188*
X1929548D02*
X1929775Y1424563D01*
X1929775D02*
Y1423938D01*
X1929775D02*
X1929548Y1423313D01*
X1929548D02*
X1929321Y1423000D01*
X1928639Y1422688*
X1928639D02*
X1926593D01*
X1928184D02*
X1929775Y1419250D01*
X1937275Y1424250D02*
Y1424563D01*
X1937275D02*
X1937502Y1425188D01*
X1937502D02*
X1937730Y1425500D01*
X1938184Y1425813*
X1938184D02*
X1939093D01*
X1939093D02*
X1939548Y1425500D01*
X1939775Y1425188*
X1939775D02*
X1940002Y1424563D01*
X1940002D02*
Y1423938D01*
X1940002D02*
X1939775Y1423313D01*
X1939775D02*
X1939321Y1422375D01*
X1937048Y1419250*
X1940230*
X1947730Y1423625D02*
X1947502Y1423313D01*
X1947502D02*
X1947730Y1423000D01*
X1947957Y1423313*
X1947957D02*
X1947730Y1423625D01*
Y1419875D02*
X1947502Y1419563D01*
X1947502D02*
X1947730Y1419250D01*
X1947957Y1419563*
X1947957D02*
X1947730Y1419875D01*
X1955230Y1425813D02*
Y1419250D01*
Y1425813D02*
X1957275D01*
X1957275D02*
X1957957Y1425500D01*
X1958184Y1425188*
X1958184D02*
X1958412Y1424563D01*
X1958412D02*
Y1423938D01*
X1958412D02*
X1958184Y1423313D01*
X1958184D02*
X1957957Y1423000D01*
X1957275Y1422688*
X1955230D02*
X1957275D01*
X1957275D02*
X1957957Y1422375D01*
X1958184Y1422063*
X1958184D02*
X1958412Y1421438D01*
X1958412D02*
Y1420500D01*
X1958184Y1419875*
X1957957Y1419563*
X1957957D02*
X1957275Y1419250D01*
X1955230*
X1961821Y1425813D02*
X1961366Y1425500D01*
X1960912Y1424875*
X1960684Y1424250*
X1960457Y1423313*
X1960457D02*
Y1421750D01*
X1960684Y1420813*
X1960684D02*
X1960912Y1420188D01*
X1960912D02*
X1961366Y1419563D01*
X1961366D02*
X1961821Y1419250D01*
X1962730*
X1963184Y1419563*
X1963184D02*
X1963639Y1420188D01*
X1963639D02*
X1963866Y1420813D01*
X1963866D02*
X1964093Y1421750D01*
Y1423313*
X1964093D02*
X1963866Y1424250D01*
X1963639Y1424875*
X1963184Y1425500*
X1962730Y1425813*
X1962730D02*
X1961821D01*
X1967730D02*
Y1419250D01*
X1966139Y1425813D02*
X1969321D01*
X1972957D02*
Y1419250D01*
X1971366Y1425813D02*
X1974548D01*
X1977957D02*
X1977502Y1425500D01*
X1977048Y1424875*
X1976821Y1424250*
X1976593Y1423313*
X1976593D02*
Y1421750D01*
X1976821Y1420813*
X1976821D02*
X1977048Y1420188D01*
X1977048D02*
X1977502Y1419563D01*
X1977502D02*
X1977957Y1419250D01*
X1978866*
X1979321Y1419563*
X1979321D02*
X1979775Y1420188D01*
X1979775D02*
X1980002Y1420813D01*
X1980002D02*
X1980230Y1421750D01*
Y1423313*
X1980230D02*
X1980002Y1424250D01*
X1979775Y1424875*
X1979321Y1425500*
X1978866Y1425813*
X1978866D02*
X1977957D01*
X1982275D02*
Y1419250D01*
Y1425813D02*
X1984093Y1419250D01*
X1985912Y1425813D02*
X1984093Y1419250D01*
X1985912Y1425813D02*
Y1419250D01*
X1993184Y1425813D02*
Y1419250D01*
X1995912*
X1999775Y1425813D02*
X1997957Y1419250D01*
X1999775Y1425813D02*
X2001593Y1419250D01*
X1998639Y1421438D02*
X2000912D01*
X2003639Y1425813D02*
X2005457Y1422688D01*
X2005457D02*
Y1419250D01*
X2007275Y1425813D02*
X2005457Y1422688D01*
X2009321Y1425813D02*
Y1419250D01*
Y1425813D02*
X2012275D01*
X2009321Y1422688D02*
X2011139D01*
X2009321Y1419250D02*
X2012275D01*
X2014321Y1425813D02*
Y1419250D01*
Y1425813D02*
X2016366D01*
X2016366D02*
X2017048Y1425500D01*
X2017275Y1425188*
X2017275D02*
X2017502Y1424563D01*
X2017502D02*
Y1423938D01*
X2017502D02*
X2017275Y1423313D01*
X2017275D02*
X2017048Y1423000D01*
X2016366Y1422688*
X2016366D02*
X2014321D01*
X2015912D02*
X2017502Y1419250D01*
X1878957Y1579750D02*
X1862957D01*
X1858457Y1584250*
Y1593641*
X1863179Y1598363*
X1878957Y1579750D02*
X1881957Y1582750D01*
Y1596750*
X1886957Y1601750*
X1992457*
X1998457Y1607750*
Y1631250*
X2002457Y1635250*
X2009957*
X1879457Y1577250D02*
X1862457D01*
X1856457Y1583250*
Y1601750*
X1860970Y1606263*
X1863179*
X1879457Y1577250D02*
X1883957Y1581750D01*
Y1595250*
X1887957Y1599250*
X1992457*
X2000457Y1607250*
Y1624624*
X2005957Y1630124*
X1883207Y1606500D02*
X1956207D01*
X1958707Y1609000*
X1990707*
X1992457Y1610750*
Y1635750*
X2010957Y1654250*
X2017137*
X1883207Y1606500D02*
X1875544Y1614163D01*
X1871079*
X1928457Y1627250D02*
X1932457D01*
X1967457Y1662250*
X1897457Y1614250D02*
X1902083Y1614376D01*
X1915457*
Y1622250D02*
X1932457D01*
X1973457Y1663250*
Y1665250*
X1915457Y1614376D02*
X1958957D01*
X1958207Y1604000D02*
X1881707D01*
X1879444Y1606263*
X1871079*
X1958207Y1604000D02*
X1961457Y1607250D01*
X1991957*
X1994457Y1609750*
Y1634250*
X2008457Y1648250*
X2017137*
X1962520Y1614376D02*
Y1618055D01*
X1956957Y1623618*
Y1634750*
X1962520Y1614376D02*
X1958957D01*
X1987457Y1604250D02*
X1991957D01*
X1996457Y1608750*
Y1632750*
X2001957Y1638250*
X2011457*
X1987457Y1614376D02*
X1962520D01*
X2023457Y1630124D02*
X2015083D01*
X2009957Y1635250*
X1950457D02*
X1973457Y1658250D01*
X1998777Y1651250D02*
Y1657250D01*
X1999457*
X2002777Y1661250D02*
X2006457D01*
X2023957Y1636250D02*
X2023777Y1636430D01*
Y1640750*
X2023957Y1636250D02*
X2013457D01*
X2011457Y1638250*
X2017457Y1645250D02*
Y1648250D01*
X2017137*
X2045457Y1639250D02*
X2044957Y1639750D01*
Y1653250*
X2017137Y1654250D02*
Y1657250D01*
X2016957*
X2023777Y1654250D02*
Y1657930D01*
X2020457Y1661250*
X2006457*
X2017137Y1640750D02*
X2014137Y1643250D01*
X2007457*
X2023777Y1640750D02*
Y1648250D01*
Y1654250*
X2094957Y1650250D02*
X2071457D01*
X2065457Y1656250*
X1859457Y1679250D02*
X1882457D01*
X1889457Y1686250*
Y1700250*
X1901457Y1712250*
X2046457*
X2055457Y1721250*
X2090457*
X1859457Y1679250D02*
X1850457Y1688250D01*
Y1725028*
X1863179Y1737750*
X1881457Y1681250D02*
X1861457D01*
X1852457Y1690250*
Y1719128*
X1863179Y1729850*
X1881457Y1681250D02*
X1887457Y1687250D01*
Y1701250*
X1900457Y1714250*
X2009457*
X2016457Y1721250*
X2050457*
X1880457Y1683250D02*
X1862457D01*
X1854457Y1691250*
Y1713228*
X1863179Y1721950*
X1880457Y1683250D02*
X1885457Y1688250D01*
Y1702250*
X1899457Y1716250*
X1970457*
X1975457Y1721250*
X2011457*
X1879457Y1685250D02*
X1863457D01*
X1856457Y1692250*
Y1707328*
X1863179Y1714050*
X1879457Y1685250D02*
X1883457Y1689250D01*
Y1703250*
X1898457Y1718250*
X1966957*
X1971457Y1721250*
X1875457Y1689250D02*
X1866457D01*
X1863457Y1692250*
Y1697972*
X1863179Y1698250*
X1875457Y1689250D02*
X1878457Y1692250D01*
Y1706250*
X1893457Y1721250*
X1871079Y1706150D02*
X1884457Y1719528D01*
Y1741250*
X1886457Y1743250*
X1904957*
X1877457Y1687250D02*
X1864457D01*
X1858457Y1693250*
Y1701428*
X1863179Y1706150*
X1877457Y1687250D02*
X1881457Y1691250D01*
Y1704250*
X1898457Y1721250*
X1932457*
X1924457Y1704950D02*
Y1709250D01*
X1904457Y1704950D02*
Y1709250D01*
X1964457Y1704950D02*
Y1709250D01*
X1944457Y1704950D02*
Y1709250D01*
X2003457Y1704950D02*
Y1709250D01*
X1983457Y1704950D02*
Y1709250D01*
X2042457Y1704950D02*
Y1709250D01*
X2022457Y1704950D02*
Y1709250D01*
X2062457Y1704950D02*
Y1709250D01*
X2081457Y1704950D02*
Y1709250D01*
X2120457Y1704950D02*
Y1709250D01*
X2101457Y1704950D02*
Y1709250D01*
X1863179Y1745650D02*
Y1752250D01*
X1882179Y1771250*
Y1796250*
X1885179Y1799250*
X1893457*
X1902457Y1808250*
X2093457*
X1871079Y1745650D02*
Y1751250D01*
X1873579Y1753750*
X2097357*
X1871079Y1737750D02*
X1876518Y1743189D01*
Y1748311*
X1879457Y1751250*
X2060457*
X1871079Y1729850D02*
X1878671Y1737442D01*
Y1746464*
X1881457Y1749250*
X1871079Y1721950D02*
X1880457Y1731328D01*
Y1744250*
X1883457Y1747250*
X1982457*
X1871079Y1714050D02*
X1882618Y1725589D01*
Y1742411*
X1885457Y1745250*
X1942957*
X1908957Y1724750D02*
Y1725250D01*
X1907457Y1726750*
Y1740750*
X1904957Y1743250*
X1947957Y1724250D02*
Y1724578D01*
X1946457Y1726078*
Y1741750*
X1942957Y1745250*
X1987457Y1724750D02*
X1985457Y1726750D01*
Y1744250*
X1982457Y1747250*
X2026957Y1724750D02*
X2024957Y1726750D01*
Y1744750*
X2020457Y1749250*
X1881457*
X2066457Y1724750D02*
X2063835Y1727372D01*
Y1747872*
X2060457Y1751250*
X2105957Y1724750D02*
X2103357Y1727350D01*
Y1747750*
X2097357Y1753750*
X2103363Y1791250D02*
Y1798344D01*
X2093457Y1808250*
X2120382Y1779750D02*
Y1756750D01*
X2106422*
Y1779750*
X2120382*
X2100500D02*
Y1756750D01*
X2086540*
Y1779750*
X2100500*
X2081012D02*
Y1756750D01*
X2067052*
Y1779750*
X2081012*
X2061130D02*
Y1756750D01*
X2047170*
Y1779750*
X2061130*
X2041642D02*
Y1756750D01*
X2027681*
Y1779750*
X2041642*
X2021957D02*
Y1756750D01*
X2007996*
Y1779750*
X2021957*
X2002272D02*
Y1756750D01*
X1988311*
Y1779750*
X2002272*
X1982587D02*
Y1756750D01*
X1968626*
Y1779750*
X1982587*
X1962902D02*
Y1756750D01*
X1948941*
Y1779750*
X1962902*
X1943217D02*
Y1756750D01*
X1929256*
Y1779750*
X1943217*
X1923532D02*
Y1756750D01*
X1909571*
Y1779750*
X1923532*
X1903847D02*
Y1756750D01*
X1889886*
Y1779750*
X1903847*
X2106422Y1779249D02*
X2120382D01*
X2106422Y1778349D02*
X2120382D01*
X2106422Y1777449D02*
X2120382D01*
X2106422Y1776549D02*
X2120382D01*
X2106422Y1775649D02*
X2120382D01*
X2106422Y1774749D02*
X2120382D01*
X2106422Y1773849D02*
X2120382D01*
X2106422Y1772949D02*
X2120382D01*
X2106422Y1772049D02*
X2120382D01*
X2106422Y1771149D02*
X2120382D01*
X2106422Y1770249D02*
X2120382D01*
X2106422Y1769349D02*
X2120382D01*
X2106422Y1768449D02*
X2120382D01*
X2106422Y1767549D02*
X2120382D01*
X2106422Y1766649D02*
X2120382D01*
X2106422Y1765749D02*
X2120382D01*
X2106422Y1764849D02*
X2120382D01*
X2106422Y1763949D02*
X2120382D01*
X2106422Y1763049D02*
X2120382D01*
X2106422Y1762149D02*
X2120382D01*
X2106422Y1761249D02*
X2120382D01*
X2106422Y1760349D02*
X2120382D01*
X2106422Y1759449D02*
X2120382D01*
X2106422Y1758549D02*
X2120382D01*
X2106422Y1757649D02*
X2120382D01*
X2086540Y1779249D02*
X2100500D01*
X2086540Y1778349D02*
X2100500D01*
X2086540Y1777449D02*
X2100500D01*
X2086540Y1776549D02*
X2100500D01*
X2086540Y1775649D02*
X2100500D01*
X2086540Y1774749D02*
X2100500D01*
X2086540Y1773849D02*
X2100500D01*
X2086540Y1772949D02*
X2100500D01*
X2086540Y1772049D02*
X2100500D01*
X2086540Y1771149D02*
X2100500D01*
X2086540Y1770249D02*
X2100500D01*
X2086540Y1769349D02*
X2100500D01*
X2086540Y1768449D02*
X2100500D01*
X2086540Y1767549D02*
X2100500D01*
X2086540Y1766649D02*
X2100500D01*
X2086540Y1765749D02*
X2100500D01*
X2086540Y1764849D02*
X2100500D01*
X2086540Y1763949D02*
X2100500D01*
X2086540Y1763049D02*
X2100500D01*
X2086540Y1762149D02*
X2100500D01*
X2086540Y1761249D02*
X2100500D01*
X2086540Y1760349D02*
X2100500D01*
X2086540Y1759449D02*
X2100500D01*
X2086540Y1758549D02*
X2100500D01*
X2086540Y1757649D02*
X2100500D01*
X2067052Y1779249D02*
X2081012D01*
X2067052Y1778349D02*
X2081012D01*
X2067052Y1777449D02*
X2081012D01*
X2067052Y1776549D02*
X2081012D01*
X2067052Y1775649D02*
X2081012D01*
X2067052Y1774749D02*
X2081012D01*
X2067052Y1773849D02*
X2081012D01*
X2067052Y1772949D02*
X2081012D01*
X2067052Y1772049D02*
X2081012D01*
X2067052Y1771149D02*
X2081012D01*
X2067052Y1770249D02*
X2081012D01*
X2067052Y1769349D02*
X2081012D01*
X2067052Y1768449D02*
X2081012D01*
X2067052Y1767549D02*
X2081012D01*
X2067052Y1766649D02*
X2081012D01*
X2067052Y1765749D02*
X2081012D01*
X2067052Y1764849D02*
X2081012D01*
X2067052Y1763949D02*
X2081012D01*
X2067052Y1763049D02*
X2081012D01*
X2067052Y1762149D02*
X2081012D01*
X2067052Y1761249D02*
X2081012D01*
X2067052Y1760349D02*
X2081012D01*
X2067052Y1759449D02*
X2081012D01*
X2067052Y1758549D02*
X2081012D01*
X2067052Y1757649D02*
X2081012D01*
X2047170Y1779249D02*
X2061130D01*
X2047170Y1778349D02*
X2061130D01*
X2047170Y1777449D02*
X2061130D01*
X2047170Y1776549D02*
X2061130D01*
X2047170Y1775649D02*
X2061130D01*
X2047170Y1774749D02*
X2061130D01*
X2047170Y1773849D02*
X2061130D01*
X2047170Y1772949D02*
X2061130D01*
X2047170Y1772049D02*
X2061130D01*
X2047170Y1771149D02*
X2061130D01*
X2047170Y1770249D02*
X2061130D01*
X2047170Y1769349D02*
X2061130D01*
X2047170Y1768449D02*
X2061130D01*
X2047170Y1767549D02*
X2061130D01*
X2047170Y1766649D02*
X2061130D01*
X2047170Y1765749D02*
X2061130D01*
X2047170Y1764849D02*
X2061130D01*
X2047170Y1763949D02*
X2061130D01*
X2047170Y1763049D02*
X2061130D01*
X2047170Y1762149D02*
X2061130D01*
X2047170Y1761249D02*
X2061130D01*
X2047170Y1760349D02*
X2061130D01*
X2047170Y1759449D02*
X2061130D01*
X2047170Y1758549D02*
X2061130D01*
X2047170Y1757649D02*
X2061130D01*
X2027681Y1779249D02*
X2041642D01*
X2027681Y1778349D02*
X2041642D01*
X2027681Y1777449D02*
X2041642D01*
X2027681Y1776549D02*
X2041642D01*
X2027681Y1775649D02*
X2041642D01*
X2027681Y1774749D02*
X2041642D01*
X2027681Y1773849D02*
X2041642D01*
X2027681Y1772949D02*
X2041642D01*
X2027681Y1772049D02*
X2041642D01*
X2027681Y1771149D02*
X2041642D01*
X2027681Y1770249D02*
X2041642D01*
X2027681Y1769349D02*
X2041642D01*
X2027681Y1768449D02*
X2041642D01*
X2027681Y1767549D02*
X2041642D01*
X2027681Y1766649D02*
X2041642D01*
X2027681Y1765749D02*
X2041642D01*
X2027681Y1764849D02*
X2041642D01*
X2027681Y1763949D02*
X2041642D01*
X2027681Y1763049D02*
X2041642D01*
X2027681Y1762149D02*
X2041642D01*
X2027681Y1761249D02*
X2041642D01*
X2027681Y1760349D02*
X2041642D01*
X2027681Y1759449D02*
X2041642D01*
X2027681Y1758549D02*
X2041642D01*
X2027681Y1757649D02*
X2041642D01*
X2007996Y1779249D02*
X2021957D01*
X2007996Y1778349D02*
X2021957D01*
X2007996Y1777449D02*
X2021957D01*
X2007996Y1776549D02*
X2021957D01*
X2007996Y1775649D02*
X2021957D01*
X2007996Y1774749D02*
X2021957D01*
X2007996Y1773849D02*
X2021957D01*
X2007996Y1772949D02*
X2021957D01*
X2007996Y1772049D02*
X2021957D01*
X2007996Y1771149D02*
X2021957D01*
X2007996Y1770249D02*
X2021957D01*
X2007996Y1769349D02*
X2021957D01*
X2007996Y1768449D02*
X2021957D01*
X2007996Y1767549D02*
X2021957D01*
X2007996Y1766649D02*
X2021957D01*
X2007996Y1765749D02*
X2021957D01*
X2007996Y1764849D02*
X2021957D01*
X2007996Y1763949D02*
X2021957D01*
X2007996Y1763049D02*
X2021957D01*
X2007996Y1762149D02*
X2021957D01*
X2007996Y1761249D02*
X2021957D01*
X2007996Y1760349D02*
X2021957D01*
X2007996Y1759449D02*
X2021957D01*
X2007996Y1758549D02*
X2021957D01*
X2007996Y1757649D02*
X2021957D01*
X1988311Y1779249D02*
X2002272D01*
X1988311Y1778349D02*
X2002272D01*
X1988311Y1777449D02*
X2002272D01*
X1988311Y1776549D02*
X2002272D01*
X1988311Y1775649D02*
X2002272D01*
X1988311Y1774749D02*
X2002272D01*
X1988311Y1773849D02*
X2002272D01*
X1988311Y1772949D02*
X2002272D01*
X1988311Y1772049D02*
X2002272D01*
X1988311Y1771149D02*
X2002272D01*
X1988311Y1770249D02*
X2002272D01*
X1988311Y1769349D02*
X2002272D01*
X1988311Y1768449D02*
X2002272D01*
X1988311Y1767549D02*
X2002272D01*
X1988311Y1766649D02*
X2002272D01*
X1988311Y1765749D02*
X2002272D01*
X1988311Y1764849D02*
X2002272D01*
X1988311Y1763949D02*
X2002272D01*
X1988311Y1763049D02*
X2002272D01*
X1988311Y1762149D02*
X2002272D01*
X1988311Y1761249D02*
X2002272D01*
X1988311Y1760349D02*
X2002272D01*
X1988311Y1759449D02*
X2002272D01*
X1988311Y1758549D02*
X2002272D01*
X1988311Y1757649D02*
X2002272D01*
X1968626Y1779249D02*
X1982587D01*
X1968626Y1778349D02*
X1982587D01*
X1968626Y1777449D02*
X1982587D01*
X1968626Y1776549D02*
X1982587D01*
X1968626Y1775649D02*
X1982587D01*
X1968626Y1774749D02*
X1982587D01*
X1968626Y1773849D02*
X1982587D01*
X1968626Y1772949D02*
X1982587D01*
X1968626Y1772049D02*
X1982587D01*
X1968626Y1771149D02*
X1982587D01*
X1968626Y1770249D02*
X1982587D01*
X1968626Y1769349D02*
X1982587D01*
X1968626Y1768449D02*
X1982587D01*
X1968626Y1767549D02*
X1982587D01*
X1968626Y1766649D02*
X1982587D01*
X1968626Y1765749D02*
X1982587D01*
X1968626Y1764849D02*
X1982587D01*
X1968626Y1763949D02*
X1982587D01*
X1968626Y1763049D02*
X1982587D01*
X1968626Y1762149D02*
X1982587D01*
X1968626Y1761249D02*
X1982587D01*
X1968626Y1760349D02*
X1982587D01*
X1968626Y1759449D02*
X1982587D01*
X1968626Y1758549D02*
X1982587D01*
X1968626Y1757649D02*
X1982587D01*
X1948941Y1779249D02*
X1962902D01*
X1948941Y1778349D02*
X1962902D01*
X1948941Y1777449D02*
X1962902D01*
X1948941Y1776549D02*
X1962902D01*
X1948941Y1775649D02*
X1962902D01*
X1948941Y1774749D02*
X1962902D01*
X1948941Y1773849D02*
X1962902D01*
X1948941Y1772949D02*
X1962902D01*
X1948941Y1772049D02*
X1962902D01*
X1948941Y1771149D02*
X1962902D01*
X1948941Y1770249D02*
X1962902D01*
X1948941Y1769349D02*
X1962902D01*
X1948941Y1768449D02*
X1962902D01*
X1948941Y1767549D02*
X1962902D01*
X1948941Y1766649D02*
X1962902D01*
X1948941Y1765749D02*
X1962902D01*
X1948941Y1764849D02*
X1962902D01*
X1948941Y1763949D02*
X1962902D01*
X1948941Y1763049D02*
X1962902D01*
X1948941Y1762149D02*
X1962902D01*
X1948941Y1761249D02*
X1962902D01*
X1948941Y1760349D02*
X1962902D01*
X1948941Y1759449D02*
X1962902D01*
X1948941Y1758549D02*
X1962902D01*
X1948941Y1757649D02*
X1962902D01*
X1929256Y1779249D02*
X1943217D01*
X1929256Y1778349D02*
X1943217D01*
X1929256Y1777449D02*
X1943217D01*
X1929256Y1776549D02*
X1943217D01*
X1929256Y1775649D02*
X1943217D01*
X1929256Y1774749D02*
X1943217D01*
X1929256Y1773849D02*
X1943217D01*
X1929256Y1772949D02*
X1943217D01*
X1929256Y1772049D02*
X1943217D01*
X1929256Y1771149D02*
X1943217D01*
X1929256Y1770249D02*
X1943217D01*
X1929256Y1769349D02*
X1943217D01*
X1929256Y1768449D02*
X1943217D01*
X1929256Y1767549D02*
X1943217D01*
X1929256Y1766649D02*
X1943217D01*
X1929256Y1765749D02*
X1943217D01*
X1929256Y1764849D02*
X1943217D01*
X1929256Y1763949D02*
X1943217D01*
X1929256Y1763049D02*
X1943217D01*
X1929256Y1762149D02*
X1943217D01*
X1929256Y1761249D02*
X1943217D01*
X1929256Y1760349D02*
X1943217D01*
X1929256Y1759449D02*
X1943217D01*
X1929256Y1758549D02*
X1943217D01*
X1929256Y1757649D02*
X1943217D01*
X1909571Y1779249D02*
X1923532D01*
X1909571Y1778349D02*
X1923532D01*
X1909571Y1777449D02*
X1923532D01*
X1909571Y1776549D02*
X1923532D01*
X1909571Y1775649D02*
X1923532D01*
X1909571Y1774749D02*
X1923532D01*
X1909571Y1773849D02*
X1923532D01*
X1909571Y1772949D02*
X1923532D01*
X1909571Y1772049D02*
X1923532D01*
X1909571Y1771149D02*
X1923532D01*
X1909571Y1770249D02*
X1923532D01*
X1909571Y1769349D02*
X1923532D01*
X1909571Y1768449D02*
X1923532D01*
X1909571Y1767549D02*
X1923532D01*
X1909571Y1766649D02*
X1923532D01*
X1909571Y1765749D02*
X1923532D01*
X1909571Y1764849D02*
X1923532D01*
X1909571Y1763949D02*
X1923532D01*
X1909571Y1763049D02*
X1923532D01*
X1909571Y1762149D02*
X1923532D01*
X1909571Y1761249D02*
X1923532D01*
X1909571Y1760349D02*
X1923532D01*
X1909571Y1759449D02*
X1923532D01*
X1909571Y1758549D02*
X1923532D01*
X1909571Y1757649D02*
X1923532D01*
X1889886Y1779249D02*
X1903847D01*
X1889886Y1778349D02*
X1903847D01*
X1889886Y1777449D02*
X1903847D01*
X1889886Y1776549D02*
X1903847D01*
X1889886Y1775649D02*
X1903847D01*
X1889886Y1774749D02*
X1903847D01*
X1889886Y1773849D02*
X1903847D01*
X1889886Y1772949D02*
X1903847D01*
X1889886Y1772049D02*
X1903847D01*
X1889886Y1771149D02*
X1903847D01*
X1889886Y1770249D02*
X1903847D01*
X1889886Y1769349D02*
X1903847D01*
X1889886Y1768449D02*
X1903847D01*
X1889886Y1767549D02*
X1903847D01*
X1889886Y1766649D02*
X1903847D01*
X1889886Y1765749D02*
X1903847D01*
X1889886Y1764849D02*
X1903847D01*
X1889886Y1763949D02*
X1903847D01*
X1889886Y1763049D02*
X1903847D01*
X1889886Y1762149D02*
X1903847D01*
X1889886Y1761249D02*
X1903847D01*
X1889886Y1760349D02*
X1903847D01*
X1889886Y1759449D02*
X1903847D01*
X1889886Y1758549D02*
X1903847D01*
X1889886Y1757649D02*
X1903847D01*
X1904044Y1725250D02*
Y1739850D01*
G75*
G03X1903544Y1740350I-500J-0D01*
G01X1890189*
G03X1889689Y1739850I0J-500*
G01Y1725250*
G03X1890189Y1724750I500J0*
G01X1892557*
G03X1892667Y1724762I-0J500*
G01X1894247D02*
G03X1892667I-790J-3512D01*
G01X1894247D02*
G03X1894357Y1724750I110J488D01*
G01X1903544*
G03X1904044Y1725250I-0J500*
G01X1923729D02*
Y1741250D01*
G03X1923229Y1741750I-500J0*
G01X1910820*
G03X1910326Y1741176I0J-500*
G01X1910357Y1740750D02*
G03X1910326Y1741176I-2900J0D01*
G01X1910357Y1740750D02*
Y1728383D01*
G03X1910625Y1727940I500J0*
G01X1912530Y1725189D02*
G03X1910625Y1727940I-3573J-439D01*
G01X1912530Y1725189D02*
G03X1913026Y1724750I496J61D01*
G01X1923229*
G03X1923729Y1725250I-0J500*
G01X1943414D02*
Y1740485D01*
G03X1943267Y1740839I-500J-0*
G01X1942502Y1741604*
G03X1942149Y1741750I-353J-354*
G01X1929559*
G03X1929059Y1741250I0J-500*
G01Y1725250*
G03X1929559Y1724750I500J0*
G01X1931557*
G03X1931667Y1724762I-0J500*
G01X1933247D02*
G03X1931667I-790J-3512D01*
G01X1933247D02*
G03X1933357Y1724750I110J488D01*
G01X1942914*
G03X1943414Y1725250I-0J500*
G01X1963099D02*
Y1741250D01*
G03X1962599Y1741750I-500J0*
G01X1949857*
G03X1949357Y1741250I0J-500*
G01Y1727883*
G03X1949625Y1727440I500J0*
G01X1951448Y1725128D02*
G03X1949625Y1727440I-3491J-878D01*
G01X1951448Y1725128D02*
G03X1951933Y1724750I485J122D01*
G01X1962599*
G03X1963099Y1725250I-0J500*
G01X1982784D02*
Y1725529D01*
G03X1982750Y1725709I-500J0*
G01X1982557Y1726750D02*
G03X1982750Y1725709I2900J0D01*
G01X1982557Y1726750D02*
Y1741250D01*
G03X1982057Y1741750I-500J0*
G01X1968929*
G03X1968429Y1741250I0J-500*
G01Y1725250*
G03X1968929Y1724750I500J0*
G01X1970557*
G03X1970667Y1724762I-0J500*
G01X1972247D02*
G03X1970667I-790J-3512D01*
G01X1972247D02*
G03X1972357Y1724750I110J488D01*
G01X1982284*
G03X1982784Y1725250I-0J500*
G01X2002075D02*
Y1741250D01*
G03X2001575Y1741750I-500J0*
G01X1988857*
G03X1988357Y1741250I0J-500*
G01Y1728604*
G03X1988686Y1728134I500J-0*
G01X1991030Y1725189D02*
G03X1988686Y1728134I-3573J-439D01*
G01X1991030Y1725189D02*
G03X1991526Y1724750I496J61D01*
G01X2001575*
G03X2002075Y1725250I0J500*
G01X2021906Y1724750D02*
G03X2022354Y1725471I-0J500D01*
G01X2022057Y1726750D02*
G03X2022354Y1725471I2900J0D01*
G01X2022057Y1726750D02*
Y1741250D01*
G03X2021557Y1741750I-500J0*
G01X2008693*
G03X2008193Y1741250I0J-500*
G01Y1725250*
G03X2008693Y1724750I500J0*
G01X2010557*
G03X2010667Y1724762I-0J500*
G01X2012247D02*
G03X2010667I-790J-3512D01*
G01X2012247D02*
G03X2012357Y1724750I110J488D01*
G01X2021906*
X2041839Y1725250D02*
Y1741250D01*
G03X2041339Y1741750I-500J0*
G01X2028357*
G03X2027857Y1741250I0J-500*
G01Y1728604*
G03X2028186Y1728134I500J-0*
G01X2030530Y1725189D02*
G03X2028186Y1728134I-3573J-439D01*
G01X2030530Y1725189D02*
G03X2031026Y1724750I496J61D01*
G01X2041339*
G03X2041839Y1725250I-0J500*
G01X2061524D02*
Y1725459D01*
G03X2061437Y1725741I-500J0*
G01X2060935Y1727372D02*
G03X2061437Y1725741I2900J0D01*
G01X2060935Y1727372D02*
Y1741250D01*
G03X2060435Y1741750I-500J0*
G01X2047670*
G03X2047170Y1741250I-0J-500*
G01Y1725250*
G03X2047670Y1724750I500J0*
G01X2049557*
G03X2049667Y1724762I-0J500*
G01X2051247D02*
G03X2049667I-790J-3512D01*
G01X2051247D02*
G03X2051357Y1724750I110J488D01*
G01X2061024*
G03X2061524Y1725250I-0J500*
G01X2081209D02*
Y1741250D01*
G03X2080709Y1741750I-500J0*
G01X2067355*
G03X2066855Y1741250I-0J-500*
G01Y1728751*
G03X2067245Y1728263I500J-0*
G01X2070030Y1725189D02*
G03X2067245Y1728263I-3573J-439D01*
G01X2070030Y1725189D02*
G03X2070526Y1724750I496J61D01*
G01X2080709*
G03X2081209Y1725250I-0J500*
G01X2100894D02*
Y1725682D01*
G03X2100830Y1725928I-500J0*
G01X2100457Y1727350D02*
G03X2100830Y1725928I2900J0D01*
G01X2100457Y1727350D02*
Y1741250D01*
G03X2099957Y1741750I-500J0*
G01X2087040*
G03X2086540Y1741250I-0J-500*
G01Y1725250*
G03X2087040Y1724750I500J0*
G01X2089557*
G03X2089667Y1724762I-0J500*
G01X2091247D02*
G03X2089667I-790J-3512D01*
G01X2091247D02*
G03X2091357Y1724750I110J488D01*
G01X2100394*
G03X2100894Y1725250I0J500*
G01X2120579D02*
Y1741250D01*
G03X2120079Y1741750I-500J0*
G01X2106757*
G03X2106257Y1741250I0J-500*
G01Y1728771*
G03X2106659Y1728281I500J0*
G01X2109530Y1725189D02*
G03X2106659Y1728281I-3573J-439D01*
G01X2109530Y1725189D02*
G03X2110026Y1724750I496J61D01*
G01X2120079*
G03X2120579Y1725250I0J500*
G01X2062457Y1465250D02*
Y1532250D01*
G03X2061957Y1532750I-500J0*
G01X1990457*
G03X1989957Y1532250I0J-500*
G01Y1465250*
G03X1990457Y1464750I500J0*
G01X2001334*
G03X2001563Y1465694I-0J500*
G01X2009351D02*
G03X2001563I-3894J7556D01*
G01X2009351D02*
G03X2009580Y1464750I229J-444D01*
G01X2046334*
G03X2046563Y1465694I-0J500*
G01X2054351D02*
G03X2046563I-3894J7556D01*
G01X2054351D02*
G03X2054580Y1464750I229J-444D01*
G01X2061957*
G03X2062457Y1465250I0J500*
G01X2147957Y1470653D02*
Y1522915D01*
G03X2147088Y1523253I-500J0*
G01X2115196Y1532829D02*
G03X2147088Y1523253I18261J2921D01*
G01X2115196Y1532829D02*
G03X2114702Y1533250I-494J-79D01*
G01X2076457*
G03X2075957Y1532750I0J-500*
G01Y1465250*
G03X2076457Y1464750I500J0*
G01X2084334*
G03X2084563Y1465694I-0J500*
G01X2092351D02*
G03X2084563I-3894J7556D01*
G01X2092351D02*
G03X2092580Y1464750I229J-444D01*
G01X2129334*
G03X2129563Y1465694I-0J500*
G01X2137351D02*
G03X2129563I-3894J7556D01*
G01X2137351D02*
G03X2137580Y1464750I229J-444D01*
G01X2141993*
G03X2142264Y1464830I-0J500*
X2147874Y1470376I-10531J16263*
X2147957Y1470653I-417J277*
G01X2044714Y1502901D02*
G03X2040881Y1511117I743J5349D01*
G01X2044714Y1502901D02*
G03X2044290Y1502054I-69J-495D01*
G01X2035881Y1495383D02*
G03X2044290Y1502054I4576J2867D01*
G01X2035881Y1495383D02*
G03X2035033I-424J-265D01*
G01X2025881D02*
G03X2035033I4576J2867D01*
G01X2025881D02*
G03X2025033I-424J-265D01*
G01X2016526Y1494548D02*
G03X2025033Y1495383I3931J3702D01*
G01X2016526Y1494548D02*
G03X2015696Y1494385I-364J-343D01*
G01X2013457Y1492850D02*
G03X2015696Y1494385I0J2400D01*
G01X2013457Y1492850D02*
X2007457D01*
X2005057Y1495250D02*
G03X2007457Y1492850I2400J0D01*
G01X2005057Y1495250D02*
Y1501250D01*
X2007457Y1503650D02*
G03X2005057Y1501250I0J-2400D01*
G01X2007457Y1503650D02*
X2011214D01*
G03X2011574Y1504497I0J500*
G01X2020033Y1511117D02*
G03X2011574Y1504497I-4576J-2867D01*
G01X2020033Y1511117D02*
G03X2020881I424J265D01*
G01X2030033D02*
G03X2020881I-4576J-2867D01*
G01X2030033D02*
G03X2030881I424J265D01*
G01X2040033D02*
G03X2030881I-4576J-2867D01*
G01X2040033D02*
G03X2040881I424J265D01*
G01X2127714Y1502901D02*
G03X2123881Y1511117I743J5349D01*
G01X2127714Y1502901D02*
G03X2127290Y1502054I-69J-495D01*
G01X2118881Y1495383D02*
G03X2127290Y1502054I4576J2867D01*
G01X2118881Y1495383D02*
G03X2118033I-424J-265D01*
G01X2108881D02*
G03X2118033I4576J2867D01*
G01X2108881D02*
G03X2108033I-424J-265D01*
G01X2099526Y1494548D02*
G03X2108033Y1495383I3931J3702D01*
G01X2099526Y1494548D02*
G03X2098696Y1494385I-364J-343D01*
G01X2096457Y1492850D02*
G03X2098696Y1494385I0J2400D01*
G01X2096457Y1492850D02*
X2090457D01*
X2088057Y1495250D02*
G03X2090457Y1492850I2400J0D01*
G01X2088057Y1495250D02*
Y1501250D01*
X2090457Y1503650D02*
G03X2088057Y1501250I0J-2400D01*
G01X2090457Y1503650D02*
X2094214D01*
G03X2094574Y1504497I0J500*
G01X2103033Y1511117D02*
G03X2094574Y1504497I-4576J-2867D01*
G01X2103033Y1511117D02*
G03X2103881I424J265D01*
G01X2113033D02*
G03X2103881I-4576J-2867D01*
G01X2113033D02*
G03X2113881I424J265D01*
G01X2123033D02*
G03X2113881I-4576J-2867D01*
G01X2123033D02*
G03X2123881I424J265D01*
G01X1889689Y1739149D02*
X1904044D01*
X1889689Y1738249D02*
X1904044D01*
X1889689Y1737349D02*
X1904044D01*
X1889689Y1736449D02*
X1904044D01*
X1889689Y1735549D02*
X1904044D01*
X1889689Y1734649D02*
X1904044D01*
X1889689Y1733749D02*
X1904044D01*
X1889689Y1732849D02*
X1904044D01*
X1889689Y1731949D02*
X1904044D01*
X1889689Y1731049D02*
X1904044D01*
X1889689Y1730149D02*
X1904044D01*
X1889689Y1729249D02*
X1904044D01*
X1889689Y1728349D02*
X1904044D01*
X1889689Y1727449D02*
X1904044D01*
X1889689Y1726549D02*
X1904044D01*
X1889689Y1725649D02*
X1904044D01*
X1889730Y1740049D02*
X1904002D01*
X1910350Y1740949D02*
X1923729D01*
X1910357Y1740049D02*
X1923729D01*
X1910357Y1739149D02*
X1923729D01*
X1910357Y1738249D02*
X1923729D01*
X1910357Y1737349D02*
X1923729D01*
X1910357Y1736449D02*
X1923729D01*
X1910357Y1735549D02*
X1923729D01*
X1910357Y1734649D02*
X1923729D01*
X1910357Y1733749D02*
X1923729D01*
X1910357Y1732849D02*
X1923729D01*
X1910357Y1731949D02*
X1923729D01*
X1910357Y1731049D02*
X1923729D01*
X1910357Y1730149D02*
X1923729D01*
X1910357Y1729249D02*
X1923729D01*
X1910358Y1728349D02*
X1923729D01*
X1911340Y1727449D02*
X1923729D01*
X1912075Y1726549D02*
X1923729D01*
X1912443Y1725649D02*
X1923729D01*
X1929059Y1740049D02*
X1943414D01*
X1929059Y1739149D02*
X1943414D01*
X1929059Y1738249D02*
X1943414D01*
X1929059Y1737349D02*
X1943414D01*
X1929059Y1736449D02*
X1943414D01*
X1929059Y1735549D02*
X1943414D01*
X1929059Y1734649D02*
X1943414D01*
X1929059Y1733749D02*
X1943414D01*
X1929059Y1732849D02*
X1943414D01*
X1929059Y1731949D02*
X1943414D01*
X1929059Y1731049D02*
X1943414D01*
X1929059Y1730149D02*
X1943414D01*
X1929059Y1729249D02*
X1943414D01*
X1929059Y1728349D02*
X1943414D01*
X1929059Y1727449D02*
X1943414D01*
X1929059Y1726549D02*
X1943414D01*
X1929059Y1725649D02*
X1943414D01*
X1929059Y1740949D02*
X1943157D01*
X1949357D02*
X1963099D01*
X1949357Y1740049D02*
X1963099D01*
X1949357Y1739149D02*
X1963099D01*
X1949357Y1738249D02*
X1963099D01*
X1949357Y1737349D02*
X1963099D01*
X1949357Y1736449D02*
X1963099D01*
X1949357Y1735549D02*
X1963099D01*
X1949357Y1734649D02*
X1963099D01*
X1949357Y1733749D02*
X1963099D01*
X1949357Y1732849D02*
X1963099D01*
X1949357Y1731949D02*
X1963099D01*
X1949357Y1731049D02*
X1963099D01*
X1949357Y1730149D02*
X1963099D01*
X1949357Y1729249D02*
X1963099D01*
X1949357Y1728349D02*
X1963099D01*
X1949610Y1727449D02*
X1963099D01*
X1950728Y1726549D02*
X1963099D01*
X1951274Y1725649D02*
X1963099D01*
X1968429D02*
X1982769D01*
X1968429Y1726549D02*
X1982564D01*
X1968429Y1740949D02*
X1982557D01*
X1968429Y1740049D02*
X1982557D01*
X1968429Y1739149D02*
X1982557D01*
X1968429Y1738249D02*
X1982557D01*
X1968429Y1737349D02*
X1982557D01*
X1968429Y1736449D02*
X1982557D01*
X1968429Y1735549D02*
X1982557D01*
X1968429Y1734649D02*
X1982557D01*
X1968429Y1733749D02*
X1982557D01*
X1968429Y1732849D02*
X1982557D01*
X1968429Y1731949D02*
X1982557D01*
X1968429Y1731049D02*
X1982557D01*
X1968429Y1730149D02*
X1982557D01*
X1968429Y1729249D02*
X1982557D01*
X1968429Y1728349D02*
X1982557D01*
X1968429Y1727449D02*
X1982557D01*
X1988357Y1740949D02*
X2002075D01*
X1988357Y1740049D02*
X2002075D01*
X1988357Y1739149D02*
X2002075D01*
X1988357Y1738249D02*
X2002075D01*
X1988357Y1737349D02*
X2002075D01*
X1988357Y1736449D02*
X2002075D01*
X1988357Y1735549D02*
X2002075D01*
X1988357Y1734649D02*
X2002075D01*
X1988357Y1733749D02*
X2002075D01*
X1988357Y1732849D02*
X2002075D01*
X1988357Y1731949D02*
X2002075D01*
X1988357Y1731049D02*
X2002075D01*
X1988357Y1730149D02*
X2002075D01*
X1988357Y1729249D02*
X2002075D01*
X1988427Y1728349D02*
X2002075D01*
X1989840Y1727449D02*
X2002075D01*
X1990575Y1726549D02*
X2002075D01*
X1990943Y1725649D02*
X2002075D01*
X2008193D02*
X2022274D01*
X2008193Y1726549D02*
X2022064D01*
X2008193Y1740949D02*
X2022057D01*
X2008193Y1740049D02*
X2022057D01*
X2008193Y1739149D02*
X2022057D01*
X2008193Y1738249D02*
X2022057D01*
X2008193Y1737349D02*
X2022057D01*
X2008193Y1736449D02*
X2022057D01*
X2008193Y1735549D02*
X2022057D01*
X2008193Y1734649D02*
X2022057D01*
X2008193Y1733749D02*
X2022057D01*
X2008193Y1732849D02*
X2022057D01*
X2008193Y1731949D02*
X2022057D01*
X2008193Y1731049D02*
X2022057D01*
X2008193Y1730149D02*
X2022057D01*
X2008193Y1729249D02*
X2022057D01*
X2008193Y1728349D02*
X2022057D01*
X2008193Y1727449D02*
X2022057D01*
X2027857Y1740949D02*
X2041839D01*
X2027857Y1740049D02*
X2041839D01*
X2027857Y1739149D02*
X2041839D01*
X2027857Y1738249D02*
X2041839D01*
X2027857Y1737349D02*
X2041839D01*
X2027857Y1736449D02*
X2041839D01*
X2027857Y1735549D02*
X2041839D01*
X2027857Y1734649D02*
X2041839D01*
X2027857Y1733749D02*
X2041839D01*
X2027857Y1732849D02*
X2041839D01*
X2027857Y1731949D02*
X2041839D01*
X2027857Y1731049D02*
X2041839D01*
X2027857Y1730149D02*
X2041839D01*
X2027857Y1729249D02*
X2041839D01*
X2027927Y1728349D02*
X2041839D01*
X2029340Y1727449D02*
X2041839D01*
X2030075Y1726549D02*
X2041839D01*
X2030443Y1725649D02*
X2041839D01*
X2047170D02*
X2061487D01*
X2047170Y1726549D02*
X2061054D01*
X2047170Y1740949D02*
X2060935D01*
X2047170Y1740049D02*
X2060935D01*
X2047170Y1739149D02*
X2060935D01*
X2047170Y1738249D02*
X2060935D01*
X2047170Y1737349D02*
X2060935D01*
X2047170Y1736449D02*
X2060935D01*
X2047170Y1735549D02*
X2060935D01*
X2047170Y1734649D02*
X2060935D01*
X2047170Y1733749D02*
X2060935D01*
X2047170Y1732849D02*
X2060935D01*
X2047170Y1731949D02*
X2060935D01*
X2047170Y1731049D02*
X2060935D01*
X2047170Y1730149D02*
X2060935D01*
X2047170Y1729249D02*
X2060935D01*
X2047170Y1728349D02*
X2060935D01*
X2047170Y1727449D02*
X2060935D01*
X2066855Y1740949D02*
X2081209D01*
X2066855Y1740049D02*
X2081209D01*
X2066855Y1739149D02*
X2081209D01*
X2066855Y1738249D02*
X2081209D01*
X2066855Y1737349D02*
X2081209D01*
X2066855Y1736449D02*
X2081209D01*
X2066855Y1735549D02*
X2081209D01*
X2066855Y1734649D02*
X2081209D01*
X2066855Y1733749D02*
X2081209D01*
X2066855Y1732849D02*
X2081209D01*
X2066855Y1731949D02*
X2081209D01*
X2066855Y1731049D02*
X2081209D01*
X2066855Y1730149D02*
X2081209D01*
X2066855Y1729249D02*
X2081209D01*
X2067057Y1728349D02*
X2081209D01*
X2068840Y1727449D02*
X2081209D01*
X2069575Y1726549D02*
X2081209D01*
X2069943Y1725649D02*
X2081209D01*
X2086540D02*
X2100894D01*
X2086540Y1726549D02*
X2100570D01*
X2086540Y1740949D02*
X2100457D01*
X2086540Y1740049D02*
X2100457D01*
X2086540Y1739149D02*
X2100457D01*
X2086540Y1738249D02*
X2100457D01*
X2086540Y1737349D02*
X2100457D01*
X2086540Y1736449D02*
X2100457D01*
X2086540Y1735549D02*
X2100457D01*
X2086540Y1734649D02*
X2100457D01*
X2086540Y1733749D02*
X2100457D01*
X2086540Y1732849D02*
X2100457D01*
X2086540Y1731949D02*
X2100457D01*
X2086540Y1731049D02*
X2100457D01*
X2086540Y1730149D02*
X2100457D01*
X2086540Y1729249D02*
X2100457D01*
X2086540Y1728349D02*
X2100457D01*
X2086540Y1727449D02*
X2100457D01*
X2106257Y1740949D02*
X2120579D01*
X2106257Y1740049D02*
X2120579D01*
X2106257Y1739149D02*
X2120579D01*
X2106257Y1738249D02*
X2120579D01*
X2106257Y1737349D02*
X2120579D01*
X2106257Y1736449D02*
X2120579D01*
X2106257Y1735549D02*
X2120579D01*
X2106257Y1734649D02*
X2120579D01*
X2106257Y1733749D02*
X2120579D01*
X2106257Y1732849D02*
X2120579D01*
X2106257Y1731949D02*
X2120579D01*
X2106257Y1731049D02*
X2120579D01*
X2106257Y1730149D02*
X2120579D01*
X2106257Y1729249D02*
X2120579D01*
X2106490Y1728349D02*
X2120579D01*
X2108340Y1727449D02*
X2120579D01*
X2109075Y1726549D02*
X2120579D01*
X2109443Y1725649D02*
X2120579D01*
X1989957Y1532249D02*
X2062457D01*
X1989957Y1531349D02*
X2062457D01*
X1989957Y1530449D02*
X2062457D01*
X1989957Y1529549D02*
X2062457D01*
X1989957Y1528649D02*
X2062457D01*
X1989957Y1527749D02*
X2062457D01*
X1989957Y1526849D02*
X2062457D01*
X1989957Y1525949D02*
X2062457D01*
X1989957Y1525049D02*
X2062457D01*
X1989957Y1524149D02*
X2062457D01*
X1989957Y1523249D02*
X2062457D01*
X1989957Y1522349D02*
X2062457D01*
X1989957Y1521449D02*
X2062457D01*
X1989957Y1520549D02*
X2062457D01*
X1989957Y1519649D02*
X2062457D01*
X1989957Y1518749D02*
X2062457D01*
X1989957Y1517849D02*
X2062457D01*
X1989957Y1516949D02*
X2062457D01*
X1989957Y1516049D02*
X2062457D01*
X1989957Y1515149D02*
X2062457D01*
X1989957Y1514249D02*
X2062457D01*
X2047236Y1513349D02*
X2062457D01*
X2048853Y1512449D02*
X2062457D01*
X2049732Y1511549D02*
X2062457D01*
X2050295Y1510649D02*
X2062457D01*
X2050645Y1509749D02*
X2062457D01*
X2050824Y1508849D02*
X2062457D01*
X2050849Y1507949D02*
X2062457D01*
X2050722Y1507049D02*
X2062457D01*
X2050431Y1506149D02*
X2062457D01*
X2049946Y1505249D02*
X2062457D01*
X2049191Y1504349D02*
X2062457D01*
X2047928Y1503449D02*
X2062457D01*
X2044165Y1502549D02*
X2062457D01*
X2044653Y1501649D02*
X2062457D01*
X2045244Y1500749D02*
X2062457D01*
X2045615Y1499849D02*
X2062457D01*
X2045812Y1498949D02*
X2062457D01*
X2045853Y1498049D02*
X2062457D01*
X2045744Y1497149D02*
X2062457D01*
X2045472Y1496249D02*
X2062457D01*
X2045011Y1495349D02*
X2062457D01*
X2044292Y1494449D02*
X2062457D01*
X2043114Y1493549D02*
X2062457D01*
X1989957Y1492649D02*
X2062457D01*
X1989957Y1491749D02*
X2062457D01*
X1989957Y1490849D02*
X2062457D01*
X1989957Y1489949D02*
X2062457D01*
X1989957Y1489049D02*
X2062457D01*
X1989957Y1488149D02*
X2062457D01*
X1989957Y1487249D02*
X2062457D01*
X1989957Y1486349D02*
X2062457D01*
X1989957Y1485449D02*
X2062457D01*
X1989957Y1484549D02*
X2062457D01*
X1989957Y1483649D02*
X2062457D01*
X1989957Y1482749D02*
X2062457D01*
X1989957Y1481849D02*
X2062457D01*
X2054060Y1480949D02*
X2062457D01*
X2055559Y1480049D02*
X2062457D01*
X2056577Y1479149D02*
X2062457D01*
X2057332Y1478249D02*
X2062457D01*
X2057904Y1477349D02*
X2062457D01*
X2058332Y1476449D02*
X2062457D01*
X2058640Y1475549D02*
X2062457D01*
X2058841Y1474649D02*
X2062457D01*
X2058942Y1473749D02*
X2062457D01*
X2058948Y1472849D02*
X2062457D01*
X2058857Y1471949D02*
X2062457D01*
X2058667Y1471049D02*
X2062457D01*
X2058371Y1470149D02*
X2062457D01*
X2057956Y1469249D02*
X2062457D01*
X2057402Y1468349D02*
X2062457D01*
X2056670Y1467449D02*
X2062457D01*
X2055686Y1466549D02*
X2062457D01*
X2054278Y1465649D02*
X2062457D01*
X2009060Y1480949D02*
X2046854D01*
X2009278Y1465649D02*
X2046636D01*
X2010559Y1480049D02*
X2045355D01*
X2010686Y1466549D02*
X2045228D01*
X2011577Y1479149D02*
X2044337D01*
X2011670Y1467449D02*
X2044245D01*
X2037236Y1513349D02*
X2043678D01*
X2012332Y1478249D02*
X2043582D01*
X2012402Y1468349D02*
X2043512D01*
X2012904Y1477349D02*
X2043010D01*
X2012956Y1469249D02*
X2042958D01*
X2013332Y1476449D02*
X2042582D01*
X2013371Y1470149D02*
X2042543D01*
X2013640Y1475549D02*
X2042274D01*
X2013667Y1471049D02*
X2042247D01*
X2013841Y1474649D02*
X2042073D01*
X2038853Y1512449D02*
X2042061D01*
X2013857Y1471949D02*
X2042057D01*
X2013942Y1473749D02*
X2041972D01*
X2013948Y1472849D02*
X2041966D01*
X2039732Y1511549D02*
X2041182D01*
X2033114Y1493549D02*
X2037800D01*
X2034292Y1494449D02*
X2036622D01*
X2035011Y1495349D02*
X2035903D01*
X2027236Y1513349D02*
X2033678D01*
X2028853Y1512449D02*
X2032061D01*
X2029732Y1511549D02*
X2031182D01*
X2023114Y1493549D02*
X2027800D01*
X2024292Y1494449D02*
X2026622D01*
X2025011Y1495349D02*
X2025903D01*
X2017236Y1513349D02*
X2023678D01*
X2018853Y1512449D02*
X2022061D01*
X2019732Y1511549D02*
X2021182D01*
X2015150Y1493549D02*
X2017800D01*
X2015726Y1494449D02*
X2016622D01*
X1989957Y1513349D02*
X2013678D01*
X1989957Y1512449D02*
X2012061D01*
X1989957Y1504349D02*
X2011673D01*
X1989957Y1511549D02*
X2011182D01*
X1989957Y1505249D02*
X2010968D01*
X1989957Y1510649D02*
X2010619D01*
X1989957Y1506149D02*
X2010483D01*
X1989957Y1509749D02*
X2010269D01*
X1989957Y1507049D02*
X2010192D01*
X1989957Y1508849D02*
X2010090D01*
X1989957Y1507949D02*
X2010065D01*
X1989957Y1503449D02*
X2006495D01*
X1989957Y1493549D02*
X2005764D01*
X1989957Y1502549D02*
X2005439D01*
X1989957Y1494449D02*
X2005195D01*
X1989957Y1501649D02*
X2005090D01*
X1989957Y1500749D02*
X2005057D01*
X1989957Y1499849D02*
X2005057D01*
X1989957Y1498949D02*
X2005057D01*
X1989957Y1498049D02*
X2005057D01*
X1989957Y1497149D02*
X2005057D01*
X1989957Y1496249D02*
X2005057D01*
X1989957Y1495349D02*
X2005057D01*
X1989957Y1480949D02*
X2001854D01*
X1989957Y1465649D02*
X2001636D01*
X1989957Y1480049D02*
X2000355D01*
X1989957Y1466549D02*
X2000228D01*
X1989957Y1479149D02*
X1999337D01*
X1989957Y1467449D02*
X1999245D01*
X1989957Y1478249D02*
X1998582D01*
X1989957Y1468349D02*
X1998512D01*
X1989957Y1477349D02*
X1998010D01*
X1989957Y1469249D02*
X1997958D01*
X1989957Y1476449D02*
X1997582D01*
X1989957Y1470149D02*
X1997543D01*
X1989957Y1475549D02*
X1997274D01*
X1989957Y1471049D02*
X1997247D01*
X1989957Y1474649D02*
X1997073D01*
X1989957Y1471949D02*
X1997057D01*
X1989957Y1473749D02*
X1996972D01*
X1989957Y1472849D02*
X1996966D01*
X2146201Y1522349D02*
X2147957D01*
X2145182Y1521449D02*
X2147957D01*
X2143988Y1520549D02*
X2147957D01*
X2142553Y1519649D02*
X2147957D01*
X2140734Y1518749D02*
X2147957D01*
X2138098Y1517849D02*
X2147957D01*
X2075957Y1516949D02*
X2147957D01*
X2075957Y1516049D02*
X2147957D01*
X2075957Y1515149D02*
X2147957D01*
X2075957Y1514249D02*
X2147957D01*
X2130236Y1513349D02*
X2147957D01*
X2131853Y1512449D02*
X2147957D01*
X2132732Y1511549D02*
X2147957D01*
X2133295Y1510649D02*
X2147957D01*
X2133645Y1509749D02*
X2147957D01*
X2133824Y1508849D02*
X2147957D01*
X2133849Y1507949D02*
X2147957D01*
X2133722Y1507049D02*
X2147957D01*
X2133431Y1506149D02*
X2147957D01*
X2132946Y1505249D02*
X2147957D01*
X2132191Y1504349D02*
X2147957D01*
X2130928Y1503449D02*
X2147957D01*
X2127165Y1502549D02*
X2147957D01*
X2127653Y1501649D02*
X2147957D01*
X2128244Y1500749D02*
X2147957D01*
X2128615Y1499849D02*
X2147957D01*
X2128812Y1498949D02*
X2147957D01*
X2128853Y1498049D02*
X2147957D01*
X2128744Y1497149D02*
X2147957D01*
X2128472Y1496249D02*
X2147957D01*
X2128011Y1495349D02*
X2147957D01*
X2127292Y1494449D02*
X2147957D01*
X2126114Y1493549D02*
X2147957D01*
X2075957Y1492649D02*
X2147957D01*
X2075957Y1491749D02*
X2147957D01*
X2075957Y1490849D02*
X2147957D01*
X2075957Y1489949D02*
X2147957D01*
X2075957Y1489049D02*
X2147957D01*
X2075957Y1488149D02*
X2147957D01*
X2075957Y1487249D02*
X2147957D01*
X2075957Y1486349D02*
X2147957D01*
X2075957Y1485449D02*
X2147957D01*
X2075957Y1484549D02*
X2147957D01*
X2075957Y1483649D02*
X2147957D01*
X2075957Y1482749D02*
X2147957D01*
X2075957Y1481849D02*
X2147957D01*
X2137060Y1480949D02*
X2147957D01*
X2138559Y1480049D02*
X2147957D01*
X2139577Y1479149D02*
X2147957D01*
X2140332Y1478249D02*
X2147957D01*
X2140904Y1477349D02*
X2147957D01*
X2141332Y1476449D02*
X2147957D01*
X2141640Y1475549D02*
X2147957D01*
X2141841Y1474649D02*
X2147957D01*
X2141942Y1473749D02*
X2147957D01*
X2141948Y1472849D02*
X2147957D01*
X2141857Y1471949D02*
X2147957D01*
X2141667Y1471049D02*
X2147957D01*
X2147085Y1523249D02*
X2147829D01*
X2141371Y1470149D02*
X2147720D01*
X2140956Y1469249D02*
X2147066D01*
X2140402Y1468349D02*
X2146326D01*
X2139670Y1467449D02*
X2145488D01*
X2138686Y1466549D02*
X2144533D01*
X2137278Y1465649D02*
X2143431D01*
X2092060Y1480949D02*
X2129854D01*
X2092278Y1465649D02*
X2129636D01*
X2075957Y1517849D02*
X2128816D01*
X2093559Y1480049D02*
X2128355D01*
X2093686Y1466549D02*
X2128228D01*
X2094577Y1479149D02*
X2127337D01*
X2094670Y1467449D02*
X2127245D01*
X2120236Y1513349D02*
X2126678D01*
X2095332Y1478249D02*
X2126582D01*
X2095402Y1468349D02*
X2126512D01*
X2075957Y1518749D02*
X2126181D01*
X2095904Y1477349D02*
X2126010D01*
X2095956Y1469249D02*
X2125958D01*
X2096332Y1476449D02*
X2125582D01*
X2096371Y1470149D02*
X2125543D01*
X2096640Y1475549D02*
X2125274D01*
X2096667Y1471049D02*
X2125247D01*
X2096841Y1474649D02*
X2125073D01*
X2121853Y1512449D02*
X2125061D01*
X2096857Y1471949D02*
X2125057D01*
X2096942Y1473749D02*
X2124972D01*
X2096948Y1472849D02*
X2124966D01*
X2075957Y1519649D02*
X2124361D01*
X2122732Y1511549D02*
X2124182D01*
X2075957Y1520549D02*
X2122926D01*
X2075957Y1521449D02*
X2121733D01*
X2116114Y1493549D02*
X2120800D01*
X2075957Y1522349D02*
X2120714D01*
X2075957Y1523249D02*
X2119830D01*
X2117292Y1494449D02*
X2119622D01*
X2075957Y1524149D02*
X2119056D01*
X2118011Y1495349D02*
X2118903D01*
X2075957Y1525049D02*
X2118375D01*
X2075957Y1525949D02*
X2117775D01*
X2075957Y1526849D02*
X2117247D01*
X2075957Y1527749D02*
X2116785D01*
X2110236Y1513349D02*
X2116678D01*
X2075957Y1528649D02*
X2116382D01*
X2075957Y1529549D02*
X2116035D01*
X2075957Y1530449D02*
X2115740D01*
X2075957Y1531349D02*
X2115495D01*
X2075957Y1532249D02*
X2115298D01*
X2111853Y1512449D02*
X2115061D01*
X2076155Y1533149D02*
X2115004D01*
X2112732Y1511549D02*
X2114182D01*
X2106114Y1493549D02*
X2110800D01*
X2107292Y1494449D02*
X2109622D01*
X2108011Y1495349D02*
X2108903D01*
X2100236Y1513349D02*
X2106678D01*
X2101853Y1512449D02*
X2105061D01*
X2102732Y1511549D02*
X2104182D01*
X2098150Y1493549D02*
X2100800D01*
X2098726Y1494449D02*
X2099622D01*
X2075957Y1513349D02*
X2096678D01*
X2075957Y1512449D02*
X2095061D01*
X2075957Y1504349D02*
X2094673D01*
X2075957Y1511549D02*
X2094182D01*
X2075957Y1505249D02*
X2093968D01*
X2075957Y1510649D02*
X2093619D01*
X2075957Y1506149D02*
X2093483D01*
X2075957Y1509749D02*
X2093269D01*
X2075957Y1507049D02*
X2093192D01*
X2075957Y1508849D02*
X2093090D01*
X2075957Y1507949D02*
X2093065D01*
X2075957Y1503449D02*
X2089495D01*
X2075957Y1493549D02*
X2088764D01*
X2075957Y1502549D02*
X2088439D01*
X2075957Y1494449D02*
X2088195D01*
X2075957Y1501649D02*
X2088090D01*
X2075957Y1500749D02*
X2088057D01*
X2075957Y1499849D02*
X2088057D01*
X2075957Y1498949D02*
X2088057D01*
X2075957Y1498049D02*
X2088057D01*
X2075957Y1497149D02*
X2088057D01*
X2075957Y1496249D02*
X2088057D01*
X2075957Y1495349D02*
X2088057D01*
X2075957Y1480949D02*
X2084854D01*
X2075957Y1465649D02*
X2084636D01*
X2075957Y1480049D02*
X2083355D01*
X2075957Y1466549D02*
X2083228D01*
X2075957Y1479149D02*
X2082337D01*
X2075957Y1467449D02*
X2082245D01*
X2075957Y1478249D02*
X2081582D01*
X2075957Y1468349D02*
X2081512D01*
X2075957Y1477349D02*
X2081010D01*
X2075957Y1469249D02*
X2080958D01*
X2075957Y1476449D02*
X2080582D01*
X2075957Y1470149D02*
X2080543D01*
X2075957Y1475549D02*
X2080274D01*
X2075957Y1471049D02*
X2080247D01*
X2075957Y1474649D02*
X2080073D01*
X2075957Y1471949D02*
X2080057D01*
X2075957Y1473749D02*
X2079972D01*
X2075957Y1472849D02*
X2079966D01*
X1847456Y1483235D02*
G03X1867157Y1460249I21344J-1642D01*
G01X1867142Y1460250D02*
X2132890D01*
X2132898D02*
G03X2152575Y1482258I-1165J20843D01*
G01Y1482250D02*
Y1783376D01*
Y1783367D02*
G03X2132899Y1803250I-19779J103D01*
G01X2132890D02*
X2109268D01*
Y1826750*
X1890764*
Y1803250*
X1867142*
X1867133D02*
G03X1847457Y1783367I104J-19780D01*
G01Y1783376D02*
Y1483250D01*
G54D13*
X1970007Y1640250D02*
G03X1970007I-3550J0D01*
G01X1957307Y1667250D02*
G03X1957307I-7850J0D01*
G01X1977807Y1585250D02*
G03X1977807I-7850J0D01*
G01X1943807Y1555750D02*
G03X1943807I-7850J0D01*
G01X1944307Y1585250D02*
G03X1944307I-7850J0D01*
G01X1905307D02*
G03X1905307I-7850J0D01*
G01X2147007Y1566150D02*
Y1694850D01*
G03X2146557Y1695300I-450J0*
G01X2136257*
G03X2135807Y1694850I0J-450*
G01Y1689250*
X2134679Y1686528D02*
G03X2135807Y1689250I-2722J2722D01*
G01X2134679Y1686528D02*
X2129679Y1681528D01*
X2126957Y1680400D02*
G03X2129679Y1681528I0J3850D01*
G01X2126957Y1680400D02*
X2057957D01*
Y1688100D02*
G03Y1680400I0J-3850D01*
G01Y1688100D02*
X2125176D01*
G03X2125494Y1688232I-0J450*
G01X2127975Y1690713*
G03X2128107Y1691031I-318J318*
G01Y1694850*
G03X2127657Y1695300I-450J0*
G01X1894357*
G03X1893907Y1694850I0J-450*
G01Y1678300*
X1885724*
G03X1885406Y1678168I-0J-450*
G01X1884472Y1677235*
X1882457Y1676400D02*
G03X1884472Y1677235I0J2850D01*
G01X1882457Y1676400D02*
X1859457D01*
X1857442Y1677235D02*
G03X1859457Y1676400I2015J2015D01*
G01X1857442Y1677235D02*
X1856508Y1678168D01*
G03X1856190Y1678300I-318J-318*
G01X1851857*
G03X1851407Y1677850I0J-450*
G01Y1547105*
G03X1852217Y1546835I450J0*
G01Y1524665D02*
G03Y1546835I14740J11085D01*
G01Y1524665D02*
G03X1851407Y1524395I-360J-270D01*
G01Y1471925*
G03X1851466Y1471702I450J-0*
X1858062Y1464771I17334J9891*
X1858304Y1464700I242J379*
G01X1953557*
G03X1954007Y1465150I0J450*
G01Y1565700*
X2146557*
G03X2147007Y1566150I0J450*
G01X1881587Y1600411D02*
G03X1881329Y1601175I-318J318D01*
G01X1879692Y1601985D02*
G03X1881329Y1601175I2015J2015D01*
G01X1879692Y1601985D02*
X1878396Y1603281D01*
G03X1878078Y1603413I-318J-318*
G01X1875788*
G03X1875419Y1603221I-0J-450*
G01X1868327Y1601733D02*
G03X1875419Y1603221I2752J4530D01*
G01X1868327Y1601733D02*
G03X1867708Y1601115I-234J-384D01*
G01X1868095Y1596381D02*
G03X1867708Y1601115I-4916J1982D01*
G01X1868095Y1596381D02*
G03X1868512Y1595763I417J-168D01*
G01X1874029*
X1876379Y1593413D02*
G03X1874029Y1595763I-2350J-0D01*
G01X1876379Y1593413D02*
Y1587513D01*
X1874029Y1585163D02*
G03X1876379Y1587513I0J2350D01*
G01X1874029Y1585163D02*
X1868129D01*
X1866464Y1585854D02*
G03X1868129Y1585163I1665J1659D01*
G01X1866464Y1585854D02*
G03X1865913Y1585922I-319J-317D01*
G01X1862678Y1585186D02*
G03X1865913Y1585922I501J5277D01*
G01X1862678Y1585186D02*
G03X1862317Y1584420I-42J-448D01*
G01X1864006Y1582732*
G03X1864324Y1582600I318J318*
G01X1877590*
G03X1877908Y1582732I0J450*
G01X1878975Y1583799*
G03X1879107Y1584117I-318J318*
G01Y1596750*
X1879942Y1598765D02*
G03X1879107Y1596750I2015J-2015D01*
G01X1879942Y1598765D02*
X1881587Y1600411D01*
X2092951Y1647321D02*
G03Y1653179I2006J2929D01*
G01Y1647321D02*
G03X2092696Y1647400I-255J-371D01*
G01X2071457*
X2069442Y1648235D02*
G03X2071457Y1647400I2015J2015D01*
G01X2069442Y1648235D02*
X2065040Y1652636D01*
G03X2064805Y1652760I-318J-318*
G01X2068947Y1656902D02*
G03X2064805Y1652760I-3490J-652D01*
G01X2068947Y1656902D02*
G03X2069071Y1656667I442J83D01*
G01X2072506Y1653232*
G03X2072824Y1653100I318J318*
G01X2092696*
G03X2092951Y1653179I0J450*
G01X2042085Y1640358D02*
G03X2047942Y1641785I3372J-1108D01*
G01X2042084Y1640358D02*
G03X2042107Y1640499I-427J141D01*
G01Y1650989*
G03X2042028Y1651244I-450J0*
G01X2047886D02*
G03X2042028I-2929J2006D01*
G01X2047886D02*
G03X2047807Y1650989I371J-255D01*
G01Y1642107*
G03X2047942Y1641785I450J-0*
G01X2028803Y1617372D02*
Y1611380D01*
X2026453Y1609030D02*
G03X2028803Y1611380I0J2350D01*
G01X2026453Y1609030D02*
X2020461D01*
X2018111Y1611380D02*
G03X2020461Y1609030I2350J-0D01*
G01X2018111Y1611380D02*
Y1617372D01*
X2018779Y1619013D02*
G03X2018111Y1617372I1682J-1641D01*
G01X2018779Y1619013D02*
G03X2018845Y1619554I-323J314D01*
G01X2019539Y1625881D02*
G03X2018845Y1619554I3918J-3631D01*
G01X2019539Y1625881D02*
G03Y1626493I-330J306D01*
G01X2019067Y1627080D02*
G03X2019539Y1626493I4390J3044D01*
G01X2019067Y1627080D02*
G03X2018697Y1627274I-370J-256D01*
G01X2015083*
X2013068Y1628109D02*
G03X2015083Y1627274I2015J2015D01*
G01X2013068Y1628109D02*
X2011940Y1629236D01*
G03X2011182Y1629012I-318J-318*
G01X2009875Y1626493D02*
G03X2011182Y1629012I-3918J3631D01*
G01X2009875Y1626493D02*
G03Y1625881I330J-306D01*
G01X2010569Y1619554D02*
G03X2009875Y1625881I-4612J2696D01*
G01X2010569Y1619554D02*
G03X2010635Y1619013I389J-227D01*
G01X2011303Y1617372D02*
G03X2010635Y1619013I-2350J0D01*
G01X2011303Y1617372D02*
Y1611380D01*
X2008953Y1609030D02*
G03X2011303Y1611380I0J2350D01*
G01X2008953Y1609030D02*
X2003757D01*
G03X2003307Y1608580I0J-450*
G01Y1607250*
X2002472Y1605235D02*
G03X2003307Y1607250I-2015J2015D01*
G01X2002472Y1605235D02*
X1994472Y1597235D01*
X1992457Y1596400D02*
G03X1994472Y1597235I0J2850D01*
G01X1992457Y1596400D02*
X1889324D01*
G03X1889006Y1596268I-0J-450*
G01X1886939Y1594201*
G03X1886807Y1593883I318J-318*
G01Y1581750*
X1885972Y1579735D02*
G03X1886807Y1581750I-2015J2015D01*
G01X1885972Y1579735D02*
X1881472Y1575235D01*
X1879457Y1574400D02*
G03X1881472Y1575235I0J2850D01*
G01X1879457Y1574400D02*
X1862457D01*
X1860442Y1575235D02*
G03X1862457Y1574400I2015J2015D01*
G01X1860442Y1575235D02*
X1854442Y1581235D01*
X1853607Y1583250D02*
G03X1854442Y1581235I2850J0D01*
G01X1853607Y1583250D02*
Y1601750D01*
X1854442Y1603765D02*
G03X1853607Y1601750I2015J-2015D01*
G01X1854442Y1603765D02*
X1857889Y1607212D01*
G03X1858009Y1607431I-318J318*
G01X1865932Y1610792D02*
G03X1858010Y1607431I-2753J-4529D01*
G01X1865932Y1610792D02*
G03X1866550Y1611410I233J384D01*
G01Y1616915D02*
G03Y1611410I4529J-2752D01*
G01Y1616915D02*
G03X1865932Y1617533I-385J234D01*
G01X1859328Y1625703D02*
G03X1865932Y1617533I3851J-3640D01*
G01X1859328Y1625703D02*
G03Y1626322I-327J310D01*
G01Y1633603D02*
G03Y1626322I3851J-3640D01*
G01Y1633603D02*
G03Y1634222I-327J310D01*
G01X1867708Y1635110D02*
G03X1859328Y1634222I-4529J2753D01*
G01X1867708Y1635110D02*
G03X1868327Y1634492I385J-234D01*
G01X1874931Y1626322D02*
G03X1868327Y1634492I-3852J3641D01*
G01X1874931Y1626322D02*
G03Y1625703I327J-309D01*
G01Y1618422D02*
G03Y1625703I-3852J3641D01*
G01Y1618422D02*
G03Y1617803I327J-309D01*
G01X1875425Y1617196D02*
G03X1874931Y1617803I-4346J-3033D01*
G01X1875425Y1617196D02*
G03X1875760Y1617004I369J257D01*
G01X1877560Y1616178D02*
G03X1875760Y1617004I-2016J-2015D01*
G01X1877560Y1616178D02*
X1884256Y1609482D01*
G03X1884574Y1609350I318J318*
G01X1890451*
G03X1890831Y1610041I-0J450*
G01X1904607Y1617490D02*
G03X1890831Y1610041I-7150J-3240D01*
G01X1904607Y1617490D02*
G03X1905017Y1617226I410J186D01*
G01X1909677*
G03X1910125Y1617627I0J450*
G01X1910779Y1619013D02*
G03X1910125Y1617627I1682J-1641D01*
G01X1910779Y1619013D02*
G03X1910845Y1619554I-323J314D01*
G01X1919847Y1625294D02*
G03X1910845Y1619554I-4390J-3044D01*
G01X1919847Y1625294D02*
G03X1920217Y1625100I370J256D01*
G01X1924836*
G03X1925244Y1625741I0J450*
G01X1930463Y1630179D02*
G03X1925244Y1625741I-2006J-2929D01*
G01X1930463Y1630179D02*
G03X1930718Y1630100I255J371D01*
G01X1931090*
G03X1931408Y1630232I0J450*
G01X1963843Y1662667*
G03X1963967Y1662902I-318J318*
G01X1969254Y1665311D02*
G03X1963967Y1662902I-1797J-3061D01*
G01X1969254Y1665311D02*
G03X1969929Y1665649I228J388D01*
G01X1976375Y1663229D02*
G03X1969929Y1665649I-2918J2021D01*
G01X1976375Y1663229D02*
G03X1976297Y1663010I370J-257D01*
G01X1975731Y1661532D02*
G03X1976297Y1663010I-2274J1718D01*
G01X1975731Y1661532D02*
G03X1975794Y1660922I359J-271D01*
G01X1974109Y1654760D02*
G03X1975794Y1660922I-652J3490D01*
G01X1974109Y1654760D02*
G03X1973874Y1654636I83J-442D01*
G01X1958049Y1638811*
G03X1958209Y1638072I318J-318*
G01X1959886Y1632744D02*
G03X1958209Y1638072I-2929J2006D01*
G01X1959886Y1632744D02*
G03X1959807Y1632489I371J-255D01*
G01Y1624985*
G03X1959939Y1624667I450J0*
G01X1964535Y1620071*
X1965370Y1618055D02*
G03X1964535Y1620071I-2850J0D01*
G01X1965370Y1618055D02*
Y1617676D01*
G03X1965820Y1617226I450J0*
G01X1981677*
G03X1982125Y1617627I0J450*
G01X1982779Y1619013D02*
G03X1982125Y1617627I1682J-1641D01*
G01X1982779Y1619013D02*
G03X1982845Y1619554I-323J314D01*
G01X1989025Y1627357D02*
G03X1982845Y1619554I-1568J-5107D01*
G01X1989025Y1627357D02*
G03X1989607Y1627787I132J430D01*
G01Y1635750*
X1990442Y1637765D02*
G03X1989607Y1635750I2015J-2015D01*
G01X1990442Y1637765D02*
X1999308Y1646632D01*
G03X1998990Y1647400I-318J318*
G01X1997092*
X1994742Y1649750D02*
G03X1997092Y1647400I2350J0D01*
G01X1994742Y1649750D02*
Y1652750D01*
X1995737Y1654670D02*
G03X1994742Y1652750I1355J-1920D01*
G01X1995737Y1654670D02*
G03X1995927Y1655037I-260J367D01*
G01Y1656850*
X1995927D02*
G03X1995925Y1656895I-450J0D01*
G01X1998423Y1660646D02*
G03X1995925Y1656895I1034J-3396D01*
G01X1998423Y1660646D02*
G03X1998742Y1661077I-131J431D01*
G01Y1662750*
X2001092Y1665100D02*
G03X1998742Y1662750I0J-2350D01*
G01X2001092Y1665100D02*
X2004462D01*
X2005601Y1664805D02*
G03X2004462Y1665100I-1139J-2055D01*
G01X2005601Y1664805D02*
G03X2005891Y1664755I219J394D01*
G01X2008463Y1664179D02*
G03X2005891Y1664755I-2006J-2929D01*
G01X2008463Y1664179D02*
G03X2008718Y1664100I255J371D01*
G01X2020457*
X2022472Y1663265D02*
G03X2020457Y1664100I-2015J-2015D01*
G01X2022472Y1663265D02*
X2025792Y1659945D01*
X2026625Y1658024D02*
G03X2025792Y1659945I-2848J-94D01*
G01X2026626Y1658024D02*
G03X2026816Y1657671I449J15D01*
G01X2027812Y1655750D02*
G03X2026816Y1657671I-2350J0D01*
G01X2027812Y1655750D02*
Y1652750D01*
X2027446Y1651491D02*
G03X2027812Y1652750I-1984J1259D01*
G01X2027446Y1651491D02*
G03Y1651009I380J-241D01*
G01X2027812Y1649750D02*
G03X2027446Y1651009I-2350J0D01*
G01X2027812Y1649750D02*
Y1646750D01*
X2026861Y1644862D02*
G03X2027812Y1646750I-1399J1888D01*
G01X2026861Y1644862D02*
G03Y1644138I268J-362D01*
G01X2027812Y1642250D02*
G03X2026861Y1644138I-2350J0D01*
G01X2027812Y1642250D02*
Y1639250D01*
X2027360Y1637864D02*
G03X2027812Y1639250I-1898J1386D01*
G01X2027360Y1637864D02*
G03X2027299Y1637447I363J-266D01*
G01X2027063Y1634531D02*
G03X2027299Y1637447I-3106J1719D01*
G01X2027063Y1634531D02*
G03X2027146Y1633988I394J-218D01*
G01X2027375Y1626493D02*
G03X2027146Y1633988I-3918J3631D01*
G01X2027375Y1626493D02*
G03Y1625881I330J-306D01*
G01X2028069Y1619554D02*
G03X2027375Y1625881I-4612J2696D01*
G01X2028069Y1619554D02*
G03X2028135Y1619013I389J-227D01*
G01X2028803Y1617372D02*
G03X2028135Y1619013I-2350J0D01*
G01X1970007Y1640250D02*
G03X1970007I-3550J0D01*
G01X1957307Y1667250D02*
G03X1957307I-7850J0D01*
G01X1977807Y1585250D02*
G03X1977807I-7850J0D01*
G01X1943807Y1555750D02*
G03X1943807I-7850J0D01*
G01X1944307Y1585250D02*
G03X1944307I-7850J0D01*
G01X1905307D02*
G03X1905307I-7850J0D01*
G01X1867896Y1600779D02*
X1881716D01*
X1868230Y1599969D02*
X1881145D01*
X1868419Y1599159D02*
X1880335D01*
X1873578Y1601589D02*
X1880188D01*
X1868479Y1598349D02*
X1879598D01*
X1874707Y1602399D02*
X1879278D01*
X1868415Y1597539D02*
X1879218D01*
X1868221Y1596729D02*
X1879107D01*
X1868171Y1595919D02*
X1879107D01*
X1875656Y1595109D02*
X1879107D01*
X1876206Y1594299D02*
X1879107D01*
X1876378Y1593489D02*
X1879107D01*
X1876379Y1592679D02*
X1879107D01*
X1876379Y1591869D02*
X1879107D01*
X1876379Y1591059D02*
X1879107D01*
X1876379Y1590249D02*
X1879107D01*
X1876379Y1589439D02*
X1879107D01*
X1876379Y1588629D02*
X1879107D01*
X1876379Y1587819D02*
X1879107D01*
X1876324Y1587009D02*
X1879107D01*
X1875977Y1586199D02*
X1879107D01*
X1875035Y1585389D02*
X1879107D01*
X1862215Y1584579D02*
X1879107D01*
X1862969Y1583769D02*
X1878945D01*
X1875411Y1603209D02*
X1878468D01*
X1863779Y1582959D02*
X1878135D01*
X1867712Y1601589D02*
X1868580D01*
X1864711Y1585389D02*
X1867123D01*
X2135807Y1694739D02*
X2147007D01*
X2135807Y1693929D02*
X2147007D01*
X2135807Y1693119D02*
X2147007D01*
X2135807Y1692309D02*
X2147007D01*
X2135807Y1691499D02*
X2147007D01*
X2135807Y1690689D02*
X2147007D01*
X2135807Y1689879D02*
X2147007D01*
X2135803Y1689069D02*
X2147007D01*
X2135677Y1688259D02*
X2147007D01*
X2135360Y1687449D02*
X2147007D01*
X2134786Y1686639D02*
X2147007D01*
X2133980Y1685829D02*
X2147007D01*
X2133170Y1685019D02*
X2147007D01*
X2132360Y1684209D02*
X2147007D01*
X2131550Y1683399D02*
X2147007D01*
X2130740Y1682589D02*
X2147007D01*
X2129930Y1681779D02*
X2147007D01*
X2128971Y1680969D02*
X2147007D01*
X1893907Y1680159D02*
X2147007D01*
X1893907Y1679349D02*
X2147007D01*
X1893907Y1678539D02*
X2147007D01*
X1884966Y1677729D02*
X2147007D01*
X1884096Y1676919D02*
X2147007D01*
X1851407Y1676109D02*
X2147007D01*
X1851407Y1675299D02*
X2147007D01*
X1952494Y1674489D02*
X2147007D01*
X1953962Y1673679D02*
X2147007D01*
X1954939Y1672869D02*
X2147007D01*
X1955662Y1672059D02*
X2147007D01*
X1956212Y1671249D02*
X2147007D01*
X1956630Y1670439D02*
X2147007D01*
X1956938Y1669629D02*
X2147007D01*
X1957149Y1668819D02*
X2147007D01*
X1975691Y1668009D02*
X2147007D01*
X1976424Y1667199D02*
X2147007D01*
X1976819Y1666389D02*
X2147007D01*
X1976992Y1665579D02*
X2147007D01*
X2006928Y1664769D02*
X2147007D01*
X2021343Y1663959D02*
X2147007D01*
X2022589Y1663149D02*
X2147007D01*
X2023399Y1662339D02*
X2147007D01*
X2024209Y1661529D02*
X2147007D01*
X2025019Y1660719D02*
X2147007D01*
X2025828Y1659909D02*
X2147007D01*
X2067575Y1659099D02*
X2147007D01*
X2068363Y1658289D02*
X2147007D01*
X2068788Y1657479D02*
X2147007D01*
X2069069Y1656669D02*
X2147007D01*
X2069879Y1655859D02*
X2147007D01*
X2070689Y1655049D02*
X2147007D01*
X2071499Y1654239D02*
X2147007D01*
X2096538Y1653429D02*
X2147007D01*
X2097601Y1652619D02*
X2147007D01*
X2098147Y1651809D02*
X2147007D01*
X2098427Y1650999D02*
X2147007D01*
X2098507Y1650189D02*
X2147007D01*
X2098398Y1649379D02*
X2147007D01*
X2098084Y1648569D02*
X2147007D01*
X2097486Y1647759D02*
X2147007D01*
X2096262Y1646949D02*
X2147007D01*
X2047807Y1646139D02*
X2147007D01*
X2047807Y1645329D02*
X2147007D01*
X2047807Y1644519D02*
X2147007D01*
X2047807Y1643709D02*
X2147007D01*
X2047807Y1642899D02*
X2147007D01*
X2047807Y1642089D02*
X2147007D01*
X2048370Y1641279D02*
X2147007D01*
X2048791Y1640469D02*
X2147007D01*
X2048983Y1639659D02*
X2147007D01*
X2048984Y1638849D02*
X2147007D01*
X2048794Y1638039D02*
X2147007D01*
X2048375Y1637229D02*
X2147007D01*
X2047599Y1636419D02*
X2147007D01*
X2027449Y1635609D02*
X2147007D01*
X2027197Y1634799D02*
X2147007D01*
X2027145Y1633989D02*
X2147007D01*
X2027840Y1633179D02*
X2147007D01*
X2028305Y1632369D02*
X2147007D01*
X2028603Y1631559D02*
X2147007D01*
X2028763Y1630749D02*
X2147007D01*
X2028796Y1629939D02*
X2147007D01*
X2028706Y1629129D02*
X2147007D01*
X2028485Y1628319D02*
X2147007D01*
X2028115Y1627509D02*
X2147007D01*
X2027557Y1626699D02*
X2147007D01*
X2027369Y1625889D02*
X2147007D01*
X2027989Y1625079D02*
X2147007D01*
X2028403Y1624269D02*
X2147007D01*
X2028661Y1623459D02*
X2147007D01*
X2028784Y1622649D02*
X2147007D01*
X2028783Y1621839D02*
X2147007D01*
X2028658Y1621029D02*
X2147007D01*
X2028398Y1620219D02*
X2147007D01*
X2028015Y1619409D02*
X2147007D01*
X2028458Y1618599D02*
X2147007D01*
X2028766Y1617789D02*
X2147007D01*
X2028803Y1616979D02*
X2147007D01*
X2028803Y1616169D02*
X2147007D01*
X2028803Y1615359D02*
X2147007D01*
X2028803Y1614549D02*
X2147007D01*
X2028803Y1613739D02*
X2147007D01*
X2028803Y1612929D02*
X2147007D01*
X2028803Y1612119D02*
X2147007D01*
X2028802Y1611309D02*
X2147007D01*
X2028632Y1610499D02*
X2147007D01*
X2028085Y1609689D02*
X2147007D01*
X2003421Y1608879D02*
X2147007D01*
X2003307Y1608069D02*
X2147007D01*
X2003307Y1607259D02*
X2147007D01*
X2003192Y1606449D02*
X2147007D01*
X2002808Y1605639D02*
X2147007D01*
X2002066Y1604829D02*
X2147007D01*
X2001256Y1604019D02*
X2147007D01*
X2000446Y1603209D02*
X2147007D01*
X1999636Y1602399D02*
X2147007D01*
X1998826Y1601589D02*
X2147007D01*
X1998016Y1600779D02*
X2147007D01*
X1997206Y1599969D02*
X2147007D01*
X1996396Y1599159D02*
X2147007D01*
X1995586Y1598349D02*
X2147007D01*
X1994776Y1597539D02*
X2147007D01*
X1993786Y1596729D02*
X2147007D01*
X1888656Y1595919D02*
X2147007D01*
X1887846Y1595109D02*
X2147007D01*
X1887036Y1594299D02*
X2147007D01*
X1886807Y1593489D02*
X2147007D01*
X1972494Y1592679D02*
X2147007D01*
X1974178Y1591869D02*
X2147007D01*
X1975237Y1591059D02*
X2147007D01*
X1976010Y1590249D02*
X2147007D01*
X1976596Y1589439D02*
X2147007D01*
X1977043Y1588629D02*
X2147007D01*
X1977375Y1587819D02*
X2147007D01*
X1977608Y1587009D02*
X2147007D01*
X1977750Y1586199D02*
X2147007D01*
X1977806Y1585389D02*
X2147007D01*
X1977778Y1584579D02*
X2147007D01*
X1977666Y1583769D02*
X2147007D01*
X1977465Y1582959D02*
X2147007D01*
X1977168Y1582149D02*
X2147007D01*
X1976763Y1581339D02*
X2147007D01*
X1976229Y1580529D02*
X2147007D01*
X1975527Y1579719D02*
X2147007D01*
X1974584Y1578909D02*
X2147007D01*
X1973195Y1578099D02*
X2147007D01*
X1883526Y1577289D02*
X2147007D01*
X1882716Y1576479D02*
X2147007D01*
X1881906Y1575669D02*
X2147007D01*
X1881008Y1574859D02*
X2147007D01*
X1851407Y1574049D02*
X2147007D01*
X1851407Y1573239D02*
X2147007D01*
X1851407Y1572429D02*
X2147007D01*
X1851407Y1571619D02*
X2147007D01*
X1851407Y1570809D02*
X2147007D01*
X1851407Y1569999D02*
X2147007D01*
X1851407Y1569189D02*
X2147007D01*
X1851407Y1568379D02*
X2147007D01*
X1851407Y1567569D02*
X2147007D01*
X1851407Y1566759D02*
X2147007D01*
X1851407Y1565949D02*
X2146959D01*
X1893907Y1694739D02*
X2128107D01*
X1893907Y1693929D02*
X2128107D01*
X1893907Y1693119D02*
X2128107D01*
X1893907Y1692309D02*
X2128107D01*
X1893907Y1691499D02*
X2128107D01*
X1893907Y1690689D02*
X2127951D01*
X1893907Y1689879D02*
X2127141D01*
X1893907Y1689069D02*
X2126331D01*
X1893907Y1688259D02*
X2125521D01*
X2047807Y1646949D02*
X2093652D01*
X2072309Y1653429D02*
X2093376D01*
X2047807Y1647759D02*
X2070073D01*
X2047807Y1648569D02*
X2069108D01*
X2047807Y1649379D02*
X2068298D01*
X2047807Y1650189D02*
X2067488D01*
X2047807Y1650999D02*
X2066678D01*
X2048201Y1651809D02*
X2065868D01*
X2048450Y1652619D02*
X2065058D01*
X2026376Y1659099D02*
X2063339D01*
X2048503Y1653429D02*
X2063302D01*
X2026604Y1658289D02*
X2062551D01*
X2048367Y1654239D02*
X2062532D01*
X2027054Y1657479D02*
X2062126D01*
X2048018Y1655049D02*
X2062116D01*
X2045914Y1656669D02*
X2061932D01*
X2047365Y1655859D02*
X2061929D01*
X1893907Y1680969D02*
X2055943D01*
X1893907Y1687449D02*
X2055814D01*
X1893907Y1681779D02*
X2055005D01*
X1893907Y1686639D02*
X2054938D01*
X1893907Y1682589D02*
X2054484D01*
X1893907Y1685829D02*
X2054446D01*
X1893907Y1683399D02*
X2054202D01*
X1893907Y1685019D02*
X2054185D01*
X1893907Y1684209D02*
X2054107D01*
X2027625Y1656669D02*
X2044000D01*
X2027503Y1636419D02*
X2043315D01*
X2027810Y1655859D02*
X2042549D01*
X2027369Y1637229D02*
X2042539D01*
X2027476Y1638039D02*
X2042120D01*
X2027771Y1650189D02*
X2042107D01*
X2027812Y1649379D02*
X2042107D01*
X2027812Y1648569D02*
X2042107D01*
X2027812Y1647759D02*
X2042107D01*
X2027812Y1646949D02*
X2042107D01*
X2027731Y1646139D02*
X2042107D01*
X2027334Y1645329D02*
X2042107D01*
X2026679Y1644519D02*
X2042107D01*
X2027305Y1643709D02*
X2042107D01*
X2027721Y1642899D02*
X2042107D01*
X2027812Y1642089D02*
X2042107D01*
X2027812Y1641279D02*
X2042107D01*
X2027453Y1650999D02*
X2042107D01*
X2027812Y1640469D02*
X2042106D01*
X2027812Y1639659D02*
X2041931D01*
X2027778Y1638849D02*
X2041930D01*
X2027812Y1655049D02*
X2041896D01*
X2027615Y1651809D02*
X2041713D01*
X2027812Y1654239D02*
X2041547D01*
X2027808Y1652619D02*
X2041464D01*
X2027812Y1653429D02*
X2041411D01*
X2009869Y1625889D02*
X2019546D01*
X2010057Y1626699D02*
X2019358D01*
X2010489Y1625079D02*
X2018925D01*
X2010515Y1619409D02*
X2018899D01*
X2010585Y1609689D02*
X2018829D01*
X2010898Y1620219D02*
X2018516D01*
X2010903Y1624269D02*
X2018511D01*
X2010958Y1618599D02*
X2018456D01*
X2011132Y1610499D02*
X2018282D01*
X2011158Y1621029D02*
X2018256D01*
X2011161Y1623459D02*
X2018253D01*
X2011266Y1617789D02*
X2018148D01*
X2011283Y1621839D02*
X2018131D01*
X2011284Y1622649D02*
X2018130D01*
X2011302Y1611309D02*
X2018112D01*
X2011303Y1616979D02*
X2018111D01*
X2011303Y1616169D02*
X2018111D01*
X2011303Y1615359D02*
X2018111D01*
X2011303Y1614549D02*
X2018111D01*
X2011303Y1613739D02*
X2018111D01*
X2011303Y1612929D02*
X2018111D01*
X2011303Y1612119D02*
X2018111D01*
X2010615Y1627509D02*
X2013950D01*
X2010985Y1628319D02*
X2012858D01*
X2011225Y1629129D02*
X2012048D01*
X2005688Y1664769D02*
X2005986D01*
X1976974D02*
X1999889D01*
X1966186Y1646949D02*
X1999440D01*
X1976764Y1663959D02*
X1999077D01*
X1965376Y1646139D02*
X1998815D01*
X1976331Y1663149D02*
X1998776D01*
X1976157Y1662339D02*
X1998742D01*
X1975729Y1661529D02*
X1998742D01*
X1976008Y1660719D02*
X1998565D01*
X1964566Y1645329D02*
X1998005D01*
X1963756Y1644519D02*
X1997195D01*
X1976596Y1659909D02*
X1997105D01*
X1976904Y1659099D02*
X1996426D01*
X1967257Y1643709D02*
X1996385D01*
X1977007Y1658289D02*
X1996062D01*
X1976635Y1656669D02*
X1995927D01*
X1976081Y1655859D02*
X1995927D01*
X1974991Y1655049D02*
X1995927D01*
X1976922Y1657479D02*
X1995914D01*
X1966996Y1647759D02*
X1995844D01*
X1968821Y1642899D02*
X1995575D01*
X1973476Y1654239D02*
X1995274D01*
X1967806Y1648569D02*
X1995060D01*
X1972666Y1653429D02*
X1994842D01*
X1968616Y1649379D02*
X1994772D01*
X1969494Y1642089D02*
X1994765D01*
X1971856Y1652619D02*
X1994742D01*
X1971046Y1651809D02*
X1994742D01*
X1970236Y1650999D02*
X1994742D01*
X1969426Y1650189D02*
X1994742D01*
X1969855Y1641279D02*
X1993955D01*
X1970000Y1640469D02*
X1993145D01*
X1969957Y1639659D02*
X1992335D01*
X1969719Y1638849D02*
X1991525D01*
X1969234Y1638039D02*
X1990715D01*
X1968321Y1637229D02*
X1990021D01*
X1960090Y1636419D02*
X1989687D01*
X1960402Y1635609D02*
X1989607D01*
X1960507Y1634799D02*
X1989607D01*
X1960424Y1633989D02*
X1989607D01*
X1960140Y1633179D02*
X1989607D01*
X1959807Y1632369D02*
X1989607D01*
X1959807Y1631559D02*
X1989607D01*
X1959807Y1630749D02*
X1989607D01*
X1959807Y1629939D02*
X1989607D01*
X1959807Y1629129D02*
X1989607D01*
X1959807Y1628319D02*
X1989607D01*
X1988398Y1627509D02*
X1989511D01*
X1959807D02*
X1986516D01*
X1959807Y1626699D02*
X1984499D01*
X1959807Y1625889D02*
X1983546D01*
X1959807Y1625079D02*
X1982925D01*
X1965028Y1619409D02*
X1982899D01*
X1964387Y1620219D02*
X1982516D01*
X1960337Y1624269D02*
X1982511D01*
X1965318Y1618599D02*
X1982456D01*
X1963577Y1621029D02*
X1982256D01*
X1961147Y1623459D02*
X1982253D01*
X1965370Y1617789D02*
X1982148D01*
X1962767Y1621839D02*
X1982131D01*
X1961957Y1622649D02*
X1982130D01*
X1957270Y1668009D02*
X1971223D01*
X1957307Y1667199D02*
X1970490D01*
X1957260Y1666389D02*
X1970095D01*
X1968691Y1665579D02*
X1969916D01*
X1938994Y1592679D02*
X1967420D01*
X1939695Y1578099D02*
X1966719D01*
X1957127Y1665579D02*
X1966223D01*
X1940678Y1591869D02*
X1965736D01*
X1962946Y1643709D02*
X1965657D01*
X1941084Y1578909D02*
X1965330D01*
X1956905Y1664769D02*
X1964955D01*
X1941737Y1591059D02*
X1964677D01*
X1959498Y1637229D02*
X1964593D01*
X1942027Y1579719D02*
X1964387D01*
X1956584Y1663959D02*
X1964345D01*
X1962136Y1642899D02*
X1964093D01*
X1956150Y1663149D02*
X1964023D01*
X1942510Y1590249D02*
X1963904D01*
X1942729Y1580529D02*
X1963685D01*
X1958294Y1638039D02*
X1963680D01*
X1955581Y1662339D02*
X1963515D01*
X1961326Y1642089D02*
X1963420D01*
X1943096Y1589439D02*
X1963318D01*
X1958086Y1638849D02*
X1963195D01*
X1943263Y1581339D02*
X1963151D01*
X1960516Y1641279D02*
X1963059D01*
X1958896Y1639659D02*
X1962957D01*
X1959706Y1640469D02*
X1962914D01*
X1943543Y1588629D02*
X1962871D01*
X1943668Y1582149D02*
X1962746D01*
X1954832Y1661529D02*
X1962705D01*
X1943875Y1587819D02*
X1962539D01*
X1943965Y1582959D02*
X1962449D01*
X1944108Y1587009D02*
X1962307D01*
X1944166Y1583769D02*
X1962248D01*
X1944250Y1586199D02*
X1962165D01*
X1944278Y1584579D02*
X1962136D01*
X1944306Y1585389D02*
X1962108D01*
X1953812Y1660719D02*
X1961895D01*
X1952237Y1659909D02*
X1961085D01*
X1851407Y1659099D02*
X1960275D01*
X1851407Y1658289D02*
X1959465D01*
X1851407Y1657479D02*
X1958655D01*
X1851407Y1656669D02*
X1957845D01*
X1851407Y1655859D02*
X1957035D01*
X1851407Y1655049D02*
X1956225D01*
X1851407Y1654239D02*
X1955415D01*
X1851407Y1653429D02*
X1954605D01*
X1851407Y1565139D02*
X1954007D01*
X1851407Y1564329D02*
X1954007D01*
X1937084Y1563519D02*
X1954007D01*
X1939590Y1562709D02*
X1954007D01*
X1940837Y1561899D02*
X1954007D01*
X1941712Y1561089D02*
X1954007D01*
X1942369Y1560279D02*
X1954007D01*
X1942870Y1559469D02*
X1954007D01*
X1943248Y1558659D02*
X1954007D01*
X1943521Y1557849D02*
X1954007D01*
X1943701Y1557039D02*
X1954007D01*
X1943792Y1556229D02*
X1954007D01*
X1943800Y1555419D02*
X1954007D01*
X1943724Y1554609D02*
X1954007D01*
X1943561Y1553799D02*
X1954007D01*
X1943305Y1552989D02*
X1954007D01*
X1942948Y1552179D02*
X1954007D01*
X1942471Y1551369D02*
X1954007D01*
X1941845Y1550559D02*
X1954007D01*
X1941017Y1549749D02*
X1954007D01*
X1939859Y1548939D02*
X1954007D01*
X1937838Y1548129D02*
X1954007D01*
X1881321Y1547319D02*
X1954007D01*
X1881937Y1546509D02*
X1954007D01*
X1882487Y1545699D02*
X1954007D01*
X1882977Y1544889D02*
X1954007D01*
X1883412Y1544079D02*
X1954007D01*
X1883798Y1543269D02*
X1954007D01*
X1884137Y1542459D02*
X1954007D01*
X1884431Y1541649D02*
X1954007D01*
X1884684Y1540839D02*
X1954007D01*
X1884897Y1540029D02*
X1954007D01*
X1885071Y1539219D02*
X1954007D01*
X1885207Y1538409D02*
X1954007D01*
X1885307Y1537599D02*
X1954007D01*
X1885371Y1536789D02*
X1954007D01*
X1885399Y1535979D02*
X1954007D01*
X1885391Y1535169D02*
X1954007D01*
X1885347Y1534359D02*
X1954007D01*
X1885268Y1533549D02*
X1954007D01*
X1885153Y1532739D02*
X1954007D01*
X1885000Y1531929D02*
X1954007D01*
X1884809Y1531119D02*
X1954007D01*
X1884579Y1530309D02*
X1954007D01*
X1884308Y1529499D02*
X1954007D01*
X1883995Y1528689D02*
X1954007D01*
X1883636Y1527879D02*
X1954007D01*
X1883229Y1527069D02*
X1954007D01*
X1882770Y1526259D02*
X1954007D01*
X1882255Y1525449D02*
X1954007D01*
X1881677Y1524639D02*
X1954007D01*
X1881029Y1523829D02*
X1954007D01*
X1880301Y1523019D02*
X1954007D01*
X1879478Y1522209D02*
X1954007D01*
X1878541Y1521399D02*
X1954007D01*
X1877458Y1520589D02*
X1954007D01*
X1876180Y1519779D02*
X1954007D01*
X1874608Y1518969D02*
X1954007D01*
X1872497Y1518159D02*
X1954007D01*
X1868197Y1517349D02*
X1954007D01*
X1851407Y1516539D02*
X1954007D01*
X1851407Y1515729D02*
X1954007D01*
X1851407Y1514919D02*
X1954007D01*
X1851407Y1514109D02*
X1954007D01*
X1851407Y1513299D02*
X1954007D01*
X1851407Y1512489D02*
X1954007D01*
X1851407Y1511679D02*
X1954007D01*
X1851407Y1510869D02*
X1954007D01*
X1851407Y1510059D02*
X1954007D01*
X1851407Y1509249D02*
X1954007D01*
X1851407Y1508439D02*
X1954007D01*
X1851407Y1507629D02*
X1954007D01*
X1851407Y1506819D02*
X1954007D01*
X1851407Y1506009D02*
X1954007D01*
X1851407Y1505199D02*
X1954007D01*
X1851407Y1504389D02*
X1954007D01*
X1851407Y1503579D02*
X1954007D01*
X1851407Y1502769D02*
X1954007D01*
X1851407Y1501959D02*
X1954007D01*
X1851407Y1501149D02*
X1954007D01*
X1851407Y1500339D02*
X1954007D01*
X1851407Y1499529D02*
X1954007D01*
X1851407Y1498719D02*
X1954007D01*
X1851407Y1497909D02*
X1954007D01*
X1851407Y1497099D02*
X1954007D01*
X1851407Y1496289D02*
X1954007D01*
X1851407Y1495479D02*
X1954007D01*
X1851407Y1494669D02*
X1954007D01*
X1851407Y1493859D02*
X1954007D01*
X1851407Y1493049D02*
X1954007D01*
X1851407Y1492239D02*
X1954007D01*
X1851407Y1491429D02*
X1954007D01*
X1851407Y1490619D02*
X1954007D01*
X1851407Y1489809D02*
X1954007D01*
X1851407Y1488999D02*
X1954007D01*
X1851407Y1488189D02*
X1954007D01*
X1851407Y1487379D02*
X1954007D01*
X1851407Y1486569D02*
X1954007D01*
X1851407Y1485759D02*
X1954007D01*
X1851407Y1484949D02*
X1954007D01*
X1851407Y1484139D02*
X1954007D01*
X1851407Y1483329D02*
X1954007D01*
X1851407Y1482519D02*
X1954007D01*
X1851407Y1481709D02*
X1954007D01*
X1851407Y1480899D02*
X1954007D01*
X1851407Y1480089D02*
X1954007D01*
X1851407Y1479279D02*
X1954007D01*
X1851407Y1478469D02*
X1954007D01*
X1851407Y1477659D02*
X1954007D01*
X1851407Y1476849D02*
X1954007D01*
X1851407Y1476039D02*
X1954007D01*
X1851407Y1475229D02*
X1954007D01*
X1851407Y1474419D02*
X1954007D01*
X1851407Y1473609D02*
X1954007D01*
X1851407Y1472799D02*
X1954007D01*
X1851407Y1471989D02*
X1954007D01*
X1851775Y1471179D02*
X1954007D01*
X1852298Y1470369D02*
X1954007D01*
X1852879Y1469559D02*
X1954007D01*
X1853525Y1468749D02*
X1954007D01*
X1854245Y1467939D02*
X1954007D01*
X1855049Y1467129D02*
X1954007D01*
X1855955Y1466319D02*
X1954007D01*
X1856985Y1465509D02*
X1954007D01*
X1851407Y1652619D02*
X1953795D01*
X1851407Y1651809D02*
X1952985D01*
X1851407Y1650999D02*
X1952175D01*
X1851407Y1650189D02*
X1951365D01*
X1851407Y1649379D02*
X1950555D01*
X1851407Y1648569D02*
X1949745D01*
X1851407Y1647759D02*
X1948935D01*
X1851407Y1646949D02*
X1948125D01*
X1851407Y1646139D02*
X1947315D01*
X1851407Y1659909D02*
X1946677D01*
X1851407Y1645329D02*
X1946505D01*
X1851407Y1674489D02*
X1946420D01*
X1851407Y1644519D02*
X1945695D01*
X1851407Y1660719D02*
X1945102D01*
X1851407Y1673679D02*
X1944952D01*
X1851407Y1643709D02*
X1944885D01*
X1851407Y1661529D02*
X1944082D01*
X1864831Y1642899D02*
X1944075D01*
X1851407Y1672869D02*
X1943975D01*
X1851407Y1662339D02*
X1943333D01*
X1866378Y1642089D02*
X1943265D01*
X1851407Y1672059D02*
X1943252D01*
X1851407Y1663149D02*
X1942764D01*
X1851407Y1671249D02*
X1942702D01*
X1867231Y1641279D02*
X1942455D01*
X1851407Y1663959D02*
X1942330D01*
X1851407Y1670439D02*
X1942284D01*
X1851407Y1664769D02*
X1942009D01*
X1851407Y1669629D02*
X1941976D01*
X1851407Y1665579D02*
X1941787D01*
X1851407Y1668819D02*
X1941765D01*
X1851407Y1666389D02*
X1941654D01*
X1867794Y1640469D02*
X1941645D01*
X1851407Y1668009D02*
X1941644D01*
X1851407Y1667199D02*
X1941607D01*
X1868165Y1639659D02*
X1940835D01*
X1868387Y1638849D02*
X1940025D01*
X1868476Y1638039D02*
X1939215D01*
X1868441Y1637229D02*
X1938405D01*
X1868279Y1636419D02*
X1937595D01*
X1867976Y1635609D02*
X1936785D01*
X1873248Y1634799D02*
X1935975D01*
X1874526Y1633989D02*
X1935165D01*
X1851407Y1563519D02*
X1934830D01*
X1875292Y1633179D02*
X1934355D01*
X1880629Y1548129D02*
X1934076D01*
X1899994Y1592679D02*
X1933920D01*
X1875801Y1632369D02*
X1933545D01*
X1900695Y1578099D02*
X1933219D01*
X1876133Y1631559D02*
X1932735D01*
X1851407Y1562709D02*
X1932324D01*
X1901678Y1591869D02*
X1932236D01*
X1879849Y1548939D02*
X1932055D01*
X1929059Y1630749D02*
X1931925D01*
X1902084Y1578909D02*
X1931830D01*
X1902737Y1591059D02*
X1931177D01*
X1851407Y1561899D02*
X1931077D01*
X1878965Y1549749D02*
X1930897D01*
X1903027Y1579719D02*
X1930887D01*
X1903510Y1590249D02*
X1930404D01*
X1851407Y1561089D02*
X1930202D01*
X1903729Y1580529D02*
X1930185D01*
X1877950Y1550559D02*
X1930069D01*
X1904096Y1589439D02*
X1929818D01*
X1904263Y1581339D02*
X1929651D01*
X1851407Y1560279D02*
X1929545D01*
X1876765Y1551369D02*
X1929443D01*
X1904543Y1588629D02*
X1929371D01*
X1904668Y1582149D02*
X1929246D01*
X1851407Y1559469D02*
X1929044D01*
X1904875Y1587819D02*
X1929039D01*
X1875338Y1552179D02*
X1928966D01*
X1904965Y1582959D02*
X1928949D01*
X1905108Y1587009D02*
X1928807D01*
X1905166Y1583769D02*
X1928748D01*
X1851407Y1558659D02*
X1928666D01*
X1905250Y1586199D02*
X1928665D01*
X1905278Y1584579D02*
X1928636D01*
X1873512Y1552989D02*
X1928609D01*
X1905306Y1585389D02*
X1928608D01*
X1851407Y1557849D02*
X1928393D01*
X1870750Y1553799D02*
X1928353D01*
X1851407Y1557039D02*
X1928214D01*
X1851407Y1554609D02*
X1928190D01*
X1851407Y1556229D02*
X1928122D01*
X1851407Y1555419D02*
X1928114D01*
X1876320Y1630749D02*
X1927855D01*
X1876379Y1629939D02*
X1926139D01*
X1876313Y1629129D02*
X1925445D01*
X1919368Y1625889D02*
X1925178D01*
X1876118Y1628319D02*
X1925072D01*
X1918415Y1626699D02*
X1924950D01*
X1916398Y1627509D02*
X1924916D01*
X1875777D02*
X1914516D01*
X1875255Y1626699D02*
X1912499D01*
X1874825Y1625889D02*
X1911546D01*
X1875437Y1625079D02*
X1910925D01*
X1903374Y1619409D02*
X1910899D01*
X1902556Y1620219D02*
X1910516D01*
X1875898Y1624269D02*
X1910511D01*
X1903992Y1618599D02*
X1910456D01*
X1901416Y1621029D02*
X1910256D01*
X1876192Y1623459D02*
X1910253D01*
X1904464Y1617789D02*
X1910148D01*
X1899466Y1621839D02*
X1910131D01*
X1876347Y1622649D02*
X1910130D01*
X1876374Y1621839D02*
X1895448D01*
X1886807Y1592679D02*
X1894920D01*
X1884336Y1578099D02*
X1894219D01*
X1876277Y1621029D02*
X1893498D01*
X1886807Y1591869D02*
X1893236D01*
X1885146Y1578909D02*
X1892830D01*
X1876048Y1620219D02*
X1892358D01*
X1886807Y1591059D02*
X1892177D01*
X1885956Y1579719D02*
X1891887D01*
X1875667Y1619409D02*
X1891540D01*
X1886807Y1590249D02*
X1891404D01*
X1886532Y1580529D02*
X1891185D01*
X1875090Y1618599D02*
X1890922D01*
X1884049Y1609689D02*
X1890887D01*
X1886807Y1589439D02*
X1890818D01*
X1886777Y1581339D02*
X1890651D01*
X1883239Y1610499D02*
X1890561D01*
X1874945Y1617789D02*
X1890450D01*
X1886807Y1588629D02*
X1890371D01*
X1886807Y1582149D02*
X1890246D01*
X1882429Y1611309D02*
X1890179D01*
X1875983Y1616979D02*
X1890097D01*
X1886807Y1587819D02*
X1890039D01*
X1886807Y1582959D02*
X1889949D01*
X1881619Y1612119D02*
X1889902D01*
X1877569Y1616169D02*
X1889845D01*
X1886807Y1587009D02*
X1889807D01*
X1886807Y1583769D02*
X1889748D01*
X1880809Y1612929D02*
X1889719D01*
X1878379Y1615359D02*
X1889686D01*
X1886807Y1586199D02*
X1889665D01*
X1886807Y1584579D02*
X1889636D01*
X1879999Y1613739D02*
X1889624D01*
X1879189Y1614549D02*
X1889613D01*
X1886807Y1585389D02*
X1889608D01*
X1867650Y1634799D02*
X1868911D01*
X1864800Y1611309D02*
X1866595D01*
X1864677Y1616979D02*
X1866582D01*
X1851407Y1612119D02*
X1866189D01*
X1851407Y1616169D02*
X1866173D01*
X1851407Y1612929D02*
X1865925D01*
X1851407Y1615359D02*
X1865916D01*
X1851407Y1613739D02*
X1865796D01*
X1851407Y1614549D02*
X1865793D01*
X1851407Y1517349D02*
X1865717D01*
X1851407Y1553799D02*
X1863164D01*
X1851407Y1616979D02*
X1861681D01*
X1851407Y1611309D02*
X1861558D01*
X1851407Y1642899D02*
X1861527D01*
X1851407Y1518159D02*
X1861417D01*
X1851407Y1574859D02*
X1860906D01*
X1851407Y1552989D02*
X1860402D01*
X1851407Y1617789D02*
X1860045D01*
X1851407Y1575669D02*
X1860008D01*
X1851407Y1610499D02*
X1859994D01*
X1851407Y1642089D02*
X1859981D01*
X1851407Y1633989D02*
X1859444D01*
X1851407Y1625889D02*
X1859433D01*
X1851407Y1518969D02*
X1859306D01*
X1851407Y1576479D02*
X1859198D01*
X1851407Y1618599D02*
X1859168D01*
X1851407Y1609689D02*
X1859135D01*
X1851407Y1641279D02*
X1859127D01*
X1851407Y1626699D02*
X1859003D01*
X1851407Y1633179D02*
X1858966D01*
X1851407Y1634799D02*
X1858854D01*
X1851407Y1625079D02*
X1858821D01*
X1851407Y1619409D02*
X1858591D01*
X1851407Y1552179D02*
X1858576D01*
X1851407Y1608879D02*
X1858570D01*
X1851407Y1640469D02*
X1858564D01*
X1851407Y1627509D02*
X1858481D01*
X1851407Y1632369D02*
X1858457D01*
X1851407Y1577289D02*
X1858388D01*
X1851407Y1635609D02*
X1858382D01*
X1851407Y1624269D02*
X1858360D01*
X1851407Y1620219D02*
X1858210D01*
X1851407Y1608069D02*
X1858196D01*
X1851407Y1639659D02*
X1858193D01*
X1851407Y1628319D02*
X1858140D01*
X1851407Y1631559D02*
X1858125D01*
X1851407Y1636419D02*
X1858080D01*
X1851407Y1623459D02*
X1858066D01*
X1851407Y1621029D02*
X1857981D01*
X1851407Y1638849D02*
X1857972D01*
X1851407Y1629129D02*
X1857945D01*
X1851407Y1630749D02*
X1857938D01*
X1851407Y1607259D02*
X1857929D01*
X1851407Y1637229D02*
X1857917D01*
X1851407Y1622649D02*
X1857912D01*
X1851407Y1621839D02*
X1857884D01*
X1851407Y1638039D02*
X1857882D01*
X1851407Y1629939D02*
X1857879D01*
X1851407Y1676919D02*
X1857818D01*
X1851407Y1519779D02*
X1857734D01*
X1851407Y1578099D02*
X1857578D01*
X1851407Y1551369D02*
X1857149D01*
X1851407Y1606449D02*
X1857125D01*
X1851407Y1677729D02*
X1856948D01*
X1851407Y1578909D02*
X1856768D01*
X1851407Y1520589D02*
X1856456D01*
X1851407Y1605639D02*
X1856315D01*
X1851407Y1550559D02*
X1855964D01*
X1851407Y1579719D02*
X1855958D01*
X1851407Y1604829D02*
X1855505D01*
X1851407Y1521399D02*
X1855373D01*
X1851407Y1580529D02*
X1855148D01*
X1851407Y1549749D02*
X1854949D01*
X1851407Y1604019D02*
X1854695D01*
X1851407Y1522209D02*
X1854436D01*
X1851407Y1581339D02*
X1854343D01*
X1851407Y1548939D02*
X1854065D01*
X1851407Y1603209D02*
X1854009D01*
X1851407Y1582149D02*
X1853828D01*
X1851407Y1602399D02*
X1853682D01*
X1851407Y1582959D02*
X1853622D01*
X1851407Y1523019D02*
X1853613D01*
X1851407Y1601589D02*
X1853607D01*
X1851407Y1600779D02*
X1853607D01*
X1851407Y1599969D02*
X1853607D01*
X1851407Y1599159D02*
X1853607D01*
X1851407Y1598349D02*
X1853607D01*
X1851407Y1597539D02*
X1853607D01*
X1851407Y1596729D02*
X1853607D01*
X1851407Y1595919D02*
X1853607D01*
X1851407Y1595109D02*
X1853607D01*
X1851407Y1594299D02*
X1853607D01*
X1851407Y1593489D02*
X1853607D01*
X1851407Y1592679D02*
X1853607D01*
X1851407Y1591869D02*
X1853607D01*
X1851407Y1591059D02*
X1853607D01*
X1851407Y1590249D02*
X1853607D01*
X1851407Y1589439D02*
X1853607D01*
X1851407Y1588629D02*
X1853607D01*
X1851407Y1587819D02*
X1853607D01*
X1851407Y1587009D02*
X1853607D01*
X1851407Y1586199D02*
X1853607D01*
X1851407Y1585389D02*
X1853607D01*
X1851407Y1584579D02*
X1853607D01*
X1851407Y1583769D02*
X1853607D01*
X1851407Y1548129D02*
X1853285D01*
X1851407Y1523829D02*
X1852885D01*
X1851407Y1547319D02*
X1852594D01*
X1851479Y1524639D02*
X1852237D01*
G54D14*
X1987457Y1630124D02*
X1989331D01*
X1904457Y1695450D02*
Y1695550D01*
X1924458Y1695363D02*
X1924457Y1695364D01*
Y1695550*
X1964457Y1695350D02*
Y1695550D01*
X1944457Y1695350D02*
Y1695550D01*
X1983457Y1695350D02*
Y1695550D01*
X2003457Y1695350D02*
Y1695550D01*
X2042457Y1695350D02*
Y1695550D01*
X2022457Y1695350D02*
Y1695550D01*
X2082457Y1695350D02*
X2082257Y1695550D01*
X2081457*
X2062313Y1695350D02*
X2062457Y1695494D01*
Y1695550*
X2120457Y1695322D02*
Y1695550D01*
X2105457Y1695322D02*
X2103728Y1695350D01*
X2101457D02*
Y1695550D01*
G54D22*
X2093457Y1498250D03*
X2010457D03*
G54D23*
X2098457Y1508250D03*
X2103457Y1498250D03*
X2108457Y1508250D03*
X2113457Y1498250D03*
X2118457Y1508250D03*
X2123457Y1498250D03*
X2128457Y1508250D03*
X2015457D03*
X2020457Y1498250D03*
X2025457Y1508250D03*
X2030457Y1498250D03*
X2035457Y1508250D03*
X2040457Y1498250D03*
X2045457Y1508250D03*
G54D36*
X1897457Y1555750D03*
X1948457Y1625250D03*
X1897457Y1614250D03*
X1949457Y1667250D03*
X1969957Y1585250D03*
X1936457D03*
X1897457D03*
X1935957Y1555750D03*
G54D38*
X1853957Y1647450D02*
Y1647750D01*
X1991957Y1655750D02*
Y1659750D01*
X1993457Y1661250*
X1996137*
X1992137Y1651250D02*
X1991957Y1655750D01*
X1924458Y1695363D02*
X1904457Y1695450D01*
X1964457Y1695350D02*
X1944457D01*
X1927457*
X1924458Y1695363*
X1964457Y1695350D02*
X1983457D01*
X2003457*
X2042457D02*
X2022457D01*
X2003457*
X2082457D02*
X2062313D01*
X2042457*
X2120457Y1695322D02*
X2105457D01*
X2082457Y1695350D02*
X2101457D01*
X2103728*
G54D43*
G54D125*
X2002777Y1661250D03*
X1996137D03*
X1998777Y1651250D03*
X1992137D03*
X2023777Y1648250D03*
X2017137D03*
X2023777Y1640750D03*
X2017137D03*
X2023777Y1654250D03*
X2017137D03*
G54D135*
X1904457Y1704950D03*
Y1695550D03*
X2081457Y1704950D03*
Y1695550D03*
X2101457Y1704950D03*
Y1695550D03*
X2120457Y1704950D03*
Y1695550D03*
X1924457Y1704950D03*
Y1695550D03*
X1944457Y1704950D03*
Y1695550D03*
X1964457Y1704950D03*
Y1695550D03*
X1983457Y1704950D03*
Y1695550D03*
X2003457Y1704950D03*
Y1695550D03*
X2022457Y1704950D03*
Y1695550D03*
X2042457Y1704950D03*
Y1695550D03*
X2062457Y1704950D03*
Y1695550D03*
G54D141*
X2088457Y1473250D03*
X2133457D03*
X2005457D03*
X2050457D03*
G54D142*
X2080457Y1485250D03*
X2141457D03*
X1997457D03*
X2058457D03*
G54D143*
X1871079Y1590463D03*
Y1698250D03*
G54D144*
X1863179Y1590463D03*
X1871079Y1598363D03*
X1863179D03*
X1871079Y1606263D03*
X1863179D03*
X1871079Y1614163D03*
X1863179D03*
X1871079Y1622063D03*
X1863179D03*
X1871079Y1629963D03*
X1863179D03*
X1871079Y1637863D03*
X1863179D03*
Y1698250D03*
X1871079Y1706150D03*
X1863179D03*
X1871079Y1714050D03*
X1863179D03*
X1871079Y1721950D03*
X1863179D03*
X1871079Y1729850D03*
X1863179D03*
X1871079Y1737750D03*
X1863179D03*
X1871079Y1745650D03*
X1863179D03*
G54D148*
X1892457Y1738750D03*
X1912457Y1739250D03*
X1931457D03*
X1951457D03*
X1971457D03*
X1990457D03*
X2011457D03*
X2030457D03*
X2049457D03*
X2089457D03*
X2069457D03*
X2108457D03*
X1896866Y1765856D03*
X1916552D03*
X1936237D03*
X1955922D03*
X1975607D03*
X1995292D03*
X2014977Y1766053D03*
X2034662Y1765856D03*
X2054347Y1766053D03*
X2074032D03*
X2093717Y1765856D03*
X2109465Y1763888D03*
G54D149*
X1863179Y1614163D02*
X1856957D01*
X1853957Y1617163*
Y1647450*
Y1647750D02*
X1871079D01*
X1853957Y1647450D02*
Y1676250D01*
X1871079Y1637863D02*
Y1647750D01*
X2057957Y1684250D02*
X2126957D01*
X2131957Y1689250*
Y1725050*
X2129357Y1727650*
G54D152*
X1853457Y1572750D03*
X1992957Y1576250D03*
X2073457D03*
X1853957Y1609750D03*
X1928457Y1627250D03*
X1987457Y1604250D03*
X1976957Y1624250D03*
Y1618750D03*
X2042957Y1623750D03*
X2016457Y1610750D03*
X1932457Y1632250D03*
X1925957Y1645250D03*
X1966457Y1640250D03*
X1956957Y1634750D03*
X1950457Y1635250D03*
X1967457Y1662250D03*
X2006457Y1661250D03*
X1991957Y1655750D03*
X2007457Y1643250D03*
X1973457Y1665250D03*
Y1658250D03*
X1999457Y1657250D03*
X2044957Y1653250D03*
X2023957Y1636250D03*
X2036457Y1637250D03*
X2016957Y1657250D03*
X2017457Y1645250D03*
X2032957Y1669750D03*
X2041957Y1669250D03*
X2045457Y1639250D03*
X2065457Y1656250D03*
X2094957Y1650250D03*
X1853957Y1676250D03*
X1924457Y1709250D03*
X1897257Y1695450D03*
X1904457Y1709250D03*
X1944457D03*
X1964457D03*
X1983457D03*
X2003457D03*
X2022457D03*
X2042457D03*
X2057957Y1684250D03*
X2081457Y1709250D03*
X2062457D03*
X2120457D03*
X2101457D03*
X1932457Y1721250D03*
X1893457D03*
X1908957Y1724750D03*
X1947957Y1724250D03*
X1971457Y1721250D03*
X2011457D03*
X1987457Y1724750D03*
X2050457Y1721250D03*
X2026957Y1724750D03*
X2090457Y1721250D03*
X2066457Y1724750D03*
X2105957D03*
X2129357Y1727650D03*
G54D154*
X1896670Y1791250D03*
G54D155*
X1910449D03*
X1924229D03*
X1938008D03*
X1951788D03*
X1965567D03*
X1979347D03*
X1993126D03*
X2006906D03*
X2020685D03*
X2034465D03*
X2048244D03*
X2062024D03*
X2075803D03*
X2089583D03*
X2103363D03*
G54D156*
X1915457Y1614376D03*
X1987457D03*
X2005957D03*
X2023457D03*
G54D157*
X1915457Y1622250D03*
Y1630124D03*
X1987457Y1622250D03*
Y1630124D03*
X2005957Y1622250D03*
Y1630124D03*
X2023457Y1622250D03*
Y1630124D03*
G54D158*
X1896457Y1758750D03*
Y1733750D03*
X1916552Y1758750D03*
Y1733750D03*
X1936237Y1758750D03*
Y1733750D03*
X1955922Y1758750D03*
Y1733750D03*
X1975607Y1758750D03*
Y1733750D03*
X1995292Y1758750D03*
Y1733750D03*
X2014977Y1758750D03*
Y1733750D03*
X2034662Y1758750D03*
Y1733750D03*
X2054150Y1758750D03*
Y1733750D03*
X2074032Y1758750D03*
Y1733750D03*
X2093717Y1758750D03*
Y1733750D03*
X2113402Y1758750D03*
Y1733750D03*
G54D159*
X1867142Y1783376D03*
X2133457D03*
Y1535750D03*
X1866957D03*
G54D165*
X1857457Y1765250D03*
X2144957Y1555250D03*
G54D173*
X1904457Y1695450D02*
X1897257D01*
G74*
X0Y0D02*
M02*
